<svg width="47" height="41" viewBox="0 0 47 41" fill="none" xmlns="http://www.w3.org/2000/svg">
<path d="M45.3868 31.6119L28.6786 3.33276C27.5814 1.53725 25.6859 0.440002 23.5913 0.440002C21.4966 0.440002 19.6012 1.53725 18.5039 3.33276L1.79577 31.6119C0.69852 33.4074 0.69852 35.6517 1.74567 37.4473C2.84293 39.3427 4.73836 40.44 6.83302 40.44H40.3491C42.4438 40.44 44.3889 39.3427 45.4364 37.4473C46.4836 35.6518 46.4836 33.4075 45.3863 31.6119H45.3868ZM43.4417 36.2999C42.7932 37.3972 41.6461 38.0954 40.3993 38.0954H6.78346C5.53658 38.0954 4.33949 37.4469 3.74108 36.2999C3.0926 35.2027 3.0926 33.856 3.74108 32.8088L20.549 4.47971C21.1975 3.38245 22.3445 2.78404 23.5914 2.78404C24.8382 2.78404 26.0353 3.43253 26.6337 4.47971L43.4417 32.7589C44.0404 33.8561 44.0404 35.2028 43.4417 36.2998V36.2999Z" fill="#FE3C30"/>
<path d="M23.5914 11.213C22.7435 11.213 22.0453 11.9113 22.0453 12.7591V25.2777C22.0453 26.1255 22.7436 26.8237 23.5914 26.8237C24.4392 26.8237 25.1374 26.1255 25.1374 25.2777V12.7599C25.1374 11.9118 24.4392 11.2136 23.5914 11.2136V11.213Z" fill="#FE3C30"/>
<path d="M23.5914 29.6668C22.7435 29.6668 22.0453 30.365 22.0453 31.2128V32.0109C22.0453 32.8588 22.7436 33.557 23.5914 33.557C24.4392 33.557 25.1374 32.8587 25.1374 32.0109V31.2128C25.1374 30.2651 24.4392 29.6668 23.5914 29.6668Z" fill="#FE3C30"/>
</svg>
