<svg width="22" height="24" viewBox="0 0 22 24" fill="none" xmlns="http://www.w3.org/2000/svg">
<path d="M6.28525 0.000669596C6.17668 0.000669596 6.06781 0.021427 5.96496 0.0642809L3.44506 1.06979L1.20527 0.0765568C0.936716 -0.0434343 0.63406 -0.0209359 0.388364 0.139052C0.148382 0.29904 0 0.567458 0 0.858865V22.0001C0 22.2916 0.148382 22.56 0.388364 22.72C0.63406 22.8799 0.94243 22.9024 1.20527 22.7825L3.44506 21.7892L5.96496 22.7947C6.17066 22.8804 6.39984 22.8804 6.60554 22.7947L9.14218 21.7825L9.23927 21.8227C8.90786 21.3256 8.63922 20.7893 8.43353 20.2179L6.28525 21.075L3.74861 20.0628C3.53148 19.9771 3.29154 19.9779 3.08013 20.0751L1.71416 20.6799V2.17908L3.08013 2.78394C3.29154 2.88108 3.53148 2.88193 3.74861 2.79622L6.28525 1.78402L8.82189 2.79622C9.02759 2.88193 9.25677 2.88193 9.46247 2.79622L11.9991 1.78402L14.5357 2.79622C14.7529 2.88193 14.9928 2.88108 15.2042 2.78394L16.5702 2.17908V10.3727C17.1702 10.4698 17.7415 10.6296 18.2844 10.8581V0.858865C18.2844 0.567458 18.136 0.29904 17.896 0.139052C17.6503 -0.0152221 17.3476 -0.0434343 17.0791 0.0765568L14.8393 1.06979L12.3194 0.0642809C12.1137 -0.021427 11.8845 -0.021427 11.6788 0.0642809L9.14218 1.07648L6.60554 0.0642809C6.50269 0.021427 6.39381 0.000669596 6.28525 0.000669596ZM4.2854 6.28703C4.17182 6.28543 4.05906 6.30641 3.95367 6.34876C3.84828 6.39111 3.75235 6.45399 3.67147 6.53373C3.59059 6.61348 3.52636 6.70851 3.48252 6.81329C3.43868 6.91808 3.41611 7.03053 3.41611 7.14411C3.41611 7.2577 3.43868 7.37015 3.48252 7.47493C3.52636 7.57972 3.59059 7.67474 3.67147 7.75449C3.75235 7.83423 3.84828 7.89711 3.95367 7.93946C4.05906 7.98181 4.17182 8.0028 4.2854 8.00119H13.999C14.1125 8.0028 14.2253 7.98181 14.3307 7.93946C14.4361 7.89711 14.532 7.83423 14.6129 7.75449C14.6938 7.67474 14.758 7.57972 14.8018 7.47493C14.8457 7.37015 14.8682 7.2577 14.8682 7.14411C14.8682 7.03053 14.8457 6.91808 14.8018 6.81329C14.758 6.70851 14.6938 6.61348 14.6129 6.53373C14.532 6.45399 14.4361 6.39111 14.3307 6.34876C14.2253 6.30641 14.1125 6.28543 13.999 6.28703H4.2854ZM15.4274 11.4295C11.9563 11.4295 9.14218 14.2436 9.14218 17.7148C9.14218 21.1859 11.9563 24 15.4274 24C18.8986 24 21.7127 21.1859 21.7127 17.7148C21.7127 14.2436 18.8986 11.4295 15.4274 11.4295ZM4.2854 12.0009C3.81115 12.0009 3.42832 12.3837 3.42832 12.858C3.42832 13.3322 3.81115 13.715 4.2854 13.715H9.17119C9.58259 13.0637 10.0959 12.4866 10.6845 12.0009H4.2854ZM18.8557 14.8578C19.0019 14.8578 19.148 14.9135 19.2597 15.0252C19.4831 15.2486 19.4831 15.6098 19.2597 15.8332L14.6886 20.4043C14.5772 20.5157 14.4309 20.5717 14.2847 20.5717C14.1384 20.5717 13.9921 20.5157 13.8807 20.4043L11.5951 18.1187C11.3717 17.8953 11.3717 17.5342 11.5951 17.3108C11.8185 17.0874 12.1797 17.0874 12.4031 17.3108L14.2847 19.1923L18.4518 15.0252C18.5635 14.9135 18.7096 14.8578 18.8557 14.8578ZM4.2854 15.4292C3.81115 15.4292 3.42832 15.812 3.42832 16.2863C3.42832 16.7605 3.81115 17.1434 4.2854 17.1434H8.02842C8.06842 16.5491 8.18274 15.9777 8.35987 15.4292H4.2854Z" fill="#F1F1F1"/>
</svg>
