<svg width="24" height="24" viewBox="0 0 24 24" fill="none" xmlns="http://www.w3.org/2000/svg">
<path d="M15.9521 10.4805L15.6377 11.5605H9.29395L9.6084 10.4805H15.9521ZM13.1084 18L9.49219 13.7754L9.48535 12.9277H11.1533C11.6364 12.9277 12.0352 12.848 12.3496 12.6885C12.6686 12.5244 12.9079 12.3034 13.0674 12.0254C13.2269 11.7474 13.3066 11.4352 13.3066 11.0889C13.3066 10.7015 13.2314 10.362 13.0811 10.0703C12.9307 9.77409 12.6937 9.54395 12.3701 9.37988C12.0511 9.21126 11.6318 9.12695 11.1123 9.12695H9.30762L9.62891 8.04688H11.1123C11.9053 8.04688 12.5592 8.16764 13.0742 8.40918C13.5938 8.64616 13.9811 8.99251 14.2363 9.44824C14.4915 9.90397 14.6191 10.4554 14.6191 11.1025C14.6191 11.6585 14.512 12.1576 14.2979 12.5996C14.0882 13.0371 13.7396 13.3812 13.252 13.6318C12.7689 13.8825 12.1172 14.0078 11.2969 14.0078L14.6602 17.918V18H13.1084ZM15.9521 8.04688L15.6377 9.12695H10.5244L10.8389 8.04688H15.9521Z" fill="#4A4A4A"/>
<path d="M22.7775 15.5528C22.7512 15.4435 22.7378 15.3315 22.7375 15.2192C22.74 14.8431 22.8911 14.4834 23.1579 14.2183L23.288 14.0815C23.7267 13.5813 23.9686 12.9387 23.9686 12.2734C23.9686 11.608 23.7267 10.9654 23.288 10.4652C23.2471 10.4173 23.2037 10.3716 23.1579 10.3284C22.8936 10.0617 22.7429 9.70301 22.7375 9.32758C22.7369 9.1989 22.7549 9.07079 22.7909 8.94726C22.8551 8.70997 22.9805 8.4937 23.1545 8.32007C23.4101 8.06434 23.6124 7.76051 23.7499 7.42609C23.8873 7.09168 23.9571 6.73334 23.9552 6.37179C23.9552 5.52775 23.5148 3.33594 21.5198 3.33594H2.50399C0.502323 3.33594 0.071948 5.52775 0.0686119 6.37179C0.0673226 6.73354 0.137737 7.09194 0.275734 7.42634C0.413731 7.76074 0.616589 8.06451 0.872626 8.32007C1.04554 8.49455 1.17074 8.71051 1.23625 8.94726C1.26946 9.0713 1.28629 9.19917 1.2863 9.32758C1.28616 9.5902 1.21342 9.84766 1.07612 10.0715C1.01658 10.1664 0.947258 10.2547 0.869287 10.3351C0.823448 10.3783 0.780008 10.4239 0.739173 10.4718C0.300478 10.972 0.0585937 11.6147 0.0585938 12.28C0.0585937 12.9454 0.300478 13.588 0.739173 14.0882C0.779207 14.1349 0.822578 14.1816 0.865947 14.225C0.999823 14.3549 1.10607 14.5105 1.1783 14.6825C1.25053 14.8545 1.28727 15.0393 1.2863 15.2258C1.28652 15.3542 1.26969 15.4821 1.23625 15.6061C1.1714 15.8441 1.04615 16.0613 0.872626 16.2367C0.61629 16.492 0.413223 16.7957 0.275205 17.1302C0.137186 17.4646 0.066954 17.8231 0.0686119 18.1849C0.0686119 19.029 0.512331 21.2208 2.50399 21.2208H4.31218V19.7829H2.62408C2.51066 19.7829 1.51651 19.7363 1.51651 18.1816C1.51656 18.1034 1.52323 18.0252 1.53651 17.9481C1.58332 17.6542 1.721 17.3824 1.93019 17.1708C1.98352 17.1206 2.03364 17.0671 2.0803 17.0107C2.40251 16.6296 2.61575 16.1685 2.69747 15.6762C2.72141 15.525 2.73368 15.3722 2.73416 15.2192C2.73296 14.5354 2.4773 13.8765 2.01693 13.3709L1.92351 13.2742C1.79157 13.143 1.68688 12.9871 1.61543 12.8153C1.54398 12.6436 1.50719 12.4594 1.50719 12.2734C1.50719 12.0873 1.54398 11.9032 1.61543 11.7314C1.68688 11.5596 1.79157 11.4037 1.92351 11.2725L2.01693 11.1758C2.4762 10.6695 2.73169 10.0111 2.73416 9.32758C2.73368 9.17341 2.72141 9.0195 2.69747 8.86719C2.61527 8.3744 2.4008 7.91318 2.07696 7.53275C2.03025 7.47604 1.98023 7.42267 1.93019 7.37262C1.72045 7.16139 1.58267 6.88935 1.53651 6.59528C1.523 6.51818 1.51632 6.44005 1.51651 6.36177C1.51651 4.80714 2.51733 4.76376 2.62408 4.76376H21.4231C21.5365 4.76376 22.5307 4.80715 22.5307 6.36511C22.5307 6.44228 22.524 6.51928 22.5106 6.59528C22.4647 6.89012 22.3256 7.16253 22.1137 7.37262C22.0636 7.42267 22.0136 7.47604 21.9668 7.53275C21.6428 7.91263 21.4293 8.37424 21.3497 8.86719C21.3257 9.0195 21.3135 9.17341 21.313 9.32758C21.3139 10.0114 21.5696 10.6704 22.0303 11.1758L22.1203 11.2725C22.2535 11.403 22.3592 11.5587 22.4313 11.7306C22.5035 11.9024 22.5407 12.087 22.5407 12.2734C22.5387 12.6488 22.3889 13.0084 22.1237 13.2742C22.0909 13.3048 22.0597 13.3371 22.0303 13.3709C21.5685 13.8757 21.3126 14.5351 21.313 15.2192C21.3119 15.3701 21.3242 15.5208 21.3497 15.6695C21.4294 16.1624 21.6429 16.624 21.9668 17.004C22.0169 17.0607 22.0636 17.1141 22.1137 17.1608C22.3256 17.3708 22.4647 17.6432 22.5106 17.9381C22.5241 18.0152 22.5309 18.0933 22.5307 18.1716C22.5522 18.4142 22.522 18.6586 22.442 18.8886C22.3621 19.1186 22.2342 19.3291 22.0669 19.5061C21.8903 19.6669 21.6619 19.7592 21.4231 19.7663H13.9135V21.2041H21.5198C23.5215 21.2041 23.9552 19.0123 23.9552 18.1683C23.9575 17.8067 23.8878 17.4482 23.7504 17.1138C23.6129 16.7793 23.4104 16.4755 23.1545 16.22C22.9908 16.0545 22.8695 15.8519 22.8009 15.6295H22.7508V15.5861V15.5461L22.7775 15.5528Z" fill="#4A4A4A"/>
</svg>
