<svg width="24" height="24" viewBox="0 0 24 24" fill="none" xmlns="http://www.w3.org/2000/svg">
<g clip-path="url(#clip0_1210_19582)">
<path d="M4.20156 16.2C4.00156 16.2 3.80156 16.1 3.70156 16C3.40156 15.7 3.40156 15.2 3.70156 14.9L10.5016 8.1C10.8016 7.8 11.3016 7.8 11.6016 8.1L15.2016 11.7L21.8016 5.1C22.1016 4.8 22.6016 4.8 22.9016 5.1C23.2016 5.4 23.2016 5.9 22.9016 6.2L15.8016 13.3C15.5016 13.6 15.0016 13.6 14.7016 13.3L11.0016 9.7L4.70156 16C4.60156 16.1 4.40156 16.2 4.20156 16.2Z" fill="#4A4A4A"/>
<path d="M22.7984 12.4008C22.3984 12.4008 21.9984 12.1008 21.9984 11.6008V5.90078H16.1984C15.7984 5.90078 15.3984 5.60078 15.3984 5.10078C15.3984 4.60078 15.6984 4.30078 16.1984 4.30078H22.6984C23.0984 4.30078 23.4984 4.60078 23.4984 5.10078V11.6008C23.5984 12.0008 23.1984 12.4008 22.7984 12.4008Z" fill="#4A4A4A"/>
<path d="M22.8 23.5H1.8C1.4 23.5 1 23.2 1 22.7V1.7C1 1.3 1.3 1 1.8 1C2.3 1 2.6 1.3 2.6 1.8V22H22.9C23.3 22 23.7 22.3 23.7 22.8C23.7 23.3 23.3 23.5 22.8 23.5Z" fill="#4A4A4A"/>
</g>
<defs>
<clipPath id="clip0_1210_19582">
<rect width="22.6" height="22.5" fill="white" transform="translate(1 1)"/>
</clipPath>
</defs>
</svg>
