<svg width="24" height="24" viewBox="0 0 24 24" fill="none" xmlns="http://www.w3.org/2000/svg">
<g clip-path="url(#clip0_1210_19637)">
<path d="M12.3002 23.4001H2.00021C1.80021 23.4001 1.50021 23.3001 1.40021 23.1001C1.30021 22.9001 1.20021 22.7001 1.30021 22.5001L2.80021 16.7001C2.90021 16.4001 3.20021 16.1001 3.50021 16.1001H10.9002C11.2002 16.1001 11.5002 16.3001 11.6002 16.7001L13.1002 22.5001C13.2002 22.7001 13.1002 23.0001 13.0002 23.1001C12.9002 23.2001 12.6002 23.4001 12.3002 23.4001ZM3.00021 21.9001H11.4002L10.3002 17.6001H4.10021L3.00021 21.9001Z" fill="#4A4A4A"/>
<path d="M22.4002 23.4001H12.0002C11.8002 23.4001 11.5002 23.3001 11.4002 23.1001C11.3002 22.9001 11.2002 22.7001 11.3002 22.5001L12.8002 16.7001C12.9002 16.4001 13.2002 16.1001 13.5002 16.1001H20.9002C21.2002 16.1001 21.5002 16.3001 21.6002 16.7001L23.1002 22.5001C23.2002 22.7001 23.1002 23.0001 23.0002 23.1001C22.9002 23.2001 22.6002 23.4001 22.4002 23.4001ZM13.0002 21.9001H21.4002L20.3002 17.6001H14.1002L13.0002 21.9001Z" fill="#4A4A4A"/>
<path d="M17.4002 16.1H7.00021C6.80021 16.1 6.50021 16 6.40021 15.8C6.30021 15.6 6.20021 15.4 6.30021 15.2L7.80021 9.40005C7.90021 9.10005 8.20021 8.80005 8.50021 8.80005H15.9002C16.2002 8.80005 16.5002 9.00005 16.6002 9.40005L18.1002 15.2C18.2002 15.4 18.1002 15.7 18.0002 15.8C17.9002 15.9 17.6002 16.1 17.4002 16.1ZM8.00021 14.6H16.4002L15.3002 10.3H9.10021L8.00021 14.6Z" fill="#4A4A4A"/>
<path d="M16.8007 6.79911C16.6007 6.79911 16.5007 6.69911 16.3007 6.59911C16.0007 6.29911 15.9007 5.89911 16.2007 5.49911L18.4007 2.69911C18.7007 2.39911 19.1007 2.29911 19.5007 2.59911C19.9007 2.89911 19.9007 3.29911 19.6007 3.69911L17.4007 6.49911C17.2007 6.69911 17.0007 6.79911 16.8007 6.79911Z" fill="#4A4A4A"/>
<path d="M20.0021 10.1001C19.7021 10.1001 19.4021 9.90009 19.3021 9.60009C19.1021 9.20009 19.3021 8.80009 19.7021 8.60009L22.3021 7.50009C22.7021 7.30009 23.1021 7.50009 23.3021 7.90009C23.5021 8.30009 23.3021 8.70009 22.9021 8.90009L20.3021 10.0001C20.2021 10.1001 20.1021 10.1001 20.0021 10.1001Z" fill="#4A4A4A"/>
<path d="M7.60325 6.80067C7.40325 6.80067 7.20325 6.70067 7.00325 6.50067L4.80325 3.70067C4.60325 3.40067 4.60325 2.90067 5.00325 2.70067C5.30325 2.40067 5.80325 2.50067 6.00325 2.80067L8.20325 5.60067C8.50325 5.90067 8.40325 6.40067 8.10325 6.70067C8.00325 6.70067 7.80325 6.80067 7.60325 6.80067Z" fill="#4A4A4A"/>
<path d="M4.4019 10.1019C4.3019 10.1019 4.2019 10.1019 4.1019 10.0019L1.5019 9.0019C1.1019 8.9019 0.901898 8.4019 1.1019 8.0019C1.3019 7.6019 1.7019 7.4019 2.1019 7.6019L4.7019 8.7019C5.1019 8.9019 5.3019 9.3019 5.1019 9.7019C5.0019 9.9019 4.7019 10.1019 4.4019 10.1019Z" fill="#4A4A4A"/>
<path d="M12.2019 5.7C11.8019 5.7 11.4019 5.4 11.4019 4.9V1.8C11.4019 1.4 11.7019 1 12.2019 1C12.7019 1 13.0019 1.3 13.0019 1.8V5C12.9019 5.4 12.6019 5.7 12.2019 5.7Z" fill="#4A4A4A"/>
</g>
<defs>
<clipPath id="clip0_1210_19637">
<rect width="22.4" height="22.4" fill="white" transform="translate(1 1)"/>
</clipPath>
</defs>
</svg>
