<svg width="24" height="24" viewBox="0 0 24 24" fill="none" xmlns="http://www.w3.org/2000/svg">
<mask id="path-1-inside-1_67_497" fill="white">
<path d="M9.9 0C9.4026 0 9 0.4032 9 0.9V2.7C9 3.1968 9.4026 3.6 9.9 3.6H10.2V5.4H8.24766C8.15104 5.38413 8.05248 5.38413 7.95586 5.4H6.9C6.78074 5.39831 6.66233 5.42035 6.55166 5.46482C6.44099 5.50929 6.34026 5.57532 6.25533 5.65906C6.1704 5.7428 6.10295 5.84258 6.05692 5.95261C6.01089 6.06264 5.98718 6.18073 5.98718 6.3C5.98718 6.41927 6.01089 6.53736 6.05692 6.64739C6.10295 6.75742 6.1704 6.8572 6.25533 6.94094C6.34026 7.02468 6.44099 7.09071 6.55166 7.13518C6.66233 7.17965 6.78074 7.20169 6.9 7.2H7.2V14.4609C6.1959 14.6143 5.4 15.457 5.4 16.5V23.1C5.40002 23.3387 5.49485 23.5676 5.66363 23.7364C5.83241 23.9051 6.06131 24 6.3 24H23.1C23.3387 24 23.5676 23.9051 23.7364 23.7364C23.9051 23.5676 24 23.3387 24 23.1V16.5C24 15.457 23.2041 14.6143 22.2 14.4609V7.2H22.5C22.6193 7.20169 22.7377 7.17965 22.8483 7.13518C22.959 7.09071 23.0597 7.02468 23.1447 6.94094C23.2296 6.8572 23.297 6.75742 23.3431 6.64739C23.3891 6.53736 23.4128 6.41927 23.4128 6.3C23.4128 6.18073 23.3891 6.06264 23.3431 5.95261C23.297 5.84258 23.2296 5.7428 23.1447 5.65906C23.0597 5.57532 22.959 5.50929 22.8483 5.46482C22.7377 5.42035 22.6193 5.39831 22.5 5.4H21.4477C21.351 5.38413 21.2525 5.38413 21.1559 5.4H19.2V3.6H19.5C19.9974 3.6 20.4 3.1968 20.4 2.7V0.9C20.4 0.4032 19.9974 0 19.5 0H9.9ZM12 3.6H17.4V5.4H12V3.6ZM9 7.2H10.9523C11.049 7.21587 11.1475 7.21587 11.2441 7.2H18.1523C18.249 7.21587 18.3475 7.21587 18.4441 7.2H20.4V15.3C20.4 15.5387 20.4949 15.7676 20.6636 15.9364C20.8324 16.1051 21.0613 16.2 21.3 16.2H21.9C22.077 16.2 22.2 16.323 22.2 16.5V22.2H16.2V18.6C16.2 18.2688 15.9312 18 15.6 18H13.8C13.4688 18 13.2 18.2688 13.2 18.6V22.2H7.2V16.5C7.2 16.323 7.32297 16.2 7.5 16.2H8.1C8.33869 16.2 8.56759 16.1051 8.73637 15.9364C8.90515 15.7676 8.99998 15.5387 9 15.3V7.2ZM3.3 8.4C1.4802 8.4 0 9.8808 0 11.7V23.1C0 23.5968 0.4026 24 0.9 24H4.40977C4.27897 23.7264 4.2 23.4234 4.2 23.1V22.2H1.8V11.7C1.8 10.8726 2.4732 10.2 3.3 10.2H6V8.4H3.3ZM12 9.6C11.6688 9.6 11.4 9.8688 11.4 10.2V11.4C11.4 11.7312 11.6688 12 12 12H13.2C13.5312 12 13.8 11.7312 13.8 11.4V10.2C13.8 9.8688 13.5312 9.6 13.2 9.6H12ZM16.2 9.6C15.8688 9.6 15.6 9.8688 15.6 10.2V11.4C15.6 11.7312 15.8688 12 16.2 12H17.4C17.7312 12 18 11.7312 18 11.4V10.2C18 9.8688 17.7312 9.6 17.4 9.6H16.2ZM12 13.8C11.6688 13.8 11.4 14.0688 11.4 14.4V15.6C11.4 15.9312 11.6688 16.2 12 16.2H13.2C13.5312 16.2 13.8 15.9312 13.8 15.6V14.4C13.8 14.0688 13.5312 13.8 13.2 13.8H12ZM16.2 13.8C15.8688 13.8 15.6 14.0688 15.6 14.4V15.6C15.6 15.9312 15.8688 16.2 16.2 16.2H17.4C17.7312 16.2 18 15.9312 18 15.6V14.4C18 14.0688 17.7312 13.8 17.4 13.8H16.2ZM9.6 18C9.2688 18 9 18.2688 9 18.6V19.8C9 20.1312 9.2688 20.4 9.6 20.4H10.8C11.1312 20.4 11.4 20.1312 11.4 19.8V18.6C11.4 18.2688 11.1312 18 10.8 18H9.6ZM18.6 18C18.2688 18 18 18.2688 18 18.6V19.8C18 20.1312 18.2688 20.4 18.6 20.4H19.8C20.1312 20.4 20.4 20.1312 20.4 19.8V18.6C20.4 18.2688 20.1312 18 19.8 18H18.6Z"/>
</mask>
<path d="M9.9 0C9.4026 0 9 0.4032 9 0.9V2.7C9 3.1968 9.4026 3.6 9.9 3.6H10.2V5.4H8.24766C8.15104 5.38413 8.05248 5.38413 7.95586 5.4H6.9C6.78074 5.39831 6.66233 5.42035 6.55166 5.46482C6.44099 5.50929 6.34026 5.57532 6.25533 5.65906C6.1704 5.7428 6.10295 5.84258 6.05692 5.95261C6.01089 6.06264 5.98718 6.18073 5.98718 6.3C5.98718 6.41927 6.01089 6.53736 6.05692 6.64739C6.10295 6.75742 6.1704 6.8572 6.25533 6.94094C6.34026 7.02468 6.44099 7.09071 6.55166 7.13518C6.66233 7.17965 6.78074 7.20169 6.9 7.2H7.2V14.4609C6.1959 14.6143 5.4 15.457 5.4 16.5V23.1C5.40002 23.3387 5.49485 23.5676 5.66363 23.7364C5.83241 23.9051 6.06131 24 6.3 24H23.1C23.3387 24 23.5676 23.9051 23.7364 23.7364C23.9051 23.5676 24 23.3387 24 23.1V16.5C24 15.457 23.2041 14.6143 22.2 14.4609V7.2H22.5C22.6193 7.20169 22.7377 7.17965 22.8483 7.13518C22.959 7.09071 23.0597 7.02468 23.1447 6.94094C23.2296 6.8572 23.297 6.75742 23.3431 6.64739C23.3891 6.53736 23.4128 6.41927 23.4128 6.3C23.4128 6.18073 23.3891 6.06264 23.3431 5.95261C23.297 5.84258 23.2296 5.7428 23.1447 5.65906C23.0597 5.57532 22.959 5.50929 22.8483 5.46482C22.7377 5.42035 22.6193 5.39831 22.5 5.4H21.4477C21.351 5.38413 21.2525 5.38413 21.1559 5.4H19.2V3.6H19.5C19.9974 3.6 20.4 3.1968 20.4 2.7V0.9C20.4 0.4032 19.9974 0 19.5 0H9.9ZM12 3.6H17.4V5.4H12V3.6ZM9 7.2H10.9523C11.049 7.21587 11.1475 7.21587 11.2441 7.2H18.1523C18.249 7.21587 18.3475 7.21587 18.4441 7.2H20.4V15.3C20.4 15.5387 20.4949 15.7676 20.6636 15.9364C20.8324 16.1051 21.0613 16.2 21.3 16.2H21.9C22.077 16.2 22.2 16.323 22.2 16.5V22.2H16.2V18.6C16.2 18.2688 15.9312 18 15.6 18H13.8C13.4688 18 13.2 18.2688 13.2 18.6V22.2H7.2V16.5C7.2 16.323 7.32297 16.2 7.5 16.2H8.1C8.33869 16.2 8.56759 16.1051 8.73637 15.9364C8.90515 15.7676 8.99998 15.5387 9 15.3V7.2ZM3.3 8.4C1.4802 8.4 0 9.8808 0 11.7V23.1C0 23.5968 0.4026 24 0.9 24H4.40977C4.27897 23.7264 4.2 23.4234 4.2 23.1V22.2H1.8V11.7C1.8 10.8726 2.4732 10.2 3.3 10.2H6V8.4H3.3ZM12 9.6C11.6688 9.6 11.4 9.8688 11.4 10.2V11.4C11.4 11.7312 11.6688 12 12 12H13.2C13.5312 12 13.8 11.7312 13.8 11.4V10.2C13.8 9.8688 13.5312 9.6 13.2 9.6H12ZM16.2 9.6C15.8688 9.6 15.6 9.8688 15.6 10.2V11.4C15.6 11.7312 15.8688 12 16.2 12H17.4C17.7312 12 18 11.7312 18 11.4V10.2C18 9.8688 17.7312 9.6 17.4 9.6H16.2ZM12 13.8C11.6688 13.8 11.4 14.0688 11.4 14.4V15.6C11.4 15.9312 11.6688 16.2 12 16.2H13.2C13.5312 16.2 13.8 15.9312 13.8 15.6V14.4C13.8 14.0688 13.5312 13.8 13.2 13.8H12ZM16.2 13.8C15.8688 13.8 15.6 14.0688 15.6 14.4V15.6C15.6 15.9312 15.8688 16.2 16.2 16.2H17.4C17.7312 16.2 18 15.9312 18 15.6V14.4C18 14.0688 17.7312 13.8 17.4 13.8H16.2ZM9.6 18C9.2688 18 9 18.2688 9 18.6V19.8C9 20.1312 9.2688 20.4 9.6 20.4H10.8C11.1312 20.4 11.4 20.1312 11.4 19.8V18.6C11.4 18.2688 11.1312 18 10.8 18H9.6ZM18.6 18C18.2688 18 18 18.2688 18 18.6V19.8C18 20.1312 18.2688 20.4 18.6 20.4H19.8C20.1312 20.4 20.4 20.1312 20.4 19.8V18.6C20.4 18.2688 20.1312 18 19.8 18H18.6Z" fill="#F1F1F1" stroke="#F1F1F1" stroke-width="0.2" mask="url(#path-1-inside-1_67_497)"/>
</svg>
