<svg width="24" height="24" viewBox="0 0 24 24" fill="none" xmlns="http://www.w3.org/2000/svg">
<path d="M14.5872 8.94067C13.2983 8.94067 12.0385 9.32291 10.9669 10.039C9.89528 10.7551 9.0601 11.7729 8.56701 12.9637C8.07393 14.1545 7.94506 15.4647 8.1967 16.7287C8.44834 17.9928 9.0692 19.1538 9.98074 20.0649C10.8923 20.9761 12.0536 21.5964 13.3177 21.8475C14.5818 22.0986 15.892 21.9692 17.0826 21.4756C18.2731 20.982 19.2906 20.1465 20.0062 19.0746C20.7219 18.0027 21.1036 16.7426 21.103 15.4538C21.1008 13.7266 20.4135 12.0708 19.192 10.8498C17.9704 9.62874 16.3143 8.94213 14.5872 8.94067ZM19.9334 15.4538C19.9339 16.5113 19.6208 17.5452 19.0337 18.4247C18.4466 19.3043 17.6118 19.9899 16.635 20.395C15.6581 20.8001 14.5831 20.9063 13.5459 20.7004C12.5086 20.4944 11.5557 19.9854 10.8078 19.2379C10.0598 18.4903 9.5504 17.5377 9.34389 16.5005C9.13738 15.4634 9.24307 14.3883 9.64763 13.4113C10.0522 12.4342 10.7374 11.5991 11.6167 11.0115C12.4959 10.424 13.5297 10.1103 14.5872 10.1103C16.0044 10.1111 17.3633 10.6742 18.3657 11.676C19.3681 12.6779 19.9319 14.0366 19.9334 15.4538Z" fill="#4A4A4A"/>
<path d="M15.0447 15.3264V12.5458C15.0447 12.3907 14.983 12.2419 14.8733 12.1322C14.7637 12.0225 14.6149 11.9609 14.4598 11.9609C14.3047 11.9609 14.156 12.0225 14.0463 12.1322C13.9366 12.2419 13.875 12.3907 13.875 12.5458V15.8092L16.8378 18.772C16.9475 18.8817 17.0963 18.9434 17.2515 18.9434C17.4068 18.9434 17.5556 18.8817 17.6653 18.772C17.7751 18.6622 17.8367 18.5134 17.8367 18.3582C17.8367 18.203 17.7751 18.0541 17.6653 17.9444L15.0447 15.3264Z" fill="#4A4A4A"/>
<path d="M8.70269 21.0535H3.76475C3.33064 21.0528 2.91456 20.8798 2.60786 20.5726C2.30116 20.2654 2.12891 19.849 2.12891 19.4149V3.75697C2.12964 3.32334 2.30221 2.90765 2.60884 2.60102C2.91546 2.2944 3.33112 2.12182 3.76475 2.12109H16.5344C16.9685 2.12109 17.3849 2.29334 17.6921 2.60005C17.9993 2.90675 18.1723 3.32286 18.173 3.75697V8.24246H16.9785V3.75697C16.9785 3.69769 16.9668 3.63899 16.9441 3.58425C16.9213 3.52952 16.8879 3.4798 16.8459 3.43801C16.8038 3.39621 16.7539 3.36315 16.699 3.34072C16.6442 3.31828 16.5854 3.30695 16.5261 3.30731H3.75647C3.63721 3.30731 3.52284 3.35469 3.43851 3.43902C3.35418 3.52334 3.30681 3.63771 3.30681 3.75697V19.4149C3.30645 19.4742 3.31781 19.5329 3.34025 19.5878C3.36268 19.6427 3.39574 19.6926 3.43753 19.7346C3.47932 19.7767 3.52901 19.81 3.58375 19.8328C3.63848 19.8556 3.69718 19.8673 3.75647 19.8673H8.70269V21.0535Z" fill="#4A4A4A"/>
<path d="M15.2914 5.91699H4.81689V7.08664H15.2914V5.91699Z" fill="#4A4A4A"/>
<path d="M7.84862 9.87061H4.81689V11.043H7.84862V9.87061Z" fill="#4A4A4A"/>
</svg>
