<svg width="24" height="24" viewBox="0 0 24 24" fill="none" xmlns="http://www.w3.org/2000/svg">
<g clip-path="url(#clip0_1210_19665)">
<path d="M20.2 23.4016C19.8 23.4016 19.4 23.1016 19.4 22.6016V19.3016C19.4 16.4016 17.9 14.7016 15.3 14.7016H8.6C6 14.7016 4.5 16.4016 4.5 19.3016V22.6016C4.5 23.0016 4.2 23.3016 3.7 23.3016C3.3 23.3016 3 23.0016 3 22.5016V19.2016C3 14.7016 5.9 13.1016 8.6 13.1016H15.4C18.1 13.1016 21 14.7016 21 19.2016V22.5016C21 23.1016 20.6 23.4016 20.2 23.4016Z" fill="#4A4A4A"/>
<path d="M11.9984 12.2C8.89844 12.2 6.39844 9.7 6.39844 6.6C6.39844 3.5 8.89844 1 11.9984 1C15.0984 1 17.5984 3.5 17.5984 6.6C17.5984 9.7 15.0984 12.2 11.9984 12.2ZM11.9984 2.5C9.69844 2.5 7.89844 4.3 7.89844 6.6C7.89844 8.9 9.69844 10.7 11.9984 10.7C14.2984 10.7 16.0984 8.9 16.0984 6.6C16.0984 4.3 14.2984 2.5 11.9984 2.5Z" fill="#4A4A4A"/>
<path d="M12.0002 23.5C11.8002 23.5 11.6002 23.4 11.5002 23.3L9.20017 21.3C9.00017 21.1 8.90017 20.8 9.00017 20.5L11.3002 13.7C11.4002 13.4 11.7002 13.2 12.0002 13.2C12.3002 13.2 12.6002 13.4 12.7002 13.7L15.0002 20.5C15.1002 20.8 15.0002 21.1 14.8002 21.3L12.5002 23.3C12.3002 23.5 12.2002 23.5 12.0002 23.5ZM10.6002 20.5L12.0002 21.8L13.4002 20.6L12.0002 16.3L10.6002 20.5Z" fill="#4A4A4A"/>
</g>
<defs>
<clipPath id="clip0_1210_19665">
<rect width="18" height="22.5" fill="white" transform="translate(3 1)"/>
</clipPath>
</defs>
</svg>
