<svg width="24" height="26" viewBox="0 0 24 26" fill="none" xmlns="http://www.w3.org/2000/svg">
<path d="M5.66672 0C5.40151 2.65166e-05 5.14718 0.105391 4.95965 0.29292C4.77212 0.480449 4.66675 0.734785 4.66673 0.999992V12.6666H1.00009C0.734885 12.6666 0.480549 12.772 0.29302 12.9595C0.105491 13.147 0.000126524 13.4013 0.000100007 13.6666V24.3331C-0.00177402 24.4656 0.0227069 24.5972 0.0721202 24.7202C0.121534 24.8431 0.194894 24.9551 0.287937 25.0494C0.380981 25.1438 0.491853 25.2187 0.614109 25.2699C0.736365 25.321 0.867568 25.3474 1.00009 25.3474C1.13262 25.3474 1.26382 25.321 1.38607 25.2699C1.50833 25.2187 1.6192 25.1438 1.71225 25.0494C1.80529 24.9551 1.87865 24.8431 1.92806 24.7202C1.97748 24.5972 2.00196 24.4656 2.00008 24.3331V14.6665H5.50266C5.61001 14.6842 5.71952 14.6842 5.82687 14.6665H8.66669V24.3331C8.66482 24.4656 8.6893 24.5972 8.73872 24.7202C8.78813 24.8431 8.86149 24.9551 8.95453 25.0494C9.04758 25.1438 9.15845 25.2187 9.2807 25.2699C9.40296 25.321 9.53416 25.3474 9.66669 25.3474C9.79921 25.3474 9.93041 25.321 10.0527 25.2699C10.1749 25.2187 10.2858 25.1438 10.3788 25.0494C10.4719 24.9551 10.5452 24.8431 10.5947 24.7202C10.6441 24.5972 10.6686 24.4656 10.6667 24.3331V13.8306C10.6843 13.7233 10.6843 13.6137 10.6667 13.5064V10.6666H18.1692C18.2766 10.6842 18.3861 10.6842 18.4934 10.6666H21.9999V24.3331C21.998 24.4656 22.0225 24.5972 22.0719 24.7202C22.1213 24.8431 22.1947 24.9551 22.2878 25.0494C22.3808 25.1438 22.4917 25.2187 22.6139 25.2699C22.7362 25.321 22.8674 25.3474 22.9999 25.3474C23.1324 25.3474 23.2636 25.321 23.3859 25.2699C23.5081 25.2187 23.619 25.1438 23.7121 25.0494C23.8051 24.9551 23.8785 24.8431 23.9279 24.7202C23.9773 24.5972 24.0018 24.4656 23.9999 24.3331V9.66659C23.9999 9.40138 23.8945 9.14704 23.707 8.95951C23.5194 8.77199 23.2651 8.66662 22.9999 8.66659H19.3333V0.999992C19.3332 0.734785 19.2279 0.480449 19.0404 0.29292C18.8528 0.105391 18.5985 2.65166e-05 18.3333 0H5.66672ZM6.66671 1.99998H17.3333V8.66659H9.66669C9.40148 8.66662 9.14714 8.77199 8.95961 8.95951C8.77209 9.14704 8.66672 9.40138 8.66669 9.66659V12.6666H6.66671V1.99998ZM9.33335 3.99997C8.96536 3.99997 8.66669 4.29863 8.66669 4.66663V5.99995C8.66669 6.36795 8.96536 6.66661 9.33335 6.66661H10.6667C11.0347 6.66661 11.3333 6.36795 11.3333 5.99995V4.66663C11.3333 4.29863 11.0347 3.99997 10.6667 3.99997H9.33335ZM13.3333 3.99997C12.9653 3.99997 12.6667 4.29863 12.6667 4.66663V5.99995C12.6667 6.36795 12.9653 6.66661 13.3333 6.66661H14.6666C15.0346 6.66661 15.3333 6.36795 15.3333 5.99995V4.66663C15.3333 4.29863 15.0346 3.99997 14.6666 3.99997H13.3333ZM13.3333 12.6666C12.9653 12.6666 12.6667 12.9652 12.6667 13.3332V14.6665C12.6667 15.0345 12.9653 15.3332 13.3333 15.3332H14.6666C15.0346 15.3332 15.3333 15.0345 15.3333 14.6665V13.3332C15.3333 12.9652 15.0346 12.6666 14.6666 12.6666H13.3333ZM18 12.6666C17.632 12.6666 17.3333 12.9652 17.3333 13.3332V14.6665C17.3333 15.0345 17.632 15.3332 18 15.3332H19.3333C19.7013 15.3332 19.9999 15.0345 19.9999 14.6665V13.3332C19.9999 12.9652 19.7013 12.6666 19.3333 12.6666H18ZM4.66673 16.6665C4.29873 16.6665 4.00007 16.9652 4.00007 17.3332V18.6665C4.00007 19.0345 4.29873 19.3332 4.66673 19.3332H6.00005C6.36805 19.3332 6.66671 19.0345 6.66671 18.6665V17.3332C6.66671 16.9652 6.36805 16.6665 6.00005 16.6665H4.66673ZM13.3333 16.6665C12.9653 16.6665 12.6667 16.9652 12.6667 17.3332V18.6665C12.6667 19.0345 12.9653 19.3332 13.3333 19.3332H14.6666C15.0346 19.3332 15.3333 19.0345 15.3333 18.6665V17.3332C15.3333 16.9652 15.0346 16.6665 14.6666 16.6665H13.3333ZM18 16.6665C17.632 16.6665 17.3333 16.9652 17.3333 17.3332V18.6665C17.3333 19.0345 17.632 19.3332 18 19.3332H19.3333C19.7013 19.3332 19.9999 19.0345 19.9999 18.6665V17.3332C19.9999 16.9652 19.7013 16.6665 19.3333 16.6665H18ZM4.66673 20.6665C4.29873 20.6665 4.00007 20.9652 4.00007 21.3332V22.6665C4.00007 23.0345 4.29873 23.3331 4.66673 23.3331H6.00005C6.36805 23.3331 6.66671 23.0345 6.66671 22.6665V21.3332C6.66671 20.9652 6.36805 20.6665 6.00005 20.6665H4.66673ZM13.3333 20.6665C12.9653 20.6665 12.6667 20.9652 12.6667 21.3332V22.6665C12.6667 23.0345 12.9653 23.3331 13.3333 23.3331H14.6666C15.0346 23.3331 15.3333 23.0345 15.3333 22.6665V21.3332C15.3333 20.9652 15.0346 20.6665 14.6666 20.6665H13.3333ZM18 20.6665C17.632 20.6665 17.3333 20.9652 17.3333 21.3332V22.6665C17.3333 23.0345 17.632 23.3331 18 23.3331H19.3333C19.7013 23.3331 19.9999 23.0345 19.9999 22.6665V21.3332C19.9999 20.9652 19.7013 20.6665 19.3333 20.6665H18Z" fill="#F1F1F1"/>
</svg>
