<svg width="54" height="48" viewBox="0 0 54 48" fill="none" xmlns="http://www.w3.org/2000/svg">
<g filter="url(#filter0_i_4162_23943)">
<path d="M51 11.3414V36.6421C51.0014 38.1332 50.709 39.6098 50.1394 40.9878C49.5698 42.3657 48.7343 43.6179 47.6805 44.6727C46.6267 45.7275 45.3753 46.5643 43.9979 47.1352C42.6206 47.7061 41.1442 48 39.6531 48H14.3524C11.3429 47.9985 8.45709 46.8028 6.32858 44.6753C4.20008 42.5478 3.00292 39.6626 3.00001 36.6531V11.3524C2.99856 9.8616 3.29103 8.38518 3.86068 7.00756C4.43033 5.62993 5.26599 4.37813 6.31986 3.32375C7.37373 2.26937 8.62513 1.4331 10.0025 0.862781C11.3798 0.292461 12.8561 -0.000722331 14.3469 1.33641e-06H39.6476C41.1377 -0.000721131 42.6134 0.292058 43.9903 0.861624C45.3673 1.43119 46.6185 2.26639 47.6727 3.31953C48.7269 4.37267 49.5633 5.62313 50.1342 6.99952C50.7051 8.37591 50.9993 9.85126 51 11.3414Z" fill="#FCBC34"/>
</g>
<g style="mix-blend-mode:soft-light" filter="url(#filter1_f_4162_23943)">
<path d="M17.2082 24.75H13.1668C11.4869 24.75 10.125 26.0931 10.125 27.75C10.125 29.4069 11.4869 30.75 13.1668 30.75H17.2082C18.8881 30.75 20.25 29.4069 20.25 27.75C20.25 26.0931 18.8881 24.75 17.2082 24.75Z" fill="#C140A3"/>
</g>
<g style="mix-blend-mode:soft-light" filter="url(#filter2_f_4162_23943)">
<path d="M40.4641 24.75H36.4109C34.7342 24.75 33.375 26.0919 33.375 27.7473V27.7527C33.375 29.408 34.7342 30.75 36.4109 30.75H40.4641C42.1408 30.75 43.5 29.408 43.5 27.7527V27.7473C43.5 26.0919 42.1408 24.75 40.4641 24.75Z" fill="#C140A3"/>
</g>
<path fill-rule="evenodd" clip-rule="evenodd" d="M40.5 27C40.5 27.0607 40.5 27.1214 40.5 27.1821C40.4948 28.1609 40.3805 29.1361 40.1593 30.0894C39.8078 31.5941 39.153 33.0106 38.2355 34.2517C37.3179 35.4927 36.157 36.5319 34.8242 37.3053C30.1209 40.1243 23.4945 40.0636 18.8902 37.1232C17.5973 36.3232 16.4795 35.2684 15.604 34.0225C14.7286 32.7766 14.1138 31.3654 13.7968 29.8742C13.5965 28.9294 13.497 27.9659 13.5001 27C22.0715 30.31 30.7693 30.31 39.5769 27.3365L40.5 27Z" fill="#2B1607" stroke="black" stroke-width="1.48" stroke-linecap="round" stroke-linejoin="round"/>
<path fill-rule="evenodd" clip-rule="evenodd" d="M40.5 27.1789C40.4948 28.1409 40.3806 29.0993 40.1595 30.0362C32.3495 35.0948 21.6121 34.9484 13.7966 29.8248C13.5964 28.8963 13.497 27.9493 13.5001 27C22.068 30.2531 30.7622 30.2531 39.5663 27.3307L40.5 27.1789Z" fill="white"/>
<path fill-rule="evenodd" clip-rule="evenodd" d="M35.25 37.3069C30.3797 40.1237 23.5179 40.0631 18.75 37.125C24.1994 38.0931 29.7792 38.1546 35.25 37.3069Z" fill="white"/>
<path fill-rule="evenodd" clip-rule="evenodd" d="M40.7122 26.6946C40.8143 26.7664 40.875 26.8838 40.875 27.009C40.875 31.2453 39.1352 34.4436 36.5169 36.5751C33.908 38.6989 30.4456 39.75 27 39.75C23.5544 39.75 20.092 38.6989 17.4831 36.5751C14.8648 34.4436 13.125 31.2453 13.125 27.009C13.125 26.8826 13.1869 26.7643 13.2905 26.6926C13.3942 26.621 13.5263 26.6052 13.6437 26.6504C22.4378 30.0328 31.3216 29.9426 40.3626 26.648C40.4797 26.6053 40.6102 26.6227 40.7122 26.6946ZM13.9 27.5671C14.0448 31.289 15.6376 34.0844 17.9642 35.9784C20.4151 37.9736 23.6992 38.982 27 38.982C30.3008 38.982 33.5849 37.9736 36.0358 35.9784C38.3645 34.0827 39.9581 31.2839 40.1004 27.557C31.2584 30.6621 22.5342 30.7525 13.9 27.5671Z" fill="black"/>
<path d="M39.5409 23.9695H37.0658C33.4192 23.9695 33.4192 23.997 33.4192 20.3229V19.0853C33.4206 17.7904 33.9357 16.549 34.8513 15.6333C35.767 14.7177 37.0084 14.2026 38.3033 14.2012C39.5983 14.2026 40.8397 14.7177 41.7554 15.6333C42.671 16.549 43.186 17.7904 43.1875 19.0853V20.3504C43.1765 23.997 43.1765 23.9695 39.5409 23.9695Z" fill="black"/>
<path d="M36.6635 17.8183C37.1365 17.8183 37.52 17.4349 37.52 16.9619C37.52 16.4889 37.1365 16.1055 36.6635 16.1055C36.1906 16.1055 35.8071 16.4889 35.8071 16.9619C35.8071 17.4349 36.1906 17.8183 36.6635 17.8183Z" fill="white"/>
<path opacity="0.1" d="M38.2499 21.1175C39.3505 21.1175 40.2427 20.2253 40.2427 19.1247C40.2427 18.0241 39.3505 17.1318 38.2499 17.1318C37.1493 17.1318 36.2571 18.0241 36.2571 19.1247C36.2571 20.2253 37.1493 21.1175 38.2499 21.1175Z" fill="white"/>
<path d="M16.6659 23.9695H14.1908C10.5442 23.9695 10.5442 23.997 10.5442 20.3229V19.0853C10.5456 17.7904 11.0607 16.549 11.9763 15.6333C12.892 14.7177 14.1334 14.2026 15.4283 14.2012C16.7233 14.2026 17.9647 14.7177 18.8804 15.6333C19.796 16.549 20.311 17.7904 20.3125 19.0853V20.3504C20.3015 23.997 20.3015 23.9695 16.6659 23.9695Z" fill="black"/>
<path d="M13.8278 17.8245C14.3016 17.8245 14.6858 17.4403 14.6858 16.9664C14.6858 16.4925 14.3016 16.1084 13.8278 16.1084C13.3539 16.1084 12.9697 16.4925 12.9697 16.9664C12.9697 17.4403 13.3539 17.8245 13.8278 17.8245Z" fill="white"/>
<path opacity="0.1" d="M15.4172 21.1308C16.5199 21.1308 17.4138 20.2369 17.4138 19.1343C17.4138 18.0316 16.5199 17.1377 15.4172 17.1377C14.3145 17.1377 13.4207 18.0316 13.4207 19.1343C13.4207 20.2369 14.3145 21.1308 15.4172 21.1308Z" fill="white"/>
<defs>
<filter id="filter0_i_4162_23943" x="3" y="0" width="48" height="48" filterUnits="userSpaceOnUse" color-interpolation-filters="sRGB">
<feFlood flood-opacity="0" result="BackgroundImageFix"/>
<feBlend mode="normal" in="SourceGraphic" in2="BackgroundImageFix" result="shape"/>
<feColorMatrix in="SourceAlpha" type="matrix" values="0 0 0 0 0 0 0 0 0 0 0 0 0 0 0 0 0 0 127 0" result="hardAlpha"/>
<feOffset dx="-6" dy="-6"/>
<feComposite in2="hardAlpha" operator="arithmetic" k2="-1" k3="1"/>
<feColorMatrix type="matrix" values="0 0 0 0 0 0 0 0 0 0 0 0 0 0 0 0 0 0 0.04 0"/>
<feBlend mode="normal" in2="shape" result="effect1_innerShadow_4162_23943"/>
</filter>
<filter id="filter1_f_4162_23943" x="0.125" y="14.75" width="30.125" height="26" filterUnits="userSpaceOnUse" color-interpolation-filters="sRGB">
<feFlood flood-opacity="0" result="BackgroundImageFix"/>
<feBlend mode="normal" in="SourceGraphic" in2="BackgroundImageFix" result="shape"/>
<feGaussianBlur stdDeviation="5" result="effect1_foregroundBlur_4162_23943"/>
</filter>
<filter id="filter2_f_4162_23943" x="23.375" y="14.75" width="30.125" height="26" filterUnits="userSpaceOnUse" color-interpolation-filters="sRGB">
<feFlood flood-opacity="0" result="BackgroundImageFix"/>
<feBlend mode="normal" in="SourceGraphic" in2="BackgroundImageFix" result="shape"/>
<feGaussianBlur stdDeviation="5" result="effect1_foregroundBlur_4162_23943"/>
</filter>
</defs>
</svg>
