<svg width="48" height="48" viewBox="0 0 48 48" fill="none" xmlns="http://www.w3.org/2000/svg">
<g filter="url(#filter0_i_4081_23655)">
<path d="M48 11.3414V36.6421C48.0014 38.1332 47.709 39.6098 47.1394 40.9878C46.5698 42.3657 45.7343 43.6179 44.6805 44.6727C43.6267 45.7275 42.3753 46.5643 40.9979 47.1352C39.6206 47.7061 38.1442 48 36.6531 48H11.3524C8.34293 47.9985 5.45709 46.8028 3.32858 44.6753C1.20008 42.5478 0.00291969 39.6626 5.33658e-06 36.6531V11.3524C-0.00144077 9.8616 0.291027 8.38518 0.86068 7.00756C1.43033 5.62993 2.26599 4.37813 3.31986 3.32375C4.37373 2.26937 5.62513 1.4331 7.00248 0.862781C8.37983 0.292461 9.8561 -0.000722331 11.3469 1.33641e-06H36.6476C38.1377 -0.000721131 39.6134 0.292058 40.9903 0.861624C42.3673 1.43119 43.6185 2.26639 44.6727 3.31953C45.7269 4.37267 46.5633 5.62313 47.1342 6.99952C47.7051 8.37591 47.9993 9.85126 48 11.3414V11.3414Z" fill="#FCBC34"/>
</g>
<path d="M33.1608 33.6975H14.9718C14.8892 33.7247 14.8013 33.7319 14.7154 33.7185C14.6294 33.7051 14.5479 33.6715 14.4775 33.6205C14.407 33.5695 14.3497 33.5026 14.3102 33.4251C14.2706 33.3477 14.25 33.262 14.25 33.175C14.25 33.0881 14.2706 33.0023 14.3102 32.9249C14.3497 32.8475 14.407 32.7805 14.4775 32.7295C14.5479 32.6785 14.6294 32.6449 14.7154 32.6316C14.8013 32.6182 14.8892 32.6253 14.9718 32.6525H33.1608C33.2434 32.6253 33.3313 32.6182 33.4172 32.6316C33.5031 32.6449 33.5847 32.6785 33.6551 32.7295C33.7255 32.7805 33.7829 32.8475 33.8224 32.9249C33.862 33.0023 33.8826 33.0881 33.8826 33.175C33.8826 33.262 33.862 33.3477 33.8224 33.4251C33.7829 33.5026 33.7255 33.5695 33.6551 33.6205C33.5847 33.6715 33.5031 33.7051 33.4172 33.7185C33.3313 33.7319 33.2434 33.7247 33.1608 33.6975Z" fill="black"/>
<g clip-path="url(#clip0_4081_23655)">
<path d="M40.125 19.1399C40.125 16.4393 37.9424 14.25 35.25 14.25C32.5576 14.25 30.375 16.4393 30.375 19.1399V20.6101C30.375 23.3107 32.5576 25.5 35.25 25.5C37.9424 25.5 40.125 23.3107 40.125 20.6101V19.1399Z" fill="black"/>
<path d="M33.6695 17.8249C34.1434 17.8249 34.5276 17.4408 34.5276 16.9669C34.5276 16.493 34.1434 16.1089 33.6695 16.1089C33.1957 16.1089 32.8115 16.493 32.8115 16.9669C32.8115 17.4408 33.1957 17.8249 33.6695 17.8249Z" fill="white"/>
<path opacity="0.1" d="M35.2593 21.1308C36.3619 21.1308 37.2558 20.2369 37.2558 19.1343C37.2558 18.0316 36.3619 17.1377 35.2593 17.1377C34.1566 17.1377 33.2627 18.0316 33.2627 19.1343C33.2627 20.2369 34.1566 21.1308 35.2593 21.1308Z" fill="white"/>
<path d="M17.25 19.1399C17.25 16.4393 15.0674 14.25 12.375 14.25C9.68261 14.25 7.5 16.4393 7.5 19.1399V20.6101C7.5 23.3107 9.68261 25.5 12.375 25.5C15.0674 25.5 17.25 23.3107 17.25 20.6101V19.1399Z" fill="black"/>
<path d="M10.7945 17.8249C11.2684 17.8249 11.6526 17.4408 11.6526 16.9669C11.6526 16.493 11.2684 16.1089 10.7945 16.1089C10.3207 16.1089 9.93652 16.493 9.93652 16.9669C9.93652 17.4408 10.3207 17.8249 10.7945 17.8249Z" fill="white"/>
<path opacity="0.1" d="M12.3843 21.1308C13.4869 21.1308 14.3808 20.2369 14.3808 19.1343C14.3808 18.0316 13.4869 17.1377 12.3843 17.1377C11.2816 17.1377 10.3877 18.0316 10.3877 19.1343C10.3877 20.2369 11.2816 21.1308 12.3843 21.1308Z" fill="white"/>
</g>
<defs>
<filter id="filter0_i_4081_23655" x="0" y="0" width="48" height="48" filterUnits="userSpaceOnUse" color-interpolation-filters="sRGB">
<feFlood flood-opacity="0" result="BackgroundImageFix"/>
<feBlend mode="normal" in="SourceGraphic" in2="BackgroundImageFix" result="shape"/>
<feColorMatrix in="SourceAlpha" type="matrix" values="0 0 0 0 0 0 0 0 0 0 0 0 0 0 0 0 0 0 127 0" result="hardAlpha"/>
<feOffset dx="-6" dy="-6"/>
<feComposite in2="hardAlpha" operator="arithmetic" k2="-1" k3="1"/>
<feColorMatrix type="matrix" values="0 0 0 0 0 0 0 0 0 0 0 0 0 0 0 0 0 0 0.04 0"/>
<feBlend mode="normal" in2="shape" result="effect1_innerShadow_4081_23655"/>
</filter>
<clipPath id="clip0_4081_23655">
<rect width="32.7975" height="11.2368" fill="white" transform="translate(7.5 14.25)"/>
</clipPath>
</defs>
</svg>
