<svg width="48" height="48" viewBox="0 0 48 48" fill="none" xmlns="http://www.w3.org/2000/svg">
<g filter="url(#filter0_i_4081_20551)">
<path d="M48 11.3414V36.6421C48.0014 38.1332 47.709 39.6098 47.1394 40.9878C46.5698 42.3657 45.7343 43.6179 44.6805 44.6727C43.6267 45.7275 42.3753 46.5643 40.9979 47.1352C39.6206 47.7061 38.1442 48 36.6531 48H11.3524C8.34293 47.9985 5.45709 46.8028 3.32858 44.6753C1.20008 42.5478 0.00291969 39.6626 5.33658e-06 36.6531V11.3524C-0.00144077 9.8616 0.291027 8.38518 0.86068 7.00756C1.43033 5.62993 2.26599 4.37813 3.31986 3.32375C4.37373 2.26937 5.62513 1.4331 7.00248 0.862781C8.37983 0.292461 9.8561 -0.000722331 11.3469 1.33641e-06H36.6476C38.1377 -0.000721131 39.6134 0.292058 40.9903 0.861624C42.3673 1.43119 43.6185 2.26639 44.6727 3.31953C45.7269 4.37267 46.5633 5.62313 47.1342 6.99952C47.7051 8.37591 47.9993 9.85126 48 11.3414V11.3414Z" fill="#FCBC34"/>
</g>
<path d="M24.2033 31.125H23.9209C20.2821 31.2068 16.1228 33.1089 15.0317 37.1802C15.0067 37.2479 14.9963 37.32 15.0012 37.3918C15.0061 37.4637 15.0261 37.5338 15.0601 37.5976C15.0941 37.6614 15.1412 37.7175 15.1985 37.7623C15.2557 37.8072 15.3219 37.8398 15.3927 37.8581C15.4635 37.8763 15.5373 37.8799 15.6096 37.8684C15.6819 37.857 15.7509 37.8309 15.8123 37.7917C15.8737 37.7526 15.9262 37.7012 15.9663 37.641C16.0064 37.5807 16.0333 37.5129 16.0452 37.4418C17.0034 33.8937 20.7031 32.2314 23.943 32.1606C27.0335 32.1006 31.0821 33.6009 32.367 37.6232C32.4344 37.7182 32.5308 37.7896 32.6422 37.827C32.7537 37.8644 32.8743 37.866 32.9867 37.8313C33.099 37.7967 33.1973 37.7277 33.2671 37.6344C33.3369 37.5411 33.3747 37.4284 33.375 37.3125C32.1953 33.6336 28.6119 31.125 24.2033 31.125Z" fill="black"/>
<path d="M35.25 25.5C36.5429 25.5 37.7829 24.9864 38.6971 24.0722C39.6114 23.1579 40.125 21.918 40.125 20.6251V20.378C40.125 16.4583 35.7935 13.922 33.0266 14.2843C30.5726 14.5973 30.375 16.1673 30.375 18.5005V20.6251C30.3765 21.9175 30.8905 23.1566 31.8045 24.0706C32.7184 24.9845 33.9575 25.4985 35.25 25.5Z" fill="black"/>
<path d="M33.6844 17.8762C34.1583 17.8762 34.5425 17.4921 34.5425 17.0182C34.5425 16.5443 34.1583 16.1602 33.6844 16.1602C33.2106 16.1602 32.8264 16.5443 32.8264 17.0182C32.8264 17.4921 33.2106 17.8762 33.6844 17.8762Z" fill="white"/>
<path opacity="0.1" d="M35.2739 21.1816C36.3766 21.1816 37.2705 20.2877 37.2705 19.185C37.2705 18.0824 36.3766 17.1885 35.2739 17.1885C34.1712 17.1885 33.2773 18.0824 33.2773 19.185C33.2773 20.2877 34.1712 21.1816 35.2739 21.1816Z" fill="white"/>
<path d="M12.3723 25.5C11.0795 25.4985 9.84029 24.9843 8.92672 24.0702C8.01315 23.1561 7.5 21.917 7.50001 20.6251V20.378C7.50001 16.4583 11.8285 13.922 14.5969 14.2843C17.0577 14.5973 17.25 16.1673 17.25 18.5005V20.6251C17.25 21.918 16.7361 23.1579 15.8213 24.0722C14.9066 24.9864 13.6659 25.5 12.3723 25.5V25.5Z" fill="black"/>
<path d="M10.8148 17.8762C11.2887 17.8762 11.6728 17.4921 11.6728 17.0182C11.6728 16.5443 11.2887 16.1602 10.8148 16.1602C10.3409 16.1602 9.95679 16.5443 9.95679 17.0182C9.95679 17.4921 10.3409 17.8762 10.8148 17.8762Z" fill="white"/>
<path opacity="0.1" d="M12.4045 21.1816C13.5072 21.1816 14.4011 20.2877 14.4011 19.185C14.4011 18.0824 13.5072 17.1885 12.4045 17.1885C11.3018 17.1885 10.408 18.0824 10.408 19.185C10.408 20.2877 11.3018 21.1816 12.4045 21.1816Z" fill="white"/>
<defs>
<filter id="filter0_i_4081_20551" x="0" y="0" width="48" height="48" filterUnits="userSpaceOnUse" color-interpolation-filters="sRGB">
<feFlood flood-opacity="0" result="BackgroundImageFix"/>
<feBlend mode="normal" in="SourceGraphic" in2="BackgroundImageFix" result="shape"/>
<feColorMatrix in="SourceAlpha" type="matrix" values="0 0 0 0 0 0 0 0 0 0 0 0 0 0 0 0 0 0 127 0" result="hardAlpha"/>
<feOffset dx="-2.48438" dy="-2.48438"/>
<feComposite in2="hardAlpha" operator="arithmetic" k2="-1" k3="1"/>
<feColorMatrix type="matrix" values="0 0 0 0 0 0 0 0 0 0 0 0 0 0 0 0 0 0 0.04 0"/>
<feBlend mode="normal" in2="shape" result="effect1_innerShadow_4081_20551"/>
</filter>
</defs>
</svg>
