<svg width="20" height="20" viewBox="0 0 20 20" fill="none" xmlns="http://www.w3.org/2000/svg">
    <path fill-rule="evenodd" clip-rule="evenodd" d="M17.464 5.451c-.263.066-.612.28-.794.485-.106.12-1.153 1.893-2.68 4.538l-2.506 4.34-.17 1.508c-.094.829-.17 1.59-.171 1.69 0 .24.113.38.333.41.17.023.186.011 2.347-1.59l.51-.379.777-1.346 2.448-4.24a325.665 325.665 0 0 0 1.76-3.071c.434-.854.094-1.83-.782-2.243-.212-.1-.309-.122-.587-.13a2.413 2.413 0 0 0-.485.028zm-4.799 11.26c.35-.259.628-.48.617-.491-.012-.011-.26-.159-.552-.328-.499-.288-.532-.302-.549-.222-.027.134-.175 1.49-.163 1.502.005.006.297-.201.647-.46zM17.8 8.855a700.21 700.21 0 0 1-3.888 6.752c-.025.032-.24-.074-.757-.372-.397-.23-.722-.434-.722-.456 0-.036.574-1.038 3.041-5.307l.875-1.514.731.425c.403.233.726.446.72.472zm.837-2.178a.82.82 0 0 0-.489-.44.95.95 0 0 0-.66.04c-.177.087-.319.247-.496.562-.06.107-.143.25-.183.317l-.073.122.719.416c.395.229.735.416.755.416.044 0 .415-.637.476-.818.069-.203.053-.394-.05-.615z" fill="#7A7A7A"/>
    <path d="M1.884 12.21c-.053-.142.047-.371.194-.444.122-.06.215-.063.325-.006.396.202.208.803-.226.721-.144-.027-.23-.107-.293-.271zM3.539 12.107c0-.127.126-.308.25-.358.045-.018 1.373-.034 2.951-.036l2.87-.002.132.133c.181.18.18.336 0 .517l-.134.134-2.92-.01-2.921-.011-.114-.128a.407.407 0 0 1-.114-.24zM1.884 14.17c-.053-.14.047-.37.194-.443.122-.061.215-.063.325-.007.396.203.208.804-.226.722-.144-.027-.23-.107-.293-.271zM3.539 14.06c0-.127.126-.308.25-.358.045-.018 1.373-.034 2.951-.036l2.87-.002.132.133c.181.18.18.336 0 .517l-.134.134-2.92-.01-2.921-.011-.114-.128a.407.407 0 0 1-.114-.24zM1.884 16.151c-.053-.141.047-.37.194-.444.122-.06.215-.062.325-.006.396.202.208.803-.226.722-.144-.027-.23-.107-.293-.272zM3.539 16.044c0-.126.126-.308.25-.357.045-.019 1.373-.035 2.951-.036l2.87-.003.132.133c.181.181.18.336 0 .518l-.134.133-2.92-.01-2.921-.01-.114-.129a.407.407 0 0 1-.114-.239zM6.977 18.025c0-.127.127-.308.25-.358.045-.018.6-.034 1.23-.036l1.148-.002.133.133c.182.18.181.336-.001.518l-.135.134-1.198-.01-1.199-.012-.114-.128a.407.407 0 0 1-.114-.24z" fill="#7A7A7A"/>
    <path fill-rule="evenodd" clip-rule="evenodd" d="M6.6 3.381c-1.736.367-2.967 1.93-2.881 3.66.027.55.132.957.374 1.448.473.959 1.253 1.594 2.338 1.904.258.074.398.087.893.085.521-.002.626-.014.938-.109 1.036-.312 1.791-.943 2.253-1.88a3.36 3.36 0 0 0 .375-1.448c.07-1.502-.858-2.923-2.275-3.481A3.643 3.643 0 0 0 6.6 3.38zm2.249 1.181A2.52 2.52 0 0 0 7.84 4.15a2.774 2.774 0 0 0-2.597.855 2.721 2.721 0 0 0-.61 1.03c-.108.31-.12.388-.12.831 0 .559.06.838.273 1.271l.035.07c.095.195.141.29.2.298.055.008.122-.064.252-.202l.05-.053c.24-.255.637-.551.822-.613.02-.007-.022-.133-.095-.28-.114-.232-.133-.316-.147-.628-.02-.437.053-.73.253-1.025.265-.39.661-.596 1.148-.596.498 0 .89.21 1.167.623.291.436.328 1.136.086 1.628-.072.146-.114.271-.093.278.184.062.582.358.822.613l.05.053c.13.138.196.21.252.202.058-.008.104-.103.2-.297.01-.023.022-.046.034-.07.209-.424.272-.715.275-1.252.001-.405-.013-.516-.104-.802a2.885 2.885 0 0 0-1.144-1.52zM7.667 5.987c.165.12.263.357.263.637 0 .307-.07.474-.257.617-.122.094-.185.113-.369.113-.395 0-.626-.266-.626-.721 0-.352.132-.603.372-.71.131-.059.5-.02.617.064zm1.245 3.017c-.214-.347-.683-.667-1.156-.788a1.935 1.935 0 0 0-1.76.454 2.095 2.095 0 0 0-.3.334l-.086.14.094.072c.159.122.628.337.896.411.177.05.391.07.704.07.313 0 .527-.02.704-.07.268-.074.737-.29.896-.411L9 9.144l-.087-.14z" fill="#7A7A7A"/>
    <path fill-rule="evenodd" clip-rule="evenodd" d="M.797.062C.41.197.117.521.034.905c-.03.145-.04 2.743-.03 9.218l.011 9.017.084.181c.108.233.362.487.595.595L.876 20H15.7l.182-.084c.233-.108.487-.362.595-.595.082-.177.084-.225.084-1.85V15.8l-.091-.097a.357.357 0 0 0-.418-.088c-.24.101-.232.044-.254 1.788L15.778 19l-.108.108-.108.109H1.014l-.108-.109-.109-.108V1.01L.906.903l.108-.109h14.548l.108.109.109.108.02 2.287.019 2.286.104.104c.146.146.39.146.535 0l.104-.104V3.228C16.56.9 16.56.87 16.477.691a1.367 1.367 0 0 0-.595-.595L15.7.012 8.347.003C1.452-.005.98 0 .797.063z" fill="#7A7A7A"/>
</svg>
