<svg width="47" height="46" viewBox="0 0 47 46" fill="none" xmlns="http://www.w3.org/2000/svg">
<g clip-path="url(#clip0_818_6393)">
<path d="M42.3708 12.3157L39.4712 11.4329L38.1136 8.12653L35.5357 10.1801H33.4078C32.4242 10.1801 31.4564 9.86206 30.6141 9.34546C29.9392 8.92956 29.2042 8.61305 28.4273 8.40376C26.4524 7.8701 24.246 8.10689 22.4214 9.0551C21.6589 9.4501 20.8049 9.65939 19.9913 9.65939L7.25866 9.08001C3.72473 9.07992 0.625 12.3889 0.625 16.1622V37.5908H4.39045L8.66071 25.5372H22.5863C23.8147 33.5096 25.4224 37.3229 25.5003 37.5908H29.5404L32.8022 20.7883L44.843 20.1814L46.3393 16.2447L42.6154 14.2135L42.3708 12.3157Z" fill="#0063F5"/>
<path d="M10.5529 28.2158L9.29688 31.7614C9.57893 33.0739 9.96437 34.6554 10.5071 36.6099L10.7805 37.5908H16.7854L15.4462 32.2337L18.4596 28.2158H10.5529Z" fill="#0063F5"/>
<path d="M34.451 26.3477L32.7852 34.9289L35.361 37.5911H40.892L34.451 26.3477Z" fill="#0063F5"/>
</g>
<defs>
<clipPath id="clip0_818_6393">
<rect width="45.7143" height="45.7143" fill="white" transform="translate(0.625)"/>
</clipPath>
</defs>
</svg>
