<svg width="25" height="24" viewBox="0 0 25 24" fill="none" xmlns="http://www.w3.org/2000/svg">
<circle cx="12.3398" cy="12" r="12" fill="#E5EEFE"/>
<path d="M6.96775 16.1176C7.13344 16.1176 7.26775 15.9833 7.26775 15.8176C7.26775 15.6519 7.13344 15.5176 6.96775 15.5176V16.1176ZM5.99101 15.8176L5.72268 15.9517C5.7735 16.0534 5.87737 16.1176 5.99101 16.1176V15.8176ZM5.33984 14.5152L5.20568 14.2469C5.05749 14.321 4.99742 14.5012 5.07152 14.6494L5.33984 14.5152ZM5.99101 14.1897L6.12517 14.458C6.20668 14.4172 6.26525 14.3416 6.28435 14.2525L5.99101 14.1897ZM11.5259 8.65478L11.6373 8.37623C11.6019 8.36206 11.5641 8.35478 11.5259 8.35478V8.65478ZM15.4329 8.65478L15.1986 8.8422C15.2771 8.94034 15.4085 8.97913 15.5278 8.93938L15.4329 8.65478ZM16.4669 9.11445C16.541 9.26265 16.7212 9.32271 16.8694 9.24862C17.0176 9.17452 17.0776 8.99432 17.0035 8.84612L16.4669 9.11445ZM17.4119 8.65471C17.4119 8.82039 17.5463 8.95471 17.7119 8.95471C17.8776 8.95471 18.0119 8.82039 18.0119 8.65471H17.4119ZM18.6887 9.63141H18.9887C18.9887 9.59916 18.9835 9.56713 18.9733 9.53654L18.6887 9.63141ZM19.3398 10.6082H19.6398C19.6398 10.4945 19.5756 10.3906 19.474 10.3398L19.3398 10.6082ZM19.3398 11.2593L19.474 11.5276C19.5756 11.4768 19.6398 11.3729 19.6398 11.2593H19.3398ZM17.7119 11.2593L17.7847 11.5504C17.8059 11.545 17.8265 11.5374 17.8461 11.5276L17.7119 11.2593ZM16.384 10.2826C16.384 10.1169 16.2497 9.98257 16.084 9.98257C15.9183 9.98257 15.784 10.1169 15.784 10.2826H16.384ZM16.6964 11.2888L16.7854 11.0023L16.6964 11.2888ZM18.6887 15.8175V16.1175C18.804 16.1175 18.9091 16.0513 18.9591 15.9474C19.009 15.8435 18.995 15.7201 18.9229 15.63L18.6887 15.8175ZM17.0608 15.8175L16.8486 16.0296C16.9049 16.0858 16.9812 16.1175 17.0608 16.1175V15.8175ZM16.4096 15.1663L16.6217 14.9542C16.5888 14.9212 16.5487 14.8964 16.5045 14.8817L16.4096 15.1663ZM15.0727 13.2856C15.1129 13.1248 15.0152 12.9619 14.8545 12.9218C14.6937 12.8816 14.5308 12.9793 14.4907 13.14L15.0727 13.2856ZM13.805 13.5384L13.7461 13.2442C13.6214 13.2692 13.526 13.37 13.508 13.496L13.805 13.5384ZM14.4561 16.1175C14.6218 16.1175 14.7561 15.9831 14.7561 15.8175C14.7561 15.6518 14.6218 15.5175 14.4561 15.5175V16.1175ZM12.5026 14.8407H12.8026C12.8026 14.7726 12.7795 14.7065 12.7369 14.6533L12.5026 14.8407ZM12.7369 11.7723C12.8404 11.6429 12.8194 11.4541 12.69 11.3506C12.5607 11.2471 12.3719 11.2681 12.2684 11.3975L12.7369 11.7723ZM6.70955 14.8726L6.70776 14.5726C6.54278 14.5736 6.40955 14.7076 6.40955 14.8726H6.70955ZM9.89798 15.4919H9.59798C9.59798 15.6055 9.66217 15.7094 9.76378 15.7602L9.89798 15.4919ZM10.5491 15.8176L10.4149 16.0859C10.4566 16.1067 10.5026 16.1176 10.5492 16.1176L10.5491 15.8176ZM11.8515 16.1175C12.0172 16.1174 12.1515 15.9831 12.1515 15.8174C12.1515 15.6517 12.0171 15.5174 11.8514 15.5175L11.8515 16.1175ZM6.25933 15.6834L5.60817 14.3811L5.07152 14.6494L5.72268 15.9517L6.25933 15.6834ZM5.47401 14.7836L6.12517 14.458L5.85684 13.9213L5.20568 14.2469L5.47401 14.7836ZM6.28435 14.2525C6.44488 13.5034 6.75029 12.3467 7.14229 11.3174C7.33847 10.8022 7.55298 10.3279 7.77729 9.95506C8.00801 9.57152 8.22365 9.33899 8.40424 9.24869L8.13591 8.71203C7.79558 8.8822 7.50656 9.24114 7.26315 9.64578C7.01333 10.0611 6.78424 10.5717 6.58158 11.1038C6.17591 12.1691 5.86272 13.3566 5.69767 14.1268L6.28435 14.2525ZM8.40424 9.24869C8.99601 8.95281 9.67535 8.87338 10.2643 8.87338C10.5565 8.87338 10.821 8.89287 11.0352 8.91279C11.2318 8.93108 11.426 8.95478 11.5259 8.95478V8.35478C11.463 8.35478 11.3316 8.33778 11.0907 8.31537C10.8674 8.29459 10.5825 8.27338 10.2643 8.27338C9.63225 8.27338 8.84647 8.35675 8.13591 8.71203L8.40424 9.24869ZM11.4145 8.93333C12.3762 9.31795 13.1678 8.82195 13.7283 8.56039C14.0314 8.41896 14.2625 8.34042 14.4766 8.35856C14.6706 8.375 14.9071 8.4778 15.1986 8.8422L15.6671 8.46736C15.3075 8.01788 14.9335 7.79512 14.5272 7.7607C14.141 7.72797 13.782 7.87324 13.4746 8.01667C12.8142 8.32482 12.3035 8.6427 11.6373 8.37623L11.4145 8.93333ZM15.5278 8.93938L16.5045 8.61372L16.3147 8.04453L15.338 8.37018L15.5278 8.93938ZM16.1413 8.46329L16.4669 9.11445L17.0035 8.84612L16.6779 8.19496L16.1413 8.46329ZM16.7096 8.32913C16.7096 8.38998 16.6802 8.41848 16.6856 8.41263C16.6896 8.40829 16.7074 8.39219 16.7466 8.3722C16.8248 8.33237 16.9401 8.30135 17.0568 8.30004C17.1746 8.29872 17.2614 8.32739 17.3136 8.3688C17.3555 8.4021 17.4084 8.46917 17.4117 8.63182L18.0116 8.6197C18.0053 8.30854 17.8907 8.06095 17.6867 7.89894C17.4929 7.74506 17.2554 7.69778 17.0501 7.70008C16.8437 7.70239 16.6371 7.75455 16.4741 7.83768C16.3927 7.87916 16.3102 7.93449 16.2439 8.00653C16.1791 8.07706 16.1096 8.18692 16.1096 8.32913H16.7096ZM17.4117 8.63182C17.4119 8.63934 17.4119 8.64697 17.4119 8.65471H18.0119C18.0119 8.64296 18.0118 8.63129 18.0116 8.6197L17.4117 8.63182ZM17.4908 8.82879C17.609 8.95736 17.7301 9.0251 17.8387 9.07121C17.8868 9.09163 17.9391 9.11035 17.972 9.12279C18.0095 9.13696 18.0368 9.14833 18.0614 9.16117C18.1282 9.19602 18.2541 9.27631 18.4041 9.72628L18.9733 9.53654C18.7977 9.00976 18.598 8.76447 18.3391 8.6293C18.2823 8.59963 18.2283 8.57823 18.1843 8.5616C18.1357 8.54323 18.1066 8.53313 18.0733 8.51896C18.019 8.4959 17.9772 8.4714 17.9325 8.42273L17.4908 8.82879ZM18.3887 9.63141C18.3887 9.78664 18.3843 10.019 18.5017 10.2539C18.6223 10.495 18.8461 10.6967 19.2057 10.8765L19.474 10.3398C19.1824 10.194 19.0807 10.0702 19.0384 9.98562C18.9931 9.89493 18.9887 9.80175 18.9887 9.63141H18.3887ZM19.0398 10.6082V11.2593H19.6398V10.6082H19.0398ZM19.2057 10.991C18.9981 11.0948 18.8607 11.0547 18.6208 10.9747C18.3723 10.8919 18.0213 10.7692 17.5778 10.991L17.8461 11.5276C18.0537 11.4238 18.1911 11.4639 18.431 11.5439C18.6794 11.6267 19.0304 11.7494 19.474 11.5276L19.2057 10.991ZM17.6392 10.9683C17.4159 11.0241 17.0598 11.0875 16.7854 11.0023L16.6074 11.5753C17.0555 11.7145 17.5579 11.6071 17.7847 11.5504L17.6392 10.9683ZM16.7854 11.0023C16.6685 10.966 16.5767 10.9056 16.5108 10.8107C16.4435 10.7136 16.384 10.5527 16.384 10.2826H15.784C15.784 10.6396 15.863 10.9297 16.018 11.1529C16.1744 11.3782 16.3888 11.5074 16.6074 11.5753L16.7854 11.0023ZM16.3966 11.2979C16.4095 11.7226 16.4352 12.6971 16.4352 13.2128H17.0352C17.0352 12.6867 17.0092 11.7035 16.9963 11.2797L16.3966 11.2979ZM16.4352 13.2128C16.4352 13.6608 16.6723 13.9802 16.9993 14.3482C17.3372 14.7282 17.8093 15.1985 18.4544 16.0049L18.9229 15.63C18.2657 14.8085 17.7611 14.302 17.4478 13.9495C17.1237 13.5849 17.0352 13.416 17.0352 13.2128H16.4352ZM18.6887 15.5175H17.0608V16.1175H18.6887V15.5175ZM17.2729 15.6053L16.6217 14.9542L16.1975 15.3784L16.8486 16.0296L17.2729 15.6053ZM16.5045 14.8817C16.2064 14.7823 15.7756 14.5726 15.4574 14.2785C15.1409 13.986 14.9798 13.6572 15.0727 13.2856L14.4907 13.14C14.3231 13.8103 14.6504 14.3497 15.0502 14.7192C15.4482 15.0871 15.9617 15.3332 16.3147 15.4509L16.5045 14.8817ZM16.4827 11.0783C16.3891 11.1733 16.2318 11.3175 16.071 11.4355C15.9906 11.4946 15.9157 11.5423 15.852 11.5741C15.782 11.6092 15.7537 11.6105 15.7584 11.6105V12.2105C15.8934 12.2105 16.022 12.16 16.1203 12.1108C16.2251 12.0584 16.3301 11.9896 16.4261 11.9192C16.6182 11.7781 16.7997 11.6115 16.9102 11.4993L16.4827 11.0783ZM15.7584 11.6105C15.6045 11.6105 15.4955 11.6916 15.43 11.7607C15.3681 11.8261 15.3199 11.9066 15.283 11.9725C15.1986 12.1233 15.1345 12.2649 15.0205 12.4359C14.8124 12.7481 14.4689 13.0997 13.7461 13.2442L13.8638 13.8326C14.7689 13.6515 15.2394 13.1892 15.5197 12.7687C15.6499 12.5735 15.7485 12.3692 15.8065 12.2656C15.8409 12.2043 15.8588 12.1806 15.8656 12.1734C15.8688 12.1701 15.831 12.2105 15.7584 12.2105V11.6105ZM13.508 13.496C13.4529 13.8812 13.3864 14.462 13.3668 14.9508C13.3572 15.1925 13.3582 15.4272 13.3825 15.608C13.3942 15.6953 13.4142 15.7945 13.455 15.88C13.492 15.9574 13.5956 16.1175 13.805 16.1175V15.5175C13.869 15.5175 13.922 15.5432 13.9563 15.5727C13.9856 15.5978 13.9961 15.6206 13.9964 15.6213C13.9975 15.6236 13.9945 15.6178 13.9901 15.5998C13.9858 15.5826 13.9813 15.559 13.9772 15.5283C13.96 15.4005 13.957 15.2079 13.9663 14.9748C13.9848 14.514 14.0485 13.9553 14.1019 13.5808L13.508 13.496ZM13.805 16.1175C13.8055 16.1175 13.806 16.1175 13.8065 16.1175C13.807 16.1175 13.8075 16.1175 13.808 16.1175C13.8085 16.1175 13.809 16.1175 13.8095 16.1175C13.8101 16.1175 13.8106 16.1175 13.8111 16.1175C13.8116 16.1175 13.8121 16.1175 13.8126 16.1175C13.8131 16.1175 13.8136 16.1175 13.8141 16.1175C13.8146 16.1175 13.8151 16.1175 13.8157 16.1175C13.8162 16.1175 13.8167 16.1175 13.8172 16.1175C13.8177 16.1175 13.8182 16.1175 13.8187 16.1175C13.8192 16.1175 13.8197 16.1175 13.8202 16.1175C13.8208 16.1175 13.8213 16.1175 13.8218 16.1175C13.8223 16.1175 13.8228 16.1175 13.8233 16.1175C13.8238 16.1175 13.8243 16.1175 13.8248 16.1175C13.8253 16.1175 13.8259 16.1175 13.8264 16.1175C13.8269 16.1175 13.8274 16.1175 13.8279 16.1175C13.8284 16.1175 13.8289 16.1175 13.8294 16.1175C13.8299 16.1175 13.8305 16.1175 13.831 16.1175C13.8315 16.1175 13.832 16.1175 13.8325 16.1175C13.833 16.1175 13.8335 16.1175 13.834 16.1175C13.8345 16.1175 13.8351 16.1175 13.8356 16.1175C13.8361 16.1175 13.8366 16.1175 13.8371 16.1175C13.8376 16.1175 13.8381 16.1175 13.8386 16.1175C13.8392 16.1175 13.8397 16.1175 13.8402 16.1175C13.8407 16.1175 13.8412 16.1175 13.8417 16.1175C13.8422 16.1175 13.8427 16.1175 13.8432 16.1175C13.8438 16.1175 13.8443 16.1175 13.8448 16.1175C13.8453 16.1175 13.8458 16.1175 13.8463 16.1175C13.8468 16.1175 13.8473 16.1175 13.8479 16.1175C13.8484 16.1175 13.8489 16.1175 13.8494 16.1175C13.8499 16.1175 13.8504 16.1175 13.8509 16.1175C13.8514 16.1175 13.852 16.1175 13.8525 16.1175C13.853 16.1175 13.8535 16.1175 13.854 16.1175C13.8545 16.1175 13.855 16.1175 13.8555 16.1175C13.8561 16.1175 13.8566 16.1175 13.8571 16.1175C13.8576 16.1175 13.8581 16.1175 13.8586 16.1175C13.8591 16.1175 13.8596 16.1175 13.8602 16.1175C13.8607 16.1175 13.8612 16.1175 13.8617 16.1175C13.8622 16.1175 13.8627 16.1175 13.8632 16.1175C13.8637 16.1175 13.8643 16.1175 13.8648 16.1175C13.8653 16.1175 13.8658 16.1175 13.8663 16.1175C13.8668 16.1175 13.8673 16.1175 13.8679 16.1175C13.8684 16.1175 13.8689 16.1175 13.8694 16.1175C13.8699 16.1175 13.8704 16.1175 13.8709 16.1175C13.8714 16.1175 13.872 16.1175 13.8725 16.1175C13.873 16.1175 13.8735 16.1175 13.874 16.1175C13.8745 16.1175 13.875 16.1175 13.8755 16.1175C13.8761 16.1175 13.8766 16.1175 13.8771 16.1175C13.8776 16.1175 13.8781 16.1175 13.8786 16.1175C13.8791 16.1175 13.8797 16.1175 13.8802 16.1175C13.8807 16.1175 13.8812 16.1175 13.8817 16.1175C13.8822 16.1175 13.8827 16.1175 13.8832 16.1175C13.8838 16.1175 13.8843 16.1175 13.8848 16.1175C13.8853 16.1175 13.8858 16.1175 13.8863 16.1175C13.8868 16.1175 13.8874 16.1175 13.8879 16.1175C13.8884 16.1175 13.8889 16.1175 13.8894 16.1175C13.8899 16.1175 13.8904 16.1175 13.8909 16.1175C13.8915 16.1175 13.892 16.1175 13.8925 16.1175C13.893 16.1175 13.8935 16.1175 13.894 16.1175C13.8945 16.1175 13.8951 16.1175 13.8956 16.1175C13.8961 16.1175 13.8966 16.1175 13.8971 16.1175C13.8976 16.1175 13.8981 16.1175 13.8987 16.1175C13.8992 16.1175 13.8997 16.1175 13.9002 16.1175C13.9007 16.1175 13.9012 16.1175 13.9017 16.1175C13.9022 16.1175 13.9028 16.1175 13.9033 16.1175C13.9038 16.1175 13.9043 16.1175 13.9048 16.1175C13.9053 16.1175 13.9058 16.1175 13.9064 16.1175C13.9069 16.1175 13.9074 16.1175 13.9079 16.1175C13.9084 16.1175 13.9089 16.1175 13.9094 16.1175C13.9099 16.1175 13.9105 16.1175 13.911 16.1175C13.9115 16.1175 13.912 16.1175 13.9125 16.1175C13.913 16.1175 13.9135 16.1175 13.914 16.1175C13.9146 16.1175 13.9151 16.1175 13.9156 16.1175C13.9161 16.1175 13.9166 16.1175 13.9171 16.1175C13.9176 16.1175 13.9182 16.1175 13.9187 16.1175C13.9192 16.1175 13.9197 16.1175 13.9202 16.1175C13.9207 16.1175 13.9212 16.1175 13.9217 16.1175C13.9223 16.1175 13.9228 16.1175 13.9233 16.1175C13.9238 16.1175 13.9243 16.1175 13.9248 16.1175C13.9253 16.1175 13.9258 16.1175 13.9264 16.1175C13.9269 16.1175 13.9274 16.1175 13.9279 16.1175C13.9284 16.1175 13.9289 16.1175 13.9294 16.1175C13.9299 16.1175 13.9305 16.1175 13.931 16.1175C13.9315 16.1175 13.932 16.1175 13.9325 16.1175C13.933 16.1175 13.9335 16.1175 13.934 16.1175C13.9346 16.1175 13.9351 16.1175 13.9356 16.1175C13.9361 16.1175 13.9366 16.1175 13.9371 16.1175C13.9376 16.1175 13.9381 16.1175 13.9387 16.1175C13.9392 16.1175 13.9397 16.1175 13.9402 16.1175C13.9407 16.1175 13.9412 16.1175 13.9417 16.1175C13.9422 16.1175 13.9428 16.1175 13.9433 16.1175C13.9438 16.1175 13.9443 16.1175 13.9448 16.1175C13.9453 16.1175 13.9458 16.1175 13.9463 16.1175C13.9468 16.1175 13.9474 16.1175 13.9479 16.1175C13.9484 16.1175 13.9489 16.1175 13.9494 16.1175C13.9499 16.1175 13.9504 16.1175 13.9509 16.1175C13.9515 16.1175 13.952 16.1175 13.9525 16.1175C13.953 16.1175 13.9535 16.1175 13.954 16.1175C13.9545 16.1175 13.955 16.1175 13.9555 16.1175C13.9561 16.1175 13.9566 16.1175 13.9571 16.1175C13.9576 16.1175 13.9581 16.1175 13.9586 16.1175C13.9591 16.1175 13.9596 16.1175 13.9601 16.1175C13.9606 16.1175 13.9612 16.1175 13.9617 16.1175C13.9622 16.1175 13.9627 16.1175 13.9632 16.1175C13.9637 16.1175 13.9642 16.1175 13.9647 16.1175C13.9652 16.1175 13.9658 16.1175 13.9663 16.1175C13.9668 16.1175 13.9673 16.1175 13.9678 16.1175C13.9683 16.1175 13.9688 16.1175 13.9693 16.1175C13.9698 16.1175 13.9703 16.1175 13.9708 16.1175C13.9714 16.1175 13.9719 16.1175 13.9724 16.1175C13.9729 16.1175 13.9734 16.1175 13.9739 16.1175C13.9744 16.1175 13.9749 16.1175 13.9754 16.1175C13.9759 16.1175 13.9765 16.1175 13.977 16.1175C13.9775 16.1175 13.978 16.1175 13.9785 16.1175C13.979 16.1175 13.9795 16.1175 13.98 16.1175C13.9805 16.1175 13.981 16.1175 13.9815 16.1175C13.982 16.1175 13.9826 16.1175 13.9831 16.1175C13.9836 16.1175 13.9841 16.1175 13.9846 16.1175C13.9851 16.1175 13.9856 16.1175 13.9861 16.1175C13.9866 16.1175 13.9871 16.1175 13.9876 16.1175C13.9881 16.1175 13.9887 16.1175 13.9892 16.1175C13.9897 16.1175 13.9902 16.1175 13.9907 16.1175C13.9912 16.1175 13.9917 16.1175 13.9922 16.1175C13.9927 16.1175 13.9932 16.1175 13.9937 16.1175C13.9942 16.1175 13.9947 16.1175 13.9952 16.1175C13.9958 16.1175 13.9963 16.1175 13.9968 16.1175C13.9973 16.1175 13.9978 16.1175 13.9983 16.1175C13.9988 16.1175 13.9993 16.1175 13.9998 16.1175C14.0003 16.1175 14.0008 16.1175 14.0013 16.1175C14.0018 16.1175 14.0023 16.1175 14.0028 16.1175C14.0034 16.1175 14.0039 16.1175 14.0044 16.1175C14.0049 16.1175 14.0054 16.1175 14.0059 16.1175C14.0064 16.1175 14.0069 16.1175 14.0074 16.1175C14.0079 16.1175 14.0084 16.1175 14.0089 16.1175C14.0094 16.1175 14.0099 16.1175 14.0104 16.1175C14.0109 16.1175 14.0114 16.1175 14.0119 16.1175C14.0124 16.1175 14.0129 16.1175 14.0135 16.1175C14.014 16.1175 14.0145 16.1175 14.015 16.1175C14.0155 16.1175 14.016 16.1175 14.0165 16.1175C14.017 16.1175 14.0175 16.1175 14.018 16.1175C14.0185 16.1175 14.019 16.1175 14.0195 16.1175C14.02 16.1175 14.0205 16.1175 14.021 16.1175C14.0215 16.1175 14.022 16.1175 14.0225 16.1175C14.023 16.1175 14.0235 16.1175 14.024 16.1175C14.0245 16.1175 14.025 16.1175 14.0255 16.1175C14.026 16.1175 14.0265 16.1175 14.027 16.1175C14.0275 16.1175 14.028 16.1175 14.0285 16.1175C14.029 16.1175 14.0295 16.1175 14.0301 16.1175C14.0306 16.1175 14.0311 16.1175 14.0316 16.1175C14.0321 16.1175 14.0326 16.1175 14.0331 16.1175C14.0336 16.1175 14.0341 16.1175 14.0346 16.1175C14.0351 16.1175 14.0356 16.1175 14.0361 16.1175C14.0366 16.1175 14.0371 16.1175 14.0376 16.1175C14.0381 16.1175 14.0386 16.1175 14.0391 16.1175C14.0396 16.1175 14.0401 16.1175 14.0406 16.1175C14.0411 16.1175 14.0416 16.1175 14.0421 16.1175C14.0426 16.1175 14.0431 16.1175 14.0436 16.1175C14.0441 16.1175 14.0446 16.1175 14.0451 16.1175C14.0456 16.1175 14.0461 16.1175 14.0466 16.1175C14.0471 16.1175 14.0476 16.1175 14.048 16.1175C14.0485 16.1175 14.049 16.1175 14.0495 16.1175C14.05 16.1175 14.0505 16.1175 14.051 16.1175C14.0515 16.1175 14.052 16.1175 14.0525 16.1175C14.053 16.1175 14.0535 16.1175 14.054 16.1175C14.0545 16.1175 14.055 16.1175 14.0555 16.1175C14.056 16.1175 14.0565 16.1175 14.057 16.1175C14.0575 16.1175 14.058 16.1175 14.0585 16.1175C14.059 16.1175 14.0595 16.1175 14.06 16.1175C14.0605 16.1175 14.061 16.1175 14.0615 16.1175C14.062 16.1175 14.0625 16.1175 14.063 16.1175C14.0634 16.1175 14.0639 16.1175 14.0644 16.1175C14.0649 16.1175 14.0654 16.1175 14.0659 16.1175C14.0664 16.1175 14.0669 16.1175 14.0674 16.1175C14.0679 16.1175 14.0684 16.1175 14.0689 16.1175C14.0694 16.1175 14.0699 16.1175 14.0704 16.1175C14.0709 16.1175 14.0714 16.1175 14.0718 16.1175C14.0723 16.1175 14.0728 16.1175 14.0733 16.1175C14.0738 16.1175 14.0743 16.1175 14.0748 16.1175C14.0753 16.1175 14.0758 16.1175 14.0763 16.1175C14.0768 16.1175 14.0773 16.1175 14.0778 16.1175C14.0782 16.1175 14.0787 16.1175 14.0792 16.1175C14.0797 16.1175 14.0802 16.1175 14.0807 16.1175C14.0812 16.1175 14.0817 16.1175 14.0822 16.1175C14.0827 16.1175 14.0832 16.1175 14.0836 16.1175C14.0841 16.1175 14.0846 16.1175 14.0851 16.1175C14.0856 16.1175 14.0861 16.1175 14.0866 16.1175C14.0871 16.1175 14.0876 16.1175 14.0881 16.1175C14.0885 16.1175 14.089 16.1175 14.0895 16.1175C14.09 16.1175 14.0905 16.1175 14.091 16.1175C14.0915 16.1175 14.092 16.1175 14.0925 16.1175C14.0929 16.1175 14.0934 16.1175 14.0939 16.1175C14.0944 16.1175 14.0949 16.1175 14.0954 16.1175C14.0959 16.1175 14.0964 16.1175 14.0968 16.1175C14.0973 16.1175 14.0978 16.1175 14.0983 16.1175C14.0988 16.1175 14.0993 16.1175 14.0998 16.1175C14.1002 16.1175 14.1007 16.1175 14.1012 16.1175C14.1017 16.1175 14.1022 16.1175 14.1027 16.1175C14.1032 16.1175 14.1036 16.1175 14.1041 16.1175C14.1046 16.1175 14.1051 16.1175 14.1056 16.1175C14.1061 16.1175 14.1065 16.1175 14.107 16.1175C14.1075 16.1175 14.108 16.1175 14.1085 16.1175C14.109 16.1175 14.1095 16.1175 14.1099 16.1175C14.1104 16.1175 14.1109 16.1175 14.1114 16.1175C14.1119 16.1175 14.1123 16.1175 14.1128 16.1175C14.1133 16.1175 14.1138 16.1175 14.1143 16.1175C14.1148 16.1175 14.1152 16.1175 14.1157 16.1175C14.1162 16.1175 14.1167 16.1175 14.1172 16.1175C14.1176 16.1175 14.1181 16.1175 14.1186 16.1175C14.1191 16.1175 14.1196 16.1175 14.1201 16.1175C14.1205 16.1175 14.121 16.1175 14.1215 16.1175C14.122 16.1175 14.1225 16.1175 14.1229 16.1175C14.1234 16.1175 14.1239 16.1175 14.1244 16.1175C14.1248 16.1175 14.1253 16.1175 14.1258 16.1175C14.1263 16.1175 14.1268 16.1175 14.1272 16.1175C14.1277 16.1175 14.1282 16.1175 14.1287 16.1175C14.1291 16.1175 14.1296 16.1175 14.1301 16.1175C14.1306 16.1175 14.1311 16.1175 14.1315 16.1175C14.132 16.1175 14.1325 16.1175 14.133 16.1175C14.1334 16.1175 14.1339 16.1175 14.1344 16.1175C14.1349 16.1175 14.1353 16.1175 14.1358 16.1175C14.1363 16.1175 14.1368 16.1175 14.1372 16.1175C14.1377 16.1175 14.1382 16.1175 14.1387 16.1175C14.1391 16.1175 14.1396 16.1175 14.1401 16.1175C14.1406 16.1175 14.141 16.1175 14.1415 16.1175C14.142 16.1175 14.1425 16.1175 14.1429 16.1175C14.1434 16.1175 14.1439 16.1175 14.1443 16.1175C14.1448 16.1175 14.1453 16.1175 14.1458 16.1175C14.1462 16.1175 14.1467 16.1175 14.1472 16.1175C14.1476 16.1175 14.1481 16.1175 14.1486 16.1175C14.1491 16.1175 14.1495 16.1175 14.15 16.1175C14.1505 16.1175 14.1509 16.1175 14.1514 16.1175C14.1519 16.1175 14.1523 16.1175 14.1528 16.1175C14.1533 16.1175 14.1538 16.1175 14.1542 16.1175C14.1547 16.1175 14.1552 16.1175 14.1556 16.1175C14.1561 16.1175 14.1566 16.1175 14.157 16.1175C14.1575 16.1175 14.158 16.1175 14.1584 16.1175C14.1589 16.1175 14.1594 16.1175 14.1598 16.1175C14.1603 16.1175 14.1608 16.1175 14.1612 16.1175C14.1617 16.1175 14.1622 16.1175 14.1626 16.1175C14.1631 16.1175 14.1636 16.1175 14.164 16.1175C14.1645 16.1175 14.165 16.1175 14.1654 16.1175C14.1659 16.1175 14.1664 16.1175 14.1668 16.1175C14.1673 16.1175 14.1677 16.1175 14.1682 16.1175C14.1687 16.1175 14.1691 16.1175 14.1696 16.1175C14.1701 16.1175 14.1705 16.1175 14.171 16.1175C14.1715 16.1175 14.1719 16.1175 14.1724 16.1175C14.1728 16.1175 14.1733 16.1175 14.1738 16.1175C14.1742 16.1175 14.1747 16.1175 14.1751 16.1175C14.1756 16.1175 14.1761 16.1175 14.1765 16.1175C14.177 16.1175 14.1774 16.1175 14.1779 16.1175C14.1784 16.1175 14.1788 16.1175 14.1793 16.1175C14.1797 16.1175 14.1802 16.1175 14.1807 16.1175C14.1811 16.1175 14.1816 16.1175 14.182 16.1175C14.1825 16.1175 14.183 16.1175 14.1834 16.1175C14.1839 16.1175 14.1843 16.1175 14.1848 16.1175C14.1852 16.1175 14.1857 16.1175 14.1862 16.1175C14.1866 16.1175 14.1871 16.1175 14.1875 16.1175C14.188 16.1175 14.1884 16.1175 14.1889 16.1175C14.1893 16.1175 14.1898 16.1175 14.1902 16.1175C14.1907 16.1175 14.1912 16.1175 14.1916 16.1175C14.1921 16.1175 14.1925 16.1175 14.193 16.1175C14.1934 16.1175 14.1939 16.1175 14.1943 16.1175C14.1948 16.1175 14.1952 16.1175 14.1957 16.1175C14.1961 16.1175 14.1966 16.1175 14.197 16.1175C14.1975 16.1175 14.1979 16.1175 14.1984 16.1175C14.1989 16.1175 14.1993 16.1175 14.1998 16.1175C14.2002 16.1175 14.2007 16.1175 14.2011 16.1175C14.2016 16.1175 14.202 16.1175 14.2024 16.1175C14.2029 16.1175 14.2033 16.1175 14.2038 16.1175C14.2042 16.1175 14.2047 16.1175 14.2051 16.1175C14.2056 16.1175 14.206 16.1175 14.2065 16.1175C14.2069 16.1175 14.2074 16.1175 14.2078 16.1175C14.2083 16.1175 14.2087 16.1175 14.2092 16.1175C14.2096 16.1175 14.2101 16.1175 14.2105 16.1175C14.2109 16.1175 14.2114 16.1175 14.2118 16.1175C14.2123 16.1175 14.2127 16.1175 14.2132 16.1175C14.2136 16.1175 14.2141 16.1175 14.2145 16.1175C14.2149 16.1175 14.2154 16.1175 14.2158 16.1175C14.2163 16.1175 14.2167 16.1175 14.2172 16.1175C14.2176 16.1175 14.218 16.1175 14.2185 16.1175C14.2189 16.1175 14.2194 16.1175 14.2198 16.1175C14.2203 16.1175 14.2207 16.1175 14.2211 16.1175C14.2216 16.1175 14.222 16.1175 14.2225 16.1175C14.2229 16.1175 14.2233 16.1175 14.2238 16.1175C14.2242 16.1175 14.2246 16.1175 14.2251 16.1175C14.2255 16.1175 14.226 16.1175 14.2264 16.1175C14.2268 16.1175 14.2273 16.1175 14.2277 16.1175C14.2281 16.1175 14.2286 16.1175 14.229 16.1175C14.2295 16.1175 14.2299 16.1175 14.2303 16.1175C14.2308 16.1175 14.2312 16.1175 14.2316 16.1175C14.2321 16.1175 14.2325 16.1175 14.2329 16.1175C14.2334 16.1175 14.2338 16.1175 14.2342 16.1175C14.2347 16.1175 14.2351 16.1175 14.2355 16.1175C14.236 16.1175 14.2364 16.1175 14.2368 16.1175C14.2373 16.1175 14.2377 16.1175 14.2381 16.1175C14.2386 16.1175 14.239 16.1175 14.2394 16.1175C14.2399 16.1175 14.2403 16.1175 14.2407 16.1175C14.2412 16.1175 14.2416 16.1175 14.242 16.1175C14.2424 16.1175 14.2429 16.1175 14.2433 16.1175C14.2437 16.1175 14.2442 16.1175 14.2446 16.1175C14.245 16.1175 14.2454 16.1175 14.2459 16.1175C14.2463 16.1175 14.2467 16.1175 14.2471 16.1175C14.2476 16.1175 14.248 16.1175 14.2484 16.1175C14.2489 16.1175 14.2493 16.1175 14.2497 16.1175C14.2501 16.1175 14.2506 16.1175 14.251 16.1175C14.2514 16.1175 14.2518 16.1175 14.2523 16.1175C14.2527 16.1175 14.2531 16.1175 14.2535 16.1175C14.2539 16.1175 14.2544 16.1175 14.2548 16.1175C14.2552 16.1175 14.2556 16.1175 14.2561 16.1175C14.2565 16.1175 14.2569 16.1175 14.2573 16.1175C14.2577 16.1175 14.2582 16.1175 14.2586 16.1175C14.259 16.1175 14.2594 16.1175 14.2598 16.1175C14.2603 16.1175 14.2607 16.1175 14.2611 16.1175C14.2615 16.1175 14.2619 16.1175 14.2624 16.1175C14.2628 16.1175 14.2632 16.1175 14.2636 16.1175C14.264 16.1175 14.2644 16.1175 14.2649 16.1175C14.2653 16.1175 14.2657 16.1175 14.2661 16.1175C14.2665 16.1175 14.2669 16.1175 14.2674 16.1175C14.2678 16.1175 14.2682 16.1175 14.2686 16.1175C14.269 16.1175 14.2694 16.1175 14.2698 16.1175C14.2703 16.1175 14.2707 16.1175 14.2711 16.1175C14.2715 16.1175 14.2719 16.1175 14.2723 16.1175C14.2727 16.1175 14.2731 16.1175 14.2735 16.1175C14.274 16.1175 14.2744 16.1175 14.2748 16.1175C14.2752 16.1175 14.2756 16.1175 14.276 16.1175C14.2764 16.1175 14.2768 16.1175 14.2772 16.1175C14.2776 16.1175 14.2781 16.1175 14.2785 16.1175C14.2789 16.1175 14.2793 16.1175 14.2797 16.1175C14.2801 16.1175 14.2805 16.1175 14.2809 16.1175C14.2813 16.1175 14.2817 16.1175 14.2821 16.1175C14.2825 16.1175 14.2829 16.1175 14.2833 16.1175C14.2837 16.1175 14.2841 16.1175 14.2846 16.1175C14.285 16.1175 14.2854 16.1175 14.2858 16.1175C14.2862 16.1175 14.2866 16.1175 14.287 16.1175C14.2874 16.1175 14.2878 16.1175 14.2882 16.1175C14.2886 16.1175 14.289 16.1175 14.2894 16.1175C14.2898 16.1175 14.2902 16.1175 14.2906 16.1175C14.291 16.1175 14.2914 16.1175 14.2918 16.1175C14.2922 16.1175 14.2926 16.1175 14.293 16.1175C14.2934 16.1175 14.2938 16.1175 14.2942 16.1175C14.2946 16.1175 14.295 16.1175 14.2954 16.1175C14.2958 16.1175 14.2962 16.1175 14.2966 16.1175C14.297 16.1175 14.2973 16.1175 14.2977 16.1175C14.2981 16.1175 14.2985 16.1175 14.2989 16.1175C14.2993 16.1175 14.2997 16.1175 14.3001 16.1175C14.3005 16.1175 14.3009 16.1175 14.3013 16.1175C14.3017 16.1175 14.3021 16.1175 14.3025 16.1175C14.3029 16.1175 14.3032 16.1175 14.3036 16.1175C14.304 16.1175 14.3044 16.1175 14.3048 16.1175C14.3052 16.1175 14.3056 16.1175 14.306 16.1175C14.3064 16.1175 14.3068 16.1175 14.3071 16.1175C14.3075 16.1175 14.3079 16.1175 14.3083 16.1175C14.3087 16.1175 14.3091 16.1175 14.3095 16.1175C14.3099 16.1175 14.3102 16.1175 14.3106 16.1175C14.311 16.1175 14.3114 16.1175 14.3118 16.1175C14.3122 16.1175 14.3126 16.1175 14.3129 16.1175C14.3133 16.1175 14.3137 16.1175 14.3141 16.1175C14.3145 16.1175 14.3149 16.1175 14.3152 16.1175C14.3156 16.1175 14.316 16.1175 14.3164 16.1175C14.3168 16.1175 14.3171 16.1175 14.3175 16.1175C14.3179 16.1175 14.3183 16.1175 14.3187 16.1175C14.319 16.1175 14.3194 16.1175 14.3198 16.1175C14.3202 16.1175 14.3206 16.1175 14.3209 16.1175C14.3213 16.1175 14.3217 16.1175 14.3221 16.1175C14.3224 16.1175 14.3228 16.1175 14.3232 16.1175C14.3236 16.1175 14.324 16.1175 14.3243 16.1175C14.3247 16.1175 14.3251 16.1175 14.3255 16.1175C14.3258 16.1175 14.3262 16.1175 14.3266 16.1175C14.3269 16.1175 14.3273 16.1175 14.3277 16.1175C14.3281 16.1175 14.3284 16.1175 14.3288 16.1175C14.3292 16.1175 14.3296 16.1175 14.3299 16.1175C14.3303 16.1175 14.3307 16.1175 14.331 16.1175C14.3314 16.1175 14.3318 16.1175 14.3321 16.1175C14.3325 16.1175 14.3329 16.1175 14.3332 16.1175C14.3336 16.1175 14.334 16.1175 14.3343 16.1175C14.3347 16.1175 14.3351 16.1175 14.3354 16.1175C14.3358 16.1175 14.3362 16.1175 14.3365 16.1175C14.3369 16.1175 14.3373 16.1175 14.3376 16.1175C14.338 16.1175 14.3384 16.1175 14.3387 16.1175C14.3391 16.1175 14.3395 16.1175 14.3398 16.1175C14.3402 16.1175 14.3405 16.1175 14.3409 16.1175C14.3413 16.1175 14.3416 16.1175 14.342 16.1175C14.3424 16.1175 14.3427 16.1175 14.3431 16.1175C14.3434 16.1175 14.3438 16.1175 14.3441 16.1175C14.3445 16.1175 14.3449 16.1175 14.3452 16.1175C14.3456 16.1175 14.3459 16.1175 14.3463 16.1175C14.3467 16.1175 14.347 16.1175 14.3474 16.1175C14.3477 16.1175 14.3481 16.1175 14.3484 16.1175C14.3488 16.1175 14.3491 16.1175 14.3495 16.1175C14.3498 16.1175 14.3502 16.1175 14.3506 16.1175C14.3509 16.1175 14.3513 16.1175 14.3516 16.1175C14.352 16.1175 14.3523 16.1175 14.3527 16.1175C14.353 16.1175 14.3534 16.1175 14.3537 16.1175C14.3541 16.1175 14.3544 16.1175 14.3548 16.1175C14.3551 16.1175 14.3555 16.1175 14.3558 16.1175C14.3562 16.1175 14.3565 16.1175 14.3569 16.1175C14.3572 16.1175 14.3575 16.1175 14.3579 16.1175C14.3582 16.1175 14.3586 16.1175 14.3589 16.1175C14.3593 16.1175 14.3596 16.1175 14.36 16.1175C14.3603 16.1175 14.3606 16.1175 14.361 16.1175C14.3613 16.1175 14.3617 16.1175 14.362 16.1175C14.3624 16.1175 14.3627 16.1175 14.363 16.1175C14.3634 16.1175 14.3637 16.1175 14.3641 16.1175C14.3644 16.1175 14.3647 16.1175 14.3651 16.1175C14.3654 16.1175 14.3658 16.1175 14.3661 16.1175C14.3664 16.1175 14.3668 16.1175 14.3671 16.1175C14.3675 16.1175 14.3678 16.1175 14.3681 16.1175C14.3685 16.1175 14.3688 16.1175 14.3691 16.1175C14.3695 16.1175 14.3698 16.1175 14.3701 16.1175C14.3705 16.1175 14.3708 16.1175 14.3711 16.1175C14.3715 16.1175 14.3718 16.1175 14.3721 16.1175C14.3725 16.1175 14.3728 16.1175 14.3731 16.1175C14.3735 16.1175 14.3738 16.1175 14.3741 16.1175C14.3744 16.1175 14.3748 16.1175 14.3751 16.1175C14.3754 16.1175 14.3758 16.1175 14.3761 16.1175C14.3764 16.1175 14.3767 16.1175 14.3771 16.1175C14.3774 16.1175 14.3777 16.1175 14.378 16.1175C14.3784 16.1175 14.3787 16.1175 14.379 16.1175C14.3794 16.1175 14.3797 16.1175 14.38 16.1175C14.3803 16.1175 14.3806 16.1175 14.381 16.1175C14.3813 16.1175 14.3816 16.1175 14.3819 16.1175C14.3823 16.1175 14.3826 16.1175 14.3829 16.1175C14.3832 16.1175 14.3835 16.1175 14.3839 16.1175C14.3842 16.1175 14.3845 16.1175 14.3848 16.1175C14.3851 16.1175 14.3854 16.1175 14.3858 16.1175C14.3861 16.1175 14.3864 16.1175 14.3867 16.1175C14.387 16.1175 14.3873 16.1175 14.3877 16.1175C14.388 16.1175 14.3883 16.1175 14.3886 16.1175C14.3889 16.1175 14.3892 16.1175 14.3895 16.1175C14.3899 16.1175 14.3902 16.1175 14.3905 16.1175C14.3908 16.1175 14.3911 16.1175 14.3914 16.1175C14.3917 16.1175 14.392 16.1175 14.3924 16.1175C14.3927 16.1175 14.393 16.1175 14.3933 16.1175C14.3936 16.1175 14.3939 16.1175 14.3942 16.1175C14.3945 16.1175 14.3948 16.1175 14.3951 16.1175C14.3954 16.1175 14.3957 16.1175 14.396 16.1175C14.3963 16.1175 14.3967 16.1175 14.397 16.1175C14.3973 16.1175 14.3976 16.1175 14.3979 16.1175C14.3982 16.1175 14.3985 16.1175 14.3988 16.1175C14.3991 16.1175 14.3994 16.1175 14.3997 16.1175C14.4 16.1175 14.4003 16.1175 14.4006 16.1175C14.4009 16.1175 14.4012 16.1175 14.4015 16.1175C14.4018 16.1175 14.4021 16.1175 14.4024 16.1175C14.4027 16.1175 14.403 16.1175 14.4033 16.1175C14.4036 16.1175 14.4039 16.1175 14.4042 16.1175C14.4044 16.1175 14.4047 16.1175 14.405 16.1175C14.4053 16.1175 14.4056 16.1175 14.4059 16.1175C14.4062 16.1175 14.4065 16.1175 14.4068 16.1175C14.4071 16.1175 14.4074 16.1175 14.4077 16.1175C14.408 16.1175 14.4082 16.1175 14.4085 16.1175C14.4088 16.1175 14.4091 16.1175 14.4094 16.1175C14.4097 16.1175 14.41 16.1175 14.4103 16.1175C14.4106 16.1175 14.4108 16.1175 14.4111 16.1175C14.4114 16.1175 14.4117 16.1175 14.412 16.1175C14.4123 16.1175 14.4126 16.1175 14.4128 16.1175C14.4131 16.1175 14.4134 16.1175 14.4137 16.1175C14.414 16.1175 14.4143 16.1175 14.4145 16.1175C14.4148 16.1175 14.4151 16.1175 14.4154 16.1175C14.4157 16.1175 14.4159 16.1175 14.4162 16.1175C14.4165 16.1175 14.4168 16.1175 14.4171 16.1175C14.4173 16.1175 14.4176 16.1175 14.4179 16.1175C14.4182 16.1175 14.4184 16.1175 14.4187 16.1175C14.419 16.1175 14.4193 16.1175 14.4195 16.1175C14.4198 16.1175 14.4201 16.1175 14.4204 16.1175C14.4206 16.1175 14.4209 16.1175 14.4212 16.1175C14.4215 16.1175 14.4217 16.1175 14.422 16.1175C14.4223 16.1175 14.4225 16.1175 14.4228 16.1175C14.4231 16.1175 14.4233 16.1175 14.4236 16.1175C14.4239 16.1175 14.4242 16.1175 14.4244 16.1175C14.4247 16.1175 14.425 16.1175 14.4252 16.1175C14.4255 16.1175 14.4258 16.1175 14.426 16.1175C14.4263 16.1175 14.4265 16.1175 14.4268 16.1175C14.4271 16.1175 14.4273 16.1175 14.4276 16.1175C14.4279 16.1175 14.4281 16.1175 14.4284 16.1175C14.4286 16.1175 14.4289 16.1175 14.4292 16.1175C14.4294 16.1175 14.4297 16.1175 14.4299 16.1175C14.4302 16.1175 14.4305 16.1175 14.4307 16.1175C14.431 16.1175 14.4312 16.1175 14.4315 16.1175C14.4318 16.1175 14.432 16.1175 14.4323 16.1175C14.4325 16.1175 14.4328 16.1175 14.433 16.1175C14.4333 16.1175 14.4335 16.1175 14.4338 16.1175C14.434 16.1175 14.4343 16.1175 14.4345 16.1175C14.4348 16.1175 14.435 16.1175 14.4353 16.1175C14.4355 16.1175 14.4358 16.1175 14.436 16.1175C14.4363 16.1175 14.4365 16.1175 14.4368 16.1175C14.437 16.1175 14.4373 16.1175 14.4375 16.1175C14.4378 16.1175 14.438 16.1175 14.4383 16.1175C14.4385 16.1175 14.4388 16.1175 14.439 16.1175C14.4392 16.1175 14.4395 16.1175 14.4397 16.1175C14.44 16.1175 14.4402 16.1175 14.4405 16.1175C14.4407 16.1175 14.4409 16.1175 14.4412 16.1175C14.4414 16.1175 14.4417 16.1175 14.4419 16.1175C14.4421 16.1175 14.4424 16.1175 14.4426 16.1175C14.4429 16.1175 14.4431 16.1175 14.4433 16.1175C14.4436 16.1175 14.4438 16.1175 14.444 16.1175C14.4443 16.1175 14.4445 16.1175 14.4447 16.1175C14.445 16.1175 14.4452 16.1175 14.4454 16.1175C14.4457 16.1175 14.4459 16.1175 14.4461 16.1175C14.4464 16.1175 14.4466 16.1175 14.4468 16.1175C14.4471 16.1175 14.4473 16.1175 14.4475 16.1175C14.4478 16.1175 14.448 16.1175 14.4482 16.1175C14.4484 16.1175 14.4487 16.1175 14.4489 16.1175C14.4491 16.1175 14.4493 16.1175 14.4496 16.1175C14.4498 16.1175 14.45 16.1175 14.4502 16.1175C14.4505 16.1175 14.4507 16.1175 14.4509 16.1175C14.4511 16.1175 14.4514 16.1175 14.4516 16.1175C14.4518 16.1175 14.452 16.1175 14.4522 16.1175C14.4525 16.1175 14.4527 16.1175 14.4529 16.1175C14.4531 16.1175 14.4533 16.1175 14.4535 16.1175C14.4538 16.1175 14.454 16.1175 14.4542 16.1175C14.4544 16.1175 14.4546 16.1175 14.4548 16.1175C14.4551 16.1175 14.4553 16.1175 14.4555 16.1175C14.4557 16.1175 14.4559 16.1175 14.4561 16.1175V15.5175C14.4559 15.5175 14.4557 15.5175 14.4555 15.5175C14.4553 15.5175 14.4551 15.5175 14.4548 15.5175C14.4546 15.5175 14.4544 15.5175 14.4542 15.5175C14.454 15.5175 14.4538 15.5175 14.4535 15.5175C14.4533 15.5175 14.4531 15.5175 14.4529 15.5175C14.4527 15.5175 14.4525 15.5175 14.4522 15.5175C14.452 15.5175 14.4518 15.5175 14.4516 15.5175C14.4514 15.5175 14.4511 15.5175 14.4509 15.5175C14.4507 15.5175 14.4505 15.5175 14.4502 15.5175C14.45 15.5175 14.4498 15.5175 14.4496 15.5175C14.4493 15.5175 14.4491 15.5175 14.4489 15.5175C14.4487 15.5175 14.4484 15.5175 14.4482 15.5175C14.448 15.5175 14.4478 15.5175 14.4475 15.5175C14.4473 15.5175 14.4471 15.5175 14.4468 15.5175C14.4466 15.5175 14.4464 15.5175 14.4461 15.5175C14.4459 15.5175 14.4457 15.5175 14.4454 15.5175C14.4452 15.5175 14.445 15.5175 14.4447 15.5175C14.4445 15.5175 14.4443 15.5175 14.444 15.5175C14.4438 15.5175 14.4436 15.5175 14.4433 15.5175C14.4431 15.5175 14.4429 15.5175 14.4426 15.5175C14.4424 15.5175 14.4421 15.5175 14.4419 15.5175C14.4417 15.5175 14.4414 15.5175 14.4412 15.5175C14.4409 15.5175 14.4407 15.5175 14.4405 15.5175C14.4402 15.5175 14.44 15.5175 14.4397 15.5175C14.4395 15.5175 14.4392 15.5175 14.439 15.5175C14.4388 15.5175 14.4385 15.5175 14.4383 15.5175C14.438 15.5175 14.4378 15.5175 14.4375 15.5175C14.4373 15.5175 14.437 15.5175 14.4368 15.5175C14.4365 15.5175 14.4363 15.5175 14.436 15.5175C14.4358 15.5175 14.4355 15.5175 14.4353 15.5175C14.435 15.5175 14.4348 15.5175 14.4345 15.5175C14.4343 15.5175 14.434 15.5175 14.4338 15.5175C14.4335 15.5175 14.4333 15.5175 14.433 15.5175C14.4328 15.5175 14.4325 15.5175 14.4323 15.5175C14.432 15.5175 14.4318 15.5175 14.4315 15.5175C14.4312 15.5175 14.431 15.5175 14.4307 15.5175C14.4305 15.5175 14.4302 15.5175 14.4299 15.5175C14.4297 15.5175 14.4294 15.5175 14.4292 15.5175C14.4289 15.5175 14.4286 15.5175 14.4284 15.5175C14.4281 15.5175 14.4279 15.5175 14.4276 15.5175C14.4273 15.5175 14.4271 15.5175 14.4268 15.5175C14.4265 15.5175 14.4263 15.5175 14.426 15.5175C14.4258 15.5175 14.4255 15.5175 14.4252 15.5175C14.425 15.5175 14.4247 15.5175 14.4244 15.5175C14.4242 15.5175 14.4239 15.5175 14.4236 15.5175C14.4233 15.5175 14.4231 15.5175 14.4228 15.5175C14.4225 15.5175 14.4223 15.5175 14.422 15.5175C14.4217 15.5175 14.4215 15.5175 14.4212 15.5175C14.4209 15.5175 14.4206 15.5175 14.4204 15.5175C14.4201 15.5175 14.4198 15.5175 14.4195 15.5175C14.4193 15.5175 14.419 15.5175 14.4187 15.5175C14.4184 15.5175 14.4182 15.5175 14.4179 15.5175C14.4176 15.5175 14.4173 15.5175 14.4171 15.5175C14.4168 15.5175 14.4165 15.5175 14.4162 15.5175C14.4159 15.5175 14.4157 15.5175 14.4154 15.5175C14.4151 15.5175 14.4148 15.5175 14.4145 15.5175C14.4143 15.5175 14.414 15.5175 14.4137 15.5175C14.4134 15.5175 14.4131 15.5175 14.4128 15.5175C14.4126 15.5175 14.4123 15.5175 14.412 15.5175C14.4117 15.5175 14.4114 15.5175 14.4111 15.5175C14.4108 15.5175 14.4106 15.5175 14.4103 15.5175C14.41 15.5175 14.4097 15.5175 14.4094 15.5175C14.4091 15.5175 14.4088 15.5175 14.4085 15.5175C14.4082 15.5175 14.408 15.5175 14.4077 15.5175C14.4074 15.5175 14.4071 15.5175 14.4068 15.5175C14.4065 15.5175 14.4062 15.5175 14.4059 15.5175C14.4056 15.5175 14.4053 15.5175 14.405 15.5175C14.4047 15.5175 14.4044 15.5175 14.4042 15.5175C14.4039 15.5175 14.4036 15.5175 14.4033 15.5175C14.403 15.5175 14.4027 15.5175 14.4024 15.5175C14.4021 15.5175 14.4018 15.5175 14.4015 15.5175C14.4012 15.5175 14.4009 15.5175 14.4006 15.5175C14.4003 15.5175 14.4 15.5175 14.3997 15.5175C14.3994 15.5175 14.3991 15.5175 14.3988 15.5175C14.3985 15.5175 14.3982 15.5175 14.3979 15.5175C14.3976 15.5175 14.3973 15.5175 14.397 15.5175C14.3967 15.5175 14.3963 15.5175 14.396 15.5175C14.3957 15.5175 14.3954 15.5175 14.3951 15.5175C14.3948 15.5175 14.3945 15.5175 14.3942 15.5175C14.3939 15.5175 14.3936 15.5175 14.3933 15.5175C14.393 15.5175 14.3927 15.5175 14.3924 15.5175C14.392 15.5175 14.3917 15.5175 14.3914 15.5175C14.3911 15.5175 14.3908 15.5175 14.3905 15.5175C14.3902 15.5175 14.3899 15.5175 14.3895 15.5175C14.3892 15.5175 14.3889 15.5175 14.3886 15.5175C14.3883 15.5175 14.388 15.5175 14.3877 15.5175C14.3873 15.5175 14.387 15.5175 14.3867 15.5175C14.3864 15.5175 14.3861 15.5175 14.3858 15.5175C14.3854 15.5175 14.3851 15.5175 14.3848 15.5175C14.3845 15.5175 14.3842 15.5175 14.3839 15.5175C14.3835 15.5175 14.3832 15.5175 14.3829 15.5175C14.3826 15.5175 14.3823 15.5175 14.3819 15.5175C14.3816 15.5175 14.3813 15.5175 14.381 15.5175C14.3806 15.5175 14.3803 15.5175 14.38 15.5175C14.3797 15.5175 14.3794 15.5175 14.379 15.5175C14.3787 15.5175 14.3784 15.5175 14.378 15.5175C14.3777 15.5175 14.3774 15.5175 14.3771 15.5175C14.3767 15.5175 14.3764 15.5175 14.3761 15.5175C14.3758 15.5175 14.3754 15.5175 14.3751 15.5175C14.3748 15.5175 14.3744 15.5175 14.3741 15.5175C14.3738 15.5175 14.3735 15.5175 14.3731 15.5175C14.3728 15.5175 14.3725 15.5175 14.3721 15.5175C14.3718 15.5175 14.3715 15.5175 14.3711 15.5175C14.3708 15.5175 14.3705 15.5175 14.3701 15.5175C14.3698 15.5175 14.3695 15.5175 14.3691 15.5175C14.3688 15.5175 14.3685 15.5175 14.3681 15.5175C14.3678 15.5175 14.3675 15.5175 14.3671 15.5175C14.3668 15.5175 14.3664 15.5175 14.3661 15.5175C14.3658 15.5175 14.3654 15.5175 14.3651 15.5175C14.3647 15.5175 14.3644 15.5175 14.3641 15.5175C14.3637 15.5175 14.3634 15.5175 14.363 15.5175C14.3627 15.5175 14.3624 15.5175 14.362 15.5175C14.3617 15.5175 14.3613 15.5175 14.361 15.5175C14.3606 15.5175 14.3603 15.5175 14.36 15.5175C14.3596 15.5175 14.3593 15.5175 14.3589 15.5175C14.3586 15.5175 14.3582 15.5175 14.3579 15.5175C14.3575 15.5175 14.3572 15.5175 14.3569 15.5175C14.3565 15.5175 14.3562 15.5175 14.3558 15.5175C14.3555 15.5175 14.3551 15.5175 14.3548 15.5175C14.3544 15.5175 14.3541 15.5175 14.3537 15.5175C14.3534 15.5175 14.353 15.5175 14.3527 15.5175C14.3523 15.5175 14.352 15.5175 14.3516 15.5175C14.3513 15.5175 14.3509 15.5175 14.3506 15.5175C14.3502 15.5175 14.3498 15.5175 14.3495 15.5175C14.3491 15.5175 14.3488 15.5175 14.3484 15.5175C14.3481 15.5175 14.3477 15.5175 14.3474 15.5175C14.347 15.5175 14.3467 15.5175 14.3463 15.5175C14.3459 15.5175 14.3456 15.5175 14.3452 15.5175C14.3449 15.5175 14.3445 15.5175 14.3441 15.5175C14.3438 15.5175 14.3434 15.5175 14.3431 15.5175C14.3427 15.5175 14.3424 15.5175 14.342 15.5175C14.3416 15.5175 14.3413 15.5175 14.3409 15.5175C14.3405 15.5175 14.3402 15.5175 14.3398 15.5175C14.3395 15.5175 14.3391 15.5175 14.3387 15.5175C14.3384 15.5175 14.338 15.5175 14.3376 15.5175C14.3373 15.5175 14.3369 15.5175 14.3365 15.5175C14.3362 15.5175 14.3358 15.5175 14.3354 15.5175C14.3351 15.5175 14.3347 15.5175 14.3343 15.5175C14.334 15.5175 14.3336 15.5175 14.3332 15.5175C14.3329 15.5175 14.3325 15.5175 14.3321 15.5175C14.3318 15.5175 14.3314 15.5175 14.331 15.5175C14.3307 15.5175 14.3303 15.5175 14.3299 15.5175C14.3296 15.5175 14.3292 15.5175 14.3288 15.5175C14.3284 15.5175 14.3281 15.5175 14.3277 15.5175C14.3273 15.5175 14.3269 15.5175 14.3266 15.5175C14.3262 15.5175 14.3258 15.5175 14.3255 15.5175C14.3251 15.5175 14.3247 15.5175 14.3243 15.5175C14.324 15.5175 14.3236 15.5175 14.3232 15.5175C14.3228 15.5175 14.3224 15.5175 14.3221 15.5175C14.3217 15.5175 14.3213 15.5175 14.3209 15.5175C14.3206 15.5175 14.3202 15.5175 14.3198 15.5175C14.3194 15.5175 14.319 15.5175 14.3187 15.5175C14.3183 15.5175 14.3179 15.5175 14.3175 15.5175C14.3171 15.5175 14.3168 15.5175 14.3164 15.5175C14.316 15.5175 14.3156 15.5175 14.3152 15.5175C14.3149 15.5175 14.3145 15.5175 14.3141 15.5175C14.3137 15.5175 14.3133 15.5175 14.3129 15.5175C14.3126 15.5175 14.3122 15.5175 14.3118 15.5175C14.3114 15.5175 14.311 15.5175 14.3106 15.5175C14.3102 15.5175 14.3099 15.5175 14.3095 15.5175C14.3091 15.5175 14.3087 15.5175 14.3083 15.5175C14.3079 15.5175 14.3075 15.5175 14.3071 15.5175C14.3068 15.5175 14.3064 15.5175 14.306 15.5175C14.3056 15.5175 14.3052 15.5175 14.3048 15.5175C14.3044 15.5175 14.304 15.5175 14.3036 15.5175C14.3032 15.5175 14.3029 15.5175 14.3025 15.5175C14.3021 15.5175 14.3017 15.5175 14.3013 15.5175C14.3009 15.5175 14.3005 15.5175 14.3001 15.5175C14.2997 15.5175 14.2993 15.5175 14.2989 15.5175C14.2985 15.5175 14.2981 15.5175 14.2977 15.5175C14.2973 15.5175 14.297 15.5175 14.2966 15.5175C14.2962 15.5175 14.2958 15.5175 14.2954 15.5175C14.295 15.5175 14.2946 15.5175 14.2942 15.5175C14.2938 15.5175 14.2934 15.5175 14.293 15.5175C14.2926 15.5175 14.2922 15.5175 14.2918 15.5175C14.2914 15.5175 14.291 15.5175 14.2906 15.5175C14.2902 15.5175 14.2898 15.5175 14.2894 15.5175C14.289 15.5175 14.2886 15.5175 14.2882 15.5175C14.2878 15.5175 14.2874 15.5175 14.287 15.5175C14.2866 15.5175 14.2862 15.5175 14.2858 15.5175C14.2854 15.5175 14.285 15.5175 14.2846 15.5175C14.2841 15.5175 14.2837 15.5175 14.2833 15.5175C14.2829 15.5175 14.2825 15.5175 14.2821 15.5175C14.2817 15.5175 14.2813 15.5175 14.2809 15.5175C14.2805 15.5175 14.2801 15.5175 14.2797 15.5175C14.2793 15.5175 14.2789 15.5175 14.2785 15.5175C14.2781 15.5175 14.2776 15.5175 14.2772 15.5175C14.2768 15.5175 14.2764 15.5175 14.276 15.5175C14.2756 15.5175 14.2752 15.5175 14.2748 15.5175C14.2744 15.5175 14.274 15.5175 14.2735 15.5175C14.2731 15.5175 14.2727 15.5175 14.2723 15.5175C14.2719 15.5175 14.2715 15.5175 14.2711 15.5175C14.2707 15.5175 14.2703 15.5175 14.2698 15.5175C14.2694 15.5175 14.269 15.5175 14.2686 15.5175C14.2682 15.5175 14.2678 15.5175 14.2674 15.5175C14.2669 15.5175 14.2665 15.5175 14.2661 15.5175C14.2657 15.5175 14.2653 15.5175 14.2649 15.5175C14.2644 15.5175 14.264 15.5175 14.2636 15.5175C14.2632 15.5175 14.2628 15.5175 14.2624 15.5175C14.2619 15.5175 14.2615 15.5175 14.2611 15.5175C14.2607 15.5175 14.2603 15.5175 14.2598 15.5175C14.2594 15.5175 14.259 15.5175 14.2586 15.5175C14.2582 15.5175 14.2577 15.5175 14.2573 15.5175C14.2569 15.5175 14.2565 15.5175 14.2561 15.5175C14.2556 15.5175 14.2552 15.5175 14.2548 15.5175C14.2544 15.5175 14.2539 15.5175 14.2535 15.5175C14.2531 15.5175 14.2527 15.5175 14.2523 15.5175C14.2518 15.5175 14.2514 15.5175 14.251 15.5175C14.2506 15.5175 14.2501 15.5175 14.2497 15.5175C14.2493 15.5175 14.2489 15.5175 14.2484 15.5175C14.248 15.5175 14.2476 15.5175 14.2471 15.5175C14.2467 15.5175 14.2463 15.5175 14.2459 15.5175C14.2454 15.5175 14.245 15.5175 14.2446 15.5175C14.2442 15.5175 14.2437 15.5175 14.2433 15.5175C14.2429 15.5175 14.2424 15.5175 14.242 15.5175C14.2416 15.5175 14.2412 15.5175 14.2407 15.5175C14.2403 15.5175 14.2399 15.5175 14.2394 15.5175C14.239 15.5175 14.2386 15.5175 14.2381 15.5175C14.2377 15.5175 14.2373 15.5175 14.2368 15.5175C14.2364 15.5175 14.236 15.5175 14.2355 15.5175C14.2351 15.5175 14.2347 15.5175 14.2342 15.5175C14.2338 15.5175 14.2334 15.5175 14.2329 15.5175C14.2325 15.5175 14.2321 15.5175 14.2316 15.5175C14.2312 15.5175 14.2308 15.5175 14.2303 15.5175C14.2299 15.5175 14.2295 15.5175 14.229 15.5175C14.2286 15.5175 14.2281 15.5175 14.2277 15.5175C14.2273 15.5175 14.2268 15.5175 14.2264 15.5175C14.226 15.5175 14.2255 15.5175 14.2251 15.5175C14.2246 15.5175 14.2242 15.5175 14.2238 15.5175C14.2233 15.5175 14.2229 15.5175 14.2225 15.5175C14.222 15.5175 14.2216 15.5175 14.2211 15.5175C14.2207 15.5175 14.2203 15.5175 14.2198 15.5175C14.2194 15.5175 14.2189 15.5175 14.2185 15.5175C14.218 15.5175 14.2176 15.5175 14.2172 15.5175C14.2167 15.5175 14.2163 15.5175 14.2158 15.5175C14.2154 15.5175 14.2149 15.5175 14.2145 15.5175C14.2141 15.5175 14.2136 15.5175 14.2132 15.5175C14.2127 15.5175 14.2123 15.5175 14.2118 15.5175C14.2114 15.5175 14.2109 15.5175 14.2105 15.5175C14.2101 15.5175 14.2096 15.5175 14.2092 15.5175C14.2087 15.5175 14.2083 15.5175 14.2078 15.5175C14.2074 15.5175 14.2069 15.5175 14.2065 15.5175C14.206 15.5175 14.2056 15.5175 14.2051 15.5175C14.2047 15.5175 14.2042 15.5175 14.2038 15.5175C14.2033 15.5175 14.2029 15.5175 14.2024 15.5175C14.202 15.5175 14.2016 15.5175 14.2011 15.5175C14.2007 15.5175 14.2002 15.5175 14.1998 15.5175C14.1993 15.5175 14.1989 15.5175 14.1984 15.5175C14.1979 15.5175 14.1975 15.5175 14.197 15.5175C14.1966 15.5175 14.1961 15.5175 14.1957 15.5175C14.1952 15.5175 14.1948 15.5175 14.1943 15.5175C14.1939 15.5175 14.1934 15.5175 14.193 15.5175C14.1925 15.5175 14.1921 15.5175 14.1916 15.5175C14.1912 15.5175 14.1907 15.5175 14.1902 15.5175C14.1898 15.5175 14.1893 15.5175 14.1889 15.5175C14.1884 15.5175 14.188 15.5175 14.1875 15.5175C14.1871 15.5175 14.1866 15.5175 14.1862 15.5175C14.1857 15.5175 14.1852 15.5175 14.1848 15.5175C14.1843 15.5175 14.1839 15.5175 14.1834 15.5175C14.183 15.5175 14.1825 15.5175 14.182 15.5175C14.1816 15.5175 14.1811 15.5175 14.1807 15.5175C14.1802 15.5175 14.1797 15.5175 14.1793 15.5175C14.1788 15.5175 14.1784 15.5175 14.1779 15.5175C14.1774 15.5175 14.177 15.5175 14.1765 15.5175C14.1761 15.5175 14.1756 15.5175 14.1751 15.5175C14.1747 15.5175 14.1742 15.5175 14.1738 15.5175C14.1733 15.5175 14.1728 15.5175 14.1724 15.5175C14.1719 15.5175 14.1715 15.5175 14.171 15.5175C14.1705 15.5175 14.1701 15.5175 14.1696 15.5175C14.1691 15.5175 14.1687 15.5175 14.1682 15.5175C14.1677 15.5175 14.1673 15.5175 14.1668 15.5175C14.1664 15.5175 14.1659 15.5175 14.1654 15.5175C14.165 15.5175 14.1645 15.5175 14.164 15.5175C14.1636 15.5175 14.1631 15.5175 14.1626 15.5175C14.1622 15.5175 14.1617 15.5175 14.1612 15.5175C14.1608 15.5175 14.1603 15.5175 14.1598 15.5175C14.1594 15.5175 14.1589 15.5175 14.1584 15.5175C14.158 15.5175 14.1575 15.5175 14.157 15.5175C14.1566 15.5175 14.1561 15.5175 14.1556 15.5175C14.1552 15.5175 14.1547 15.5175 14.1542 15.5175C14.1538 15.5175 14.1533 15.5175 14.1528 15.5175C14.1523 15.5175 14.1519 15.5175 14.1514 15.5175C14.1509 15.5175 14.1505 15.5175 14.15 15.5175C14.1495 15.5175 14.1491 15.5175 14.1486 15.5175C14.1481 15.5175 14.1476 15.5175 14.1472 15.5175C14.1467 15.5175 14.1462 15.5175 14.1458 15.5175C14.1453 15.5175 14.1448 15.5175 14.1443 15.5175C14.1439 15.5175 14.1434 15.5175 14.1429 15.5175C14.1425 15.5175 14.142 15.5175 14.1415 15.5175C14.141 15.5175 14.1406 15.5175 14.1401 15.5175C14.1396 15.5175 14.1391 15.5175 14.1387 15.5175C14.1382 15.5175 14.1377 15.5175 14.1372 15.5175C14.1368 15.5175 14.1363 15.5175 14.1358 15.5175C14.1353 15.5175 14.1349 15.5175 14.1344 15.5175C14.1339 15.5175 14.1334 15.5175 14.133 15.5175C14.1325 15.5175 14.132 15.5175 14.1315 15.5175C14.1311 15.5175 14.1306 15.5175 14.1301 15.5175C14.1296 15.5175 14.1291 15.5175 14.1287 15.5175C14.1282 15.5175 14.1277 15.5175 14.1272 15.5175C14.1268 15.5175 14.1263 15.5175 14.1258 15.5175C14.1253 15.5175 14.1248 15.5175 14.1244 15.5175C14.1239 15.5175 14.1234 15.5175 14.1229 15.5175C14.1225 15.5175 14.122 15.5175 14.1215 15.5175C14.121 15.5175 14.1205 15.5175 14.1201 15.5175C14.1196 15.5175 14.1191 15.5175 14.1186 15.5175C14.1181 15.5175 14.1176 15.5175 14.1172 15.5175C14.1167 15.5175 14.1162 15.5175 14.1157 15.5175C14.1152 15.5175 14.1148 15.5175 14.1143 15.5175C14.1138 15.5175 14.1133 15.5175 14.1128 15.5175C14.1123 15.5175 14.1119 15.5175 14.1114 15.5175C14.1109 15.5175 14.1104 15.5175 14.1099 15.5175C14.1095 15.5175 14.109 15.5175 14.1085 15.5175C14.108 15.5175 14.1075 15.5175 14.107 15.5175C14.1065 15.5175 14.1061 15.5175 14.1056 15.5175C14.1051 15.5175 14.1046 15.5175 14.1041 15.5175C14.1036 15.5175 14.1032 15.5175 14.1027 15.5175C14.1022 15.5175 14.1017 15.5175 14.1012 15.5175C14.1007 15.5175 14.1002 15.5175 14.0998 15.5175C14.0993 15.5175 14.0988 15.5175 14.0983 15.5175C14.0978 15.5175 14.0973 15.5175 14.0968 15.5175C14.0964 15.5175 14.0959 15.5175 14.0954 15.5175C14.0949 15.5175 14.0944 15.5175 14.0939 15.5175C14.0934 15.5175 14.0929 15.5175 14.0925 15.5175C14.092 15.5175 14.0915 15.5175 14.091 15.5175C14.0905 15.5175 14.09 15.5175 14.0895 15.5175C14.089 15.5175 14.0885 15.5175 14.0881 15.5175C14.0876 15.5175 14.0871 15.5175 14.0866 15.5175C14.0861 15.5175 14.0856 15.5175 14.0851 15.5175C14.0846 15.5175 14.0841 15.5175 14.0836 15.5175C14.0832 15.5175 14.0827 15.5175 14.0822 15.5175C14.0817 15.5175 14.0812 15.5175 14.0807 15.5175C14.0802 15.5175 14.0797 15.5175 14.0792 15.5175C14.0787 15.5175 14.0782 15.5175 14.0778 15.5175C14.0773 15.5175 14.0768 15.5175 14.0763 15.5175C14.0758 15.5175 14.0753 15.5175 14.0748 15.5175C14.0743 15.5175 14.0738 15.5175 14.0733 15.5175C14.0728 15.5175 14.0723 15.5175 14.0718 15.5175C14.0714 15.5175 14.0709 15.5175 14.0704 15.5175C14.0699 15.5175 14.0694 15.5175 14.0689 15.5175C14.0684 15.5175 14.0679 15.5175 14.0674 15.5175C14.0669 15.5175 14.0664 15.5175 14.0659 15.5175C14.0654 15.5175 14.0649 15.5175 14.0644 15.5175C14.0639 15.5175 14.0634 15.5175 14.063 15.5175C14.0625 15.5175 14.062 15.5175 14.0615 15.5175C14.061 15.5175 14.0605 15.5175 14.06 15.5175C14.0595 15.5175 14.059 15.5175 14.0585 15.5175C14.058 15.5175 14.0575 15.5175 14.057 15.5175C14.0565 15.5175 14.056 15.5175 14.0555 15.5175C14.055 15.5175 14.0545 15.5175 14.054 15.5175C14.0535 15.5175 14.053 15.5175 14.0525 15.5175C14.052 15.5175 14.0515 15.5175 14.051 15.5175C14.0505 15.5175 14.05 15.5175 14.0495 15.5175C14.049 15.5175 14.0485 15.5175 14.048 15.5175C14.0476 15.5175 14.0471 15.5175 14.0466 15.5175C14.0461 15.5175 14.0456 15.5175 14.0451 15.5175C14.0446 15.5175 14.0441 15.5175 14.0436 15.5175C14.0431 15.5175 14.0426 15.5175 14.0421 15.5175C14.0416 15.5175 14.0411 15.5175 14.0406 15.5175C14.0401 15.5175 14.0396 15.5175 14.0391 15.5175C14.0386 15.5175 14.0381 15.5175 14.0376 15.5175C14.0371 15.5175 14.0366 15.5175 14.0361 15.5175C14.0356 15.5175 14.0351 15.5175 14.0346 15.5175C14.0341 15.5175 14.0336 15.5175 14.0331 15.5175C14.0326 15.5175 14.0321 15.5175 14.0316 15.5175C14.0311 15.5175 14.0306 15.5175 14.0301 15.5175C14.0295 15.5175 14.029 15.5175 14.0285 15.5175C14.028 15.5175 14.0275 15.5175 14.027 15.5175C14.0265 15.5175 14.026 15.5175 14.0255 15.5175C14.025 15.5175 14.0245 15.5175 14.024 15.5175C14.0235 15.5175 14.023 15.5175 14.0225 15.5175C14.022 15.5175 14.0215 15.5175 14.021 15.5175C14.0205 15.5175 14.02 15.5175 14.0195 15.5175C14.019 15.5175 14.0185 15.5175 14.018 15.5175C14.0175 15.5175 14.017 15.5175 14.0165 15.5175C14.016 15.5175 14.0155 15.5175 14.015 15.5175C14.0145 15.5175 14.014 15.5175 14.0135 15.5175C14.0129 15.5175 14.0124 15.5175 14.0119 15.5175C14.0114 15.5175 14.0109 15.5175 14.0104 15.5175C14.0099 15.5175 14.0094 15.5175 14.0089 15.5175C14.0084 15.5175 14.0079 15.5175 14.0074 15.5175C14.0069 15.5175 14.0064 15.5175 14.0059 15.5175C14.0054 15.5175 14.0049 15.5175 14.0044 15.5175C14.0039 15.5175 14.0034 15.5175 14.0028 15.5175C14.0023 15.5175 14.0018 15.5175 14.0013 15.5175C14.0008 15.5175 14.0003 15.5175 13.9998 15.5175C13.9993 15.5175 13.9988 15.5175 13.9983 15.5175C13.9978 15.5175 13.9973 15.5175 13.9968 15.5175C13.9963 15.5175 13.9958 15.5175 13.9952 15.5175C13.9947 15.5175 13.9942 15.5175 13.9937 15.5175C13.9932 15.5175 13.9927 15.5175 13.9922 15.5175C13.9917 15.5175 13.9912 15.5175 13.9907 15.5175C13.9902 15.5175 13.9897 15.5175 13.9892 15.5175C13.9887 15.5175 13.9881 15.5175 13.9876 15.5175C13.9871 15.5175 13.9866 15.5175 13.9861 15.5175C13.9856 15.5175 13.9851 15.5175 13.9846 15.5175C13.9841 15.5175 13.9836 15.5175 13.9831 15.5175C13.9826 15.5175 13.982 15.5175 13.9815 15.5175C13.981 15.5175 13.9805 15.5175 13.98 15.5175C13.9795 15.5175 13.979 15.5175 13.9785 15.5175C13.978 15.5175 13.9775 15.5175 13.977 15.5175C13.9765 15.5175 13.9759 15.5175 13.9754 15.5175C13.9749 15.5175 13.9744 15.5175 13.9739 15.5175C13.9734 15.5175 13.9729 15.5175 13.9724 15.5175C13.9719 15.5175 13.9714 15.5175 13.9708 15.5175C13.9703 15.5175 13.9698 15.5175 13.9693 15.5175C13.9688 15.5175 13.9683 15.5175 13.9678 15.5175C13.9673 15.5175 13.9668 15.5175 13.9663 15.5175C13.9658 15.5175 13.9652 15.5175 13.9647 15.5175C13.9642 15.5175 13.9637 15.5175 13.9632 15.5175C13.9627 15.5175 13.9622 15.5175 13.9617 15.5175C13.9612 15.5175 13.9606 15.5175 13.9601 15.5175C13.9596 15.5175 13.9591 15.5175 13.9586 15.5175C13.9581 15.5175 13.9576 15.5175 13.9571 15.5175C13.9566 15.5175 13.9561 15.5175 13.9555 15.5175C13.955 15.5175 13.9545 15.5175 13.954 15.5175C13.9535 15.5175 13.953 15.5175 13.9525 15.5175C13.952 15.5175 13.9515 15.5175 13.9509 15.5175C13.9504 15.5175 13.9499 15.5175 13.9494 15.5175C13.9489 15.5175 13.9484 15.5175 13.9479 15.5175C13.9474 15.5175 13.9468 15.5175 13.9463 15.5175C13.9458 15.5175 13.9453 15.5175 13.9448 15.5175C13.9443 15.5175 13.9438 15.5175 13.9433 15.5175C13.9428 15.5175 13.9422 15.5175 13.9417 15.5175C13.9412 15.5175 13.9407 15.5175 13.9402 15.5175C13.9397 15.5175 13.9392 15.5175 13.9387 15.5175C13.9381 15.5175 13.9376 15.5175 13.9371 15.5175C13.9366 15.5175 13.9361 15.5175 13.9356 15.5175C13.9351 15.5175 13.9346 15.5175 13.934 15.5175C13.9335 15.5175 13.933 15.5175 13.9325 15.5175C13.932 15.5175 13.9315 15.5175 13.931 15.5175C13.9305 15.5175 13.9299 15.5175 13.9294 15.5175C13.9289 15.5175 13.9284 15.5175 13.9279 15.5175C13.9274 15.5175 13.9269 15.5175 13.9264 15.5175C13.9258 15.5175 13.9253 15.5175 13.9248 15.5175C13.9243 15.5175 13.9238 15.5175 13.9233 15.5175C13.9228 15.5175 13.9223 15.5175 13.9217 15.5175C13.9212 15.5175 13.9207 15.5175 13.9202 15.5175C13.9197 15.5175 13.9192 15.5175 13.9187 15.5175C13.9182 15.5175 13.9176 15.5175 13.9171 15.5175C13.9166 15.5175 13.9161 15.5175 13.9156 15.5175C13.9151 15.5175 13.9146 15.5175 13.914 15.5175C13.9135 15.5175 13.913 15.5175 13.9125 15.5175C13.912 15.5175 13.9115 15.5175 13.911 15.5175C13.9105 15.5175 13.9099 15.5175 13.9094 15.5175C13.9089 15.5175 13.9084 15.5175 13.9079 15.5175C13.9074 15.5175 13.9069 15.5175 13.9064 15.5175C13.9058 15.5175 13.9053 15.5175 13.9048 15.5175C13.9043 15.5175 13.9038 15.5175 13.9033 15.5175C13.9028 15.5175 13.9022 15.5175 13.9017 15.5175C13.9012 15.5175 13.9007 15.5175 13.9002 15.5175C13.8997 15.5175 13.8992 15.5175 13.8987 15.5175C13.8981 15.5175 13.8976 15.5175 13.8971 15.5175C13.8966 15.5175 13.8961 15.5175 13.8956 15.5175C13.8951 15.5175 13.8945 15.5175 13.894 15.5175C13.8935 15.5175 13.893 15.5175 13.8925 15.5175C13.892 15.5175 13.8915 15.5175 13.8909 15.5175C13.8904 15.5175 13.8899 15.5175 13.8894 15.5175C13.8889 15.5175 13.8884 15.5175 13.8879 15.5175C13.8874 15.5175 13.8868 15.5175 13.8863 15.5175C13.8858 15.5175 13.8853 15.5175 13.8848 15.5175C13.8843 15.5175 13.8838 15.5175 13.8832 15.5175C13.8827 15.5175 13.8822 15.5175 13.8817 15.5175C13.8812 15.5175 13.8807 15.5175 13.8802 15.5175C13.8797 15.5175 13.8791 15.5175 13.8786 15.5175C13.8781 15.5175 13.8776 15.5175 13.8771 15.5175C13.8766 15.5175 13.8761 15.5175 13.8755 15.5175C13.875 15.5175 13.8745 15.5175 13.874 15.5175C13.8735 15.5175 13.873 15.5175 13.8725 15.5175C13.872 15.5175 13.8714 15.5175 13.8709 15.5175C13.8704 15.5175 13.8699 15.5175 13.8694 15.5175C13.8689 15.5175 13.8684 15.5175 13.8679 15.5175C13.8673 15.5175 13.8668 15.5175 13.8663 15.5175C13.8658 15.5175 13.8653 15.5175 13.8648 15.5175C13.8643 15.5175 13.8637 15.5175 13.8632 15.5175C13.8627 15.5175 13.8622 15.5175 13.8617 15.5175C13.8612 15.5175 13.8607 15.5175 13.8602 15.5175C13.8596 15.5175 13.8591 15.5175 13.8586 15.5175C13.8581 15.5175 13.8576 15.5175 13.8571 15.5175C13.8566 15.5175 13.8561 15.5175 13.8555 15.5175C13.855 15.5175 13.8545 15.5175 13.854 15.5175C13.8535 15.5175 13.853 15.5175 13.8525 15.5175C13.852 15.5175 13.8514 15.5175 13.8509 15.5175C13.8504 15.5175 13.8499 15.5175 13.8494 15.5175C13.8489 15.5175 13.8484 15.5175 13.8479 15.5175C13.8473 15.5175 13.8468 15.5175 13.8463 15.5175C13.8458 15.5175 13.8453 15.5175 13.8448 15.5175C13.8443 15.5175 13.8438 15.5175 13.8432 15.5175C13.8427 15.5175 13.8422 15.5175 13.8417 15.5175C13.8412 15.5175 13.8407 15.5175 13.8402 15.5175C13.8397 15.5175 13.8392 15.5175 13.8386 15.5175C13.8381 15.5175 13.8376 15.5175 13.8371 15.5175C13.8366 15.5175 13.8361 15.5175 13.8356 15.5175C13.8351 15.5175 13.8345 15.5175 13.834 15.5175C13.8335 15.5175 13.833 15.5175 13.8325 15.5175C13.832 15.5175 13.8315 15.5175 13.831 15.5175C13.8305 15.5175 13.8299 15.5175 13.8294 15.5175C13.8289 15.5175 13.8284 15.5175 13.8279 15.5175C13.8274 15.5175 13.8269 15.5175 13.8264 15.5175C13.8259 15.5175 13.8253 15.5175 13.8248 15.5175C13.8243 15.5175 13.8238 15.5175 13.8233 15.5175C13.8228 15.5175 13.8223 15.5175 13.8218 15.5175C13.8213 15.5175 13.8208 15.5175 13.8202 15.5175C13.8197 15.5175 13.8192 15.5175 13.8187 15.5175C13.8182 15.5175 13.8177 15.5175 13.8172 15.5175C13.8167 15.5175 13.8162 15.5175 13.8157 15.5175C13.8151 15.5175 13.8146 15.5175 13.8141 15.5175C13.8136 15.5175 13.8131 15.5175 13.8126 15.5175C13.8121 15.5175 13.8116 15.5175 13.8111 15.5175C13.8106 15.5175 13.8101 15.5175 13.8095 15.5175C13.809 15.5175 13.8085 15.5175 13.808 15.5175C13.8075 15.5175 13.807 15.5175 13.8065 15.5175C13.806 15.5175 13.8055 15.5175 13.805 15.5175V16.1175ZM14.4561 15.5175C13.9614 15.5175 13.6052 15.5215 13.3379 15.5116C13.0608 15.5013 12.9344 15.4763 12.8737 15.4479C12.8523 15.4379 12.8486 15.4317 12.848 15.4308C12.8455 15.4274 12.8357 15.4125 12.8263 15.3691C12.8043 15.2679 12.8026 15.1158 12.8026 14.8407H12.2026C12.2026 15.0866 12.201 15.317 12.24 15.4966C12.2611 15.5936 12.2971 15.6937 12.3633 15.7844C12.4313 15.8777 12.5193 15.9447 12.62 15.9916C12.8034 16.0772 13.0433 16.1011 13.3157 16.1111C13.5977 16.1216 13.9741 16.1175 14.4561 16.1175V15.5175ZM12.2279 13.1194C12.2368 12.6957 12.37 12.2309 12.7369 11.7723L12.2684 11.3975C11.8153 11.9638 11.6395 12.5574 11.628 13.1068L12.2279 13.1194ZM6.96775 15.5176H6.70955V16.1176H6.96775V15.5176ZM6.70955 15.5176H5.99101V16.1176H6.70955V15.5176ZM6.40955 14.8726V15.8176H7.00955V14.8726H6.40955ZM11.9531 12.8142C10.7976 12.7168 9.936 13.0559 9.20659 13.4578L9.49613 13.9833C10.1667 13.6139 10.9075 13.3282 11.9027 13.412L11.9531 12.8142ZM9.20659 13.4578C8.96847 13.589 8.74228 13.7281 8.52868 13.8585C8.31272 13.9904 8.10986 14.1132 7.90746 14.2201C7.50418 14.4329 7.12438 14.5701 6.70776 14.5726L6.71133 15.1726C7.26441 15.1693 7.74338 14.9851 8.18752 14.7507C8.40883 14.6339 8.62683 14.5016 8.84135 14.3706C9.05823 14.2382 9.27211 14.1067 9.49613 13.9833L9.20659 13.4578ZM9.08175 13.8521C9.16814 14.0292 9.29989 14.3304 9.40932 14.6485C9.5217 14.9752 9.59798 15.2845 9.59798 15.4919H10.198C10.198 15.1783 10.0921 14.7887 9.97668 14.4533C9.85835 14.1093 9.71679 13.7854 9.62097 13.589L9.08175 13.8521ZM9.76378 15.7602L10.4149 16.0859L10.6833 15.5493L10.0322 15.2236L9.76378 15.7602ZM10.5492 16.1176L11.2003 16.1175L11.2003 15.5175L10.5491 15.5176L10.5492 16.1176ZM11.2003 16.1175L11.8515 16.1175L11.8514 15.5175L11.2003 15.5175L11.2003 16.1175ZM12.7369 14.6533C12.5752 14.4512 12.3751 14.093 12.281 13.6572L11.6945 13.7839C11.8094 14.3162 12.0525 14.7583 12.2684 15.0281L12.7369 14.6533ZM12.281 13.6572C12.2441 13.4867 12.2239 13.306 12.2279 13.1194L11.628 13.1068C11.623 13.3448 11.6488 13.5723 11.6945 13.7839L12.281 13.6572ZM11.4125 15.6054C11.4347 15.6277 11.4267 15.6379 11.4206 15.5962C11.4148 15.5572 11.4144 15.4963 11.4255 15.4121C11.4476 15.2445 11.5086 15.0314 11.596 14.813C11.6829 14.5957 11.7898 14.3878 11.8948 14.2302C11.9474 14.1513 11.9956 14.0908 12.0363 14.0493C12.0811 14.0037 12.099 13.9994 12.0878 14.0034L11.8877 13.4377C11.7735 13.4781 11.6793 13.5565 11.6082 13.629C11.533 13.7056 11.4614 13.7985 11.3955 13.8976C11.2633 14.096 11.1381 14.3421 11.0389 14.5902C10.9402 14.837 10.8613 15.1005 10.8306 15.3338C10.8153 15.4502 10.8103 15.5708 10.827 15.6836C10.8432 15.7937 10.8845 15.926 10.9882 16.0296L11.4125 15.6054Z" fill="#0559FF"/>
</svg>
