<svg width="20" height="20" viewBox="0 0 20 20" fill="none" xmlns="http://www.w3.org/2000/svg">
<path d="M18.4545 1L16.2727 16.8182L9.72727 19L3.18182 16.8182L1 1H18.4545Z" stroke="#7A7A7A" stroke-width="1.25" stroke-linecap="round" stroke-linejoin="round"/>
<path d="M9.72889 14.4736C9.17889 14.4736 8.70956 14.3856 8.32089 14.2096C7.93223 14.0336 7.61323 13.81 7.36389 13.5386C7.12189 13.2673 6.94223 12.985 6.82489 12.6916C6.71489 12.391 6.65989 12.116 6.65989 11.8666H8.23289C8.23289 11.8666 8.24389 11.929 8.26589 12.0536C8.29523 12.1783 8.35756 12.3213 8.45289 12.4826C8.54823 12.644 8.69489 12.787 8.89289 12.9116C9.09089 13.0363 9.35856 13.0986 9.69589 13.0986C10.0332 13.0986 10.3119 13.029 10.5319 12.8896C10.7519 12.743 10.9169 12.5596 11.0269 12.3396C11.1369 12.1196 11.1919 11.8886 11.1919 11.6466C11.1919 11.3973 11.1369 11.1626 11.0269 10.9426C10.9169 10.7153 10.7519 10.532 10.5319 10.3926C10.3192 10.246 10.0516 10.1726 9.72889 10.1726C9.47956 10.1726 9.27423 10.213 9.11289 10.2936C8.95156 10.367 8.82323 10.455 8.72789 10.5576C8.63256 10.653 8.56289 10.741 8.51889 10.8216C8.48223 10.895 8.46389 10.9316 8.46389 10.9316H6.79189L7.50689 6.22365H12.3029V7.69765H8.66189L8.37589 9.55665H8.41989C8.45656 9.51998 8.52989 9.44665 8.63989 9.33665C8.75723 9.22665 8.93323 9.12398 9.16789 9.02865C9.40256 8.92598 9.71423 8.87465 10.1029 8.87465C10.6896 8.87465 11.1882 9.00665 11.5989 9.27065C12.0096 9.53465 12.3176 9.87565 12.5229 10.2936C12.7356 10.7043 12.8419 11.1406 12.8419 11.6026C12.8419 11.962 12.7759 12.3103 12.6439 12.6476C12.5192 12.985 12.3286 13.293 12.0719 13.5716C11.8152 13.843 11.4926 14.063 11.1039 14.2316C10.7152 14.393 10.2569 14.4736 9.72889 14.4736Z" fill="#7A7A7A"/>
</svg>
