<svg width="20" height="20" viewBox="0 0 20 20" fill="none" xmlns="http://www.w3.org/2000/svg">
<path d="M1.7207 8.56006C4.1207 10.6001 10.7927 13.4561 18.2807 8.56006" stroke="#7A7A7A" stroke-width="1.5"/>
<path d="M6.40039 3.88V2C6.40039 1.44772 6.84811 1 7.40039 1H12.2404C12.7927 1 13.2404 1.44772 13.2404 2V3.88" stroke="#7A7A7A" stroke-width="1.5" stroke-linecap="round"/>
<path d="M1.8988 6.62704C1.8377 5.34383 2.8616 4.27002 4.14626 4.27002H15.8537C17.1384 4.27002 18.1623 5.34384 18.1012 6.62704L17.6669 15.747C17.6098 16.9467 16.6205 17.89 15.4195 17.89H4.58054C3.37951 17.89 2.39022 16.9467 2.33309 15.747L1.8988 6.62704Z" stroke="#7A7A7A" stroke-width="1.5"/>
<circle cx="10.0005" cy="11.0801" r="1.77" fill="white" stroke="#7A7A7A" stroke-width="1.5"/>
</svg>
