<svg width="20" height="20" viewBox="0 0 20 20" fill="none" xmlns="http://www.w3.org/2000/svg">
<g clip-path="url(#clip0_819_49652)">
<path d="M1.10719 1.74909C1.27319 1.3897 1.62273 1.10941 1.99735 1.03529C2.08229 1.0185 5.32841 1.00319 9.21097 1.00126C16.8337 0.997507 16.5068 0.989259 16.8557 1.19379C17.2908 1.4487 17.4777 1.86609 17.4777 2.58249V2.89146H17.1666H16.8556L16.8389 2.48529C16.8239 2.12252 16.8115 2.06311 16.7228 1.92903C16.6682 1.84647 16.569 1.7492 16.5025 1.71287C16.3881 1.6503 16.0065 1.64629 9.30925 1.63715C4.61751 1.63072 2.18974 1.64016 2.09696 1.66512C1.90529 1.71677 1.76526 1.83536 1.68348 2.01541C1.61735 2.16105 1.61467 2.41745 1.61467 8.61313C1.61467 14.7897 1.61753 15.0655 1.68292 15.2079C1.81779 15.5016 2.0198 15.594 2.53259 15.5964L2.87626 15.598V15.9189V16.2397L2.42065 16.2221C2.0266 16.2069 1.93442 16.1908 1.73824 16.1028C1.45729 15.9767 1.23998 15.7592 1.10407 15.468L1 15.2451V8.61313V1.98119L1.10719 1.74909Z" fill="#7A7A7A"/>
<path d="M2.25 2.82302V2.50721V2.19141H2.56581H2.88161V2.50721V2.82302H2.56581H2.25Z" fill="#7A7A7A"/>
<path d="M3.55469 2.82302V2.50721V2.19141H3.87049H4.1863V2.50721V2.82302H3.87049H3.55469Z" fill="#7A7A7A"/>
<path d="M4.8125 2.82302V2.50721V2.19141H5.12831H5.44411V2.50721V2.82302H5.12831H4.8125Z" fill="#7A7A7A"/>
<path d="M4.8125 5.35036V5.03456V4.71875H5.12831H5.44411V5.03456V5.35036H5.12831H4.8125Z" fill="#7A7A7A"/>
<path d="M6.11719 5.35036V5.03456V4.71875H6.43299H6.7488V5.03456V5.35036H6.43299H6.11719Z" fill="#7A7A7A"/>
<path d="M7.375 5.35036V5.03456V4.71875H7.69081H8.00661V5.03456V5.35036H7.69081H7.375Z" fill="#7A7A7A"/>
<path d="M4.82331 6.66772H4.8125V6.05469H11.7989H18.7853V6.37061V6.68649L11.8097 6.67712L4.82331 6.66772Z" fill="#7A7A7A"/>
<path d="M4.83981 8.2488H4.8125V7.61719H6.03857H7.26465V8.2488H7.23733H6.03857H4.83981Z" fill="#7A7A7A"/>
<path d="M4.83409 9.5271H4.8125V8.91406H5.78151H6.75051V9.5271H6.72893H5.78151H4.83409Z" fill="#7A7A7A"/>
<path d="M16.8341 17.406H16.8125V16.793H17.7815H18.7505V17.406H18.7289H17.7815H16.8341Z" fill="#7A7A7A"/>
<path fill-rule="evenodd" clip-rule="evenodd" d="M11.1898 10.2005C10.792 10.3182 10.5447 10.4673 10.2253 10.7821C9.7583 11.2425 9.56369 11.7173 9.57048 12.3797C9.58252 13.5447 10.4848 14.4784 11.66 14.5421C12.3252 14.5781 12.8536 14.372 13.3353 13.8887C14.0351 13.1866 14.1873 12.2369 13.7437 11.3394C13.4982 10.8428 13.0293 10.4277 12.5043 10.2421C12.1773 10.1266 11.5109 10.1055 11.1898 10.2005ZM13.3295 12.5841C13.4379 11.8826 13.0896 11.2292 12.4415 10.918C12.1958 10.8 12.1259 10.7837 11.8285 10.7747C11.5802 10.7672 11.4437 10.7818 11.3043 10.831C10.8559 10.9891 10.5462 11.2656 10.3472 11.6857C10.2373 11.9175 10.2296 11.9608 10.2296 12.3426C10.2296 12.7261 10.237 12.7669 10.3495 13.0045C10.818 13.9937 12.1113 14.2209 12.8809 13.4492C13.1337 13.1957 13.278 12.9174 13.3295 12.5841Z" fill="#7A7A7A"/>
<path fill-rule="evenodd" clip-rule="evenodd" d="M10.4521 8.01816C10.463 7.51658 10.475 7.45487 10.5805 7.3566C10.6578 7.28452 10.7078 7.28125 11.7335 7.28125H12.8056L12.8968 7.37246C12.9843 7.45989 12.988 7.48348 12.988 7.94508V8.42651L13.2388 8.52311C13.3767 8.57621 13.5147 8.63573 13.5453 8.65531C13.5885 8.68291 13.6782 8.61418 13.9436 8.3502C13.9683 8.32562 13.9916 8.30219 14.0137 8.27997C14.1746 8.11833 14.2717 8.02079 14.3778 8.00974C14.5392 7.99291 14.7215 8.17634 15.1812 8.63887C15.2227 8.68064 15.2665 8.72469 15.3127 8.77108C15.3621 8.82063 15.4088 8.86733 15.4529 8.91143C15.9047 9.36324 16.0826 9.54121 16.066 9.69866C16.0552 9.80098 15.9623 9.89464 15.8089 10.0492C15.7859 10.0724 15.7615 10.0969 15.7359 10.1231L15.3999 10.4657L15.5222 10.7679L15.6445 11.0701L16.0637 11.0705C16.5643 11.071 16.7106 11.1174 16.7727 11.2954C16.8267 11.4505 16.8304 13.2443 16.777 13.3975C16.7133 13.5804 16.6195 13.6129 16.1089 13.6284L15.6445 13.6426L15.5251 13.9242L15.4056 14.2058L15.7387 14.5501C15.7606 14.5728 15.7816 14.5943 15.8016 14.6148C15.9656 14.783 16.0639 14.8838 16.0742 14.9929C16.0896 15.156 15.9084 15.3375 15.4565 15.7904C15.4196 15.8274 15.381 15.8661 15.3405 15.9068C14.9382 16.3109 14.5651 16.6568 14.5112 16.6756C14.362 16.7276 14.2306 16.6503 13.9038 16.3182L13.612 16.0217L13.3093 16.1455L13.0066 16.2694L12.9972 16.7261C12.992 16.9772 12.9693 17.2185 12.9467 17.2622C12.8696 17.4111 12.7695 17.4242 11.7065 17.4242H10.6886L10.5844 17.3347C10.4821 17.2468 10.4798 17.2359 10.4616 16.7559L10.443 16.2665L10.1457 16.1422L9.84852 16.0179L9.51343 16.3495C9.2062 16.6536 9.16623 16.6811 9.03266 16.6811C8.8933 16.6811 8.85644 16.6509 8.18526 15.9845C7.79931 15.6014 7.45976 15.2427 7.43066 15.1876C7.33328 15.0028 7.36256 14.9405 7.71615 14.5799L8.05448 14.2349L7.93321 13.9383L7.81194 13.6417L7.33774 13.6288C6.89606 13.6169 6.85697 13.6098 6.76773 13.5259L6.67188 13.4358L6.67306 12.3556C6.67395 11.5281 6.68555 11.2604 6.72252 11.2117C6.805 11.1032 6.95878 11.0709 7.39407 11.0709H7.81424L7.9341 10.7705L8.05399 10.4701L7.71589 10.1253C7.69162 10.1006 7.66851 10.0772 7.64661 10.0551C7.48801 9.89503 7.39322 9.79934 7.38312 9.69542C7.36811 9.54103 7.53999 9.36848 7.96722 8.93958C8.00693 8.89972 8.04883 8.85765 8.093 8.81317C8.48639 8.41704 8.85406 8.0688 8.91005 8.03926C9.07152 7.95418 9.18763 8.01154 9.53821 8.34949L9.8633 8.66289L10.1531 8.55105L10.443 8.43922L10.4521 8.01816ZM12.3626 8.35492C12.377 8.86898 12.4004 8.91386 12.7045 9.01105C12.8093 9.0446 13.0586 9.1473 13.2585 9.23929C13.53 9.36424 13.6468 9.40024 13.7207 9.3817C13.7751 9.36806 13.955 9.22469 14.1205 9.0631L14.4215 8.76933L14.8642 9.21313L15.3068 9.65693L15.002 9.96928C14.6427 10.3373 14.6319 10.3851 14.8219 10.7653C14.8905 10.9028 14.9838 11.1278 15.029 11.2654C15.1645 11.6768 15.1708 11.6808 15.7061 11.7025L16.1647 11.7211L16.1748 12.3395L16.185 12.9579L15.7391 12.9711C15.3207 12.9835 15.2877 12.9901 15.2037 13.0772C15.1545 13.1283 15.0765 13.2871 15.0305 13.4302C14.9844 13.5732 14.8905 13.8027 14.8219 13.9401C14.6337 14.3169 14.6437 14.3609 15.0012 14.7333L15.3053 15.0501L14.8633 15.4932L14.4214 15.9362L14.0996 15.6214C13.8595 15.3864 13.7528 15.3065 13.6793 15.3065C13.6252 15.3065 13.4516 15.371 13.2937 15.4498C13.1358 15.5287 12.8939 15.6303 12.7562 15.6757C12.3871 15.7972 12.3564 15.8506 12.3564 16.3704V16.7926H11.7248H11.0932V16.3857C11.0932 16.1618 11.0743 15.9373 11.0512 15.8866C11.012 15.8005 10.8102 15.6895 10.573 15.6235C10.5219 15.6093 10.3352 15.53 10.158 15.4473C9.91272 15.3328 9.81125 15.3031 9.73289 15.3228C9.67631 15.337 9.49456 15.4808 9.32904 15.6424L9.02805 15.9361L8.58541 15.4923L8.14275 15.0485L8.4476 14.7362C8.81074 14.3642 8.82501 14.298 8.62768 13.903C8.55902 13.7655 8.46651 13.5444 8.42211 13.4116C8.28468 13.0006 8.22605 12.9658 7.67261 12.9658H7.30349V12.3342V11.7025H7.74287C8.26748 11.7025 8.27588 11.6969 8.43512 11.2381C8.49185 11.0746 8.58644 10.8452 8.64537 10.7283C8.81832 10.3851 8.80235 10.3238 8.44667 9.96628L8.14086 9.65887L8.58444 9.2141L9.02805 8.76933L9.32904 9.0631C9.49456 9.22469 9.67449 9.36806 9.72888 9.3817C9.80275 9.40024 9.91959 9.36424 10.1911 9.23929C10.3909 9.1473 10.642 9.04401 10.749 9.00975C11.0557 8.91163 11.0932 8.83821 11.0932 8.33512V7.91286H11.7217H12.3502L12.3626 8.35492Z" fill="#7A7A7A"/>
<path fill-rule="evenodd" clip-rule="evenodd" d="M4.59967 3.48464C4.06893 3.56233 3.64712 3.98068 3.54554 4.53022C3.5205 4.66572 3.51106 6.92905 3.51767 11.2155L3.52767 17.6958L3.63185 17.9188C3.80309 18.2852 4.06562 18.5126 4.44433 18.6227C4.62452 18.6751 5.38967 18.6801 11.8516 18.6715L19.0579 18.6618L19.2623 18.5647C19.622 18.3939 19.8866 18.0605 19.9668 17.6773C19.9983 17.5265 20.0065 15.7628 19.9981 10.9516L19.9868 4.43039L19.8645 4.18194C19.6694 3.78562 19.3361 3.54821 18.8829 3.48267C18.6019 3.44202 4.87772 3.44392 4.59967 3.48464ZM19.1087 4.22392C19.1775 4.273 19.2649 4.38168 19.303 4.46542C19.3695 4.61203 19.3721 4.8581 19.3729 11.0744C19.3736 16.4146 19.365 17.5518 19.3235 17.6512C19.2568 17.8109 19.0332 18.0027 18.8822 18.0297C18.8154 18.0417 15.566 18.0467 11.6614 18.0409L4.56218 18.0302L4.42571 17.9261C4.35066 17.8689 4.26001 17.7685 4.22426 17.7032C4.16311 17.5913 4.15928 17.2032 4.15928 11.0825V4.58056L4.24693 4.42768C4.29512 4.34356 4.39543 4.23938 4.46985 4.19613L4.60513 4.11752L11.7944 4.12614L18.9836 4.13472L19.1087 4.22392Z" fill="#7A7A7A"/>
</g>
<defs>
<clipPath id="clip0_819_49652">
<rect width="20" height="20" fill="white"/>
</clipPath>
</defs>
</svg>
