<svg width="25" height="24" viewBox="0 0 25 24" fill="none" xmlns="http://www.w3.org/2000/svg">
<circle cx="12.3398" cy="12" r="12" fill="#E5EEFE"/>
<path d="M8.84687 10.1499L8.84688 9.84989H8.84687V10.1499ZM16.1299 8.76266L16.342 8.97478C16.356 8.96081 16.3685 8.94551 16.3795 8.92908L16.1299 8.76266ZM16.7121 10.7754C16.8659 10.8369 17.0405 10.7621 17.102 10.6082C17.1635 10.4544 17.0887 10.2798 16.9349 10.2183L16.7121 10.7754ZM17.8639 8.06915L18.0182 8.3264C18.1187 8.26612 18.1749 8.15287 18.1621 8.03641C18.1493 7.91995 18.0699 7.82159 17.9588 7.78454L17.8639 8.06915ZM17.4443 9.74737C17.6051 9.78755 17.7679 9.68983 17.8081 9.52909C17.8483 9.36835 17.7506 9.20547 17.5898 9.16528L17.4443 9.74737ZM19.2511 11.1904L19.4633 10.9782C19.4493 10.9643 19.434 10.9517 19.4175 10.9408L19.2511 11.1904ZM19.1165 7.85696C18.9993 7.7398 18.8093 7.7398 18.6922 7.85696C18.575 7.97412 18.575 8.16407 18.6922 8.28122L19.1165 7.85696ZM18.5575 12.9244L18.3454 13.1365C18.4016 13.1928 18.478 13.2244 18.5575 13.2244V12.9244ZM14.049 14.6585L13.7513 14.6212C13.7498 14.6336 13.749 14.646 13.749 14.6585H14.049ZM15.0894 14.6585L15.368 14.547C15.3224 14.4331 15.2121 14.3585 15.0894 14.3585V14.6585ZM15.783 16.3925L15.5045 16.5039C15.5501 16.6178 15.6604 16.6925 15.783 16.6925V16.3925ZM16.8235 16.3925V16.6925C16.9224 16.6925 17.015 16.6437 17.0709 16.5621C17.1269 16.4805 17.139 16.3765 17.1033 16.2842L16.8235 16.3925ZM15.9473 14.1282L15.7426 13.9089L15.9473 14.1282ZM13.0086 16.7393L12.7175 16.6666C12.6951 16.7562 12.7153 16.8511 12.7721 16.9239C12.829 16.9968 12.9162 17.0393 13.0086 17.0393V16.7393ZM12.5833 12.7118C12.6574 12.5636 12.5973 12.3834 12.4491 12.3093C12.3009 12.2352 12.1207 12.2952 12.0466 12.4434L12.5833 12.7118ZM8.50006 14.6585L8.63422 14.9268C8.66306 14.9124 8.68939 14.8934 8.71219 14.8706L8.50006 14.6585ZM10.1873 12.2308C10.1873 12.0651 10.053 11.9308 9.88729 11.9308C9.72161 11.9308 9.58729 12.0651 9.58729 12.2308H10.1873ZM7.80644 16.3925V16.6925C7.97212 16.6925 8.10644 16.5582 8.10644 16.3925H7.80644ZM6.4192 16.3925L6.12069 16.4224C6.13603 16.5757 6.26508 16.6925 6.4192 16.6925V16.3925ZM8.01868 10.4968L7.80792 10.2833L8.01868 10.4968ZM9.54048 16.3925H9.24048C9.24048 16.5582 9.3748 16.6925 9.54048 16.6925V16.3925ZM10.9277 16.3925V16.6925C11.0221 16.6925 11.1111 16.648 11.1677 16.5725C11.2244 16.497 11.2422 16.3991 11.2157 16.3085L10.9277 16.3925ZM10.9277 14.4108L10.9548 14.112L10.9277 14.4108ZM7.32495 12.0186C7.12861 11.8223 6.74665 11.5346 6.35099 11.3863C6.15345 11.3122 5.92124 11.2609 5.69437 11.3014C5.44865 11.3453 5.23905 11.4923 5.11039 11.7499L5.64716 12.018C5.69173 11.9288 5.74215 11.9024 5.79986 11.8921C5.8764 11.8784 5.99102 11.8921 6.14034 11.9481C6.43838 12.0598 6.75022 12.2924 6.90069 12.4429L7.32495 12.0186ZM5.11039 11.7499C5.03532 11.9002 5.01847 12.0621 5.06796 12.2175C5.11483 12.3647 5.21201 12.4777 5.31407 12.5609C5.51443 12.7241 5.79686 12.8245 6.06221 12.8727C6.32951 12.9214 6.62808 12.9259 6.87559 12.8552C7.00005 12.8196 7.13121 12.7594 7.23496 12.6569C7.34545 12.5477 7.41282 12.4015 7.41282 12.2308H6.81282C6.81282 12.2335 6.81517 12.2282 6.81324 12.2301C6.80457 12.2386 6.7759 12.2597 6.71073 12.2783C6.57897 12.3159 6.37906 12.3205 6.16955 12.2824C5.95808 12.244 5.78534 12.1709 5.69305 12.0957C5.64878 12.0597 5.64026 12.0373 5.63967 12.0354C5.63955 12.035 5.63969 12.0354 5.63979 12.0363C5.63989 12.0372 5.63985 12.0378 5.63985 12.0378C5.63985 12.0377 5.63998 12.0363 5.64088 12.0333C5.64179 12.0302 5.64361 12.0251 5.64716 12.018L5.11039 11.7499ZM8.84685 10.4499C11.3487 10.45 12.6158 9.72909 13.5476 9.19665C14.015 8.92953 14.3445 8.74557 14.6967 8.69067C15.0277 8.63906 15.414 8.69913 15.981 9.02314L16.2787 8.50218C15.6319 8.13263 15.1078 8.01934 14.6043 8.09783C14.122 8.17302 13.6928 8.4226 13.2499 8.6757C12.3609 9.1837 11.2003 9.84998 8.84688 9.84989L8.84685 10.4499ZM15.9177 8.55054C15.7087 8.75961 15.4684 9.14253 15.5291 9.5919C15.5931 10.0653 15.9694 10.4783 16.7121 10.7754L16.9349 10.2183C16.2903 9.96044 16.1464 9.67981 16.1237 9.51155C16.0977 9.31927 16.2042 9.11256 16.342 8.97478L15.9177 8.55054ZM16.3795 8.92908C16.4724 8.78967 16.6636 8.583 16.9156 8.44491C17.1612 8.31035 17.4498 8.24734 17.769 8.35375L17.9588 7.78454C17.4457 7.6135 16.9829 7.72386 16.6273 7.91873C16.2781 8.11007 16.0185 8.38887 15.8802 8.59624L16.3795 8.92908ZM17.7096 7.81189C17.481 7.94904 17.1979 8.15279 16.9908 8.37977L17.4339 8.78427C17.5874 8.61607 17.8171 8.44705 18.0182 8.3264L17.7096 7.81189ZM16.9908 8.37977C16.9028 8.47618 16.8198 8.58605 16.7627 8.70553C16.7056 8.8248 16.6656 8.97215 16.6934 9.13077C16.7534 9.47368 17.0727 9.65446 17.4443 9.74737L17.5898 9.16528C17.4371 9.12711 17.3541 9.08452 17.3129 9.05346C17.2771 9.02655 17.2826 9.0168 17.2844 9.02733C17.285 9.03092 17.2806 9.01325 17.3039 8.96451C17.3271 8.91598 17.3695 8.85485 17.4339 8.78427L16.9908 8.37977ZM17.123 8.86842C17.5646 9.00609 17.7979 9.1993 17.9449 9.40271C18.1008 9.61845 18.177 9.86607 18.271 10.169L18.8441 9.99131C18.7562 9.70801 18.6549 9.36091 18.4312 9.05131C18.1986 8.72939 17.8503 8.46666 17.3016 8.29561L17.123 8.86842ZM18.271 10.169C18.3987 10.581 18.5558 11.0873 19.0847 11.44L19.4175 10.9408C19.0834 10.718 18.974 10.4103 18.8441 9.99131L18.271 10.169ZM18.7295 10.326C18.9912 10.1429 19.3366 9.80404 19.4977 9.36979C19.5802 9.14736 19.6162 8.89429 19.5599 8.6271C19.5034 8.35926 19.359 8.09946 19.1165 7.85696L18.6922 8.28122C18.8659 8.45489 18.9439 8.61412 18.9728 8.75083C19.0017 8.8882 18.9856 9.02521 18.9352 9.16107C18.8304 9.44339 18.5862 9.69394 18.3855 9.83438L18.7295 10.326ZM19.039 11.4025C19.0173 11.3808 19.0561 11.4002 19.0315 11.5627C19.0102 11.7032 18.9506 11.8805 18.8666 12.0606C18.7832 12.2393 18.6837 12.4036 18.5947 12.5183C18.5496 12.5764 18.5137 12.6134 18.4901 12.6328C18.4542 12.6625 18.4819 12.6244 18.5575 12.6244V13.2244C18.7025 13.2244 18.8147 13.1429 18.8723 13.0954C18.9422 13.0376 19.0087 12.9636 19.0687 12.8862C19.1899 12.7299 19.3116 12.5258 19.4103 12.3143C19.5083 12.1042 19.5918 11.8697 19.6247 11.6526C19.6543 11.4574 19.6584 11.1734 19.4633 10.9782L19.039 11.4025ZM14.049 14.9585H15.0894V14.3585H14.049V14.9585ZM14.8109 14.7699L15.5045 16.5039L16.0616 16.2811L15.368 14.547L14.8109 14.7699ZM15.783 16.6925H16.8235V16.0925H15.783V16.6925ZM18.7696 12.7123C18.3218 12.2645 17.9504 11.993 17.6144 11.9222C17.4315 11.8836 17.2589 11.9041 17.1031 11.983C16.9551 12.058 16.8435 12.1751 16.7558 12.2938C16.6679 12.4127 16.5914 12.551 16.5208 12.6875C16.4399 12.8441 16.3882 12.9544 16.3035 13.1165C16.1509 13.4081 15.9803 13.687 15.7426 13.9089L16.1519 14.3475C16.4652 14.0552 16.6735 13.7036 16.8352 13.3945C16.9075 13.2562 16.9967 13.0736 17.0539 12.963C17.1215 12.8322 17.1802 12.729 17.2384 12.6503C17.2967 12.5714 17.3417 12.5347 17.3743 12.5182C17.3992 12.5056 17.4313 12.4968 17.4906 12.5093C17.6389 12.5405 17.9017 12.6929 18.3454 13.1365L18.7696 12.7123ZM15.7426 13.9089C15.4135 14.216 14.9231 14.4444 14.0789 14.3599L14.0191 14.957C15.0171 15.0568 15.6839 14.7844 16.1519 14.3475L15.7426 13.9089ZM17.1033 16.2842L16.227 14.02L15.6675 14.2365L16.5437 16.5008L17.1033 16.2842ZM14.3449 14.7078C14.4029 14.3598 14.4899 13.8205 14.5625 13.3327C14.5988 13.089 14.6316 12.8567 14.6555 12.6671C14.6784 12.4853 14.6958 12.3226 14.6958 12.2308H14.0958C14.0958 12.2777 14.0843 12.4012 14.0602 12.5921C14.0371 12.7753 14.005 13.0026 13.969 13.2444C13.8971 13.7277 13.8107 14.2635 13.7531 14.6091L14.3449 14.7078ZM14.6958 12.2308C14.6958 12.2188 14.6956 12.2014 14.6939 12.1829C14.693 12.1743 14.6912 12.1576 14.6867 12.1378C14.6856 12.1329 14.6728 12.0664 14.6194 12.0051C14.5861 11.9669 14.519 11.911 14.4166 11.9027C14.3167 11.8947 14.244 11.9371 14.2082 11.9647C14.1484 12.011 14.1228 12.0681 14.1203 12.0733C14.1058 12.1029 14.0984 12.1306 14.0963 12.1384C14.0849 12.1801 14.0731 12.2465 14.0619 12.3142C14.0377 12.4609 14.0047 12.6899 13.9685 12.953C13.8961 13.4807 13.8092 14.1583 13.7513 14.6212L14.3467 14.6957C14.4044 14.2338 14.491 13.5589 14.563 13.0346C14.5991 12.7717 14.6311 12.5498 14.6539 12.4119C14.6595 12.3776 14.6644 12.3498 14.6684 12.3286C14.6729 12.3053 14.6751 12.2965 14.675 12.2967C14.6748 12.2973 14.6739 12.3006 14.6723 12.3056C14.671 12.3093 14.667 12.321 14.6597 12.336C14.6584 12.3386 14.634 12.394 14.5752 12.4394C14.5401 12.4666 14.4679 12.5088 14.3684 12.5008C14.2665 12.4926 14.1999 12.437 14.167 12.3993C14.1145 12.339 14.1024 12.2744 14.102 12.2723C14.098 12.2553 14.0968 12.2424 14.0964 12.2385C14.0956 12.2296 14.0958 12.2255 14.0958 12.2308H14.6958ZM13.749 14.6585C13.749 14.9009 13.767 15.2807 13.8218 15.6401C13.8492 15.8196 13.8869 16.0019 13.9394 16.1626C13.9892 16.3154 14.0635 16.4844 14.1837 16.6046L14.6079 16.1804C14.5894 16.1618 14.5509 16.1026 14.5098 15.9764C14.4712 15.8583 14.4396 15.7111 14.4149 15.5496C14.3657 15.2269 14.349 14.8784 14.349 14.6585H13.749ZM14.1837 16.6046C14.1833 16.6043 14.1803 16.6012 14.176 16.5953C14.1716 16.5894 14.1653 16.5797 14.1591 16.566C14.1458 16.5368 14.1352 16.4933 14.1429 16.4423C14.1504 16.3926 14.1721 16.3571 14.1888 16.3368C14.1969 16.327 14.2041 16.3204 14.2087 16.3165C14.2133 16.3126 14.2163 16.3106 14.2169 16.3103C14.2175 16.3099 14.2126 16.313 14.1995 16.3183C14.1869 16.3235 14.1696 16.3296 14.1471 16.3362C14.1017 16.3495 14.0433 16.3623 13.9732 16.3741C13.6882 16.4221 13.2913 16.4393 13.0086 16.4393V17.0393C13.3039 17.0393 13.7393 17.0219 14.0728 16.9658C14.2274 16.9398 14.4099 16.8982 14.5379 16.8172C14.6012 16.7771 14.7126 16.6886 14.7362 16.5318C14.7611 16.3666 14.6722 16.2447 14.6079 16.1804L14.1837 16.6046ZM13.2996 16.8121C13.4728 16.1192 13.2813 15.2834 13.0711 14.5733L12.4958 14.7436C12.7082 15.4614 12.8465 16.1505 12.7175 16.6666L13.2996 16.8121ZM13.0711 14.5733C13.0015 14.338 12.927 14.1083 12.8583 13.8953C12.789 13.6804 12.7262 13.484 12.6767 13.3077C12.6269 13.13 12.5943 12.9849 12.5818 12.8719C12.5683 12.7495 12.584 12.7103 12.5833 12.7118L12.0466 12.4434C11.9676 12.6015 11.9686 12.7851 11.9854 12.9378C12.0034 13.0998 12.0464 13.282 12.099 13.4697C12.1521 13.659 12.2186 13.8663 12.2873 14.0794C12.3565 14.2943 12.4286 14.5166 12.4958 14.7436L13.0711 14.5733ZM8.71219 14.8706C8.95578 14.627 9.31652 14.2121 9.61869 13.7467C9.91306 13.2934 10.1873 12.7393 10.1873 12.2308H9.58729C9.58729 12.5546 9.39911 12.9832 9.11547 13.42C8.83962 13.8448 8.50675 14.2275 8.28792 14.4463L8.71219 14.8706ZM8.36589 14.3901C7.9895 14.5783 7.73355 14.7819 7.60953 15.1416C7.55301 15.3055 7.52922 15.4868 7.51778 15.6848C7.50633 15.8829 7.50644 16.1181 7.50644 16.3925H8.10644C8.10644 16.112 8.10655 15.8964 8.11678 15.7194C8.127 15.5425 8.14657 15.4247 8.17675 15.3372C8.22613 15.194 8.317 15.0854 8.63422 14.9268L8.36589 14.3901ZM7.80644 16.0925H6.4192V16.6925H7.80644V16.0925ZM7.38115 12.3649C7.44675 12.2337 7.50827 12.0839 7.56793 11.9353C7.62906 11.7831 7.68904 11.6302 7.75606 11.4773C7.8915 11.1682 8.04009 10.8973 8.22945 10.7103L7.80792 10.2833C7.53429 10.5535 7.34881 10.9117 7.20651 11.2365C7.13465 11.4005 7.06983 11.5656 7.01116 11.7117C6.95103 11.8614 6.89776 11.9901 6.84449 12.0966L7.38115 12.3649ZM8.22945 10.7103C8.39427 10.5476 8.58795 10.4499 8.84687 10.4499V9.84989C8.40769 9.84989 8.06796 10.0266 7.80792 10.2833L8.22945 10.7103ZM6.71771 16.3627C6.63385 15.5241 6.70549 14.9961 6.83826 14.6184C6.97102 14.2407 7.17218 13.9883 7.40907 13.694C7.64534 13.4005 7.91397 13.0686 8.09884 12.5659C8.28348 12.0638 8.37753 11.4139 8.31808 10.4778L7.71929 10.5158C7.77514 11.3954 7.68355 11.9568 7.53572 12.3588C7.38812 12.7601 7.17744 13.0249 6.94166 13.3178C6.7065 13.61 6.44288 13.9339 6.27222 14.4194C6.10157 14.9048 6.03115 15.5269 6.12069 16.4224L6.71771 16.3627ZM9.52996 14.0564C9.25139 14.0661 8.98992 14.0936 8.77744 14.1508C8.58474 14.2026 8.34298 14.3018 8.23173 14.5243L8.76838 14.7926C8.75571 14.818 8.76502 14.7755 8.93333 14.7302C9.08185 14.6902 9.2913 14.6651 9.55101 14.656L9.52996 14.0564ZM9.24048 14.3562V16.3925H9.84048V14.3562H9.24048ZM9.54048 16.6925H10.9277V16.0925H9.54048V16.6925ZM12.8355 14.363C12.3373 14.2752 11.6438 14.1744 10.9548 14.112L10.9007 14.7096C11.5703 14.7702 12.2469 14.8685 12.7314 14.9539L12.8355 14.363ZM10.9548 14.112C10.4584 14.0671 9.95714 14.0414 9.52996 14.0564L9.55101 14.656C9.94276 14.6422 10.4163 14.6657 10.9007 14.7096L10.9548 14.112ZM11.2157 16.3085C11.1639 16.1308 11.0988 15.8166 11.0799 15.4744C11.0607 15.127 11.0913 14.7855 11.2026 14.5311L10.6529 14.2906C10.4867 14.6704 10.4595 15.1215 10.4808 15.5074C10.5024 15.8984 10.5759 16.2579 10.6397 16.4765L11.2157 16.3085Z" fill="#0559FF"/>
</svg>
