<svg width="62" height="34" viewBox="0 0 62 34" fill="none" xmlns="http://www.w3.org/2000/svg">
<path d="M41.7598 25.5L45.215 27.8035C45.4089 27.9328 45.5549 28.1223 45.6306 28.3427C45.7062 28.5632 45.7072 28.8024 45.6335 29.0235L43.9748 34H46.9835L48.7853 26.7929C47.8974 26.5175 47.0687 26.0791 46.3415 25.5H41.7598Z" fill="#0063F5"/>
<path d="M15.9366 27.625C15.9366 27.8099 15.8884 27.9916 15.7966 28.1521L12.4551 34H15.32L19.1241 27.3428V25.5H15.9366V27.625Z" fill="#0063F5"/>
<path d="M57.0828 5.64268C56.8817 5.44154 56.7447 5.18528 56.6892 4.9063C56.6337 4.62732 56.6622 4.33815 56.7711 4.07536C56.8799 3.81256 57.0642 3.58795 57.3007 3.42991C57.5372 3.27188 57.8153 3.18752 58.0997 3.18751H60.5625C60.8443 3.18751 61.1145 3.07556 61.3138 2.87631C61.513 2.67705 61.625 2.4068 61.625 2.12501C61.625 1.84321 61.513 1.57296 61.3138 1.3737C61.1145 1.17445 60.8443 1.06251 60.5625 1.06251H58.0997C57.395 1.0625 56.7061 1.27148 56.1201 1.66302C55.5341 2.05455 55.0774 2.61105 54.8077 3.26214C54.5381 3.91324 54.4675 4.62969 54.605 5.32088C54.7425 6.01208 55.0818 6.64699 55.5802 7.14532L59.0788 10.6439C59.2128 10.7771 59.319 10.9356 59.3913 11.1102C59.4636 11.2848 59.5005 11.472 59.5 11.6609C59.5 11.9343 59.4222 12.202 59.2755 12.4327C59.1288 12.6634 58.9194 12.8475 58.6719 12.9635C58.4243 13.0794 58.1488 13.1224 57.8777 13.0874C57.6066 13.0524 57.3511 12.9408 57.1411 12.7658L56.0498 11.8564C55.0947 11.0615 53.8915 10.6259 52.6489 10.625H52.316C51.3843 9.31168 50.1517 8.24053 48.7212 7.50114C47.2907 6.76175 45.704 6.3756 44.0937 6.375C41.4509 6.36948 38.8801 5.51256 36.7625 3.93126L35.1321 2.70845C32.5884 0.800725 29.4546 -0.151163 26.2796 0.0195423C23.1046 0.190247 20.0909 1.47266 17.7665 3.64212C17.7553 3.65248 17.744 3.66271 17.7323 3.67267L7.12565 12.75H15.1717L15.3201 12.3049C15.5856 11.5059 16.0961 10.8109 16.7792 10.3186C17.4622 9.82628 18.283 9.56172 19.125 9.5625C19.4068 9.5625 19.677 9.67444 19.8763 9.8737C20.0756 10.073 20.1875 10.3432 20.1875 10.625V14.875C20.1862 16.0018 19.7381 17.0821 18.9413 17.8788C18.1445 18.6756 17.0643 19.1237 15.9375 19.125H12.75V17H15.9375C16.5009 16.9993 17.041 16.7752 17.4394 16.3769C17.8377 15.9785 18.0618 15.4384 18.0625 14.875V12.0146C17.7214 12.2471 17.4662 12.5851 17.336 12.9768L16.9454 14.1485C16.8749 14.3601 16.7396 14.5441 16.5587 14.6744C16.3778 14.8048 16.1605 14.875 15.9375 14.875H2.125C1.90201 14.875 1.68468 14.8048 1.50379 14.6744C1.32289 14.5441 1.18761 14.3601 1.11709 14.1485L0.726484 12.9768C0.596336 12.5851 0.341083 12.2471 0 12.0146V14.875C0.000667825 15.4384 0.224765 15.9785 0.623136 16.3769C1.02151 16.7752 1.56162 16.9993 2.125 17H4.25C4.53179 17 4.80204 17.1119 5.0013 17.3112C5.20056 17.5105 5.3125 17.7807 5.3125 18.0625V26.5625H8.05999L10.9362 23.6862C11.0348 23.5875 11.152 23.5093 11.2809 23.4559C11.4098 23.4025 11.548 23.375 11.6875 23.375H24.4375V21.25H26.5625V27.625C26.5625 27.8099 26.5142 27.9916 26.4225 28.1521L23.0809 34H25.9458L29.75 27.3428V19.125H31.875V23.375H44.5256C43.8913 22.2522 43.5594 20.9839 43.5625 19.6944V18.0625H45.6875V19.6944C45.6822 20.8382 46.0485 21.9527 46.7313 22.8704C47.4141 23.788 48.3764 24.4592 49.4734 24.7828L55.5555 26.6073C55.8231 26.6875 56.0483 26.87 56.1823 27.1151C56.3164 27.3602 56.3485 27.6483 56.2717 27.9169L54.5336 34H57.5852L59.3988 25.8389L54.4987 20.9382C54.2996 20.7391 54.1877 20.4691 54.1875 20.1875V16.4688C54.1879 15.2402 53.9628 14.0221 53.5234 12.8748C53.9504 12.9962 54.3474 13.2053 54.689 13.4888L55.7812 14.3982C56.4174 14.9336 57.2219 15.2279 58.0534 15.2295C58.5791 15.2286 59.0982 15.1119 59.5737 14.8876C60.092 14.6449 60.5442 14.2809 60.892 13.8264C61.2398 13.3719 61.473 12.8403 61.5719 12.2766C61.6708 11.7129 61.6325 11.1337 61.4602 10.588C61.2878 10.0422 60.9866 9.54603 60.5819 9.14135L57.0828 5.64268Z" fill="#0063F5"/>
</svg>
