<svg width="20" height="20" viewBox="0 0 20 20" fill="none" xmlns="http://www.w3.org/2000/svg">
<path d="M17.5455 5.90909L14.6818 1H9.77273M17.5455 5.90909V19H2V5.90909M17.5455 5.90909H9.77273M2 5.90909L4.86364 1H9.77273M2 5.90909H9.77273M9.77273 1V5.90909" stroke="#0559FF" stroke-width="1.5"/>
<path d="M7.52086 11.4602C7.22283 11.1726 6.74803 11.181 6.46037 11.479C6.1727 11.777 6.18111 12.2518 6.47914 12.5395L7.52086 11.4602ZM8.95448 13.8864L8.43362 14.426L8.91881 14.8943L9.43589 14.4615L8.95448 13.8864ZM13.4814 11.075C13.799 10.8091 13.841 10.3361 13.5751 10.0185C13.3092 9.70084 12.8362 9.6589 12.5186 9.92478L13.4814 11.075ZM6.47914 12.5395L8.43362 14.426L9.47534 13.3467L7.52086 11.4602L6.47914 12.5395ZM9.43589 14.4615L13.4814 11.075L12.5186 9.92478L8.47306 13.3113L9.43589 14.4615Z" fill="#0559FF"/>
</svg>
