<svg width="90" height="90" viewBox="0 0 90 90" fill="none" xmlns="http://www.w3.org/2000/svg">
<path fill-rule="evenodd" clip-rule="evenodd" d="M45 90C69.8528 90 90 69.8528 90 45C90 20.1472 69.8528 0 45 0C5.70423 9.14487 -6.24749 68.7223 45 90Z" fill="#FE6464"/>
<path d="M0 45C0 69.8528 20.1472 90 45 90C-6.24749 68.7223 5.70423 9.14487 45 0C20.1472 0 0 20.1472 0 45Z" fill="#E45A5C"/>
<path d="M38.6025 28.3784C35.0825 24.8713 32.0874 21.9916 31.9465 21.9788C31.8056 21.9661 31.5164 21.937 31.3038 21.914C31.091 21.8911 30.6769 21.9734 30.3832 22.0969C29.8721 22.3116 22.7831 29.2548 22.2707 30.0426C21.915 30.5889 21.8122 31.3701 22.0222 31.9299C22.1222 32.1964 25.029 35.2457 28.4817 38.7061L34.7597 44.9976L28.3809 51.3929C24.6789 55.1046 21.9936 57.9355 21.9815 58.1396C21.9699 58.3328 21.9483 58.6131 21.9337 58.7625C21.86 59.5063 22.4961 60.3018 25.9071 63.7297C27.9378 65.7708 29.7845 67.5613 30.011 67.7088C30.5881 68.0845 31.3603 68.1922 31.9302 67.9764C32.1967 67.8753 35.2464 64.9691 38.7075 61.5179L45.0003 55.2431L51.293 61.5179C54.7541 64.9691 57.8038 67.8753 58.0704 67.9764C58.6403 68.1922 59.4124 68.0845 59.9895 67.7088C60.2161 67.5613 62.0628 65.7708 64.0935 63.7297C67.5044 60.3018 68.1406 59.5063 68.0669 58.7625C68.0522 58.6131 68.0307 58.3328 68.0191 58.1396C68.007 57.9355 65.3222 55.1049 61.6208 51.3941L55.2433 45L61.601 38.6167C68.4044 31.7861 68.46 31.7149 67.9456 30.4866C67.7029 29.9071 60.856 22.8552 59.9863 22.289C59.4122 21.9152 58.6392 21.8082 58.0704 22.0235C57.8038 22.1246 54.7545 25.0305 51.2941 28.4809L45.0025 34.7546L38.6025 28.3784Z" fill="white"/>
</svg>
