<svg width="20" height="20" viewBox="0 0 20 20" fill="none" xmlns="http://www.w3.org/2000/svg">
    <path fill-rule="evenodd" clip-rule="evenodd" d="M.409.397C.23.478.047.702.016.877c-.014.078-.02 4.317-.013 9.42l.012 9.28.091.12c.05.067.145.163.212.212L.439 20h18.793l.121-.09c.23-.173.302-.313.302-.591 0-.278-.072-.418-.302-.59l-.121-.091-8.916-.011-8.916-.012L1.39 9.7 1.378.784 1.287.662a1.224 1.224 0 0 0-.205-.207C.936.347.587.317.409.397z" fill="#7A7A7A"/>
    <path fill-rule="evenodd" clip-rule="evenodd" d="M4.099 1.796a.754.754 0 0 0-.37.394c-.032.082-.047.965-.047 2.643v2.52l-.48.015c-.52.016-.617.054-.814.317-.089.119-.09.166-.09 2.487 0 2.322.001 2.369.09 2.488.196.263.295.301.81.317l.476.015.015.476c.016.515.054.614.317.81.17.127.587.127.757 0 .263-.196.301-.295.317-.81l.015-.476.477-.015c.514-.016.613-.054.809-.317.089-.12.09-.166.09-2.488 0-2.32-.001-2.368-.09-2.487-.196-.263-.294-.301-.812-.317l-.48-.015-.011-2.586c-.012-2.533-.014-2.587-.103-2.706a1.225 1.225 0 0 0-.205-.207c-.146-.109-.496-.139-.671-.058zm.989 9.783V8.765H3.682v2.812h1.406zM10.696.046a.754.754 0 0 0-.37.394c-.027.07-.048.452-.048.886v.762l-.48.015c-.519.016-.617.054-.813.317-.09.12-.09.145-.09 4.596 0 4.452 0 4.476.09 4.597.196.263.294.301.812.317l.479.015.012 1.882c.012 1.823.015 1.887.103 2.004.172.23.312.303.59.303.278 0 .418-.072.59-.303.088-.117.092-.181.104-2.004l.012-1.882.479-.015c.517-.016.615-.054.812-.317.09-.12.09-.145.09-4.597 0-4.45 0-4.475-.09-4.596-.197-.263-.295-.301-.81-.317l-.478-.015-.014-.828c-.015-.903-.026-.944-.31-1.156-.145-.109-.495-.139-.67-.058zm.988 10.485v-7.03h-1.406v7.03h1.406zM17.292 2.866a.754.754 0 0 0-.37.394c-.03.079-.047.658-.047 1.589v1.465l-.48.015c-.52.016-.617.054-.814.317-.09.12-.09.152-.09 3.894 0 3.741 0 3.773.09 3.893.197.263.295.302.81.318l.476.014.015.477c.016.515.054.613.317.81.17.126.587.126.757 0 .263-.197.302-.295.317-.81l.015-.477.477-.014c.514-.016.613-.055.81-.318.089-.12.09-.152.09-3.893 0-3.742-.001-3.773-.09-3.894-.197-.263-.295-.301-.812-.317l-.479-.015-.013-1.53c-.012-1.468-.016-1.537-.103-1.653a1.226 1.226 0 0 0-.205-.207c-.146-.109-.496-.139-.67-.058zm.989 10.486V7.728h-1.406v5.624h1.406z" fill="#7A7A7A"/>
</svg>
