<svg width="21" height="20" viewBox="0 0 21 20" fill="none" xmlns="http://www.w3.org/2000/svg">
    <path fill-rule="evenodd" clip-rule="evenodd" d="M.946 5.694A10.1 10.1 0 0 1 9.29.038c.69-.05.716-.05 1.367-.004 2.442.174 4.637 1.16 6.357 2.857C19.9 5.74 20.799 9.97 19.32 13.758c-.885 2.266-2.693 4.232-4.886 5.31-.742.365-1.904.764-2.588.888a3.96 3.96 0 0 1-1.26-.014c-.822-.158-1.3-.48-1.592-1.07-.141-.287-.16-.363-.175-.72-.023-.523.072-.82.488-1.535.746-1.279.913-1.778.918-2.741.003-.491-.013-.656-.093-.953-.386-1.437-1.272-2.384-2.693-2.881-.853-.298-1.733-.332-2.655-.102-.477.12-.808.282-1.435.706-.75.506-1.016.603-1.563.57-.681-.043-1.19-.402-1.519-1.07-.218-.444-.287-.77-.264-1.25.04-.831.426-2.146.942-3.202zM16.6 4.459c-1.37-1.634-3.555-2.762-5.771-2.98-2.387-.236-4.765.529-6.617 2.127-.724.624-1.269 1.289-1.778 2.166C1.708 7.025 1.18 8.775 1.35 9.377c.093.336.393.518.758.462.203-.031.314-.09.712-.376a5.605 5.605 0 0 1 2.103-.915c.352-.076.572-.093 1.155-.093 1.039 0 1.655.136 2.544.563 1.437.69 2.474 1.967 2.892 3.563.146.556.182 1.577.078 2.189a5.949 5.949 0 0 1-.948 2.327c-.511.732-.22 1.469 1.475 1.469 2.167-.569 4.015-1.94 5.237-3.885.474-.754.83-1.616 1.079-2.605.65-2.59-.047-5.488-1.834-7.617z" fill="#7A7A7A"/>
    <path fill-rule="evenodd" clip-rule="evenodd" d="M5.086 4.384a1.643 1.643 0 0 0-1.146.724c-.228.348-.299.614-.278 1.05.023.489.18.823.543 1.159.352.326.625.428 1.145.428.506 0 .79-.103 1.12-.404.417-.38.6-.831.567-1.394-.057-.991-.941-1.7-1.951-1.563zm.921 1.664c0-.319-.084-.458-.361-.6a.865.865 0 0 0-.296-.095c-.17 0-.477.176-.583.335a.743.743 0 0 0-.01.715.691.691 0 0 0 1.134.062c.098-.128.116-.193.116-.417zM10.227 2.697a1.643 1.643 0 0 0-1.146.724c-.228.347-.299.613-.278 1.05.024.488.18.822.543 1.158.352.326.625.428 1.145.428.506 0 .79-.102 1.12-.403.417-.381.6-.831.567-1.395-.057-.99-.941-1.699-1.951-1.562zm.921 1.664c0-.32-.084-.459-.36-.6a.866.866 0 0 0-.297-.096c-.17 0-.477.176-.582.335a.743.743 0 0 0-.012.715.691.691 0 0 0 1.135.063c.098-.128.116-.194.116-.417zM14.498 5.255a1.643 1.643 0 0 0-1.146.724c-.229.348-.3.614-.278 1.05.023.489.18.823.542 1.159.353.326.625.428 1.146.428.506 0 .79-.103 1.12-.404.416-.38.6-.83.567-1.394-.058-.991-.942-1.7-1.952-1.563zm.92 1.664c0-.319-.083-.458-.36-.6a.866.866 0 0 0-.296-.095c-.171 0-.478.176-.583.335a.743.743 0 0 0-.011.715.691.691 0 0 0 1.135.062c.098-.128.116-.193.116-.417zM15.191 10.013c-.464.063-.885.329-1.145.724-.229.348-.3.614-.279 1.05.024.488.18.823.543 1.159.352.326.625.428 1.145.428.506 0 .791-.103 1.12-.404.417-.38.6-.831.567-1.394-.057-.992-.94-1.7-1.95-1.563zm.921 1.664c0-.319-.083-.458-.36-.6a.866.866 0 0 0-.297-.095c-.17 0-.477.176-.582.335a.743.743 0 0 0-.011.714.69.69 0 0 0 1.135.063c.097-.128.116-.193.116-.417zM13.491 14.08c-.464.062-.885.328-1.145.724-.229.347-.3.613-.279 1.05.024.488.18.822.543 1.158.352.326.625.428 1.145.428.506 0 .79-.102 1.12-.404.417-.38.6-.83.567-1.394-.057-.991-.941-1.7-1.95-1.563zm.921 1.663c0-.318-.084-.458-.36-.6a.866.866 0 0 0-.297-.095c-.17 0-.477.176-.582.335a.743.743 0 0 0-.011.715.691.691 0 0 0 1.135.063c.097-.129.115-.194.115-.418z" fill="#7A7A7A"/>
</svg>
