<svg width="248" height="186" viewBox="0 0 248 186" fill="none" xmlns="http://www.w3.org/2000/svg">
<g clip-path="url(#clip0_819_43705)">
<path d="M248 163.414H0V163.538H248V163.414Z" fill="#EBEBEB"/>
<path d="M223.154 171.402H206.727V171.526H223.154V171.402Z" fill="#EBEBEB"/>
<path d="M164.281 172.75H144.828V172.874H164.281V172.75Z" fill="#EBEBEB"/>
<path d="M206.227 166.793H177.945V166.917H206.227V166.793Z" fill="#EBEBEB"/>
<path d="M120.58 167.629H86.5391V167.753H120.58V167.629Z" fill="#EBEBEB"/>
<path d="M128.14 167.629H125V167.753H128.14V167.629Z" fill="#EBEBEB"/>
<path d="M111.671 169.723H48.7734V169.847H111.671V169.723Z" fill="#EBEBEB"/>
<path d="M117.553 141.269H21.7803C21.03 141.268 20.311 140.968 19.7809 140.437C19.2508 139.905 18.9531 139.185 18.9531 138.434V3.66955C18.9597 2.92283 19.2602 2.20885 19.7896 1.68268C20.319 1.15651 21.0343 0.860654 21.7803 0.859375H117.553C118.304 0.859375 119.024 1.15806 119.556 1.68973C120.087 2.22139 120.385 2.94249 120.385 3.69438V138.434C120.385 139.186 120.087 139.907 119.556 140.439C119.024 140.97 118.304 141.269 117.553 141.269ZM21.7803 0.958675C21.0629 0.95999 20.3754 1.24618 19.8686 1.75442C19.3618 2.26267 19.0771 2.95144 19.0771 3.66955V138.434C19.0771 139.152 19.3618 139.841 19.8686 140.349C20.3754 140.857 21.0629 141.143 21.7803 141.145H117.553C118.271 141.143 118.959 140.857 119.466 140.349C119.974 139.841 120.26 139.152 120.261 138.434V3.66955C120.26 2.95099 119.974 2.26223 119.466 1.75412C118.959 1.24602 118.271 0.959987 117.553 0.958675H21.7803Z" fill="#EBEBEB"/>
<path d="M224.844 141.269H129.067C128.316 141.268 127.596 140.969 127.065 140.437C126.535 139.906 126.236 139.185 126.234 138.434V3.66955C126.242 2.92238 126.544 2.2084 127.074 1.68237C127.604 1.15633 128.32 0.86064 129.067 0.859375H224.844C225.589 0.861959 226.303 1.15839 226.832 1.68442C227.36 2.21045 227.66 2.92369 227.666 3.66955V138.434C227.666 139.184 227.369 139.904 226.84 140.435C226.311 140.966 225.594 141.266 224.844 141.269ZM129.067 0.958675C128.349 0.959987 127.661 1.24602 127.153 1.75412C126.645 2.26223 126.36 2.95099 126.358 3.66955V138.434C126.36 139.152 126.645 139.841 127.153 140.349C127.661 140.857 128.349 141.143 129.067 141.145H224.844C225.562 141.143 226.25 140.857 226.758 140.349C227.265 139.841 227.551 139.152 227.552 138.434V3.66955C227.551 2.95099 227.265 2.26223 226.758 1.75412C226.25 1.24602 225.562 0.959987 224.844 0.958675H129.067Z" fill="#EBEBEB"/>
<path d="M63.7129 31H33.5312V74.8606H63.7129V31Z" fill="#E0E0E0"/>
<path d="M65.5034 31H34.7266V74.8606H65.5034V31Z" fill="#F5F5F5"/>
<path d="M37.3125 34.4608V71.4102H62.9359V34.4608H37.3125Z" fill="white"/>
<path d="M52.5091 50.1818H56.2837C56.2837 47.9103 55.3823 45.7319 53.7777 44.1257C52.1731 42.5195 49.9969 41.6172 47.7277 41.6172H43.9531C43.9531 42.7419 44.1744 43.8556 44.6044 44.8947C45.0344 45.9338 45.6646 46.878 46.4591 47.6733C47.2536 48.4686 48.1968 49.0994 49.2349 49.5298C50.2729 49.9602 51.3855 50.1818 52.5091 50.1818Z" fill="#F5F5F5"/>
<path d="M52.5091 64.256H56.2837C56.2837 61.9845 55.3823 59.8061 53.7777 58.1999C52.1731 56.5937 49.9969 55.6914 47.7277 55.6914H43.9531C43.9544 57.9625 44.8563 60.1401 46.4606 61.746C48.0648 63.3519 50.2403 64.2547 52.5091 64.256Z" fill="#F5F5F5"/>
<path d="M104.01 21.8867H73.8281V65.7473H104.01V21.8867Z" fill="#E0E0E0"/>
<path d="M105.8 21.8867H75.0234V65.7473H105.8V21.8867Z" fill="#F5F5F5"/>
<path d="M77.6016 25.3436V62.293H103.22V25.3436H77.6016Z" fill="white"/>
<path d="M81.5724 44.8035L89.4321 52.6712C91.1696 54.4104 93.9866 54.4104 95.7241 52.6712L99.2559 49.1358C100.993 47.3966 100.993 44.5767 99.2559 42.8375L91.3962 34.9699C89.6587 33.2306 86.8417 33.2306 85.1042 34.9699L81.5724 38.5052C79.8349 40.2444 79.8349 43.0643 81.5724 44.8035Z" fill="#F5F5F5"/>
<path d="M213.18 13.1562H135.992V98.107H213.18V13.1562Z" fill="#E6E6E6"/>
<path d="M215.704 13.1562H137.172V98.107H215.704V13.1562Z" fill="#F0F0F0"/>
<path d="M213.18 98.1094H135.992V100.453H213.18V98.1094Z" fill="#E6E6E6"/>
<path d="M219.899 98.1094H141.367V100.453H219.899V98.1094Z" fill="#F0F0F0"/>
<path d="M212.172 94.5781V16.6875L140.693 16.6875V94.5781H212.172Z" fill="#FAFAFA"/>
<path d="M186.195 94.577L191.845 16.6914H201.616L195.967 94.577H186.195Z" fill="white"/>
<path d="M142.354 55.5004C142.282 55.4991 142.214 55.4697 142.164 55.4186C142.114 55.3676 142.086 55.2989 142.086 55.2273V18.983C142.086 18.9118 142.114 18.8437 142.164 18.7934C142.215 18.7431 142.283 18.7148 142.354 18.7148C142.425 18.7148 142.493 18.7431 142.543 18.7934C142.593 18.8437 142.622 18.9118 142.622 18.983V55.2273C142.622 55.2989 142.594 55.3676 142.543 55.4186C142.493 55.4697 142.425 55.4991 142.354 55.5004Z" fill="#F0F0F0"/>
<path d="M198.07 94.577L203.72 16.6914H207.529L201.88 94.577H198.07Z" fill="white"/>
<path d="M212.172 94.582V16.6914H211.725V94.582H212.172Z" fill="#E6E6E6"/>
<path opacity="0.5" d="M216.531 26.066H139.338L139.016 18.0625H216.203L216.531 26.066Z" fill="#E0E0E0"/>
<path opacity="0.5" d="M216.531 39.2223H139.338L139.016 31.2188H216.203L216.531 39.2223Z" fill="#E0E0E0"/>
<path opacity="0.5" d="M216.531 52.3746H139.338L139.016 44.3711H216.203L216.531 52.3746Z" fill="#E0E0E0"/>
<path opacity="0.5" d="M216.531 65.5348H139.338L139.016 57.5312H216.203L216.531 65.5348Z" fill="#E0E0E0"/>
<path opacity="0.5" d="M216.531 78.691H139.338L139.016 70.6875H216.203L216.531 78.691Z" fill="#E0E0E0"/>
<path opacity="0.5" d="M216.531 91.8473H139.338L139.016 83.8438H216.203L216.531 91.8473Z" fill="#E0E0E0"/>
<path d="M45.0097 94.5469H36.4141V161.092H45.0097V94.5469Z" fill="#F0F0F0"/>
<path d="M104.391 161.094H37.6094V163.407H104.391V161.094Z" fill="#E6E6E6"/>
<path d="M45.0116 161.094H105.578L105.578 94.5482L45.0116 94.5482L45.0116 161.094Z" fill="#FAFAFA"/>
<path d="M94.9026 135.804H55.6789C54.6266 135.804 53.6173 135.386 52.8731 134.641C52.129 133.896 51.7109 132.885 51.7109 131.832V123.292C51.7109 122.239 52.129 121.229 52.8731 120.484C53.6173 119.739 54.6266 119.32 55.6789 119.32H94.9026C95.955 119.32 96.9643 119.739 97.7084 120.484C98.4526 121.229 98.8706 122.239 98.8706 123.292V131.832C98.8706 132.885 98.4526 133.896 97.7084 134.641C96.9643 135.386 95.955 135.804 94.9026 135.804ZM55.6789 119.812C54.7581 119.812 53.875 120.178 53.2239 120.83C52.5727 121.482 52.2069 122.366 52.2069 123.287V131.827C52.2069 132.749 52.5727 133.633 53.2239 134.285C53.875 134.936 54.7581 135.303 55.6789 135.303H94.9026C95.8234 135.303 96.7066 134.936 97.3577 134.285C98.0088 133.633 98.3746 132.749 98.3746 131.827V123.287C98.3746 122.366 98.0088 121.482 97.3577 120.83C96.7066 120.178 95.8234 119.812 94.9026 119.812H55.6789Z" fill="#F0F0F0"/>
<path d="M94.9026 156.382H55.6789C54.6266 156.382 53.6173 155.964 52.8731 155.219C52.129 154.474 51.7109 153.464 51.7109 152.411V143.851C51.7109 142.797 52.129 141.787 52.8731 141.042C53.6173 140.297 54.6266 139.879 55.6789 139.879H94.9026C95.955 139.879 96.9643 140.297 97.7084 141.042C98.4526 141.787 98.8706 142.797 98.8706 143.851V152.391C98.8732 152.914 98.7725 153.433 98.5743 153.917C98.376 154.401 98.0842 154.841 97.7155 155.212C97.3467 155.583 96.9084 155.877 96.4257 156.078C95.943 156.279 95.4254 156.382 94.9026 156.382ZM55.6789 140.375C54.7581 140.375 53.875 140.742 53.2239 141.393C52.5727 142.045 52.2069 142.929 52.2069 143.851V152.391C52.2069 153.312 52.5727 154.196 53.2239 154.848C53.875 155.5 54.7581 155.866 55.6789 155.866H94.9026C95.8234 155.866 96.7066 155.5 97.3577 154.848C98.0088 154.196 98.3746 153.312 98.3746 152.391V143.851C98.3746 142.929 98.0088 142.045 97.3577 141.393C96.7066 140.742 95.8234 140.375 94.9026 140.375H55.6789Z" fill="#F0F0F0"/>
<path d="M76.3802 122.316H74.2126C73.7716 122.316 73.4141 122.674 73.4141 123.116V124.968C73.4141 125.409 73.7716 125.767 74.2126 125.767H76.3802C76.8212 125.767 77.1787 125.409 77.1787 124.968V123.116C77.1787 122.674 76.8212 122.316 76.3802 122.316Z" fill="#F0F0F0"/>
<path d="M94.9026 115.218H55.6789C54.6266 115.218 53.6173 114.8 52.8731 114.055C52.129 113.31 51.7109 112.3 51.7109 111.246V102.706C51.7109 101.653 52.129 100.643 52.8731 99.8977C53.6173 99.1528 54.6266 98.7344 55.6789 98.7344H94.9026C95.955 98.7344 96.9643 99.1528 97.7084 99.8977C98.4526 100.643 98.8706 101.653 98.8706 102.706V111.246C98.8706 112.3 98.4526 113.31 97.7084 114.055C96.9643 114.8 95.955 115.218 94.9026 115.218ZM55.6789 99.2259C54.7581 99.2259 53.875 99.5921 53.2239 100.244C52.5727 100.896 52.2069 101.78 52.2069 102.701V111.241C52.2069 112.163 52.5727 113.047 53.2239 113.699C53.875 114.35 54.7581 114.717 55.6789 114.717H94.9026C95.8234 114.717 96.7066 114.35 97.3577 113.699C98.0088 113.047 98.3746 112.163 98.3746 111.241V102.701C98.3746 101.78 98.0088 100.896 97.3577 100.244C96.7066 99.5921 95.8234 99.2259 94.9026 99.2259H55.6789Z" fill="#F0F0F0"/>
<path d="M76.3802 101.738H74.2126C73.7716 101.738 73.4141 102.096 73.4141 102.538V104.39C73.4141 104.831 73.7716 105.189 74.2126 105.189H76.3802C76.8212 105.189 77.1787 104.831 77.1787 104.39V102.538C77.1787 102.096 76.8212 101.738 76.3802 101.738Z" fill="#F0F0F0"/>
<path d="M76.3802 142.902H74.2126C73.7716 142.902 73.4141 143.26 73.4141 143.702V145.554C73.4141 145.995 73.7716 146.353 74.2126 146.353H76.3802C76.8212 146.353 77.1787 145.995 77.1787 145.554V143.702C77.1787 143.26 76.8212 142.902 76.3802 142.902Z" fill="#F0F0F0"/>
<path d="M107.155 92.3945H45.0156V94.5493H107.155V92.3945Z" fill="#F0F0F0"/>
<path d="M34.7385 94.5469H45.0156V92.3921H34.7385V94.5469Z" fill="#E6E6E6"/>
<path d="M145.077 124.992L207.781 124.992V115.484H145.077V124.992Z" fill="#EBEBEB"/>
<path d="M145.079 124.992H172.344V115.484H145.079V124.992Z" fill="#E0E0E0"/>
<path d="M198.516 163.414H207.781V124.995H198.516V163.414Z" fill="#EBEBEB"/>
<path d="M198.516 127.653L207.781 126.323V124.992H198.516V127.653Z" fill="#E0E0E0"/>
<path d="M145.078 163.414H154.344V124.995H145.078V163.414Z" fill="#E0E0E0"/>
<path d="M163.086 163.414H172.352V124.995H163.086V163.414Z" fill="#EBEBEB"/>
<path d="M163.078 127.653L172.343 126.323V124.992H163.078V127.653Z" fill="#E0E0E0"/>
<path d="M180.516 163.414H189.781V124.995H180.516V163.414Z" fill="#E0E0E0"/>
<path d="M123.998 185.834C177.11 185.834 220.167 183.318 220.167 180.214C220.167 177.11 177.11 174.594 123.998 174.594C70.8847 174.594 27.8281 177.11 27.8281 180.214C27.8281 183.318 70.8847 185.834 123.998 185.834Z" fill="#F5F5F5"/>
<path d="M121.16 95.5833L112.053 67.3922C111.864 66.8745 111.564 66.4046 111.174 66.0153C110.784 65.6259 110.314 65.3265 109.797 65.1381C110.218 64.9458 110.574 64.6339 110.82 64.2412C111.066 63.8484 111.191 63.3921 111.18 62.9286L110.516 34.4396C110.495 33.7928 110.226 33.1789 109.764 32.7264C109.301 32.2739 108.682 32.0178 108.036 32.0117H57.6371C57.3214 32.011 57.0087 32.0735 56.7174 32.1956C56.4262 32.3178 56.1623 32.497 55.9414 32.7228C55.7204 32.9486 55.5468 33.2164 55.4309 33.5104C55.315 33.8044 55.259 34.1186 55.2663 34.4346L55.9259 62.9237C55.9357 63.2705 56.018 63.6114 56.1675 63.9243C56.3171 64.2373 56.5304 64.5155 56.7939 64.7409C56.9312 64.8562 57.0217 65.0178 57.0482 65.1952C57.0747 65.3726 57.0354 65.5536 56.9378 65.7041C56.7925 65.9572 56.7047 66.2392 56.6807 66.5301C56.6567 66.821 56.6971 67.1137 56.7989 67.3872L65.9055 95.6032C66.1452 96.2786 66.5774 96.869 67.1486 97.3013C67.7198 97.7337 68.405 97.9891 69.1195 98.036H119.538C120.852 98.0161 121.591 96.9189 121.16 95.5833Z" fill="#263238"/>
<path d="M121.796 95.5833L112.689 67.3922C112.501 66.8737 112.202 66.403 111.812 66.0134C111.422 65.6239 110.951 65.325 110.432 65.1381C110.854 64.9463 111.21 64.6346 111.456 64.2417C111.702 63.8489 111.827 63.3922 111.816 62.9287L111.156 34.4347C111.141 33.7866 110.873 33.1704 110.409 32.7177C109.946 32.2649 109.324 32.0116 108.676 32.0117H58.2779C57.9619 32.0103 57.6489 32.0724 57.3574 32.1943C57.0658 32.3161 56.8017 32.4954 56.5806 32.7213C56.3595 32.9473 56.1859 33.2153 56.0702 33.5096C55.9545 33.8039 55.899 34.1185 55.907 34.4347L56.5468 62.9237C56.556 63.2701 56.6376 63.6108 56.7862 63.9237C56.9348 64.2367 57.1473 64.5151 57.4099 64.7409C57.548 64.8555 57.6394 65.0168 57.6668 65.1942C57.6942 65.3717 57.6557 65.5531 57.5587 65.7041C57.4134 65.9572 57.3256 66.2392 57.3016 66.5301C57.2776 66.821 57.318 67.1137 57.4198 67.3872L66.5264 95.6032C66.7661 96.2786 67.1983 96.869 67.7695 97.3014C68.3407 97.7337 69.0259 97.9891 69.7404 98.036H120.134C121.488 98.0162 122.227 96.9189 121.796 95.5833Z" fill="#407BFF"/>
<g opacity="0.5">
<path opacity="0.5" d="M78.9155 34.0078H71.168L64.3281 63.3061H72.0756L78.9155 34.0078Z" fill="white"/>
<path opacity="0.5" d="M84.5022 34.0078H81.0352L74.1953 63.3061H77.6624L84.5022 34.0078Z" fill="white"/>
<path opacity="0.5" d="M103.702 34.0078H100.23L93.3906 63.3061H96.8577L103.702 34.0078Z" fill="white"/>
</g>
<path opacity="0.8" d="M59.5539 63.3051C59.2967 63.3052 59.0495 63.2054 58.8645 63.0266C58.6794 62.8479 58.5709 62.6041 58.5619 62.3468L57.9221 34.97C57.9194 34.8451 57.9417 34.7209 57.9877 34.6048C58.0336 34.4886 58.1022 34.3828 58.1895 34.2935C58.2769 34.2043 58.3811 34.1334 58.4961 34.085C58.6112 34.0366 58.7347 34.0117 58.8595 34.0117H108.147C108.404 34.0116 108.651 34.1114 108.837 34.2902C109.022 34.4689 109.13 34.7127 109.139 34.97L109.779 62.3468C109.782 62.4717 109.759 62.5959 109.713 62.712C109.667 62.8282 109.599 62.934 109.511 63.0233C109.424 63.1125 109.32 63.1834 109.205 63.2318C109.09 63.2802 108.966 63.3051 108.841 63.3051H59.5539Z" fill="white"/>
<path opacity="0.2" d="M65.7663 83.9312C65.4849 83.9132 65.2149 83.8128 64.99 83.6424C64.7652 83.472 64.5953 83.2393 64.5015 82.973L59.6407 67.9241C59.5917 67.8184 59.5709 67.7016 59.5803 67.5854C59.5898 67.4692 59.6291 67.3574 59.6946 67.2609C59.76 67.1644 59.8493 67.0865 59.9537 67.0348C60.0581 66.9831 60.1742 66.9594 60.2905 66.9659H109.578C109.859 66.9839 110.129 67.0844 110.354 67.2547C110.579 67.4251 110.749 67.6579 110.843 67.9241L115.704 82.973C115.753 83.0788 115.773 83.1955 115.764 83.3117C115.755 83.428 115.715 83.5398 115.65 83.6363C115.584 83.7328 115.495 83.8107 115.391 83.8623C115.286 83.914 115.17 83.9378 115.054 83.9312H65.7663Z" fill="black"/>
<path opacity="0.2" d="M87.1927 95.7658C87.0286 95.7558 86.8711 95.6978 86.7397 95.599C86.6083 95.5001 86.5088 95.3647 86.4537 95.2097L83.6215 86.4366C83.5933 86.3745 83.5816 86.3062 83.5874 86.2382C83.5932 86.1702 83.6165 86.1049 83.6548 86.0485C83.6932 85.9922 83.7454 85.9466 83.8065 85.9163C83.8675 85.886 83.9354 85.872 84.0034 85.8755H98.0849C98.2494 85.8865 98.407 85.9455 98.5384 86.0452C98.6697 86.1449 98.769 86.281 98.8239 86.4366L101.656 95.1948C101.684 95.2562 101.696 95.3239 101.691 95.3913C101.685 95.4587 101.662 95.5235 101.625 95.5795C101.587 95.6354 101.535 95.6806 101.474 95.7106C101.414 95.7407 101.347 95.7545 101.279 95.7509L87.1927 95.7658Z" fill="black"/>
<path d="M102.511 59.7891H72.3149C71.0055 59.7891 69.9192 60.9112 70.078 63.3043H100.279C100.116 60.936 101.187 59.7792 102.511 59.7891Z" fill="#263238"/>
<path d="M72.3125 59.7891C73.617 59.7891 74.6437 60.9558 74.7925 63.3489C75.2885 70.4787 75.477 87.4638 78.6464 100.969C79.1176 103.297 80.4915 104.722 81.7216 104.156H111.918C110.693 104.722 109.314 103.297 108.843 100.969C105.673 87.4638 105.475 70.4787 104.989 63.3489C104.825 60.9558 103.799 59.804 102.509 59.7891H72.3125Z" fill="#407BFF"/>
<path opacity="0.7" d="M72.3125 59.7891C73.617 59.7891 74.6437 60.9558 74.7925 63.3489C75.2885 70.4787 75.477 87.4638 78.6464 100.969C79.1176 103.297 80.4915 104.722 81.7216 104.156H111.918C110.693 104.722 109.314 103.297 108.843 100.969C105.673 87.4638 105.475 70.4787 104.989 63.3489C104.825 60.9558 103.799 59.804 102.509 59.7891H72.3125Z" fill="white"/>
<path d="M112.479 99.5586H82.2623C82.4359 101.952 81.5232 103.908 80.2188 103.918H110.435C111.74 103.908 112.657 101.952 112.479 99.5586Z" fill="#263238"/>
<path d="M173.602 54.6016C175.155 56.8209 176.578 59.0402 177.908 61.3688C179.311 63.7475 180.516 66.2385 181.509 68.8163C181.777 69.5529 181.993 70.3078 182.153 71.0753C182.193 71.2938 182.228 71.5272 182.257 71.7506C182.287 72.0094 182.304 72.2696 182.307 72.5301C182.3 73.0923 182.213 73.6506 182.049 74.1884C181.776 75.0335 181.372 75.8309 180.854 76.5517C180.423 77.177 179.94 77.7649 179.41 78.3093C177.449 80.2817 175.21 81.9561 172.764 83.2793L171.157 81.0599C172.92 79.3296 174.547 77.4655 176.023 75.4842C176.336 75.0328 176.622 74.5637 176.881 74.0792C177.086 73.7108 177.23 73.3118 177.307 72.8975C177.329 72.8061 177.329 72.7109 177.307 72.6195C177.307 72.5748 177.283 72.4953 177.273 72.4258L177.203 72.1379C177.057 71.6297 176.876 71.132 176.663 70.6484C176.18 69.5429 175.638 68.4639 175.041 67.4162C174.441 66.3239 173.801 65.2365 173.141 64.1542C171.822 61.9944 170.423 59.8148 169.039 57.6997L173.602 54.6016Z" fill="#FFB573"/>
<path d="M171.683 80.7969L169.203 81.8494L171.653 85.2753C171.653 85.2753 173.454 84.2823 173.682 82.5197L171.683 80.7969Z" fill="#FFB573"/>
<path d="M166.977 83.2194L168.559 86.0842L171.649 85.2501L169.199 81.8242L166.977 83.2194Z" fill="#FFB573"/>
<path d="M147.882 117.825L147.461 117.993L144.643 119.145L123.008 66.184L126.242 64.8633L147.882 117.825Z" fill="#F99746"/>
<path opacity="0.3" d="M147.882 117.825L147.461 117.993L144.643 119.145L123.008 66.184L126.242 64.8633L147.882 117.825Z" fill="#C96821"/>
<path d="M154.354 115.186L152.286 116.03L151.12 116.507L129.484 63.5405L132.718 62.2148L154.354 115.186Z" fill="#F68F3E"/>
<path opacity="0.3" d="M154.354 115.186L152.286 116.03L151.12 116.507L129.484 63.5405L132.718 62.2148L154.354 115.186Z" fill="#ED7D2B"/>
<path d="M129.491 63.5387L126.258 64.8594L147.857 117.839L151.09 116.518L129.491 63.5387Z" fill="#F99746"/>
<path d="M127.02 57.9883L124.109 59.1749L123.008 66.1904L132.71 62.2184L127.02 57.9883Z" fill="#DD8585"/>
<path d="M124.581 56.1719L124.109 59.1757L127.021 57.9891L124.581 56.1719Z" fill="#212121"/>
<path d="M155.538 39.6735C155.572 39.9664 155.443 40.2197 155.25 40.2395C155.056 40.2594 154.878 40.0409 154.848 39.743C154.818 39.4451 154.942 39.1969 155.136 39.177C155.329 39.1571 155.508 39.3806 155.538 39.6735Z" fill="#263238"/>
<path d="M155.465 40.2148C155.216 41.148 154.839 42.0419 154.344 42.8711C154.56 42.9922 154.799 43.0647 155.046 43.0836C155.293 43.1024 155.541 43.0672 155.772 42.9803L155.465 40.2148Z" fill="#ED893E"/>
<path d="M156.431 37.9291C156.472 37.9146 156.507 37.8866 156.53 37.8497C156.552 37.8087 156.557 37.7609 156.544 37.7165C156.531 37.672 156.501 37.6343 156.461 37.6114C156.225 37.4719 155.96 37.3906 155.686 37.3742C155.413 37.3578 155.139 37.4067 154.889 37.517C154.849 37.5391 154.819 37.5756 154.805 37.6189C154.792 37.6623 154.795 37.7093 154.814 37.7504C154.835 37.7911 154.872 37.8218 154.916 37.8357C154.959 37.8497 155.007 37.8458 155.047 37.8248C155.247 37.7399 155.464 37.7037 155.681 37.7192C155.897 37.7348 156.107 37.8016 156.292 37.9142C156.313 37.9262 156.336 37.9337 156.36 37.9363C156.384 37.9388 156.408 37.9364 156.431 37.9291Z" fill="#263238"/>
<path d="M164.905 41.832C164.384 44.5032 163.864 49.3937 165.729 51.1712C165.729 51.1712 164.999 53.8771 160.044 53.8771C154.588 53.8771 157.44 51.1712 157.44 51.1712C160.416 50.4612 160.337 48.2567 159.821 46.1813L164.905 41.832Z" fill="#FFB573"/>
<path d="M166.838 52.0707C167.334 51.7033 167.091 50.2585 166.402 49.7372C165.236 48.8534 159.715 48.486 157.31 50.184C156.841 50.8136 156.632 51.599 156.725 52.3785L166.838 52.0707Z" fill="#407BFF"/>
<path d="M181.003 176.207C180.854 176.253 180.697 176.269 180.542 176.253C180.387 176.236 180.237 176.189 180.101 176.113C180.05 176.061 180.016 175.994 180.004 175.922C179.993 175.85 180.004 175.776 180.036 175.711C180.055 175.656 180.086 175.605 180.126 175.563C180.166 175.521 180.215 175.489 180.269 175.467C180.765 175.259 181.881 175.775 181.926 175.795C181.942 175.801 181.956 175.812 181.965 175.826C181.974 175.841 181.978 175.858 181.975 175.875C181.975 175.891 181.971 175.907 181.962 175.921C181.953 175.935 181.941 175.947 181.926 175.954C181.628 176.071 181.319 176.155 181.003 176.207ZM180.443 175.597C180.407 175.603 180.372 175.613 180.339 175.626C180.307 175.638 180.278 175.657 180.254 175.681C180.23 175.705 180.212 175.734 180.2 175.765C180.145 175.919 180.2 175.974 180.2 175.989C180.388 176.168 181.122 176.048 181.643 175.87C181.268 175.692 180.858 175.599 180.443 175.597Z" fill="#407BFF"/>
<path d="M181.899 175.96H181.854C181.453 175.821 180.6 175.151 180.609 174.738C180.613 174.673 180.638 174.612 180.682 174.563C180.725 174.514 180.783 174.482 180.848 174.47C180.91 174.45 180.976 174.444 181.042 174.453C181.107 174.462 181.169 174.484 181.224 174.52C181.72 174.793 181.959 175.816 181.968 175.861C181.97 175.876 181.969 175.891 181.965 175.905C181.961 175.92 181.953 175.933 181.944 175.945L181.899 175.96ZM180.932 174.619H180.892C180.788 174.654 180.783 174.704 180.783 174.729C180.783 174.972 181.334 175.493 181.75 175.722C181.658 175.315 181.446 174.947 181.14 174.664C181.076 174.631 181.003 174.621 180.932 174.634V174.619Z" fill="#407BFF"/>
<path d="M156.037 176.675C155.566 176.675 155.115 176.61 154.966 176.402C154.927 176.347 154.906 176.281 154.906 176.213C154.906 176.146 154.927 176.08 154.966 176.025C154.996 175.974 155.036 175.929 155.084 175.895C155.132 175.86 155.186 175.835 155.244 175.821C155.849 175.657 157.124 176.382 157.173 176.417C157.19 176.424 157.203 176.437 157.211 176.454C157.219 176.47 157.222 176.488 157.218 176.506C157.214 176.523 157.206 176.539 157.193 176.551C157.181 176.564 157.165 176.572 157.148 176.576C156.781 176.64 156.41 176.673 156.037 176.675ZM155.457 175.97C155.403 175.962 155.348 175.962 155.293 175.97C155.258 175.976 155.225 175.99 155.196 176.011C155.167 176.031 155.142 176.058 155.125 176.089C155.06 176.198 155.085 176.253 155.125 176.283C155.293 176.516 156.216 176.521 156.895 176.427C156.45 176.182 155.962 176.027 155.457 175.97Z" fill="#407BFF"/>
<path d="M157.135 176.577H157.1C156.659 176.379 155.786 175.584 155.855 175.177C155.855 175.078 155.94 174.959 156.178 174.934C156.266 174.924 156.356 174.932 156.441 174.957C156.526 174.983 156.606 175.026 156.674 175.083C157.135 175.465 157.234 176.448 157.239 176.488C157.241 176.503 157.239 176.519 157.233 176.533C157.227 176.547 157.217 176.559 157.205 176.567C157.184 176.58 157.159 176.583 157.135 176.577ZM156.242 175.088H156.193C156.039 175.088 156.029 175.162 156.024 175.182C155.984 175.431 156.575 176.051 157.016 176.319C156.968 175.903 156.795 175.512 156.52 175.197C156.438 175.136 156.34 175.101 156.237 175.098L156.242 175.088Z" fill="#407BFF"/>
<path d="M161.143 176.488H157.503L157.141 168.043H160.781L161.143 176.488Z" fill="#FFB573"/>
<path d="M186.002 175.19L182.411 175.785L179.227 167.752L182.823 167.156L186.002 175.19Z" fill="#FFB573"/>
<path d="M182.087 175.416L186.13 174.75C186.2 174.739 186.273 174.751 186.335 174.787C186.397 174.822 186.446 174.877 186.472 174.944L187.712 178.022C187.742 178.098 187.755 178.179 187.749 178.26C187.743 178.341 187.719 178.419 187.678 178.49C187.638 178.56 187.582 178.62 187.514 178.666C187.447 178.711 187.37 178.741 187.29 178.752C185.877 178.961 185.177 178.99 183.402 179.283C182.31 179.467 179.84 179.939 178.332 180.187C176.825 180.435 176.378 178.976 176.973 178.737C179.642 177.675 180.788 176.677 181.542 175.733C181.678 175.564 181.872 175.451 182.087 175.416Z" fill="#263238"/>
<path d="M157.521 176.07H161.489C161.562 176.07 161.633 176.094 161.69 176.139C161.746 176.184 161.786 176.248 161.802 176.319L162.521 179.561C162.538 179.639 162.538 179.72 162.519 179.798C162.501 179.876 162.465 179.949 162.414 180.011C162.364 180.073 162.3 180.123 162.227 180.156C162.155 180.19 162.075 180.207 161.995 180.206C160.562 180.206 158.484 180.102 156.683 180.102C154.57 180.102 152.75 180.216 150.275 180.216C148.787 180.216 148.365 178.702 148.99 178.563C151.842 177.942 154.169 177.873 156.634 176.353C156.897 176.178 157.205 176.08 157.521 176.07Z" fill="#263238"/>
<path d="M172.249 52.0007C175.721 52.4376 179.401 60.8383 179.401 60.8383L173.102 66.7268C171.146 65.0218 169.665 62.8369 168.807 60.3865C167.185 55.9726 168.693 51.5488 172.249 52.0007Z" fill="#407BFF"/>
<g opacity="0.4">
<path opacity="0.4" d="M172.249 52.0007C175.721 52.4376 179.401 60.8383 179.401 60.8383L173.102 66.7268C171.146 65.0218 169.665 62.8369 168.807 60.3865C167.185 55.9726 168.693 51.5488 172.249 52.0007Z" fill="black"/>
</g>
<path opacity="0.2" d="M169.98 58.6797C172.009 60.3181 172.956 63.5901 173.383 66.4697L173.105 66.7329C171.147 65.0265 169.665 62.84 168.805 60.3876C168.711 60.1245 168.621 59.8564 168.547 59.5982L169.98 58.6797Z" fill="black"/>
<path d="M151.834 52.1829C151.834 52.1829 147.96 56.567 151.62 83.7105H171.118C171.252 80.7315 169.372 66.1047 172.259 51.9942C170.105 51.579 167.926 51.3037 165.736 51.17C162.976 51.011 160.209 51.011 157.448 51.17C155.553 51.3609 153.676 51.6996 151.834 52.1829Z" fill="#407BFF"/>
<g opacity="0.4">
<path opacity="0.4" d="M151.834 52.1829C151.834 52.1829 147.96 56.567 151.62 83.7105H171.118C171.252 80.7315 169.372 66.1047 172.259 51.9942C170.105 51.579 167.926 51.3037 165.736 51.17C162.976 51.011 160.209 51.011 157.448 51.17C155.553 51.3609 153.676 51.6996 151.834 52.1829Z" fill="black"/>
</g>
<path opacity="0.2" d="M150.131 60.4786L150.205 60.4141L154.635 61.4766C154.888 64.4556 151.808 68.0601 150.22 69.6986C150.024 66.6291 149.994 63.5513 150.131 60.4786Z" fill="black"/>
<path opacity="0.2" d="M157.141 168.047L157.329 172.401H160.97L160.786 168.047H157.141Z" fill="black"/>
<path opacity="0.2" d="M182.823 167.164L179.227 167.755L180.868 171.896L184.464 171.305L182.823 167.164Z" fill="black"/>
<path d="M165.213 37.9731C165.386 41.5876 165.674 43.6977 164.067 45.7383C161.646 48.8116 157.033 47.6597 155.784 44.1694C154.658 41.0265 154.558 35.6395 157.916 33.8223C158.655 33.4263 159.482 33.2242 160.32 33.2348C161.158 33.2453 161.98 33.4683 162.708 33.8828C163.437 34.2973 164.049 34.8898 164.487 35.6051C164.925 36.3204 165.174 37.135 165.213 37.9731Z" fill="#FFB573"/>
<path d="M157.85 40.8289C156.228 40.9133 156.283 40.3622 156.283 40.3622C156.283 40.3622 156.888 38.6542 156.804 37.9392C156.223 37.691 155.698 35.9533 155.772 35.4568C155.013 35.5908 152.037 33.3864 155.896 30.9883C156.972 31.8174 158.614 31.743 160.058 31.3755C162.979 30.6308 167.587 31.4947 166.615 33.6942C168.351 33.6942 169.164 37.9889 167.304 40.3423C165.35 42.8248 165.816 45.7194 163.832 45.9974C161.848 46.2754 160.415 44.7264 160.415 44.7264C160.415 44.7264 159.502 39.9451 157.85 40.8289Z" fill="#263238"/>
<path d="M166.383 33.7671C166.383 33.7671 167.623 33.4096 166.73 31.6719C168.025 31.9598 168.699 34.0004 166.383 33.7671Z" fill="#263238"/>
<path d="M159.737 39.5266C159.777 40.4262 159.517 41.3135 158.998 42.0489C158.313 43.0121 157.426 42.5454 157.163 41.5226C156.925 40.5842 156.999 38.9507 157.907 38.3599C158.814 37.769 159.673 38.4443 159.737 39.5266Z" fill="#FFB573"/>
<path d="M158.539 83.7113C158.539 83.7113 162.691 111.58 164.942 122.006C167.422 133.426 178.945 171.279 178.945 171.279L185.467 169.864C185.467 169.864 177.962 139.031 175.874 123.044C174.272 110.765 171.113 83.6914 171.113 83.6914L158.539 83.7113Z" fill="#407BFF"/>
<path d="M177.383 169.118C177.358 169.118 178.598 171.482 178.598 171.482L185.939 169.888L185.319 167.684L177.383 169.118Z" fill="#263238"/>
<path opacity="0.3" d="M161.147 93.6407C165.928 94.5791 165.422 112.428 164.847 121.608C163.468 115.119 161.449 102.632 160.07 93.7698C160.404 93.6052 160.784 93.5597 161.147 93.6407Z" fill="black"/>
<path d="M151.62 83.7109C151.62 83.7109 150.107 110.984 150.504 122.105C150.916 133.674 155.96 171.556 155.96 171.556H162.13C162.13 171.556 161.346 134.349 161.634 122.989C161.937 110.576 165.642 83.7109 165.642 83.7109H151.62Z" fill="#407BFF"/>
<path d="M154.775 169.094C154.745 169.094 155.122 171.661 155.122 171.661H162.632L162.835 169.372L154.775 169.094Z" fill="#263238"/>
<path d="M155.045 57.7676C154.599 59.1975 154.103 60.4834 153.557 61.8141C153.012 63.1447 152.441 64.4306 151.811 65.7165C150.542 68.3876 148.944 70.8895 147.055 73.164C146.521 73.7725 145.946 74.3431 145.334 74.872C144.675 75.4393 143.95 75.926 143.176 76.3217C142.492 76.657 141.79 76.9537 141.073 77.2105C140.394 77.4637 139.719 77.7069 139.039 77.9006C136.372 78.7214 133.65 79.3568 130.895 79.8022L130.102 77.1856L137.452 73.7747C138.597 73.2444 139.715 72.6561 140.8 72.0121C141.217 71.7386 141.608 71.4261 141.966 71.0787C142.363 70.6827 142.735 70.2633 143.082 69.8226C143.828 68.8475 144.501 67.8186 145.096 66.7443C145.721 65.6421 146.306 64.4902 146.851 63.3085C147.397 62.1269 147.913 60.9204 148.414 59.7089C148.915 58.4975 149.376 57.2264 149.788 56.0547L155.045 57.7676Z" fill="#FFB573"/>
<path d="M157.154 55.8284C159.971 59.994 153.384 67.5954 153.384 67.5954L146.023 62.4665C146.526 59.8747 147.359 57.3583 148.503 54.9794C150.924 49.9548 155.016 52.6607 157.154 55.8284Z" fill="#407BFF"/>
<g opacity="0.4">
<path opacity="0.4" d="M157.154 55.8284C159.971 59.994 153.384 67.5954 153.384 67.5954L146.023 62.4665C146.526 59.8747 147.359 57.3583 148.503 54.9794C150.924 49.9548 155.016 52.6607 157.154 55.8284Z" fill="black"/>
</g>
<path d="M132.143 76.8594L127.609 77.3559L128.661 81.2037C128.661 81.2037 131.875 81.308 132.922 78.8652L132.143 76.8594Z" fill="#FFB573"/>
<path d="M126.148 78.5144L127.021 81.6672L128.658 81.1905L127.607 77.3477L126.148 78.5144Z" fill="#FFB573"/>
<path d="M79.8906 67.5234H98.551" stroke="white" stroke-width="2" stroke-linecap="round"/>
<path d="M79.8906 73.4609H95.3052" stroke="white" stroke-width="2" stroke-linecap="round"/>
<path d="M81.0938 83.9297H92.6307" stroke="white" stroke-width="2" stroke-linecap="round"/>
<path d="M82.2031 89.4844H97.6177" stroke="white" stroke-width="2" stroke-linecap="round"/>
<path d="M80.4141 78.6914H99.3994" stroke="white" stroke-width="2" stroke-linecap="round"/>
</g>
<defs>
<clipPath id="clip0_819_43705">
<rect width="248" height="185" fill="white" transform="translate(0 0.835938)"/>
</clipPath>
</defs>
</svg>
