<svg width="42" height="43" viewBox="0 0 42 43" fill="none" xmlns="http://www.w3.org/2000/svg">
<circle cx="21" cy="21.0234" r="21" fill="#E5EEFE"/>
<path d="M28.2016 15.3466V24.625C28.2016 25.5798 27.8223 26.4955 27.1471 27.1706C26.472 27.8457 25.5563 28.225 24.6016 28.225H15.3232C15.5338 28.5898 15.8368 28.8928 16.2016 29.1034C16.5664 29.3141 16.9803 29.425 17.4016 29.425H24.6016C25.8746 29.425 27.0955 28.9193 27.9957 28.0191C28.8959 27.1189 29.4016 25.898 29.4016 24.625V17.425C29.4016 17.0037 29.2907 16.5899 29.08 16.225C28.8694 15.8602 28.5664 15.5572 28.2016 15.3466ZM22.8016 20.425C22.9607 20.425 23.1133 20.3618 23.2258 20.2493C23.3383 20.1367 23.4016 19.9841 23.4016 19.825C23.4016 19.6659 23.3383 19.5133 23.2258 19.4007C23.1133 19.2882 22.9607 19.225 22.8016 19.225H20.4016V16.825C20.4016 16.6659 20.3383 16.5133 20.2258 16.4007C20.1133 16.2882 19.9607 16.225 19.8016 16.225C19.6424 16.225 19.4898 16.2882 19.3773 16.4007C19.2648 16.5133 19.2016 16.6659 19.2016 16.825V19.225H16.8016C16.6424 19.225 16.4898 19.2882 16.3773 19.4007C16.2648 19.5133 16.2016 19.6659 16.2016 19.825C16.2016 19.9841 16.2648 20.1367 16.3773 20.2493C16.4898 20.3618 16.6424 20.425 16.8016 20.425H19.2016V22.825C19.2016 22.9841 19.2648 23.1367 19.3773 23.2493C19.4898 23.3618 19.6424 23.425 19.8016 23.425C19.9607 23.425 20.1133 23.3618 20.2258 23.2493C20.3383 23.1367 20.4016 22.9841 20.4016 22.825V20.425H22.8016ZM24.6016 12.625C25.2381 12.625 25.8485 12.8779 26.2986 13.3279C26.7487 13.778 27.0016 14.3885 27.0016 15.025V24.625C27.0016 25.2615 26.7487 25.872 26.2986 26.3221C25.8485 26.7721 25.2381 27.025 24.6016 27.025H15.0016C14.365 27.025 13.7546 26.7721 13.3045 26.3221C12.8544 25.872 12.6016 25.2615 12.6016 24.625V15.025C12.6016 14.3885 12.8544 13.778 13.3045 13.3279C13.7546 12.8779 14.365 12.625 15.0016 12.625H24.6016ZM25.8016 15.025C25.8016 14.7067 25.6751 14.4015 25.4501 14.1765C25.225 13.9514 24.9198 13.825 24.6016 13.825H15.0016C14.6833 13.825 14.3781 13.9514 14.153 14.1765C13.928 14.4015 13.8016 14.7067 13.8016 15.025V24.625C13.8016 24.9433 13.928 25.2485 14.153 25.4735C14.3781 25.6986 14.6833 25.825 15.0016 25.825H24.6016C24.9198 25.825 25.225 25.6986 25.4501 25.4735C25.6751 25.2485 25.8016 24.9433 25.8016 24.625V15.025Z" fill="#0559FF"/>
</svg>
