<svg width="159" height="148" viewBox="0 0 159 148" fill="none" xmlns="http://www.w3.org/2000/svg">
<path opacity="0.2" d="M26.0249 147.035C-1.10192 129.808 24.4989 118.663 10.2101 89.0668C-8.77183 49.7496 -5.36081 0.0509432 58.2908 2.87694e-05C100.192 -0.0334856 135.642 29.2191 142.87 63.7878C153.668 115.436 135.157 147.034 135.157 147.034C81.7506 147.035 26.0249 147.035 26.0249 147.035Z" fill="#0063F5"/>
<path d="M157.249 50.3219C155.677 49.6663 153.806 49.2839 151.817 49.2629C149.971 46.4929 145.669 44.6442 140.779 44.6442C137.845 44.6442 135.062 45.3307 132.917 46.5075C130.529 43.0656 125.045 40.6602 118.831 40.6602C114.749 40.6602 110.878 41.6766 108.008 43.4759C107.597 43.4348 107.182 43.4141 106.767 43.4141C102.32 43.4141 98.7031 45.6957 98.7031 48.5002C98.7031 49.13 98.8881 49.746 99.2401 50.3219H157.249Z" fill="#EDF8FF"/>
<path d="M76.8947 20.2264C75.7923 19.7668 74.4812 19.4987 73.0863 19.4839C71.7926 17.5421 68.7764 16.246 65.3485 16.246C63.2914 16.246 61.3407 16.7272 59.8365 17.5523C58.1627 15.1395 54.3181 13.4531 49.962 13.4531C47.1006 13.4531 44.3864 14.1657 42.3748 15.427C42.0868 15.3982 41.7959 15.3838 41.5045 15.3838C38.3874 15.3838 35.8516 16.9833 35.8516 18.9494C35.8516 19.3909 35.9813 19.8227 36.228 20.2265H76.8947V20.2264Z" fill="#EDF8FF"/>
<path d="M158.776 83.7192C157.453 83.1673 155.878 82.8454 154.203 82.8277C152.65 80.496 149.028 78.9397 144.912 78.9397C142.442 78.9397 140.099 79.5176 138.293 80.5083C136.283 77.6109 131.667 75.5859 126.436 75.5859C123 75.5859 119.741 76.4415 117.325 77.9562C116.979 77.9217 116.63 77.9043 116.28 77.9043C112.537 77.9043 109.492 79.8249 109.492 82.1857C109.492 82.7159 109.648 83.2344 109.944 83.7193H158.776V83.7192Z" fill="#EDF8FF"/>
<path d="M37.6136 90.155C36.8985 89.8569 36.0482 89.6831 35.1434 89.6735C34.3043 88.414 32.348 87.5733 30.1245 87.5733C28.7902 87.5733 27.525 87.8855 26.5494 88.4207C25.4636 86.8555 22.9699 85.7617 20.1445 85.7617C18.2886 85.7617 16.5281 86.2239 15.2233 87.0421C15.0365 87.0234 14.8478 87.014 14.6588 87.014C12.637 87.014 10.9922 88.0515 10.9922 89.3267C10.9922 89.6131 11.0763 89.8931 11.2363 90.155H37.6136Z" fill="#EDF8FF"/>
<path d="M3.80918 147.068H149.465C150.551 147.068 151.431 146.799 151.431 146.468V146.468C151.431 146.136 150.551 145.867 149.465 145.867H3.80918C2.72369 145.867 1.84375 146.136 1.84375 146.468V146.468C1.84375 146.799 2.72369 147.068 3.80918 147.068Z" fill="#4E5683"/>
<path d="M35.7578 79.1875L36.14 87.5092L38.8103 145.51H80.0763L83.6257 86.9534L84.0959 79.1875H35.7578Z" fill="#F99746"/>
<path d="M53.0078 103.265L57.3431 105.7L62.0722 98.4531H56.2215L53.0078 103.265Z" fill="#FFB278"/>
<path d="M61.462 105.352L59.7422 106.325L65.259 106.562L67.366 102.307L65.7591 103.159L63.0306 98.6523C63.0306 98.6523 60.121 103.007 60.0911 103.099C60.0911 103.099 61.462 105.352 61.5617 105.42L61.462 105.352Z" fill="#FFB278"/>
<path d="M68.5014 107.523L64.2109 110.034L68.0195 117.808L70.9923 112.747L68.5014 107.523Z" fill="#FFB278"/>
<path d="M62.423 113.196L62.4513 111.789L59.4453 116.441L62.0226 120.426L61.9844 118.549L67.3632 118.537C67.3632 118.537 64.7361 113.273 64.673 113.196H62.423Z" fill="#FFB278"/>
<path d="M57.097 118.546L57.0505 113.386L49.0312 113.195L51.6633 118.546H57.097Z" fill="#FFB278"/>
<path d="M55.0004 109.788L56.6056 110.943L54.4886 105.821L49.7595 105.699L51.2068 106.802L48.8672 112.277C48.8672 112.277 53.8007 112.36 53.8954 112.349C53.8954 112.349 55.0004 109.788 55.0203 109.67L55.0004 109.788Z" fill="#FFB278"/>
<path d="M35.7578 79.1875L36.14 87.5075C40.2443 86.1155 51.1449 82.1466 59.1941 82.1466C67.5988 82.1466 79.8238 85.7617 83.6207 86.9517L84.091 79.1875H35.7578Z" fill="#ED7D2B"/>
<path d="M34.9979 82.1445H84.8631C86.1296 82.1445 87.1562 81.1134 87.1562 79.8413V76.3881C87.1562 75.1161 86.1296 74.0849 84.8631 74.0849H34.9979C33.7315 74.0849 32.7048 75.1161 32.7048 76.3881V79.8413C32.7048 81.1134 33.7315 82.1445 34.9979 82.1445Z" fill="#F99746"/>
<path d="M125.905 145.871H111.98C111.234 145.235 112.497 143.793 113.808 143.701C114.381 143.658 115.106 143.778 115.933 143.955C116.125 141.398 117.22 129.907 121.344 130.369C125.98 130.885 121.344 135.429 120.033 138.118C119.061 140.111 118.039 142.968 117.568 144.317C117.946 144.399 118.335 144.484 118.732 144.554C119.346 142.658 121.633 136.282 124.548 136.653C127.962 137.088 126.59 139.645 124.169 141.159C122.394 142.274 120.214 143.861 119.184 144.627C120.083 144.784 120.995 144.857 121.907 144.846C124.29 144.786 125.453 145.492 125.905 145.871Z" fill="#82B378"/>
<path d="M105.532 132.027L103.668 139.915L100.875 139.898L100.773 132.027H105.532Z" fill="#FFB27D"/>
<path d="M82.0447 132.362L76.739 139.913L74.6719 137.246L77.8656 131.324L82.0447 132.362Z" fill="#FFB27D"/>
<path d="M95.8385 28.383C96.804 27.8322 97.9588 27.7721 98.7664 27.8205C98.5893 27.6709 98.3771 27.5692 98.1499 27.5251C98.6484 27.45 99.7684 27.9507 99.7684 27.9507C106.747 25.2519 107.836 35.5614 107.688 37.9647C107.54 40.3681 110.031 41.1358 113.658 43.0285C120.578 46.6285 121.186 51.4503 121.186 51.4503C121.131 51.482 121.074 51.5187 121.02 51.5604C120.677 50.9763 119.969 49.8781 119.375 49.7129C119.733 50.475 120.053 51.2549 120.333 52.0495C118.291 53.61 114.473 57.0665 111.811 59.5166C111.822 59.0376 111.811 58.3483 111.629 57.9978L111.297 59.9872C109.873 61.3024 108.891 62.227 108.891 62.227C109.067 60.2927 100.176 50.0784 95.5378 47.0191C94.4079 45.3501 94.0074 42.4009 93.9775 42.1673C94.1719 44.5039 94.5707 45.8191 94.9263 46.5568C90.9964 42.93 93.2846 29.84 95.8385 28.383Z" fill="#163560"/>
<path d="M95.8049 47.1698C95.7816 47.1814 98.0448 48.3614 99.7464 47.8941C101.348 47.4552 102.393 45.3706 102.372 45.3656C101.694 45.2304 101.498 44.2941 101.513 40.2734L101.207 40.3335L96.0558 41.3583C96.0558 41.3583 96.1738 42.9872 96.1771 44.5294C96.1771 45.8112 96.099 47.0329 95.8049 47.1698Z" fill="#FFB27D"/>
<path d="M101.633 30.0786C101.633 30.0786 99.0905 27.3598 95.8984 29.9401C95.8984 29.9317 97.7562 29.6079 101.633 30.0786Z" fill="#82B479"/>
<path d="M96.0547 41.3579C96.0547 41.3579 96.1727 42.9869 96.176 44.529C99.059 44.4473 100.584 41.8036 101.209 40.3398L96.0547 41.3579Z" fill="#D68D5D"/>
<path d="M101.737 39.7691C101.737 39.7691 103.249 37.3707 103.611 35.3195C103.87 33.8558 103.127 28.4282 97.6971 29.2093C96.6033 29.3641 95.558 29.7634 94.638 30.3776C93.4582 31.1787 91.7567 32.9044 93.6593 37.6411L94.1578 39.24L101.737 39.7691Z" fill="#163560"/>
<path d="M75.5156 135.178L78.2474 135.263L81.2052 135.353C81.2052 135.353 88.0347 127.716 91.8665 115.47C91.9562 115.187 92.0493 114.898 92.149 114.606C94.246 108.465 98.5929 100.753 100.884 93.7799C101.248 92.6683 101.576 91.6219 101.87 90.6321C101.965 90.315 102.056 90.0035 102.142 89.6975C103.831 83.8059 104.319 79.9371 104.769 75.8047L88.2291 75.9382C88.2291 75.9382 85.5588 104.158 75.5156 135.178Z" fill="#2A4E96"/>
<path d="M90.5421 66.3884C90.5853 74.2962 89.3889 77.6876 89.3889 77.6876C89.3889 77.6876 96.4709 81.3009 104.887 78.6406C104.987 78.6105 111.866 77.035 111.866 77.035C111.725 76.7145 110.472 71.3871 110.336 71.0933C108.558 67.2546 107.209 65.5856 106.998 64.4006C106.638 62.2113 106.57 59.9838 106.793 57.7763C107.127 54.2496 107.81 50.7652 108.834 47.3751C106.541 46.851 104.334 45.9548 101.946 45.0552C101.398 45.7411 99.786 46.4354 98.3221 46.4037C96.6454 46.3653 96.122 45.6544 96.1835 44.8516C94.3955 45.853 92.9764 46.7993 92.9764 46.7993C91.4577 49.4497 88.3769 52.0216 88.1576 56.0856C88.0911 57.0854 90.5421 66.1681 90.5421 66.3884Z" fill="#E7F1FD"/>
<path d="M104.77 67.2729C105.492 68.2993 106.878 74.5481 110.328 75.3325C108.55 70.8796 107.201 68.9286 106.99 67.5583C106.63 65.0098 106.562 62.4284 106.785 59.8642C105.63 57.833 104.77 56.4394 104.77 56.4394C104.678 56.1056 102.942 50.693 102.375 55.5348C101.808 60.3766 103.96 66.1296 104.77 67.2729Z" fill="#5F9AA8"/>
<path d="M95.0924 42.8119C95.0924 42.8119 101.917 42.9237 101.922 38.6561C101.927 34.3884 102.809 31.5261 98.4539 31.2724C94.0987 31.0187 93.2496 32.6477 92.9023 34.073C92.555 35.4983 93.3161 42.6717 95.0924 42.8119Z" fill="#FFB27D"/>
<path d="M93.0986 31.7019C94.1521 30.4201 94.948 30.7005 95.395 31.0827C96.8689 28.8696 102.68 31.2496 102.68 31.2496C102.981 33.1778 103.486 35.0683 104.185 36.8892C104.185 36.8892 102.942 37.6603 100.074 36.9192C97.8177 36.3368 96.181 33.1106 95.5878 31.7637C95.1806 32.1259 94.3249 32.962 94.069 33.7832C93.7366 34.8697 93.5705 37.1079 92.9257 37.0311C92.9324 37.0311 91.5216 33.6263 93.0986 31.7019Z" fill="#163560"/>
<path d="M103.765 139.473C103.649 140.563 103.77 141.666 104.121 142.706C104.121 142.706 104.577 144.798 102.525 144.837C100.473 144.875 99.9713 144.682 100.199 143.398C100.427 142.115 100.874 139.893 100.874 139.893L103.765 139.473Z" fill="#FFB27D"/>
<path d="M100.01 145.864H104.253C104.484 144.77 104.106 142.709 104.106 142.709C101.779 144.939 100.329 142.652 100.329 142.652C99.9647 143.607 100.01 145.864 100.01 145.864Z" fill="#2C3A64"/>
<path d="M69.7282 143.707C69.7282 143.707 73.5102 139.395 74.6701 137.25L77.4833 138.697L71.1971 144.625L69.7266 144.432L69.7282 143.707Z" fill="#FFB27D"/>
<path d="M67.4062 145.859H72.6572C73.1191 145.44 73.5611 144.597 74.1011 143.493C74.4102 142.86 75.0982 142.511 75.8127 142.324V145.864H76.8978L77.8948 142.101C78.5594 140.841 78.0609 139.684 77.5907 138.688C77.044 138.688 75.4538 139.085 72.6605 142.308C71.7432 143.367 70.7296 143.745 69.7226 143.713C69.7095 143.722 69.6956 143.73 69.6811 143.736C68.0925 144.464 67.5741 145.365 67.4062 145.859Z" fill="#2C3A64"/>
<path d="M67.6648 49.897C67.6648 49.897 72.1514 52.4122 73.7432 53.1382C74.3132 53.3952 75.3434 53.8775 76.4019 54.3716C77.0383 54.6687 77.6814 54.9724 78.2298 55.2361C78.6874 55.4518 79.2028 55.5106 79.6969 55.4036C80.191 55.2966 80.6365 55.0295 80.9649 54.6436C83.3909 51.8063 89.6671 45.631 96.1493 44.8616L96.1725 44.8516L96.136 44.9217C95.7721 45.8313 92.2194 54.7487 92.1081 56.6297C91.9918 58.6125 91.6445 89.0485 91.6445 89.0485C91.6445 89.0485 91.8771 90.4487 89.2068 89.8646C86.5365 89.2804 85.8386 88.6963 85.8386 88.6963C85.8386 88.6963 88.3926 69.92 87.6963 63.3892C87.5601 62.1091 87.683 60.6687 87.9689 59.1816C84.0207 61.5833 79.3663 62.6515 79.3663 62.6515C79.3663 62.6515 77.6299 61.8904 74.933 60.2114C73.7997 59.5054 72.487 58.3755 71.1942 57.1905C69.6323 55.7518 66.9453 52.2786 66.9453 52.2786L67.6648 49.897Z" fill="#2A4E96"/>
<path d="M78.2422 135.263L81.2 135.353C81.2 135.353 88.0295 127.716 91.8613 115.47C91.951 115.186 92.0441 114.898 92.1438 114.606C94.2408 108.465 98.5877 100.753 100.879 93.7798C101.243 92.6683 101.57 91.6218 101.865 90.6321C101.96 90.315 102.051 90.0034 102.137 89.6974L99.7011 87.8398C99.7011 87.8398 92.3897 99.7348 90.1248 110.929C88.1574 120.652 80.2811 132.352 78.2422 135.263Z" fill="#1E3D70"/>
<path d="M99.4504 111.973C99.4089 117.416 99.683 129.931 100.389 135.114H103.008C104.457 135.114 105.178 135.092 105.178 135.092C106.95 126.079 108.209 118.629 109.126 112.207C109.877 106.934 110.547 102.416 111.062 98.5207C111.577 94.6253 111.94 91.3273 112.067 88.5585C112.087 88.1212 112.102 87.6972 112.111 87.2867C112.12 86.8761 112.12 86.4733 112.111 86.0783L97.8203 84.6797C98.0048 94.2231 99.4737 108.808 99.4504 111.973Z" fill="#2A4E96"/>
<path d="M103.008 135.114C104.457 135.114 105.178 135.092 105.178 135.092C106.949 126.079 108.209 118.629 109.126 112.207C109.877 106.934 110.547 102.416 111.062 98.5209C111.577 94.6254 111.939 91.3275 112.067 88.5586L106.823 91.6663C106.823 91.6663 110.171 92.8529 108.893 101.832C107.616 110.811 104.786 133.842 103.008 135.114Z" fill="#1E3D70"/>
<path d="M102.332 88.4749C102.332 88.4749 103.339 92.1284 106.819 91.6611C110.298 91.1937 115.255 89.0958 115.255 89.0958C115.255 89.0958 113.759 84.3725 111.915 78.1655C109.675 70.655 106.902 60.9747 105.601 54.8562C105.286 53.4798 105.048 52.0868 104.889 50.6837L101.94 45.0508C101.94 45.0508 97.691 54.766 97.4533 57.2145C97.2157 59.6629 102.332 88.4749 102.332 88.4749Z" fill="#2A4E96"/>
<path d="M93.5698 76.5613L101.85 75.358C102.131 75.3171 102.402 75.2208 102.647 75.0746C102.891 74.9284 103.104 74.7352 103.274 74.506C103.444 74.2768 103.567 74.0161 103.636 73.739C103.706 73.4619 103.72 73.1738 103.678 72.8912L101.235 55.9341C101.195 55.6506 101.1 55.3778 100.955 55.1313C100.81 54.8849 100.618 54.6698 100.389 54.4984C100.161 54.3269 99.9013 54.2026 99.6249 54.1325C99.3486 54.0624 99.0611 54.0479 98.7791 54.0899L90.499 55.2932C89.9299 55.3758 89.4167 55.6821 89.0723 56.1447C88.728 56.6073 88.5807 57.1883 88.6629 57.76L91.1055 74.7171C91.1452 75.0014 91.2406 75.275 91.3862 75.5221C91.5319 75.7691 91.725 75.9846 91.9542 76.1561C92.1834 76.3277 92.4442 76.4518 92.7215 76.5214C92.9989 76.591 93.2872 76.6045 93.5698 76.5613Z" fill="#C65447"/>
<path d="M92.8098 67.8847C92.0111 67.2892 91.0118 67.0321 90.0265 67.1687L89.6094 64.293L91.8111 65.7166L102.993 68.0966L103.541 71.902C100.864 71.1209 94.5728 69.1965 92.8098 67.8847Z" fill="#A02E2E"/>
<path d="M89.2467 62.2355C90.2039 61.7114 91.1244 61.9818 92.0716 62.8514C92.5551 63.2987 92.816 63.6859 93.155 64.028C94.8167 64.1181 98.8047 64.3351 102.143 64.5471L102.419 68.9482C99.0135 68.5037 95.663 67.7072 92.4206 66.5716C92.1215 66.5198 91.7559 66.3196 91.2823 65.9507C90.0826 65.0278 89.0523 65.1913 88.7898 64.8024C88.4192 64.2934 87.9024 62.9715 89.2467 62.2355Z" fill="#FFB27D"/>
<path d="M102.487 62.3526C102.644 66.3165 103.572 74.014 111.854 78.1331C111.875 78.145 111.897 78.1556 111.919 78.1648C109.679 70.6543 106.906 60.974 105.605 54.8555C104.076 57.1387 102.404 60.1696 102.487 62.3526Z" fill="#1E3D70"/>
<path d="M101.941 45.0547C101.941 45.0547 109.024 45.5554 110.728 49.3691C112.431 53.1827 112.973 65.8505 110.806 69.5824C110.806 69.5824 107.815 70.4352 102.544 69.4439L102.35 69.4071C102.35 69.4071 100.666 65.2663 102.175 64.4502C102.175 64.4502 106.625 64.6839 106.163 63.2068C105.701 61.7297 101.941 45.0547 101.941 45.0547Z" fill="#2A4E96"/>
<path d="M63.0024 46.9398C66.8126 46.4391 67.7747 49.929 67.7747 49.929L67.0635 52.3206C65.8887 52.4875 64.8601 52.1754 63.9063 50.8185C62.9525 49.4616 62.6983 49.984 62.0968 48.9659C61.2908 47.589 62.5703 47.0766 63.0024 46.9398Z" fill="#FFB27D"/>
<path d="M73.7456 53.1402C74.3155 53.3972 75.3458 53.8796 76.4043 54.3736C75.8409 55.375 75.1364 57.2109 74.9486 60.2151C73.5631 59.3112 72.2731 58.2677 71.0985 57.1007C69.0895 55.1213 66.9609 52.2823 66.9609 52.2823L67.6721 49.8906C67.6721 49.8906 72.147 52.4142 73.7456 53.1402Z" fill="#FFB27D"/>
<path d="M62.5679 58.083L49.9026 54.9334C49.2873 54.7811 48.9124 54.1581 49.0655 53.5428L53.3089 36.4769C53.4619 35.8614 54.0846 35.4866 54.7 35.6397L63.5564 37.8419L67.2878 43.8583L63.9594 57.2462C63.8061 57.8615 63.1834 58.2364 62.5679 58.083Z" fill="#375A64"/>
<path d="M66.6972 50.8193C66.3754 50.9543 66.0016 50.7545 65.7833 50.4827C65.5648 50.2111 65.4445 49.8732 65.2461 49.5861C64.6527 48.7288 63.4506 48.4386 62.899 47.5538C62.8219 47.4303 62.7659 47.2539 62.8704 47.1524C62.9669 47.0589 63.1259 47.1025 63.2517 47.1518C64.3223 47.5747 65.3935 47.9974 66.4644 48.42" fill="#FFB27D"/>
<path d="M66.4692 48.4221C66.4739 48.4095 66.3556 48.349 66.1359 48.2494C65.9164 48.1501 65.5965 48.0123 65.1995 47.846C64.7857 47.676 64.3154 47.4828 63.802 47.2719C63.67 47.2182 63.5345 47.1638 63.3973 47.1085C63.2649 47.0664 63.1106 46.9526 62.8847 47.0324C62.774 47.0773 62.7112 47.2119 62.7206 47.3151C62.7259 47.4197 62.7624 47.5052 62.8062 47.5846C62.8989 47.7301 62.9997 47.8641 63.1218 47.9851C63.6068 48.47 64.1863 48.7384 64.6253 49.082C64.8467 49.2502 65.0382 49.4312 65.1793 49.6286C65.3205 49.8263 65.4206 50.0399 65.5339 50.2274C65.7439 50.6163 66.0751 50.8497 66.3265 50.8842C66.5833 50.9258 66.7099 50.8246 66.7023 50.8214C66.6976 50.8019 66.5675 50.8699 66.3441 50.8096C66.1196 50.7516 65.8428 50.5388 65.655 50.1585C65.5534 49.9738 65.4603 49.7544 65.3134 49.5353C65.1657 49.316 64.9642 49.1171 64.7361 48.9381C64.2846 48.5753 63.7095 48.2978 63.2623 47.8471C63.1506 47.7367 63.0563 47.61 62.9765 47.4865C62.9025 47.3635 62.8929 47.2301 62.9665 47.2074C63.0436 47.1698 63.1913 47.2279 63.3282 47.2835C63.4669 47.3369 63.6026 47.3894 63.7354 47.4406C64.2543 47.6374 64.7299 47.8167 65.1488 47.9756C65.5524 48.1252 65.8796 48.2428 66.1078 48.3205C66.3358 48.398 66.4643 48.4348 66.4692 48.4221Z" fill="#FF996C"/>
<path d="M63.5698 37.8008L62.7262 41.1922C62.518 42.0309 63.0281 42.8791 63.8668 43.0876L67.291 43.8584L63.5698 37.8008Z" fill="#1A2E35"/>
<path d="M61.509 54.237C61.5072 54.2341 61.518 54.179 61.5412 54.0752C61.5671 53.962 61.6019 53.8121 61.645 53.6221C61.7409 53.218 61.8771 52.6455 62.0485 51.9228C62.4031 50.4603 62.905 48.3905 63.5065 45.9081L63.5586 45.994C61.0518 45.3743 58.0855 44.6407 54.9159 43.8575C54.893 43.8699 55.1046 43.7432 55.0151 43.7979L55.0145 43.8001L55.0133 43.8046L55.0115 43.8135L55.0071 43.8314L54.9983 43.8669L54.9804 43.9379L54.9449 44.0801L54.8746 44.3635C54.828 44.5513 54.7814 44.739 54.7348 44.9255C54.6418 45.299 54.5494 45.6689 54.458 46.035C54.2757 46.7672 54.0965 47.4838 53.9225 48.1815C53.5727 49.5759 53.2421 50.8934 52.938 52.1063L52.8857 52.0187C55.4527 52.6726 57.5987 53.2194 59.1161 53.6059C59.8648 53.8002 60.4574 53.9541 60.8764 54.0631C61.0728 54.1154 61.2276 54.157 61.3442 54.1879C61.4509 54.2171 61.5071 54.2341 61.509 54.237C61.5108 54.2406 61.4587 54.2304 61.3556 54.2076C61.2414 54.1811 61.0897 54.1461 60.8974 54.1023C60.4804 54.0028 59.8894 53.8626 59.1437 53.6858C57.6111 53.3138 55.4436 52.7879 52.8509 52.1587L52.7812 52.1418L52.7987 52.071C53.0977 50.8573 53.4231 49.5384 53.767 48.1427C53.94 47.4449 54.1173 46.7279 54.2989 45.9952C54.3899 45.6291 54.4814 45.259 54.5741 44.8858C54.6207 44.6988 54.6672 44.5117 54.7139 44.3231L54.7845 44.0399L54.82 43.8979L54.8373 43.8267L54.8463 43.7912L54.8506 43.7739L54.8529 43.7648L54.8537 43.7603L54.8543 43.7578C54.7648 43.8115 54.9767 43.6828 54.9559 43.6963C58.1237 44.4884 61.0878 45.2299 63.5929 45.8557L63.6623 45.8736L63.6445 45.9425C63.0093 48.4355 62.4795 50.5143 62.1047 51.9839C61.9196 52.6961 61.773 53.26 61.6697 53.6585C61.6207 53.841 61.5819 53.9851 61.5531 54.0942C61.5261 54.1918 61.5107 54.2406 61.509 54.237Z" fill="white"/>
<path d="M57.0813 53.2418C57.0368 53.2305 57.4635 51.3611 58.0346 49.0659C58.6052 46.7699 59.1038 44.9188 59.1483 44.9297C59.1926 44.9405 58.766 46.8099 58.1951 49.1058C57.6247 51.4008 57.1258 53.2528 57.0813 53.2418Z" fill="white"/>
<path d="M61.9784 52.1954C61.9672 52.2398 60.0165 51.7927 57.6218 51.1973C55.2261 50.6015 53.2935 50.0831 53.3047 50.0381C53.3157 49.9942 55.2661 50.441 57.6619 51.0365C60.0566 51.6318 61.9892 52.1509 61.9784 52.1954Z" fill="white"/>
<path d="M62.6033 50.0977C62.592 50.142 60.6415 49.6948 58.2468 49.0996C55.8511 48.5037 53.9188 47.9853 53.9297 47.9405C53.941 47.8964 55.8914 48.3433 58.287 48.9388C60.6814 49.5342 62.6144 50.0532 62.6033 50.0977Z" fill="white"/>
<path d="M63.0688 47.9639C63.0572 48.0083 61.1213 47.5648 58.7449 46.974C56.3677 46.3826 54.45 45.868 54.461 45.8234C54.4718 45.7791 56.4077 46.2222 58.7853 46.8131C61.1617 47.4044 63.0796 47.9193 63.0688 47.9639Z" fill="white"/>
</svg>
