<svg width="22" height="23" viewBox="0 0 22 23" fill="none" xmlns="http://www.w3.org/2000/svg">
<path d="M3.66406 7.25391H18.3307" stroke="white" stroke-width="1.375" stroke-linecap="round" stroke-linejoin="round"/>
<path d="M9.16406 10.918V16.418" stroke="white" stroke-width="1.375" stroke-linecap="round" stroke-linejoin="round"/>
<path d="M12.8359 10.918V16.418" stroke="white" stroke-width="1.375" stroke-linecap="round" stroke-linejoin="round"/>
<path d="M4.58594 7.25391L5.5026 18.2539C5.5026 18.7401 5.69576 19.2065 6.03958 19.5503C6.38339 19.8941 6.84971 20.0872 7.33594 20.0872H14.6693C15.1555 20.0872 15.6218 19.8941 15.9656 19.5503C16.3094 19.2065 16.5026 18.7401 16.5026 18.2539L17.4193 7.25391" stroke="white" stroke-width="1.375" stroke-linecap="round" stroke-linejoin="round"/>
<path d="M8.25 7.2526V4.5026C8.25 4.25949 8.34658 4.02633 8.51849 3.85442C8.69039 3.68251 8.92355 3.58594 9.16667 3.58594H12.8333C13.0764 3.58594 13.3096 3.68251 13.4815 3.85442C13.6534 4.02633 13.75 4.25949 13.75 4.5026V7.2526" stroke="white" stroke-width="1.375" stroke-linecap="round" stroke-linejoin="round"/>
</svg>
