<svg width="20" height="21" viewBox="0 0 20 21" fill="none" xmlns="http://www.w3.org/2000/svg">
<path d="M3.33594 6.51172H16.6693" stroke="#7A7A7A" stroke-width="1.375" stroke-linecap="round" stroke-linejoin="round"/>
<path d="M8.33594 9.84766V14.8477" stroke="#7A7A7A" stroke-width="1.375" stroke-linecap="round" stroke-linejoin="round"/>
<path d="M11.6641 9.84766V14.8477" stroke="#7A7A7A" stroke-width="1.375" stroke-linecap="round" stroke-linejoin="round"/>
<path d="M4.16406 6.51172L4.9974 16.5117C4.9974 16.9537 5.17299 17.3777 5.48555 17.6902C5.79811 18.0028 6.22204 18.1784 6.66406 18.1784H13.3307C13.7728 18.1784 14.1967 18.0028 14.5092 17.6902C14.8218 17.3777 14.9974 16.9537 14.9974 16.5117L15.8307 6.51172" stroke="#7A7A7A" stroke-width="1.375" stroke-linecap="round" stroke-linejoin="round"/>
<path d="M7.5 6.51302V4.01302C7.5 3.79201 7.5878 3.58005 7.74408 3.42377C7.90036 3.26748 8.11232 3.17969 8.33333 3.17969H11.6667C11.8877 3.17969 12.0996 3.26748 12.2559 3.42377C12.4122 3.58005 12.5 3.79201 12.5 4.01302V6.51302" stroke="#7A7A7A" stroke-width="1.375" stroke-linecap="round" stroke-linejoin="round"/>
</svg>
