<svg width="42" height="43" viewBox="0 0 42 43" fill="none" xmlns="http://www.w3.org/2000/svg">
<circle cx="21" cy="21.9336" r="21" fill="#E5EEFE"/>
<path d="M19.6042 15.5311C19.9592 14.0678 22.0408 14.0678 22.3958 15.5311C22.4491 15.7509 22.5535 15.9551 22.7006 16.1269C22.8477 16.2988 23.0332 16.4335 23.2422 16.52C23.4512 16.6066 23.6776 16.6426 23.9032 16.6252C24.1287 16.6077 24.3469 16.5372 24.54 16.4194C25.8258 15.6361 27.2983 17.1078 26.515 18.3944C26.3974 18.5875 26.327 18.8055 26.3096 19.0309C26.2922 19.2563 26.3281 19.4826 26.4146 19.6914C26.5011 19.9003 26.6356 20.0857 26.8073 20.2328C26.9789 20.3799 27.1829 20.4843 27.4025 20.5378C28.8658 20.8928 28.8658 22.9744 27.4025 23.3294C27.1827 23.3827 26.9785 23.4871 26.8067 23.6342C26.6348 23.7813 26.5001 23.9668 26.4135 24.1758C26.327 24.3848 26.291 24.6112 26.3084 24.8367C26.3259 25.0623 26.3964 25.2805 26.5142 25.4736C27.2975 26.7594 25.8258 28.2319 24.5392 27.4486C24.3461 27.331 24.1281 27.2606 23.9027 27.2432C23.6773 27.2257 23.451 27.2617 23.2422 27.3482C23.0333 27.4347 22.8479 27.5692 22.7008 27.7409C22.5537 27.9125 22.4492 28.1165 22.3958 28.3361C22.0408 29.7994 19.9592 29.7994 19.6042 28.3361C19.5509 28.1163 19.4465 27.9121 19.2994 27.7403C19.1523 27.5684 18.9668 27.4337 18.7578 27.3471C18.5488 27.2606 18.3224 27.2246 18.0968 27.242C17.8713 27.2595 17.6531 27.33 17.46 27.4478C16.1742 28.2311 14.7017 26.7594 15.485 25.4728C15.6026 25.2797 15.673 25.0616 15.6904 24.8363C15.7078 24.6109 15.6719 24.3846 15.5854 24.1758C15.4989 23.9669 15.3644 23.7814 15.1927 23.6344C15.0211 23.4873 14.8171 23.3828 14.5975 23.3294C13.1342 22.9744 13.1342 20.8928 14.5975 20.5378C14.8173 20.4845 15.0215 20.3801 15.1933 20.233C15.3652 20.0859 15.4999 19.9004 15.5865 19.6914C15.673 19.4824 15.709 19.256 15.6916 19.0304C15.6741 18.8049 15.6036 18.5867 15.4858 18.3936C14.7025 17.1078 16.1742 15.6353 17.4608 16.4186C18.2942 16.9253 19.3742 16.4769 19.6042 15.5311Z" stroke="#0559FF" stroke-width="1.5" stroke-linecap="round" stroke-linejoin="round"/>
<path d="M21 24.4336C22.3807 24.4336 23.5 23.3143 23.5 21.9336C23.5 20.5529 22.3807 19.4336 21 19.4336C19.6193 19.4336 18.5 20.5529 18.5 21.9336C18.5 23.3143 19.6193 24.4336 21 24.4336Z" stroke="#0559FF" stroke-width="1.5" stroke-linecap="round" stroke-linejoin="round"/>
</svg>
