<svg width="41" height="40" viewBox="0 0 41 40" fill="none" xmlns="http://www.w3.org/2000/svg">
<g clip-path="url(#clip0_819_47526)">
<path d="M10.8132 6.40433C10.489 6.08011 10.5609 5.58702 10.9621 5.38401C11.1994 5.26399 17.4473 5.24758 17.7592 5.3662C18.191 5.53039 18.3028 6.04359 17.9776 6.3687L17.7955 6.55093H14.3776C11.0735 6.55093 10.9549 6.54603 10.8132 6.40433Z" fill="#0559FF" stroke="#0559FF" stroke-width="0.5"/>
<path d="M10.8132 10.8809C10.489 10.5567 10.5609 10.0636 10.9621 9.86057C11.1994 9.74055 17.4473 9.72415 17.7592 9.84276C18.191 10.0069 18.3028 10.5202 17.9776 10.8453L17.7955 11.0275H14.3776C11.0735 11.0275 10.9549 11.0226 10.8132 10.8809Z" fill="#0559FF" stroke="#0559FF" stroke-width="0.5"/>
<path fill-rule="evenodd" clip-rule="evenodd" d="M5.53906 4.48866V7.97732V16.2427V24.7526L6.80433 21.4665V10.9646L6.80092 2.26104L13.4628 2.28004C18.7267 2.29496 20.1266 2.31842 20.1339 2.39175C20.139 2.44282 20.1474 4.57194 20.1525 7.1232L20.1618 11.7618L24.8937 11.7809L29.6257 11.8V14.9175V18.0351L30.9246 18.0722V15.8825V13.6928H32.0239C32.8556 13.6928 33.1581 13.7184 33.2672 13.798C33.4029 13.8972 33.4125 14.0238 33.4331 15.9877L33.455 18.0722H34.7102V16.0444C34.7102 13.7908 34.6595 13.4485 34.2584 12.9916C33.8299 12.5036 33.5584 12.4309 32.163 12.4309H30.9246V11.6699V10.9088L25.9698 5.95442L21.0149 1H13.277H5.53906V4.48866ZM28.7344 10.501L25.0978 6.86392C23.0977 4.86351 21.4528 3.22681 21.4425 3.22681C21.4321 3.22681 21.4236 4.86351 21.4236 6.86392V10.501H25.079H28.7344Z" fill="#0559FF"/>
<path d="M5.53906 7.97732V4.48866V1H13.277H21.0149L25.9698 5.95442L30.9246 10.9088V11.6699V12.4309H32.163C33.5584 12.4309 33.8299 12.5036 34.2584 12.9916C34.6595 13.4485 34.7102 13.7908 34.7102 16.0444V18.0722H33.455L33.4331 15.9877C33.4125 14.0238 33.4029 13.8972 33.2672 13.798C33.1581 13.7184 32.8556 13.6928 32.0239 13.6928H30.9246V15.8825V18.0722L29.6257 18.0351V14.9175V11.8L24.8937 11.7809L20.1618 11.7618L20.1525 7.1232C20.1474 4.57194 20.139 2.44282 20.1339 2.39175C20.1266 2.31842 18.7267 2.29496 13.4628 2.28004L6.80092 2.26104L6.80433 10.9646V21.4665L5.53906 24.7526M5.53906 7.97732V16.2427V24.7526M5.53906 7.97732V24.7526M25.0978 6.86392L28.7344 10.501H25.079H21.4236V6.86392C21.4236 4.86351 21.4321 3.22681 21.4425 3.22681C21.4528 3.22681 23.0977 4.86351 25.0978 6.86392Z" stroke="#0559FF" stroke-width="0.5"/>
<path fill-rule="evenodd" clip-rule="evenodd" d="M6.4191 7.38456C4.64018 7.38523 2.49108 7.21331 2.12329 7.38455C1.7238 7.57056 1.43305 7.88625 1.24355 8.33985C1.14282 8.58086 1.13028 10.2173 1.13317 22.7359C1.13577 34.1781 1.15485 36.9115 1.23353 37.1318C1.37894 37.5388 1.6443 37.8341 2.05374 38.0445L2.42094 38.2331L16.862 38.2326C27.0028 38.2324 31.3894 38.2083 31.5928 38.1518C31.7527 38.1074 32.0273 37.9331 32.2057 37.7626C32.5277 37.4548 32.5409 37.4207 35.8302 28.398C37.646 23.4174 39.1321 19.2376 39.1328 19.1096C39.1352 18.6726 38.8924 18.0956 38.5707 17.7734C38.1755 17.3777 37.8269 17.3011 36.4211 17.3011H35.3485H34.0932H32.8281H31.5629L30.2639 17.264L19.5382 17.3011C11.5107 17.3289 8.7631 17.3603 8.6165 17.426C8.2493 17.5907 7.85931 18.0055 7.65252 18.4516L7.44602 18.897L6.17733 22.4752L4.31483 27.5521C3.2905 30.3443 2.43875 32.6429 2.42205 32.6599C2.40542 32.6769 2.39176 27.3075 2.39176 20.7279C2.39176 8.86397 2.39303 8.76376 2.54022 8.61657C2.68028 8.4765 4.77372 8.61657 6.4191 8.61657V7.38456ZM37.7919 18.8744C37.7479 18.748 37.6443 18.6333 37.5521 18.6085C37.4628 18.5846 31.06 18.565 23.3237 18.565C12.1831 18.5651 9.21945 18.5846 9.07352 18.6583C8.91608 18.7381 8.72614 19.1995 7.76802 21.8305C7.15126 23.5238 5.68937 27.5348 4.51925 30.7437C3.34914 33.9526 2.39176 36.6112 2.39176 36.6518C2.39176 36.6924 2.45285 36.7808 2.52753 36.8484C2.65282 36.9618 3.7611 36.9712 16.9629 36.9712H31.2626L31.369 36.8042C31.4276 36.7123 32.9141 32.6906 34.6725 27.867C37.5571 19.9535 37.8619 19.075 37.7919 18.8744Z" fill="#0559FF" stroke="#0559FF" stroke-width="0.5"/>
</g>
<defs>
<clipPath id="clip0_819_47526">
<rect width="40" height="39.9988" fill="white" transform="translate(0.132812)"/>
</clipPath>
</defs>
</svg>
