<svg width="21" height="19" viewBox="0 0 21 19" fill="none" xmlns="http://www.w3.org/2000/svg">
<path fill-rule="evenodd" clip-rule="evenodd" d="M10.1295 16.2097V18.7894C18.6113 18.8299 19.4401 18.8764 19.7895 18.2084C19.8489 18.0946 19.8945 17.9602 19.9616 17.8016C20.1608 17.3299 20.176 17.1045 20.2036 14.2044C20.2366 10.7478 20.1777 10.2887 19.6142 9.61012C19.2097 9.12311 18.3487 9.10638 17.9743 9.57826C17.5053 10.1692 17.3617 10.8561 17.3617 12.5077V16.2097H10.1295Z" fill="#0559FF"/>
<path d="M1.1702 9.58857C0.784659 9.88325 0.21836 9.83438 0.246007 11.1507C0.214069 11.4378 0.201676 12.9152 0.21836 14.434C0.251537 17.4486 0.282998 17.6307 0.905165 18.4149C1.1661 18.7439 1.24733 18.7471 10.1295 18.7894V16.2097H3.04633V12.4009C3.01954 11.0937 3.03994 10.5726 2.8791 10.2094C2.42692 9.18788 1.74594 9.14871 1.1702 9.58857Z" fill="#0559FF"/>
<path fill-rule="evenodd" clip-rule="evenodd" d="M9.95701 11.136C10.1079 11.2052 10.2608 11.2378 10.4142 11.2341L10.3782 0.83438C10.0721 0.83528 9.7731 0.965729 9.57423 1.21728L9.37443 1.47009L9.35427 4.561L9.33405 7.65191L7.98534 6.36156C6.5404 4.97915 6.43517 4.91308 5.84647 5.01972C5.51667 5.0794 5.1131 5.46892 5.05127 5.78724C5.02831 5.90535 5.00954 5.99995 5.01289 6.09382C5.02663 6.47932 5.41339 6.85243 7.41492 8.79138C8.68604 10.0228 9.83004 11.0778 9.95701 11.136Z" fill="#0559FF"/>
<path d="M10.814 11.1421C10.9327 11.0903 12.0874 10.0207 13.3799 8.7654C15.8525 6.36399 15.8924 6.31501 15.7792 5.81787C15.7078 5.50421 15.3457 5.14227 15.0181 5.0571C14.4596 4.91197 14.3097 5.00624 12.8409 6.42554L11.4977 7.7234V4.72155C11.4977 1.43507 11.4965 1.42465 11.0736 1.08112C10.8684 0.914507 10.6211 0.833666 10.3782 0.83438L10.4142 11.2341C10.5473 11.2308 10.6809 11.2002 10.814 11.1421Z" fill="#0559FF"/>
</svg>
