<svg width="120" height="109" viewBox="0 0 120 109" fill="none" xmlns="http://www.w3.org/2000/svg">
<g clip-path="url(#clip0_819_47131)">
<path d="M117.479 92.0193L69.2712 6.44139C65.1606 -1.03255 53.9495 -1.03255 49.8386 6.44139L1.63113 92.0193C-2.47948 99.4933 2.75233 108.836 11.3475 108.836H107.389C116.358 108.462 121.59 99.4933 117.479 92.0193Z" fill="#E24C4B"/>
<path d="M59.5512 12.0469L107.759 97.6248H11.3438L59.5512 12.0469Z" fill="white"/>
<path d="M51.708 51.2852L54.6977 71.0915C55.0714 73.3336 56.9398 75.2021 59.5559 75.2021C61.798 75.2021 64.0404 73.3336 64.414 71.0915L67.4037 51.2852C68.151 46.427 64.414 42.3164 59.5559 42.3164C54.6974 42.3161 51.3341 46.427 51.708 51.2852Z" fill="#E24C4B"/>
<path d="M59.5548 88.2815C62.0316 88.2815 64.0394 86.2738 64.0394 83.797C64.0394 81.3203 62.0316 79.3125 59.5548 79.3125C57.0781 79.3125 55.0703 81.3203 55.0703 83.797C55.0703 86.2738 57.0781 88.2815 59.5548 88.2815Z" fill="#E24C4B"/>
</g>
<defs>
<clipPath id="clip0_819_47131">
<rect width="119.102" height="108" fill="white" transform="translate(0 0.835938)"/>
</clipPath>
</defs>
</svg>
