<svg width="88" height="87" viewBox="0 0 88 87" fill="none" xmlns="http://www.w3.org/2000/svg">
<path d="M0.587861 6.88234C0.587861 3.31889 3.4766 0.430146 7.04005 0.430146H80.1648C83.7283 0.430146 86.617 3.31889 86.617 6.88233V80.0071C86.617 83.5706 83.7283 86.4593 80.1648 86.4593H7.04005C3.47661 86.4593 0.587861 83.5706 0.587861 80.0071V6.88234Z" fill="#F5F5F5" stroke="#ECECEC" stroke-width="0.860292"/>
<path d="M31.8809 14.7522L31.9559 14.8439C32.0076 14.907 32.0594 14.9596 32.1185 15.0198C32.155 15.0569 32.1942 15.0968 32.238 15.1437C32.3393 15.2525 32.4536 15.3896 32.5168 15.5614C32.6532 15.9287 32.579 16.2926 32.3529 16.5608C32.1309 16.8242 31.7787 16.9785 31.3798 16.9836L31.378 16.9837C30.1761 16.9902 28.9739 16.988 27.7729 16.9858C27.173 16.9848 26.5734 16.9837 25.9742 16.9837H25.6226V18.1449V18.1537V18.1626V18.1714V18.1802V18.189V18.1979V18.2067V18.2155V18.2243V18.2331V18.242V18.2508V18.2596V18.2684V18.2773V18.2861V18.2949V18.3037V18.3125V18.3214V18.3302V18.339V18.3478V18.3567V18.3655V18.3743V18.3831V18.3919V18.4008V18.4096V18.4184V18.4272V18.4361V18.4449V18.4537V18.4625V18.4714V18.4802V18.489V18.4978V18.5066V18.5155V18.5243V18.5331V18.5419V18.5508V18.5596V18.5684V18.5772V18.586V18.5949V18.6037V18.6125V18.6213V18.6302V18.639V18.6478V18.6566V18.6654V18.6743V18.6831V18.6919V18.7007V18.7096V18.7184V18.7272V18.736V18.7448V18.7537V18.7625V18.7713V18.7801V18.789V18.7978V18.8066V18.8154V18.8243V18.8331V18.8419V18.8507V18.8595V18.8684V18.8772V18.886V18.8948V18.9037V18.9125V18.9213V18.9301V18.9389V18.9478V18.9566V18.9654V18.9742V18.9831V18.9919V19.0007V19.0095V19.0184V19.0272V19.036V19.0448V19.0536V19.0625V19.0713V19.0801V19.0889V19.0978V19.1066V19.1154V19.1242V19.133V19.1419V19.1507V19.1595V19.1683V19.1772V19.186V19.1948V19.2036V19.2125V19.2213V19.2301V19.2389V19.2477V19.2566V19.2654V19.2742V19.283V19.2919V19.3007V19.3095V19.3183V19.3271V19.336V19.3448V19.3536V19.3624V19.3713V19.3801V19.3889V19.3977V19.4066V19.4154V19.4242V19.433V19.4418V19.4507V19.4595V19.4683V19.4771V19.486V19.4948V19.5036V19.5124V19.5213V19.5301V19.5389V19.5477V19.5565V19.5654V19.5742V19.583V19.5918V19.6007V19.6095V19.6183V19.6271V19.636V19.6448V19.6536V19.6624V19.6712V19.6801V19.6889V19.6977V19.7065V19.7154V19.7242V19.733V19.7418V19.7507V19.7595V19.7683V19.7771V19.7859V19.7948V19.8036V19.8124V19.8212V19.8301V19.8389V19.8477V19.8565V19.8654V19.8742V19.883V19.8918V19.9007V19.9095V19.9183V19.9271V19.9359V19.9448V19.9536V19.9624V19.9712V19.9801V19.9889V19.9977V20.0065V20.0154V20.0242V20.033V20.0418V20.0506V20.0595V20.0683V20.0771V20.0859V20.0948V20.1036V20.1124V20.1212V20.1301V20.1389V20.1477V20.1565V20.1654V20.1742V20.183V20.1918V20.2007V20.2095V20.2183V20.2271V20.2359V20.2448V20.2536V20.2624V20.2712V20.2801V20.2889V20.2977V20.3065V20.3154V20.3242V20.333V20.3418V20.3507V20.3595V20.3683V20.3771V20.386V20.3948V20.4036V20.4124V20.4212V20.4301V20.4389V20.4477V20.4565V20.4654V20.4742V20.483V20.4918V20.5007V20.5095V20.5183V20.5271V20.536V20.5448V20.5536V20.5624V20.5713V20.5801V20.5889V20.5977V20.6066V20.6154V20.6242V20.633V20.6419V20.6507V20.6595V20.6683V20.6772V20.686V20.6948V20.7036V20.7125V20.7213V20.7301V20.7389V20.7477V20.7566V20.7654V20.7742V20.783V20.7919V20.8007V20.8095V20.8183V20.8272V20.836V20.8448V20.8536V20.8625V20.8713V20.8801V20.8889V20.8978V20.9066V20.9154V20.9242V20.9331V20.9419V20.9507V20.9595V20.9684V20.9772V20.986V20.9948V21.0037V21.0125V21.0213V21.0301V21.039V21.0478V21.0566V21.0654V21.0743V21.0831V21.0919V21.1007V21.1096V21.1184V21.1272V21.136V21.1449V21.1537V21.1625V21.1713V21.1802V21.189V21.1978V21.2066V21.2155V21.2243V21.2331V21.2419V21.2508V21.2596V21.2684V21.2772V21.2861V21.2949V21.3037V21.3126V21.3214V21.3302V21.339V21.3479V21.3567V21.3655V21.3743V21.3832V21.392V21.4008V21.4096V21.4185V21.4273V21.4361V21.4449V21.4538V21.4626V21.4714V21.4802V21.4891V21.4979V21.5067V21.5155V21.5244V21.5332V21.542V21.5508V21.5597V21.5685V21.5773V21.5862V21.595V21.6038V21.6126V21.6215V21.6303V21.6391V21.6479V21.6568V21.6656V21.6744V21.6832V21.6921V21.7009V21.7097V21.7185V21.7274V21.7362V21.745V21.7539V21.7627V21.7715V21.7803V21.7892V21.798V21.8068V21.8156V21.8245V21.8333V21.8421V21.8509V21.8598V21.8686V21.8774V21.8863V21.8951V21.9039V21.9127V21.9216V21.9304V21.9392V21.948V21.9569V21.9657V21.9745V21.9833V21.9922V22.001V22.0098V22.0187V22.0275V22.0363V22.0451V22.054V22.0628V22.0716V22.0804V22.0893V22.0981V22.1069V22.1158V22.1246V22.1334V22.1422V22.1511V22.1599V22.1687V22.1775V22.1864V22.1952V22.204V22.2129V22.2217V22.2305V22.2393V22.2482V22.257V22.2658V22.2747V22.2835V22.2923V22.3011V22.31V22.3188V22.3276V22.3364V22.3453V22.3541V22.3629V22.3718V22.3806V22.3894V22.3982V22.4071V22.4159V22.4247V22.4336V22.4424V22.4512V22.46V22.4689V22.4777V22.4865V22.4954V22.5042V22.513V22.5218V22.5307V22.5395V22.5483V22.5572V22.566V22.5748V22.5836V22.5925V22.6013V22.6101V22.619V22.6278V22.6366V22.6454V22.6543V22.6631C25.6226 23.0307 25.5247 23.351 25.3139 23.5788C25.0996 23.8104 24.7991 23.9133 24.4653 23.9008M31.8809 14.7522L23.3865 22.5912L23.6365 22.5904L23.3865 22.5913C23.3877 22.9598 23.4722 23.2824 23.6619 23.5204C23.857 23.7651 24.1388 23.8893 24.4653 23.9008M31.8809 14.7522L31.7625 14.7522L24.2284 14.75L24.1581 14.75L24.0981 14.7866C23.8371 14.9458 23.6459 15.1492 23.5271 15.3976C23.4094 15.6436 23.3706 15.9171 23.3868 16.2065C23.3995 16.5031 23.3953 16.7948 23.391 17.0946C23.3888 17.2487 23.3865 17.405 23.3865 17.5652C23.3865 18.1229 23.3858 18.6809 23.3851 19.239C23.3836 20.3561 23.3821 21.474 23.3865 22.5913L31.8809 14.7522ZM24.4653 23.9008L24.4746 23.651L24.4659 23.9008C24.4657 23.9008 24.4655 23.9008 24.4653 23.9008Z" fill="#0063F5" stroke="#0063F5" stroke-width="0.5"/>
<path d="M57.8247 16.115C57.8278 15.827 57.7804 15.5614 57.6529 15.3291C57.524 15.0941 57.3246 14.9142 57.0602 14.78L57.0068 14.7529L57.5748 16.1124M57.8247 16.115L57.5748 16.1124M57.8247 16.115C57.8247 16.1149 57.8248 16.1148 57.8248 16.1146L57.5748 16.1124M57.8247 16.115C57.8121 17.5216 57.8135 18.9274 57.8149 20.3347C57.8157 21.1072 57.8165 21.8802 57.8149 22.6541M57.5748 16.1124C57.5621 17.5202 57.5635 18.9285 57.5649 20.337C57.5657 21.1093 57.5665 21.8817 57.5649 22.6541M57.8149 22.6541H57.5649M57.8149 22.6541C57.8149 22.995 57.736 23.2958 57.5564 23.5216C57.3728 23.7525 57.108 23.8747 56.8012 23.8988M57.8149 22.6541C57.8149 22.6543 57.8149 22.6544 57.8149 22.6546L57.5649 22.6541M57.5649 22.6541L56.8012 23.8988M56.8012 23.8988C56.8011 23.8988 56.801 23.8988 56.8008 23.8988L56.7813 23.6496L56.8017 23.8987C56.8015 23.8987 56.8014 23.8988 56.8012 23.8988ZM55.8321 16.9877V16.7377H55.5821V16.9877H55.8321ZM55.5821 22.6614C55.5821 22.6615 55.5821 22.6615 55.5821 22.6615C55.5821 22.6616 55.5821 22.6616 55.5821 22.6617L55.8321 22.6606L55.5821 22.6614Z" fill="#0063F5" stroke="#0063F5" stroke-width="0.5"/>
<path d="M19.9082 64.0536L19.9082 64.0537C19.8945 65.0545 20.1662 65.8643 20.7303 66.4229C21.2935 66.9805 22.1113 67.2512 23.115 67.2512H41.0003C47.0506 67.2555 53.0965 67.2544 59.138 67.2479C60.031 67.2473 60.7905 66.9545 61.3291 66.4186C61.8675 65.883 62.1641 65.1254 62.1712 64.2346C62.1733 64.1062 62.1763 63.9764 62.1792 63.8457C62.1901 63.3672 62.2013 62.8756 62.1707 62.3892L62.1707 62.3889C62.1425 61.9476 62.125 61.4979 62.1075 61.0442C62.0619 59.8676 62.0152 58.6646 61.7758 57.5144L61.7757 57.5137C60.1194 49.6617 53.3791 44.2576 45.333 44.2124C42.4644 44.1961 39.5917 44.2016 36.7208 44.2124C34.8705 44.219 33.0394 44.4684 31.2876 45.1216L31.2875 45.1216C24.9436 47.4893 21.1318 52.0088 20.104 58.6998C19.9007 60.0227 19.9059 61.3842 19.911 62.7193C19.9127 63.1679 19.9144 63.6134 19.9082 64.0536ZM37.0992 46.4537L37.1004 46.4537L45.1997 46.1917L45.1992 46.4417C45.1993 46.4417 45.1993 46.4417 45.1994 46.4417C52.2648 46.4557 58.0833 51.0555 59.5834 57.9183C59.8105 58.9577 59.8454 60.0278 59.8811 61.123C59.8961 61.5838 59.9113 62.049 59.941 62.5182C59.9593 62.8573 59.9533 63.1911 59.947 63.535C59.9438 63.7118 59.9406 63.8914 59.9406 64.0757C59.939 64.5176 59.8651 64.7266 59.7554 64.8372C59.6466 64.9469 59.4419 65.0208 59.0059 65.0208H41.0125H41.0125L23.176 65.0175H23.176C22.6531 65.0175 22.4305 64.9483 22.3184 64.836C22.2069 64.7242 22.1377 64.502 22.1432 63.9761L22.1432 63.976C22.1474 63.5654 22.1464 63.1571 22.1455 62.7506C22.142 61.2147 22.1385 59.7052 22.4096 58.198L22.4096 58.1979C23.4233 52.5489 28.2242 47.7187 33.8952 46.7367C34.9541 46.5592 36.0254 46.4645 37.0992 46.4537Z" fill="#0063F5" stroke="#0063F5" stroke-width="0.5"/>
<path d="M41.0652 38.6435L41.0658 38.6435C43.6659 38.6346 46.1568 37.6004 47.9936 35.7666C49.8304 33.9329 50.8634 31.4489 50.8664 28.858V28.8575C50.8642 26.924 50.2864 25.0346 49.2062 23.4284C48.1261 21.8221 46.5921 20.5711 44.7984 19.8334C43.0047 19.0958 41.0318 18.9045 39.129 19.2837C37.2262 19.663 35.4789 20.5958 34.1081 21.9643C32.7373 23.3328 31.8046 25.0756 31.4281 26.9724C31.0516 28.8691 31.2482 30.8345 31.993 32.6199C32.7379 34.4053 33.9974 35.9304 35.6123 37.0026C37.2271 38.0747 39.1247 38.6457 41.0652 38.6435ZM41.0278 36.4065L40.8556 36.4066C39.9169 36.3844 38.99 36.1887 38.1223 35.829C37.2014 35.4472 36.3653 34.8882 35.6618 34.1841C34.9583 33.4799 34.4013 32.6445 34.0226 31.7257C33.644 30.8069 33.4511 29.8227 33.4549 28.8296C33.4623 27.3402 33.9123 25.8863 34.7484 24.6513C35.5845 23.4162 36.7692 22.4554 38.1532 21.8901C39.5372 21.3249 41.0583 21.1806 42.5246 21.4756C43.9909 21.7706 45.3364 22.4916 46.3916 23.5474C47.4467 24.6032 48.1641 25.9465 48.4534 27.4078C48.7427 28.8691 48.5909 30.383 48.0173 31.7586C47.4437 33.1341 46.4738 34.3098 45.2298 35.137C43.9859 35.9643 42.5237 36.4061 41.0278 36.4065Z" fill="#0063F5" stroke="#0063F5" stroke-width="0.5"/>
<path d="M28.8509 40.7533H25.625L25.6276 40.3808H25.6276V40.3791V40.3689V40.3587V40.3485V40.3383V40.328V40.3178V40.3076V40.2974V40.2872V40.277V40.2668V40.2566V40.2464V40.2362V40.226V40.2157V40.2055V40.1953V40.1851V40.1749V40.1647V40.1545V40.1443V40.1341V40.1239V40.1137V40.1034V40.0932V40.083V40.0728V40.0626V40.0524V40.0422V40.032V40.0218V40.0116V40.0014V39.9911V39.9809V39.9707V39.9605V39.9503V39.9401V39.9299V39.9197V39.9095V39.8993V39.8891V39.8788V39.8686V39.8584V39.8482V39.838V39.8278V39.8176V39.8074V39.7972V39.787V39.7768V39.7665V39.7563V39.7461V39.7359V39.7257V39.7155V39.7053V39.6951V39.6849V39.6747V39.6645V39.6542V39.644V39.6338V39.6236V39.6134V39.6032V39.593V39.5828V39.5726V39.5624V39.5522V39.5419V39.5317V39.5215V39.5113V39.5011V39.4909V39.4807V39.4705V39.4603V39.4501V39.4399V39.4296V39.4194V39.4092V39.399V39.3888V39.3786V39.3684V39.3582V39.348V39.3378V39.3276V39.3173V39.3071V39.2969V39.2867V39.2765V39.2663V39.2561V39.2459V39.2357V39.2255V39.2153V39.205V39.1948V39.1846V39.1744V39.1642V39.154V39.1438V39.1336V39.1234V39.1132V39.103V39.0927V39.0825V39.0723V39.0621V39.0519V39.0417V39.0315V39.0213V39.0111V39.0009V38.9907V38.9804V38.9702V38.96V38.9498V38.9396V38.9294V38.9192V38.909V38.8988V38.8886V38.8784V38.8681V38.8579V38.8477V38.8375V38.8273V38.8171V38.8069V38.7967V38.7865V38.7763V38.7661V38.7558V38.7456V38.7354V38.7252V38.715V38.7048V38.6946V38.6844V38.6742V38.664V38.6538V38.6435V38.6333V38.6231V38.6129V38.6027V38.5925V38.5823V38.5721V38.5619V38.5517V38.5415V38.5312V38.521V38.5108V38.5006V38.4904V38.4802V38.47V38.4598V38.4496V38.4394V38.4292V38.4189V38.4087V38.3985V38.3883V38.3781V38.3679V38.3577V38.3475V38.3373V38.3271V38.3169V38.3066V38.2964V38.2862V38.276V38.2658V38.2556V38.2454V38.2352V38.225V38.2148V38.2046V38.1943V38.1841V38.1739V38.1637V38.1535V38.1433V38.1331V38.1229V38.1127V38.1025V38.0923V38.082V38.0718V38.0616V38.0514V38.0412V38.031V38.0208V38.0106V38.0004V37.9902V37.98V37.9697V37.9595V37.9493V37.9391V37.9289V37.9187V37.9085V37.8983V37.8881V37.8779V37.8677V37.8574V37.8472V37.837V37.8268V37.8166V37.8064V37.7962V37.786V37.7758V37.7656V37.7554V37.7451V37.7349V37.7247V37.7145V37.7043V37.6941V37.6839V37.6737V37.6635V37.6533V37.6431V37.6328V37.6226V37.6124V37.6022V37.592V37.5818V37.5716V37.5614V37.5512V37.541V37.5308V37.5205V37.5103V37.5001V37.4899V37.4797V37.4695V37.4593V37.4491V37.4389V37.4287V37.4185V37.4082V37.398V37.3878V37.3776V37.3674V37.3572V37.347V37.3368V37.3266V37.3164V37.3062V37.2959V37.2857V37.2755V37.2653V37.2551V37.2449V37.2347V37.2245V37.2143V37.2041V37.1939V37.1836V37.1734V37.1632V37.153V37.1428V37.1326V37.1224V37.1122V37.102V37.0918V37.0816V37.0713V37.0611V37.0509V37.0407V37.0305V37.0203V37.0101V36.9999V36.9897V36.9795V36.9693V36.959V36.9488V36.9386V36.9284V36.9182V36.908V36.8978V36.8876V36.8774V36.8672V36.857V36.8467V36.8365V36.8263V36.8161V36.8059V36.7957V36.7855V36.7753V36.7651V36.7549V36.7447V36.7344V36.7242V36.714V36.7038V36.6936V36.6834V36.6732V36.663V36.6528V36.6426V36.6324V36.6221V36.6119V36.6017V36.5915V36.5813V36.5711V36.5609V36.5507V36.5405V36.5303V36.5201V36.5098V36.4996V36.4894V36.4792V36.469V36.4588V36.4486V36.4384V36.4282V36.418V36.4078V36.3975V36.3873V36.3771V36.3669V36.3567V36.3465V36.3363V36.3261V36.3159V36.3057V36.2955V36.2852V36.275V36.2648V36.2546V36.2444V36.2342V36.224V36.2138V36.2036V36.1934V36.1832V36.1729V36.1627V36.1525V36.1423V36.1321V36.1219V36.1117V36.1015V36.0913V36.0811V36.0709V36.0606V36.0504V36.0402V36.03V36.0198V36.0096V35.9994V35.9892V35.979V35.9688V35.9586V35.9483V35.9381V35.9279V35.9177V35.9075V35.8973V35.8871V35.8769V35.8667V35.8565V35.8463V35.836V35.8258V35.8156V35.8054V35.7952V35.785V35.7748V35.7646V35.7544V35.7442V35.734V35.7237V35.7135V35.7033V35.6931V35.6829V35.6727V35.6625V35.6523V35.6421V35.6319V35.6217V35.6114V35.6012V35.591V35.5808V35.5706V35.5604V35.5502V35.54V35.5298V35.5196V35.5094V35.4991V35.4889V35.4787V35.4685V35.4583V35.4481V35.4379V35.4277V35.4175V35.4073V35.3971V35.3868V35.3766V35.3664V35.3562V35.346V35.3358V35.3256V35.3154V35.3052V35.295V35.2848V35.2745V35.2643V35.2541V35.2439V35.2337V35.2235V35.2133V35.2031V35.1929V35.1827V35.1725V35.1622V35.152C25.6276 34.7673 25.5429 34.4336 25.3439 34.193C25.138 33.9442 24.8414 33.8327 24.5033 33.836C24.1633 33.8393 23.869 33.9596 23.6657 34.2111C23.4688 34.4546 23.3838 34.7887 23.3838 35.1716H23.6338L23.3838 35.1708C23.3773 37.336 23.3773 39.5018 23.3838 41.6684L23.3838 41.6698C23.3873 42.0788 23.4697 42.4289 23.7168 42.6691C23.9626 42.9081 24.3169 42.9848 24.7302 42.9848H24.7429H24.7557H24.7684H24.7812H24.7939H24.8066H24.8194H24.8321H24.8448H24.8576H24.8703H24.8831H24.8958H24.9085H24.9213H24.934H24.9467H24.9595H24.9722H24.985H24.9977H25.0104H25.0232H25.0359H25.0486H25.0614H25.0741H25.0869H25.0996H25.1123H25.1251H25.1378H25.1505H25.1633H25.176H25.1888H25.2015H25.2142H25.227H25.2397H25.2524H25.2652H25.2779H25.2907H25.3034H25.3161H25.3289H25.3416H25.3543H25.3671H25.3798H25.3926H25.4053H25.418H25.4308H25.4435H25.4562H25.469H25.4817H25.4945H25.5072H25.5199H25.5327H25.5454H25.5581H25.5709H25.5836H25.5964H25.6091H25.6218H25.6346H25.6473H25.66H25.6728H25.6855H25.6983H25.711H25.7237H25.7365H25.7492H25.7619H25.7747H25.7874H25.8002H25.8129H25.8256H25.8384H25.8511H25.8638H25.8766H25.8893H25.9021H25.9148H25.9275H25.9403H25.953H25.9657H25.9785H25.9912H26.004H26.0167H26.0294H26.0422H26.0549H26.0677H26.0804H26.0931H26.1059H26.1186H26.1313H26.1441H26.1568H26.1696H26.1823H26.195H26.2078H26.2205H26.2332H26.246H26.2587H26.2715H26.2842H26.2969H26.3097H26.3224H26.3351H26.3479H26.3606H26.3734H26.3861H26.3988H26.4116H26.4243H26.437H26.4498H26.4625H26.4753H26.488H26.5007H26.5135H26.5262H26.5389H26.5517H26.5644H26.5772H26.5899H26.6026H26.6154H26.6281H26.6408H26.6536H26.6663H26.6791H26.6918H26.7045H26.7173H26.73H26.7427H26.7555H26.7682H26.781H26.7937H26.8064H26.8192H26.8319H26.8446H26.8574H26.8701H26.8829H26.8956H26.9083H26.9211H26.9338H26.9465H26.9593H26.972H26.9848H26.9975H27.0102H27.023H27.0357H27.0484H27.0612H27.0739H27.0867H27.0994H27.1121H27.1249H27.1376H27.1503H27.1631H27.1758H27.1886H27.2013H27.214H27.2268H27.2395H27.2522H27.265H27.2777H27.2905H27.3032H27.3159H27.3287H27.3414H27.3541H27.3669H27.3796H27.3924H27.4051H27.4178H27.4306H27.4433H27.4561H27.4688H27.4815H27.4943H27.507H27.5197H27.5325H27.5452H27.558H27.5707H27.5834H27.5962H27.6089H27.6216H27.6344H27.6471H27.6599H27.6726H27.6853H27.6981H27.7108H27.7235H27.7363H27.749H27.7618H27.7745H27.7872H27.8H27.8127H27.8254H27.8382H27.8509H27.8637H27.8764H27.8891H27.9019H27.9146H27.9273H27.9401H27.9528H27.9656H27.9783H27.991H28.0038H28.0165H28.0292H28.042H28.0547H28.0675H28.0802H28.0929H28.1057H28.1184H28.1311H28.1439H28.1566H28.1694H28.1821H28.1948H28.2076H28.2203H28.233H28.2458H28.2585H28.2713H28.284H28.2967H28.3095H28.3222H28.3349H28.3477H28.3604H28.3732H28.3859H28.3986H28.4114H28.4241H28.4368H28.4496H28.4623H28.4751H28.4878H28.5005H28.5133H28.526H28.5387H28.5515H28.5642H28.577H28.5897H28.6024H28.6152H28.6279H28.6406H28.6534H28.6661H28.6789H28.6916H28.7043H28.7171H28.7298H28.7425H28.7553H28.768H28.7808H28.7935H28.8062H28.819H28.8317H28.8445H28.8572H28.8699H28.8827H28.8954H28.9081H28.9209H28.9336H28.9464H28.9591H28.9718H28.9846H28.9973H29.01H29.0228H29.0355H29.0483H29.061H29.0737H29.0865H29.0992H29.1119H29.1247H29.1374H29.1502H29.1629H29.1756H29.1884H29.2011H29.2138H29.2266H29.2393H29.2521H29.2648H29.2775H29.2903H29.303H29.3157H29.3285H29.3412H29.354H29.3667H29.3794H29.3922H29.4049H29.4176H29.4304H29.4431H29.4559H29.4686H29.4813H29.4941H29.5068H29.5195H29.5323H29.545H29.5578H29.5705H29.5832H29.596H29.6087H29.6214H29.6342H29.6469H29.6597H29.6724H29.6851H29.6979H29.7106H29.7233H29.7361H29.7488H29.7616H29.7743H29.787H29.7998H29.8125H29.8252H29.838H29.8507H29.8635H29.8762H29.8889H29.9017H29.9144H29.9271H29.9399H29.9526H29.9654H29.9781H29.9908H30.0036H30.0163H30.029H30.0418H30.0545H30.0673H30.08H30.0927H30.1055H30.1182H30.131H30.1437H30.1564H30.1692H30.1819H30.1946H30.2074H30.2201H30.2329H30.2456H30.2583H30.2711H30.2838H30.2965H30.3093H30.322H30.3348H30.3475H30.3602H30.373H30.3857H30.3984H30.4112H30.4239H30.4367H30.4494H30.4621H30.4749H30.4876H30.5003H30.5131H30.5258H30.5386H30.5513H30.564H30.5768H30.5895H30.6022H30.615H30.6277H30.6405H30.6532H30.6659H30.6787H30.6914H30.7041H30.7169H30.7296H30.7424H30.7551H30.7678H30.7806H30.7933H30.806H30.8188H30.8315H30.8443H30.857H30.8697H30.8825H30.8952H30.9079H30.9207H30.9334H30.9462H30.9589H30.9716H30.9844H30.9971H31.0098H31.0226H31.0353H31.0481H31.0608H31.0735H31.0863H31.099H31.1117H31.1245H31.1372H31.15H31.1627H31.1754H31.1882H31.2009H31.2136H31.2264H31.2391H31.2519H31.2523H31.2527H31.253H31.2534H31.2538H31.2542H31.2546H31.255H31.2554H31.2558H31.2562H31.2566H31.257H31.2574H31.2578H31.2582H31.2586H31.259H31.2594H31.2598H31.2602H31.2606H31.261H31.2614H31.2618H31.2622H31.2626H31.263H31.2634H31.2638H31.2641H31.2645H31.2649H31.2653H31.2657H31.2661H31.2665H31.2669H31.2673H31.2677H31.2681H31.2685H31.2689H31.2693H31.2697H31.2701H31.2705H31.2709H31.2713H31.2717H31.2721H31.2725H31.2729H31.2733H31.2737H31.2741H31.2745H31.2749H31.2753H31.2757H31.2761H31.2765H31.2769H31.2772H31.2776H31.278H31.2784H31.2788H31.2792H31.2796H31.28H31.2804H31.2808H31.2812H31.2816H31.282H31.2824H31.2828H31.2832H31.2836H31.284H31.2844H31.2848H31.2852H31.2856H31.286H31.2864H31.2868H31.2872H31.2876H31.288H31.2884H31.2888H31.2892H31.2896H31.29H31.2904H31.2908H31.2912H31.2916H31.292H31.2924H31.2928H31.2932H31.2936H31.294H31.2943H31.2947H31.2951H31.2955H31.2959H31.2963H31.2967H31.2971H31.2975H31.2979H31.2983H31.2987H31.2991H31.2995H31.2999H31.3003H31.3007H31.3011H31.3015H31.3019H31.3023H31.3027H31.3031H31.3035H31.3039H31.3043H31.3047H31.3051H31.3055H31.3059H31.3063H31.3067H31.3071H31.3075H31.3079H31.3083H31.3087H31.3091H31.3095H31.3099H31.3103H31.3107H31.3111H31.3115H31.3119H31.3123H31.3127H31.3131H31.3135H31.3139H31.3143H31.3147H31.3151H31.3155H31.3159H31.3163H31.3167H31.3171H31.3175H31.3179H31.3183H31.3187H31.319H31.3194H31.3198H31.3202H31.3206H31.321H31.3214H31.3218H31.3222H31.3226H31.323H31.3234H31.3238H31.3242H31.3246H31.325H31.3254H31.3258H31.3262H31.3266H31.327H31.3274H31.3278H31.3282H31.3286H31.329H31.3294H31.3298H31.3302H31.3306H31.331H31.3314H31.3318H31.3322H31.3326H31.333H31.3334H31.3338H31.3342H31.3346H31.335H31.3354H31.3358H31.3362H31.3366H31.337H31.3374H31.3378H31.3382H31.3386H31.339H31.3394H31.3398H31.3402H31.3406H31.341H31.3414H31.3418H31.3422H31.3426H31.343H31.3434H31.3438H31.3442H31.3446H31.345H31.3454H31.3458H31.3462H31.3466H31.347H31.3474H31.3478H31.3482H31.3486H31.349H31.3494H31.3498H31.3502H31.3506H31.351H31.3514H31.3518H31.3522H31.3526H31.353H31.3534H31.3538H31.3542H31.3546H31.355H31.3554H31.3558H31.3562H31.3566H31.357H31.3574H31.3578H31.3582H31.3586H31.359H31.3593H31.3597H31.3601H31.3605H31.3609H31.3613H31.3617H31.3621H31.3625H31.3629H31.3633H31.3637H31.3641H31.3645H31.3649H31.3653H31.3657H31.3661H31.3665H31.3669H31.3673H31.3677H31.3681H31.3685H31.3689H31.3693H31.3697H31.3701H31.3705H31.3709H31.3713H31.3717H31.3721H31.3725H31.3729H31.3733H31.3737H31.3741H31.3745H31.3749H31.3753H31.3757H31.3761H31.3765H31.3769H31.3773H31.3777H31.3781H31.3785H31.3789H31.3793H31.3797H31.3801H31.3805H31.3809H31.3813H31.3817H31.3821H31.3825H31.3829H31.3833H31.3837H31.3841H31.3845H31.3849H31.3853H31.3857H31.3861H31.3865H31.3869H31.3873H31.3877H31.3881H31.3885H31.3889H31.3893H31.3897H31.3901H31.3905H31.3909H31.3913H31.3917H31.3921H31.3925H31.3929H31.3933H31.3937H31.3941H31.3945H31.3949H31.3953H31.3957H31.396H31.3964H31.3968H31.3972H31.3976H31.398H31.3984H31.3988H31.3992H31.3996H31.4H31.4004H31.4008H31.4012H31.4016H31.402H31.4024H31.4028H31.4032H31.4036H31.404H31.4044H31.4048H31.4052H31.4056H31.406H31.4064H31.4068H31.4072H31.4076H31.408H31.4084H31.4088H31.4092H31.4096H31.41H31.4104H31.4108H31.4112H31.4116H31.412H31.4124H31.4128H31.4132H31.4136H31.414H31.4144H31.4148H31.4152H31.4156H31.416H31.4164H31.4168H31.4172H31.4176H31.418H31.4183H31.4187H31.4191H31.4195H31.4199H31.4203H31.4207H31.4211H31.4215H31.4219H31.4223H31.4227H31.4231H31.4235H31.4239H31.4243H31.4247H31.4251H31.4255H31.4259H31.4263H31.4267H31.4271H31.4275H31.4279H31.4283H31.4287H31.4291H31.4295H31.4299H31.4303H31.4307H31.4311H31.4315H31.4319H31.4323H31.4327H31.4331H31.4335H31.4339H31.4342H31.4346H31.435H31.4354H31.4358H31.4362H31.4366H31.437H31.4374H31.4378H31.4382H31.4386H31.439H31.4394H31.4398H31.4402H31.4406H31.441H31.4414H31.4418H31.4422H31.4426H31.443H31.4434H31.4438H31.4442H31.4446H31.445H31.4454H31.4458H31.4462H31.4466H31.4469H31.4473H31.4477H31.4481H31.4485H31.4489H31.4493H31.4497H31.4501H31.4505H31.4509H31.4513H31.4517H31.4521H31.4525H31.4529H31.4533H31.4537H31.4541H31.4545H31.4549H31.4553H31.4557H31.4646L31.4735 42.9842C32.1001 42.9394 32.5906 42.4863 32.5906 41.8663L32.5906 41.8633C32.5888 41.7153 32.5575 41.5692 32.4987 41.4333C32.4398 41.2975 32.3545 41.1748 32.2478 41.0721C32.1411 40.9694 32.0151 40.8889 31.877 40.8352C31.7407 40.7821 31.5953 40.7561 31.449 40.7587C30.8301 40.7471 30.212 40.7493 29.5938 40.7515C29.3462 40.7524 29.0986 40.7533 28.8509 40.7533Z" fill="#0559FF" stroke="#0559FF" stroke-width="0.5"/>
<path d="M55.6003 34.7562L55.6005 34.7563C55.6439 34.4819 55.7901 34.2345 56.0094 34.0638C56.2272 33.8944 56.5008 33.8131 56.7757 33.8358C57.0405 33.848 57.2918 33.9566 57.4819 34.1413L57.3083 34.3199L57.4819 34.1413C57.6728 34.3268 57.7886 34.5761 57.8067 34.8416C57.8158 34.9503 57.8186 35.0595 57.815 35.1685V35.1771V35.1898V35.2025V35.2151V35.2278V35.2405V35.2532V35.2659V35.2786V35.2913V35.304V35.3167V35.3294V35.3421V35.3548V35.3674V35.3801V35.3928V35.4055V35.4182V35.4309V35.4436V35.4563V35.469V35.4817V35.4944V35.5071V35.5197V35.5324V35.5451V35.5578V35.5705V35.5832V35.5959V35.6086V35.6213V35.634V35.6467V35.6594V35.672V35.6847V35.6974V35.7101V35.7228V35.7355V35.7482V35.7609V35.7736V35.7863V35.799V35.8117V35.8243V35.837V35.8497V35.8624V35.8751V35.8878V35.9005V35.9132V35.9259V35.9386V35.9513V35.964V35.9766V35.9893V36.002V36.0147V36.0274V36.0401V36.0528V36.0655V36.0782V36.0909V36.1036V36.1162V36.1289V36.1416V36.1543V36.167V36.1797V36.1924V36.2051V36.2178V36.2305V36.2432V36.2559V36.2685V36.2812V36.2939V36.3066V36.3193V36.332V36.3447V36.3574V36.3701V36.3828V36.3955V36.4081V36.4208V36.4335V36.4462V36.4589V36.4716V36.4843V36.497V36.5097V36.5224V36.5351V36.5477V36.5604V36.5731V36.5858V36.5985V36.6112V36.6239V36.6366V36.6493V36.662V36.6747V36.6873V36.7V36.7127V36.7254V36.7381V36.7508V36.7635V36.7762V36.7889V36.8016V36.8143V36.8269V36.8396V36.8523V36.865V36.8777V36.8904V36.9031V36.9158V36.9285V36.9412V36.9539V36.9665V36.9792V36.9919V37.0046V37.0173V37.03V37.0427V37.0554V37.0681V37.0808V37.0935V37.1061V37.1188V37.1315V37.1442V37.1569V37.1696V37.1823V37.195V37.2077V37.2204V37.2331V37.2457V37.2584V37.2711V37.2838V37.2965V37.3092V37.3219V37.3346V37.3473V37.36V37.3726V37.3853V37.398V37.4107V37.4234V37.4361V37.4488V37.4615V37.4742V37.4869V37.4996V37.5122V37.5249V37.5376V37.5503V37.563V37.5757V37.5884V37.6011V37.6138V37.6265V37.6391V37.6518V37.6645V37.6772V37.6899V37.7026V37.7153V37.728V37.7407V37.7534V37.7661V37.7787V37.7914V37.8041V37.8168V37.8295V37.8422V37.8549V37.8676V37.8803V37.893V37.9056V37.9183V37.931V37.9437V37.9564V37.9691V37.9818V37.9945V38.0072V38.0199V38.0325V38.0452V38.0579V38.0706V38.0833V38.096V38.1087V38.1214V38.1341V38.1468V38.1594V38.1721V38.1848V38.1975V38.2102V38.2229V38.2356V38.2483V38.261V38.2737V38.2863V38.299V38.3117V38.3244V38.3371V38.3498V38.3625V38.3752V38.3879V38.4006V38.4132V38.4259V38.4386V38.4513V38.464V38.4767V38.4894V38.5021V38.5148V38.5275V38.5401V38.5528V38.5655V38.5782V38.5909V38.6036V38.6163V38.629V38.6417V38.6543V38.667V38.6797V38.6924V38.7051V38.7178V38.7305V38.7432V38.7559V38.7686V38.7812V38.7939V38.8066V38.8193V38.832V38.8447V38.8574V38.8701V38.8828V38.8954V38.9081V38.9208V38.9335V38.9462V38.9589V38.9716V38.9843V38.997V39.0097V39.0223V39.035V39.0477V39.0604V39.0731V39.0858V39.0985V39.1112V39.1239V39.1365V39.1492V39.1619V39.1746V39.1873V39.2V39.2127V39.2254V39.2381V39.2508V39.2634V39.2761V39.2888V39.3015V39.3142V39.3269V39.3396V39.3523V39.365V39.3776V39.3903V39.403V39.4157V39.4284V39.4411V39.4538V39.4665V39.4792V39.4918V39.5045V39.5172V39.5299V39.5426V39.5553V39.568V39.5807V39.5934V39.606V39.6187V39.6314V39.6441V39.6568V39.6695V39.6822V39.6949V39.7076V39.7203V39.7329V39.7456V39.7583V39.771V39.7837V39.7964V39.8091V39.8218V39.8345V39.8471V39.8598V39.8725V39.8852V39.8979V39.9106V39.9233V39.936V39.9487V39.9613V39.974V39.9867V39.9994V40.0121V40.0248V40.0375V40.0502V40.0628V40.0755V40.0882V40.1009V40.1136V40.1263V40.139V40.1517V40.1644V40.177V40.1897V40.2024V40.2151V40.2278V40.2405V40.2532V40.2659V40.2786V40.2912V40.3039V40.3166V40.3293V40.342V40.3547V40.3674V40.3801V40.3928V40.4054V40.4181V40.4308V40.4435V40.4562V40.4689V40.4816V40.4943V40.507V40.5196V40.5323V40.545V40.5577V40.5704V40.5831V40.5958V40.6085V40.6211V40.6338V40.6465V40.6592V40.6719V40.6846V40.6973V40.71V40.7227V40.7353V40.748V40.7607V40.7734V40.7861V40.7988V40.8115V40.8242V40.8368V40.8495V40.8622V40.8749V40.8876V40.9003V40.913V40.9257V40.9384V40.951V40.9637V40.9764V40.9891V41.0018V41.0145V41.0272V41.0399V41.0525V41.0652V41.0779V41.0906V41.1033V41.116V41.1287V41.1414V41.1541V41.1667V41.1794V41.1921V41.2048V41.2175V41.2302V41.2429V41.2556V41.2682V41.2809V41.2936V41.3063V41.319V41.3317V41.3444V41.3571V41.3697V41.3824V41.3951V41.4078V41.4205V41.4332V41.4459V41.4586V41.4712V41.4839V41.4966V41.5093V41.522V41.5347V41.5474V41.5601V41.5728V41.5854V41.5981V41.6108V41.6235V41.6362V41.6489V41.6616C57.815 42.071 57.7379 42.4226 57.4938 42.6643C57.2504 42.9052 56.8967 42.9814 56.4843 42.9819H56.4839H56.4712H56.4584H56.4457H56.433H56.4202H56.4075H56.3947H56.382H56.3692H56.3565H56.3438H56.331H56.3183H56.3055H56.2928H56.28H56.2673H56.2546H56.2418H56.2291H56.2163H56.2036H56.1909H56.1781H56.1654H56.1526H56.1399H56.1271H56.1144H56.1017H56.0889H56.0762H56.0634H56.0507H56.038H56.0252H56.0125H55.9997H55.987H55.9742H55.9615H55.9488H55.936H55.9233H55.9105H55.8978H55.8851H55.8723H55.8596H55.8468H55.8341H55.8214H55.8086H55.7959H55.7831H55.7704H55.7576H55.7449H55.7322H55.7194H55.7067H55.6939H55.6812H55.6685H55.6557H55.643H55.6302H55.6175H55.6047H55.592H55.5793H55.5665H55.5538H55.541H55.5283H55.5156H55.5028H55.4901H55.4773H55.4646H55.4519H55.4391H55.4264H55.4136H55.4009H55.3881H55.3754H55.3627H55.3499H55.3372H55.3244H55.3117H55.299H55.2862H55.2735H55.2607H55.248H55.2353H55.2225H55.2098H55.197H55.1843H55.1715H55.1588H55.1461H55.1333H55.1206H55.1078H55.0951H55.0824H55.0696H55.0569H55.0441H55.0314H55.0187H55.0059H54.9932H54.9804H54.9677H54.955H54.9422H54.9295H54.9167H54.904H54.8912H54.8785H54.8658H54.853H54.8403H54.8275H54.8148H54.8021H54.7893H54.7766H54.7638H54.7511H54.7384H54.7256H54.7129H54.7001H54.6874H54.6747H54.6619H54.6492H54.6364H54.6237H54.611H54.5982H54.5855H54.5727H54.56H54.5472H54.5345H54.5218H54.509H54.4963H54.4835H54.4708H54.4581H54.4453H54.4326H54.4198H54.4071H54.3944H54.3816H54.3689H54.3561H54.3434H54.3307H54.3179H54.3052H54.2924H54.2797H54.267H54.2542H54.2415H54.2287H54.216H54.2033H54.1905H54.1778H54.165H54.1523H54.1396H54.1268H54.1141H54.1013H54.0886H54.0759H54.0631H54.0504H54.0376H54.0249H54.0121H53.9994H53.9867H53.9739H53.9612H53.9484H53.9357H53.923H53.9102H53.8975H53.8847H53.872H53.8593H53.8465H53.8338H53.821H53.8083H53.7956H53.7828H53.7701H53.7573H53.7446H53.7319H53.7191H53.7064H53.6936H53.6809H53.6682H53.6554H53.6427H53.6299H53.6172H53.6045H53.5917H53.579H53.5662H53.5535H53.5408H53.528H53.5153H53.5025H53.4898H53.4771H53.4643H53.4516H53.4388H53.4261H53.4134H53.4006H53.3879H53.3751H53.3624H53.3497H53.3369H53.3242H53.3114H53.2987H53.286H53.2732H53.2605H53.2477H53.235H53.2223H53.2095H53.1968H53.184H53.1713H53.1586H53.1458H53.1331H53.1203H53.1076H53.0949H53.0821H53.0694H53.0567H53.0439H53.0312H53.0184H53.0057H52.993H52.9802H52.9675H52.9547H52.942H52.9293H52.9165H52.9038H52.891H52.8783H52.8656H52.8528H52.8401H52.8273H52.8146H52.8019H52.7891H52.7764H52.7636H52.7509H52.7382H52.7254H52.7127H52.6999H52.6872H52.6745H52.6617H52.649H52.6362H52.6235H52.6108H52.598H52.5853H52.5725H52.5598H52.5471H52.5343H52.5216H52.5089H52.4961H52.4834H52.4706H52.4579H52.4452H52.4324H52.4197H52.4069H52.3942H52.3815H52.3687H52.356H52.3432H52.3305H52.3178H52.305H52.2923H52.2795H52.2668H52.2541H52.2413H52.2286H52.2159H52.2031H52.1904H52.1776H52.1649H52.1522H52.1394H52.1267H52.1139H52.1012H52.0885H52.0757H52.063H52.0502H52.0375H52.0248H52.012H51.9993H51.9865H51.9738H51.9611H51.9483H51.9356H51.9229H51.9101H51.8974H51.8846H51.8719H51.8592H51.8464H51.8337H51.8209H51.8082H51.7955H51.7827H51.77H51.7572H51.7445H51.7318H51.719H51.7063H51.6936H51.6808H51.6681H51.6553H51.6426H51.6299H51.6171H51.6044H51.5916H51.5789H51.5662H51.5534H51.5407H51.528H51.5152H51.5025H51.4897H51.477H51.4643H51.4515H51.4388H51.426H51.4133H51.4006H51.3878H51.3751H51.3623H51.3496H51.3369H51.3241H51.3114H51.2987H51.2859H51.2732H51.2604H51.2477H51.235H51.2222H51.2095H51.1967H51.184H51.1713H51.1585H51.1458H51.1331H51.1203H51.1076H51.0948H51.0821H51.0694H51.0566H51.0439H51.0312H51.0184H51.0057H50.9929H50.9802H50.9675H50.9547H50.942H50.9292H50.9165H50.9038H50.891H50.8783H50.8656H50.8528H50.8401H50.8273H50.8146H50.8019H50.7891H50.7764H50.7636H50.7509H50.7382H50.7254H50.7127H50.7H50.6872H50.6745H50.6617H50.649H50.6363H50.6235H50.6108H50.5981H50.5853H50.5726H50.5598H50.5471H50.5344H50.5216H50.5089H50.4961H50.4834H50.4707H50.4579H50.4452H50.4325H50.4197H50.407H50.3942H50.3815H50.3688H50.356H50.3433H50.3306H50.3178H50.3051H50.2923H50.2796H50.2669H50.2541H50.2414H50.2287H50.2159H50.2032H50.1904H50.1777H50.165H50.1522H50.1395H50.1267H50.114H50.1013H50.0885H50.0758H50.0631H50.0503H50.0376H50.0248H50.0121H49.9994H49.9866H49.9739H49.9612C49.5798 42.9819 49.2459 42.8974 49.0031 42.7009C48.7518 42.4978 48.6326 42.2032 48.6333 41.863C48.634 41.5223 48.7549 41.2293 49.0075 41.028C49.2511 40.8339 49.5849 40.751 49.9651 40.7504L49.9655 40.7504L55.6003 34.7562ZM55.6003 34.7562L55.5993 34.7651M55.6003 34.7562L55.5993 34.7651M55.5993 34.7651C55.5774 34.9449 55.5706 35.1261 55.5789 35.307V35.3122V35.3232V35.3342V35.3452V35.3561V35.3671V35.3781V35.3891V35.4001V35.4111V35.4221V35.4331V35.4441V35.4551V35.4661V35.4771V35.4881V35.4991V35.5101V35.5211V35.5321V35.5431V35.5541V35.5651V35.5761V35.5871V35.5981V35.6091V35.6201V35.6311V35.6421V35.6531V35.6641V35.6751V35.6861V35.6971V35.7081V35.7191V35.7301V35.7411V35.7521V35.7631V35.7741V35.7851V35.7961V35.8071V35.8181V35.8291V35.8401V35.8511V35.8621V35.8731V35.8841V35.8951V35.9061V35.9171V35.9281V35.9391V35.9501V35.9611V35.9721V35.9831V35.9941V36.0051V36.0161V36.0271V36.0381V36.0491V36.0601V36.0711V36.0821V36.0931V36.1042V36.1152V36.1262V36.1372V36.1482V36.1592V36.1702V36.1812V36.1922V36.2032V36.2142V36.2252V36.2362V36.2472V36.2582V36.2692V36.2803V36.2913V36.3023V36.3133V36.3243V36.3353V36.3463V36.3573V36.3683V36.3793V36.3904V36.4014V36.4124V36.4234V36.4344V36.4454V36.4564V36.4674V36.4785V36.4895V36.5005V36.5115V36.5225V36.5335V36.5446V36.5556V36.5666V36.5776V36.5886V36.5996V36.6107V36.6217V36.6327V36.6437V36.6547V36.6658V36.6768V36.6878V36.6988V36.7098V36.7209V36.7319V36.7429V36.7539V36.7649V36.776V36.787V36.798V36.809V36.8201V36.8311V36.8421V36.8532V36.8642V36.8752V36.8862V36.8973V36.9083V36.9193V36.9304V36.9414V36.9524V36.9634V36.9745V36.9855V36.9965V37.0076V37.0186V37.0296V37.0407V37.0517V37.0627V37.0738V37.0848V37.0959V37.1069V37.1179V37.129V37.14V37.1511V37.1621V37.1731V37.1842V37.1952V37.2063V37.2173V37.2283V37.2394V37.2504V37.2615V37.2725V37.2836V37.2946V37.3057V37.3167V37.3278V37.3388V37.3499V37.3609V37.372V37.383V37.3941V37.4051V37.4162V37.4272V37.4383V37.4493V37.4604V37.4715V37.4825V37.4936V37.5046V37.5157V37.5268V37.5378V37.5489V37.5599V37.571V37.5821V37.5931V37.6042V37.6153V37.6263V37.6374V37.6485V37.6595V37.6706V37.6817V37.6927V37.7038V37.7149V37.7259V37.737V37.7481V37.7592V37.7702V37.7813V37.7924V37.8035V37.8145V37.8256V37.8367V37.8478V37.8589V37.8699V37.881V37.8921V37.9032V37.9143V37.9254V37.9364V37.9475V37.9586V37.9697V37.9808V37.9919V38.003V38.0141V38.0252V38.0363V38.0473V38.0584V38.0695V38.0806V38.0917V38.1028V38.1139V38.125V38.1361V38.1472V38.1583V38.1694V38.1805V38.1916V38.2027V38.2138V38.225V38.2361V38.2472V38.2583V38.2694V38.2805V38.2916V38.3027V38.3138V38.325V38.3361V38.3472V38.3583V38.3694V38.3805V38.3917V38.4028V38.4139V38.425V38.4361V38.4473V38.4584V38.4695V38.4806V38.4918V38.5029V38.514V38.5252V38.5363V38.5474V38.5586V38.5697V38.5808V38.592V38.6031V38.6142V38.6254V38.6365V38.6477V38.6588V38.67V38.6811V38.6922V38.7034V38.7145V38.7257V38.7368V38.748V38.7591V38.7703V38.7814V38.7926V38.8037V38.8149V38.8261V38.8372V38.8484V38.8595V38.8707V38.8819V38.893V38.9042V38.9154V38.9265V38.9377V38.9489V38.96V38.9712V38.9824V38.9935V39.0047V39.0159V39.0271V39.0382V39.0494V39.0606V39.0718V39.083V39.0942V39.1053V39.1165V39.1277V39.1389V39.1501V39.1613V39.1725V39.1837V39.1948V39.206V39.2172V39.2284V39.2396V39.2508V39.262V39.2732V39.2844V39.2956V39.3068V39.318V39.3293V39.3405V39.3517V39.3629V39.3741V39.3853V39.3965V39.4077V39.419V39.4302V39.4414V39.4526V39.4638V39.4751V39.4863V39.4975V39.5087V39.52V39.5312V39.5424V39.5536V39.5649V39.5761V39.5873V39.5986V39.6098V39.6211V39.6323V39.6435V39.6548V39.666V39.6773V39.6885V39.6998V39.711V39.7223V39.7335V39.7448V39.756V39.7673V39.7785V39.7898V39.801V39.8123V39.8236V39.8348V39.8461V39.8574V39.8686V39.8799V39.8912V39.9024V39.9137V39.925V39.9363V39.9475V39.9588V39.9701V39.9814V39.9927V40.0039V40.0152V40.0265V40.0378V40.0491V40.0604V40.0717V40.083V40.0943V40.1055V40.1168V40.1281V40.1394V40.1507V40.162V40.1734V40.1847V40.196V40.2073V40.2186V40.2299V40.2412V40.2525V40.2638V40.2752V40.2865V40.2978V40.3091V40.3204V40.3318V40.3431V40.3544V40.3657V40.3771V40.3884V40.3997V40.4111V40.4224V40.4337V40.4451V40.4564V40.4678V40.4791V40.4905V40.5018V40.5132V40.5245V40.5359V40.5472V40.5586V40.5699V40.5813V40.5926V40.604V40.6154V40.6267V40.6381V40.6495V40.6608V40.6722V40.6836V40.6949V40.7063V40.7177V40.7291V40.7404V40.7517L55.5993 34.7651ZM55.2142 40.7504H55.2151L55.2142 41.0004V40.7504ZM55.2142 40.7504H55.204M55.2142 40.7504H55.204M55.204 40.7504H55.1937M55.204 40.7504H55.1937M55.1937 40.7504H55.1835M55.1937 40.7504H55.1835M55.1835 40.7504H55.1732M55.1835 40.7504H55.1732M55.1732 40.7504H55.163M55.1732 40.7504H55.163M55.163 40.7504H55.1527M55.163 40.7504H55.1527M55.1527 40.7504H55.1425M55.1527 40.7504H55.1425M55.1425 40.7504H55.1322M55.1425 40.7504H55.1322M55.1322 40.7504H55.1219M55.1322 40.7504H55.1219M55.1219 40.7504H55.1117M55.1219 40.7504H55.1117M55.1117 40.7504H55.1014M55.1117 40.7504H55.1014M55.1014 40.7504H55.0912M55.1014 40.7504H55.0912M55.0912 40.7504H55.0809M55.0912 40.7504H55.0809M55.0809 40.7504H55.0707M55.0809 40.7504H55.0707M55.0707 40.7504H55.0604M55.0707 40.7504H55.0604M55.0604 40.7504H55.0502M55.0604 40.7504H55.0502M55.0502 40.7504H55.0399M55.0502 40.7504H55.0399M55.0399 40.7504H55.0296M55.0399 40.7504H55.0296M55.0296 40.7504H55.0194M55.0296 40.7504H55.0194M55.0194 40.7504H55.0091M55.0194 40.7504H55.0091M55.0091 40.7504H54.9989M55.0091 40.7504H54.9989M54.9989 40.7504H54.9886M54.9989 40.7504H54.9886M54.9886 40.7504H54.9784M54.9886 40.7504H54.9784M54.9784 40.7504H54.9681M54.9784 40.7504H54.9681M54.9681 40.7504H54.9579M54.9681 40.7504H54.9579M54.9579 40.7504H54.9476M54.9579 40.7504H54.9476M54.9476 40.7504H54.9373M54.9476 40.7504H54.9373M54.9373 40.7504H54.9271M54.9373 40.7504H54.9271M54.9271 40.7504H54.9168M54.9271 40.7504H54.9168M54.9168 40.7504H54.9066M54.9168 40.7504H54.9066M54.9066 40.7504H54.8963M54.9066 40.7504H54.8963M54.8963 40.7504H54.8861M54.8963 40.7504H54.8861M54.8861 40.7504H54.8758M54.8861 40.7504H54.8758M54.8758 40.7504H54.8656M54.8758 40.7504H54.8656M54.8656 40.7504H54.8553M54.8656 40.7504H54.8553M54.8553 40.7504H54.845M54.8553 40.7504H54.845M54.845 40.7504H54.8348M54.845 40.7504H54.8348M54.8348 40.7504H54.8245M54.8348 40.7504H54.8245M54.8245 40.7504H54.8143M54.8245 40.7504H54.8143M54.8143 40.7504H54.804M54.8143 40.7504H54.804M54.804 40.7504H54.7938M54.804 40.7504H54.7938M54.7938 40.7504H54.7835M54.7938 40.7504H54.7835M54.7835 40.7504H54.7733M54.7835 40.7504H54.7733M54.7733 40.7504H54.763M54.7733 40.7504H54.763M54.763 40.7504H54.7528M54.763 40.7504H54.7528M54.7528 40.7504H54.7425M54.7528 40.7504H54.7425M54.7425 40.7504H54.7322M54.7425 40.7504H54.7322M54.7322 40.7504H54.722M54.7322 40.7504H54.722M54.722 40.7504H54.7117M54.722 40.7504H54.7117M54.7117 40.7504H54.7015M54.7117 40.7504H54.7015M54.7015 40.7504H54.6912M54.7015 40.7504H54.6912M54.6912 40.7504H54.681M54.6912 40.7504H54.681M54.681 40.7504H54.6707M54.681 40.7504H54.6707M54.6707 40.7504H54.6605M54.6707 40.7504H54.6605M54.6605 40.7504H54.6502M54.6605 40.7504H54.6502M54.6502 40.7504H54.6399M54.6502 40.7504H54.6399M54.6399 40.7504H54.6297M54.6399 40.7504H54.6297M54.6297 40.7504H54.6194M54.6297 40.7504H54.6194M54.6194 40.7504H54.6092M54.6194 40.7504H54.6092M54.6092 40.7504H54.5989M54.6092 40.7504H54.5989M54.5989 40.7504H54.5887M54.5989 40.7504H54.5887M54.5887 40.7504H54.5784M54.5887 40.7504H54.5784M54.5784 40.7504H54.5682M54.5784 40.7504H54.5682M54.5682 40.7504H54.5579M54.5682 40.7504H54.5579M54.5579 40.7504H54.5477M54.5579 40.7504H54.5477M54.5477 40.7504H54.5374M54.5477 40.7504H54.5374M54.5374 40.7504H54.5271M54.5374 40.7504H54.5271M54.5271 40.7504H54.5169M54.5271 40.7504H54.5169M54.5169 40.7504H54.5066M54.5169 40.7504H54.5066M54.5066 40.7504H54.4964M54.5066 40.7504H54.4964M54.4964 40.7504H54.4861M54.4964 40.7504H54.4861M54.4861 40.7504H54.4759M54.4861 40.7504H54.4759M54.4759 40.7504H54.4656M54.4759 40.7504H54.4656M54.4656 40.7504H54.4554M54.4656 40.7504H54.4554M54.4554 40.7504H54.4451M54.4554 40.7504H54.4451M54.4451 40.7504H54.4349M54.4451 40.7504H54.4349M54.4349 40.7504H54.4246M54.4349 40.7504H54.4246M54.4246 40.7504H54.4143M54.4246 40.7504H54.4143M54.4143 40.7504H54.4041M54.4143 40.7504H54.4041M54.4041 40.7504H54.3938M54.4041 40.7504H54.3938M54.3938 40.7504H54.3836M54.3938 40.7504H54.3836M54.3836 40.7504H54.3733M54.3836 40.7504H54.3733M54.3733 40.7504H54.3631M54.3733 40.7504H54.3631M54.3631 40.7504H54.3528M54.3631 40.7504H54.3528M54.3528 40.7504H54.3426M54.3528 40.7504H54.3426M54.3426 40.7504H54.3323M54.3426 40.7504H54.3323M54.3323 40.7504H54.3221M54.3323 40.7504H54.3221M54.3221 40.7504H54.3118M54.3221 40.7504H54.3118M54.3118 40.7504H54.3016M54.3118 40.7504H54.3016M54.3016 40.7504H54.2913M54.3016 40.7504H54.2913M54.2913 40.7504H54.281M54.2913 40.7504H54.281M54.281 40.7504H54.2708M54.281 40.7504H54.2708M54.2708 40.7504H54.2605M54.2708 40.7504H54.2605M54.2605 40.7504H54.2503M54.2605 40.7504H54.2503M54.2503 40.7504H54.24M54.2503 40.7504H54.24M54.24 40.7504H54.2298M54.24 40.7504H54.2298M54.2298 40.7504H54.2195M54.2298 40.7504H54.2195M54.2195 40.7504H54.2093M54.2195 40.7504H54.2093M54.2093 40.7504H54.199M54.2093 40.7504H54.199M54.199 40.7504H54.1888M54.199 40.7504H54.1888M54.1888 40.7504H54.1785M54.1888 40.7504H54.1785M54.1785 40.7504H54.1682M54.1785 40.7504H54.1682M54.1682 40.7504H54.158M54.1682 40.7504H54.158M54.158 40.7504H54.1477M54.158 40.7504H54.1477M54.1477 40.7504H54.1375M54.1477 40.7504H54.1375M54.1375 40.7504H54.1272M54.1375 40.7504H54.1272M54.1272 40.7504H54.117M54.1272 40.7504H54.117M54.117 40.7504H54.1067M54.117 40.7504H54.1067M54.1067 40.7504H54.0965M54.1067 40.7504H54.0965M54.0965 40.7504H54.0862M54.0965 40.7504H54.0862M54.0862 40.7504H54.076M54.0862 40.7504H54.076M54.076 40.7504H54.0657M54.076 40.7504H54.0657M54.0657 40.7504H54.0555M54.0657 40.7504H54.0555M54.0555 40.7504H54.0452M54.0555 40.7504H54.0452M54.0452 40.7504H54.0349M54.0452 40.7504H54.0349M54.0349 40.7504H54.0247M54.0349 40.7504H54.0247M54.0247 40.7504H54.0144M54.0247 40.7504H54.0144M54.0144 40.7504H54.0042M54.0144 40.7504H54.0042M54.0042 40.7504H53.9939M54.0042 40.7504H53.9939M53.9939 40.7504H53.9837M53.9939 40.7504H53.9837M53.9837 40.7504H53.9734M53.9837 40.7504H53.9734M53.9734 40.7504H53.9632M53.9734 40.7504H53.9632M53.9632 40.7504H53.9529M53.9632 40.7504H53.9529M53.9529 40.7504H53.9427M53.9529 40.7504H53.9427M53.9427 40.7504H53.9324M53.9427 40.7504H53.9324M53.9324 40.7504H53.9222M53.9324 40.7504H53.9222M53.9222 40.7504H53.9119M53.9222 40.7504H53.9119M53.9119 40.7504H53.9017M53.9119 40.7504H53.9017M53.9017 40.7504H53.8914M53.9017 40.7504H53.8914M53.8914 40.7504H53.8811M53.8914 40.7504H53.8811M53.8811 40.7504H53.8709M53.8811 40.7504H53.8709M53.8709 40.7504H53.8606M53.8709 40.7504H53.8606M53.8606 40.7504H53.8504M53.8606 40.7504H53.8504M53.8504 40.7504H53.8401M53.8504 40.7504H53.8401M53.8401 40.7504H53.8299M53.8401 40.7504H53.8299M53.8299 40.7504H53.8196M53.8299 40.7504H53.8196M53.8196 40.7504H53.8094M53.8196 40.7504H53.8094M53.8094 40.7504H53.7991M53.8094 40.7504H53.7991M53.7991 40.7504H53.7889M53.7991 40.7504H53.7889M53.7889 40.7504H53.7786M53.7889 40.7504H53.7786M53.7786 40.7504H53.7684M53.7786 40.7504H53.7684M53.7684 40.7504H53.7581M53.7684 40.7504H53.7581M53.7581 40.7504H53.7479M53.7581 40.7504H53.7479M53.7479 40.7504H53.7376M53.7479 40.7504H53.7376M53.7376 40.7504H53.7273M53.7376 40.7504H53.7273M53.7273 40.7504H53.7171M53.7273 40.7504H53.7171M53.7171 40.7504H53.7068M53.7171 40.7504H53.7068M53.7068 40.7504H53.6966M53.7068 40.7504H53.6966M53.6966 40.7504H53.6863M53.6966 40.7504H53.6863M53.6863 40.7504H53.6761M53.6863 40.7504H53.6761M53.6761 40.7504H53.6658M53.6761 40.7504H53.6658M53.6658 40.7504H53.6556M53.6658 40.7504H53.6556M53.6556 40.7504H53.6453M53.6556 40.7504H53.6453M53.6453 40.7504H53.6351M53.6453 40.7504H53.6351M53.6351 40.7504H53.6248M53.6351 40.7504H53.6248M53.6248 40.7504H53.6146M53.6248 40.7504H53.6146M53.6146 40.7504H53.6043M53.6146 40.7504H53.6043M53.6043 40.7504H53.5941M53.6043 40.7504H53.5941M53.5941 40.7504H53.5838M53.5941 40.7504H53.5838M53.5838 40.7504H53.5735M53.5838 40.7504H53.5735M53.5735 40.7504H53.5633M53.5735 40.7504H53.5633M53.5633 40.7504H53.553M53.5633 40.7504H53.553M53.553 40.7504H53.5428M53.553 40.7504H53.5428M53.5428 40.7504H53.5325M53.5428 40.7504H53.5325M53.5325 40.7504H53.5223M53.5325 40.7504H53.5223M53.5223 40.7504H53.512M53.5223 40.7504H53.512M53.512 40.7504H53.5018M53.512 40.7504H53.5018M53.5018 40.7504H53.4915M53.5018 40.7504H53.4915M53.4915 40.7504H53.4813M53.4915 40.7504H53.4813M53.4813 40.7504H53.471M53.4813 40.7504H53.471M53.471 40.7504H53.4608M53.471 40.7504H53.4608M53.4608 40.7504H53.4505M53.4608 40.7504H53.4505M53.4505 40.7504H53.4403M53.4505 40.7504H53.4403M53.4403 40.7504H53.43M53.4403 40.7504H53.43M53.43 40.7504H53.4198M53.43 40.7504H53.4198M53.4198 40.7504H53.4095M53.4198 40.7504H53.4095M53.4095 40.7504H53.3992M53.4095 40.7504H53.3992M53.3992 40.7504H53.389M53.3992 40.7504H53.389M53.389 40.7504H53.3787M53.389 40.7504H53.3787M53.3787 40.7504H53.3685M53.3787 40.7504H53.3685M53.3685 40.7504H53.3582M53.3685 40.7504H53.3582M53.3582 40.7504H53.348M53.3582 40.7504H53.348M53.348 40.7504H53.3377M53.348 40.7504H53.3377M53.3377 40.7504H53.3275M53.3377 40.7504H53.3275M53.3275 40.7504H53.3172M53.3275 40.7504H53.3172M53.3172 40.7504H53.307M53.3172 40.7504H53.307M53.307 40.7504H53.2967M53.307 40.7504H53.2967M53.2967 40.7504H53.2865M53.2967 40.7504H53.2865M53.2865 40.7504H53.2762M53.2865 40.7504H53.2762M53.2762 40.7504H53.266M53.2762 40.7504H53.266M53.266 40.7504H53.2557M53.266 40.7504H53.2557M53.2557 40.7504H53.2455M53.2557 40.7504H53.2455M53.2455 40.7504H53.2352M53.2455 40.7504H53.2352M53.2352 40.7504H53.225M53.2352 40.7504H53.225M53.225 40.7504H53.2147M53.225 40.7504H53.2147M53.2147 40.7504H53.2045M53.2147 40.7504H53.2045M53.2045 40.7504H53.1942M53.2045 40.7504H53.1942M53.1942 40.7504H53.1839M53.1942 40.7504H53.1839M53.1839 40.7504H53.1737M53.1839 40.7504H53.1737M53.1737 40.7504H53.1634M53.1737 40.7504H53.1634M53.1634 40.7504H53.1532M53.1634 40.7504H53.1532M53.1532 40.7504H53.1429M53.1532 40.7504H53.1429M53.1429 40.7504H53.1327M53.1429 40.7504H53.1327M53.1327 40.7504H53.1224M53.1327 40.7504H53.1224M53.1224 40.7504H53.1122M53.1224 40.7504H53.1122M53.1122 40.7504H53.1019M53.1122 40.7504H53.1019M53.1019 40.7504H53.0917M53.1019 40.7504H53.0917M53.0917 40.7504H53.0814M53.0917 40.7504H53.0814M53.0814 40.7504H53.0712M53.0814 40.7504H53.0712M53.0712 40.7504H53.0609M53.0712 40.7504H53.0609M53.0609 40.7504H53.0507M53.0609 40.7504H53.0507M53.0507 40.7504H53.0404M53.0507 40.7504H53.0404M53.0404 40.7504H53.0302M53.0404 40.7504H53.0302M53.0302 40.7504H53.0199M53.0302 40.7504H53.0199M53.0199 40.7504H53.0097M53.0199 40.7504H53.0097M53.0097 40.7504H52.9994M53.0097 40.7504H52.9994M52.9994 40.7504H52.9892M52.9994 40.7504H52.9892M52.9892 40.7504H52.9789M52.9892 40.7504H52.9789M52.9789 40.7504H52.9687M52.9789 40.7504H52.9687M52.9687 40.7504H52.9584M52.9687 40.7504H52.9584M52.9584 40.7504H52.9481M52.9584 40.7504H52.9481M52.9481 40.7504H52.9379M52.9481 40.7504H52.9379M52.9379 40.7504H52.9276M52.9379 40.7504H52.9276M52.9276 40.7504H52.9174M52.9276 40.7504H52.9174M52.9174 40.7504H52.9071M52.9174 40.7504H52.9071M52.9071 40.7504H52.8969M52.9071 40.7504H52.8969M52.8969 40.7504H52.8866M52.8969 40.7504H52.8866M52.8866 40.7504H52.8764M52.8866 40.7504H52.8764M52.8764 40.7504H52.8661M52.8764 40.7504H52.8661M52.8661 40.7504H52.8559M52.8661 40.7504H52.8559M52.8559 40.7504H52.8456M52.8559 40.7504H52.8456M52.8456 40.7504H52.8354M52.8456 40.7504H52.8354M52.8354 40.7504H52.8251M52.8354 40.7504H52.8251M52.8251 40.7504H52.8149M52.8251 40.7504H52.8149M52.8149 40.7504H52.8046M52.8149 40.7504H52.8046M52.8046 40.7504H52.7944M52.8046 40.7504H52.7944M52.7944 40.7504H52.7841M52.7944 40.7504H52.7841M52.7841 40.7504H52.7739M52.7841 40.7504H52.7739M52.7739 40.7504H52.7636M52.7739 40.7504H52.7636M52.7636 40.7504H52.7534M52.7636 40.7504H52.7534M52.7534 40.7504H52.7431M52.7534 40.7504H52.7431M52.7431 40.7504H52.7329M52.7431 40.7504H52.7329M52.7329 40.7504H52.7226M52.7329 40.7504H52.7226M52.7226 40.7504H52.7124M52.7226 40.7504H52.7124M52.7124 40.7504H52.7021M52.7124 40.7504H52.7021M52.7021 40.7504H52.6919M52.7021 40.7504H52.6919M52.6919 40.7504H52.6816M52.6919 40.7504H52.6816M52.6816 40.7504H52.6713M52.6816 40.7504H52.6713M52.6713 40.7504H52.6611M52.6713 40.7504H52.6611M52.6611 40.7504H52.6508M52.6611 40.7504H52.6508M52.6508 40.7504H52.6406M52.6508 40.7504H52.6406M52.6406 40.7504H52.6303M52.6406 40.7504H52.6303M52.6303 40.7504H52.6201M52.6303 40.7504H52.6201M52.6201 40.7504H52.6098M52.6201 40.7504H52.6098M52.6098 40.7504H52.5996M52.6098 40.7504H52.5996M52.5996 40.7504H52.5893M52.5996 40.7504H52.5893M52.5893 40.7504H52.5791M52.5893 40.7504H52.5791M52.5791 40.7504H52.5688M52.5791 40.7504H52.5688M52.5688 40.7504H52.5586M52.5688 40.7504H52.5586M52.5586 40.7504H52.5483M52.5586 40.7504H52.5483M52.5483 40.7504H52.5381M52.5483 40.7504H52.5381M52.5381 40.7504H52.5278M52.5381 40.7504H52.5278M52.5278 40.7504H52.5176M52.5278 40.7504H52.5176M52.5176 40.7504H52.5073M52.5176 40.7504H52.5073M52.5073 40.7504H52.4971M52.5073 40.7504H52.4971M52.4971 40.7504H52.4868M52.4971 40.7504H52.4868M52.4868 40.7504H52.4766M52.4868 40.7504H52.4766M52.4766 40.7504H52.4663M52.4766 40.7504H52.4663M52.4663 40.7504H52.4561M52.4663 40.7504H52.4561M52.4561 40.7504H52.4458M52.4561 40.7504H52.4458M52.4458 40.7504H52.4356M52.4458 40.7504H52.4356M52.4356 40.7504H52.4253M52.4356 40.7504H52.4253M52.4253 40.7504H52.4151M52.4253 40.7504H52.4151M52.4151 40.7504H52.4048M52.4151 40.7504H52.4048M52.4048 40.7504H52.3946M52.4048 40.7504H52.3946M52.3946 40.7504H52.3843M52.3946 40.7504H52.3843M52.3843 40.7504H52.3741M52.3843 40.7504H52.3741M52.3741 40.7504H52.3638M52.3741 40.7504H52.3638M52.3638 40.7504H52.3536M52.3638 40.7504H52.3536M52.3536 40.7504H52.3433M52.3536 40.7504H52.3433M52.3433 40.7504H52.3331M52.3433 40.7504H52.3331M52.3331 40.7504H52.3228M52.3331 40.7504H52.3228M52.3228 40.7504H52.3126M52.3228 40.7504H52.3126M52.3126 40.7504H52.3023M52.3126 40.7504H52.3023M52.3023 40.7504H52.2921M52.3023 40.7504H52.2921M52.2921 40.7504H52.2818M52.2921 40.7504H52.2818M52.2818 40.7504H52.2716M52.2818 40.7504H52.2716M52.2716 40.7504H52.2613M52.2716 40.7504H52.2613M52.2613 40.7504H52.251M52.2613 40.7504H52.251M52.251 40.7504H52.2408M52.251 40.7504H52.2408M52.2408 40.7504H52.2305M52.2408 40.7504H52.2305M52.2305 40.7504H52.2203M52.2305 40.7504H52.2203M52.2203 40.7504H52.21M52.2203 40.7504H52.21M52.21 40.7504H52.1998M52.21 40.7504H52.1998M52.1998 40.7504H52.1895M52.1998 40.7504H52.1895M52.1895 40.7504H52.1793M52.1895 40.7504H52.1793M52.1793 40.7504H52.169M52.1793 40.7504H52.169M52.169 40.7504H52.1588M52.169 40.7504H52.1588M52.1588 40.7504H52.1485M52.1588 40.7504H52.1485M52.1485 40.7504H52.1383M52.1485 40.7504H52.1383M52.1383 40.7504H52.128M52.1383 40.7504H52.128M52.128 40.7504H52.1178M52.128 40.7504H52.1178M52.1178 40.7504H52.1075M52.1178 40.7504H52.1075M52.1075 40.7504H52.0973M52.1075 40.7504H52.0973M52.0973 40.7504H52.087M52.0973 40.7504H52.087M52.087 40.7504H52.0768M52.087 40.7504H52.0768M52.0768 40.7504H52.0665M52.0768 40.7504H52.0665M52.0665 40.7504H52.0563M52.0665 40.7504H52.0563M52.0563 40.7504H52.046M52.0563 40.7504H52.046M52.046 40.7504H52.0358M52.046 40.7504H52.0358M52.0358 40.7504H52.0255M52.0358 40.7504H52.0255M52.0255 40.7504H52.0153M52.0255 40.7504H52.0153M52.0153 40.7504H52.005M52.0153 40.7504H52.005M52.005 40.7504H51.9948M52.005 40.7504H51.9948M51.9948 40.7504H51.9845M51.9948 40.7504H51.9845M51.9845 40.7504H51.9743M51.9845 40.7504H51.9743M51.9743 40.7504H51.964M51.9743 40.7504H51.964M51.964 40.7504H51.9538M51.964 40.7504H51.9538M51.9538 40.7504H51.9435M51.9538 40.7504H51.9435M51.9435 40.7504H51.9333M51.9435 40.7504H51.9333M51.9333 40.7504H51.923M51.9333 40.7504H51.923M51.923 40.7504H51.9128M51.923 40.7504H51.9128M51.9128 40.7504H51.9025M51.9128 40.7504H51.9025M51.9025 40.7504H51.8923M51.9025 40.7504H51.8923M51.8923 40.7504H51.882M51.8923 40.7504H51.882M51.882 40.7504H51.8718M51.882 40.7504H51.8718M51.8718 40.7504H51.8615M51.8718 40.7504H51.8615M51.8615 40.7504H51.8513M51.8615 40.7504H51.8513M51.8513 40.7504H51.841M51.8513 40.7504H51.841M51.841 40.7504H51.8308M51.841 40.7504H51.8308M51.8308 40.7504H51.8205M51.8308 40.7504H51.8205M51.8205 40.7504H51.8103M51.8205 40.7504H51.8103M51.8103 40.7504H51.8M51.8103 40.7504H51.8M51.8 40.7504H51.7898M51.8 40.7504H51.7898M51.7898 40.7504H51.7795M51.7898 40.7504H51.7795M51.7795 40.7504H51.7693M51.7795 40.7504H51.7693M51.7693 40.7504H51.759M51.7693 40.7504H51.759M51.759 40.7504H51.7488M51.759 40.7504H51.7488M51.7488 40.7504H51.7385M51.7488 40.7504H51.7385M51.7385 40.7504H51.7283M51.7385 40.7504H51.7283M51.7283 40.7504H51.718M51.7283 40.7504H51.718M51.718 40.7504H51.7078M51.718 40.7504H51.7078M51.7078 40.7504H51.6975M51.7078 40.7504H51.6975M51.6975 40.7504H51.6873M51.6975 40.7504H51.6873M51.6873 40.7504H51.677M51.6873 40.7504H51.677M51.677 40.7504H51.6668M51.677 40.7504H51.6668M51.6668 40.7504H51.6565M51.6668 40.7504H51.6565M51.6565 40.7504H51.6463M51.6565 40.7504H51.6463M51.6463 40.7504H51.636M51.6463 40.7504H51.636M51.636 40.7504H51.6258M51.636 40.7504H51.6258M51.6258 40.7504H51.6155M51.6258 40.7504H51.6155M51.6155 40.7504H51.6053M51.6155 40.7504H51.6053M51.6053 40.7504H51.595M51.6053 40.7504H51.595M51.595 40.7504H51.5848M51.595 40.7504H51.5848M51.5848 40.7504H51.5745M51.5848 40.7504H51.5745M51.5745 40.7504H51.5643M51.5745 40.7504H51.5643M51.5643 40.7504H51.554M51.5643 40.7504H51.554M51.554 40.7504H51.5438M51.554 40.7504H51.5438M51.5438 40.7504H51.5335M51.5438 40.7504H51.5335M51.5335 40.7504H51.5233M51.5335 40.7504H51.5233M51.5233 40.7504H51.513M51.5233 40.7504H51.513M51.513 40.7504H51.5028M51.513 40.7504H51.5028M51.5028 40.7504H51.4925M51.5028 40.7504H51.4925M51.4925 40.7504H51.4823M51.4925 40.7504H51.4823M51.4823 40.7504H51.472M51.4823 40.7504H51.472M51.472 40.7504H51.4618M51.472 40.7504H51.4618M51.4618 40.7504H51.4515M51.4618 40.7504H51.4515M51.4515 40.7504H51.4413M51.4515 40.7504H51.4413M51.4413 40.7504H51.431M51.4413 40.7504H51.431M51.431 40.7504H51.4208M51.431 40.7504H51.4208M51.4208 40.7504H51.4105M51.4208 40.7504H51.4105M51.4105 40.7504H51.4003M51.4105 40.7504H51.4003M51.4003 40.7504H51.39M51.4003 40.7504H51.39M51.39 40.7504H51.3798M51.39 40.7504H51.3798M51.3798 40.7504H51.3695M51.3798 40.7504H51.3695M51.3695 40.7504H51.3593M51.3695 40.7504H51.3593M51.3593 40.7504H51.349M51.3593 40.7504H51.349M51.349 40.7504H51.3388M51.349 40.7504H51.3388M51.3388 40.7504H51.3285M51.3388 40.7504H51.3285M51.3285 40.7504H51.3183M51.3285 40.7504H51.3183M51.3183 40.7504H51.308M51.3183 40.7504H51.308M51.308 40.7504H51.2978M51.308 40.7504H51.2978M51.2978 40.7504H51.2875M51.2978 40.7504H51.2875M51.2875 40.7504H51.2773M51.2875 40.7504H51.2773M51.2773 40.7504H51.267M51.2773 40.7504H51.267M51.267 40.7504H51.2568M51.267 40.7504H51.2568M51.2568 40.7504H51.2465M51.2568 40.7504H51.2465M51.2465 40.7504H51.2363M51.2465 40.7504H51.2363M51.2363 40.7504H51.226M51.2363 40.7504H51.226M51.226 40.7504H51.2158M51.226 40.7504H51.2158M51.2158 40.7504H51.2055M51.2158 40.7504H51.2055M51.2055 40.7504H51.1953M51.2055 40.7504H51.1953M51.1953 40.7504H51.1851M51.1953 40.7504H51.1851M51.1851 40.7504H51.1748M51.1851 40.7504H51.1748M51.1748 40.7504H51.1646M51.1748 40.7504H51.1646M51.1646 40.7504H51.1543M51.1646 40.7504H51.1543M51.1543 40.7504H51.1441M51.1543 40.7504H51.1441M51.1441 40.7504H51.1338M51.1441 40.7504H51.1338M51.1338 40.7504H51.1236M51.1338 40.7504H51.1236M51.1236 40.7504H51.1133M51.1236 40.7504H51.1133M51.1133 40.7504H51.1031M51.1133 40.7504H51.1031M51.1031 40.7504H51.0928M51.1031 40.7504H51.0928M51.0928 40.7504H51.0826M51.0928 40.7504H51.0826M51.0826 40.7504H51.0723M51.0826 40.7504H51.0723M51.0723 40.7504H51.0621M51.0723 40.7504H51.0621M51.0621 40.7504H51.0518M51.0621 40.7504H51.0518M51.0518 40.7504H51.0416M51.0518 40.7504H51.0416M51.0416 40.7504H51.0313M51.0416 40.7504H51.0313M51.0313 40.7504H51.0211M51.0313 40.7504H51.0211M51.0211 40.7504H51.0108M51.0211 40.7504H51.0108M51.0108 40.7504H51.0006M51.0108 40.7504H51.0006M51.0006 40.7504H50.9903M51.0006 40.7504H50.9903M50.9903 40.7504H50.9801M50.9903 40.7504H50.9801M50.9801 40.7504H50.9698M50.9801 40.7504H50.9698M50.9698 40.7504H50.9596M50.9698 40.7504H50.9596M50.9596 40.7504H50.9493M50.9596 40.7504H50.9493M50.9493 40.7504H50.9391M50.9493 40.7504H50.9391M50.9391 40.7504H50.9288M50.9391 40.7504H50.9288M50.9288 40.7504H50.9186M50.9288 40.7504H50.9186M50.9186 40.7504H50.9083M50.9186 40.7504H50.9083M50.9083 40.7504H50.8981M50.9083 40.7504H50.8981M50.8981 40.7504H50.8878M50.8981 40.7504H50.8878M50.8878 40.7504H50.8776M50.8878 40.7504H50.8776M50.8776 40.7504H50.8673M50.8776 40.7504H50.8673M50.8673 40.7504H50.8571M50.8673 40.7504H50.8571M50.8571 40.7504H50.8468M50.8571 40.7504H50.8468M50.8468 40.7504H50.8366M50.8468 40.7504H50.8366M50.8366 40.7504H50.8263M50.8366 40.7504H50.8263M50.8263 40.7504H50.8161M50.8263 40.7504H50.8161M50.8161 40.7504H50.8058H50.8161Z" fill="#0063F5" stroke="#0063F5" stroke-width="0.5"/>
<circle cx="61.9438" cy="61" r="15" fill="#E7FBFF"/>
<path d="M70.116 54.3571C69.9522 54.3571 69.7894 54.2992 69.6591 54.1798C67.6624 52.3595 65.1002 51.3571 62.444 51.3571C59.7877 51.3571 57.2255 52.3595 55.2288 54.1807C54.9511 54.4331 54.5222 54.4123 54.2698 54.1364C54.0174 53.8595 54.0373 53.4298 54.3141 53.1774C56.5624 51.1282 59.4493 50 62.444 50C65.4386 50 68.3255 51.1282 70.5738 53.1774C70.8506 53.4298 70.8705 53.8586 70.6181 54.1364C70.4842 54.2829 70.3005 54.3571 70.116 54.3571Z" fill="#0063F5"/>
<path d="M71.2647 58.7911C71.0467 58.7911 70.8314 58.6861 70.7011 58.4907C68.8175 55.6861 65.7306 54.0114 62.4437 54.0114C59.1569 54.0114 56.07 55.6861 54.1864 58.4907C53.9774 58.8028 53.5549 58.8861 53.2445 58.6762C52.9333 58.4672 52.8501 58.0456 53.0591 57.7344C55.1951 54.5543 58.7036 52.6553 62.4437 52.6553C66.1838 52.6553 69.6923 54.5543 71.8284 57.7353C72.0374 58.0465 71.955 58.4681 71.6429 58.6771C71.5271 58.754 71.3959 58.7911 71.2647 58.7911Z" fill="#0063F5"/>
<path d="M60.3003 71.713C60.1257 71.713 59.9511 71.646 59.8181 71.5121C59.6697 71.3628 56.1929 67.8136 56.1929 64.3965C56.1929 60.85 58.9966 57.9648 62.4436 57.9648C65.8906 57.9648 68.6943 60.85 68.6943 64.3965C68.6943 64.771 68.3903 65.075 68.0157 65.075C67.6412 65.075 67.3372 64.771 67.3372 64.3965C67.3372 61.5982 65.1424 59.3219 62.4436 59.3219C59.7448 59.3219 57.55 61.5982 57.55 64.3965C57.55 67.2617 60.7499 70.5242 60.7825 70.5567C61.0467 70.8227 61.0449 71.2525 60.778 71.5166C60.6459 71.6478 60.4731 71.713 60.3003 71.713Z" fill="#0063F5"/>
<path d="M64.5872 71.713C62.9551 71.713 59.1716 68.608 58.8051 65.1502C58.6758 63.9279 59.0648 62.6776 59.8447 61.8055C60.5232 61.0473 61.4397 60.6266 62.4249 60.6212H62.4439C63.4047 60.6212 64.3131 60.9984 65.0043 61.6851C65.7262 62.4026 66.1234 63.3661 66.1234 64.3975V64.8399C66.1234 65.9301 66.972 66.8167 68.0161 66.8167C69.0601 66.8167 69.9097 65.9301 69.9097 64.8399V64.6852C69.9097 60.4601 66.849 56.9453 62.9415 56.6847C60.9041 56.5463 58.9499 57.2502 57.4417 58.6597C55.8766 60.1236 54.9791 62.2153 54.9791 64.3975C54.9791 66.1924 55.587 67.9413 56.6908 69.3219C56.9242 69.615 56.8772 70.0411 56.5841 70.2754C56.2918 70.5098 55.8648 70.4618 55.6296 70.1687C54.3349 68.5483 53.6211 66.4982 53.6211 64.3966C53.6211 61.8398 54.676 59.3871 56.5135 57.6682C58.2985 55.9981 60.6128 55.1675 63.0302 55.3295C67.6479 55.638 71.2658 59.7472 71.2658 64.6843V64.839C71.2658 66.6774 69.8074 68.1729 68.0152 68.1729C66.2229 68.1729 64.7654 66.6774 64.7654 64.839V64.3966C64.7654 63.7289 64.5103 63.1083 64.0471 62.6468C63.6128 62.2144 63.0438 61.9774 62.4439 61.9774C62.4394 61.9774 62.4358 61.9774 62.4313 61.9774C61.6668 61.981 61.152 62.3781 60.8552 62.7102C60.326 63.301 60.0636 64.1604 60.1532 65.0073C60.4526 67.8282 63.6942 70.3569 64.5863 70.3569C64.9609 70.3569 65.2648 70.6609 65.2648 71.0354C65.2648 71.41 64.9618 71.713 64.5872 71.713Z" fill="#0063F5"/>
<path d="M67.1049 70.3856C64.6767 70.3856 61.7119 67.4181 61.7119 63.9539C61.7119 63.5794 62.0159 63.2754 62.3905 63.2754C62.765 63.2754 63.069 63.5794 63.069 63.9539C63.069 66.6391 65.3263 69.0285 67.1049 69.0285C67.4795 69.0285 67.7835 69.3325 67.7835 69.707C67.7835 70.0816 67.4795 70.3856 67.1049 70.3856Z" fill="#0063F5"/>
</svg>
