<svg width="101" height="114" viewBox="0 0 101 114" fill="none" xmlns="http://www.w3.org/2000/svg">
<path opacity="0.3" fill-rule="evenodd" clip-rule="evenodd" d="M49.3256 0.835938L52.363 3.64777C57.244 8.16625 64.7791 11.8378 72.7891 14.3797C80.7608 16.9095 88.6735 18.1545 93.9587 18.1545H97.3337L98.2156 21.4121C101.333 32.9263 101.257 51.1017 94.6616 68.7008C88.008 86.455 74.6243 103.845 50.9832 113.156L49.3116 113.815L47.6557 113.117C23.9854 103.151 11.3171 85.7074 5.1968 68.0691C-0.873431 50.575 -0.536598 32.8495 1.67471 21.7062L2.44518 17.8236L6.38814 18.1716C12.0832 18.6741 20.1323 16.9744 28.0291 13.9816C35.9167 10.9922 42.8117 7.03402 46.327 3.68914L49.3256 0.835938ZM49.371 12.6273C44.5887 16.2249 37.9636 19.649 31.155 22.2294C24.2112 24.861 16.5012 26.8351 9.72335 27.0576C8.37458 36.9693 8.67809 51.1955 13.5297 65.1776C18.8171 80.4154 29.4727 95.3233 49.4219 104.268C69.3309 95.8751 80.6359 80.992 86.4022 65.6055C91.7797 51.2563 92.2633 36.6488 90.4131 26.8436C84.5047 26.4304 77.2455 25.0477 70.1212 22.7868C62.8295 20.4729 55.2955 17.119 49.371 12.6273Z" fill="#DD2006"/>
<circle cx="50.1958" cy="57.1879" r="21.0708" fill="#DD2006"/>
<rect x="57.6172" y="45.9883" width="5.39019" height="25.4809" rx="2.6951" transform="rotate(45 57.6172 45.9883)" fill="white"/>
<rect x="61.4297" y="64.3516" width="5.39019" height="25.4809" rx="2.6951" transform="rotate(135 61.4297 64.3516)" fill="white"/>
</svg>
