<svg width="19" height="18" viewBox="0 0 19 18" fill="none" xmlns="http://www.w3.org/2000/svg">
    <path fill-rule="evenodd" clip-rule="evenodd" d="m16.258 6.926 1.303-1.305c.744-.752.843-.897.929-1.356.154-.828-.465-1.657-1.332-1.781-.469-.091-.924.112-1.093.224l-2.321 2.32-3.01 3.157c0 .006-.087.441-.193.966-.105.525-.191 1.022-.191 1.104a.38.38 0 0 0 .38.373c.111 0 1.676-.294 2.151-.405.059-.013.697-.621 1.64-1.563l1.737-1.734zm1.343-2.55a.74.74 0 0 0-.44-1.057 1.42 1.42 0 0 0-.211-.052c-.308.055-.437.137-.799.502l-.316.32.528.527.528.527.33-.336c.183-.185.353-.378.38-.43zm-5.016 5.071 1.855-1.855 1.856-1.855-.528-.527-.528-.527-1.855 1.855-1.855 1.855-.13.644c-.071.355-.124.65-.117.658.007.006.303-.046.657-.118l.645-.13z" fill="#7A7A7A"/>
    <path d="M2.006 5.519c0-.16.11-.332.245-.387.044-.018 2.14-.034 4.657-.035h4.475c.056-.013.205.008.354.196.082.17.088.228.035.355-.052.084-.202.252-.39.252H2.243l-.118-.118c-.09-.09-.118-.152-.118-.263zM2.006 7.757c0-.159.11-.332.245-.387.044-.018 2.14-.033 4.657-.035h4.475c.056-.013.205.008.354.196.082.17.088.228.035.355-.052.084-.202.252-.39.252H2.243l-.118-.118c-.09-.09-.118-.152-.118-.263zM2.006 10.237c0-.16.06-.335.135-.39.025-.018 1.18-.034 2.567-.035h2.467c.03-.013.113.008.195.197.045.171.048.23.02.358-.03.084-.112.254-.215.254H2.136l-.065-.12a.476.476 0 0 1-.065-.264z" fill="#7A7A7A"/>
    <path d="M.039 1.334C.013 1.469-.001 4.32 0 9.619c0 7.934.001 8.081.075 8.201a.384.384 0 0 0 .477.149c.065-.029 1.017-.952 2.114-2.05l1.994-2h5.927l5.963.138c.549-.129 1.174-.72 1.362-1.265.076-.222.078-.308.078-3.757v-4.07l-.806.856v3.554c0 2.894-.005 3.077-.071 3.221-.087.19-.442.549-.62.63l-6.058-.12-6.117.01-1.757 1.753-1.757 1.754.01-7.594.01-7.595.087-.16a.922.922 0 0 1 .433-.392c.06-.024 2.78-.038 7.651-.04l7.71.069c.305.138.286.33.286.708v1.162l.794.172V1.25C17.716.578 17.31.146 16.61.035c-.293-.046-14.9-.047-15.217 0C.373.05 0 .676.039 1.333z" fill="#7A7A7A"/>
</svg>
