<svg width="24" height="25" viewBox="0 0 24 25" fill="none" xmlns="http://www.w3.org/2000/svg">
    <circle cx="12" cy="12.5" r="12" fill="#E5EEFE"/>
    <g clip-path="url(#sp2dq0x07a)" fill="#0559FF" stroke="#E5EEFE" stroke-width=".4">
        <path d="M14.667 4.5H9.333A3.337 3.337 0 0 0 6 7.833v12a.667.667 0 0 0 1.043.55l1.404-.959 1.404.96a.666.666 0 0 0 .753 0l1.4-.96 1.4.96a.667.667 0 0 0 .754 0l1.4-.96 1.4.959a.667.667 0 0 0 1.042-.55v-12A3.337 3.337 0 0 0 14.667 4.5zm2 14.067-.734-.502a.667.667 0 0 0-.754 0l-1.4.96-1.4-.96a.667.667 0 0 0-.754 0l-1.4.96-1.4-.96a.667.667 0 0 0-.753 0l-.739.502V7.833a2 2 0 0 1 2-2h5.334a2 2 0 0 1 2 2v10.734z"/>
        <path d="M14.667 9.834H9.333a.667.667 0 0 0 0 1.333h5.334a.667.667 0 0 0 0-1.333zM13.333 12.5h-4a.667.667 0 0 0 0 1.333h4a.667.667 0 1 0 0-1.333z"/>
    </g>
    <defs>
        <clipPath id="sp2dq0x07a">
            <path fill="#fff" transform="translate(4 4.5)" d="M0 0h16v16H0z"/>
        </clipPath>
    </defs>
</svg>
