<svg width="20" height="20" viewBox="0 0 20 20" fill="none" xmlns="http://www.w3.org/2000/svg">
<path d="M12.3256 3.15138L11.9902 2.48056L12.3256 3.15138ZM13.595 3.4766L12.9784 3.9035L13.595 3.4766ZM0.25 8.71622V17H1.75V8.71622H0.25ZM3 19.75H15.2365V18.25H3V19.75ZM17.9865 17V8.11486H16.4865V17H17.9865ZM3.97973 5.96622H3V7.46622H3.97973V5.96622ZM4.51289 7.2437L9.52108 2.18166L8.45476 1.12669L3.44657 6.18873L4.51289 7.2437ZM9.85928 2.1658L11.7685 3.76426L12.7315 2.61412L10.8222 1.01567L9.85928 2.1658ZM6.0473 5.96622H3.97973V7.46622H6.0473V5.96622ZM11.8793 2.53722L5.67657 6.06425L6.41802 7.36818L12.6207 3.84116L11.8793 2.53722ZM12.5854 3.86001L12.661 3.8222L11.9902 2.48056L11.9146 2.51837L12.5854 3.86001ZM15.8378 5.96622H6.0473V7.46622H15.8378V5.96622ZM12.9784 3.9035L15.2212 7.14312L16.4545 6.28931L14.2117 3.04969L12.9784 3.9035ZM12.661 3.8222C12.7723 3.76656 12.9076 3.80121 12.9784 3.9035L14.2117 3.04969C13.716 2.33365 12.7692 2.09109 11.9902 2.48056L12.661 3.8222ZM17.9865 8.11486C17.9865 6.9282 17.0245 5.96622 15.8378 5.96622V7.46622C16.1961 7.46622 16.4865 7.75663 16.4865 8.11486H17.9865ZM15.2365 19.75C16.7553 19.75 17.9865 18.5188 17.9865 17H16.4865C16.4865 17.6904 15.9268 18.25 15.2365 18.25V19.75ZM0.25 17C0.25 18.5188 1.48122 19.75 3 19.75V18.25C2.30964 18.25 1.75 17.6904 1.75 17H0.25ZM9.52108 2.18166C9.61253 2.08922 9.75958 2.08233 9.85928 2.1658L10.8222 1.01567C10.1243 0.431355 9.09494 0.479627 8.45476 1.12669L9.52108 2.18166ZM1.75 8.71622C1.75 8.02586 2.30964 7.46622 3 7.46622V5.96622C1.48122 5.96622 0.25 7.19743 0.25 8.71622H1.75Z" fill="#7A7A7A"/>
<path d="M13 13C13 11.8954 13.8954 11 15 11H19V15H15C13.8954 15 13 14.1046 13 13V13Z" fill="white"/>
<path d="M19 11H19.5V10.5H19V11ZM19 15V15.5H19.5V15H19ZM15 11.5H19V10.5H15V11.5ZM18.5 11V15H19.5V11H18.5ZM19 14.5H15V15.5H19V14.5ZM15 14.5C14.1716 14.5 13.5 13.8284 13.5 13H12.5C12.5 14.3807 13.6193 15.5 15 15.5V14.5ZM15 10.5C13.6193 10.5 12.5 11.6193 12.5 13H13.5C13.5 12.1716 14.1716 11.5 15 11.5V10.5Z" fill="#7A7A7A"/>
<circle cx="14.5" cy="13" r="0.5" fill="#7A7A7A"/>
</svg>
