<svg width="57" height="30" viewBox="0 0 57 30" fill="none" xmlns="http://www.w3.org/2000/svg">
<path opacity="0.5" d="M0.289062 10.0859H56.1064" stroke="#7A7A7A" stroke-dasharray="2 2"/>
<path d="M1.47656 9.46541C1.47656 9.46541 2.20577 9.2623 2.9958 7.37901C3.78583 5.49572 5.44681 0.755891 5.97347 0.836891C6.50012 0.91789 6.82421 6.87311 6.82421 6.87311L9.09287 9.66842L11.24 8.73665C11.5101 8.76366 12.1069 8.98783 12.3338 9.66842C12.6174 10.5192 12.6984 12.4637 13.3871 12.9094C14.0758 13.355 14.5214 14.3273 15.4127 13.274C16.304 12.2207 17.3978 10.2761 18.2485 10.6407C19.0993 11.0053 20.2741 11.9371 20.4362 13.4765C20.5982 15.016 21.0843 17.1631 21.4084 16.1503C21.7325 15.1375 21.0033 15.3401 21.4084 13.274C21.8136 11.2079 21.1249 9.83047 21.9756 8.73665C22.8263 7.64284 23.5556 5.90083 24.1632 5.0906C24.7709 4.28036 25.7027 1.6471 26.3104 2.29529C26.918 2.94348 27.6067 3.55115 27.5662 5.0906C27.5257 6.63004 27.5662 8.29102 27.5662 8.41256C27.5662 8.5341 27.8093 9.06075 28.5385 8.73665C29.2677 8.41256 29.5513 7.37901 29.8349 7.37901C30.1185 7.37901 29.7944 10.3166 30.4426 10.1141C31.0907 9.91149 30.9692 9.44611 31.3338 8.41256C31.6984 7.37901 32.1035 5.37418 32.9138 5.49572C33.562 5.59294 34.2912 6.45449 34.5747 6.87311" stroke="#0BAC68"/>
<path opacity="0.2" d="M2.9958 7.37908C2.20577 9.26237 1.47656 9.46548 1.47656 9.46548V29.6299H34.5747V6.87319C34.2912 6.45457 33.562 5.59302 32.9138 5.49579C32.1035 5.37425 31.6984 7.37908 31.3338 8.41263C30.9692 9.44618 31.0907 9.91157 30.4426 10.1141C29.7944 10.3167 30.1185 7.37908 29.8349 7.37908C29.5513 7.37908 29.2677 8.41263 28.5385 8.73673C27.8093 9.06082 27.5662 8.53417 27.5662 8.41263C27.5662 8.2911 27.5257 6.63012 27.5662 5.09067C27.6067 3.55122 26.918 2.94355 26.3104 2.29536C25.7027 1.64717 24.7709 4.28044 24.1632 5.09067C23.5556 5.9009 22.8263 7.64291 21.9756 8.73673C21.1249 9.83054 21.8136 11.2079 21.4084 13.274C21.0033 15.3401 21.7325 15.1376 21.4084 16.1504C21.0843 17.1632 20.5982 15.016 20.4362 13.4766C20.2741 11.9372 19.0993 11.0054 18.2485 10.6408C17.3978 10.2762 16.304 12.2207 15.4127 13.274C14.5214 14.3273 14.0758 13.3551 13.3871 12.9094C12.6984 12.4638 12.6174 10.5192 12.3338 9.6685C12.1069 8.9879 11.5101 8.76373 11.24 8.73673L9.09287 9.6685L6.82421 6.87319C6.82421 6.87319 6.50012 0.917962 5.97347 0.836963C5.44681 0.755964 3.78583 5.49579 2.9958 7.37908Z" fill="url(#paint0_linear_819_42411)"/>
<defs>
<linearGradient id="paint0_linear_819_42411" x1="18.0257" y1="1.91967" x2="18.0257" y2="29.6299" gradientUnits="userSpaceOnUse">
<stop stop-color="#16BE77"/>
<stop offset="1" stop-color="#16BE77" stop-opacity="0"/>
</linearGradient>
</defs>
</svg>
