<svg width="25" height="24" viewBox="0 0 25 24" fill="none" xmlns="http://www.w3.org/2000/svg">
<circle cx="12.1367" cy="12" r="12" fill="#E5EEFE"/>
<g clip-path="url(#clip0_818_6440)">
<path d="M8.49027 6.64645C8.29501 6.45118 7.97843 6.45118 7.78316 6.64645L4.60118 9.82843C4.40592 10.0237 4.40592 10.3403 4.60118 10.5355C4.79645 10.7308 5.11303 10.7308 5.30829 10.5355L8.13672 7.70711L10.9651 10.5355C11.1604 10.7308 11.477 10.7308 11.6723 10.5355C11.8675 10.3403 11.8675 10.0237 11.6723 9.82843L8.49027 6.64645ZM8.63672 17L8.63672 7L7.63672 7L7.63672 17L8.63672 17Z" fill="#0063F5"/>
<path d="M14.7832 17.3536C14.9784 17.5488 15.295 17.5488 15.4903 17.3536L18.6723 14.1716C18.8675 13.9763 18.8675 13.6597 18.6723 13.4645C18.477 13.2692 18.1604 13.2692 17.9651 13.4645L15.1367 16.2929L12.3083 13.4645C12.113 13.2692 11.7964 13.2692 11.6012 13.4645C11.4059 13.6597 11.4059 13.9763 11.6012 14.1716L14.7832 17.3536ZM14.6367 7L14.6367 17L15.6367 17L15.6367 7L14.6367 7Z" fill="#0063F5"/>
</g>
<defs>
<clipPath id="clip0_818_6440">
<rect width="16" height="16" fill="white" transform="translate(4.13672 4)"/>
</clipPath>
</defs>
</svg>
