<svg width="31" height="30" viewBox="0 0 31 30" fill="none" xmlns="http://www.w3.org/2000/svg">
<path d="M7.81218 0.363603C7.4607 0.0121325 6.89086 0.0121325 6.53938 0.363603L0.81182 6.09117C0.460348 6.44264 0.460348 7.01249 0.81182 7.36396C1.16329 7.71543 1.73314 7.71543 2.08461 7.36396L7.17578 2.27279L12.2669 7.36396C12.6184 7.71543 13.1883 7.71543 13.5397 7.36396C13.8912 7.01249 13.8912 6.44264 13.5397 6.09117L7.81218 0.363603ZM8.07578 29L8.07578 1L6.27578 1L6.27578 29L8.07578 29Z" fill="#0063F5"/>
<path d="M23.5394 29.6364C23.8909 29.9879 24.4607 29.9879 24.8122 29.6364L30.5397 23.9088C30.8912 23.5574 30.8912 22.9875 30.5397 22.636C30.1883 22.2846 29.6184 22.2846 29.2669 22.636L24.1758 27.7272L19.0846 22.636C18.7331 22.2846 18.1633 22.2846 17.8118 22.636C17.4603 22.9875 17.4603 23.5574 17.8118 23.9088L23.5394 29.6364ZM23.2758 1L23.2758 29H25.0758L25.0758 1L23.2758 1Z" fill="#0063F5"/>
</svg>
