<svg width="41" height="40" viewBox="0 0 41 40" fill="none" xmlns="http://www.w3.org/2000/svg">
<g clip-path="url(#clip0_819_47520)">
<path d="M9.04016 3.35828L9.04015 3.3583C8.63746 3.78408 8.4022 4.26286 8.31589 4.8222M9.04016 3.35828L37.4488 27.2921C37.4305 27.2938 37.3764 27.2988 37.265 27.3041C37.1278 27.3106 36.9333 27.3166 36.6728 27.3219C36.1523 27.3325 35.3805 27.3403 34.3008 27.3454C32.1419 27.3557 28.7614 27.3554 23.7191 27.3467L10.3912 27.3235L10.0375 27.1809C9.32902 26.8951 8.70745 26.2556 8.42475 25.5077L8.29067 25.1528L8.26963 15.2321C8.26303 12.1394 8.26472 9.59244 8.27372 7.78237C8.27822 6.87713 8.28454 6.15746 8.29254 5.64646C8.29655 5.39072 8.30094 5.18913 8.30567 5.04346C8.31092 4.88177 8.31589 4.82219 8.31589 4.8222M9.04016 3.35828C9.24698 3.13958 9.37059 3.02803 9.50525 2.93916C9.64356 2.84789 9.81505 2.76628 10.138 2.63724L10.1381 2.6372L10.4659 2.50612L23.9131 2.50228C24.9419 2.50198 25.8948 2.50151 26.7775 2.50108C31.5175 2.49874 34.2369 2.4974 35.8446 2.52862C36.802 2.54722 37.3415 2.57716 37.6718 2.62118C37.9832 2.66268 38.0658 2.71111 38.1297 2.75208C38.1594 2.77108 38.1892 2.79235 38.2362 2.82575L38.2374 2.82663C38.2825 2.85873 38.3385 2.89853 38.4055 2.94181C38.8375 3.22105 39.2624 3.73681 39.4727 4.24987C39.4728 4.24988 39.4728 4.2499 39.4728 4.24991L39.6008 4.56233L39.624 14.6655C39.6327 18.4379 39.6328 21.0134 39.6227 22.684C39.6176 23.5196 39.6099 24.1262 39.5995 24.5418C39.5944 24.75 39.5886 24.907 39.5823 25.0194C39.5768 25.119 39.5717 25.1642 39.5704 25.1762C39.57 25.1793 39.5699 25.1802 39.5701 25.1792M9.04016 3.35828L37.4552 27.2918C38.4799 27.0725 39.3549 26.1967 39.5701 25.1792M8.31589 4.8222C8.31589 4.8222 8.31589 4.82221 8.31589 4.82221L7.82173 4.74596L8.31589 4.8222ZM39.5701 25.1792C39.5701 25.1791 39.5701 25.1791 39.5702 25.1791L40.0593 25.2826L39.5701 25.1792ZM37.8489 3.34249L37.8489 3.34251C38.4417 3.63799 38.7953 4.10755 38.9537 4.76296M37.8489 3.34249L38.9537 4.76296M37.8489 3.34249L37.4496 3.14355L37.3442 3.09104L37.2265 3.09107L23.9876 3.09441C18.4663 3.09581 15.1423 3.10097 13.168 3.11669C12.1817 3.12454 11.5277 3.13506 11.1035 3.14926C10.8921 3.15633 10.7316 3.16452 10.6131 3.17437C10.5157 3.18246 10.3894 3.19503 10.2879 3.23122L10.2879 3.23122C9.7971 3.40621 9.36621 3.81308 9.12164 4.28836L9.12157 4.28849C9.04867 4.43027 9.01086 4.56733 8.98685 4.81521C8.96449 5.04606 8.95071 5.41073 8.9414 6.02801C8.92266 7.27025 8.92152 9.60544 8.92152 14.1095H8.92135L8.9217 14.1227L9.22499 25.5634M37.8489 3.34249L9.22499 25.5634M38.9537 4.76296C38.9731 4.84311 38.9811 4.95129 38.9865 5.03941C38.993 5.14452 38.9985 5.28233 39.0034 5.45191C39.0131 5.79178 39.0204 6.27328 39.0254 6.90467C39.0354 8.16821 39.0364 10.0429 39.0291 12.6085L39.0079 19.9898L38.9537 4.76296ZM9.22499 25.5634C9.22849 25.7627 9.33668 25.9102 9.37586 25.962C9.43471 26.0398 9.50669 26.1118 9.57721 26.174C9.71994 26.3 9.90412 26.4277 10.0963 26.5302L10.0964 26.5302C10.258 26.6164 10.4259 26.6469 10.7179 26.6679C11.0144 26.6892 11.509 26.7035 12.3748 26.7142C14.1129 26.7356 17.3992 26.7427 23.7173 26.7539C28.6017 26.7626 31.9097 26.7628 34.035 26.7526C35.0973 26.7475 35.8665 26.7398 36.3901 26.7292C36.6516 26.7239 36.8549 26.7178 37.0043 26.7108C37.1354 26.7047 37.2676 26.6965 37.3544 26.6778C37.3544 26.6778 37.3544 26.6778 37.3545 26.6778L37.2491 26.189C37.5761 26.1186 37.7306 26.0291 38.0133 25.7464C38.4712 25.2885 38.5463 24.9845 38.5437 23.5994L9.22499 25.5634ZM8.67688 3.01473C9.10608 2.56088 9.29706 2.43482 9.95243 2.17293L8.67688 3.01473Z" fill="#0559FF" stroke="#0559FF"/>
<path d="M14.4515 7.96695C14.6575 7.74917 14.7797 7.63857 14.9142 7.54945C15.0529 7.45757 15.2256 7.37452 15.5527 7.24104L15.5527 7.24103C15.7055 7.1787 15.7943 7.15316 15.901 7.13935C16.0219 7.12372 16.1827 7.12098 16.4855 7.13063M14.4515 7.96695L14.0883 7.62339M14.4515 7.96695L14.0883 7.62339M14.4515 7.96695C13.4215 9.05604 13.4448 10.664 14.5146 11.7362C16.0928 13.3178 18.7701 12.4397 19.1187 10.1933L19.1187 10.1933C19.2543 9.31963 18.9592 8.48523 18.2358 7.80856L18.2358 7.80853C17.9479 7.53921 17.7208 7.38722 17.4788 7.29251C17.2331 7.19632 16.9357 7.14499 16.4855 7.13063M14.0883 7.62339C14.5154 7.17173 14.7019 7.04818 15.3638 6.7781C15.7151 6.63475 15.8948 6.61155 16.5015 6.63089M14.0883 7.62339L19.6128 10.27C19.7758 9.21915 19.411 8.22324 18.5773 7.44341C17.9455 6.85228 17.4577 6.66138 16.5015 6.63089M16.4855 7.13063L16.5015 6.63089M16.4855 7.13063L16.5015 6.63089M18.5008 10.0241L18.5008 10.0241C18.3376 11.9916 15.8051 12.587 14.696 11.0073L14.6959 11.0072C14.4837 10.7049 14.3697 10.3328 14.3393 9.97791C14.3089 9.62473 14.3572 9.23922 14.525 8.91297L18.5008 10.0241ZM18.5008 10.0241C18.5822 9.04214 17.9858 8.06221 17.0388 7.79926M18.5008 10.0241L17.0388 7.79926M17.0388 7.79926C16.001 7.51105 15.0184 7.95317 14.525 8.91288L17.0388 7.79926Z" fill="#0559FF" stroke="#0559FF"/>
<path d="M2.88236 21.6741L2.88237 21.6741C3.32357 20.0331 3.72452 18.5194 4.01504 17.4027C4.16036 16.8442 4.27774 16.3861 4.35865 16.0616C4.39918 15.899 4.43005 15.7719 4.45057 15.6832C4.45332 15.6713 4.45583 15.6603 4.45812 15.6503C4.43888 15.6198 4.40689 15.5783 4.35904 15.5304C4.27346 15.4449 4.21331 15.4248 4.18057 15.4198C4.14944 15.4151 4.09217 15.4161 3.99626 15.4673C3.9949 15.4683 3.99268 15.47 3.98962 15.4726C3.98052 15.4802 3.96873 15.4912 3.9561 15.5051C3.94353 15.5188 3.93279 15.5324 3.92481 15.5439C3.92238 15.5474 3.9205 15.5502 3.9191 15.5524C3.9164 15.5605 3.91078 15.5772 3.90172 15.6059C3.88563 15.657 3.8641 15.7283 3.83748 15.8187C3.78438 15.9992 3.71331 16.2482 3.62915 16.5485C3.46095 17.1487 3.24198 17.9484 3.01295 18.8023C2.55414 20.513 1.82077 23.2438 1.38312 24.8707C0.617799 27.7163 0.612302 27.8016 0.640118 28.2356L2.88236 21.6741ZM2.88236 21.6741C2.3201 23.7655 1.91806 25.2905 1.65658 26.3277M2.88236 21.6741L1.65658 26.3277M2.21617 29.8801L2.14449 29.8303C1.60063 29.4527 1.26513 28.8267 1.26187 28.1664L2.21617 29.8801ZM2.21617 29.8801L2.30048 29.9027M2.21617 29.8801L2.30048 29.9027M2.30048 29.9027C5.07267 30.6442 10.4721 32.1208 15.3522 33.4586C17.0303 33.9186 18.6473 34.3623 20.0747 34.754C22.7962 35.5007 24.8285 36.0584 25.2812 36.1796L25.2812 36.1796M2.30048 29.9027L25.2812 36.1796M25.2812 36.1796C26.6463 36.545 27.901 36.8751 28.0501 36.9066L28.0503 36.9067M25.2812 36.1796L28.0503 36.9067M28.0503 36.9067C28.3015 36.9597 28.5912 36.9236 28.8278 36.8647C29.072 36.8039 29.3393 36.699 29.5491 36.5496L29.5491 36.5496M28.0503 36.9067L29.5491 36.5496M29.5491 36.5496C29.6821 36.4549 29.8194 36.3467 29.9468 36.1865C30.0724 36.0286 30.1701 35.8437 30.2629 35.6129C30.4418 35.1681 30.6405 34.4508 30.9729 33.2111L30.9729 33.2111M29.5491 36.5496L30.9729 33.2111M30.9729 33.2111C31.1511 32.5463 31.3256 31.9144 31.463 31.4325C31.5318 31.1914 31.5908 30.9893 31.6362 30.8401C31.6787 30.7002 31.7015 30.633 31.7073 30.6159C31.7084 30.6127 31.7089 30.6112 31.7088 30.6114C31.7162 30.5951 31.7542 30.5434 31.8402 30.5005C31.9261 30.4577 31.9922 30.4574 32.0127 30.4619L32.0127 30.4619M30.9729 33.2111L32.0127 30.4619M32.0127 30.4619C32.036 30.467 32.0996 30.497 32.1638 30.5722C32.1928 30.6061 32.214 30.6404 32.2271 30.6699C32.2335 30.6843 32.2372 30.6959 32.2393 30.7044C32.2396 30.7054 32.2398 30.7064 32.24 30.7073M32.0127 30.4619L32.24 30.7073M32.24 30.7073C32.2391 30.7146 32.2375 30.7257 32.2351 30.7412C32.2279 30.7858 32.2162 30.8478 32.1996 30.9274C32.1666 31.0858 32.1175 31.2974 32.0564 31.5474C31.9342 32.0464 31.767 32.6847 31.5912 33.3286C31.4154 33.9723 31.2319 34.6181 31.0774 35.1322C31 35.3895 30.9307 35.6112 30.8737 35.782C30.8452 35.8674 30.8206 35.9376 30.8003 35.9918C30.7902 36.0188 30.7818 36.0403 30.775 36.0566C30.7716 36.0647 30.7689 36.0709 30.7669 36.0754C30.7649 36.0797 30.764 36.0816 30.764 36.0816C30.3029 36.9937 29.1903 37.6177 28.1935 37.5333C28.194 37.5334 28.193 37.5332 28.1904 37.5328C28.1799 37.531 28.1421 37.5248 28.0639 37.5084C27.9763 37.4901 27.8587 37.4637 27.7132 37.4297C27.4228 37.3618 27.0304 37.2656 26.5634 37.148C25.6298 36.9127 24.4044 36.5933 23.1132 36.2466L22.9835 36.7295L23.1132 36.2466C20.5266 35.5522 14.8949 34.0448 10.5982 32.8969C8.45047 32.3231 6.45092 31.7845 4.9597 31.3792C4.21399 31.1765 3.59595 31.0072 3.15023 30.8835C2.92725 30.8217 2.74828 30.7715 2.61836 30.7343C2.5533 30.7157 2.50163 30.7007 2.46339 30.6892L32.24 30.7073ZM1.65658 26.3277C1.52595 26.8458 1.42949 27.2458 1.3655 27.5353M1.65658 26.3277L1.3655 27.5353M1.3655 27.5353C1.33356 27.6797 1.30881 27.8007 1.29182 27.8972M1.3655 27.5353L1.29182 27.8972M1.29182 27.8972C1.27693 27.9818 1.26146 28.082 1.26187 28.1663L1.29182 27.8972ZM2.40573 30.6715C1.72604 30.4277 1.07149 29.7814 0.803484 29.0761L2.40573 30.6715ZM0.803465 29.076C0.73819 28.9041 0.657876 28.5118 0.640123 28.2357L0.803465 29.076Z" fill="#0559FF" stroke="#0559FF"/>
<path d="M30.7138 10.6939C30.7092 10.6906 30.7066 10.6887 30.7064 10.6888C30.706 10.6893 30.7285 10.7096 30.7862 10.7693C30.8501 10.8354 30.9372 10.9285 31.0458 11.047C31.2626 11.2834 31.5575 11.6125 31.9101 12.0111C32.6148 12.8079 33.5446 13.8768 34.529 15.025L37.9951 19.0682L38.008 20.0291L34.7777 16.2607C33.6419 14.9356 32.5894 13.7163 31.8086 12.8193C31.4184 12.3709 31.0952 12.0022 30.8633 11.7408C30.7475 11.6103 30.6531 11.5051 30.584 11.4295C30.5496 11.392 30.5196 11.3597 30.4953 11.3346C30.4948 11.334 30.494 11.3332 30.4931 11.3322C30.4805 11.319 30.4365 11.2729 30.3903 11.2392L30.3902 11.2392L30.7157 10.6954C30.715 10.6949 30.7144 10.6944 30.7138 10.6939ZM30.7138 10.6939C30.4279 10.4877 29.9585 10.3359 29.6032 10.3359C29.4762 10.3359 29.2616 10.3765 29.0235 10.4581C28.7891 10.5384 28.5917 10.6381 28.483 10.7197C28.4885 10.7157 28.4862 10.718 28.4736 10.7312C28.4581 10.7473 28.4268 10.7798 28.375 10.8367C28.2899 10.93 28.1718 11.0636 28.0198 11.2386C27.7163 11.588 27.2847 12.0943 26.7259 12.7567C25.6086 14.081 23.9874 16.0234 21.8745 18.5694L21.8743 18.5696C21.7452 18.7251 21.5751 18.7504 21.4897 18.7505C21.4079 18.7507 21.346 18.7307 21.3214 18.722C21.2678 18.7033 21.2289 18.6793 21.2175 18.6723C21.1868 18.6533 21.1609 18.6332 21.1477 18.6228C21.1165 18.5981 21.08 18.5666 21.0434 18.534C20.9677 18.4667 20.8641 18.3705 20.7418 18.2545C20.4961 18.0214 20.1631 17.6972 19.8016 17.3378M30.7138 10.6939L19.8016 17.3378M17.8899 16.4972C17.9787 16.5305 18.0571 16.5887 18.0873 16.6112L18.0896 16.6129C18.1369 16.6479 18.1909 16.6915 18.2483 16.7396C18.364 16.8366 18.5112 16.9673 18.6784 17.1204C19.0137 17.4275 19.442 17.8368 19.8837 18.2751C20.7473 19.1321 21.1722 19.5387 21.4325 19.7185C21.4933 19.7604 21.5301 19.779 21.5485 19.7868C21.5497 19.7864 21.551 19.7859 21.5524 19.7853C21.5595 19.7782 21.5678 19.7699 21.5772 19.7601C21.6302 19.7056 21.7058 19.6242 21.8037 19.5158C21.9987 19.3 22.2705 18.99 22.6041 18.6035C23.2705 17.8312 24.1761 16.7611 25.1903 15.5445C27.009 13.363 27.9651 12.2199 28.5189 11.641C28.7873 11.3603 29.009 11.1592 29.2238 11.0524C29.3459 10.9917 29.4719 10.9575 29.6055 10.9547C29.7292 10.9521 29.8337 10.9777 29.8955 10.9937L17.8899 16.4972ZM17.8899 16.4972C17.7761 16.4545 17.6523 16.4313 17.5444 16.4215C17.4414 16.4121 17.3075 16.4106 17.1804 16.4411L17.1802 16.4412C17.0896 16.4629 17.0226 16.5072 17.0128 16.5137C17.0124 16.514 17.012 16.5142 17.0118 16.5144C16.9888 16.5292 16.9682 16.5444 16.9531 16.556C16.9219 16.5799 16.8871 16.6091 16.8518 16.6396C16.78 16.7016 16.6852 16.7874 16.5733 16.8911C16.3483 17.0994 16.0404 17.3924 15.6793 17.7406C14.9563 18.4376 14.0125 19.3628 13.0758 20.2905C12.139 21.2182 11.2078 22.1499 10.5101 22.8598C10.345 23.0279 10.1925 23.1839 10.0559 23.3249M17.8899 16.4972L10.0559 23.3249M10.0559 23.3249L9.93648 22.4855L13.0397 19.3882L13.1105 19.3176C14.953 17.4785 15.8282 16.605 16.3805 16.1796C16.6478 15.9738 16.8001 15.9052 16.9192 15.8744C17.053 15.8398 17.1856 15.8395 17.4828 15.84L10.0559 23.3249ZM19.8016 17.3378C19.0192 16.5601 18.6339 16.1995 18.3368 16.0167M19.8016 17.3378L18.3368 16.0167M18.3368 16.0167C18.0976 15.8694 17.9257 15.8407 17.4828 15.84L18.3368 16.0167Z" fill="#0559FF" stroke="#0559FF"/>
</g>
<defs>
<clipPath id="clip0_819_47520">
<rect width="40" height="39.9988" fill="white" transform="translate(0.132812)"/>
</clipPath>
</defs>
</svg>
