<svg width="25" height="24" viewBox="0 0 25 24" fill="none" xmlns="http://www.w3.org/2000/svg">
<circle cx="12.3398" cy="12" r="12" fill="#E5EEFE"/>
<path d="M5.33984 5V4.75C5.20177 4.75 5.08984 4.86193 5.08984 5H5.33984ZM5.33984 16.0526H5.08984C5.08984 16.1907 5.20177 16.3026 5.33984 16.3026V16.0526ZM19.3398 16.0526V16.3026C19.4779 16.3026 19.5898 16.1907 19.5898 16.0526H19.3398ZM19.3398 5H19.5898C19.5898 4.86193 19.4779 4.75 19.3398 4.75V5ZM6.32669 6.10526C6.32669 5.96719 6.21476 5.85526 6.07669 5.85526C5.93861 5.85526 5.82669 5.96719 5.82669 6.10526H6.32669ZM6.07669 13.8421H5.82669C5.82669 13.9802 5.93861 14.0921 6.07669 14.0921V13.8421ZM7.18195 5.85526C7.04388 5.85526 6.93195 5.96719 6.93195 6.10526C6.93195 6.24333 7.04388 6.35526 7.18195 6.35526V5.85526ZM16.3925 6.35526C16.5305 6.35526 16.6425 6.24333 16.6425 6.10526C16.6425 5.96719 16.5305 5.85526 16.3925 5.85526V6.35526ZM19.3398 4.75H5.33984V5.25H19.3398V4.75ZM5.82669 6.10526V13.8421H6.32669V6.10526H5.82669ZM6.07669 14.0921H18.2346V13.5921H6.07669V14.0921ZM5.08984 5V14.9474H5.58984V5H5.08984ZM5.08984 14.9474V16.0526H5.58984V14.9474H5.08984ZM19.5898 16.0526V14.9474H19.0898V16.0526H19.5898ZM19.5898 14.9474V5H19.0898V14.9474H19.5898ZM5.33984 15.1974H19.3398V14.6974H5.33984V15.1974ZM7.18195 6.35526H16.3925V5.85526H7.18195V6.35526ZM5.33984 16.3026H10.4977V15.8026H5.33984V16.3026ZM10.2741 15.9408L9.53729 17.4145L9.9845 17.6381L10.7213 16.1644L10.2741 15.9408ZM10.4977 16.3026H14.1819V15.8026H10.4977V16.3026ZM14.1819 16.3026H19.3398V15.8026H14.1819V16.3026ZM13.9583 16.1644L14.6952 17.6381L15.1424 17.4145L14.4056 15.9408L13.9583 16.1644Z" fill="#0559FF"/>
<path d="M7.18164 7.69727C7.04357 7.69727 6.93164 7.80919 6.93164 7.94727C6.93164 8.08534 7.04357 8.19727 7.18164 8.19727V7.69727ZM11.9711 8.19727C12.1092 8.19727 12.2211 8.08534 12.2211 7.94727C12.2211 7.80919 12.1092 7.69727 11.9711 7.69727V8.19727ZM7.18164 8.19727H11.9711V7.69727H7.18164V8.19727Z" fill="#0559FF"/>
<path d="M7.18164 9.53906C7.04357 9.53906 6.93164 9.65099 6.93164 9.78906C6.93164 9.92713 7.04357 10.0391 7.18164 10.0391V9.53906ZM8.2869 10.0391C8.42497 10.0391 8.5369 9.92713 8.5369 9.78906C8.5369 9.65099 8.42497 9.53906 8.2869 9.53906V10.0391ZM7.18164 10.0391H8.2869V9.53906H7.18164V10.0391Z" fill="#0559FF"/>
<path d="M6.97946 12.9584C6.89825 13.0701 6.92293 13.2264 7.0346 13.3077C7.14626 13.3889 7.30262 13.3642 7.38382 13.2525L6.97946 12.9584ZM10.129 9.05284L10.2408 8.82923C10.1315 8.77458 9.99871 8.80696 9.92683 8.90579L10.129 9.05284ZM11.6027 9.78968L11.4909 10.0133C11.5797 10.0577 11.6864 10.0453 11.7627 9.98173L11.6027 9.78968ZM13.8132 7.94757L13.9519 7.73956C13.8598 7.67815 13.7382 7.68464 13.6532 7.75552L13.8132 7.94757ZM14.9185 8.68442L14.7798 8.89243C14.8738 8.95508 14.9981 8.94694 15.0831 8.87256L14.9185 8.68442ZM18.0305 6.29361C18.1344 6.20269 18.1449 6.04475 18.054 5.94084C17.9631 5.83693 17.8051 5.8264 17.7012 5.91732L18.0305 6.29361ZM7.38382 13.2525L10.3312 9.19988L9.92683 8.90579L6.97946 12.9584L7.38382 13.2525ZM10.0172 9.27644L11.4909 10.0133L11.7145 9.56607L10.2408 8.82923L10.0172 9.27644ZM11.7627 9.98173L13.9733 8.13963L13.6532 7.75552L11.4426 9.59762L11.7627 9.98173ZM13.6745 8.15559L14.7798 8.89243L15.0572 8.4764L13.9519 7.73956L13.6745 8.15559ZM15.0831 8.87256L18.0305 6.29361L17.7012 5.91732L14.7539 8.49627L15.0831 8.87256Z" fill="#0559FF"/>
<path d="M17.498 7.69727C17.36 7.69727 17.248 7.80919 17.248 7.94727C17.248 8.08534 17.36 8.19727 17.498 8.19727V7.69727ZM18.2349 8.19727C18.373 8.19727 18.4849 8.08534 18.4849 7.94727C18.4849 7.80919 18.373 7.69727 18.2349 7.69727V8.19727ZM17.498 8.19727H18.2349V7.69727H17.498V8.19727Z" fill="#0559FF"/>
<path d="M9.02344 11.75C8.88537 11.75 8.77344 11.8619 8.77344 12C8.77344 12.1381 8.88537 12.25 9.02344 12.25V11.75ZM9.76028 12.25C9.89835 12.25 10.0103 12.1381 10.0103 12C10.0103 11.8619 9.89835 11.75 9.76028 11.75V12.25ZM9.02344 12.25H9.76028V11.75H9.02344V12.25Z" fill="#0559FF"/>
<path d="M10.748 10.8945C10.748 10.7565 10.6361 10.6445 10.498 10.6445C10.36 10.6445 10.248 10.7565 10.248 10.8945H10.748ZM10.248 13.1051C10.248 13.2431 10.36 13.3551 10.498 13.3551C10.6361 13.3551 10.748 13.2431 10.748 13.1051H10.248ZM10.248 10.8945V13.1051H10.748V10.8945H10.248Z" fill="#0559FF"/>
<path d="M11.3535 13.1051C11.3535 13.2431 11.4654 13.3551 11.6035 13.3551C11.7416 13.3551 11.8535 13.2431 11.8535 13.1051H11.3535ZM11.6035 10.8945L11.8271 10.7827C11.7753 10.679 11.6589 10.6246 11.5461 10.6512C11.4332 10.6779 11.3535 10.7786 11.3535 10.8945H11.6035ZM12.7088 13.1051L12.4852 13.2169C12.537 13.3206 12.6534 13.375 12.7662 13.3484C12.8791 13.3217 12.9588 13.221 12.9588 13.1051H12.7088ZM12.9588 10.8945C12.9588 10.7565 12.8468 10.6445 12.7088 10.6445C12.5707 10.6445 12.4588 10.7565 12.4588 10.8945H12.9588ZM11.8535 13.1051V10.8945H11.3535V13.1051H11.8535ZM11.3799 11.0063L12.4852 13.2169L12.9324 12.9933L11.8271 10.7827L11.3799 11.0063ZM12.9588 13.1051V10.8945H12.4588V13.1051H12.9588Z" fill="#0559FF"/>
<path d="M13.4453 13.1051V10.8945H14.1822C15.0664 10.8945 14.919 13.1051 14.1822 13.1051H13.4453Z" stroke="#0559FF" stroke-width="0.5" stroke-linejoin="round"/>
<path d="M15.6562 10.8945V10.6445C15.5182 10.6445 15.4062 10.7565 15.4062 10.8945H15.6562ZM15.6562 13.1051H15.4062C15.4062 13.2431 15.5182 13.3551 15.6562 13.3551V13.1051ZM16.3931 13.3551C16.5312 13.3551 16.6431 13.2431 16.6431 13.1051C16.6431 12.967 16.5312 12.8551 16.3931 12.8551V13.3551ZM16.3931 12.2498C16.5312 12.2498 16.6431 12.1379 16.6431 11.9998C16.6431 11.8617 16.5312 11.7498 16.3931 11.7498V12.2498ZM16.3931 11.1445C16.5312 11.1445 16.6431 11.0326 16.6431 10.8945C16.6431 10.7565 16.5312 10.6445 16.3931 10.6445V11.1445ZM15.6562 13.3551H16.3931V12.8551H15.6562V13.3551ZM15.4062 10.8945V11.9998H15.9062V10.8945H15.4062ZM15.4062 11.9998V13.1051H15.9062V11.9998H15.4062ZM15.6562 12.2498H16.3931V11.7498H15.6562V12.2498ZM15.6562 11.1445H16.3931V10.6445H15.6562V11.1445Z" fill="#0559FF"/>
<path d="M17.3525 10.7827C17.2908 10.6592 17.1406 10.6092 17.0171 10.6709C16.8936 10.7327 16.8436 10.8828 16.9053 11.0063L17.3525 10.7827ZM18.0106 13.2169C18.0723 13.3404 18.2225 13.3904 18.346 13.3287C18.4695 13.2669 18.5195 13.1167 18.4578 12.9933L18.0106 13.2169ZM18.4578 11.0063C18.5195 10.8828 18.4695 10.7327 18.346 10.6709C18.2225 10.6092 18.0723 10.6592 18.0106 10.7827L18.4578 11.0063ZM16.9053 12.9933C16.8436 13.1167 16.8936 13.2669 17.0171 13.3287C17.1406 13.3904 17.2908 13.3404 17.3525 13.2169L16.9053 12.9933ZM16.9053 11.0063L17.4579 12.1116L17.9051 11.888L17.3525 10.7827L16.9053 11.0063ZM17.4579 12.1116L18.0106 13.2169L18.4578 12.9933L17.9051 11.888L17.4579 12.1116ZM17.9051 12.1116L18.4578 11.0063L18.0106 10.7827L17.4579 11.888L17.9051 12.1116ZM18.0106 10.7827L16.9053 12.9933L17.3525 13.2169L18.4578 11.0063L18.0106 10.7827Z" fill="#0559FF"/>
<rect x="7.91797" y="17.5264" width="8.8421" height="1.47368" rx="0.736842" stroke="#0559FF" stroke-width="0.6"/>
</svg>
