<svg width="37" height="36" viewBox="0 0 37 36" fill="none" xmlns="http://www.w3.org/2000/svg">
<g clip-path="url(#clip0_818_6412)">
<path fill-rule="evenodd" clip-rule="evenodd" d="M36.6235 27H0.62647V28.8115C0.602003 29.1962 0.885761 29.5316 1.26928 29.5713H35.9807C36.3642 29.5317 36.648 29.1962 36.6235 28.8115V27Z" fill="#0063F5"/>
<path fill-rule="evenodd" clip-rule="evenodd" d="M22.4824 16.7148V20.5717H23.1252C23.4802 20.5717 23.7681 20.2839 23.7681 19.9289V17.3577C23.7681 17.0027 23.4803 16.7148 23.1252 16.7148H22.4824Z" fill="#0063F5"/>
<path fill-rule="evenodd" clip-rule="evenodd" d="M13.8793 30.8564L12.5938 33.4277H24.6553L23.3697 30.8564H13.8793Z" fill="#0063F5"/>
<path fill-rule="evenodd" clip-rule="evenodd" d="M8.98266 34.7129C8.62768 34.7129 8.33984 35.0007 8.33984 35.3557C8.33984 35.7107 8.62761 35.9985 8.98266 35.9985H28.2668C28.6218 35.9985 28.9096 35.7108 28.9096 35.3557C28.9096 35.0007 28.6219 34.7129 28.2668 34.7129H8.98266Z" fill="#0063F5"/>
<path d="M36.6235 0.761758C36.648 0.376969 36.3642 0.0415358 35.9807 0.00195312H1.26928C0.885761 0.0415358 0.602003 0.376969 0.62647 0.761758V25.7141H36.6235V0.761758ZM34.6951 8.3584C34.6951 8.71338 34.4073 9.00121 34.0523 9.00121H32.1238C31.7688 9.00121 31.481 8.71345 31.481 8.3584C31.481 8.00335 31.7688 7.71558 32.1238 7.71558H34.0523C34.4073 7.71558 34.6951 8.00342 34.6951 8.3584V8.3584ZM34.6308 20.9271C34.7895 21.2448 34.6605 21.6311 34.3428 21.7898C34.0251 21.9485 33.6389 21.8195 33.4802 21.5018L32.7666 20.0806L32.0596 21.5018C31.9009 21.8195 31.5147 21.9485 31.1969 21.7898C30.8792 21.6311 30.7502 21.2449 30.9089 20.9271L32.048 18.6432L30.9057 16.3593C30.747 16.0416 30.8759 15.6553 31.1937 15.4966C31.5114 15.338 31.8976 15.4669 32.0563 15.7846L32.7666 17.2059L33.4737 15.7846C33.6324 15.4669 34.0186 15.338 34.3364 15.4966C34.6541 15.6553 34.783 16.0415 34.6243 16.3593L33.4853 18.6432L34.6308 20.9271ZM33.8832 3.4242C33.9985 3.54984 34.0591 3.71612 34.0518 3.88647C34.0444 4.05682 33.9697 4.21726 33.844 4.33249L26.9416 10.659C26.2429 11.3061 25.1751 11.3419 24.4346 10.7432L22.978 9.57969C22.7223 9.37545 22.354 9.39591 22.1225 9.62729L18.488 13.2617C17.8724 13.8749 16.9234 14.0018 16.1681 13.5722L13.5062 12.0513C13.2241 11.8891 12.8652 11.9634 12.6706 12.2242L5.64032 21.6002C5.42729 21.8842 5.02444 21.9417 4.7404 21.7288C4.45636 21.5158 4.39885 21.1129 4.61181 20.8288L11.6447 11.4522C12.2291 10.6754 13.3003 10.455 14.1439 10.938L16.8058 12.4589C17.0569 12.6017 17.3725 12.5593 17.5771 12.3554L21.2116 8.72097C21.9062 8.0262 23.0122 7.96468 23.7796 8.57825L25.2356 9.74238C25.4821 9.94283 25.8385 9.93102 26.0712 9.71475L32.9749 3.38504C33.1006 3.26981 33.2669 3.20913 33.4372 3.21652C33.6076 3.22383 33.768 3.29856 33.8832 3.4242V3.4242ZM28.2671 18.0005C28.622 18.0005 28.9099 18.2882 28.9099 18.6433C28.9099 18.9983 28.6221 19.2861 28.2671 19.2861H27.6243V20.5717H28.9099C29.2649 20.5717 29.5527 20.8595 29.5527 21.2145C29.5527 21.5695 29.2649 21.8574 28.9099 21.8574H26.9814C26.6265 21.8574 26.3386 21.5696 26.3386 21.2145V16.0721C26.3386 15.7171 26.6264 15.4293 26.9814 15.4293H28.9099C29.2649 15.4293 29.5527 15.717 29.5527 16.0721C29.5527 16.4271 29.2649 16.7149 28.9099 16.7149H27.6243V18.0005H28.2671V18.0005ZM25.053 17.3577V19.9288C25.053 20.9938 24.1896 21.8573 23.1246 21.8573H21.8389C21.4839 21.8573 21.1961 21.5695 21.1961 21.2145V16.072C21.1961 15.717 21.4839 15.4292 21.8389 15.4292H23.1246C24.1896 15.4293 25.053 16.2926 25.053 17.3577V17.3577ZM19.9106 16.072V21.2145C19.9108 21.5129 19.7055 21.7722 19.415 21.8406C19.3667 21.8515 19.3174 21.8571 19.2678 21.8573C19.0242 21.8574 18.8014 21.7198 18.6925 21.5018L17.3394 18.7949V21.2145C17.3394 21.5694 17.0516 21.8573 16.6965 21.8573C16.3415 21.8573 16.0537 21.5695 16.0537 21.2145V16.072C16.0535 15.7736 16.2585 15.5143 16.549 15.4458C16.8394 15.3773 17.1388 15.5177 17.2719 15.7847L18.625 18.4916V16.072C18.625 15.717 18.9128 15.4292 19.2678 15.4292C19.6229 15.4292 19.9106 15.717 19.9106 16.072V16.072ZM14.7682 16.072V21.2145C14.7682 21.5694 14.4804 21.8573 14.1254 21.8573C13.7704 21.8573 13.4825 21.5695 13.4825 21.2145V16.072C13.4825 15.717 13.7703 15.4292 14.1254 15.4292C14.4803 15.4293 14.7682 15.717 14.7682 16.072V16.072ZM12.1969 18.6433C12.1969 18.9983 11.9092 19.2861 11.5541 19.2861H10.2685C9.9135 19.2861 9.62566 18.9983 9.62566 18.6433C9.62566 18.2882 9.91343 18.0005 10.2685 18.0005H11.5541C11.9092 18.0005 12.1969 18.2882 12.1969 18.6433ZM5.1261 2.57314H28.9099C29.2649 2.57314 29.5527 2.8609 29.5527 3.21595C29.5527 3.571 29.2649 3.85877 28.9099 3.85877H5.1261C4.77112 3.85877 4.48329 3.571 4.48329 3.21595C4.48329 2.8609 4.77105 2.57314 5.1261 2.57314V2.57314ZM5.1261 7.71558H17.9822C18.3372 7.71558 18.625 8.00335 18.625 8.3584C18.625 8.71345 18.3372 9.00121 17.9822 9.00121H5.1261C4.77112 9.00121 4.48329 8.71345 4.48329 8.3584C4.48329 8.00335 4.77105 7.71558 5.1261 7.71558ZM5.1261 12.858H7.69729C8.05227 12.858 8.3401 13.1458 8.3401 13.5008C8.3401 13.8558 8.05234 14.1437 7.69729 14.1437H5.1261C4.77112 14.1437 4.48329 13.8559 4.48329 13.5008C4.48329 13.1458 4.77105 12.858 5.1261 12.858ZM34.6951 24.4285H3.19766C2.48763 24.4285 1.91203 23.8529 1.91203 23.1428V1.93033C1.91203 1.57535 2.19979 1.28751 2.55484 1.28751C2.90989 1.28751 3.19766 1.57528 3.19766 1.93033V23.1428H34.6951C35.05 23.1428 35.3379 23.4306 35.3379 23.7857C35.3379 24.1407 35.0501 24.4285 34.6951 24.4285Z" fill="#0063F5"/>
</g>
<defs>
<clipPath id="clip0_818_6412">
<rect width="36" height="36" fill="white" transform="translate(0.625)"/>
</clipPath>
</defs>
</svg>
