<svg width="343" height="180" viewBox="0 0 343 180" fill="none" xmlns="http://www.w3.org/2000/svg">
    <g clip-path="url(#mu4b0bc2aa)">
        <g opacity=".4">
            <path opacity=".8" d="M325.58 102.464c-6.774 26.452-20.065 52.995-43.681 66.839a75.692 75.692 0 0 1-10.229 4.977H30.644c-11.13-14.985-17.65-33.321-18.478-51.942-.633-14.235 2.328-29.255 11.587-40.114C36.245 67.58 57.348 63.512 76.624 64.138c19.276.625 38.483 4.982 57.701 3.285 23.121-2.049 44.463-12.67 65.241-22.98s42.306-20.68 65.473-22.16c23.168-1.48 48.609 8.105 59.011 28.775 7.88 15.664 5.875 34.429 1.53 51.406z" fill="#E5E5FF"/>
        </g>
        <g opacity=".4">
            <path opacity=".8" d="M176.414 28.285c-4.425 13.096-12.342 19.822-22.809 21.109-10.467 1.287-20.879-1.053-31.338-.63-7.239.293-14.783-.446-19.536-6.86-5.025-6.776-9.77-18.438-4.995-26.666 4.654-8.023 15.183-10.155 22.618-5.768 2.764 1.63 6.009 4.298 9.341 4.114 5.351-.295 10.492-3.425 15.5-6.462 5.009-3.036 10.183-6.08 15.53-6.19 13.709-.28 19.967 14.708 15.689 27.353z" fill="#E5E5FF"/>
        </g>
        <path d="M144.274 123.223a1.986 1.986 0 0 1-1.871-1.182 1.971 1.971 0 0 1 .396-2.172 1.986 1.986 0 0 1 3.067.274c.221.326.338.71.339 1.104a1.955 1.955 0 0 1-1.184 1.818c-.236.101-.49.155-.747.158zm0-3.415a1.447 1.447 0 0 0-1.476 1.694 1.44 1.44 0 0 0 1.126 1.16 1.447 1.447 0 0 0 1.749-1.412 1.413 1.413 0 0 0-.401-1.009 1.428 1.428 0 0 0-.998-.433zM5.783 92.463c-1.328 0-2.41-1.138-2.41-2.537 0-1.398 1.082-2.537 2.41-2.537s2.409 1.138 2.409 2.537c0 1.4-1.081 2.537-2.41 2.537zm0-4.543c-1.035 0-1.877.9-1.877 2.006 0 1.107.842 2.007 1.877 2.007 1.034 0 1.88-.9 1.88-2.007 0-1.105-.845-2.006-1.88-2.006zM105.178 150.525c1.03 0 1.864-.827 1.864-1.846 0-1.02-.834-1.846-1.864-1.846a1.855 1.855 0 0 0-1.864 1.846c0 1.019.835 1.846 1.864 1.846zM340.445 85.61c1.323 0 2.396-1.062 2.396-2.372 0-1.31-1.073-2.372-2.396-2.372a2.383 2.383 0 0 0-2.395 2.372 2.383 2.383 0 0 0 2.395 2.372zM184.811 69.736c-1.279 0-2.319-1.087-2.319-2.423 0-1.335 1.04-2.422 2.319-2.422 1.278 0 2.317 1.087 2.317 2.422 0 1.336-1.039 2.423-2.317 2.423zm0-4.315c-.985 0-1.786.848-1.786 1.892s.801 1.892 1.786 1.892c.984 0 1.785-.849 1.785-1.892 0-1.042-.801-1.892-1.785-1.892zM250.915 86.344l-2.631-2.683 2.686-2.738 2.631 2.683-2.686 2.738zm-1.886-2.683 1.886 1.924 1.941-1.976-1.886-1.924-1.941 1.976zM23.602 57.005l-2.368-2.36-2.425 2.416 2.369 2.36 2.424-2.416zM84.007 125.319l-2.63-2.684 2.685-2.738 2.631 2.684-2.686 2.738zm-1.886-2.684 1.886 1.924 1.94-1.977-1.885-1.925-1.94 1.978zM332.132 41.874l-2.356-2.347 2.402-2.394 2.356 2.347-2.402 2.395zm-1.599-2.347 1.599 1.595 1.648-1.642-1.602-1.597-1.645 1.644zM162.874 128.164h-25.276a.278.278 0 0 1-.257-.274.278.278 0 0 1 .257-.274h25.276a.278.278 0 0 1 .257.274.278.278 0 0 1-.257.274zM142.379 133.596h-4.781a.273.273 0 0 1-.183-.461.272.272 0 0 1 .183-.086h4.781a.272.272 0 0 1 .257.274.277.277 0 0 1-.074.187.277.277 0 0 1-.183.086zM156.14 133.596h-9.89a.273.273 0 0 1-.182-.461.272.272 0 0 1 .182-.086h9.89a.274.274 0 0 1 .182.461.274.274 0 0 1-.182.086zM162.874 139.029h-25.276a.278.278 0 0 1-.257-.274.278.278 0 0 1 .257-.274h25.276a.278.278 0 0 1 .257.274.278.278 0 0 1-.257.274z" fill="#3D8BD8"/>
        <path d="M223.91 174.743a.267.267 0 0 1-.267-.266v-42.21a.278.278 0 0 1 .015-.107.267.267 0 0 1 .517.107v42.21a.258.258 0 0 1-.163.245.259.259 0 0 1-.102.021z" fill="#1B1B43"/>
        <path d="M218.789 170.71h10.241a3.703 3.703 0 0 1 2.614 1.076 3.669 3.669 0 0 1 1.084 2.603v.087h-17.634v-.087a3.672 3.672 0 0 1 1.083-2.601 3.702 3.702 0 0 1 2.612-1.078z" fill="#fff"/>
        <path d="M232.924 174.676h-18.029v-.286a3.878 3.878 0 0 1 1.142-2.742 3.904 3.904 0 0 1 2.752-1.137h10.241a3.906 3.906 0 0 1 2.752 1.137 3.877 3.877 0 0 1 1.142 2.742v.286zm-17.627-.398h17.226a3.476 3.476 0 0 0-1.063-2.388 3.5 3.5 0 0 0-2.43-.981h-10.241a3.509 3.509 0 0 0-2.43.981 3.482 3.482 0 0 0-1.062 2.388z" fill="#1B1B43"/>
        <path d="M212.04 129.689h19.458c1.134 0 2.223.45 3.026 1.249a4.258 4.258 0 0 1 1.253 3.015v.1H212.04v-4.364zM189.458 164.369l.926 10.108H176.49l6.199-6.064-.071-3.964 6.84-.08z" fill="#3D8BD8"/>
        <path d="M183.611 170.656a.256.256 0 0 1-.115-.027l-2.063-.995a.255.255 0 0 1-.083-.062.277.277 0 0 1-.053-.089.276.276 0 0 1 .012-.203.28.28 0 0 1 .063-.082.258.258 0 0 1 .089-.052.258.258 0 0 1 .204.011l2.063.989a.264.264 0 0 1 .049.446.268.268 0 0 1-.166.058v.006zM182.281 172.116a.275.275 0 0 1-.116-.028l-2.063-.988a.264.264 0 0 1 .032-.485.266.266 0 0 1 .2.007l2.063.996a.266.266 0 0 1 .143.298.273.273 0 0 1-.094.148.274.274 0 0 1-.165.058v-.006zM186.141 174.565a.267.267 0 0 1-.264-.24c-.124-1.252.329-2.347 1.271-3.073.888-.688 2.091-.934 2.992-.61a.265.265 0 0 1 .024.49.27.27 0 0 1-.203.009c-.727-.259-1.748-.042-2.481.53-.793.618-1.173 1.54-1.069 2.602a.263.263 0 0 1-.239.29l-.031.002z" fill="#1B1B43"/>
        <path d="m208.506 118.951-17.031 4.027c-5.953 1.645-10.145 7.081-10.326 13.434l-.387 29.959 10.688.147 5.414-31.057 11.642-16.51z" fill="#BE443D"/>
        <path d="m213.861 162.168 7.684 9.267-11.2 8.494 1.592-8.648-3.545-4.867 5.469-4.246z" fill="#3D8BD8"/>
        <path d="M211.843 172.387a.267.267 0 0 1-.052-.526l2.247-.452a.28.28 0 0 1 .104-.001.254.254 0 0 1 .169.112.259.259 0 0 1 .001.295.264.264 0 0 1-.169.114l-2.247.452a.233.233 0 0 1-.053.006zM211.671 174.351a.268.268 0 0 1-.262-.239.266.266 0 0 1 .209-.286l2.246-.454a.276.276 0 0 1 .208.033c.03.019.057.044.077.074a.258.258 0 0 1 .042.205.27.27 0 0 1-.221.208l-2.246.454a.307.307 0 0 1-.053.005zM219.087 173.453a.268.268 0 0 1-.148-.045c-.968-.645-1.291-2.05-1.182-3.088.104-.982.555-1.703 1.24-1.977a.267.267 0 0 1 .343.352.264.264 0 0 1-.146.142c-.486.194-.826.769-.906 1.538-.096.908.199 2.09.948 2.595a.263.263 0 0 1 .102.295.27.27 0 0 1-.095.135.271.271 0 0 1-.156.053z" fill="#1B1B43"/>
        <path d="m229.131 121.738-1.34 5.446a5.992 5.992 0 0 1-.489 1.342c-1.192 2.438-3.444 4.013-5.928 4.342l-17.485 4.829 14.779 25.996-9.319 6.366-17.35-24.538c-3.945-5.636-2.711-13.81 2.675-17.714 1.842-1.335 3.265-2.299 3.472-2.253l12.224-6.692 18.761 2.876z" fill="#FE5B52"/>
        <path d="m196.169 111.209-.372 10.818c10.443-1.783 22.251-2.594 33.316-.289 2.221-4.831 1.481-8.742-.464-13.233l-32.48 2.704z" fill="#8FC4F8"/>
        <path d="M193.602 115.067s-9.084.791-10.57-5.631c-1.103-4.771 2.976-12.246 6.625-17.705 2.896-4.341 6.828-7.66 11.317-9.607l5.119-2.224 7.305 2.622 11.656 7.057 2.927 24.994s-34.554.494-34.379.494z" fill="#8FC4F8"/>
        <path d="m219.445 106.041-1.688.268c-1.795.291-3.572.68-5.324 1.164-3.294.966-4.692 4.841-4.692 4.841l3.028.182 5.258-2.254 4.204.194-.786-4.395z" fill="#FFBC96"/>
        <path d="M210.137 112.264a.133.133 0 0 1-.137-.094.13.13 0 0 1 .005-.087.129.129 0 0 1 .058-.066l2.628-1.758a.132.132 0 0 1 .1-.02.13.13 0 0 1 .085.056c.02.029.027.065.02.099a.13.13 0 0 1-.056.085l-2.629 1.758a.131.131 0 0 1-.074.027zM209.005 112.198a.129.129 0 0 1-.093-.039.126.126 0 0 1-.029-.043.125.125 0 0 1-.01-.051c0-.017.003-.034.01-.05a.13.13 0 0 1 .029-.044l2.03-2.022a.133.133 0 0 1 .227.094.133.133 0 0 1-.039.094l-2.031 2.022a.126.126 0 0 1-.043.029.15.15 0 0 1-.051.01z" fill="#D28572"/>
        <path d="m209.958 79.623 8.199 2.1c2.196.597 5.003 2.069 6.413 3.449 3.8 3.718 10.738 13.439 11.182 19.805.232 3.325-1.926 6.054-6.09 6.652l-9.154 1.316-2.776-6.672 8.421-2.125-7.686-12.258-8.509-12.267z" fill="#8FC4F8"/>
        <path d="m220.425 113.093-2.852-6.874 8.368-2.145-8.094-12.861a.135.135 0 0 1-.017-.1.136.136 0 0 1 .059-.083.135.135 0 0 1 .101-.017c.034.008.064.03.083.059l8.292 13.169-8.423 2.158 2.652 6.402 9.052-1.301a.14.14 0 0 1 .092.031.128.128 0 0 1 .047.084.133.133 0 0 1-.102.149l-9.258 1.329zM207.568 87.617c-1.729 0-3.46-.708-4.837-1.993a.125.125 0 0 1-.041-.093.126.126 0 0 1 .036-.094.132.132 0 0 1 .144-.033.14.14 0 0 1 .044.027c1.488 1.388 3.396 2.077 5.249 1.89 1.922-.192 3.628-1.267 4.934-3.108a.133.133 0 0 1 .085-.047.136.136 0 0 1 .095.023.14.14 0 0 1 .054.081.134.134 0 0 1-.016.096c-1.352 1.905-3.125 3.019-5.125 3.22-.207.02-.415.03-.622.03zM195.105 99.19a.136.136 0 0 1-.125-.088.135.135 0 0 1 .005-.102l3.372-7.166a.133.133 0 0 1 .128-.08.136.136 0 0 1 .132.141.151.151 0 0 1-.012.052l-3.373 7.166a.13.13 0 0 1-.052.057.131.131 0 0 1-.075.02zM198.463 65.39a3.306 3.306 0 0 1 1.306-4.747c.662-.33 1.576-.383 2.047.187 1.099-1.081 2.993-1.235 4.254-.346.385.27 1.423-.322 1.815-.416.763-.184 1.528-.09 2.138.47.513.469.744 1.273.428 1.892.372-.715 2.976.226 3.384.54 2.028 1.579 1.914 5.036.218 6.819-.334.35-.845.596-.976 1.06-.165.583-.291.305-.088.874.677 1.9-.888 3.944-2.905 3.794L198.463 65.39z" fill="#1B1B43"/>
        <path d="M208.454 85.46c-2.217.479-4.362-1.005-4.792-3.308l-.132-.717-.893-4.776-.069-.37 8.037-1.73 1.094 5.862c.43 2.304-1.023 4.56-3.245 5.038z" fill="#FFBC96"/>
        <path d="M209.209 76.745c-1.139 2.224-2.976 3.83-5.679 4.694l-.893-4.776 6.572.082z" fill="#D28572"/>
        <path d="M207.467 78.055c-3.333 1.507-6.421.832-7.268-3.724a15.575 15.575 0 0 1-.229-2.987c.006-.32.016-.653.032-.998.165-3.11-.719-4.48.124-5.53 1.479-1.869 3.791-1.08 5.766-1.08 3.159 0 5.267 1.586 5.469 5.756.162 3.348-.422 6.997-3.894 8.563z" fill="#FFBC96"/>
        <path d="M198.965 63.555c-2.42.6-1.445 4.324.754 4.51.975.081 2.841-.936 2.862-2.145-.017.997.71 1.952 1.635 2.15.925.197 1.948-.382 2.3-1.308a1.72 1.72 0 0 0 1.059 1.144 1.605 1.605 0 0 0 1.497-.253c-.302.977.218 2.068.992 2.692.773.624 1.748.885 2.694 1.124l-1.322-7.276s-6.988-1.898-7.192-1.898c-.203 0-5.275 1.26-5.279 1.26z" fill="#1B1B43"/>
        <path d="M211.557 73.717c1.058 0 1.917-.895 1.917-2s-.859-2-1.917-2c-1.059 0-1.917.895-1.917 2s.858 2 1.917 2z" fill="#FFBC96"/>
        <path d="M204.88 70.53c0 .381.222.69.496.69s.496-.309.496-.69c0-.38-.222-.69-.496-.69s-.496.309-.496.69zM201.913 70.4c0 .38.221.689.496.689s.496-.309.496-.69c0-.38-.221-.69-.496-.69s-.496.309-.496.69z" fill="#1B1B43"/>
        <path d="M203.511 73.874a.132.132 0 0 1-.043-.008l-.03-.01c-.291-.1-.689-.235-.868-.54-.22-.371.124-.776.259-.927.303-.349.654-.82.674-1.391a.133.133 0 0 1 .137-.124.132.132 0 0 1 .09.044c.024.025.036.059.034.093-.022.654-.405 1.175-.744 1.557-.248.277-.315.474-.229.618.124.22.459.332.724.422l.031.011c.029.011.053.032.069.059a.134.134 0 0 1-.112.2l.008-.004z" fill="#D28572"/>
        <path d="m205.108 74.2-2.683.689s1.534 2.128 2.683-.69z" fill="#fff"/>
        <path d="M206.745 69.788a1.681 1.681 0 0 0-.455-.466 1.421 1.421 0 0 0-.558-.226 1.317 1.317 0 0 0-.585.03c-.201.06-.381.174-.521.33l-.183-.087a.979.979 0 0 1 .522-.662 1.33 1.33 0 0 1 .859-.124c.287.053.551.191.758.397.199.2.325.461.357.741l-.194.067zM201.31 69.38a.893.893 0 0 1 .341-.6 1.162 1.162 0 0 1 1.353-.06c.191.127.336.31.414.525l-.163.123a2.632 2.632 0 0 0-.467-.247 1.14 1.14 0 0 0-.892.034 1.093 1.093 0 0 0-.394.294l-.192-.07z" fill="#1B1B43"/>
        <path opacity=".5" d="M207.523 74.258a1.503 1.503 0 1 0-.481-2.966 1.503 1.503 0 1 0 .481 2.966zM201.701 72.791a1.504 1.504 0 0 1-1.502 1.54 15.576 15.576 0 0 1-.229-2.987c.39-.058.788.038 1.108.27.32.23.536.577.602.965v.032c.016.06.016.117.021.18z" fill="#FF9289"/>
        <path d="M210.969 72.638a.133.133 0 0 1-.133-.124c-.078-.978.272-1.658 1.041-2.02a.132.132 0 0 1 .146.022.141.141 0 0 1 .031.041.128.128 0 0 1 .005.101.132.132 0 0 1-.068.076c-.667.314-.959.89-.889 1.76a.13.13 0 0 1-.007.051.132.132 0 0 1-.025.046.14.14 0 0 1-.092.046h-.009z" fill="#D28572"/>
        <path d="M218.102 112.21h-12.863v2.995h12.863v-2.995z" fill="#1B1B43"/>
        <path d="M209.416 115.205h-21.262l-7.566-20.284h21.263l7.565 20.284z" fill="#3D8BD8"/>
        <path d="M121.76 163.908a.268.268 0 0 1-.267-.265l.01-69.45a.27.27 0 0 1 .078-.188.275.275 0 0 1 .189-.077.265.265 0 0 1 .265.265l-.008 69.45a.267.267 0 0 1-.267.265z" fill="#1B1B43"/>
        <path d="M141.32 174.677a.258.258 0 0 1-.124-.033L121.77 163.94l-19.423 10.707a.262.262 0 0 1-.294-.024.263.263 0 0 1 .036-.439l19.681-10.851 19.679 10.851c.05.029.09.073.113.126a.264.264 0 0 1-.237.368l-.005-.001z" fill="#1B1B43"/>
        <path d="M160.596 23.311H82.942v77.602h77.654V23.311z" fill="#fff"/>
        <path d="M160.796 101.111H82.742V23.112h78.054v77.999zm-77.654-.398h77.254V23.51H83.142v77.203z" fill="#1B1B43"/>
        <path d="M97.972 80.74H92.02v2.7h5.953v-2.7z" fill="#3D8BD8"/>
        <path d="M125.962 81.89H99.903v.398h26.059v-.397z" fill="#1B1B43"/>
        <path d="M97.972 85.998H92.02v2.7h5.953v-2.7z" fill="#8FC4F8"/>
        <path d="M125.962 87.148H99.903v.398h26.059v-.398z" fill="#1B1B43"/>
        <path d="M97.472 55.838h-2.683v8.929h2.683v-8.93zM103.016 53.135h-2.683v11.632h2.683V53.135zM108.56 48.367h-2.682v16.4h2.682v-16.4zM114.104 44.019h-2.682v20.748h2.682V44.019zM119.647 39.562h-2.682v25.204h2.682V39.561zM125.191 37.607h-2.682v27.16h2.682v-27.16zM130.735 39.718h-2.682v25.05h2.682v-25.05zM136.28 42.16h-2.683v22.607h2.683V42.16zM141.824 37.607h-2.682v27.16h2.682v-27.16zM147.368 35.043h-2.682v29.724h2.682V35.043zM152.911 31.633h-2.682v33.134h2.682V31.633z" fill="#3D8BD8"/>
        <path d="M154.648 64.975H90.964v-34.8h.533v34.27h63.151v.53z" fill="#1B1B43"/>
        <path d="m96.178 60.057-.094-.522 5.475-.981 5.214-4.305.022-.01 5.686-3.124 5.594-4.516 5.894-1.294 5.077 4.142 5.485 3.212 5.9-7.713 5.627-1.795 5.976-2.813.227.48-6.024 2.832-5.483 1.75-6.085 7.956-5.944-3.485-4.893-3.993-5.519 1.212-5.533 4.467-.021.011-5.685 3.122-5.283 4.362-5.613 1.005z" fill="#8FC4F8"/>
        <path d="M141.116 68.374h-38.694v1.946h38.694v-1.946zM143.748 84.764l5.084-7.944a9.483 9.483 0 0 0-11.546 1.077 9.396 9.396 0 0 0-1.819 11.411 9.443 9.443 0 0 0 4.532 4.11c1.927.831 4.077 1 6.111.479a9.46 9.46 0 0 0 5.121-3.354 9.398 9.398 0 0 0 1.982-5.779c0-.173-.017-.342-.026-.512l-9.439.512z" fill="#3D8BD8"/>
        <path d="M153.186 84.252a9.372 9.372 0 0 0-1.275-4.241 9.419 9.419 0 0 0-3.08-3.19l-5.084 7.943 9.439-.512z" fill="#8FC4F8"/>
        <path d="m57.296 163.839-1.035 10.667h15.532l-6.93-6.4.08-4.182-7.647-.085z" fill="#3D8BD8"/>
        <path d="M63.301 170.06a.275.275 0 0 1-.167-.06.265.265 0 0 1 .062-.449l2.232-.96a.266.266 0 0 1 .21.486l-2.231.96a.274.274 0 0 1-.106.023zM64.632 171.562a.263.263 0 0 1-.168-.06.263.263 0 0 1-.067-.327.27.27 0 0 1 .13-.122l2.232-.958a.266.266 0 0 1 .21.486l-2.232.96a.24.24 0 0 1-.105.021zM56.662 170.005c1.127.171 2.248.55 3.022 1.424.72.811 1 1.911 1.116 2.965.035.336.568.34.532 0-.124-1.182-.433-2.367-1.223-3.29-.828-.968-2.067-1.422-3.298-1.606-.336-.051-.48.461-.143.511l-.006-.004z" fill="#1B1B43"/>
        <path d="m39.074 163.946-1.2 10.561H23.396l5.735-5.76 2.403-4.822 7.539.021z" fill="#3D8BD8"/>
        <path d="M31.364 169.971a.315.315 0 0 1-.105-.021l-2.232-.96a.267.267 0 0 1 .015-.481.266.266 0 0 1 .196-.006l2.232.959a.264.264 0 0 1 .062.448.27.27 0 0 1-.168.061zM30.032 171.476a.273.273 0 0 1-.105-.022l-2.232-.959a.27.27 0 0 1-.143-.352.269.269 0 0 1 .354-.142l2.232.96a.264.264 0 0 1 .061.449.265.265 0 0 1-.168.06l.002.006zM38.167 169.539c-1.232.186-2.47.641-3.3 1.606-.79.923-1.1 2.107-1.222 3.289-.036.339.496.337.532 0 .11-1.053.39-2.153 1.11-2.965.775-.874 1.894-1.253 3.022-1.424.337-.05.193-.562-.142-.511v.005z" fill="#1B1B43"/>
        <path d="m42.177 92.067-14.736 74.332H41.3l17.206-79.88-16.329 5.548z" fill="#8FC4F8"/>
        <path d="m53.11 91.042 2.39 74.93h12.187l-.478-78.77-14.098 3.84z" fill="#8FC4F8"/>
        <path d="m65.284 90.104-21.072 2.73.515-36.355 17.131-.511 3.426 34.136z" fill="#fff"/>
        <path d="M55.458 45.724v9.37c0 2.595-.286 4.55-2.95 4.683-1.712.085-4.085-.952-4.788-2.395a5.174 5.174 0 0 1-.522-2.287v-9.371h8.26z" fill="#D28572"/>
        <path d="M55.456 49.526v4.404c-2.322-.579-5.162-2.386-6.563-4.404h6.563z" fill="#925D4F"/>
        <path d="M55.458 51.538a3.13 3.13 0 0 1-.538.117c-1.395.207-3.291-.017-5.027-.95a7.969 7.969 0 0 1-2.635-2.254c-.021-.022-.037-.048-.06-.075a7.691 7.691 0 0 1-.553-.865l-.34-1.205-.512-1.787-1.406-4.942 6.901-3.386s5.25 1.088 5.772 1.427a20.79 20.79 0 0 0-.063 2.817c.047 1.327.197 2.61.33 3.815.124 1.05.234 2.038.272 2.923.095 2.227-.267 3.85-2.14 4.365z" fill="#D28572"/>
        <path d="M45.578 46.59s1.929-.64 1.675-1.035c-.383-.596-1.524-2.39-.324-4.438.24-.407 1.52-.74 1.952-.895a8.765 8.765 0 0 1 1.663-.447 5.983 5.983 0 0 1 2.464.123c1.116.295 2.208 1.061 3.394.762.855-.216 1.83-.898 2.06-1.845.132-.538.013-1.112-.221-1.613-1.455-3.071-4.983-3.268-7.821-2.998-2.315.22-4.16 1.15-5.405 3.315-.047.082-.283.65-.346.657-3.03.382-1.362 7.166.909 8.415z" fill="#1B1B43"/>
        <path d="M46.328 48.69c1.108 0 2.006-.95 2.006-2.121 0-1.172-.898-2.122-2.006-2.122-1.108 0-2.007.95-2.007 2.122 0 1.171.899 2.12 2.007 2.12z" fill="#D28572"/>
        <path d="M46.988 40.456c.072 1.778.19 3.658.098 5.436-.029.545-.199.486-.406.256-.248-.282-.429-.767-.484-1.323l-.275-2.842 1.067-1.527zM52.249 43.986c0 .39-.227.707-.508.707-.282 0-.508-.316-.508-.707 0-.39.227-.708.508-.708.28 0 .508.317.508.708zM55.293 43.852c0 .391-.228.707-.508.707s-.509-.316-.509-.707c0-.392.228-.708.509-.708.28 0 .508.317.508.708z" fill="#1B1B43"/>
        <path d="M53.653 47.405a.134.134 0 0 1-.128-.111.134.134 0 0 1 .084-.147l.033-.01c.272-.094.61-.21.744-.436.088-.15.013-.352-.236-.639-.34-.39-.733-.924-.756-1.594a.133.133 0 0 1 .128-.126.134.134 0 0 1 .138.117c.02.586.38 1.072.69 1.429.135.154.497.563.266.946-.183.313-.591.451-.889.554l-.03.01a.124.124 0 0 1-.044.007z" fill="#925D4F"/>
        <path d="m52.015 47.749 2.751.708s-2.331 1.848-2.751-.708z" fill="#fff"/>
        <path d="M50.09 43.034c.122-.181.283-.333.471-.444.192-.115.405-.19.627-.22a1.47 1.47 0 0 1 1.23.378l-.093.186c-.201-.024-.38-.047-.556-.056a2.861 2.861 0 0 0-1.02.123c-.173.05-.342.124-.529.191l-.13-.158zM55.61 42.804c-.18-.034-.34-.086-.495-.123a2.444 2.444 0 0 0-.437-.073 1.677 1.677 0 0 0-.413.03c-.142.027-.291.075-.465.123l-.131-.16c.103-.172.253-.312.433-.402.19-.099.405-.142.62-.124.202.018.398.08.574.18.165.096.31.222.429.371l-.114.178z" fill="#1B1B43"/>
        <path opacity=".2" d="M50.964 47.666c.63-.577.671-1.552.093-2.18a1.552 1.552 0 0 0-2.187-.092 1.538 1.538 0 0 0-.093 2.179 1.552 1.552 0 0 0 2.187.093zM57.599 47.172a1.55 1.55 0 0 1-2.14-1.22 1.914 1.914 0 0 1-.012-.192v-.032c.008-.404.175-.789.465-1.071a1.55 1.55 0 0 1 1.415-.403c.123 1.045.234 2.032.272 2.918z" fill="#BE443D"/>
        <path d="M47.2 55.094c8.876 11.884 4.122 41.583 2.067 47.087l-13.235-1.024 4.112-21.761-6.682-7.426 13.739-16.876z" fill="#6C4C39"/>
        <path d="M50.09 79.073c.725-2.223-.885-4.777-3.65-7.489l-1.72 3.687 5.37 3.802z" fill="#1B1B43"/>
        <path d="M46.452 98.752a.138.138 0 0 1-.039 0 .134.134 0 0 1-.08-.064.134.134 0 0 1-.01-.102c2.49-8.284 2.925-19.796 3.035-27.733a.131.131 0 0 1 .133-.131.133.133 0 0 1 .124.134c-.23 16.608-1.848 23.824-3.044 27.806a.134.134 0 0 1-.12.09z" fill="#1B1B43"/>
        <path d="M54.395 71.504c.01-.982-.112-1.993-.744-2.719-.352-.409-1.623 0-2.32.332-.033.016.844-3.981.478-4.274-.453-.36-.92-.124-1.127.294-.351.698-.588 1.513-.86 2.246-.408 1.099-.91 2.045-1.812 2.82-.715.618-1.535.99-1.888 1.932-.263.7-.176 1.424-.094 2.152.074.806.265 1.597.569 2.347.15.349.364.727.734.881.44.186.975-.065 1.395-.228.946-.366 1.904-.7 2.873-1.005.795-.247 1.6-.65 2.148-1.294.567-.668.548-1.413.593-2.238.024-.394.052-.817.055-1.246zm-7.249 3.643h.011c-.053.065-.062.067-.01 0z" fill="#D28572"/>
        <path d="M52.086 70.873a.2.2 0 0 1-.2-.176.199.199 0 0 1 .153-.217l2-.487a.2.2 0 0 1 .242.146.198.198 0 0 1-.147.24l-1.997.487a.218.218 0 0 1-.05.007zM52.22 72.464a.2.2 0 0 1-.2-.175.2.2 0 0 1 .153-.218l1.997-.485a.2.2 0 0 1 .24.146.199.199 0 0 1-.146.24l-1.996.486a.214.214 0 0 1-.047.006zM52.18 74.144a.2.2 0 0 1-.202-.175.2.2 0 0 1 .154-.218l1.997-.486a.2.2 0 0 1 .218.296.2.2 0 0 1-.123.09l-1.997.487a.209.209 0 0 1-.048.006z" fill="#925D4F"/>
        <path d="M50.048 79.01a45.516 45.516 0 0 1-7.471 5.867c-2.567 1.618-5.533 3.279-8.642 3.433-4.804.239-6.865-4.84-6.673-8.903.213-4.62 2.663-8.854 4.879-12.795 2.215-3.941 5.366-7.487 9.589-9.333.032-.01.064-.026.096-.037l5.372-2.32v.173a5.173 5.173 0 0 0 .517 2.285l-8.472 17.874 7.193-3.666c.65 2.577 1.918 5.04 3.612 7.422z" fill="#6C4C39"/>
        <path d="M34.447 77.548a.131.131 0 0 1-.118-.072.13.13 0 0 1-.009-.102.132.132 0 0 1 .066-.077l11.88-6.074a.134.134 0 0 1 .19.158.133.133 0 0 1-.065.078l-11.882 6.074a.134.134 0 0 1-.062.015zM38.642 87.163a.135.135 0 0 1-.109-.055.131.131 0 0 1 .032-.186L49.974 78.9a.135.135 0 0 1 .177.038.133.133 0 0 1-.024.18L38.72 87.14a.137.137 0 0 1-.077.023z" fill="#1B1B43"/>
        <path d="M37.71 75.757a.125.125 0 0 1-.051-.01.133.133 0 0 1-.072-.174l3.395-8.03a.134.134 0 0 1 .123-.082.132.132 0 0 1 .123.082.133.133 0 0 1 0 .102l-3.396 8.03a.132.132 0 0 1-.122.082zM48.316 69.92a.133.133 0 0 1-.11-.058l-4.475-6.596 2.061-6.424a.133.133 0 0 1 .172-.1.133.133 0 0 1 .093.126.133.133 0 0 1-.01.054l-2.023 6.3 4.402 6.49a.133.133 0 0 1-.036.185.139.139 0 0 1-.074.023z" fill="#1B1B43"/>
        <path d="M104.153 57.2c-.145 1.419-1.458 1.16-2.082 2.312-.755 1.395-2.811 2.87-4.44 1.867a4.465 4.465 0 0 1-1.834-2.364c-.473-1.386.88-3.336 1.612-4.382.706-1.014 2.431-1.327 3.597-1.338.771-.009 1.659.618 2.116 1.359.472.761 1.12 1.662 1.031 2.546z" fill="#D28572"/>
        <path d="M104.711 57.045c.233.548-.395 1.012-1.258 1.375s-1.634.494-1.867-.06c-.248-.591.396-1.013 1.259-1.376.863-.363 1.561-.655 1.866.06z" fill="#D28572"/>
        <path d="M103.049 57.266c1.06-.446 1.786-1.122 1.621-1.511-.164-.388-1.157-.342-2.217.104s-1.786 1.123-1.621 1.511c.165.389 1.158.342 2.217-.104z" fill="#D28572"/>
        <path d="m111.055 39.763-.908-.556-9.923 16.09.908.555 9.923-16.09z" fill="#1B1B43"/>
        <path d="M97.44 54.951c.661.124 1.301-.633 1.959-.494.962.2 1.623.116 2.671-.283.565-.216 1.364-.81 1.383-1.482 0-.2-.049-.425-.224-.522-.248-.133-.528.063-.759.219-1.488 1.003-3.523.067-5.11 2.538l.08.024zM103.765 54.51c.338.477-.135 1.04-1.15 1.759-1.014.719-1.592.91-1.762.352-.109-.355-.136-.878.878-1.599 1.014-.72 1.586-1.136 2.034-.512z" fill="#D28572"/>
        <path d="M98.929 57.886a.131.131 0 0 1-.105-.051.133.133 0 0 1 .022-.187c.787-.617 1.065-1.387.851-2.337a.132.132 0 0 1 .1-.158.133.133 0 0 1 .16.1c.239 1.059-.071 1.911-.945 2.603a.134.134 0 0 1-.083.03zM101.335 56.554a.608.608 0 0 1-.496-.234.505.505 0 0 1-.084-.37.414.414 0 0 1 .171-.277.14.14 0 0 1 .1-.021.134.134 0 0 1 .086.055.12.12 0 0 1 .02.047.13.13 0 0 1-.018.1.145.145 0 0 1-.036.038.157.157 0 0 0-.061.102.225.225 0 0 0 .037.167.366.366 0 0 0 .337.123c.317-.06.626-.157.92-.289a.137.137 0 0 1 .1-.02.133.133 0 0 1 .108.153.13.13 0 0 1-.055.085c-.165.116-.858.314-1.043.335a.626.626 0 0 1-.086.006z" fill="#925D4F"/>
        <path d="M101.963 57.493a.51.51 0 0 1-.391-.15.433.433 0 0 1-.082-.403c.029-.097.346-.714.456-.804a.13.13 0 0 1 .096-.031c.035.003.068.02.091.046a.132.132 0 0 1-.015.186c-.142.215-.267.441-.372.676a.156.156 0 0 0-.006.08.168.168 0 0 0 .031.075c.047.053.146.07.296.052.375-.06.741-.163 1.093-.306a.131.131 0 0 1 .153.027c.013.014.023.03.029.047a.143.143 0 0 1 .008.054.139.139 0 0 1-.015.053.134.134 0 0 1-.085.067c-.37.15-.756.257-1.151.32a.827.827 0 0 1-.136.01z" fill="#925D4F"/>
        <path d="M102.603 58.632c-.119 0-.238-.012-.355-.035a.403.403 0 0 1-.315-.232c-.154-.398.404-1.01.642-1.175a.137.137 0 0 1 .098-.016.137.137 0 0 1 .082.054.134.134 0 0 1-.027.18c-.223.155-.62.662-.546.865a.158.158 0 0 0 .116.067c.256.053.521.037.768-.048a.135.135 0 0 1 .149.177.136.136 0 0 1-.059.07 1.652 1.652 0 0 1-.553.093z" fill="#925D4F"/>
        <path d="m66.869 69.024 6.381 3.756c6.21 3.615 12.335 3.157 17.99-2.134l8.78-8.277-5.396-5.76c-3.814 3.62-11.178 10.795-17.34 6.611l-6.767-4.942a23.602 23.602 0 0 0-8.804-3.583l-6.256-1.034c-.744 9.76 2.629 32.558 6.661 45.704l11.436-4.353c-1.803-5.89-4.93-18.862-6.685-25.988z" fill="#6C4C39"/>
        <path d="M68.461 76.155a.134.134 0 0 1-.124-.105l-2.662-12.335a.133.133 0 0 1 .26-.055l2.663 12.335a.13.13 0 0 1-.054.136.132.132 0 0 1-.048.02l-.035.004zM63.992 95.768a.133.133 0 0 1-.124-.109l-5.129-27.65 1.945-5.371-4.231-7.73a.133.133 0 0 1 .005-.154.134.134 0 0 1 .15-.043.13.13 0 0 1 .078.074l4.288 7.834-1.96 5.415 5.11 27.584a.133.133 0 0 1-.107.154l-.025-.004zM97.481 62.848a.135.135 0 0 1-.095-.042l-3.817-3.978a.133.133 0 0 1 .009-.184.134.134 0 0 1 .185 0l3.815 3.98a.132.132 0 0 1-.023.202.134.134 0 0 1-.074.022zM47.428 78.675a.134.134 0 0 1-.082-.028c-1.352-1.06-2.24-2.734-2.71-5.12a.133.133 0 0 1 .055-.138.134.134 0 0 1 .15.001.134.134 0 0 1 .055.086c.46 2.32 1.314 3.944 2.614 4.962a.131.131 0 0 1 .046.14.131.131 0 0 1-.07.084.136.136 0 0 1-.058.013zM53.42 110.11h-.025a.133.133 0 0 1-.105-.156l1.462-7.692a.137.137 0 0 1 .056-.085.13.13 0 0 1 .1-.02.121.121 0 0 1 .048.019c.015.01.027.022.037.036a.137.137 0 0 1 .021.1l-1.463 7.692a.13.13 0 0 1-.047.076.137.137 0 0 1-.085.03zM199.223 115.037h-1.81v59.42h1.81v-59.42zM271.641 115.037h-1.81v59.42h1.81v-59.42z" fill="#1B1B43"/>
        <path d="M302.825 114.838H171.744v3.32h131.081v-3.32z" fill="#fff"/>
        <path d="M303.025 118.35h-131.48v-3.706h131.48v3.706zm-131.081-.398h130.682v-2.921H171.944v2.921z" fill="#1B1B43"/>
        <path d="m314.726 156.879 8.592 9.35-8.751 8.486.33-8.606-5.105-4.299 4.934-4.931z" fill="#3D8BD8"/>
        <path d="M314.747 166.432a.265.265 0 0 1-.078-.519l2.48-.761a.27.27 0 0 1 .203.019c.063.033.11.09.13.157a.264.264 0 0 1-.176.332l-2.48.76a.233.233 0 0 1-.079.012zM314.79 168.543a.266.266 0 0 1-.078-.519l2.48-.761a.266.266 0 0 1 .156.508l-2.48.761a.288.288 0 0 1-.078.011zM320.865 168.254a.232.232 0 0 1-.078-.013c-.951-.291-1.648-1.254-1.694-2.347a2.23 2.23 0 0 1 .348-1.367 2.249 2.249 0 0 1 1.099-.888.27.27 0 0 1 .348.148.267.267 0 0 1-.149.346c-1.054.423-1.13 1.359-1.116 1.741.037.865.579 1.632 1.318 1.853a.265.265 0 0 1-.078.519l.002.008z" fill="#1B1B43"/>
        <path d="m288.912 93.394-6.396 25.297a20.121 20.121 0 0 0-.07 9.572 20.163 20.163 0 0 0 4.362 8.528l23.262 26.923 7.969-6.894-20.358-27.104 3.188-40.633-11.957 4.31z" fill="#6C4C39"/>
        <path d="M288.646 100.958a.133.133 0 0 1-.124-.084.129.129 0 0 1 .001-.101.142.142 0 0 1 .029-.043.157.157 0 0 1 .044-.028c2.331-.929 3.348-3.294 3.023-7.027a.132.132 0 0 1 .031-.097.133.133 0 0 1 .187-.017.138.138 0 0 1 .048.09c.336 3.865-.737 6.32-3.19 7.297a.116.116 0 0 1-.049.01zM309.768 160.727a.13.13 0 0 1-.127-.09.125.125 0 0 1-.001-.081.129.129 0 0 1 .048-.067l4.96-3.72a.133.133 0 0 1 .046-.023.152.152 0 0 1 .052-.003.168.168 0 0 1 .049.017.13.13 0 0 1 .064.133.125.125 0 0 1-.017.049.124.124 0 0 1-.034.038l-4.96 3.72a.123.123 0 0 1-.08.027z" fill="#1B1B43"/>
        <path d="m305.154 163.315.542 11.431h-14.255l6.36-5.889.335-5.462 7.018-.08z" fill="#3D8BD8"/>
        <path d="M300.094 170.325a.28.28 0 0 1-.124-.03l-2.294-1.203a.265.265 0 0 1 .05-.48.271.271 0 0 1 .198.01l2.294 1.203c.05.029.09.073.113.126a.269.269 0 0 1-.078.311.272.272 0 0 1-.159.058v.005zM298.63 171.847a.271.271 0 0 1-.124-.031l-2.289-1.205a.268.268 0 0 1-.12-.156.262.262 0 0 1 .021-.196.264.264 0 0 1 .347-.117l2.294 1.203a.262.262 0 0 1 .124.293.268.268 0 0 1-.248.201l-.005.008zM302.192 174.669a.278.278 0 0 1-.138-.038.277.277 0 0 1-.098-.103c-.516-.965-.306-2.259.508-3.145.773-.839 1.854-1.078 2.893-.638a.268.268 0 1 1-.208.494 1.97 1.97 0 0 0-2.291.509c-.665.723-.844 1.767-.432 2.538a.26.26 0 0 1 .02.202.27.27 0 0 1-.13.156.281.281 0 0 1-.124.025z" fill="#1B1B43"/>
        <path d="m298.149 91.188-3.608 38.552 1.71 36.076 10.468-.566 4.424-59.657c1.598-5.172 1.997-9.151 1.342-13.85l-14.336-.555z" fill="#6C4C39"/>
        <path d="M309.414 100.759h-.027c-3.308-.637-5.267-3.738-4.988-7.899a.138.138 0 0 1 .044-.091.141.141 0 0 1 .046-.026.135.135 0 0 1 .143.04.131.131 0 0 1 .032.096c-.124 1.853.226 3.591.982 4.912a5.425 5.425 0 0 0 3.792 2.707.132.132 0 0 1 .071.232.133.133 0 0 1-.095.031v-.002zM296.101 165.859a.132.132 0 0 1-.091-.036.13.13 0 0 1-.042-.088l-1.736-37.187a.067.067 0 0 1 0-.02l3.062-29.975c0-.018.005-.035.013-.051a.141.141 0 0 1 .032-.042.133.133 0 0 1 .1-.03.137.137 0 0 1 .051.013c.016.008.03.019.041.032.012.014.021.03.026.047a.154.154 0 0 1 .006.052l-3.061 29.966 1.724 37.04 10.368-.461 2.507-34.603a.134.134 0 0 1 .143-.123.132.132 0 0 1 .122.143l-2.516 34.716a.132.132 0 0 1-.124.124l-10.618.471-.007.012z" fill="#1B1B43"/>
        <path d="M297.964 163.825a.131.131 0 0 1-.008-.263l7.192-.37a.132.132 0 1 1 .015.264l-7.192.378-.007-.009zM312.308 64.948c7.796-8.278-7.288-8.555-6.689-16.309.632-8.19-5.259-7.758-5.259-7.758s-5.254-4.638-9.584-.266c-5.304 5.354-1.158 8.36-5.259 12.865-6.108 6.712 1.063 14.192 1.063 14.192l25.728-2.724z" fill="#1B1B43"/>
        <path d="M329.924 59.88c.186-.144 4.02-4.213 4.02-4.213s1.525-6.025 2.095-5.333c.571.691-.289 4.462-.289 4.462s2.685-.052 2.924.6c.24.65.124 4.38-5.007 8.357l-3.743-3.873z" fill="#FFBC96"/>
        <path d="M334.175 55.99c-.153-1.103-.735-3.089-1.099-3.12-.365-.03-.464 1.492-.496 2.65-.046 1.883-.894 3.396-.548 3.514.786.268 2.254-2.196 2.143-3.044z" fill="#FFBC96"/>
        <path d="M335.898 57.338a.373.373 0 0 1-.164-.036c-.158-.077-.248-.247-.248-.513-.005-.439.08-.875.248-1.28a.144.144 0 0 1 .185-.078.143.143 0 0 1 .077.077.144.144 0 0 1 0 .108c-.153.37-.23.769-.224 1.17 0 .143.032.237.085.263a.156.156 0 0 0 .134-.021c.242-.147.47-.576.613-1.145a.127.127 0 0 1 .022-.053.14.14 0 0 1 .239.01.13.13 0 0 1 .018.054.153.153 0 0 1-.005.056c-.094.382-.318 1.062-.744 1.319a.473.473 0 0 1-.236.069z" fill="#D28572"/>
        <path d="M336.616 57.705a.35.35 0 0 1-.229-.08.475.475 0 0 1-.132-.397c.013-.32.084-.635.208-.93a.144.144 0 0 1 .256.008.145.145 0 0 1 .006.103 2.351 2.351 0 0 0-.186.83c0 .091 0 .15.032.17a.113.113 0 0 0 .106 0 .52.52 0 0 0 .156-.14 3 3 0 0 0 .658-1.4.146.146 0 0 1 .058-.091.142.142 0 0 1 .106-.024c.037.008.07.029.091.06.022.03.031.068.024.105a3.285 3.285 0 0 1-.72 1.532.77.77 0 0 1-.254.214.423.423 0 0 1-.18.04z" fill="#D28572"/>
        <path d="M337.634 57.704a.35.35 0 0 1-.229-.08.478.478 0 0 1-.132-.398c.011-.178.036-.354.073-.529.025-.132.051-.269.074-.436a.138.138 0 0 1 .102-.123.146.146 0 0 1 .11.014c.016.01.03.023.042.038a.155.155 0 0 1 .024.051.152.152 0 0 1 .002.056 7.317 7.317 0 0 1-.076.452 3.574 3.574 0 0 0-.068.495c0 .091.007.149.033.17a.116.116 0 0 0 .053.013.11.11 0 0 0 .053-.013.517.517 0 0 0 .156-.14c.338-.4.565-.883.657-1.4a.143.143 0 0 1 .279-.005.146.146 0 0 1 0 .055 3.271 3.271 0 0 1-.719 1.532.77.77 0 0 1-.254.214.428.428 0 0 1-.18.034zM334.589 58.503a.145.145 0 0 1-.125-.073.142.142 0 0 1-.012-.107c.266-.917.143-1.63-.385-2.241a.138.138 0 0 1-.034-.103.139.139 0 0 1 .048-.096.144.144 0 0 1 .2.015c.589.68.734 1.5.444 2.503a.148.148 0 0 1-.051.073.148.148 0 0 1-.085.03z" fill="#D28572"/>
        <path d="m305.365 68.3 10.638 6.97c2.638 1.954 6.224 1.86 8.529-.396.634-.617 10.796-11.275 10.796-11.275l-3.755-5.442-10.555 10.014-9.821-7.68a5.903 5.903 0 0 0-2.632-1.096l-12.121-1.801s8.615 10.479 8.921 10.706z" fill="#3D8BD8"/>
        <path d="m267.435 96.139-2.356 3.182c-3.327.31-5.59 1.504-7.521 3.515l12.4-.022 2.618-6.941-5.141.266z" fill="#FFBC96"/>
        <path d="M296.129 57.727c-3.292 1.702-6.338 2.857-9.48 4.727-1.009.601-2.042 1.508-3.057 2.696a19.631 19.631 0 0 0-2.875 4.591l-4.674 10.31-10.472 18.655 7.366.177 9.672-15.828 13.52-25.328z" fill="#3D8BD8"/>
        <path d="M289.585 65.094c-7.203 4.714-1.02 14.99-2.368 28.33-.164 1.621 1.297 2.95 2.892 2.585 6.251-1.428 14.173-1.977 20.507-1.499a2.398 2.398 0 0 0 1.883-.713 2.387 2.387 0 0 0 .666-1.894c-2.051-7.682-2.976-16.25-2.52-25.902l-10.54-8.429-7.499 2.134-3.021 5.388z" fill="#3D8BD8"/>
        <path d="M294.233 48.963v10.343c0 2.358 2.19 2.998 3.785 2.916 1.357-.07 3.428-.838 3.403-2.916V48.963h-7.188z" fill="#FFBC96"/>
        <path d="M294.233 53.796v4.852c1.947-.442 4.493-2.158 5.358-4.536l-5.358-.316z" fill="#D28572"/>
        <path d="m303.561 43.964-1.936 6.261c-.372 1.763-.564 2.992-1.994 4.094-2.149 1.656-4.712 2.076-5.617 1.477-1.444-.961-1.992-1.705-2.179-2.944-.124-.79-.1-1.783-.074-3.16.032-1.662.074-3.89-.124-7-.026-.428 5.533-2.595 5.533-2.595l6.391 3.867z" fill="#FFBC96"/>
        <path d="M301.921 49.099c-.432-1.593-1.576-1.703-2.33-4.571-3.927 2.188-6.123-1.854-9.501 4.111l.149-4.907 2.134-2.923 4.227-.961 6.956 2.751 1.131 3.25-2.766 3.25z" fill="#1B1B43"/>
        <path d="M303.333 50.082a2.006 2.006 0 0 0-1.295-2.53 2.017 2.017 0 0 0-2.523 1.322 2.006 2.006 0 0 0 1.295 2.529 2.017 2.017 0 0 0 2.523-1.321z" fill="#FFBC96"/>
        <path d="M286.715 80.466a.134.134 0 0 1-.132-.114l-1.33-9.285a.113.113 0 0 1 .003-.051.118.118 0 0 1 .022-.047.126.126 0 0 1 .038-.034.136.136 0 0 1 .148.007.14.14 0 0 1 .052.087l1.332 9.285a.138.138 0 0 1-.026.098.134.134 0 0 1-.087.052l-.02.002zM313.539 73.834a.124.124 0 0 1-.077-.025l-5.99-4.31a.133.133 0 0 1 .007-.221.132.132 0 0 1 .148.005l5.99 4.31a.15.15 0 0 1 .036.039.13.13 0 0 1-.006.147.135.135 0 0 1-.047.04.135.135 0 0 1-.061.014zM297.421 63.71c-1.381 0-2.666-.536-3.664-1.287a.136.136 0 0 1-.058-.089.14.14 0 0 1 .002-.054.129.129 0 0 1 .064-.084.138.138 0 0 1 .106-.012.138.138 0 0 1 .047.027c1.873 1.41 4.804 2.025 7.416-.476a.134.134 0 0 1 .185.191c-1.342 1.284-2.765 1.783-4.098 1.783zM301.692 90.81a.134.134 0 0 1-.135-.11.132.132 0 0 1 .018-.09.135.135 0 0 1 .073-.058c2.875-.98 4.85-3.748 6.038-8.46a.136.136 0 0 1 .061-.082.131.131 0 0 1 .1-.015.13.13 0 0 1 .082.06.13.13 0 0 1 .015.1c-1.211 4.807-3.243 7.636-6.209 8.65a.136.136 0 0 1-.043.005zM278.528 81.593a.124.124 0 0 1-.047-.01l-2.308-.884a.141.141 0 0 1-.044-.027.14.14 0 0 1-.041-.093.13.13 0 0 1 .037-.095.13.13 0 0 1 .093-.04c.017-.001.034.002.051.008l2.307.885a.13.13 0 0 1 .069.059c.015.027.02.058.015.089a.133.133 0 0 1-.132.108zM319.352 69.833a.136.136 0 0 1-.124-.085.139.139 0 0 1-.005-.078.13.13 0 0 1 .039-.068l1.663-1.53a.13.13 0 0 1 .187.007c.024.027.037.061.036.096a.136.136 0 0 1-.042.093l-1.663 1.528a.137.137 0 0 1-.091.037zM292.869 48.627c.025.305.233.539.466.52.234-.018.403-.28.372-.587-.031-.306-.231-.538-.465-.52-.233.019-.396.28-.373.587z" fill="#1B1B43"/>
        <path d="M294.763 51.418h-.034l-.026-.008c-.258-.065-.61-.157-.787-.41-.221-.318.054-.69.158-.83.234-.314.496-.742.478-1.218a.13.13 0 0 1 .039-.09.132.132 0 0 1 .088-.039.136.136 0 0 1 .093.031.134.134 0 0 1 .046.085c.025.566-.27 1.04-.529 1.389-.182.247-.231.41-.155.52.124.173.407.247.635.305l.027.008a.13.13 0 0 1 .078.053.13.13 0 0 1-.022.175.134.134 0 0 1-.089.032v-.003z" fill="#D28572"/>
        <path d="m296.197 51.664-2.292.596s1.32 1.816 2.292-.596z" fill="#fff"/>
        <path d="M297.316 47.212a3.564 3.564 0 0 0-.525-.207 2.09 2.09 0 0 0-.522-.086c-.352-.016-.698.1-.971.324l-.124-.092a.98.98 0 0 1 .452-.484c.202-.107.43-.157.659-.145.222.01.439.068.636.168.194.095.364.233.496.403l-.101.119zM292.397 47.64a1.072 1.072 0 0 1 .831-.696c.191-.036.388-.021.571.042a.96.96 0 0 1 .454.314l-.092.123a2.444 2.444 0 0 0-.445-.1 1.36 1.36 0 0 0-.813.142 2.075 2.075 0 0 0-.372.257l-.134-.081z" fill="#1B1B43"/>
        <path opacity=".5" d="M293.13 51.008a1.523 1.523 0 0 1-1.295 1.623c-.124-.753-.101-1.702-.074-3.018a1.535 1.535 0 0 1 1.369 1.395zM298.628 51.617c.792-.287 1.2-1.159.912-1.947a1.527 1.527 0 0 0-1.955-.909 1.518 1.518 0 0 0-.912 1.948 1.527 1.527 0 0 0 1.955.908z" fill="#FF9289"/>
        <path d="M295.92 48.262c.023.305.232.538.465.52.233-.019.403-.28.379-.586-.023-.305-.232-.54-.465-.521-.233.018-.403.28-.379.587z" fill="#1B1B43"/>
        <path d="M301.248 50.203a.133.133 0 0 1-.133-.124c-.067-1.02.357-1.632 1.26-1.819a.134.134 0 0 1 .157.104.137.137 0 0 1-.019.1.132.132 0 0 1-.085.056c-.772.16-1.106.65-1.047 1.542a.128.128 0 0 1-.007.051.148.148 0 0 1-.026.045.136.136 0 0 1-.091.045h-.009z" fill="#D28572"/>
        <path d="M274.504 102.852h-22.675v11.97h22.675v-11.97z" fill="#fff"/>
        <path d="M274.701 115.015h-23.064V102.66h23.064v12.355zm-22.673-.394h22.278v-11.577h-22.278v11.577z" fill="#1B1B43"/>
        <path opacity=".6" d="m274.502 106.66-22.498 3.416v-5.106l22.498 1.69z" fill="#3D8BD8"/>
        <path d="M276.4 102.852h-26.468v3.846H276.4v-3.846z" fill="#fff"/>
        <path d="M276.6 106.896h-26.868v-4.244H276.6v4.244zm-26.467-.398h26.068v-3.448h-26.068v3.448z" fill="#1B1B43"/>
        <path d="M238.928 54.763a9.235 9.235 0 0 0-1.401-4.898 9.279 9.279 0 0 0-3.791-3.418 9.319 9.319 0 0 0-9.78.982 9.252 9.252 0 0 0-3.028 4.104 9.218 9.218 0 0 0-.392 5.078 9.244 9.244 0 0 0 2.365 4.516 9.295 9.295 0 0 0 4.404 2.586l-.992 3.537 3.331-3.232a9.307 9.307 0 0 0 6.565-2.712 9.238 9.238 0 0 0 2.719-6.543z" fill="#3D8BD8"/>
        <path d="M226.04 55.53c.533 0 .965-.43.965-.961a.963.963 0 0 0-.965-.962.963.963 0 0 0-.965.962c0 .53.432.96.965.96zM229.634 55.53c.533 0 .965-.43.965-.961a.963.963 0 0 0-.965-.962.963.963 0 0 0-.965.962c0 .53.432.96.965.96zM233.229 55.53c.532 0 .964-.43.964-.961a.963.963 0 0 0-.964-.962.963.963 0 0 0-.965.962c0 .53.432.96.965.96z" fill="#fff"/>
        <path d="m275.783 59.541-2.827-1.656c.818-2.201.762-4.63-.157-6.792a9.223 9.223 0 0 0-4.786-4.837 9.275 9.275 0 0 0-6.813-.252 9.232 9.232 0 0 0-5.134 4.47 9.176 9.176 0 0 0-.662 6.76 9.213 9.213 0 0 0 4.17 5.375 9.274 9.274 0 0 0 6.734 1.064 9.242 9.242 0 0 0 5.634-3.825l3.841-.307z" fill="#3D8BD8"/>
        <path d="M260.756 55.332c.533 0 .965-.43.965-.962a.963.963 0 0 0-.965-.96.963.963 0 0 0-.965.96c0 .531.432.962.965.962zM264.351 55.332c.533 0 .965-.43.965-.962a.963.963 0 0 0-.965-.96.963.963 0 0 0-.965.96c0 .531.432.962.965.962zM267.944 55.332c.533 0 .965-.43.965-.962a.963.963 0 0 0-.965-.96.963.963 0 0 0-.964.96c0 .531.432.962.964.962z" fill="#fff"/>
        <path d="M211.301 174.679H1.041a.198.198 0 1 1 0-.398h210.26c.053 0 .104.021.141.059a.197.197 0 0 1 0 .281.2.2 0 0 1-.141.058zM341.245 174.746H220.218a.267.267 0 0 1-.266-.266.267.267 0 0 1 .266-.265h121.027a.267.267 0 0 1 .267.265.265.265 0 0 1-.267.266z" fill="#1B1B43"/>
    </g>
    <defs>
        <clipPath id="mu4b0bc2aa">
            <path fill="#fff" transform="translate(.842 .929)" d="M0 0h342v179H0z"/>
        </clipPath>
    </defs>
</svg>
