<svg width="276" height="189" viewBox="0 0 276 189" fill="none" xmlns="http://www.w3.org/2000/svg">
    <path d="M191.813 183.581H87.329V33.378h115.739V174.01c0 5.247-5.002 9.57-11.255 9.57z" fill="#FAFAFA" stroke="#BBB4B4" stroke-width=".5"/>
    <path d="M87.044 40.122h116.053v-6.994H87.044v6.994z" fill="#C4C4C4"/>
    <path d="M174.006 116.006c1.566 0 1.566-1.767 0-1.767h-58.25c-1.565 0-1.565 1.767 0 1.767h58.25z" fill="#D1E7F5"/>
    <path d="M142.546 44.976c-9.336 0-17.687 4.138-23.354 10.662l23.354 20.237 23.346-20.237c-5.66-6.524-14.018-10.662-23.346-10.662z" fill="#DFECFF"/>
    <path d="m175.344 71.35-30.579 4.392v30.899c17.083 0 30.9-13.817 30.9-30.9 0-1.49-.112-2.96-.321-4.391z" fill="#0143A8"/>
    <path d="M119.231 55.743c-11.013 13.056-9.35 32.533 3.706 43.538a30.983 30.983 0 0 0 3.565 2.595l16.352-26.217-23.623-19.916z" fill="#A0C4DB" fill-opacity=".65"/>
    <path d="M142.805 106.596a30.746 30.746 0 0 1-16.703-4.906l16.71-25.986-.007 30.892z" fill="#0064FE"/>
    <path d="M176.917 69.643a30.673 30.673 0 0 0-7.233-15.83l-23.346 20.229 30.579-4.4z" fill="#B3CCF2"/>
    <path d="M100.747 177.061h11.348v-27.343h-11.348v27.343z" fill="#0064FE"/>
    <path d="M100.747 151.977h11.348V139.13h-11.348v12.847z" fill="#B3CCF2"/>
    <path d="M175.465 178.291h11.349v-27.336h-11.349v27.336z" fill="#0064FE"/>
    <path d="M175.465 153.215h11.424v-25.337h-11.424v25.337z" fill="#B3CCF2"/>
    <path d="M150.562 177.672h11.348v-28.879h-11.348v28.879z" fill="#0064FE"/>
    <path d="M150.562 165.391h11.348v-19.163h-11.348v19.163z" fill="#B3CCF2"/>
    <path d="M125.65 177.523h11.349v-38.789H125.65v38.789z" fill="#0064FE"/>
    <path d="M125.65 154.735h11.349v-31.019H125.65v31.019z" fill="#B3CCF2"/>
    <path d="M91.484 35.872a1.241 1.241 0 1 0 0 2.483 1.241 1.241 0 1 0 0-2.483zm0 2.736a1.492 1.492 0 0 1-1.492-1.498 1.49 1.49 0 1 1 2.983 0c0 .827-.671 1.498-1.491 1.498zM96.085 35.872a1.241 1.241 0 1 0 0 2.483 1.241 1.241 0 1 0 0-2.483zm0 2.736a1.496 1.496 0 0 1 0-2.99 1.496 1.496 0 0 1 0 2.99zM100.688 35.872a1.241 1.241 0 1 0 0 2.483 1.24 1.24 0 1 0 0-2.483zm0 2.736a1.496 1.496 0 0 1 0-2.99c.827 0 1.491.671 1.491 1.491 0 .828-.664 1.5-1.491 1.5z" fill="#fff"/>
    <path d="M90.208 188.215H16.106V73.78h15.24a113.523 113.523 0 0 0-.738 12.907c0 41.608 22.743 77.898 56.468 97.129v.014h.03a109.546 109.546 0 0 0 6.562 3.453 6.83 6.83 0 0 1-3.46.932z" fill="#F0F2F4"/>
    <path d="M93.67 187.283a109.546 109.546 0 0 1-6.562-3.453h9.515a6.938 6.938 0 0 1-2.953 3.453zm-6.592-3.467C53.353 164.585 30.61 128.295 30.61 86.687c0-4.362.254-8.671.739-12.907h55.73v110.036z" fill="#F0F2F4"/>
    <path d="M96.623 183.83H87.08V73.78h10.007v107.56c0 .872-.164 1.715-.463 2.49z" fill="#F0F2F4"/>
    <path d="M84.142 185.017H6.915V65.124h87.248v109.871c0 5.533-4.489 10.022-10.021 10.022z" fill="#E5E6E5"/>
    <path d="M16.17 119.362h70.628V74.697H16.17v44.665z" fill="#fff"/>
    <path d="M60.912 90.192c.298.59.806 1.096 1.76 1.454 1.79.664 4.198.186 5.227-1.312 1.722-2.506 1.238-6.085 3.094-8.687a6.045 6.045 0 0 1 3.251-2.297c1.357-.387 2.908-.276 4.109.388 1.96 1.081 2.64 3.31 2.662 5.339.037 3.892-.507 7.911-1.208 11.751-.343 1.857-.865 3.766-2.207 5.235-1.827 1.991-4.832 2.818-7.71 3.266-7.278 1.118-14.742.432-22.086-.254-5.913-.559-11.819-1.111-17.732-1.663-1.663-.156-6.569.097-7.568-1.058-.97-1.126-.209-4.944.365-6.122 1.268-2.632 4.735-4.109 7.994-3.945 7.344.38 4.436-7.292 6.792-10.93 1.246-1.94 3.997-3.326 6.368-2.521 2.26.768 3.2 3.035 4.31 4.914.582.976 1.402 1.99 2.64 2.207 2.095.358 3.847-1.782 5.987-1.7 1.268.052 2.342.902 2.893 1.901.739 1.365.485 2.863 1.06 4.034z" fill="#B3CCF2"/>
    <path d="m82.184 116.939.015-3.393c.015-4.794.015-9.589.023-14.39.007-4.587.38-9.165.305-13.736-.03-2.117-.947-3.221-3.169-2.654-2.2.559-4.205 1.856-5.585 3.653-.932 1.216-1.707 2.744-3.161 3.23-2.603.879-4.728-2.052-7.062-3.49-2.512-1.552-6.01-1.29-8.269.618-2.721 2.304-3.348 6.286-5.652 9.008-2.535 2.997-7.15 4.011-10.707 2.364-1.47-.686-2.722-1.745-4.168-2.469-5.72-2.863-13.668 1.26-14.623 7.591v13.094s62.172.693 62.053.574z" fill="#0064FE"/>
    <path d="M17.32 131.479h5.31v-5.309h-5.31v5.309z" fill="#B3CCF2"/>
    <path d="M17.32 139.331h5.31v-5.31h-5.31v5.31z" fill="#0064FE"/>
    <path d="M27.02 129.406h15.465v-1.618H27.02v1.618zM26.794 137.945h15.464v-1.611H26.793v1.611zM18.013 150.128h67.406v-1.745H18.013v1.745zM18.013 177.374h30.012v-23.921H18.013v23.921zM52.645 164.1h32.778v-10.416H52.644V164.1zM52.294 177.26h32.78v-10.416h-32.78v10.416z" fill="#fff"/>
    <path d="M56.378 15.583H1.23c-.209 0-.388.186-.388.418v29.214c0 7.203 5.361 13.041 11.975 13.041H35.68l9.35 13.116c.246.35.798.18.806-.253l.194-12.863h10.35c.208 0 .38-.193.38-.425v-41.83c0-.232-.172-.418-.38-.418z" fill="#E1E1E1"/>
    <path d="M8.066 23.994h34.352v-1.431H8.066v1.431zM8.066 34.902h40.966v-1.431H8.066v1.431zM8.066 45.82h40.966v-1.432H8.066v1.431z" fill="#9EA6AD"/>
    <path d="M92.253 29.273H51.355V.283h38.303l8.203 8.664v14.346c0 3.303-2.513 5.98-5.608 5.98z" fill="#0064FE"/>
    <path d="m97.824 9.014-8.232.209V.283l8.232 8.73z" fill="#0064FE"/>
    <path d="M62.57 9.05h26.097V7.807H62.569V9.05zM58.434 15.053h30.228v-1.238H58.434v1.238zM58.434 21.063h30.228v-1.246H58.434v1.246z" fill="#fff"/>
    <path d="M174.638 87.307a.313.313 0 0 1-.306-.268 15.433 15.433 0 0 1-.119-1.283.322.322 0 0 1 .306-.328.315.315 0 0 1 .328.298c.015.41.052.82.104 1.23a.311.311 0 0 1-.268.351h-.045zM252.879 54.85a.256.256 0 0 1-.164-.053.309.309 0 0 1-.097-.432c.433-.679.85-1.402 1.245-2.148a.318.318 0 0 1 .425-.126.312.312 0 0 1 .135.425c-.403.76-.835 1.498-1.275 2.184a.325.325 0 0 1-.269.15zm-3.117 3.914a.292.292 0 0 1-.223-.097.302.302 0 0 1 0-.44 23.487 23.487 0 0 0 1.64-1.849.317.317 0 0 1 .44-.052.318.318 0 0 1 .052.44 20.148 20.148 0 0 1-1.692 1.901.292.292 0 0 1-.217.097zm-3.996 3.005a.308.308 0 0 1-.276-.164.32.32 0 0 1 .127-.432c.708-.38 1.401-.828 2.065-1.328a.318.318 0 0 1 .44.06.317.317 0 0 1-.06.44c-.686.522-1.416.992-2.147 1.387a.34.34 0 0 1-.149.037zm-34.733.701a.32.32 0 0 1-.32-.306.321.321 0 0 1 .306-.328c.82-.03 1.67-.052 2.512-.067.172.008.321.142.321.313a.321.321 0 0 1-.313.321c-.835.008-1.678.03-2.498.06l-.008.007zm7.524 0h-.015c-.85-.03-1.685-.052-2.498-.067a.31.31 0 0 1-.313-.313c0-.18.142-.32.321-.313.82.015 1.662.037 2.512.067a.31.31 0 0 1 .299.328.3.3 0 0 1-.306.298zm5.003.306h-.022c-.843-.067-1.685-.127-2.498-.18a.317.317 0 0 1-.298-.335.32.32 0 0 1 .335-.29c.821.044 1.663.104 2.506.179a.31.31 0 0 1 .29.335.315.315 0 0 1-.313.29zm-17.53.06a.31.31 0 0 1-.313-.284.306.306 0 0 1 .276-.343c.82-.09 1.663-.164 2.513-.231a.32.32 0 0 1 .335.29c.008.172-.119.329-.291.336-.842.067-1.677.142-2.49.224l-.03.008zm22.526.425-.037-.008-.746-.082-1.745-.179a.317.317 0 0 1-.283-.343.321.321 0 0 1 .343-.283l1.752.179.746.082a.322.322 0 0 1 .283.35.32.32 0 0 1-.313.284zm12.49.156a.312.312 0 0 1-.306-.253.32.32 0 0 1 .246-.373 16.594 16.594 0 0 0 2.379-.634.322.322 0 0 1 .402.201.304.304 0 0 1-.193.396c-.783.268-1.611.492-2.469.656-.022.007-.037.007-.059.007zm-39.982.15a.311.311 0 0 1-.306-.262.318.318 0 0 1 .254-.365c.805-.15 1.64-.29 2.483-.418a.323.323 0 0 1 .358.269.323.323 0 0 1-.269.358c-.827.119-1.655.26-2.46.41-.023.007-.037.007-.06.007zm32.488.163h-.022a72.5 72.5 0 0 1-2.513-.208.317.317 0 0 1-.284-.343c.023-.172.172-.306.343-.284.94.09 1.753.157 2.498.209.172.007.299.157.291.336a.316.316 0 0 1-.313.29zm2.751.097h-.246a.306.306 0 0 1-.313-.313c0-.179.134-.32.313-.313h.246c.783 0 1.536-.03 2.237-.082a.31.31 0 0 1 .336.29.31.31 0 0 1-.291.336c-.716.052-1.484.082-2.282.082zm-40.115.895a.31.31 0 0 1-.299-.231.308.308 0 0 1 .209-.388c.798-.231 1.618-.44 2.446-.641a.325.325 0 0 1 .38.238.325.325 0 0 1-.238.38 47.32 47.32 0 0 0-2.409.627c-.03.008-.06.015-.089.015zm-4.743 1.633a.319.319 0 0 1-.119-.611 52.124 52.124 0 0 1 2.371-.88c.157-.06.343.03.395.194a.316.316 0 0 1-.194.402c-.79.269-1.573.56-2.333.873a.315.315 0 0 1-.12.022zm-4.526 2.147a.317.317 0 0 1-.276-.164.305.305 0 0 1 .127-.425c.723-.402 1.484-.79 2.244-1.148a.311.311 0 0 1 .418.15.301.301 0 0 1-.149.417c-.746.358-1.491.738-2.215 1.133a.337.337 0 0 1-.149.037zm-4.19 2.752a.318.318 0 0 1-.254-.12.312.312 0 0 1 .06-.44 29.27 29.27 0 0 1 2.058-1.483.315.315 0 0 1 .432.097.307.307 0 0 1-.089.432c-.694.455-1.372.94-2.013 1.447a.324.324 0 0 1-.194.067zm-3.647 3.437a.31.31 0 0 1-.208-.074.316.316 0 0 1-.03-.44 25.494 25.494 0 0 1 1.767-1.835.309.309 0 0 1 .44.015.318.318 0 0 1-.015.448 25.554 25.554 0 0 0-1.715 1.782.297.297 0 0 1-.239.104zm-2.833 4.124a.334.334 0 0 1-.149-.03.325.325 0 0 1-.134-.425c.38-.73.82-1.469 1.319-2.185a.304.304 0 0 1 .433-.074c.142.097.179.29.082.432-.477.694-.91 1.402-1.275 2.118a.308.308 0 0 1-.276.164zm-1.573 4.742-.053-.007a.309.309 0 0 1-.261-.358c.127-.82.329-1.663.604-2.483a.322.322 0 0 1 .396-.202.32.32 0 0 1 .201.403 13.93 13.93 0 0 0-.582 2.379.31.31 0 0 1-.305.268zM255.243 50.413a.286.286 0 0 1-.127-.03.305.305 0 0 1-.156-.41c.164-.38.32-.768.484-1.156a.314.314 0 1 1 .582.239c-.157.395-.328.79-.492 1.17a.32.32 0 0 1-.291.187z" fill="#145566"/>
    <path d="m270.798 25.328-1.312 29.841-9.858-10.342s11.215-20.334 11.289-19.998l-.432-.366c.335-.09-11.99 19.588-11.99 19.588l-13.832-3.579 25.442-15.658.693.514z" fill="#FE5B52"/>
    <path d="M253.372 164.018h-30.415c.73-.76 1.454-1.536 2.162-2.319h5.697v.149h.126v-.149h8.62v.149h.127v-.149h8.62v.149h.134v-.149h4.929v2.319z" fill="#F0F2F4"/>
    <path d="M222.958 164.018h-19.641v-2.319h1.261v.149h.134v-.149h8.612v.149h.134v-.149h8.612v.149h.135v-.149h2.915c-.708.783-1.432 1.559-2.162 2.319z" fill="#F0F2F4"/>
    <path d="M203.318 164.019h-8.106v-42.047h1.991V161.7h6.115v2.319z" fill="#F0F2F4"/>
    <path d="M197.201 161.7h58.548v-42.167h-58.548V161.7z" fill="#F3F3F3"/>
    <path d="M197.201 122.889h58.466v-3.356h-58.466v3.356z" fill="#B3CCF2"/>
    <path d="M248.441 161.848h-.134v-.149h.134v.149zm-8.754 0h-.127v-.149h.127v.149zm-8.746 0h-.127v-.149h.127v.149z" fill="#A7C7BE"/>
    <path d="M222.203 161.848h-.134v-.149h.134v.149zm-8.746 0h-.134v-.149h.134v.149zm-8.747 0h-.134v-.149h.134v.149z" fill="#C0D6E5"/>
    <path d="M248.444 161.699h-.134v-7.263h-8.62v7.263h-.126v-7.263h-8.62v7.263h-.127v-7.263h-8.612v7.263h-.134v-7.263h-8.612v7.263h-.135v-7.263h-8.612v7.263h-.134v-7.263h-7.173v-.134h7.173v-7.963h-7.173v-.135h7.173v-7.963h-7.173v-.134h7.173v-7.971h-7.173v-.127h7.173v-7.054h.134v7.054h8.612v-7.054h.135v7.054h8.612v-7.054h.134v7.054h8.612v-7.054h.127v7.054h8.62v-7.054h.126v7.054h8.62v-7.054h.134v7.054h7.181v.127h-7.181v7.971h7.181v.134h-7.181v7.963h7.181v.135h-7.181v7.963h7.181v.134h-7.181v7.263zm-8.754-15.36v7.963h8.62v-7.963h-8.62zm-8.746 0v7.963h8.62v-7.963h-8.62zm-8.739 0v7.963h8.612v-7.963h-8.612zm-8.746 0v7.963h8.612v-7.963h-8.612zm-8.747 0v7.963h8.612v-7.963h-8.612zm34.978-8.098v7.963h8.62v-7.963h-8.62zm-8.746 0v7.963h8.62v-7.963h-8.62zm-8.739 0v7.963h8.612v-7.963h-8.612zm-8.746 0v7.963h8.612v-7.963h-8.612zm-8.747 0v7.963h8.612v-7.963h-8.612zm34.978-8.105v7.971h8.62v-7.971h-8.62zm-8.746 0v7.971h8.62v-7.971h-8.62zm-8.739 0v7.971h8.612v-7.971h-8.612zm-8.746 0v7.971h8.612v-7.971h-8.612zm-8.747 0v7.971h8.612v-7.971h-8.612z" fill="#9E9E9E"/>
    <path d="M249.451 128.295c-.984 0-1.79.805-1.79 1.789 0 .5.209.947.537 1.276l-6.219 5.346c-.156.142-.313.276-.469.41a1.79 1.79 0 0 0-2.908 1.394c0 .627.328 1.178.82 1.492-.455 1.096-.91 2.184-1.365 3.28-.193.463-.387.933-.581 1.395a1.776 1.776 0 0 0-1.946.842c-1.999-1.26-4.004-2.527-6.003-3.795-1.484-.932-2.968-1.872-4.451-2.811.082-.201.126-.425.126-.664 0-.984-.797-1.782-1.782-1.782a1.784 1.784 0 0 0-1.752 2.148c-2.804 1.148-5.615 2.289-8.418 3.437l-.828.336a1.785 1.785 0 1 0-2.863 2.013c-.41.47-.828.947-1.246 1.417l-5.972 6.778a1.782 1.782 0 0 0-2.781 1.476c0 .992.797 1.79 1.782 1.79a1.79 1.79 0 0 0 1.789-1.79c0-.38-.119-.731-.328-1.022 1.7-1.931 3.4-3.855 5.1-5.786.739-.835 1.469-1.67 2.207-2.513a1.782 1.782 0 0 0 2.461-1.648v-.074c.037-.015.075-.03.119-.052 3.08-1.253 6.145-2.506 9.224-3.766.321.5.873.828 1.506.828.515 0 .985-.224 1.305-.574 1.35.85 2.692 1.7 4.034 2.55 2.185 1.379 4.362 2.759 6.547 4.138a1.502 1.502 0 0 0-.022.269c0 .984.805 1.782 1.789 1.782.984 0 1.782-.798 1.782-1.782 0-.619-.313-1.164-.783-1.484.649-1.566 1.29-3.124 1.946-4.683.12.022.247.037.373.037.985 0 1.79-.797 1.79-1.782 0-.335-.097-.641-.246-.902.365-.313.73-.634 1.096-.947 1.566-1.35 3.139-2.707 4.712-4.056.336-.291.671-.582 1.014-.873.217.09.448.142.694.142.984 0 1.782-.805 1.782-1.79 0-.984-.798-1.789-1.782-1.789z" fill="#0064FE"/>
    <path d="m260.694 100.937-7.002 11.222-39.758-25.046 7.002-11.222 39.758 25.046z" fill="#9D9D9D"/>
    <path d="m274.392 117.192-.082.134c-2.207 3.535-6.151 5.063-8.806 3.408l-30.519-18.731 8.023-13.488 30.579 19.267c2.655 1.656 3.02 5.876.805 9.41z" fill="#D1E7F5"/>
    <path d="m218.635 90.185-1.118-.813 1.245.783-.127.03z" fill="#C6DBE9"/>
    <path d="m218.766 90.155-1.245-.783-.515-.373a41.09 41.09 0 0 0 4.31-5.704 40.122 40.122 0 0 0 2.767-5.272l11.975 7.643-17.292 4.49z" fill="#F1F2F2"/>
    <path d="M216.598 80.35c-10.021 16.046-31.161 20.938-47.207 10.916-16.046-10.021-20.938-31.153-10.916-47.207 10.021-16.046 31.153-20.938 47.199-10.916 16.054 10.021 20.938 31.153 10.924 47.207zm-7.971-51.927c-18.663-11.647-43.225-5.965-54.872 12.69-11.647 18.657-5.965 43.226 12.691 54.873 18.656 11.647 43.225 5.965 54.872-12.69 11.647-18.657 5.965-43.226-12.691-54.873z" fill="#0064FE"/>
    <path d="M203.318 92.616v-29.43c.09-.016.179-.023.269-.038a.322.322 0 0 0 .268-.358.313.313 0 0 0-.313-.268h-.045c-.059.007-.119.022-.179.03V42.486a23.79 23.79 0 0 1 4.497 5.548c.492.85 1.267 1.2 2.028 1.2 1.64 0 3.273-1.61 2.207-3.43a29.302 29.302 0 0 0-8.732-9.365v-3.31h-6.39a29.083 29.083 0 0 0-10.133-1.82c-1.998 0-4.027.201-6.04.634a27.963 27.963 0 0 0-4.034 1.185h-7.322a34.47 34.47 0 0 1 18.164-5.19h.007a34.133 34.133 0 0 1 17.866 5.056c.03.022.06.037.09.06.007 0 .014.007.029.014.023.015.045.03.075.045.015.015.03.023.045.03 10.342 6.457 16.046 17.523 16.121 28.872l-.716-.045h-.015a.318.318 0 0 0-.321.29.318.318 0 0 0 .298.336c.247.015.5.03.754.052-.075 6.062-1.76 12.177-5.198 17.702a.124.124 0 0 0-.022.03c-.015.015-.022.037-.037.06-.008.014-.023.03-.03.044-.007.008-.007.015-.007.015a34.215 34.215 0 0 1-13.184 12.117zm5.213-30.639h-.023c-.85.067-1.692.142-2.513.232a.307.307 0 0 0-.276.342.31.31 0 0 0 .314.284l.029-.008c.813-.082 1.648-.156 2.491-.223.171-.008.298-.164.291-.336a.316.316 0 0 0-.313-.29zm7.508-.201a.31.31 0 0 0-.306.313.31.31 0 0 0 .314.313c.812.015 1.648.038 2.498.067h.014a.3.3 0 0 0 .306-.298.31.31 0 0 0-.298-.328c-.85-.03-1.693-.052-2.513-.067h-.015zm-2.505-.008c-.843.015-1.693.038-2.513.068a.322.322 0 0 0-.306.328.32.32 0 0 0 .321.305l.007-.007c.821-.03 1.663-.052 2.498-.06a.321.321 0 0 0 .313-.32c0-.172-.149-.306-.32-.313zm-.239-9.529a3.14 3.14 0 0 0-2.677 1.484 3.154 3.154 0 0 0 5.354 3.333 3.152 3.152 0 0 0-2.677-4.817z" fill="#D1E7F5"/>
    <path d="M187.498 96.47h-.008a34.1 34.1 0 0 1-16.546-4.287 30.829 30.829 0 0 0 3.729-8.627.31.31 0 0 0 .305-.268c.12-.79.313-1.588.582-2.379a.32.32 0 0 0-.201-.403c-.015-.007-.038-.007-.06-.014.239-1.544.365-3.132.365-4.75 0-1.492-.112-2.96-.32-4.392l-19.902 2.863c-.179-.47-.335-.94-.492-1.41l21.967-3.16a30.665 30.665 0 0 0-7.233-15.83l-6.837 5.927c.015-.514.044-1.029.089-1.543l2.953-2.558a32.816 32.816 0 0 0-2.051-2.147c1.603-5.444 5.048-10.2 9.746-13.37h26.709a24.775 24.775 0 0 1 3.02 2.364V62.55c-.776.112-1.551.246-2.304.388a.319.319 0 0 0-.254.365c.03.157.157.261.306.261.022 0 .037 0 .06-.007.716-.134 1.454-.261 2.192-.373v29.43a34.451 34.451 0 0 1-15.815 3.856zm-12.967-11.042h-.015a.323.323 0 0 0-.306.328c.023.425.06.857.12 1.282a.31.31 0 0 0 .305.269h.045a.31.31 0 0 0 .268-.35c-.052-.41-.089-.82-.104-1.231a.317.317 0 0 0-.313-.298zm3.005-9.388a.323.323 0 0 0-.254.134 19.829 19.829 0 0 0-1.319 2.185.325.325 0 0 0 .134.425c.045.022.097.03.149.03.112 0 .224-.06.276-.164.365-.716.798-1.424 1.275-2.118a.311.311 0 0 0-.082-.432.304.304 0 0 0-.179-.06zm3.288-3.78a.325.325 0 0 0-.216.082 25.452 25.452 0 0 0-1.767 1.834.316.316 0 0 0 .03.44.31.31 0 0 0 .208.074c.09 0 .179-.03.239-.104a25.51 25.51 0 0 1 1.715-1.782.318.318 0 0 0 .015-.448.296.296 0 0 0-.224-.096zm3.937-3.102a.355.355 0 0 0-.171.052c-.709.47-1.402.962-2.058 1.484a.312.312 0 0 0-.06.44c.067.082.157.119.254.119a.319.319 0 0 0 .193-.067c.642-.507 1.32-.992 2.014-1.447a.307.307 0 0 0 .089-.432.301.301 0 0 0-.261-.15zm4.385-2.424a.295.295 0 0 0-.135.03 37.4 37.4 0 0 0-2.244 1.148.305.305 0 0 0-.127.425.317.317 0 0 0 .425.127 47.747 47.747 0 0 1 2.215-1.133.301.301 0 0 0 .149-.418.311.311 0 0 0-.283-.179zm4.645-1.894a.23.23 0 0 0-.097.023c-.805.276-1.603.574-2.371.88a.319.319 0 0 0 .239.589c.76-.313 1.543-.604 2.333-.873a.316.316 0 0 0 .194-.402.31.31 0 0 0-.298-.217zm4.824-1.387c-.029 0-.052.008-.074.008a58.35 58.35 0 0 0-2.446.641.308.308 0 0 0-.209.388.31.31 0 0 0 .299.231.377.377 0 0 0 .089-.015c.783-.224 1.596-.44 2.408-.626a.325.325 0 0 0 .239-.38.316.316 0 0 0-.306-.247zm-44.91 4.206a72.44 72.44 0 0 1-.186-1.297l4.966-4.303c.223.313.522.552.85.723l-5.63 4.877zm6.166-17.366a31.063 31.063 0 0 0-3.608-2.11 34.219 34.219 0 0 1 2.311-4.288c0-.007.008-.015.015-.022a33.83 33.83 0 0 1 2.736-3.75h4.899a29.854 29.854 0 0 0-6.353 10.17zm43.442-13.854c-.075-.053-.142-.105-.216-.15v-3.161h-6.174 6.39v3.31z" fill="#E8F3FA"/>
    <path d="M200.299 40.122H173.59a23.855 23.855 0 0 1 6.725-3.14 23.66 23.66 0 0 1 6.532-.916c4.787 0 9.477 1.439 13.452 4.056zm-34.069 0h-4.899a34.323 34.323 0 0 1 8.068-6.994h7.322c-4.026 1.529-7.583 3.944-10.491 6.994zm36.872-3.833a29.42 29.42 0 0 0-6.174-3.161h6.174v3.161z" fill="#C4C4C4"/>
    <path d="M153.523 66.362a35.722 35.722 0 0 1-.253-4.191c0-4.72.976-9.485 2.997-13.988a31.008 31.008 0 0 1 3.609 2.11 29.445 29.445 0 0 0-1.655 6.837 25.766 25.766 0 0 0-.157 3.557c.008.552.164 1.007.425 1.372l-4.966 4.303zm9.418-8.165a24.81 24.81 0 0 1 .902-4.705 32.54 32.54 0 0 1 2.05 2.147l-2.952 2.558z" fill="#C7DDFF"/>
    <path d="M170.949 92.183a32.733 32.733 0 0 1-1.558-.917 34.142 34.142 0 0 1-13.944-17.053l19.902-2.863c.208 1.431.32 2.9.32 4.392 0 1.617-.127 3.206-.365 4.75h-.037a.319.319 0 0 0-.299.215 15.06 15.06 0 0 0-.604 2.484.309.309 0 0 0 .261.357l.053.008a30.827 30.827 0 0 1-3.729 8.627z" fill="#255DB3"/>
    <path d="M154.953 72.804a34.592 34.592 0 0 1-1.245-5.145l5.629-4.876c.38.186.813.29 1.238.29 1.163 0 2.289-.738 2.267-2.251-.008-.358 0-.724.007-1.082l6.838-5.928a30.673 30.673 0 0 1 7.233 15.83l-21.967 3.162z" fill="#C7DDFF"/>
    <path d="M174.638 87.307a.313.313 0 0 1-.306-.269 15.433 15.433 0 0 1-.119-1.282.322.322 0 0 1 .306-.328h.015c.164 0 .306.134.313.298.015.41.052.82.104 1.23a.311.311 0 0 1-.268.35h-.045zM174.676 83.556l-.053-.007a.309.309 0 0 1-.261-.358c.127-.82.329-1.663.604-2.483a.319.319 0 0 1 .299-.216h.037c.022.007.045.007.06.015a.32.32 0 0 1 .201.402 13.93 13.93 0 0 0-.582 2.379.31.31 0 0 1-.305.268zm1.573-4.742a.334.334 0 0 1-.149-.03.325.325 0 0 1-.134-.425c.38-.73.82-1.469 1.319-2.184a.323.323 0 0 1 .254-.135c.067 0 .127.023.179.06.142.097.179.29.082.432-.477.694-.91 1.402-1.275 2.118a.308.308 0 0 1-.276.164zm2.833-4.123a.31.31 0 0 1-.208-.075.316.316 0 0 1-.03-.44 25.494 25.494 0 0 1 1.767-1.834.325.325 0 0 1 .216-.082c.082 0 .164.03.224.097a.317.317 0 0 1-.015.447 25.554 25.554 0 0 0-1.715 1.782.297.297 0 0 1-.239.105zm3.647-3.438a.318.318 0 0 1-.254-.12.312.312 0 0 1 .06-.439 29.272 29.272 0 0 1 2.058-1.484.301.301 0 0 1 .432.097.307.307 0 0 1-.089.433 27.95 27.95 0 0 0-2.013 1.446.324.324 0 0 1-.194.067zm4.19-2.751a.317.317 0 0 1-.276-.164.305.305 0 0 1 .127-.425c.723-.403 1.484-.79 2.244-1.149a.295.295 0 0 1 .135-.03c.119 0 .231.068.283.18a.301.301 0 0 1-.149.417c-.746.358-1.491.738-2.215 1.133a.338.338 0 0 1-.149.038zm4.526-2.148a.319.319 0 0 1-.119-.611 52.125 52.125 0 0 1 2.371-.88.23.23 0 0 1 .097-.022.31.31 0 0 1 .298.216.315.315 0 0 1-.194.403c-.79.268-1.573.559-2.333.872a.315.315 0 0 1-.12.022zm4.743-1.633a.31.31 0 0 1-.299-.23.308.308 0 0 1 .209-.389c.798-.23 1.618-.44 2.446-.64.022 0 .045-.008.074-.008.142 0 .269.097.306.246a.325.325 0 0 1-.238.38 47.32 47.32 0 0 0-2.409.626.377.377 0 0 1-.089.015zm4.876-1.155a.311.311 0 0 1-.306-.261.318.318 0 0 1 .254-.366 54.917 54.917 0 0 1 2.304-.388c.06-.007.119-.022.179-.03h.045c.156 0 .29.112.313.27a.323.323 0 0 1-.269.357c-.089.015-.179.022-.268.037-.738.112-1.476.239-2.192.373-.023.008-.037.008-.06.008zm4.966-.731a.31.31 0 0 1-.313-.284.306.306 0 0 1 .276-.343 84.73 84.73 0 0 1 2.513-.23h.022c.164 0 .298.126.313.29.008.172-.119.328-.291.336-.842.067-1.677.141-2.49.223l-.03.008zm15.763-.187c-.253-.022-.507-.037-.753-.052a.317.317 0 0 1-.298-.335.318.318 0 0 1 .32-.291h.015l.716.045v.633zm-3.236-.179h-.015c-.85-.03-1.685-.052-2.498-.067a.31.31 0 0 1-.313-.313c0-.171.134-.313.306-.313h.015c.82.015 1.662.037 2.512.067a.31.31 0 0 1 .299.328.301.301 0 0 1-.306.298zm-7.524 0a.32.32 0 0 1-.32-.305.321.321 0 0 1 .306-.328c.82-.03 1.67-.053 2.512-.067.172.007.321.141.321.313a.321.321 0 0 1-.313.32c-.835.008-1.678.03-2.498.06l-.008.007z" fill="#739EAE"/>
    <path d="M187.502 96.471h-.007.007zm0 0a34.45 34.45 0 0 0 15.815-3.855 34.215 34.215 0 0 0 13.184-12.117c-6.517 10.313-17.628 15.972-28.999 15.972zm-18.112-5.205c-10.409-6.494-16.12-17.672-16.12-29.095 0 1.402.089 2.804.253 4.19.06.433.119.866.186 1.298a34.714 34.714 0 0 0 1.738 6.554 34.145 34.145 0 0 0 13.943 17.053zm47.118-10.782c.007-.015.022-.03.03-.044-.008.014-.023.03-.03.044zm.067-.104a.124.124 0 0 1 .022-.03c3.438-5.525 5.123-11.64 5.198-17.702v-.41a34.127 34.127 0 0 1-5.198 18.112.124.124 0 0 0-.022.03zm-58.101-36.32zm.119-.187c6.51-10.282 17.613-15.927 28.969-15.934a34.47 34.47 0 0 0-18.164 5.19 34.321 34.321 0 0 0-8.068 6.993 33.947 33.947 0 0 0-2.737 3.751zm47.036-10.76c-.03-.015-.052-.03-.075-.044.023.014.045.03.075.044zm-.104-.06c-.03-.022-.06-.037-.09-.059.03.022.06.037.09.06zm-17.956-5.114h-.007.007z" fill="#86D1D8"/>
    <path d="M209.839 49.233c-.76 0-1.536-.35-2.028-1.2a23.76 23.76 0 0 0-4.496-5.548v-6.047a29.303 29.303 0 0 1 8.732 9.365c1.066 1.82-.567 3.43-2.208 3.43zm-12.914-16.106h-20.207a27.926 27.926 0 0 1 4.034-1.186 28.756 28.756 0 0 1 6.039-.633c3.498 0 6.92.626 10.134 1.819z" fill="#DBECF7"/>
    <path d="M159.334 62.782a2.402 2.402 0 0 1-.85-.723l4.451-3.863a27.526 27.526 0 0 0-.089 1.544l-3.512 3.042zm4.504-9.29a30.966 30.966 0 0 0-3.967-3.2 29.84 29.84 0 0 1 6.353-10.17h7.359c-4.697 3.169-8.142 7.926-9.745 13.37zm39.474-11.007a24.775 24.775 0 0 0-3.02-2.363h2.804v-3.833c.075.045.142.097.216.15v6.046z" fill="#EDF6FB"/>
    <path d="M203.097 40.122h-2.803c-3.975-2.617-8.665-4.056-13.452-4.056a23.66 23.66 0 0 0-6.532.917 23.855 23.855 0 0 0-6.725 3.14h-7.36c2.908-3.05 6.465-5.466 10.491-6.995h20.207a29.42 29.42 0 0 1 6.174 3.161v3.833z" fill="#DEDEDE"/>
    <path d="M158.486 62.06c-.261-.366-.418-.82-.425-1.373a25.765 25.765 0 0 1 .156-3.556 29.446 29.446 0 0 1 1.656-6.838 30.878 30.878 0 0 1 3.966 3.199 24.887 24.887 0 0 0-.902 4.705l-4.451 3.862zM160.574 63.072a2.85 2.85 0 0 1-1.238-.29l3.512-3.043c-.007.358-.014.724-.007 1.081.022 1.514-1.104 2.252-2.267 2.252z" fill="#E3EEFF"/>
    <path d="M213.293 58.54a3.153 3.153 0 0 1-2.677-4.817 3.14 3.14 0 0 1 2.677-1.484 3.152 3.152 0 1 1 0 6.3z" fill="#DFEEF8"/>
    <path d="m235.385 101.556 7.636-12.833a.994.994 0 0 0-.269-1.312l-.134-.105a.999.999 0 0 0-1.454.306l-7.516 12.922a.998.998 0 0 0 .38 1.372l.015.007a.99.99 0 0 0 1.342-.357z" fill="#0064FE"/>
    <path d="M220.951 62.447c-.03 8.239-3.02 16.217-8.456 22.406-5.368 6.115-12.84 10.059-20.878 11.2-8.224 1.163-16.702-.917-23.57-5.525-6.688-4.482-11.572-11.401-13.705-19.149-2.222-8.023-1.305-16.784 2.438-24.21 3.602-7.159 9.798-12.915 17.188-16.01 7.71-3.229 16.464-3.422 24.353-.693 7.59 2.624 14.04 8.097 18.081 15.01 3.005 5.137 4.527 11.035 4.549 16.97 0 1.179 1.827 1.179 1.819 0-.029-8.246-2.885-16.188-8.06-22.6-5.063-6.256-12.311-10.633-20.155-12.333-8.15-1.752-16.755-.53-24.137 3.31-7.083 3.699-12.802 9.88-16.039 17.173-3.385 7.62-3.944 16.33-1.662 24.345 2.199 7.748 7.113 14.518 13.623 19.216 6.696 4.824 15.054 7.09 23.264 6.524 8.135-.56 15.882-4.004 21.847-9.544 7.211-6.689 11.282-16.278 11.319-26.09.008-1.171-1.819-1.171-1.819 0z" fill="#fff"/>
</svg>
