<svg width="314" height="205" viewBox="0 0 314 205" fill="none" xmlns="http://www.w3.org/2000/svg">
    <path d="M309.696 137.942s-3.123-1.353-5.344 5.969c-2.255 7.321-2.845 11.45-2.845 11.45s-.66 1.562-1.805.799c-1.11-.729-2.914-3.123-4.476-2.36-1.631.798-1.839 2.811-1.006 5.552.833 2.741 2.394 8.814 2.533 9.334.139.555-.035 1.423-.868 1.041-.867-.382-6.107-4.476-7.876-1.874-1.805 2.603 1.735 9.855 2.116 10.653.382.798.278 1.18-.104 1.457-.347.278-1.978-1.249-3.504-2.359-1.562-1.11-3.54-2.117-4.442-.521-.902 1.597-.243 7.391 6.871 15.719l3.539 3.644 4.997-1.145c10.479-3.193 14.192-7.704 14.296-9.543.069-1.804-2.117-2.047-4.025-1.943-1.874.104-4.095.521-4.234.07-.173-.417-.034-.799.729-1.284.729-.451 7.634-4.65 7.53-7.808-.07-3.157-6.697-2.533-7.634-2.672-.902-.138-.59-.971-.174-1.318.417-.417 5.032-4.65 7.183-6.489 1.492-1.284 2.394-2.533 2.499-3.678v-.521a2.19 2.19 0 0 0-.347-1.006c-.903-1.492-3.679-.486-5.032-.451-1.388 0-1.076-1.666-1.076-1.666s1.701-3.782 3.817-11.138c2.082-7.391-1.388-7.946-1.388-7.946l.07.034z" fill="#E5E6E5"/>
    <path d="M307.653 144.502s0 .069-.035.139c0 .139-.069.277-.104.486-.104.381-.277.971-.485 1.735-.417 1.526-1.041 3.712-1.805 6.419-1.561 5.413-3.782 12.839-6.28 21.063a5311.796 5311.796 0 0 0-6.281 21.097c-.798 2.672-1.423 4.858-1.874 6.385a24.452 24.452 0 0 0-.52 1.735c-.07.208-.104.347-.139.451-.035.104-.035.138-.035.138s0-.034.035-.138c0-.104.069-.278.104-.451.104-.417.278-1.007.486-1.77.416-1.492 1.041-3.678 1.804-6.385 1.562-5.413 3.782-12.873 6.281-21.097a8867.525 8867.525 0 0 0 6.28-21.063c.799-2.706 1.423-4.892 1.874-6.419.243-.729.417-1.319.521-1.735.069-.174.104-.347.138-.451.035-.104.035-.139.035-.139z" fill="#575757"/>
    <path d="M297.551 157.228c.035 0 .104.104.208.312.105.208.278.52.452.902.381.763.867 1.804 1.353 3.019.52 1.145.971 2.221 1.318 3.019.139.347.278.659.382.937.104.208.139.312.139.312 0 .035-.069-.104-.174-.312-.138-.209-.277-.486-.451-.868-.381-.763-.832-1.839-1.353-3.019-.52-1.179-.972-2.22-1.319-3.053-.173-.347-.312-.66-.416-.902-.104-.209-.139-.347-.139-.347zM301.89 165.76c-.035-.07 2.116-1.145 4.788-2.464s4.858-2.325 4.893-2.29c0 .034-2.152 1.145-4.823 2.463-2.672 1.284-4.858 2.325-4.858 2.291zM297.545 178.217c0-.034.139-.069.347-.104.278-.035.625-.104 1.007-.173a63.532 63.532 0 0 0 3.331-.625c1.284-.278 2.429-.59 3.262-.798.381-.104.728-.174 1.006-.243.208-.069.347-.104.347-.104 0 .035-.104.069-.347.139-.208.104-.555.208-.972.312-.832.243-1.978.555-3.261.833-1.284.312-2.464.486-3.332.624-.416.035-.763.105-1.006.105-.243.034-.382.034-.382.034zM291.921 171.357c.035 0 .104.105.278.243.139.174.347.417.625.729.52.59 1.214 1.423 2.012 2.36a74.917 74.917 0 0 1 1.978 2.394c.243.312.451.555.59.763.139.174.208.278.208.278-.034 0-.104-.07-.243-.243-.173-.174-.381-.416-.659-.694-.52-.625-1.214-1.457-2.013-2.394-.763-.937-1.492-1.77-1.978-2.395-.242-.312-.451-.555-.589-.728l-.209-.313zM286.639 181.862l.312.313c.209.242.486.555.799.902.694.763 1.596 1.839 2.637 3.019a269.047 269.047 0 0 1 2.568 3.053c.312.382.555.694.763.937.173.243.278.347.278.347-.035.035-.139-.104-.313-.312-.243-.208-.486-.521-.833-.902-.659-.764-1.596-1.805-2.602-3.019-1.006-1.18-1.943-2.256-2.568-3.054a14.59 14.59 0 0 1-.798-.937c-.173-.208-.243-.347-.243-.347zM293.889 190.197s.174-.034.451-.104c.347-.069.764-.173 1.284-.277 1.076-.243 2.533-.555 4.164-.972a73.223 73.223 0 0 0 4.129-1.076c.521-.138.937-.242 1.249-.347.313-.069.486-.104.486-.104s-.173.07-.451.174c-.277.104-.729.243-1.249.382a48.899 48.899 0 0 1-4.129 1.145 47.498 47.498 0 0 1-4.164.902c-.555.104-.972.173-1.284.243-.312.034-.486.034-.486.034z" fill="#575757"/>
    <path d="M100.667 186.063h62.703v-28.905h-62.703v28.905z" fill="#EFEFEF"/>
    <path d="M102.474 184.327h59.024v-25.261h-59.024v25.261zm59.406.382h-59.788v-26.024h59.788v26.024zM163.36 186.063h15.302v-28.905H163.36v28.905z" fill="#D9DAD9"/>
    <path d="M102.243 166.736h59.371c.104 0 .104-.174 0-.174h-59.371c-.104 0-.104.174 0 .174z" fill="#D9DAD9"/>
    <path d="M132.163 166.637c.174-2.568.174-5.274.035-7.842-.035-.104-.174-.104-.174 0-.138 2.568-.173 5.274.035 7.842 0 .104.104.104.104 0zM148.117 162.718a.845.845 0 0 1-.833.833c-.451 0-.798-.382-.798-.833 0-.451.347-.798.798-.798.451 0 .833.347.833.798zM117.006 162.718a.844.844 0 0 1-.832.833c-.452 0-.799-.382-.799-.833 0-.451.347-.798.799-.798.451 0 .832.347.832.798zM132.798 171.699c0 .451-.381.798-.832.798a.807.807 0 0 1-.799-.798c0-.451.382-.833.799-.833.451 0 .832.382.832.833zM108.103 186.063l-3.228 18.148h1.805l5.968-18.148h-4.545zM158.894 186.063l2.706 18.183h-1.839l-5.413-18.183h4.546zM171.022 186.063l3.053 18.183h-1.804l-5.795-18.183h4.546zM132.697 179.883a.807.807 0 0 1-.798.798.807.807 0 0 1-.798-.798c0-.452.347-.833.798-.833.451 0 .798.381.798.833zM102.243 175.682h59.371c.104 0 .104-.173 0-.173h-59.371c-.104 0-.104.173 0 .173z" fill="#D9DAD9"/>
    <path d="M255.805 69.607h39.627v-53.16h-39.627v53.16z" fill="#E5E6E5"/>
    <path d="M257.835 67.526h35.533V18.53h-35.533v48.996z" fill="#F7F7F6"/>
    <path d="M269.36 50.984h13.567v-15.51H269.36v15.51zM278.169 107.95h34.526V82.203h-34.526v25.747z" fill="#E5E6E5"/>
    <path d="M279.527 106.599h31.819v-23.04h-31.819v23.04z" fill="#F7F7F6"/>
    <path d="M290.568 99.149h10.063v-8.814h-10.063v8.814zM1.793 70.728h25.158V36.965H1.793v33.763z" fill="#E5E6E5"/>
    <path d="M3.146 69.376h22.555V38.32H3.146v31.056z" fill="#F7F7F6"/>
    <path d="M10.464 58.884h8.606v-9.855h-8.606v9.855zM141.816 140.707l-1.7 15.927h21.965l1.804-15.927h-22.069z" fill="#E5E6E5"/>
    <path d="m142.73 141.859-1.666 13.915h19.813l1.631-13.915H142.73z" fill="#F7F7F6"/>
    <path d="m146.066 144.215-1.006 9.23h12.492l.659-9.23h-12.145z" fill="#D9DAD9"/>
    <path d="m163.116 147.584 4.511 9.091-5.552-.035 1.11-9.681-.069.625z" fill="#EFEFEF"/>
    <path d="M304.116 204.145c0 .069-67.907.104-151.637.104-83.764 0-151.637-.035-151.637-.104 0-.07 67.873-.139 151.637-.139 83.73 0 151.637.069 151.637.139z" fill="#2C3C43"/>
    <path d="M40.49 132.238h181.339V12.872H40.489v119.366z" fill="#E5E6E5"/>
    <path d="M221.863 132.242c0-.833-.034-46.567-.104-119.367l.104.104H40.523l.14-.104v119.367l-.14-.139c106.736.069 180.299.139 181.34.139-1.006 0-74.604.034-181.34.104h-.104V12.736h.14c68.427.035 131.51.035 181.304.035h.104v.104c-.069 72.8-.104 118.534-.104 119.367z" fill="#2C3C43"/>
    <path d="M221.829 23.498c0 .07-40.598.139-90.669.139-50.072 0-90.67-.07-90.67-.139 0-.07 40.598-.139 90.67-.139 50.071 0 90.669.07 90.669.14z" fill="#2C3C43"/>
    <path d="M57.432 61.951h152.019V41.166H57.432v20.785z" fill="#F4F9FF"/>
    <path d="M54.79 132.112h33.763V98.35H54.791v33.762zM94.709 132.112h33.762V98.35H94.708v33.762zM133.405 132.112h33.762V98.35h-33.762v33.762z" fill="#D9DAD9"/>
    <path d="M98.215 84.055H61.642a5.583 5.583 0 0 1-5.587-5.586c0-3.088 2.498-5.552 5.587-5.552h36.573c3.088 0 5.587 2.464 5.587 5.552a5.583 5.583 0 0 1-5.587 5.587z" fill="#0064FE"/>
    <path d="M47.43 18.715c0 .728-.59 1.318-1.318 1.318-.764 0-1.354-.59-1.354-1.318 0-.73.59-1.354 1.354-1.354.728 0 1.318.625 1.318 1.354zM53.122 18.715c0 .728-.59 1.318-1.354 1.318-.728 0-1.318-.59-1.318-1.318 0-.73.59-1.354 1.318-1.354.764 0 1.354.625 1.354 1.354zM58.75 18.715c0 .728-.624 1.318-1.353 1.318-.728 0-1.318-.59-1.318-1.318 0-.73.59-1.354 1.318-1.354.729 0 1.354.625 1.354 1.354z" fill="#2C3C43"/>
    <path d="M266.256 63.642c0 34.943-28.315 63.292-63.257 63.292-34.978 0-63.292-28.349-63.292-63.291C139.707 28.7 168.021.35 202.999.35c34.942 0 63.257 28.35 63.257 63.291z" fill="#EFEFEF"/>
    <path d="M266.195 63.645s0-.347-.034-1.04c0-.313 0-.764-.035-1.25 0-.486 0-1.076-.069-1.735-.07-.66-.139-1.423-.174-2.22-.104-.799-.208-1.701-.347-2.673a71.407 71.407 0 0 0-1.284-6.523c-.659-2.43-1.422-5.136-2.602-7.946-1.145-2.846-2.533-5.865-4.407-8.918a63.685 63.685 0 0 0-16.031-17.975 61.792 61.792 0 0 0-12.076-7.217c-4.476-2.047-9.334-3.644-14.539-4.58C209.392.596 203.91.214 198.288.665c-2.81.14-5.621.625-8.466 1.18-2.811.59-5.656 1.423-8.432 2.394-2.776 1.041-5.552 2.256-8.224 3.679-2.672 1.457-5.309 3.088-7.808 4.927a74.04 74.04 0 0 0-7.113 6.142 70.345 70.345 0 0 0-6.246 7.287c-1.943 2.602-3.609 5.378-5.135 8.293-.382.729-.798 1.457-1.111 2.22a44.11 44.11 0 0 0-1.006 2.256c-.625 1.527-1.249 3.054-1.77 4.65-1.006 3.157-1.873 6.42-2.394 9.785a70.61 70.61 0 0 0-.833 10.167c.035 3.4.313 6.836.833 10.167.521 3.331 1.353 6.593 2.394 9.785l.417 1.18.208.59.208.555c.312.798.625 1.562.902 2.325.347.763.694 1.527 1.041 2.255.313.764.729 1.493 1.111 2.221 1.526 2.915 3.192 5.691 5.135 8.293 1.909 2.603 4.025 5.032 6.246 7.287a74.056 74.056 0 0 0 7.113 6.142c2.499 1.839 5.136 3.47 7.808 4.928 2.672 1.422 5.448 2.637 8.224 3.678a62.576 62.576 0 0 0 8.432 2.394c2.845.555 5.656 1.041 8.466 1.18 5.622.451 11.104.069 16.309-.902 5.205-.937 10.063-2.534 14.539-4.581a61.772 61.772 0 0 0 12.076-7.217 63.694 63.694 0 0 0 16.031-17.975c1.874-3.053 3.262-6.072 4.407-8.917 1.18-2.811 1.943-5.518 2.602-7.947a71.414 71.414 0 0 0 1.284-6.523c.139-.972.243-1.874.347-2.672.069-.798.104-1.562.174-2.22.069-.66.069-1.25.069-1.736.035-.486.035-.937.035-1.249.034-.694.034-1.04.034-1.04v1.04c0 .312 0 .763-.034 1.25 0 .52 0 1.075-.07 1.734-.034.66-.104 1.423-.173 2.221-.07.833-.174 1.7-.313 2.672-.242 1.908-.659 4.13-1.249 6.558-.659 2.429-1.422 5.136-2.567 7.981-1.146 2.845-2.568 5.864-4.407 8.918-3.644 6.142-8.918 12.561-16.066 18.044-3.574 2.741-7.634 5.204-12.11 7.252-4.477 2.047-9.369 3.678-14.574 4.615-5.205.971-10.722 1.353-16.344.937-2.81-.174-5.656-.625-8.501-1.18a69.373 69.373 0 0 1-8.501-2.429c-2.776-1.041-5.552-2.221-8.224-3.678a64.774 64.774 0 0 1-7.842-4.962c-2.499-1.839-4.893-3.921-7.148-6.142-2.256-2.256-4.338-4.719-6.281-7.322-1.943-2.602-3.643-5.413-5.17-8.328-.347-.728-.764-1.457-1.111-2.22-.312-.73-.659-1.492-1.006-2.256-.312-.763-.625-1.561-.937-2.325l-.208-.59-.208-.59-.417-1.18c-1.041-3.192-1.873-6.453-2.394-9.82a71.501 71.501 0 0 1-.833-10.2c.035-3.436.313-6.871.833-10.203.521-3.365 1.388-6.662 2.429-9.82.486-1.596 1.11-3.157 1.735-4.684l1.041-2.29c.312-.729.729-1.458 1.076-2.186 1.561-2.915 3.261-5.726 5.17-8.328a71.06 71.06 0 0 1 6.281-7.322c2.255-2.22 4.649-4.302 7.148-6.141a64.601 64.601 0 0 1 7.842-4.963c2.672-1.457 5.448-2.637 8.224-3.678a69.251 69.251 0 0 1 8.501-2.429c2.845-.555 5.656-1.006 8.501-1.18 1.388-.104 2.776-.138 4.164-.173h.937c3.852.035 7.634.416 11.243 1.11 5.205.937 10.097 2.568 14.574 4.615 4.476 2.048 8.536 4.511 12.11 7.253 7.148 5.482 12.422 11.902 16.066 18.043a58.524 58.524 0 0 1 4.372 8.918c1.18 2.846 1.943 5.552 2.602 7.981.59 2.43 1.007 4.65 1.249 6.558.139.972.243 1.84.313 2.672.069.798.139 1.562.173 2.22.07.66.07 1.215.07 1.736.034.486.034.937.034 1.25v1.04z" fill="#2C3C43"/>
    <path d="M177.632 85.756c-5.76-6.108-9.265-14.297-9.265-23.319 0-18.772 15.198-33.97 33.971-33.97 18.772 0 33.971 15.198 33.971 33.97 0 9.404-3.783 17.906-9.959 24.047l17.107 16.691c10.479-10.41 16.968-24.81 16.968-40.737 0-31.716-25.713-57.428-57.428-57.428-31.75 0-57.462 25.712-57.462 57.428 0 15.649 6.28 29.841 16.447 40.216l15.65-16.898z" fill="#0064FE"/>
    <path d="M236.296 62.126V61.536c0-.278-.035-.556-.035-.833v-.035c0-.277-.034-.555-.034-.798l-.035-.07c0-.277-.035-.554-.069-.797v-.07c-.035-.277-.035-.52-.07-.798l-.035-.035a239.55 239.55 0 0 0-.104-.832c-.034-.278-.104-.556-.138-.833V56.4a5.481 5.481 0 0 0-.174-.798v-.035c-.035-.242-.104-.52-.173-.798v-.034c-.07-.278-.105-.52-.174-.764l-.035-.07c-.069-.242-.138-.485-.173-.728l-.035-.104c-.069-.243-.139-.451-.208-.694l-.035-.104c-.069-.208-.139-.451-.243-.694l-.034-.07c-.07-.242-.139-.485-.209-.694l-.069-.104a5.461 5.461 0 0 0-.243-.694l-.035-.069c-.104-.243-.173-.451-.277-.694l-.035-.07c-.104-.242-.208-.45-.312-.693v-.07a4.294 4.294 0 0 1-.347-.694l-.035-.07c-.104-.207-.208-.45-.312-.658l-.07-.07a11.938 11.938 0 0 0-.312-.66l-.069-.069c-.104-.208-.208-.416-.347-.624l-.035-.104c-.139-.208-.243-.417-.347-.59l-.104-.139c-.104-.173-.208-.382-.347-.555l-.069-.139c-.139-.173-.243-.382-.382-.555l-.069-.104a5.408 5.408 0 0 0-.382-.555l-.07-.105c-.138-.208-.277-.381-.416-.59l-.069-.069c-.139-.173-.278-.381-.451-.555l-.035-.07c-.139-.208-.312-.381-.451-.59l-.07-.069c-.173-.208-.312-.381-.485-.555l-.07-.07c-.139-.207-.312-.38-.451-.554l-.069-.07-.451-.45 17.072-16.76c.138.173.312.311.451.485l.034.035c.313.312.625.624.903.971l.034.035c.313.312.59.66.868.972l.069.069c.278.347.555.66.833.972l.069.104c.278.312.521.659.799.971l.069.104c.278.347.52.66.763.972l.07.139c.243.312.486.659.728.971l.104.14c.243.346.452.658.694 1.005l.105.14c.208.346.416.659.624 1.005l.139.174c.208.312.416.66.625.972l.104.173c.173.347.381.694.59 1.041l.104.173c.173.348.381.695.555 1.041l.104.14c.208.346.382.728.555 1.075l.104.174c.174.346.347.694.521 1.075l.069.174c.174.347.347.694.521 1.075l.069.174c.174.382.347.729.486 1.11l.069.174c.174.347.312.728.486 1.11l.069.174.417 1.145.069.138c.139.417.278.799.417 1.215l.034.104c.139.417.278.833.382 1.25l.035.103c.138.417.277.833.381 1.25l.035.104c.139.416.243.833.347 1.284l.035.069.312 1.353v.035l.312 1.353v.07c.104.416.174.867.278 1.318v.104c.069.451.139.868.208 1.319l.035.104c.069.416.104.867.173 1.319l.035.138c.035.417.104.868.139 1.284v.174c.069.416.104.833.139 1.284v.173c.034.416.069.833.069 1.284l.035.174c0 .416.034.832.034 1.283v1.249h-24.081z" fill="#7BAAF1"/>
    <path d="m226.922 39.015-.035-.069-.521-.52-.069-.07-.486-.486-.104-.07a6.658 6.658 0 0 0-.52-.485l-.07-.07c-.173-.173-.347-.312-.52-.485l-.07-.07c-.208-.138-.381-.312-.555-.45l-.069-.07a3.489 3.489 0 0 1-.555-.451l-.105-.07a7.637 7.637 0 0 0-.555-.416l-.069-.07c-.208-.138-.382-.277-.59-.416l-.069-.034c-.209-.14-.382-.278-.59-.417l-.07-.07c-.208-.138-.416-.242-.624-.38l-.07-.07a6.029 6.029 0 0 1-.624-.382l-.07-.035c-.208-.139-.416-.277-.659-.381l-.035-.035c-.208-.139-.451-.243-.694-.382-.243-.139-.486-.277-.728-.382-.243-.138-.486-.242-.729-.381h-.035c-.243-.104-.486-.243-.728-.347h-.035c-.243-.104-.451-.208-.694-.313l-.07-.034c-.242-.104-.451-.174-.694-.278l-.069-.034c-.243-.105-.451-.174-.694-.278h-.069c-.243-.104-.486-.174-.729-.278h-.069a5.984 5.984 0 0 0-.729-.242l-.07-.035-.728-.208-.07-.035c-.243-.07-.485-.104-.728-.174l-.07-.034c-.243-.07-.52-.104-.763-.174h-.069a4.924 4.924 0 0 0-.764-.173l-.035-.035c-.277-.035-.52-.104-.798-.139h-.034a6.435 6.435 0 0 0-.798-.139h-.035c-.278-.034-.555-.104-.833-.138-.278-.035-.555-.07-.867-.07h-.035c-.243-.035-.521-.07-.798-.104h-.07c-.243 0-.485-.035-.728-.035v-.763l.138-22.728h.07l.208.034c.416 0 .833 0 1.284.035h.173c.452.035.868.07 1.284.104h.174l1.249.104.208.035c.417.035.833.07 1.249.139l.209.035c.381.034.798.104 1.214.173l.208.035c.417.034.798.104 1.215.173l.208.035c.382.07.798.173 1.214.243l.174.035c.416.104.798.173 1.214.277l.174.035c.416.104.798.173 1.214.277l.174.07c.382.104.798.208 1.18.312l.173.035c.417.139.798.243 1.18.382l.173.034c.382.139.799.243 1.18.382l.139.07c.416.103.798.242 1.18.416l.173.034c.382.14.764.278 1.145.452l.139.034c.382.174.798.313 1.18.486l.104.07c.382.138.798.312 1.18.485l.104.07 1.145.52.104.07c.382.173.764.381 1.145.555l.104.07c.382.173.764.38 1.145.589l.07.035 1.145.624.069.07c.382.208.764.416 1.145.659l.035.035c.382.208.763.45 1.145.694l.035.034c.382.243.763.486 1.11.729l.035.035c.382.243.763.52 1.11.763h.035c.729.555 1.457 1.076 2.186 1.666a38.924 38.924 0 0 1 3.158 2.672h.034c.313.312.66.624.972.902l.035.07c.312.312.624.59.937.901l.069.07.382.382-17.072 16.76z" fill="#B3CCF2"/>
    <path d="M177.085 39.64c-4.372-4.684-12.249-13.047-15.823-16.725l.07-.07.069-.104c.312-.277.59-.59.902-.902l.035-.035.937-.936.034-.035c.347-.313.66-.59.972-.868l.035-.034c.312-.313.659-.59 1.006-.903l.035-.034c.312-.278.624-.555.971-.833l.104-.07c.313-.242.625-.52.937-.763l.139-.104c.312-.243.625-.486.972-.729l.138-.104c.313-.243.625-.486.972-.728l.174-.105c.312-.242.624-.45.936-.694l.209-.104c.312-.208.624-.416.971-.624l.174-.139c.347-.208.659-.416 1.006-.625l.174-.104c.347-.208.659-.416 1.006-.59l.208-.138c.347-.174.694-.382 1.006-.556l.208-.104c.347-.208.694-.381 1.041-.555a.757.757 0 0 0 .174-.104c.382-.174.729-.347 1.11-.52l.139-.07c.382-.173.729-.347 1.111-.52l.138-.07c.382-.173.764-.347 1.18-.52l.07-.035c.416-.173.798-.312 1.179-.486l.104-.034c.382-.14.798-.313 1.18-.452l.104-.034c.417-.14.798-.278 1.215-.417l.139-.07c.381-.103.798-.242 1.179-.38l.174-.035c.382-.14.798-.243 1.18-.347l.173-.07c.417-.104.798-.208 1.215-.312l.173-.07c.416-.104.798-.173 1.215-.277l.173-.035c.416-.104.798-.173 1.215-.277l.208-.035c.381-.07.798-.174 1.214-.243l.208-.035c.382-.07.799-.139 1.215-.208h.208l1.249-.208h.174c.416-.07.833-.104 1.249-.139l.208-.035c.417-.034.833-.069 1.284-.104h.139c.451-.034.867-.07 1.318-.104h.139c.451-.035.902-.035 1.354-.07H204.255c-.07 4.824-.174 15.893-.139 22.729v.763h-.173c-.243-.034-.521-.034-.764-.034H201.375c-.243 0-.521 0-.798.034h-.07c-.277 0-.52.035-.763.035l-.139.035c-.243 0-.486.034-.729.034l-.138.035c-.243.035-.486.035-.729.07l-.104.034c-.278.035-.521.07-.764.104h-.104c-.243.035-.52.07-.763.14h-.069c-.243.034-.521.103-.764.138-.277.07-.555.139-.798.208h-.035c-.277.035-.52.104-.763.174l-.104.034a5.55 5.55 0 0 0-.729.174l-.069.035-.729.208-.069.035c-.243.069-.486.138-.729.242h-.069c-.243.104-.486.174-.729.278h-.069a6.26 6.26 0 0 1-.729.277l-.035.035a30.82 30.82 0 0 0-2.221.972h-.034a6.47 6.47 0 0 1-.694.347l-.07.034c-.208.105-.416.243-.659.347l-.069.035c-.209.139-.417.243-.66.382l-.069.035c-.208.138-.416.242-.625.381l-.069.035-.625.416h-.069c-.659.451-1.319.903-1.978 1.388-.208.174-.416.313-.624.486l-.035.035a3.98 3.98 0 0 0-.59.486l-.069.034a6.955 6.955 0 0 0-.556.486l-.069.035a7.126 7.126 0 0 1-.555.486l-.035.07a8.06 8.06 0 0 0-.555.52l-.035.034a8.059 8.059 0 0 0-.555.52l-.035.035c-.381.382-.728.764-1.11 1.146l-.035.069z" fill="#0064FE"/>
    <path d="M204.166 27.738c-.035-6.836.069-17.905.138-22.728l-.138 22.728z" fill="#612B32"/>
    <path d="M152.583 62.252c-2.915 0-5.414 0-7.044-.035v-1.319c0-.45.034-.937.069-1.388v-.07c.035-.97.104-1.942.208-2.88.035-.485.104-.97.174-1.422v-.07c.069-.45.104-.901.173-1.352l.035-.105c.069-.416.139-.867.208-1.318l.035-.104c.069-.417.139-.868.243-1.284l.034-.139c.07-.416.174-.833.243-1.25l.035-.138c.104-.416.208-.833.312-1.214l.035-.174c.104-.416.208-.798.347-1.214l.035-.14c.104-.416.243-.797.347-1.214l.034-.139c.139-.416.278-.798.417-1.214l.034-.104c.139-.416.278-.833.417-1.215l.035-.104c.173-.416.312-.832.485-1.249l.035-.035c.139-.45.312-.867.521-1.283v-.035l.52-1.25.035-.034c.173-.416.381-.798.555-1.215l.069-.069c.174-.382.347-.763.555-1.145l.07-.139c.173-.347.382-.728.59-1.11l.034-.104c.209-.347.417-.729.625-1.076l.069-.139.625-1.04.069-.14c.209-.346.452-.693.66-1.04l.069-.14c.243-.346.451-.693.694-1.04l.07-.104c.242-.347.485-.694.728-1.007l.07-.104.728-1.04.07-.07c.243-.347.52-.694.798-1.041l.035-.035c.555-.729 1.145-1.422 1.734-2.116v-.035c.313-.313.59-.66.903-1.006l.034-.035c.278-.278.556-.59.833-.868l15.788 16.76a6.25 6.25 0 0 0-.416.486l-.069.07a3.977 3.977 0 0 0-.486.59l-.035.034c-.173.174-.312.382-.486.59l-.069.07a7.423 7.423 0 0 0-.416.554l-.07.07c-.139.208-.277.382-.416.59l-.07.07c-.138.207-.243.416-.381.59l-.07.069c-.138.208-.277.416-.381.624l-.035.07c-.139.208-.312.416-.451.659-.139.243-.243.45-.382.694l-.035.034c-.138.243-.242.451-.381.694v.035c-.139.208-.243.451-.382.66l-.035.069c-.104.208-.208.45-.312.66l-.035.069c-.104.242-.243.485-.347.728a26.52 26.52 0 0 0-.937 2.29v.035c-.104.243-.173.486-.277.729v.035c-.104.277-.174.52-.243.763v.035c-.104.277-.174.52-.243.798-.243.798-.451 1.63-.59 2.429v.034c-.069.243-.139.52-.173.798v.035a6.35 6.35 0 0 0-.139.798v.035l-.104.833h-.035c-.104.867-.173 1.7-.208 2.567v.035c0 .278-.035.555-.035.833v.694c-4.927.035-10.895.035-15.753.035z" fill="#B3CCF2"/>
    <path d="M216.773 63.638c0 7.287-5.899 13.186-13.186 13.186s-13.186-5.9-13.186-13.186c0-7.287 5.899-13.186 13.186-13.186s13.186 5.9 13.186 13.186z" fill="#D9DAD9"/>
    <path d="M199.708 64.505c.59 1.978 2.637 3.123 4.615 2.568l45.872-13.012-47.33 5.69c-2.29.278-3.817 2.533-3.157 4.754z" fill="#0064FE"/>
    <path d="M220.157 103.231c0-1.353 1.006-2.22 2.255-2.22 1.145 0 1.943.763 1.943 1.908 0 1.319-1.041 2.221-2.22 2.221-1.145 0-1.978-.833-1.978-1.909z" fill="#2C3C43"/>
    <path d="m271.998 194.143 2.047 3.297 5.205-6.038-2.742-2.915-4.51 5.656z" fill="#FE5B52"/>
    <path d="M278.771 190.791c0 .035-.243.382-.694.937-.486.555-1.145 1.284-1.874 2.082-.728.763-1.388 1.457-1.943 2.047-.486.521-.798.833-.833.798-.034 0 .243-.381.694-.902.486-.555 1.145-1.319 1.874-2.117a88.698 88.698 0 0 0 1.943-2.012c.486-.521.798-.833.833-.833z" fill="#2C3C43"/>
    <path d="M273.966 191.097c.07-.034.625.452 1.284 1.111s1.145 1.214 1.11 1.249c-.034.069-.624-.416-1.284-1.076-.659-.659-1.145-1.214-1.11-1.284z" fill="#2C3C43"/>
    <path d="m274.049 197.451-.069-.07-.556-.659.035-.069s.035 0 .069-.035l.521.833 5.205-6.038-5.205 6.038zm5.205-6.038-.486-.52.486.52z" fill="#FEFEFE"/>
    <path d="m274.012 197.451-.52-.833.763-.763a460.34 460.34 0 0 1 1.943-2.048 138.6 138.6 0 0 0 1.874-2.082c.312-.381.555-.694.659-.832l.486.52-5.205 6.038z" fill="#F7B1B6"/>
    <path d="m273.424 196.653 2.915-3.157v-.035l2.36-2.603.034.035a28.88 28.88 0 0 1-.659.833c-.486.555-1.145 1.284-1.874 2.082-.728.763-1.388 1.457-1.943 2.047l-.763.763c-.035.035-.07.035-.07.035z" fill="#9FAAAC"/>
    <path d="M230.803 202.027v-.798l8.258.069-.034 2.672-.486.034c-2.256.105-11.52.382-13.047-.069-1.666-.486 5.309-1.908 5.309-1.908z" fill="#FE5B52"/>
    <path d="M239.03 203.87v-.069h-2.949c.138-.59.52-1.145 1.041-1.527.52-.347 1.11-.555 1.7-.555h.243v.034l-.035 2.117z" fill="#F7B1B6"/>
    <path d="M238.089 204.042h-.381c.346-.035.624-.035.867-.035l.486-.034c-.278 0-.625.034-.972.069z" fill="#FEFEFE"/>
    <path d="M231.72 204.18h-.52c2.394-.035 4.962-.104 6.489-.139h.381a170.02 170.02 0 0 1-6.35.139z" fill="#9FAAAC"/>
    <path d="M225.575 203.965c-.173-.035-.277-.07-.312-.104-.035-.07-.035-.104 0-.174-.035.104.035.174.243.243.034 0 .069 0 .069.035zm1.284-.972c.243-.069.451-.139.52-.139-.173.035-.347.07-.52.139z" fill="#FEFEFE"/>
    <path d="M231.183 204.175c-2.533 0-4.789-.105-5.621-.209 0-.034-.035-.034-.07-.034-.208-.07-.277-.139-.243-.243.208-.243 1.041-.521 1.596-.694.174-.07.347-.104.521-.139 0-.035.035-.035.035-.035.485.035.694 1.007.694 1.007l7.98-.035v.104l2.95-.035v.104l-.486.035c-.243 0-.52 0-.867.035-1.527.034-4.095.104-6.489.139z" fill="#F7B1B6"/>
    <path d="M236.081 203.907v-.104h2.949v.069l-2.949.035z" fill="#FBDBDD"/>
    <path d="M239.219 203.789h-.139c-.139 0-.278.035-.416.035-.417 0-.903.035-1.492.035-1.25.034-2.985.069-4.928.069-1.908 0-3.643-.069-4.927-.104-.555-.035-1.076-.035-1.458-.07-.173 0-.312 0-.416-.034h-.139H225.859c.382 0 .903.034 1.492.034 1.25.035 2.985.07 4.893.07 1.943 0 3.678 0 4.928-.035H239.219z" fill="#2C3C43"/>
    <path d="M228.102 203.938s-.035-.312-.243-.659c-.243-.347-.521-.521-.521-.521 0-.035.347.104.59.486.243.347.209.694.174.694zM230.541 202.821s-.139-.139-.244-.313c-.104-.174-.208-.313-.173-.348.034 0 .139.139.278.313.104.174.174.313.139.348zM231.248 202.483c-.035.035-.174-.035-.313-.174-.139-.104-.209-.209-.209-.244.035-.034.139.07.278.174l.244.244zM231.663 201.788s-.209.035-.417.035c-.244 0-.453 0-.453-.035 0-.034.209-.069.453-.069.208 0 .417.035.417.069zM231.831 201.271c.035.035-.208.105-.485.139-.278 0-.486-.034-.486-.069s.243 0 .486-.035c.277 0 .485-.069.485-.035z" fill="#2C3C43"/>
    <path d="M230.321 202.132c0 .035-.208.035-.555 0-.139 0-.347-.035-.556-.104a1.257 1.257 0 0 1-.312-.139c-.035-.035-.104-.069-.139-.139 0-.069.035-.173.104-.208.486-.243 1.007.035 1.18.278.104.138.139.243.174.312.034.104 0 .139 0 .139s-.035-.174-.243-.417c-.07-.104-.243-.208-.417-.277-.208-.035-.451-.07-.659.034-.069.07-.035.174.069.209.07.069.174.104.278.138.208.035.382.105.555.105.313.069.521.069.521.069z" fill="#2C3C43"/>
    <path d="M230.192 202.165c-.035 0-.104-.104-.07-.347 0-.104.07-.208.139-.347.104-.104.208-.242.451-.242.104 0 .174.138.174.208-.035.104-.07.173-.104.243-.07.104-.174.208-.243.277-.174.174-.313.208-.313.208l.243-.242c.07-.07.174-.174.243-.278.07-.104.104-.312-.035-.312-.104-.035-.242.104-.347.173a2.357 2.357 0 0 0-.138.347.774.774 0 0 0 0 .312zM239.03 201.721c-.035 0-.243-.035-.625 0a2.549 2.549 0 0 0-1.318.52c-.451.313-.729.729-.833 1.076-.139.312-.139.52-.173.52v-.138c0-.104.034-.243.104-.417.104-.347.381-.798.832-1.145a3.193 3.193 0 0 1 1.388-.486c.174 0 .347 0 .452.035.104 0 .173.035.173.035zM235.083 203.14c0 .035-.52.105-1.18.105-.659 0-1.214-.07-1.214-.105h1.214c.66 0 1.18-.034 1.18 0z" fill="#2C3C43"/>
    <path d="M236.674 203.143c0 .034-.07.104-.105.243-.069.104-.104.209-.139.209 0 0-.035-.139.035-.278.069-.105.174-.174.209-.174zM237.276 202.447c.035.035-.034.105-.104.174-.104.07-.174.139-.209.105 0 0 .035-.07.14-.174.069-.07.173-.105.173-.105zM238.165 202.125c0 .035-.104.035-.243.07-.104.035-.209.104-.209.07-.034 0 .035-.105.209-.174.139-.035.243 0 .243.034zM238.764 201.999s-.035.069-.105.069c-.069.035-.139.035-.139 0 0 0 .035-.069.104-.069.07-.035.14-.035.14 0z" fill="#2C3C43"/>
    <path d="m227.442 94.972-12.735-12.874 1.631-16.795.278-.312c.139-.208.347-.382.555-.624.243-.243.521-.452.833-.625.382-.208.902-.416 1.214-.486.382-.035.521-.555.209-.729-.313-.173-1.423-.034-2.499.66-1.11.694-.451-1.215-.208-1.909.208-.694.833-2.88.659-3.123-.208-.347-.659-.139-.867.556-.208.693-1.006 2.775-1.353 2.637-.382-.14.867-3.678.867-3.678s.382-.73-.035-.868c-.763-.312-1.769 3.54-1.873 3.921-.07.243-.451.139-.382-.139.069-.277 1.318-3.504.555-3.817-.59-.243-.867 3.158-1.527 3.713-.624.52.486-2.568-.069-2.776-.208-.07-.382-.104-.763 1.77-.174.902-.59 2.394-.729 3.886l-3.991 20.056 12.527 16.552 7.703-4.996zM233.902 58.098c-.521.313 1.145 3.158.416 2.742-.694-.417-1.596-3.713-2.117-3.366-.694.416 1.076 3.366 1.215 3.643.104.243-.243.451-.382.208-.139-.347-1.839-3.955-2.498-3.539-.382.243.104.868.104.868s1.839 3.296 1.492 3.47c-.312.208-1.457-1.7-1.804-2.36-.347-.66-.798-.763-.972-.382-.104.278.902 2.325 1.249 2.95.347.659 1.353 2.394.139 1.943-1.214-.486-2.325-.417-2.602-.208-.278.208-.07.694.347.659.312 0 .867.139 1.283.278.347.104.66.242.937.45.243.174.451.348.66.521l.347.278 6.87 16.933-6.246 14.54 9.681 3.573 4.338-19.189-9.959-18.703c-.416-1.422-1.076-2.845-1.423-3.712-.694-1.77-.867-1.7-1.075-1.597z" fill="#F9B39B"/>
    <path d="m255.545 161.051-6.316-32.34-8.848.763v-.069l-16.239 1.457s-.764 37.164-1.007 37.164l4.442 33.832v.034l12.804-.59-4.962-33.728 1.839-27.031s.139-.208.347-.485l7.426 27.655 25.192 28.523 8.223-7.946-22.901-27.239z" fill="#0064FE"/>
    <path d="M235.742 162.463v-.277c0-.209 0-.452.034-.799.035-.694.07-1.7.139-2.88.139-2.498.382-5.864.59-9.577.243-3.4.451-6.488.625-8.848v-.035h.034c.903-1.11 1.666-1.978 2.221-2.637.243-.312.451-.52.59-.729l.243-.243c0 .035-.07.105-.174.278-.173.208-.347.451-.59.763-.52.66-1.283 1.562-2.151 2.672v-.034c-.139 2.359-.312 5.447-.555 8.813-.243 3.748-.486 7.114-.659 9.577-.104 1.215-.174 2.186-.243 2.915a4.4 4.4 0 0 1-.07.764c0 .173-.034.277-.034.277zM240.356 129.406c.069 0 .104 1.388.104 3.088 0 1.701-.035 3.089-.104 3.089-.069 0-.139-1.388-.139-3.089 0-1.7.07-3.088.139-3.088zM229.472 132.217c-.035 0 .104-.034.381-.069.313-.035.694-.069 1.18-.139 1.041-.104 2.499-.277 4.303-.451l.104-.035v5.344l-.069.035-.07.035c-1.075.555-2.116 1.041-3.088 1.526l-.069.035-.07-.035c-.971-.555-1.874-1.11-2.672-1.596h-.034v-.069c0-1.388.034-2.533.034-3.366 0-.347.035-.659.035-.902 0-.208 0-.313.035-.313v.347c0 .243.034.556.034.937 0 .833.035 1.944.035 3.297l-.035-.104c.799.485 1.735 1.006 2.707 1.561h-.104c.971-.486 1.978-1.006 3.088-1.527l.07-.034-.07.104c0-1.874.035-3.609.035-5.136l.104.104c-1.735.174-3.192.278-4.233.347-.486.035-.868.07-1.18.104h-.451zM241.877 130.998c0-.035.139-.035.416-.07.313-.034.694-.104 1.18-.138 1.006-.139 2.499-.313 4.268-.486h.139v5.343l-.069.035-.07.035c-1.11.52-2.151 1.041-3.123 1.527l-.034.034-.07-.034c-.971-.59-1.874-1.111-2.672-1.597l-.069-.034v-.07c.035-1.353.069-2.498.069-3.331 0-.382 0-.694.035-.937v-.277c.035 0 .035.104.035.312 0 .278 0 .555.034.937 0 .833.035 1.978.035 3.296l-.035-.069c.799.451 1.701.972 2.707 1.561h-.139c.972-.485 2.013-1.006 3.088-1.561l.105-.035-.07.104v-5.135l.139.139c-1.735.138-3.192.243-4.233.347-.486.034-.903.034-1.215.069-.277.035-.416.035-.451.035z" fill="#2C3C43"/>
    <path d="M235.409 132.901c0 .07-1.319.208-2.984.278-1.666.069-2.984.069-2.984 0-.035-.07 1.318-.174 2.984-.243 1.631-.07 2.984-.104 2.984-.035zM247.807 131.797c0 .069-1.319.208-2.95.347-1.631.104-2.949.139-2.949.069 0-.034 1.318-.208 2.949-.347 1.596-.104 2.915-.139 2.95-.069zM234.39 167.295c0 .069-1.284.277-2.915.486-1.596.208-2.915.312-2.915.243 0-.07 1.284-.313 2.88-.486 1.631-.208 2.95-.313 2.95-.243zM254.685 161.74c.035.069-1.388.555-2.984 1.457-1.596.903-2.741 1.839-2.811 1.77 0 0 .243-.278.729-.659a13.823 13.823 0 0 1 1.978-1.319c.798-.451 1.561-.798 2.151-.971.555-.209.937-.313.937-.278zM227.478 49.768c-.035 0-.035-.034-.104-.173-.07-.139-.139-.312-.278-.52-.104-.244-.243-.521-.416-.868a20.711 20.711 0 0 0-.625-1.145c-.243-.417-.52-.902-.833-1.388a35.076 35.076 0 0 0-1.145-1.596c-.833-1.11-1.908-2.29-3.192-3.505-2.568-2.394-6.107-4.789-10.549-6.176-2.221-.66-4.65-1.11-7.183-1.146a28.615 28.615 0 0 0-7.738.937 28.597 28.597 0 0 0-7.148 3.02 26.547 26.547 0 0 0-5.656 4.58c-3.157 3.4-5.066 7.252-6.107 10.618a26.542 26.542 0 0 0-1.006 4.615 21.72 21.72 0 0 0-.208 1.943c0 .59-.035 1.145-.035 1.63v1.32c.035.38.069.693.069.936.035.243.035.451.07.59v.208s-.035-.07-.035-.208c-.035-.139-.035-.312-.069-.59-.035-.243-.07-.555-.104-.937 0-.381-.035-.833-.035-1.318 0-.486 0-1.041.035-1.631.034-.625.069-1.25.173-1.978.174-1.388.486-2.95.972-4.65 1.041-3.366 2.914-7.252 6.107-10.687a25.99 25.99 0 0 1 5.69-4.65c2.187-1.284 4.616-2.36 7.218-3.054 2.637-.694 5.274-1.006 7.807-.937 2.568.035 4.997.486 7.253 1.18 4.476 1.423 8.05 3.852 10.618 6.246a25.869 25.869 0 0 1 3.157 3.574c.417.555.798 1.076 1.145 1.596.278.52.59.972.833 1.388.208.452.417.833.59 1.18.174.347.312.625.416.868.105.243.174.416.243.555.035.104.07.173.07.173z" fill="#2C3C43"/>
    <path d="M221.981 48.45s-.07-.069-.209-.277c-.138-.174-.347-.486-.624-.833a25.268 25.268 0 0 0-2.533-2.88 23.896 23.896 0 0 0-4.546-3.435 24.142 24.142 0 0 0-6.454-2.603 23.987 23.987 0 0 0-6.905-.555c-2.152.139-4.06.555-5.587 1.041-1.561.486-2.776 1.006-3.574 1.423-.416.208-.729.381-.937.486-.208.104-.312.173-.347.173 0-.035.104-.104.312-.208a9.4 9.4 0 0 1 .937-.52c.798-.452 1.978-1.007 3.54-1.527 1.561-.52 3.47-.937 5.621-1.11 2.151-.14 4.58 0 7.009.554 2.429.59 4.65 1.527 6.489 2.638a23.207 23.207 0 0 1 4.546 3.504 19.054 19.054 0 0 1 2.498 2.95c.278.382.451.66.59.867.139.208.208.313.174.313z" fill="#2C3C43"/>
    <path d="m246.381 104.969-2.221 11.659c4.65 6.489 5.067 12.076 5.067 12.076l-25.088 2.151c.485-3.921 2.914-12.457 2.914-12.457l-3.643-12.423-7.322-9.507 7.253-6.524c-.139.347 6.801 4.372 6.801 4.372l9.959.07s.555.07 1.422.312l4.858-12.63s3.782 5.551 2.499 12.318c-.903 4.858-.729 5.968-2.499 10.583z" fill="#FE5B52"/>
    <path d="M228.204 96.13s.139.139.347.451c.209.312.521.763.764 1.353.243.625.486 1.388.486 2.29.069.868-.139 1.839-.59 2.776-.451.903-1.145 1.631-1.909 2.082-.763.451-1.596.59-2.255.59-.66 0-1.18-.139-1.527-.277-.173-.07-.312-.139-.382-.209l-.138-.069c.034-.035.208.069.555.174.347.138.867.242 1.492.208.624 0 1.422-.174 2.116-.625.729-.416 1.388-1.11 1.84-1.978.416-.902.624-1.839.589-2.672a6.78 6.78 0 0 0-.451-2.22c-.451-1.215-1.006-1.84-.937-1.874zM245.489 104.632c-.035-.035.173-.486.382-1.249.243-.764.416-1.874.312-3.089a9.033 9.033 0 0 0-.798-3.019c-.312-.728-.59-1.145-.555-1.18 0 0 .069.105.208.278.139.174.347.451.52.833.382.729.764 1.804.868 3.054.104 1.249-.104 2.394-.382 3.157-.104.417-.243.694-.347.902-.104.209-.173.313-.208.313z" fill="#2C3C43"/>
    <path d="M236.53 118.429a9.095 9.095 0 0 1-2.325-.313 1.806 1.806 0 0 1-1.041-.694c-.451-.659-.312-1.596.243-2.151.382-.347.868-.486 1.423-.486.52 0 1.11.139 1.631.347.971.417 1.908 1.006 2.949 1.006h.07c.59 0 1.145-.208 1.7-.347a2.07 2.07 0 0 1 .451-.069c.208 0 .416.069.521.208.242.243.173.625-.035.868-.208.277-.486.416-.798.52-1.666.66-3.193 1.111-4.789 1.111z" fill="#C7453E"/>
    <path d="m233.812 94.356-3.644-.035s-5.586-3.227-6.627-4.164c.069-.104.138-.208.242-.312l4.997 3.227c-.035-.694.347-1.388.868-1.874.277-.243.555-.451.902-.625l3.435 3.366-.173.417z" fill="#A3A5A7"/>
    <path d="m233.958 93.934-3.435-3.366a8.29 8.29 0 0 1 .972-.45 25.175 25.175 0 0 1 4.753-1.493l-2.29 5.309z" fill="#2D2427"/>
    <path d="M241.513 94.708a10.832 10.832 0 0 0-1.423-.313l-6.315-.034.173-.417 2.291-5.309a26.428 26.428 0 0 1 4.962-.486c.902 0 1.839.07 2.741.278l-2.429 6.28z" fill="#BD8671"/>
    <path d="M234.042 102.197h-.243c-1.7-.174-2.707-1.874-4.06-2.88a7.298 7.298 0 0 0-.416-1.388c-.243-.59-.556-1.041-.764-1.354-.208-.277-.347-.45-.347-.45-.069.034.486.659.937 1.873.139.347.243.729.312 1.11a6.791 6.791 0 0 0-.867-.45c-1.11-.348-2.325-.105-3.435-.382-1.631-.451-2.776-2.082-2.95-3.748-.139-1.527.417-3.088 1.319-4.372 1.041.937 6.627 4.164 6.627 4.164l3.644.035 6.315.034s.555.07 1.423.313l2.429-6.281c1.284.277 2.463.867 3.262 1.908 1.249 1.666 1.041 4.13-.139 5.795a7.178 7.178 0 0 1-1.319 1.388c-.069-.104-.104-.208-.173-.312a3.91 3.91 0 0 0-.521-.833c-.104-.173-.208-.278-.208-.278-.035.035.243.452.555 1.18.07.104.104.243.174.347-1.076.798-2.429 1.284-3.748 1.527-1.006.174-2.012.174-2.949.555-1.701.694-3.054 2.499-4.858 2.499z" fill="#C7453E"/>
    <path d="M229.75 99.322c-.104-.07-.173-.139-.278-.208a5.79 5.79 0 0 0-.312-1.11c-.451-1.215-1.006-1.84-.937-1.874 0 0 .139.173.347.451.208.312.521.763.764 1.353.173.417.312.868.416 1.388zM245.558 97.623c-.069-.105-.104-.243-.173-.348-.312-.728-.59-1.145-.555-1.18 0 0 .104.105.208.278.139.174.347.451.52.833.07.104.104.208.174.312a.757.757 0 0 0-.174.105z" fill="#273035"/>
    <path d="M252.468 88.518a2.483 2.483 0 0 0-1.562-2.013c-.971-.347-2.117-.104-3.053-.52-1.18-.52-1.701-1.909-1.978-3.158-.313-1.249-.59-2.637-1.596-3.435-.694-.555-1.631-.729-2.395-1.18-1.11-.694-1.735-1.978-2.498-3.053-.278-.382-.625-.799-1.041-1.11l-.035-.07c-1.631-1.943-5.968-2.221-7.877-.486l.07-.07c-3.505.278-5.726 5.934-5.76 9.543-.035 2.22.694 4.546-.139 6.628-.486 1.214-1.492 2.186-1.874 3.435-.486 1.666.347 3.678 1.943 4.476 1.562.798 3.679.312 4.754-1.11-.069.902.694 1.7 1.562 2.012.832.313 1.804.243 2.706.174 1.943-.174 4.199-.486 5.17-2.186.694 1.006 2.013 1.422 3.193 1.353 1.214-.104 2.359-.208 3.435-.729-.035-.034-.069-.104-.104-.173.173-.07.347-.174.52-.243.903-.59 1.493-1.804 1.041-2.81.347.416.694.832 1.076 1.214 1.804-.937 2.637-3.436 1.735-5.31.625.278 1.18.66 1.666 1.111.728-.486 1.145-1.423 1.041-2.29z" fill="#1B1B43"/>
    <path d="M252.026 90.013c-.034 0 .174-.485-.242-1.145-.174-.347-.521-.694-1.007-.902-.486-.243-1.11-.347-1.769-.416-.694-.07-1.492-.139-2.256-.486a2.77 2.77 0 0 1-1.006-.798 3.663 3.663 0 0 1-.625-1.215c-.312-.902-.381-1.873-.659-2.81-.174-.451-.347-.902-.659-1.319a2.42 2.42 0 0 0-1.215-.798c-.486-.104-1.041-.104-1.561-.208a2.714 2.714 0 0 1-1.354-.729c-.728-.763-1.04-1.735-1.353-2.602-.312-.833-.728-1.596-1.318-2.152a4.734 4.734 0 0 0-1.839-1.214c-1.284-.486-2.429-.382-3.158-.174-.763.174-1.11.417-1.145.382 0 0 .104-.035.277-.139a3.34 3.34 0 0 1 .833-.347c.729-.208 1.943-.381 3.262.104a5.345 5.345 0 0 1 1.943 1.215c.59.59 1.041 1.388 1.353 2.255.347.868.625 1.805 1.319 2.499.312.347.763.59 1.249.659.486.104 1.006.104 1.562.208.52.139 1.006.486 1.353.902.312.417.52.903.659 1.388.312.972.382 1.944.659 2.811.278.833.764 1.596 1.527 1.909.694.346 1.458.381 2.152.485.694.07 1.318.209 1.839.451.52.278.832.625 1.041.972.173.382.208.694.208.902-.035.208-.07.312-.07.312z" fill="#0064FE"/>
    <path d="M245.846 96.961c0-.034.104-.034.277-.173.174-.104.382-.347.486-.694a2.053 2.053 0 0 0-.069-1.353c-.243-.486-.694-.903-1.284-1.284-.59-.347-1.284-.625-2.013-1.076a3.24 3.24 0 0 1-.971-.868c-.278-.347-.451-.763-.59-1.249-.243-.902-.243-1.873-.382-2.845-.104-.972-.416-2.047-1.249-2.637-.833-.59-1.978-.764-2.707-1.527-.728-.763-1.006-1.77-1.179-2.672-.139-.902-.209-1.77-.417-2.568a6.037 6.037 0 0 0-.971-2.012 6.408 6.408 0 0 0-2.533-1.978c-.694-.312-1.145-.382-1.111-.382 0-.034.104 0 .278.035.208.035.52.104.867.243.729.277 1.77.867 2.637 1.978.417.555.833 1.249 1.041 2.047.209.833.278 1.7.452 2.603.138.867.416 1.839 1.11 2.532.659.694 1.77.868 2.672 1.493.451.347.798.798 1.006 1.284.174.485.312 1.006.347 1.526.139 1.007.104 1.978.347 2.846.139.416.312.832.555 1.145.278.347.59.624.937.832.659.452 1.388.73 1.978 1.11.59.383 1.076.868 1.284 1.389.243.52.208 1.04.069 1.423-.139.381-.381.59-.555.694-.173.104-.312.138-.312.138zM234.198 98c-.034 0 .313-.277.313-.936 0-.313-.07-.73-.243-1.145-.174-.417-.486-.868-.729-1.423a2.832 2.832 0 0 1-.208-1.943c.173-.729.555-1.388.902-2.082s.625-1.458.625-2.29a4.03 4.03 0 0 0-.868-2.36c-.52-.729-1.18-1.319-1.7-2.047a5.763 5.763 0 0 1-.625-1.11 4.763 4.763 0 0 1-.243-1.215c-.034-.798.07-1.562.174-2.221.139-.694.243-1.353.278-1.908.104-1.18-.174-2.152-.521-2.707-.312-.555-.659-.729-.625-.763 0 0 .07.034.209.138.138.105.347.313.52.59.382.555.694 1.527.59 2.742-.035.59-.139 1.249-.243 1.943-.104.659-.208 1.422-.139 2.186.035.382.104.763.243 1.145.139.347.347.729.59 1.04.486.695 1.145 1.285 1.7 2.013.556.764.903 1.666.903 2.533 0 .903-.313 1.7-.66 2.395-.381.694-.728 1.353-.902 2.012a2.738 2.738 0 0 0 .174 1.84c.208.52.52 1.006.694 1.422.173.451.242.868.208 1.215-.035.347-.139.59-.243.728-.104.174-.174.209-.174.209z" fill="#0064FE"/>
    <path d="M225.779 97.616s-.104-.07-.139-.243a1.136 1.136 0 0 1 0-.763c.105-.347.347-.694.729-1.006.382-.313.833-.59 1.249-1.007.382-.45.66-1.04.764-1.7.139-.694-.035-1.422-.313-2.151-.277-.729-.659-1.562-.52-2.464.104-.902.52-1.7.902-2.533.382-.798.694-1.665.659-2.498-.034-.833-.312-1.631-.52-2.395-.451-1.526-.486-3.018-.104-4.198a4.732 4.732 0 0 1 1.561-2.36c.278-.208.486-.312.66-.416.138-.07.243-.104.243-.07 0 0-.347.14-.833.556-.521.45-1.145 1.214-1.492 2.36-.313 1.11-.278 2.567.173 4.059.208.763.521 1.561.555 2.464.07.902-.277 1.804-.659 2.602-.382.833-.798 1.631-.902 2.464-.139.833.208 1.596.486 2.36.138.346.243.728.312 1.11.069.381.069.763 0 1.145a3.408 3.408 0 0 1-.868 1.77c-.416.45-.902.728-1.249 1.006-.381.277-.624.624-.728.902-.139.312-.105.59-.07.763a.875.875 0 0 0 .104.243z" fill="#0064FE"/>
    <path d="m26.688 190.924.104-.209c.07-.138.139-.347.278-.589a15.26 15.26 0 0 0 .832-2.464c.556-2.151.764-5.483-.069-9.404-.382-1.978-1.006-4.094-1.735-6.315-.763-2.255-1.596-4.65-2.325-7.217-.694-2.568-1.214-5.344-1.11-8.259.104-2.949.971-5.864 1.908-8.779.972-2.915 1.943-5.76 2.221-8.64a13.118 13.118 0 0 0-1.562-7.946c-1.249-2.325-2.845-4.338-4.025-6.385a21.34 21.34 0 0 1-2.429-6.142 23.05 23.05 0 0 1-.173-9.473c.486-2.221 1.006-3.366 1.006-3.366s-.035.07-.07.243a6.404 6.404 0 0 1-.207.625c-.174.555-.382 1.422-.625 2.498-.382 2.221-.66 5.517.278 9.438a20.772 20.772 0 0 0 2.429 6.038c1.18 2.047 2.776 4.025 4.06 6.385a13.445 13.445 0 0 1 1.63 8.12c-.312 2.914-1.284 5.794-2.22 8.709-.972 2.915-1.84 5.795-1.944 8.675-.104 2.88.417 5.621 1.11 8.189.695 2.568 1.527 4.962 2.29 7.183.73 2.255 1.32 4.407 1.701 6.385.798 3.955.59 7.321-.035 9.473-.277 1.11-.624 1.908-.902 2.429a3.461 3.461 0 0 1-.312.624c-.07.104-.104.174-.104.174z" fill="#2C3C43"/>
    <path d="M22.802 126.765s-2.43-7.738 1.908-12.249c.173-.173.416-.069.451.139.243 1.284.52 5.136-2.36 12.11z" fill="#FE5B52"/>
    <path d="M24.282 117.089c.034 0-.035.555-.174 1.423-.174.971-.347 2.151-.555 3.4a183.49 183.49 0 0 0-.52 3.401c-.14.867-.244 1.422-.278 1.422-.035 0-.035-.555.034-1.422.104-.903.243-2.117.486-3.436.208-1.353.451-2.533.625-3.4.173-.868.347-1.388.382-1.388z" fill="#2C3C43"/>
    <path d="M25.646 144.951s1.457-7.946 7.391-9.924c.208-.069.416.139.347.347-.382 1.215-1.943 4.789-7.738 9.577z" fill="#FE5B52"/>
    <path d="M31.447 137.064c.034.035-.278.486-.833 1.18-.59.798-1.284 1.735-2.047 2.776a98.365 98.365 0 0 0-2.082 2.741c-.52.729-.833 1.146-.902 1.146-.035-.035.242-.521.728-1.25a32.877 32.877 0 0 1 2.013-2.81c.798-1.076 1.561-2.048 2.151-2.707.555-.694.937-1.076.972-1.076z" fill="#2C3C43"/>
    <path d="M24.01 164.895s-.868-8.05 4.233-11.659c.173-.104.416 0 .416.208 0 1.319-.45 5.171-4.65 11.451z" fill="#FE5B52"/>
    <path d="M27.292 155.668c.035.035-.139.555-.45 1.388-.348.937-.73 2.013-1.18 3.227-.452 1.215-.833 2.29-1.18 3.227-.313.833-.486 1.353-.52 1.353-.036-.034.069-.555.311-1.422.243-.833.625-2.013 1.11-3.262a74.54 74.54 0 0 1 1.25-3.227c.347-.798.59-1.284.66-1.284z" fill="#2C3C43"/>
    <path d="M28.512 184.949s-.59-8.05 4.65-11.486c.173-.138.416 0 .416.243-.07 1.284-.66 5.136-5.066 11.243z" fill="#FE5B52"/>
    <path d="M32.078 175.866c.035 0-.139.52-.486 1.353-.381.902-.832 1.978-1.318 3.193-.451 1.179-.902 2.255-1.284 3.192-.312.798-.52 1.319-.555 1.319-.035-.035.07-.556.347-1.388.277-.833.728-1.978 1.214-3.227.52-1.25 1.006-2.395 1.388-3.193.382-.798.66-1.284.694-1.249z" fill="#2C3C43"/>
    <path d="M19.314 119.956s-7.148-3.747-7.287-9.993c-.034-.208.209-.347.417-.243 1.04.763 3.99 3.296 6.87 10.236z" fill="#FE5B52"/>
    <path d="M13.52 112.126c.035-.035.382.416.902 1.11.59.833 1.284 1.77 2.013 2.811.763 1.041 1.457 1.978 2.047 2.776.52.729.833 1.145.798 1.18-.035.034-.416-.382-.972-1.041a96.481 96.481 0 0 1-2.116-2.742c-.764-1.11-1.457-2.116-1.943-2.845-.486-.763-.764-1.214-.729-1.249z" fill="#2C3C43"/>
    <path d="M27.054 136.547s-7.391-3.296-7.912-9.542c0-.209.208-.382.416-.243 1.11.659 4.2 3.019 7.496 9.785z" fill="#FE5B52"/>
    <path d="M20.768 129.053c.035-.035.382.381.937 1.075.66.764 1.388 1.666 2.186 2.672.833.972 1.562 1.874 2.22 2.638.556.693.903 1.11.868 1.145-.034 0-.416-.347-1.04-1.007-.625-.624-1.423-1.561-2.256-2.602-.868-1.041-1.596-2.013-2.117-2.707-.555-.728-.833-1.18-.798-1.214z" fill="#2C3C43"/>
    <path d="M22.794 155.043s-5.067-6.316-2.672-12.111c.07-.208.347-.243.486-.034.659 1.11 2.36 4.615 2.186 12.145z" fill="#FE5B52"/>
    <path d="M20.572 145.502c.07 0 .173.52.381 1.388.209.972.452 2.117.73 3.366.277 1.249.52 2.394.763 3.366.173.867.312 1.388.277 1.422-.07 0-.243-.52-.486-1.353-.277-.867-.555-2.047-.832-3.366a46.846 46.846 0 0 1-.66-3.4c-.139-.868-.208-1.423-.173-1.423z" fill="#2C3C43"/>
    <path d="M27.826 176.772s-7.321-3.4-7.738-9.646c0-.208.209-.382.417-.243 1.076.659 4.164 3.088 7.321 9.889z" fill="#FE5B52"/>
    <path d="M21.652 169.207c.034-.035.381.382.937 1.076.624.763 1.318 1.7 2.151 2.706.798 1.007 1.527 1.909 2.117 2.672.555.694.902 1.111.867 1.145 0 .035-.416-.347-1.006-1.006a37.633 37.633 0 0 1-2.22-2.637c-.834-1.041-1.562-2.047-2.083-2.741-.52-.729-.798-1.18-.763-1.215zM42.423 144.977v.173c0 .174 0 .312-.034.521 0 .485-.035 1.145-.07 1.977-.104 1.735-.242 4.13-.381 7.01-.52 2.914-2.013 6.176-4.025 9.334-1.458 2.29-2.985 4.407-4.338 6.385-1.318 1.943-2.464 3.747-3.227 5.378a22.47 22.47 0 0 0-1.527 3.921c-.138.486-.243.868-.277 1.11l-.104.417c-.035-.035 0-.174.034-.417a7.66 7.66 0 0 1 .243-1.145c.209-.971.66-2.359 1.423-3.99.763-1.631 1.874-3.47 3.227-5.448 1.319-1.978 2.845-4.094 4.303-6.385 1.978-3.123 3.47-6.315 4.025-9.195h-.035c.208-2.88.382-5.274.52-6.975.07-.832.105-1.492.14-1.977.034-.209.034-.382.069-.521 0-.104 0-.173.034-.173z" fill="#2C3C43"/>
    <path d="M38.056 163.375s3.088-7.46-.798-12.353c-.14-.173-.417-.104-.486.104-.347 1.249-.972 5.066 1.284 12.249z" fill="#FE5B52"/>
    <path d="M37.479 153.618c.034 0 .139.555.243 1.423.104.867.208 2.082.312 3.435.104 1.353.139 2.568.139 3.435 0 .903-.035 1.458-.07 1.458-.07 0-.07-.555-.139-1.423-.069-1.006-.138-2.151-.242-3.435a213.9 213.9 0 0 0-.209-3.47c-.069-.868-.104-1.423-.034-1.423z" fill="#2C3C43"/>
    <path d="M38.052 163.364c-1.284-4.059-1.63-7.044-1.63-9.126 0-1.561.208-2.602.346-3.123.035-.138.14-.208.278-.208.07 0 .139.035.208.104 1.492 1.874 1.978 4.164 1.978 6.246 0 2.672-.763 4.997-1.076 5.83.035-.278.035-.66.035-1.18 0-.867-.035-2.082-.139-3.435a89.206 89.206 0 0 0-.312-3.436c-.104-.867-.208-1.422-.243-1.422-.07 0-.035.555.035 1.422.07 1.007.139 2.152.208 3.47.104 1.284.173 2.429.243 3.436.035.659.07 1.145.104 1.353-.035.035-.035.069-.035.069z" fill="#FE5B52"/>
    <path d="M38.069 163.299c-.035-.208-.07-.694-.105-1.353-.069-1.006-.138-2.151-.242-3.435a213.9 213.9 0 0 0-.209-3.47c-.069-.868-.104-1.423-.034-1.423.034 0 .139.555.243 1.423.104.867.208 2.082.312 3.435.104 1.353.139 2.568.139 3.435 0 .521 0 .903-.035 1.18-.035.07-.035.139-.07.208z" fill="#273035"/>
    <path d="M28.459 181.383s2.498-7.703-1.805-12.249c-.138-.173-.416-.104-.45.105-.244 1.283-.556 5.17 2.255 12.144z" fill="#FE5B52"/>
    <path d="M27.08 171.696c.036 0 .174.521.348 1.388.208.868.416 2.048.624 3.401.209 1.318.347 2.533.417 3.435.07.868.07 1.423.034 1.423-.034 0-.138-.521-.242-1.423a182.22 182.22 0 0 0-.52-3.4 83.231 83.231 0 0 0-.521-3.401c-.104-.868-.174-1.423-.14-1.423z" fill="#2C3C43"/>
    <path d="M28.418 181.373c-1.978-4.893-2.43-8.259-2.43-10.271 0-.868.105-1.493.174-1.874.035-.139.14-.208.243-.208.07 0 .174.034.208.104 1.978 2.082 2.534 4.892 2.534 7.252 0 2.151-.452 3.99-.625 4.684 0-.243-.035-.659-.07-1.145a45.173 45.173 0 0 0-.416-3.435c-.208-1.353-.416-2.533-.625-3.401-.173-.867-.312-1.388-.347-1.388-.034 0 .035.556.14 1.423.173.972.346 2.117.52 3.401.208 1.284.381 2.429.52 3.4.104.694.174 1.18.209 1.354-.035.069-.035.104-.035.104z" fill="#FE5B52"/>
    <path d="M28.469 181.273c-.035-.173-.104-.659-.208-1.353a183.49 183.49 0 0 0-.52-3.401 83.429 83.429 0 0 0-.521-3.4c-.104-.868-.174-1.423-.14-1.423.036 0 .174.521.348 1.388.208.868.416 2.048.624 3.401.209 1.318.347 2.533.417 3.435.034.486.07.902.07 1.145-.036.07-.07.139-.07.208z" fill="#273035"/>
    <path d="M41.98 154.245s6.628-4.615 5.934-10.861c0-.208-.278-.312-.417-.173-.971.867-3.574 3.782-5.517 11.034z" fill="#FE5B52"/>
    <path d="M41.98 154.25c1.943-7.252 4.546-10.167 5.517-11.034a.264.264 0 0 1 .174-.07c.104 0 .243.105.243.243.034.313.069.59.069.903 0 5.76-6.003 9.958-6.003 9.958z" fill="#FE5B52"/>
    <path d="M46.734 145.706c.035.035-.174.521-.555 1.319a88.875 88.875 0 0 1-1.562 3.088c-.659 1.18-1.249 2.255-1.735 2.984-.485.763-.798 1.18-.832 1.18-.035-.035.208-.521.659-1.284.451-.868 1.006-1.874 1.63-3.019.625-1.145 1.18-2.151 1.632-3.019.45-.798.728-1.249.763-1.249z" fill="#2C3C43"/>
    <path d="M31.072 173.74s7.98-1.249 10.132-7.113c.07-.208-.104-.417-.312-.382-1.25.382-4.858 1.839-9.82 7.495z" fill="#FE5B52"/>
    <path d="M31.072 173.752c4.962-5.656 8.57-7.113 9.82-7.495h.07c.138 0 .242.139.242.277v.105c-1.874 5.135-8.224 6.731-9.785 7.043-.174.035-.278.07-.313.07h-.034z" fill="#FE5B52"/>
    <path d="M39.116 168.192c.035 0-.382.382-1.075.937-.694.555-1.666 1.284-2.742 2.082-1.11.764-2.117 1.458-2.88 1.909-.763.451-1.249.694-1.284.659 0-.035.451-.347 1.18-.833.798-.59 1.735-1.249 2.81-2.012 1.042-.729 1.979-1.423 2.811-1.978.73-.521 1.18-.798 1.18-.764z" fill="#2C3C43"/>
    <path d="m23.496 188.453-2.325 15.684h14.54l-1.909-15.684H23.496z" fill="#0064FE"/>
    <path d="M34.36 193.319c0 .069-2.603.139-5.865.139-3.227 0-5.83-.07-5.83-.139 0-.104 2.603-.173 5.83-.173 3.262 0 5.864.069 5.864.173zM34.673 194.573c0 .069-2.707.139-6.038.139-3.331 0-6.038-.07-6.038-.139 0-.104 2.707-.174 6.038-.174 3.331 0 6.038.07 6.038.174z" fill="#2C3C43"/>
    <path d="M293.197 183.151c-1.041.243-1.874 1.006-2.429 1.943-.521.937-.729 2.012-.798 3.053-.104 2.082.694 4.303 1.665 6.142 1.943-1.214 2.776-3.713 3.123-5.031.555-2.082.278-6.142-1.561-6.107zM289.061 197.268c.486-1.076.208-2.429-.521-3.366-.763-.937-1.908-1.458-3.123-1.562-.52-.069-1.145 0-1.526.382-.382.382-.452.972-.278 1.457.173.486.52.902.902 1.215 1.319 1.18 2.811 2.082 4.546 1.874z" fill="#FE5B52"/>
    <path d="M290.222 203.835c.035 0 .035-.139.035-.416 0-.313-.035-.694-.035-1.145 0-.972-.035-2.36-.521-3.783-.52-1.422-1.353-2.567-2.116-3.192a4.42 4.42 0 0 0-.972-.625c-.104-.069-.208-.104-.277-.138-.07-.035-.105-.035-.105-.035-.034.035.556.243 1.284.902.729.625 1.527 1.735 2.048 3.123.485 1.423.52 2.776.555 3.748.034.485.034.867.069 1.145.035.277.035.416.035.416z" fill="#2C3C43"/>
    <path d="M293.147 186.234s0 .07-.035.174c-.035.139-.069.312-.139.52a35.89 35.89 0 0 0-.381 1.909 160.356 160.356 0 0 0-1.18 6.315 159.673 159.673 0 0 0-.937 6.35c-.104.833-.208 1.492-.243 1.943-.035.209-.035.382-.069.521v.173s.034-.034.034-.173a6.35 6.35 0 0 0 .104-.521c.07-.451.139-1.11.278-1.908.243-1.631.555-3.886.972-6.35a253.94 253.94 0 0 1 1.145-6.315c.138-.799.242-1.458.347-1.909.034-.243.069-.382.104-.52v-.209z" fill="#2C3C43"/>
    <path d="M291.855 199.006c.798-2.359 2.811-4.302 5.24-4.996.624-.174 1.388-.208 1.769.277.417.521.174 1.25-.139 1.805-1.387 2.29-4.233 3.574-6.87 3.088v-.174z" fill="#FE5B52"/>
    <path d="M296.474 195.891s-.139.034-.382.104a3.07 3.07 0 0 0-.451.139c-.173.069-.382.138-.59.242-.208.105-.451.209-.659.347a8.248 8.248 0 0 0-.729.452 8.93 8.93 0 0 0-1.492 1.353c-.451.52-.798 1.11-1.076 1.665a3.8 3.8 0 0 0-.347.764c-.104.277-.173.52-.242.728-.07.243-.07.452-.105.625-.069.174-.069.312-.069.451-.035.278-.035.417-.035.417.035 0 .07-.59.313-1.458.069-.208.138-.451.243-.694.104-.277.242-.52.347-.798a8.833 8.833 0 0 1 1.11-1.596c.451-.555.937-.972 1.423-1.353.243-.174.485-.313.728-.451.209-.139.451-.243.625-.347.833-.417 1.388-.556 1.388-.59z" fill="#2C3C43"/>
</svg>
