<svg width="25" height="24" viewBox="0 0 25 24" fill="none" xmlns="http://www.w3.org/2000/svg">
<circle cx="12.3398" cy="12" r="12" fill="#E5EEFE"/>
<path d="M12.8645 11.6223L13.115 11.3718L12.6907 10.9475L12.4402 11.198L12.8645 11.6223ZM13.3655 11.1213L13.8664 10.6203L13.4422 10.1961L12.9412 10.697L13.3655 11.1213ZM14.1169 10.3698L14.3674 10.1194L13.9431 9.69509L13.6927 9.94558L14.1169 10.3698Z" fill="#0559FF"/>
<path d="M6.33984 6V18.0234H18.3633" stroke="#0559FF" stroke-width="0.6" stroke-linecap="round" stroke-linejoin="round"/>
<path d="M7.24219 10.207L8.14395 13.2129L9.94746 8.7041L11.1498 11.1088" stroke="#0559FF" stroke-width="0.6" stroke-linecap="round" stroke-linejoin="round"/>
<circle cx="11.4488" cy="11.7105" r="0.601172" stroke="#0559FF" stroke-width="0.6"/>
<path d="M12.45 12.5983L12.711 12.8378L13.1166 12.3956L12.8556 12.1562L12.45 12.5983ZM12.9721 13.0773L13.4942 13.5562L13.8998 13.114L13.3777 12.6351L12.9721 13.0773ZM13.7552 13.7956L14.0163 14.0351L14.4218 13.593L14.1608 13.3535L13.7552 13.7956Z" fill="#0559FF"/>
<circle cx="16.5611" cy="8.40488" r="2.1041" stroke="#0559FF" stroke-width="0.5"/>
<circle cx="16.5611" cy="15.0182" r="2.1041" stroke="#0559FF" stroke-width="0.5"/>
<path d="M15.4814 8.22693C15.4099 8.29843 15.3885 8.40596 15.4272 8.49938C15.4659 8.5928 15.5571 8.65371 15.6582 8.65371H16.0094V9.60605C16.0094 9.74413 16.1213 9.85605 16.2594 9.85605H16.8605C16.9986 9.85605 17.1105 9.74413 17.1105 9.60605V8.65371H17.4617C17.5628 8.65371 17.654 8.5928 17.6927 8.49938C17.7314 8.40596 17.71 8.29843 17.6385 8.22693L16.7367 7.32518C16.6899 7.27829 16.6263 7.25195 16.56 7.25195C16.4937 7.25195 16.4301 7.27829 16.3832 7.32518L15.4814 8.22693Z" stroke="#0559FF" stroke-width="0.5" stroke-linejoin="round"/>
<path d="M17.6377 15.4947C17.7092 15.4232 17.7306 15.3157 17.6919 15.2223C17.6532 15.1289 17.5621 15.068 17.4609 15.068H17.1098V14.1156C17.1098 13.9776 16.9978 13.8656 16.8598 13.8656H16.2586C16.1205 13.8656 16.0086 13.9776 16.0086 14.1156V15.068H15.6574C15.5563 15.068 15.4651 15.1289 15.4265 15.2223C15.3878 15.3157 15.4091 15.4232 15.4806 15.4947L16.3824 16.3965C16.4293 16.4434 16.4929 16.4697 16.5592 16.4697C16.6255 16.4697 16.6891 16.4434 16.736 16.3965L17.6377 15.4947Z" stroke="#0559FF" stroke-width="0.5" stroke-linejoin="round"/>
</svg>
