<svg width="67" height="66" viewBox="0 0 67 66" fill="none" xmlns="http://www.w3.org/2000/svg">
<path d="M65.4414 31.3348L51.2985 17.192C50.3759 16.2693 48.8875 16.2693 47.9648 17.192C47.0422 18.1146 47.0422 19.603 47.9648 20.5257L58.0871 30.6412H21.3493C20.0495 30.6412 18.9922 31.6985 18.9922 32.9983C18.9922 34.2981 20.0495 35.3555 21.3493 35.3555H58.0871L47.9716 45.4777C47.0489 46.4004 47.0489 47.8887 47.9716 48.8114C48.4295 49.2693 49.0357 49.5051 49.635 49.5051C50.2344 49.5051 50.8406 49.2761 51.2985 48.8114L65.4414 34.6685C66.364 33.7459 66.364 32.2508 65.4414 31.3348Z" fill="#0063F5"/>
<path d="M40.2042 47.1429C38.9044 47.1429 37.8471 48.2002 37.8471 49.5V56.5714C37.8471 59.171 35.7324 61.2857 33.1328 61.2857H9.56138C6.96179 61.2857 4.8471 59.171 4.8471 56.5714V9.42857C4.8471 6.82898 6.96179 4.71429 9.56138 4.71429H33.1328C35.7324 4.71429 37.8471 6.82898 37.8471 9.42857V16.5C37.8471 17.7998 38.9044 18.8571 40.2042 18.8571C41.504 18.8571 42.5614 17.7998 42.5614 16.5V9.42857C42.5614 4.22939 38.332 0 33.1328 0H9.56138C4.3622 0 0.132812 4.22939 0.132812 9.42857V56.5714C0.132812 61.7706 4.3622 66 9.56138 66H33.1328C38.332 66 42.5614 61.7706 42.5614 56.5714V49.5C42.5614 48.2002 41.504 47.1429 40.2042 47.1429Z" fill="#0063F5"/>
</svg>
