<svg width="42" height="43" viewBox="0 0 42 43" fill="none" xmlns="http://www.w3.org/2000/svg">
<circle cx="21" cy="21.8359" r="21" fill="#E5EEFE"/>
<g clip-path="url(#clip0_819_43657)">
<path d="M25.6077 14.5363C25.6061 14.5239 25.6043 14.5114 25.6027 14.499C25.5891 14.4575 25.5829 14.4164 25.554 14.3775C25.3091 14.0494 24.9844 13.8696 24.5719 13.8692C22.2052 13.866 19.8385 13.865 17.4718 13.866C15.9243 13.866 14.3769 13.866 12.8294 13.866C12.5105 13.866 12.2239 13.9437 11.9865 14.1596C11.8172 14.312 11.6553 14.4721 11.6366 14.7185V14.7174C11.6319 14.717 11.6271 14.7176 11.6227 14.7191C11.6182 14.7207 11.6142 14.7231 11.6107 14.7263C11.6073 14.7295 11.6045 14.7334 11.6027 14.7377C11.6008 14.742 11.5999 14.7466 11.5999 14.7513C11.5876 14.8879 11.5543 15.0202 11.5543 15.1602C11.5571 18.6781 11.5575 22.1961 11.5557 25.7142C11.5557 26.0786 11.5557 26.4433 11.5578 26.8078C11.5578 26.8507 11.5309 26.909 11.5967 26.935C11.6013 27.145 11.6892 27.32 11.8245 27.4751C11.9113 27.6307 12.0539 27.7254 12.2043 27.8082C12.4121 27.9232 12.6371 27.9419 12.8736 27.9388C13.3702 27.932 13.8673 27.9451 14.3644 27.9455C14.7132 27.9455 15.0624 27.9313 15.4112 27.9379C15.7828 27.9449 16.1541 27.9421 16.5257 27.9379C17.2429 27.9299 17.9609 27.9356 18.6774 27.9351C18.7302 27.9372 18.7825 27.9448 18.8337 27.9577C18.9865 27.9891 19.1087 28.0736 19.2289 28.1632C19.2309 28.1665 19.2335 28.1694 19.2367 28.1716C19.2761 28.2482 19.3254 28.3194 19.3834 28.3834L19.434 28.5345C19.434 28.6284 19.4356 28.7226 19.4308 28.8161C19.4232 28.9427 19.3754 29.0636 19.2941 29.1616C19.1248 29.3648 18.8995 29.4802 18.623 29.4778C18.1302 29.4714 17.6377 29.4642 17.1447 29.4748C16.7203 29.4838 16.2954 29.4683 15.8707 29.468C15.5409 29.468 15.2101 29.4841 14.8813 29.4753C14.2403 29.4579 13.5997 29.4832 12.959 29.4753C12.7507 29.4768 12.5425 29.4638 12.336 29.4364C11.6525 29.3337 11.1021 29.0026 10.6515 28.495C10.6287 28.4681 10.6119 28.443 10.5736 28.4439C10.5684 28.4353 10.5633 28.4265 10.5583 28.418C10.5583 28.3787 10.5381 28.3502 10.5155 28.3186C10.1984 27.8694 10.0186 27.3658 10.0143 26.8218C10.0009 25.2765 10.0091 23.731 10.0089 22.1856C10.0089 20.6816 9.99974 19.1774 10.0111 17.6734C10.0182 16.7058 9.96557 15.7372 10.0421 14.7698C10.0595 14.5565 10.106 14.3465 10.1804 14.1456C10.3329 13.7169 10.5928 13.3337 10.9358 13.0321C11.4539 12.5754 12.0635 12.3408 12.754 12.3388C14.6818 12.3331 16.6093 12.3374 18.5371 12.3388C20.5446 12.3388 22.552 12.3388 24.5593 12.3388C24.7034 12.3378 24.8473 12.3489 24.9894 12.3717C25.7221 12.4939 26.321 12.8426 26.7664 13.4361C27.1273 13.9173 27.3261 14.4543 27.3131 15.062C27.3068 15.34 27.3198 15.6187 27.3116 15.8975C27.2851 16.8008 27.3737 17.7041 27.2635 18.6056C27.2058 18.6126 27.2209 18.6592 27.2145 18.6942V18.6928C27.1689 18.6876 27.161 18.7323 27.1425 18.7545C26.9275 19.0151 26.5974 19.1158 26.28 19.0029C26.1312 18.9493 26.0024 18.852 25.9107 18.7241C25.8191 18.5961 25.7689 18.4435 25.767 18.2866C25.7636 17.7827 25.767 17.2791 25.7656 16.7753C25.7656 16.1701 25.765 15.5649 25.7638 14.9597C25.7669 14.8514 25.7364 14.7448 25.6763 14.6544C25.6747 14.602 25.6909 14.5388 25.6077 14.5363Z" fill="#0559FF"/>
<path d="M28.2588 19.9609C28.4446 20.0539 28.6317 20.1447 28.816 20.2409C29.263 20.4737 29.6653 20.7696 30.0421 21.1011C30.054 21.1084 30.0671 21.1139 30.0808 21.1171H30.0826C30.0842 21.1458 30.0904 21.1697 30.1282 21.1643L30.1364 21.1598L30.1277 21.1636C30.13 21.1928 30.1405 21.2133 30.1756 21.2088L30.181 21.2047L30.1749 21.2077C30.1774 21.2366 30.1865 21.2585 30.2223 21.2528V21.2515C30.2314 21.31 30.2927 21.324 30.3218 21.366C30.3405 21.3931 30.3745 21.4154 30.351 21.4529C30.3054 21.5254 30.2936 21.611 30.2571 21.6855C30.12 21.9609 30.0631 22.2688 30.0929 22.5746C30.097 22.6197 30.1052 22.6552 30.1526 22.6706C30.1555 22.6843 30.1587 22.6983 30.1617 22.7121C30.1478 22.7853 30.1706 22.8537 30.2022 22.9154C30.4045 23.3142 30.7235 23.5702 31.1663 23.6637C31.329 23.6981 31.4946 23.7191 31.6593 23.7425C31.734 23.7532 31.7687 23.7857 31.7778 23.8643C31.7978 24.0363 31.8441 24.2048 31.8805 24.3737C31.9418 24.6576 31.9682 24.9451 31.9944 25.2319C32.0147 25.4563 31.9944 25.6849 31.9755 25.913C31.9457 26.2695 31.8812 26.6182 31.8161 26.9678C31.8019 27.0437 31.7757 27.1175 31.7705 27.1959C31.768 27.2431 31.7299 27.2559 31.6917 27.2623C31.5871 27.2792 31.4825 27.2979 31.3773 27.3095C31.0861 27.3408 30.8146 27.4244 30.5843 27.6094C30.4401 27.7254 30.2961 27.8453 30.2519 28.0384C30.2063 28.0714 30.2009 28.1206 30.1988 28.171C30.0979 28.1988 30.1218 28.3013 30.1106 28.3593C30.0694 28.5531 30.0712 28.7534 30.1157 28.9465C30.163 29.1389 30.2512 29.3168 30.3143 29.5036C30.3394 29.5776 30.3305 29.6474 30.2567 29.7027C30.2082 29.7393 30.1501 29.7728 30.1307 29.8382V29.8369C30.0942 29.8319 30.0851 29.854 30.0851 29.8836C29.9042 29.9965 29.7575 30.1506 29.5865 30.2754C29.0832 30.6433 28.5456 30.9459 27.9496 31.1412C27.7922 31.1927 27.635 31.2458 27.4796 31.3036C27.4099 31.3296 27.3384 31.3276 27.2675 31.3364C27.2663 31.3337 27.2641 31.3316 27.2614 31.3304C27.2586 31.3292 27.2555 31.3291 27.2527 31.33C27.116 31.1121 26.9588 30.9107 26.7568 30.7506C26.5398 30.5784 26.2736 30.4784 25.996 30.4648C25.7185 30.4512 25.4436 30.5247 25.2106 30.6749C24.9737 30.8265 24.8199 31.0511 24.6411 31.2528C24.5695 31.3334 24.5128 31.3407 24.4285 31.3133C24.3028 31.2725 24.1779 31.23 24.0519 31.1894C23.5565 31.0292 23.084 30.8065 22.6461 30.5266C22.2552 30.2781 21.9098 29.9764 21.5674 29.6684C21.5171 29.6233 21.5218 29.5747 21.5335 29.5261C21.5515 29.4666 21.5729 29.4081 21.5977 29.3509C21.6501 29.2062 21.7212 29.0648 21.7488 28.9155C21.7825 28.7315 21.7679 28.5409 21.7533 28.3532C21.7537 28.3419 21.7499 28.3309 21.7425 28.3223C21.7351 28.3137 21.7248 28.3081 21.7134 28.3067C21.7057 28.2581 21.7405 28.1958 21.6679 28.1674C21.6225 28.0021 21.5276 27.8543 21.3959 27.7435C21.3971 27.7371 21.3968 27.7305 21.3949 27.7242C21.393 27.718 21.3896 27.7123 21.3849 27.7077C21.3803 27.7031 21.3746 27.6996 21.3683 27.6977C21.3621 27.6957 21.3554 27.6953 21.3489 27.6965C21.3414 27.6459 21.3059 27.6288 21.2605 27.6245C21.1453 27.5064 21.01 27.4228 20.8441 27.3973H20.8145C20.7999 27.3564 20.7689 27.3521 20.7311 27.3594C20.6846 27.3442 20.6348 27.3415 20.5869 27.3517C20.5479 27.2932 20.4896 27.3113 20.4352 27.3137L20.3908 27.3101C20.3885 27.3057 20.3851 27.3019 20.381 27.2991C20.3768 27.2963 20.372 27.2946 20.367 27.2941C20.362 27.2937 20.357 27.2944 20.3524 27.2964C20.3478 27.2984 20.3437 27.3015 20.3406 27.3054C20.3294 27.3004 20.3173 27.2979 20.305 27.2979C20.2927 27.2979 20.2805 27.3004 20.2693 27.3054C20.2465 27.2562 20.2037 27.2632 20.1616 27.2693L20.1249 27.2645C20.108 27.2239 20.0818 27.1843 20.0764 27.1421C20.0522 26.9556 19.978 26.7779 19.9764 26.5875C19.9771 26.5819 19.9766 26.5762 19.9751 26.5708C19.9736 26.5654 19.971 26.5603 19.9675 26.5559C19.964 26.5514 19.9596 26.5477 19.9546 26.545C19.9497 26.5422 19.9442 26.5405 19.9385 26.5398C19.9508 26.3736 19.8793 26.2167 19.8848 26.0514C19.9076 25.8908 19.8631 25.7352 19.8533 25.5772C19.8394 25.3513 19.9123 25.1284 19.8857 24.901C19.8873 24.8647 19.8891 24.8283 19.8907 24.7917C19.9682 24.7102 19.9221 24.6093 19.9344 24.5174C19.9344 24.5049 19.9363 24.4925 19.9374 24.4801C20.0151 24.4227 19.9677 24.3403 19.98 24.2699C19.9814 24.2568 19.9827 24.2434 19.9839 24.2301C20.0044 24.2265 20.0222 24.2154 20.0203 24.1944C20.0121 24.0881 20.0725 23.9948 20.075 23.8891C20.0768 23.818 20.1037 23.7505 20.1941 23.7387C20.3101 23.7236 20.4252 23.7021 20.5416 23.6908C20.8171 23.6647 21.0779 23.5551 21.2883 23.3769C21.4079 23.2771 21.5371 23.1748 21.5799 23.0107C21.6597 22.9531 21.679 22.8684 21.6856 22.7783C21.6875 22.7496 21.6891 22.7207 21.6909 22.692C21.7558 22.6889 21.7515 22.6414 21.7563 22.596C21.7929 22.272 21.7347 21.9444 21.5886 21.6523C21.5285 21.5297 21.4542 21.3895 21.6235 21.2797C21.6296 21.2756 21.6273 21.2585 21.6289 21.2474L21.6683 21.2052C21.6925 21.2052 21.7139 21.2009 21.7223 21.1738C21.726 21.1721 21.7291 21.1695 21.7312 21.1661C21.7402 21.1637 21.7484 21.159 21.7549 21.1525C21.7615 21.1459 21.7662 21.1378 21.7686 21.1289L21.777 21.1214C21.8344 21.1088 21.8823 21.0846 21.8968 21.0214C21.9109 21.0187 21.9244 21.0135 21.9367 21.0062C22.1197 20.8485 22.3112 20.7007 22.5103 20.5636C22.6124 20.4959 22.7381 20.4536 22.8124 20.3473V20.3486C22.8377 20.3561 22.8566 20.3407 22.8757 20.3299C23.3127 20.0856 23.7762 19.8913 24.2574 19.7509C24.5846 19.654 24.5793 19.647 24.7978 19.9299C25.0094 20.2043 25.2598 20.4218 25.6179 20.4981C26.0437 20.5885 26.4258 20.5155 26.7666 20.2447C26.9429 20.1047 27.0766 19.9254 27.2156 19.7525C27.2821 19.6698 27.3441 19.6608 27.4393 19.6933C27.6238 19.7565 27.8056 19.8288 27.9981 19.8676L28.0551 19.8719C28.0676 19.8933 28.086 19.9108 28.1081 19.9223C28.1303 19.9338 28.1553 19.9388 28.1802 19.9367L28.2588 19.9609ZM23.7098 21.6221C23.5715 21.6636 23.4642 21.7575 23.3434 21.8298C23.245 21.8883 23.2434 21.9775 23.2692 22.0635C23.2844 22.1139 23.2881 22.1649 23.302 22.2144L23.3006 22.5448C23.2683 22.5529 23.2628 22.5773 23.263 22.6055C23.2651 22.8456 23.1947 23.0705 23.1263 23.2981C23.0352 23.6059 22.8559 23.8649 22.6691 24.1163C22.373 24.5153 21.9725 24.7888 21.5159 24.9821C21.4271 25.0198 21.3899 25.0756 21.3915 25.1702C21.395 25.3994 21.3968 25.6289 21.3899 25.8579C21.387 25.9561 21.4335 25.9974 21.5159 26.0295C21.7536 26.1238 21.9772 26.2498 22.1805 26.4041C22.3468 26.5281 22.4766 26.6889 22.6329 26.8219L22.6898 26.8858C22.7015 26.9203 22.7189 26.9527 22.7416 26.9813C23.0534 27.4124 23.245 27.8871 23.2655 28.4225C23.2663 28.4487 23.2702 28.4746 23.2772 28.4998C23.3129 28.6178 23.3116 28.7438 23.2735 28.8611C23.2207 29.023 23.2564 29.1343 23.3963 29.2204C23.5847 29.3365 23.7726 29.4528 23.9724 29.5505C24.067 29.5971 24.1319 29.5916 24.2169 29.528C24.5987 29.2382 25.0304 29.0497 25.5056 28.9887C26.303 28.8864 27.037 29.063 27.6812 29.5557C27.732 29.5946 27.7758 29.598 27.8357 29.5704C28.0708 29.4602 28.2968 29.3318 28.5116 29.1865C28.5668 29.1497 28.5875 29.1066 28.5898 29.039C28.595 28.885 28.5164 28.7349 28.5524 28.5847C28.5884 28.4345 28.5845 28.2816 28.5904 28.1296C28.6654 28.0827 28.6239 28.0088 28.6335 27.9465C28.6829 27.8973 28.6335 27.8214 28.682 27.7717C28.7542 27.7467 28.7397 27.6699 28.7572 27.622C28.9347 27.1392 29.2452 26.756 29.6377 26.4314C29.8571 26.2508 30.1106 26.127 30.3699 26.0141C30.4205 25.9915 30.4594 25.9719 30.4583 25.9032C30.454 25.6363 30.4551 25.3694 30.4565 25.1025C30.4565 25.0458 30.4355 25.0167 30.3804 24.995C29.919 24.8162 29.513 24.5208 29.2026 24.1382C29.1798 24.11 29.1586 24.077 29.1142 24.0799C29.1157 24.0776 29.1164 24.0747 29.116 24.0719C29.1155 24.0691 29.1141 24.0666 29.1119 24.0648C29.0963 24.02 29.0759 23.9771 29.0509 23.9368C28.7438 23.4779 28.5763 22.9752 28.582 22.4208C28.5836 22.267 28.5857 22.1132 28.5902 21.9597C28.5934 21.9342 28.5889 21.9083 28.5774 21.8853C28.5659 21.8622 28.5479 21.843 28.5255 21.83C28.3294 21.6991 28.1335 21.5688 27.9166 21.4717C27.7377 21.3917 27.6835 21.4023 27.5594 21.5579L27.491 21.6184C27.389 21.6385 27.3088 21.7038 27.2192 21.7496C26.9459 21.8894 26.6533 21.9678 26.3549 22.0297L26.3094 22.0335C26.241 22.0349 26.1677 22.0064 26.1114 22.0703C26.1005 22.0646 26.0886 22.0613 26.0763 22.0605C26.0641 22.0598 26.0518 22.0617 26.0403 22.066C25.9792 22.0428 25.9116 22.0428 25.8505 22.066C25.8113 22.0602 25.7724 22.0534 25.7341 22.0692C25.7077 22.0159 25.6555 22.0285 25.6138 22.0292C25.4794 22.0319 25.3505 21.9996 25.2231 21.9673C24.84 21.87 24.4964 21.6891 24.1807 21.4554C24.1531 21.4351 24.1226 21.3994 24.0945 21.4118C23.9601 21.4712 23.8125 21.5085 23.7073 21.6218L23.7098 21.6221Z" fill="#0559FF"/>
<path d="M19.4109 21.1771C19.4027 21.1967 19.3743 21.2062 19.3816 21.234C19.3697 21.2415 19.3508 21.2464 19.3467 21.2566C19.3011 21.3792 19.21 21.4585 19.1052 21.5328C19.0218 21.5924 18.9218 21.6118 18.8373 21.6647L18.7933 21.6687C18.7823 21.6664 18.7711 21.6649 18.7598 21.6642C17.7701 21.6659 16.7802 21.6674 15.7903 21.6687C15.4301 21.6687 15.069 21.6807 14.7098 21.6622C14.1947 21.636 13.9085 21.1746 14.0263 20.7114C14.1175 20.3537 14.3972 20.1379 14.7991 20.1383C16.081 20.1397 17.3627 20.1417 18.6446 20.1367C19.0569 20.1351 19.4613 20.4822 19.4321 20.921C19.426 21.0066 19.4178 21.0917 19.4109 21.1771Z" fill="#0559FF"/>
<path d="M18.0649 24.5642L18.0724 24.8681C18.0817 25.2636 17.7138 25.5607 17.376 25.5626C16.4959 25.5673 15.6157 25.5709 14.7356 25.5607C14.2426 25.5551 13.9212 25.1233 14.0169 24.6455C14.0524 24.4789 14.1445 24.3295 14.2777 24.222C14.4108 24.1146 14.5771 24.0555 14.7488 24.0547C15.5834 24.0595 16.4179 24.0595 17.2525 24.0547C17.5714 24.0525 17.8245 24.1557 17.9872 24.4386C17.9915 24.4463 18.0072 24.4474 18.0177 24.4515C18.0177 24.4944 18.0095 24.5418 18.0633 24.5617L18.0649 24.5642Z" fill="#0559FF"/>
<path d="M18.663 16.2493C19.9497 16.2493 21.2373 16.2549 22.523 16.2461C22.9003 16.2434 23.2411 16.4945 23.3252 16.8588C23.4163 17.2495 23.0944 17.6943 22.7345 17.7395C22.6333 17.7534 22.5313 17.761 22.4292 17.7621H14.8343C14.5154 17.7621 14.2527 17.6559 14.0916 17.3649C13.8823 16.9866 14.0383 16.4573 14.4912 16.2965C14.5916 16.2627 14.6972 16.2467 14.8031 16.2493C16.0898 16.2493 17.3764 16.2493 18.663 16.2493Z" fill="#0559FF"/>
<path d="M27.7498 23.724C27.8838 23.8981 28.0426 24.0528 28.1517 24.247C28.2041 24.3403 28.2324 24.4476 28.3094 24.5271C28.331 24.6172 28.3624 24.7048 28.403 24.7883C28.4119 24.8301 28.3759 24.887 28.4444 24.9083L28.4504 24.9006L28.444 24.9078C28.511 25.2032 28.4927 25.5035 28.4952 25.8028C28.4937 25.8204 28.4918 25.838 28.4902 25.8556C28.4333 25.871 28.4595 25.9292 28.4349 25.9611C28.4016 26.3806 28.2071 26.7309 27.9565 27.0583C27.8473 27.202 27.717 27.3246 27.5847 27.4459C27.474 27.4861 27.394 27.5725 27.296 27.6324C26.4124 28.1719 25.3314 28.1355 24.4853 27.5342C24.4604 27.5163 24.4397 27.4806 24.398 27.4949C24.3974 27.4937 24.3965 27.4926 24.3955 27.4918C24.3944 27.491 24.3932 27.4904 24.3918 27.4901C24.3905 27.4898 24.3892 27.4897 24.3878 27.49C24.3865 27.4902 24.3852 27.4907 24.3841 27.4915C24.3785 27.4792 24.3705 27.4682 24.3606 27.4591C24.3507 27.4499 24.339 27.4428 24.3263 27.4382L24.3181 27.4312C24.3155 27.4197 24.3085 27.4097 24.2986 27.4032C24.2887 27.3968 24.2766 27.3944 24.265 27.3966C24.2707 27.3449 24.2228 27.3289 24.1953 27.3038C24.0276 27.1457 23.8943 26.9599 23.7624 26.7729C23.752 26.7151 23.7236 26.6621 23.6811 26.6211C23.6396 26.4947 23.5649 26.382 23.5326 26.2501C23.5219 26.2063 23.5253 26.1553 23.4968 26.1146C23.5055 25.9394 23.4385 25.7738 23.4376 25.5977C23.436 25.3631 23.4635 25.133 23.4936 24.9019V24.8922C23.556 24.8654 23.5291 24.8107 23.5335 24.7658C23.595 24.6169 23.6564 24.4681 23.7178 24.3195C23.8192 24.2096 23.8893 24.079 23.9654 23.9526C23.9882 23.9015 24.0565 23.8835 24.0638 23.8207C24.1729 23.7782 24.2424 23.696 24.2937 23.5949C24.2946 23.5957 24.2958 23.5963 24.297 23.5967C24.2982 23.597 24.2995 23.5971 24.3008 23.5968C24.302 23.5965 24.3032 23.596 24.3042 23.5952C24.3052 23.5943 24.3059 23.5933 24.3064 23.5921C24.3484 23.6068 24.3686 23.5696 24.3923 23.5513C24.5581 23.4235 24.7373 23.3139 24.9268 23.2243C25.0129 23.183 25.1184 23.1791 25.186 23.1008C25.2595 23.0925 25.3314 23.0741 25.3997 23.0461C25.4332 23.0506 25.467 23.0515 25.5006 23.049C26.1053 22.9361 26.6734 23.0373 27.2113 23.3277C27.4074 23.4336 27.5651 23.5903 27.7464 23.7157L27.7498 23.724ZM25.2118 24.8726C25.2045 24.8726 25.1945 24.8726 25.1904 24.8755C24.9853 25.0754 24.8887 25.572 25.0115 25.8292C25.03 25.8678 25.0102 25.934 25.0778 25.9464C25.137 26.0978 25.2465 26.2246 25.3883 26.3059C25.3949 26.3359 25.4093 26.356 25.4446 26.3511C25.4462 26.3536 25.4483 26.3557 25.4507 26.3573C25.4532 26.359 25.456 26.3601 25.4589 26.3606C25.4618 26.3611 25.4648 26.3609 25.4677 26.3602C25.4706 26.3595 25.4733 26.3581 25.4756 26.3563C25.5373 26.4452 25.6421 26.4491 25.7314 26.4692C25.982 26.5256 26.2281 26.5128 26.4506 26.3637C26.6495 26.2675 26.7967 26.1246 26.8659 25.9121C26.8773 25.9042 26.8951 25.8985 26.8992 25.8877C26.9641 25.7116 26.9811 25.5217 26.9484 25.3371C26.9211 25.1716 26.8625 25.0112 26.7311 24.8906C26.6675 24.8127 26.6121 24.7256 26.5076 24.6935C26.5028 24.6833 26.5007 24.668 26.4928 24.6639C26.18 24.5058 25.8624 24.4539 25.536 24.6253C25.4594 24.6407 25.4134 24.7019 25.3537 24.7432C25.3196 24.7477 25.2877 24.7625 25.2624 24.7856C25.237 24.8087 25.2195 24.839 25.2122 24.8724L25.2118 24.8726Z" fill="#0559FF"/>
</g>
<defs>
<clipPath id="clip0_819_43657">
<rect width="22" height="19" fill="white" transform="translate(10 12.3359)"/>
</clipPath>
</defs>
</svg>
