<svg width="20" height="20" viewBox="0 0 20 20" fill="none" xmlns="http://www.w3.org/2000/svg">
    <path fill-rule="evenodd" clip-rule="evenodd" d="M.388 2.549c-.168.073-.343.287-.373.454C.002 3.077-.004 6.2.003 9.945c.012 6.802.012 6.809.098 6.924.047.063.138.154.201.201l.115.086h19.18l.116-.086a1.19 1.19 0 0 0 .201-.201l.086-.115V2.914l-.086-.115a1.191 1.191 0 0 0-.201-.202l-.116-.086-9.54-.009c-7.87-.007-9.564.001-9.669.047zm14.376 4.262c-2.163 2.165-3.067 3.042-3.287 3.19a2.685 2.685 0 0 1-2.84.073c-.306-.182-1.74-1.571-4.276-4.141L2.28 3.826h15.466L14.764 6.81zM4.665 11.527c-.951.933-2.091 2.063-2.533 2.512l-.803.815V4.764l2.533 2.534L6.395 9.83l-1.73 1.696zm14.02-1.696v5.046L17.26 13.43a276.117 276.117 0 0 0-2.514-2.517l-1.087-1.07 2.503-2.526a597.976 597.976 0 0 1 2.513-2.529c.006-.001.01 2.268.01 5.043zM7.648 11.013c.299.235.989.557 1.422.663.529.13 1.348.13 1.877 0a4.883 4.883 0 0 0 1.472-.697l.263-.196 1.714 1.747c.943.96 2.073 2.1 2.511 2.53l.797.782H2.295l1.635-1.616c.898-.889 2.035-2.025 2.525-2.524.537-.548.91-.897.938-.88.027.016.14.102.254.19z" fill="#7A7A7A"/>
</svg>
