<svg width="88" height="88" viewBox="0 0 88 88" fill="none" xmlns="http://www.w3.org/2000/svg">
<rect x="0.587861" y="0.652802" width="86.0292" height="86.0292" rx="6.45219" fill="#F5F5F5" stroke="#ECECEC" stroke-width="0.860292"/>
<g clip-path="url(#clip0_758_1835)">
<path d="M30.572 16.5674H21.3955V25.7438H30.572V16.5674Z" fill="#0063F5"/>
<path d="M48.9245 16.5674H39.748V25.7438H48.9245V16.5674Z" fill="#0063F5"/>
<path d="M67.278 16.5674H58.1016V25.7438H67.278V16.5674Z" fill="#0063F5"/>
<path d="M30.572 31.8623H21.3955V41.0388H30.572V31.8623Z" fill="#0063F5"/>
<path d="M48.9245 31.8623H39.748V41.0388H48.9245V31.8623Z" fill="#0063F5"/>
<path d="M67.278 31.8623H58.1016V41.0388H67.278V31.8623Z" fill="#0063F5"/>
<path d="M30.572 47.1553H21.3955V56.3317H30.572V47.1553Z" fill="#0063F5"/>
<path d="M48.9245 47.1553H39.748V56.3317H48.9245V47.1553Z" fill="#0063F5"/>
<path d="M48.9245 62.4502H39.748V71.6266H48.9245V62.4502Z" fill="#0063F5"/>
<path d="M67.278 47.1553H58.1016V56.3317H67.278V47.1553Z" fill="#0063F5"/>
</g>
<defs>
<clipPath id="clip0_758_1835">
<rect width="55.0587" height="55.0587" fill="white" transform="translate(16.8071 16.5674)"/>
</clipPath>
</defs>
</svg>
