<svg width="23" height="25" viewBox="0 0 23 25" fill="none" xmlns="http://www.w3.org/2000/svg">
<g opacity="0.75">
<path d="M10.138 1.29575C10.9389 0.682668 12.052 0.682668 12.8528 1.29575L22.3594 8.56266C23.5702 9.48802 22.9207 11.4192 21.3995 11.4269H1.58941C0.0701186 11.4192 -0.581279 9.48802 0.63147 8.56266L10.138 1.29575ZM11.4945 8.07411C11.8756 8.07411 12.241 7.92272 12.5105 7.65325C12.78 7.38378 12.9314 7.01829 12.9314 6.6372C12.9314 6.25611 12.78 5.89063 12.5105 5.62116C12.241 5.35169 11.8756 5.2003 11.4945 5.2003C11.1134 5.2003 10.7479 5.35169 10.4784 5.62116C10.209 5.89063 10.0576 6.25611 10.0576 6.6372C10.0576 7.01829 10.209 7.38378 10.4784 7.65325C10.7479 7.92272 11.1134 8.07411 11.4945 8.07411Z" fill="#0559FF"/>
<path d="M2.875 13.3398V19.0875H5.74881V13.3398H2.875Z" fill="#0559FF"/>
<path d="M7.66406 13.3398V19.0875H10.5379V13.3398H7.66406Z" fill="#0559FF"/>
<path d="M12.4531 13.3398V19.0875H15.3269V13.3398H12.4531Z" fill="#0559FF"/>
<path d="M17.2422 13.3398V19.0875H20.116V13.3398H17.2422Z" fill="#0559FF"/>
<path d="M0 23.3987C0 22.0768 1.07289 21.0039 2.39484 21.0039H20.5956C21.9176 21.0039 22.9905 22.0768 22.9905 23.3987V23.8777C22.9905 24.1318 22.8896 24.3754 22.7099 24.5551C22.5303 24.7347 22.2866 24.8357 22.0326 24.8357H0.957937C0.703876 24.8357 0.460221 24.7347 0.280573 24.5551C0.100925 24.3754 0 24.1318 0 23.8777V23.3987Z" fill="#0559FF"/>
</g>
</svg>
