<svg width="37" height="36" viewBox="0 0 37 36" fill="none" xmlns="http://www.w3.org/2000/svg">
<g clip-path="url(#clip0_818_6400)">
<path d="M13.347 15.6747V14.999H0.625V15.6747C0.625 19.1822 3.47857 22.0357 6.98602 22.0357C10.4935 22.0357 13.347 19.1821 13.347 15.6747V15.6747Z" fill="#0559FF"/>
<path d="M23.9023 14.999V15.6747C23.9023 19.1822 26.7559 22.0357 30.2634 22.0357C33.7709 22.0357 36.6244 19.1822 36.6244 15.6747V14.999H23.9023Z" fill="#0559FF"/>
<path d="M6.98702 8.86605L8.43036 12.89H10.6712L8.48577 6.79695H16.5146V25.4466H20.7366V6.79695H28.7654L26.5798 12.89H28.8207L30.2641 8.86605L31.7074 12.89H33.9483L31.0063 4.68762H20.7366V2.11101C20.7366 0.945118 19.7915 0 18.6256 0C17.4597 0 16.5146 0.945118 16.5146 2.11101V4.68762H6.24482L3.30273 12.89H5.54368L6.98702 8.86605Z" fill="#0559FF"/>
<path d="M6.3125 32.833H30.9393V36.0004H6.3125V32.833Z" fill="#0559FF"/>
<path d="M8.42188 27.5557H28.8266V30.723H8.42188V27.5557Z" fill="#0559FF"/>
</g>
<defs>
<clipPath id="clip0_818_6400">
<rect width="36" height="36" fill="white" transform="translate(0.625)"/>
</clipPath>
</defs>
</svg>
