<svg width="25" height="24" viewBox="0 0 25 24" fill="none" xmlns="http://www.w3.org/2000/svg">
<circle cx="12.3398" cy="12" r="12" fill="#E5EEFE"/>
<path d="M16.4292 8.61213C15.1834 8.54609 14.0604 8.16822 13.0339 7.4578C13.0339 10.4105 13.0339 13.3498 13.0339 16.3066C13.1844 16.3066 13.3381 16.3066 13.4918 16.3066C13.7746 16.3066 14.0573 16.3056 14.3399 16.3069C15.0481 16.31 15.466 16.9487 15.1887 17.6029C15.1834 17.6154 15.1802 17.6288 15.1687 17.6644C15.3719 17.6644 15.5662 17.6596 15.7601 17.6654C16.0886 17.6753 16.3594 17.9225 16.4079 18.2488C16.4538 18.5572 16.2686 18.8709 15.9693 18.9754C15.8867 19.0043 15.7947 19.0189 15.707 19.0189C13.4642 19.0213 11.2214 19.0213 8.97865 19.0202C8.57229 19.02 8.26808 18.7214 8.2717 18.3342C8.27524 17.9548 8.57937 17.6666 8.98031 17.664C9.15439 17.6629 9.32855 17.6638 9.47511 17.6638C9.4534 17.467 9.39639 17.2704 9.41796 17.0829C9.47058 16.625 9.85131 16.3109 10.3155 16.3074C10.7489 16.3041 11.1824 16.306 11.6159 16.3054C11.625 16.3054 11.634 16.302 11.6535 16.298C11.6535 13.359 11.6535 10.4181 11.6535 7.45682C10.6307 8.16491 9.50564 8.54744 8.25602 8.61168C8.28029 8.67531 8.29673 8.7222 8.31581 8.76804C8.93598 10.2574 9.54801 11.7502 10.1834 13.2331C10.32 13.5519 10.315 13.851 10.2395 14.1664C9.95746 15.3441 8.88742 16.1397 7.67354 16.0775C6.49004 16.0168 5.51009 15.0979 5.35124 13.9086C5.32229 13.6918 5.348 13.4965 5.43395 13.2925C6.06762 11.7883 6.69201 10.2803 7.31912 8.77332C7.33835 8.72703 7.35569 8.67998 7.38041 8.61665C7.31897 8.61665 7.27743 8.61402 7.23634 8.61703C6.73974 8.65322 6.46305 8.27468 6.46109 7.94061C6.4592 7.62261 6.71749 7.24769 7.24531 7.2541C8.41849 7.26842 9.51695 6.96874 10.5379 6.38912C11.1241 6.05634 11.6454 5.64139 12.1045 5.14817C12.2893 4.94982 12.3959 4.95163 12.5812 5.1475C13.6837 6.31358 15.0294 7.00613 16.6229 7.20517C16.9164 7.24181 17.2143 7.25017 17.5105 7.25779C17.9192 7.26827 18.224 7.55408 18.2226 7.94077C18.2212 8.32715 17.9168 8.61394 17.505 8.61658C17.4448 8.61695 17.3845 8.61665 17.3046 8.61665C17.3294 8.68028 17.3469 8.72741 17.3661 8.7737C17.9862 10.263 18.5984 11.7557 19.2334 13.2387C19.368 13.5529 19.3613 13.8482 19.2888 14.1589C19.0169 15.3234 17.9679 16.1174 16.7568 16.0788C15.608 16.0422 14.614 15.1657 14.4118 14.0145C14.3651 13.7486 14.388 13.503 14.4971 13.2464C15.1319 11.753 15.7518 10.2533 16.3765 8.75568C16.3925 8.71715 16.4054 8.67719 16.4292 8.61213ZM16.866 8.75228C16.2166 10.3111 15.5834 11.8309 14.9471 13.3582C16.2331 13.3582 17.501 13.3582 18.785 13.3582C18.1475 11.8283 17.5154 10.311 16.866 8.75228ZM5.89927 13.3597C7.1856 13.3597 8.45332 13.3597 9.73868 13.3597C9.10071 11.8287 8.46764 10.3094 7.81897 8.75266C7.17037 10.3091 6.53738 11.8282 5.89927 13.3597ZM12.3227 5.5905C12.1301 5.76164 11.93 5.95532 11.7137 6.12895C10.4067 7.17787 8.9123 7.70238 7.23687 7.71195C7.0208 7.71316 6.91366 7.78885 6.91547 7.94069C6.91728 8.09147 7.02329 8.16445 7.24207 8.1643C7.52947 8.16408 7.81701 8.16845 8.10433 8.16174C9.18734 8.13663 10.1981 7.85188 11.1093 7.26465C11.4673 7.03395 11.7911 6.74844 12.1205 6.47575C12.307 6.32135 12.387 6.31072 12.5652 6.48088C12.5993 6.51344 12.6325 6.54684 12.6672 6.57873C13.4977 7.34359 14.4664 7.83446 15.5742 8.05619C16.1894 8.17931 16.811 8.16476 17.4324 8.16438C17.6617 8.16423 17.7706 8.09072 17.7696 7.93685C17.7686 7.78244 17.6631 7.71323 17.43 7.71195C15.9925 7.70373 14.6689 7.31222 13.4814 6.5007C13.0789 6.22575 12.7122 5.89877 12.3227 5.5905ZM5.8094 13.8259C5.86481 14.6788 6.66193 15.6455 7.85018 15.6261C9.06437 15.6062 9.78858 14.6 9.82673 13.8259C8.49033 13.8259 7.15432 13.8259 5.8094 13.8259ZM14.8573 13.8235C14.9069 14.6868 15.7403 15.692 16.9921 15.6247C17.9623 15.5726 18.9455 14.627 18.8638 13.8235C17.5325 13.8235 16.2007 13.8235 14.8573 13.8235ZM12.3379 17.6638C12.9927 17.6638 13.6476 17.664 14.3024 17.6633C14.3587 17.6632 14.4164 17.6644 14.471 17.6527C14.6989 17.6039 14.8526 17.39 14.8279 17.1627C14.8032 16.9357 14.6134 16.7613 14.3745 16.7602C13.7338 16.7571 13.0931 16.7591 12.4524 16.7591C11.7458 16.7591 11.0391 16.7594 10.3325 16.7589C10.1285 16.7588 9.97639 16.8459 9.893 17.0323C9.75647 17.3375 9.98106 17.6615 10.3309 17.6629C11 17.6656 11.6689 17.6637 12.3379 17.6638ZM12.3433 6.91295C12.1808 7.00093 12.1107 7.11899 12.1111 7.31742C12.1185 10.2514 12.1162 13.1854 12.1162 16.1194C12.1162 16.1788 12.1162 16.2381 12.1162 16.296C12.2772 16.296 12.4201 16.296 12.5686 16.296C12.5686 16.2291 12.5686 16.1729 12.5686 16.1167C12.5686 13.1828 12.5662 10.2487 12.5739 7.31479C12.5744 7.11477 12.5007 7.00003 12.3433 6.91295ZM12.3567 18.1161C11.2542 18.1161 10.1517 18.116 9.04907 18.1163C9.00202 18.1163 8.95324 18.1116 8.90831 18.1221C8.79454 18.1486 8.72646 18.2232 8.72624 18.3419C8.72601 18.4608 8.79447 18.5351 8.90778 18.5624C8.95264 18.5731 9.00149 18.5683 9.04854 18.5683C11.2442 18.5685 13.4399 18.5685 15.6355 18.5684C15.6779 18.5684 15.7214 18.5726 15.7625 18.5648C15.8839 18.542 15.9581 18.4674 15.9582 18.3424C15.9583 18.2176 15.8849 18.142 15.7631 18.1198C15.7173 18.1115 15.6692 18.1162 15.622 18.1162C14.5335 18.116 13.4451 18.1161 12.3567 18.1161Z" fill="#0559FF"/>
</svg>
