<svg width="180" height="181" viewBox="0 0 180 181" fill="none" xmlns="http://www.w3.org/2000/svg">
<g clip-path="url(#clip0_819_47071)">
<path d="M151.871 8.07953V173.593C151.871 177.595 148.63 180.836 144.628 180.836H22.7748C18.773 180.836 15.5312 177.595 15.5312 173.593V8.07953C15.5312 4.07734 18.7727 0.835938 22.7748 0.835938H52.7484V11.3209C52.7484 13.3238 54.3708 14.9427 56.3702 14.9427H111.395C113.394 14.9427 115.017 13.3238 115.017 11.3209V0.835938H144.628C148.63 0.835938 151.871 4.07734 151.871 8.07953Z" fill="#E6E5E0"/>
<path d="M151.875 8.07953V173.593C151.875 177.595 148.63 180.836 144.631 180.836H137.5C141.498 180.836 144.744 177.595 144.744 173.593V8.07953C144.743 4.07734 141.498 0.835938 137.5 0.835938H144.631C148.629 0.835938 151.875 4.07734 151.875 8.07953Z" fill="#D6D5D0"/>
<path d="M140.106 15.1819V166.241C140.106 168.117 138.585 169.638 136.705 169.638H30.6936C28.8138 169.638 27.2891 168.117 27.2891 166.241V15.1819C27.2891 13.306 28.8138 11.7812 30.6936 11.7812H52.7752C52.9999 13.5668 54.5246 14.9432 56.3678 14.9432H111.393C113.236 14.9432 114.761 13.5668 114.985 11.7812H136.705C138.585 11.7812 140.106 13.306 140.106 15.1819Z" fill="white"/>
<path d="M48.3906 11.7812V21.7955C48.3906 23.7948 50.0131 25.4173 52.0124 25.4173H54.0694V30.2703C54.0694 34.9098 57.8431 38.6835 62.4827 38.6835H104.922C109.562 38.6835 113.335 34.9098 113.335 30.2703V25.417H115.392C117.392 25.417 119.014 23.7945 119.014 21.7952V11.7812H48.3906ZM107.903 30.2703C107.903 31.9145 106.566 33.2508 104.922 33.2508H62.4827C60.8384 33.2508 59.5021 31.9145 59.5021 30.2703V25.417H107.903V30.2703Z" fill="#EFE2DD"/>
<path d="M140.107 15.1812V166.239C140.107 168.115 138.584 169.639 136.707 169.639H128.836C130.713 169.639 132.236 168.115 132.236 166.239V15.1812C132.236 13.3046 130.713 11.7812 128.836 11.7812H136.707C138.584 11.7812 140.107 13.3042 140.107 15.1812Z" fill="#EFE2DD"/>
<path d="M124.045 51.6589H36.3255C34.8254 51.6589 33.6094 50.4429 33.6094 48.9427C33.6094 47.4426 34.8254 46.2266 36.3255 46.2266H124.045C125.545 46.2266 126.761 47.4426 126.761 48.9427C126.761 50.4429 125.545 51.6589 124.045 51.6589Z" fill="#E6E5E0"/>
<path d="M63.3257 88.0027H62.9584C61.4582 88.0027 60.2422 86.7866 60.2422 85.2865C60.2422 83.7864 61.4582 82.5703 62.9584 82.5703H63.3257C64.8259 82.5703 66.0419 83.7864 66.0419 85.2865C66.0419 86.7866 64.8259 88.0027 63.3257 88.0027Z" fill="#E6E5E0"/>
<path d="M71.9273 88.0027H71.5599C70.0598 88.0027 68.8438 86.7866 68.8438 85.2865C68.8438 83.7864 70.0598 82.5703 71.5599 82.5703H71.9273C73.4274 82.5703 74.6435 83.7864 74.6435 85.2865C74.6435 86.7866 73.4274 88.0027 71.9273 88.0027Z" fill="#E6E5E0"/>
<path d="M80.5211 88.0027H80.1537C78.6536 88.0027 77.4375 86.7866 77.4375 85.2865C77.4375 83.7864 78.6536 82.5703 80.1537 82.5703H80.5211C82.0212 82.5703 83.2372 83.7864 83.2372 85.2865C83.2372 86.7866 82.0212 88.0027 80.5211 88.0027Z" fill="#E6E5E0"/>
<path d="M89.1226 88.0027H88.7552C87.2551 88.0027 86.0391 86.7866 86.0391 85.2865C86.0391 83.7864 87.2551 82.5703 88.7552 82.5703H89.1226C90.6227 82.5703 91.8388 83.7864 91.8388 85.2865C91.8388 86.7866 90.6227 88.0027 89.1226 88.0027Z" fill="#E6E5E0"/>
<path d="M121.13 77.3503H61.974C60.4739 77.3503 59.2578 76.1343 59.2578 74.6341C59.2578 73.134 60.4739 71.918 61.974 71.918H121.13C122.63 71.918 123.846 73.134 123.846 74.6341C123.847 76.1343 122.63 77.3503 121.13 77.3503Z" fill="#E6E5E0"/>
<path d="M77.9184 67.1511H61.974C60.4739 67.1511 59.2578 65.9351 59.2578 64.4349C59.2578 62.9348 60.4739 61.7188 61.974 61.7188H77.9184C79.4185 61.7188 80.6346 62.9348 80.6346 64.4349C80.6346 65.9351 79.4185 67.1511 77.9184 67.1511Z" fill="#E6E5E0"/>
<path d="M104.925 35.4232H62.4839C57.8447 35.4232 54.0703 31.6492 54.0703 27.0096V17.8099C54.0703 16.3098 55.2864 15.0938 56.7865 15.0938C58.2866 15.0938 59.5027 16.3098 59.5027 17.8099V27.01C59.5027 28.6535 60.84 29.9909 62.4836 29.9909H104.924C106.568 29.9909 107.905 28.6535 107.905 27.01V17.8099C107.905 16.3098 109.121 15.0938 110.621 15.0938C112.121 15.0938 113.337 16.3098 113.337 17.8099V27.01C113.338 31.6492 109.563 35.4232 104.925 35.4232Z" fill="#9B9B9B"/>
<path d="M115.393 19.9831H52.0124C50.012 19.9831 48.3906 18.3617 48.3906 16.3613V0.835938H119.014V16.3613C119.014 18.3613 117.393 19.9831 115.393 19.9831Z" fill="#529FFF"/>
<path d="M119.011 0.835938V16.3623C119.011 18.3617 117.388 19.9841 115.389 19.9841H108.258C110.257 19.9841 111.88 18.3617 111.88 16.3623V0.835938H119.011Z" fill="#2B79DA"/>
<path d="M61.2996 13.1277H60.9505C59.4504 13.1277 58.2344 11.9116 58.2344 10.4115C58.2344 8.91137 59.4504 7.69531 60.9505 7.69531H61.2996C62.7998 7.69531 64.0158 8.91137 64.0158 10.4115C64.0158 11.9116 62.7998 13.1277 61.2996 13.1277Z" fill="#2B79DA"/>
<path d="M106.448 13.1277H106.099C104.599 13.1277 103.383 11.9116 103.383 10.4115C103.383 8.91137 104.599 7.69531 106.099 7.69531H106.448C107.948 7.69531 109.164 8.91137 109.164 10.4115C109.164 11.9116 107.948 13.1277 106.448 13.1277Z" fill="#2B79DA"/>
<path d="M48.1498 78.5622H37.6468C36.6466 78.5622 35.8359 77.7515 35.8359 76.7513V66.2484C35.8359 65.2482 36.6466 64.4375 37.6468 64.4375H48.1498C49.15 64.4375 49.9607 65.2482 49.9607 66.2484V76.7513C49.9607 77.7512 49.15 78.5622 48.1498 78.5622Z" fill="#529FFF"/>
<path d="M63.3257 124.296H62.9584C61.4582 124.296 60.2422 123.08 60.2422 121.579C60.2422 120.079 61.4582 118.863 62.9584 118.863H63.3257C64.8259 118.863 66.0419 120.079 66.0419 121.579C66.0423 123.08 64.8259 124.296 63.3257 124.296Z" fill="#E6E5E0"/>
<path d="M71.9273 124.296H71.5599C70.0598 124.296 68.8438 123.08 68.8438 121.579C68.8438 120.079 70.0598 118.863 71.5599 118.863H71.9273C73.4274 118.863 74.6435 120.079 74.6435 121.579C74.6435 123.08 73.4274 124.296 71.9273 124.296Z" fill="#E6E5E0"/>
<path d="M80.5289 124.296H80.1615C78.6614 124.296 77.4453 123.08 77.4453 121.579C77.4453 120.079 78.6614 118.863 80.1615 118.863H80.5289C82.029 118.863 83.245 120.079 83.245 121.579C83.2454 123.08 82.029 124.296 80.5289 124.296Z" fill="#E6E5E0"/>
<path d="M89.1226 124.296H88.7552C87.2551 124.296 86.0391 123.08 86.0391 121.579C86.0391 120.079 87.2551 118.863 88.7552 118.863H89.1226C90.6227 118.863 91.8388 120.079 91.8388 121.579C91.8388 123.08 90.6227 124.296 89.1226 124.296Z" fill="#E6E5E0"/>
<path d="M121.13 113.643H61.974C60.4739 113.643 59.2578 112.427 59.2578 110.927C59.2578 109.427 60.4739 108.211 61.974 108.211H121.13C122.63 108.211 123.846 109.427 123.846 110.927C123.847 112.427 122.63 113.643 121.13 113.643Z" fill="#E6E5E0"/>
<path d="M77.9184 103.444H61.974C60.4739 103.444 59.2578 102.228 59.2578 100.728C59.2578 99.2278 60.4739 98.0117 61.974 98.0117H77.9184C79.4185 98.0117 80.6346 99.2278 80.6346 100.728C80.6346 102.228 79.4185 103.444 77.9184 103.444Z" fill="#E6E5E0"/>
<path d="M48.1498 114.851H37.6468C36.6466 114.851 35.8359 114.041 35.8359 113.04V102.537C35.8359 101.537 36.6466 100.727 37.6468 100.727H48.1498C49.15 100.727 49.9607 101.537 49.9607 102.537V113.04C49.9607 114.041 49.15 114.851 48.1498 114.851Z" fill="#529FFF"/>
<path d="M63.3257 161.417H62.9584C61.4582 161.417 60.2422 160.201 60.2422 158.701C60.2422 157.2 61.4582 155.984 62.9584 155.984H63.3257C64.8259 155.984 66.0419 157.2 66.0419 158.701C66.0423 160.201 64.8259 161.417 63.3257 161.417Z" fill="#E6E5E0"/>
<path d="M71.9273 161.417H71.5599C70.0598 161.417 68.8438 160.201 68.8438 158.701C68.8438 157.2 70.0598 155.984 71.5599 155.984H71.9273C73.4274 155.984 74.6435 157.2 74.6435 158.701C74.6435 160.201 73.4274 161.417 71.9273 161.417Z" fill="#E6E5E0"/>
<path d="M80.5289 161.417H80.1615C78.6614 161.417 77.4453 160.201 77.4453 158.701C77.4453 157.2 78.6614 155.984 80.1615 155.984H80.5289C82.029 155.984 83.245 157.2 83.245 158.701C83.2454 160.201 82.029 161.417 80.5289 161.417Z" fill="#E6E5E0"/>
<path d="M89.1226 161.417H88.7552C87.2551 161.417 86.0391 160.201 86.0391 158.701C86.0391 157.2 87.2551 155.984 88.7552 155.984H89.1226C90.6227 155.984 91.8388 157.2 91.8388 158.701C91.8388 160.201 90.6227 161.417 89.1226 161.417Z" fill="#E6E5E0"/>
<path d="M121.13 150.764H61.974C60.4739 150.764 59.2578 149.548 59.2578 148.048C59.2578 146.548 60.4739 145.332 61.974 145.332H121.13C122.63 145.332 123.846 146.548 123.846 148.048C123.847 149.548 122.63 150.764 121.13 150.764Z" fill="#E6E5E0"/>
<path d="M77.9184 140.565H61.974C60.4739 140.565 59.2578 139.349 59.2578 137.849C59.2578 136.349 60.4739 135.133 61.974 135.133H77.9184C79.4185 135.133 80.6346 136.349 80.6346 137.849C80.6346 139.349 79.4185 140.565 77.9184 140.565Z" fill="#E6E5E0"/>
<path d="M48.1498 151.972H37.6468C36.6466 151.972 35.8359 151.162 35.8359 150.161V139.659C35.8359 138.658 36.6466 137.848 37.6468 137.848H48.1498C49.15 137.848 49.9607 138.658 49.9607 139.659V150.161C49.9607 151.162 49.15 151.972 48.1498 151.972Z" fill="#529FFF"/>
</g>
<defs>
<clipPath id="clip0_819_47071">
<rect width="180" height="180" fill="white" transform="translate(0 0.835938)"/>
</clipPath>
</defs>
</svg>
