<svg width="328" height="182" viewBox="0 0 328 182" fill="none" xmlns="http://www.w3.org/2000/svg">
    <g clip-path="url(#cswy8bmzxa)">
        <path d="M313.406 181.552c-17.745 0-284.15.063-284.298-.398l-.025-.059a.306.306 0 0 1-.025-.086c-.099-.231-51.3-20.829-17.55-66.927C29.2 89.926-2.376 52.944 35.218 20.312c58.915-51.135 115.136 11.849 138.967 0 20.031-9.96 52.221-24.231 84.896-11.434 8.98 3.518 28.417 21.156 12.275 50.82-8.067 14.822 27.732 16.543 40.826 32.291 28.519 34.296 11.849 89.563 1.225 89.563z" fill="#EBF3FA"/>
        <g opacity=".5">
            <path opacity=".5" d="M213.992 74.97s-3.421-27.074 6.146-46.125c1.272-2.531 5.033-2.059 5.661.704l.031.14c1 4.733-9.163 28.28-11.838 45.28z" fill="#AEC3FF"/>
            <path opacity=".5" d="M214.232 82.905s5.233-36.21 24.556-56.462c1.178-1.236 3.154-1.387 4.433-.257.832.737 1.46 2.057 1.309 4.396-.385 6.236-21.125 32.07-30.298 52.323z" fill="#AEC3FF"/>
        </g>
        <g opacity=".4">
            <path opacity=".4" d="M41.088 92.522h11.464c1.009 0 1.827-.817 1.827-1.825V42.49a1.826 1.826 0 0 0-1.827-1.826H41.088c-1.009 0-1.827.818-1.827 1.826v48.206c0 1.008.818 1.825 1.827 1.825z" fill="#8C9DF4"/>
            <path opacity=".4" d="M50.365 81.338a3.539 3.539 0 0 0-2.187-3.272 3.547 3.547 0 0 0-4.833 2.58 3.538 3.538 0 0 0 1.507 3.635 3.546 3.546 0 0 0 5.513-2.943z" fill="#505ABA"/>
            <path opacity=".4" d="M46.82 85.276a3.92 3.92 0 0 1-3.62-2.417 3.912 3.912 0 0 1 2.856-5.338 3.923 3.923 0 0 1 4.023 1.664c.43.644.66 1.401.66 2.175a3.918 3.918 0 0 1-3.918 3.916zm0-7.081a3.17 3.17 0 0 0-2.926 1.954 3.162 3.162 0 0 0 2.309 4.316 3.171 3.171 0 0 0 3.252-1.346 3.164 3.164 0 0 0-.394-3.998 3.173 3.173 0 0 0-2.24-.929v.003z" fill="#fff"/>
            <path opacity=".4" d="M43.067 72.188h7.504a.674.674 0 0 0 .675-.675v-27.8a.674.674 0 0 0-.675-.675h-7.504a.674.674 0 0 0-.674.674v27.801c0 .373.302.674.674.674z" fill="#AEC3FF"/>
            <path opacity=".4" d="M43.967 45.262h5.523c.297 0 .538-.24.538-.537v-.095a.538.538 0 0 0-.538-.537h-5.523a.538.538 0 0 0-.537.537v.095c0 .296.24.537.537.537z" fill="#F99746"/>
            <path opacity=".4" d="M47.951 62.721v6.008a.291.291 0 1 0 .584 0V62.72a.293.293 0 0 0-.562-.112.291.291 0 0 0-.022.112zM47.951 54.455v6.011a.29.29 0 0 0 .404.27.292.292 0 0 0 .18-.27v-6.011a.293.293 0 0 0-.584 0zM44.596 62.721v6.008a.293.293 0 0 0 .585 0V62.72a.292.292 0 1 0-.585 0zM44.596 54.455v6.011a.292.292 0 0 0 .292.292.293.293 0 0 0 .288-.292v-6.011a.293.293 0 0 0-.294-.292.293.293 0 0 0-.286.292zM46.342 61.026v7.703a.29.29 0 0 0 .292.293.293.293 0 0 0 .292-.293v-7.703a.294.294 0 0 0-.29-.295.29.29 0 0 0-.294.295zM46.342 50.634v7.71a.293.293 0 0 0 .292.291.293.293 0 0 0 .292-.292v-7.71a.29.29 0 0 0-.292-.291.291.291 0 0 0-.292.292z" fill="#505ABA"/>
            <path opacity=".4" d="M59.942 92.522h11.463c1.01 0 1.827-.817 1.827-1.825V42.49a1.826 1.826 0 0 0-1.827-1.826H59.942c-1.01 0-1.828.818-1.828 1.826v48.206c0 1.008.819 1.825 1.828 1.825z" fill="#8C9DF4"/>
            <path opacity=".4" d="M69.219 81.338a3.54 3.54 0 0 0-2.188-3.272 3.546 3.546 0 0 0-4.833 2.58 3.538 3.538 0 0 0 1.508 3.636 3.547 3.547 0 0 0 5.513-2.944z" fill="#505ABA"/>
            <path opacity=".4" d="M65.676 85.276a3.922 3.922 0 0 1-3.622-2.416 3.912 3.912 0 0 1 2.855-5.34 3.922 3.922 0 0 1 4.023 1.665 3.913 3.913 0 0 1-3.256 6.09zm0-7.081a3.17 3.17 0 0 0-2.928 1.953 3.163 3.163 0 0 0 2.308 4.317 3.17 3.17 0 0 0 3.787-3.105 3.167 3.167 0 0 0-3.167-3.168v.003z" fill="#fff"/>
            <path opacity=".4" d="M61.92 72.188h7.504a.674.674 0 0 0 .675-.675v-27.8a.674.674 0 0 0-.675-.675H61.92a.674.674 0 0 0-.674.674v27.801c0 .373.302.674.674.674z" fill="#AEC3FF"/>
            <path opacity=".4" d="M62.82 45.262h5.523c.297 0 .538-.24.538-.537v-.095a.538.538 0 0 0-.538-.537H62.82a.538.538 0 0 0-.537.537v.095c0 .296.24.537.537.537z" fill="#F99746"/>
            <path opacity=".4" d="M66.804 62.721v6.008a.292.292 0 1 0 .584 0V62.72a.292.292 0 1 0-.584 0zM66.804 54.455v6.011a.29.29 0 0 0 .292.292.292.292 0 0 0 .292-.292v-6.011a.291.291 0 0 0-.404-.27.293.293 0 0 0-.18.27zM63.449 62.721v6.008a.294.294 0 0 0 .585 0V62.72a.292.292 0 1 0-.585 0zM63.449 54.455v6.011a.291.291 0 0 0 .583 0v-6.011a.293.293 0 0 0-.294-.292.294.294 0 0 0-.29.292zM65.195 61.026v7.703a.294.294 0 0 0 .499.208.293.293 0 0 0 .085-.208v-7.703a.292.292 0 1 0-.584 0zM65.195 50.634v7.71a.293.293 0 0 0 .499.206.291.291 0 0 0 .085-.207v-7.71a.29.29 0 0 0-.404-.269.292.292 0 0 0-.18.27z" fill="#505ABA"/>
            <path opacity=".4" d="M79.156 92.522H90.62c1.01 0 1.827-.817 1.827-1.825V42.49a1.826 1.826 0 0 0-1.827-1.826H79.156c-1.009 0-1.827.818-1.827 1.826v48.206c0 1.008.818 1.825 1.828 1.825z" fill="#8C9DF4"/>
            <path opacity=".4" d="M88.431 81.338a3.54 3.54 0 0 0-2.187-3.272 3.546 3.546 0 0 0-4.833 2.58 3.538 3.538 0 0 0 1.508 3.636 3.547 3.547 0 0 0 5.512-2.944z" fill="#505ABA"/>
            <path opacity=".4" d="M84.888 85.276a3.921 3.921 0 0 1-3.62-2.417 3.912 3.912 0 0 1 2.856-5.338 3.922 3.922 0 0 1 4.022 1.664 3.913 3.913 0 0 1-3.258 6.09zm0-7.081a3.17 3.17 0 0 0-2.928 1.953 3.163 3.163 0 0 0 2.308 4.317 3.172 3.172 0 0 0 3.253-1.346 3.164 3.164 0 0 0-.393-3.997 3.172 3.172 0 0 0-2.24-.93v.003z" fill="#fff"/>
            <path opacity=".4" d="M81.133 72.188h7.504a.674.674 0 0 0 .674-.675v-27.8a.674.674 0 0 0-.674-.675h-7.504a.674.674 0 0 0-.674.674v27.801c0 .373.302.674.674.674z" fill="#AEC3FF"/>
            <path opacity=".4" d="M82.033 45.262h5.523c.297 0 .538-.24.538-.537v-.095a.538.538 0 0 0-.538-.537h-5.523a.538.538 0 0 0-.537.537v.095c0 .296.24.537.537.537z" fill="#F99746"/>
            <path opacity=".4" d="M86.018 62.721v6.008a.293.293 0 0 0 .562.112.293.293 0 0 0 .022-.112V62.72a.293.293 0 0 0-.292-.293.293.293 0 0 0-.292.293zM86.018 54.455v6.011a.292.292 0 0 0 .292.292.292.292 0 0 0 .296-.292v-6.011a.291.291 0 0 0-.292-.292.293.293 0 0 0-.296.292zM82.662 62.721v6.008a.293.293 0 1 0 .585 0V62.72a.293.293 0 1 0-.585 0zM82.662 54.455v6.011a.291.291 0 0 0 .293.292.292.292 0 0 0 .292-.292v-6.011a.293.293 0 0 0-.585 0zM84.408 61.026v7.703a.293.293 0 0 0 .585 0v-7.703a.293.293 0 1 0-.585 0zM84.408 50.634v7.71a.293.293 0 0 0 .585 0v-7.71a.29.29 0 0 0-.293-.292.293.293 0 0 0-.292.292z" fill="#505ABA"/>
            <path opacity=".4" d="M110.405 92.522H98.94a1.827 1.827 0 0 1-1.825-1.824V42.491a1.825 1.825 0 0 1 1.827-1.826h11.463a1.826 1.826 0 0 1 1.827 1.826v48.207a1.825 1.825 0 0 1-1.827 1.825z" fill="#8C9DF4"/>
            <path opacity=".4" d="M100.92 72.188h7.504a.674.674 0 0 0 .674-.675v-27.8a.674.674 0 0 0-.674-.675h-7.504a.674.674 0 0 0-.675.674v27.801c0 .373.302.674.675.674z" fill="#AEC3FF"/>
            <path opacity=".4" d="M101.82 45.262h5.523c.297 0 .538-.24.538-.537v-.095a.538.538 0 0 0-.538-.537h-5.523a.537.537 0 0 0-.537.537v.095c0 .296.24.537.537.537z" fill="#F99746"/>
            <path opacity=".4" d="M118.038 92.522h11.463c1.01 0 1.828-.817 1.828-1.825V42.49a1.826 1.826 0 0 0-1.828-1.826h-11.463a1.826 1.826 0 0 0-1.827 1.826v48.206c0 1.008.818 1.825 1.827 1.825z" fill="#8C9DF4"/>
            <path opacity=".4" d="M120.016 72.188h7.504a.674.674 0 0 0 .675-.675v-27.8a.674.674 0 0 0-.675-.675h-7.504a.674.674 0 0 0-.674.674v27.801c0 .373.302.674.674.674z" fill="#AEC3FF"/>
            <path opacity=".4" d="M120.915 45.262h5.523c.297 0 .538-.24.538-.537v-.095a.538.538 0 0 0-.538-.537h-5.523a.538.538 0 0 0-.538.537v.095c0 .296.241.537.538.537z" fill="#F99746"/>
            <path opacity=".4" d="M52.552 151.176H41.088a1.829 1.829 0 0 1-1.827-1.825v-48.21a1.825 1.825 0 0 1 1.826-1.825h11.465a1.828 1.828 0 0 1 1.827 1.825v48.211a1.824 1.824 0 0 1-1.827 1.824z" fill="#8C9DF4"/>
            <path opacity=".4" d="M46.821 143.533a3.54 3.54 0 1 0 0-7.079 3.54 3.54 0 1 0 0 7.079z" fill="#505ABA"/>
            <path opacity=".4" d="M46.82 143.927a3.923 3.923 0 0 1-3.62-2.417 3.915 3.915 0 0 1 5.121-5.115 3.922 3.922 0 0 1 2.419 3.618 3.923 3.923 0 0 1-3.919 3.914zm0-7.079a3.168 3.168 0 0 0-3.106 3.783 3.167 3.167 0 1 0 5.347-2.855 3.168 3.168 0 0 0-2.24-.928z" fill="#fff"/>
            <path opacity=".4" d="M43.067 130.842h7.504a.674.674 0 0 0 .675-.674v-27.801a.674.674 0 0 0-.675-.674h-7.504a.674.674 0 0 0-.674.674v27.801c0 .372.302.674.674.674z" fill="#AEC3FF"/>
            <path opacity=".4" d="M43.967 103.917h5.523c.297 0 .538-.24.538-.537v-.094a.537.537 0 0 0-.538-.537h-5.523a.537.537 0 0 0-.537.537v.094c0 .297.24.537.537.537z" fill="#F99746"/>
            <path opacity=".4" d="M47.951 121.377v6.008a.285.285 0 0 0 .085.206.286.286 0 0 0 .207.085.286.286 0 0 0 .207-.085.287.287 0 0 0 .085-.206v-6.008a.295.295 0 0 0-.292-.293.307.307 0 0 0-.112.022.3.3 0 0 0-.158.159.294.294 0 0 0-.022.112zM47.951 113.11v6.009a.296.296 0 0 0 .086.206c.027.027.06.049.095.064a.295.295 0 0 0 .404-.27v-6.009a.288.288 0 0 0-.086-.206.284.284 0 0 0-.095-.063.287.287 0 0 0-.224-.001.3.3 0 0 0-.095.063.294.294 0 0 0-.085.207zM44.596 121.377v6.008a.29.29 0 0 0 .18.269.286.286 0 0 0 .112.022.287.287 0 0 0 .27-.179.295.295 0 0 0 .023-.112v-6.008a.292.292 0 0 0-.293-.293.291.291 0 0 0-.292.293zM44.596 113.11v6.009a.294.294 0 0 0 .292.292.293.293 0 0 0 .293-.292v-6.009a.295.295 0 0 0-.181-.27.291.291 0 0 0-.404.27zM46.342 119.682v7.703a.294.294 0 0 0 .085.207.298.298 0 0 0 .207.085.299.299 0 0 0 .27-.18.294.294 0 0 0 .022-.112v-7.703a.287.287 0 0 0-.085-.207.286.286 0 0 0-.207-.086.288.288 0 0 0-.27.181.287.287 0 0 0-.022.112zM46.342 109.289v7.703a.29.29 0 0 0 .404.27.283.283 0 0 0 .158-.158.29.29 0 0 0 .022-.112v-7.703a.294.294 0 0 0-.18-.271.307.307 0 0 0-.224 0 .3.3 0 0 0-.158.159.294.294 0 0 0-.022.112z" fill="#505ABA"/>
            <path opacity=".4" d="M71.405 151.176H59.94a1.829 1.829 0 0 1-1.827-1.825v-48.21a1.825 1.825 0 0 1 1.826-1.825h11.466a1.828 1.828 0 0 1 1.827 1.825v48.211a1.824 1.824 0 0 1-1.827 1.824z" fill="#8C9DF4"/>
            <path opacity=".4" d="M69.219 139.992a3.538 3.538 0 0 0-2.189-3.271 3.543 3.543 0 0 0-4.63 4.627 3.543 3.543 0 0 0 3.276 2.185 3.544 3.544 0 0 0 3.543-3.541z" fill="#505ABA"/>
            <path opacity=".4" d="M65.676 143.927a3.924 3.924 0 0 1-3.622-2.416 3.913 3.913 0 0 1 2.856-5.339 3.918 3.918 0 0 1 4.683 3.841 3.922 3.922 0 0 1-3.917 3.914zm0-7.079a3.169 3.169 0 0 0-2.928 1.953 3.163 3.163 0 0 0 2.308 4.317 3.175 3.175 0 0 0 3.253-1.346 3.165 3.165 0 0 0-.394-3.996 3.174 3.174 0 0 0-2.24-.928z" fill="#fff"/>
            <path opacity=".4" d="M61.92 130.842h7.504a.674.674 0 0 0 .675-.674v-27.801a.674.674 0 0 0-.675-.674H61.92a.674.674 0 0 0-.674.674v27.801c0 .372.302.674.674.674z" fill="#AEC3FF"/>
            <path opacity=".4" d="M62.82 103.917h5.523c.297 0 .538-.24.538-.537v-.094a.537.537 0 0 0-.538-.537H62.82a.537.537 0 0 0-.537.537v.094c0 .297.24.537.537.537z" fill="#F99746"/>
            <path opacity=".4" d="M66.804 121.377v6.008a.285.285 0 0 0 .085.206.287.287 0 0 0 .207.085.286.286 0 0 0 .27-.18.285.285 0 0 0 .022-.111v-6.008a.294.294 0 0 0-.18-.271.307.307 0 0 0-.224 0 .3.3 0 0 0-.158.159.294.294 0 0 0-.022.112zM66.804 113.11v6.009a.292.292 0 1 0 .584 0v-6.009a.294.294 0 0 0-.085-.207.299.299 0 0 0-.207-.085.298.298 0 0 0-.27.18.294.294 0 0 0-.022.112zM63.449 121.377v6.008a.288.288 0 0 0 .085.206.286.286 0 0 0 .207.085.287.287 0 0 0 .271-.179.295.295 0 0 0 .022-.112v-6.008a.292.292 0 0 0-.5-.207.295.295 0 0 0-.085.207zM63.449 113.11v6.009a.295.295 0 0 0 .292.292.293.293 0 0 0 .293-.292v-6.009a.295.295 0 0 0-.18-.27.287.287 0 0 0-.224.001.282.282 0 0 0-.159.158.288.288 0 0 0-.022.111zM65.195 119.682v7.703a.296.296 0 0 0 .085.206c.028.027.06.049.095.063a.287.287 0 0 0 .224.001.298.298 0 0 0 .158-.158.294.294 0 0 0 .022-.112v-7.703a.287.287 0 0 0-.085-.207.285.285 0 0 0-.207-.086.292.292 0 0 0-.292.293zM65.195 109.289v7.703a.292.292 0 1 0 .584 0v-7.703a.294.294 0 0 0-.18-.271.292.292 0 0 0-.404.271z" fill="#505ABA"/>
            <path opacity=".4" d="M90.62 151.176H79.155a1.828 1.828 0 0 1-1.827-1.824v-48.211a1.825 1.825 0 0 1 1.826-1.825H90.62a1.828 1.828 0 0 1 1.827 1.825v48.211a1.824 1.824 0 0 1-1.827 1.824zM110.405 151.176H98.94a1.827 1.827 0 0 1-1.825-1.824v-48.211a1.825 1.825 0 0 1 1.825-1.825h11.465a1.829 1.829 0 0 1 1.827 1.825v48.211a1.825 1.825 0 0 1-1.827 1.824zM129.501 151.176h-11.458a1.829 1.829 0 0 1-1.827-1.825v-48.21a1.822 1.822 0 0 1 1.826-1.825h11.465a1.826 1.826 0 0 1 1.815 1.825v48.211a1.829 1.829 0 0 1-1.821 1.824z" fill="#8C9DF4"/>
            <path opacity=".4" d="M35.217 181.555a1.815 1.815 0 0 1-1.816-1.817V35.298a1.815 1.815 0 0 1 2.512-1.678 1.817 1.817 0 0 1 1.123 1.678v144.44a1.817 1.817 0 0 1-1.82 1.817z" fill="#BDD1F9"/>
            <path opacity=".4" d="M33.4 93.987h105.014V92.53H33.4v1.458zM33.4 152.613h111.534v-1.458H33.4v1.458z" fill="#BDD1F9"/>
        </g>
        <path d="M256.573 83.514s-9.984 8.66-8.256 10.416c1.727 1.756 10.428-10.45 10.428-10.45s13.072 2.94 16.502 6.235c0 0-13.747 5.29-11.641 6.569 2.106 1.277 16.67-3.564 16.67-3.564s11.129 5.884 8.132 12.869c-2.997 6.985-7.792 7.862-9.514 7.083-1.722-.778-10.854-8.2-11.565-6.812-.71 1.387 4.004 8.225 8.333 9.905 0 0-11.331 6.424-15.985 1.962-4.654-4.462-3.744-8.807-6.669-11.512-2.925-2.705-5.866-3.668-4.973-1.592.894 2.077 6.612 5.68 7.436 9.809.825 4.128 1.816 7.056-3.617 4.317-5.432-2.74-13.345-9.976-12.176-14.895l.147-.616a2.417 2.417 0 0 0-.147.616c-1.261-.181-4.453 1.194-6.807 2.322-.376.21-.922.484-1.688.834-.332.168-.603.309-.797.407-4.913 2.816-9.676 10.614-9.676 10.614l-1.21-.523c3.469-8.918 12.016-11.734 12.016-11.734 6.218-2.678 9.325-6.844 9.325-6.844s-5.001-12.14 4.602-15.646c.008.002 6.685-1.537 11.13.23z" fill="#D2E2F9"/>
        <path d="m166.996 98.422-6.561 77.945s-.688 4.724 2.83 4.732c5.783.015 28.787 0 28.787 0s-4.354-.983-4.301-3.196c.062-2.608 7.668-80.218 7.668-80.218l-28.423.737z" fill="#798EE8"/>
        <path d="M194.217 179.682c-1.137 0-23.407.041-29.04-.03-2.454-.031-2.884-2.181-2.905-3.573a6.928 6.928 0 0 1 .074-1.16l.172-2.026.434-5.163.385-4.561.493-5.863.415-4.947 4.662-55.385 28.425-.737s-3.204 32.48-5.47 56.12c-.253 2.634-.494 5.16-.715 7.517-.074.753-.144 1.488-.21 2.205-.21 2.237-.399 4.292-.57 6.103a1735.3 1735.3 0 0 1-.243 2.654c-.288 3.184-.458 5.224-.461 5.612-.001.211.018.422.056.63.461 2.493 4.071 2.604 4.498 2.604z" fill="#AEC3FF"/>
        <path d="m97.966 55.975 15.982 64.137 2.188 8.785 7.443 29.873h138.287L234.43 55.975H97.966z" fill="#AEC3FF"/>
        <path d="m97.965 55.975-2.215.738 24.885 104.289 2.944-2.232L97.965 55.975z" fill="#798EE8"/>
        <path d="M120.635 161.003H258.07l3.795-2.232H123.579l-2.944 2.232z" fill="#849DEF"/>
        <path d="M168.897 181.097h29.757v-1.413h-29.757v1.413z" fill="#AEC3FF"/>
        <path d="m191.089 161.002-.152 1.08-27.985 5.648.383-4.562.184-2.166h27.57z" fill="#8C9DF4"/>
        <path opacity=".5" d="M194.216 179.682c-1.136 0-23.406.042-29.039-.03-2.454-.031-2.884-2.181-2.906-3.573l27.853-5.23c-.288 3.184-.458 5.225-.461 5.612-.001.212.017.423.056.63.46 2.48 4.071 2.591 4.497 2.591z" fill="#8C9DF4"/>
        <path d="M97.966 55.975H234.43l22.141 82.615h-138.02L97.966 55.975z" fill="#8C9DF4"/>
        <path d="M250.135 135.01H122.364l-4.567-18.173-1.766-7.031-.721-2.867-4.693-18.677-.243-.972-2.48-9.872-1.11-4.417-.947-3.768-.773-3.074-1.446-5.758h125.931l1.589 5.758.847 3.074 1.04 3.768 1.219 4.417 8.03 29.1v.001l.678 2.465.318 1.145 5.543 20.089 1.322 4.792z" fill="#505ABA"/>
        <path d="M324.315 181.106H14.769a.366.366 0 0 0-.367.366v.161c0 .202.164.366.367.366h309.546a.366.366 0 0 0 .367-.366v-.161a.366.366 0 0 0-.367-.366z" fill="#233862"/>
        <path d="m132.106 82.364-1.179-1.738c-1.263-1.864-3.407-3.085-5.42-3.085h-12.962l2.25 8.218 8.924 32.608a3.37 3.37 0 0 0 1.204 1.786 3.37 3.37 0 0 0 2.042.689h46.644a3.365 3.365 0 0 0 3.301-2.716 3.362 3.362 0 0 0-.056-1.529l-8.44-30.836h-30.343c-2.213-.002-4.574-1.345-5.965-3.397z" fill="#F99746"/>
        <path opacity=".5" d="m209.277 80.022-3.842-4.905-.182-.23-.217-.042-17.738-3.26-5.968 32.416 22.994 4.227 5.106-27.73.043-.227-.196-.249z" fill="#8C9DF4"/>
        <path d="m197.739 69.964.01.23 1.094 28.175-23.364.906L174.2 66.34l18.022-.697.221-.01.227.187 4.825 3.946.244.199z" fill="#8C9DF4"/>
        <path d="m182.371 78.032-38.99 2.17a.144.144 0 0 0-.133.151l2.846 51.013a.138.138 0 0 0 .048.098.146.146 0 0 0 .102.035l38.935-2.168a.138.138 0 0 0 .097-.048.136.136 0 0 0 .035-.102l-2.848-51.07a.088.088 0 0 0-.092-.079z" fill="#233862"/>
        <path d="m182.3 127.722-33.027 2.071a1.798 1.798 0 0 1-1.905-1.68l-2.816-44.843a1.79 1.79 0 0 1 1.675-1.898l33.031-2.066a1.8 1.8 0 0 1 1.907 1.68l2.817 44.836a1.798 1.798 0 0 1-1.682 1.9z" fill="#EBF3FA"/>
        <path d="m169.266 86.697-20.782 1.301h-.007a.017.017 0 0 1-.007-.004.015.015 0 0 1-.004-.006.019.019 0 0 1-.002-.007l-.033-.519c0-.005.002-.01.005-.014a.025.025 0 0 1 .014-.007l20.776-1.302h.007l.007.004a.014.014 0 0 1 .004.006.019.019 0 0 1 .002.008l.033.518a.028.028 0 0 1-.003.013.026.026 0 0 1-.01.009zM169.546 91.153l-20.776 1.302h-.008a.02.02 0 0 1-.006-.004.015.015 0 0 1-.004-.006c-.002-.002-.002-.005-.002-.007l-.033-.519c0-.005.002-.01.005-.014a.02.02 0 0 1 .013-.006l20.776-1.303.008.001c.002 0 .004.002.006.004a.014.014 0 0 1 .004.005.017.017 0 0 1 .002.008l.033.518c0 .005-.001.01-.005.014a.02.02 0 0 1-.013.007zM177.343 88.427l-28.713 1.8a.021.021 0 0 1-.014-.005.023.023 0 0 1-.007-.013l-.032-.52.001-.006a.085.085 0 0 1 .003-.007.025.025 0 0 1 .006-.005.023.023 0 0 1 .008-.001l28.714-1.8c.005 0 .01.001.013.005a.023.023 0 0 1 .007.013l.033.519c0 .005-.002.01-.006.014a.019.019 0 0 1-.013.006zM164.526 105.321l-14.136.887a.016.016 0 0 1-.011-.005.014.014 0 0 1-.006-.011l-.033-.531c0-.004.002-.008.005-.011a.016.016 0 0 1 .011-.005l14.135-.886.006.001c.002 0 .004.001.005.003l.004.005.001.005.033.531a.02.02 0 0 1-.004.012c-.003.003-.006.005-.01.005zM169.788 102.754l-19.539 1.228a.013.013 0 0 1-.01-.004.02.02 0 0 1-.006-.01l-.033-.531.001-.006.003-.006a.022.022 0 0 1 .005-.003l.006-.002 19.538-1.225.006.001.005.003.004.005a.013.013 0 0 1 .001.006l.033.531c0 .003-.002.006-.005.009a.015.015 0 0 1-.009.004zM171.228 107.391l-20.776 1.303a.02.02 0 0 1-.014-.006.02.02 0 0 1-.007-.013l-.032-.519.001-.007a.01.01 0 0 1 .003-.007l.006-.004a.019.019 0 0 1 .007-.002l20.776-1.302a.018.018 0 0 1 .014.004.022.022 0 0 1 .008.013l.031.52v.007c-.001.002-.002.005-.004.006l-.006.005-.007.002zM173.692 109.474l-23.106 1.447-.006-.001-.006-.003-.004-.005a.014.014 0 0 1-.002-.007l-.033-.522a.02.02 0 0 1 .004-.013.023.023 0 0 1 .012-.006l23.105-1.447h.006l.006.004a.022.022 0 0 1 .004.005l.001.006.033.523a.016.016 0 0 1-.003.012.019.019 0 0 1-.011.007zM165.829 113.895l-14.872.928h-.006a.02.02 0 0 1-.006-.004l-.004-.005-.001-.007-.033-.524v-.006l.004-.005.004-.004a.014.014 0 0 1 .006-.002l14.873-.929.006.001.006.004c.001.001.003.003.003.005l.002.006.033.524-.001.007c0 .002-.001.003-.003.005l-.005.004-.006.002zM166.109 118.351l-14.872.929c-.004-.001-.008-.002-.012-.005a.016.016 0 0 1-.005-.011l-.032-.531a.006.006 0 0 1 0-.006l.003-.006.005-.004.006-.001 14.873-.929.006.001.006.003.004.006.001.006.033.531-.001.006-.003.006-.005.004-.007.001zM171.652 115.767l-20.55 1.288-.006-.001-.006-.003-.004-.005-.002-.006-.033-.53c.001-.005.002-.009.005-.012a.024.024 0 0 1 .011-.006l20.55-1.288c.005 0 .009.002.012.005a.024.024 0 0 1 .006.011l.033.531a.016.016 0 0 1-.005.011.016.016 0 0 1-.011.005z" fill="#BDD1F9"/>
        <path d="m171.749 75.81-18.183 1.012c-1.195.067-2.124 1.023-2.058 2.135l.153 2.745a.484.484 0 0 0 .531.438l21.52-1.194a.49.49 0 0 0 .476-.494l-.154-2.745c-.063-1.117-1.086-1.965-2.285-1.897z" fill="#FF8C64"/>
        <path d="M204.601 97.858s-.379-.849-.623-1.25c-.244-.403-1.291-1.58-1.469-1.314-.178.266-.889 2.062-.511 2.564.378.503-.025 1.377 1.859 1.907l.744-1.907z" fill="#FFB27D"/>
        <path d="M225.501 92.497s-9.627 8.036-13.381 7.286c-2.936-.58-7.577-2.052-7.577-2.052s-1.225 1.165-.879 2.561c0 0 5.913 5.558 10.127 5.594 6.585.056 9.693-3.261 9.693-3.261l2.017-10.128z" fill="#ED7D2B"/>
        <path d="M242.39 177.203s-.278 4.511-1.151 4.57c-.115.008-4.424.008-4.424.008l-5.501-.032s.036-1.326 1.644-1.604c1.608-.277 4.299-1.407 5.272-3.531 1.025-2.233 4.16.589 4.16.589z" fill="#113C68"/>
        <path d="M242.708 177.516s-1.672.559-2.977.559a10.98 10.98 0 0 1-2.78-.398s-.314-3.043-2.047-9.744c-.909-3.513-2.206-8.029-4.05-13.641-5.102-15.509-6.654-24.583-6.795-25.442l-.011-.068.016-.008 15.685-6.88s-1.939 21.376.531 29.585c.376 1.292.676 2.605.898 3.931 1.566 8.911 1.53 22.106 1.53 22.106z" fill="#2A4E96"/>
        <path d="M234.904 167.931c-.908-3.514-2.206-8.03-4.05-13.642-5.102-15.509-6.654-24.582-6.795-25.442v-.076l15.69-6.877s-1.938 21.376.531 29.585c.351 1.145-5.376 16.452-5.376 16.452z" fill="#233862"/>
        <path d="M230.141 177.203s-.281 4.511-1.153 4.57c-.115.008-4.424.008-4.424.008l-5.501-.032s.036-1.326 1.644-1.604c1.608-.277 4.299-1.407 5.273-3.531 1.024-2.233 4.161.589 4.161.589z" fill="#15447C"/>
        <path d="M221.252 122.4s-.205 13.851 2.195 30.859c2.399 17.009 1.581 24.223 1.581 24.223s1.648.531 2.314.587c1.694.132 3.431-.398 3.431-.398s3.434-17.014 2.45-25.527c-.984-8.514 4.7-29.212 4.7-29.212l-16.671-.532z" fill="#2A4E96"/>
        <path d="m232.369 89.983-3.054 2.006-2.789-.788c-.51-.725-.644-2.122-.652-3.34-.003-.743.034-1.486.11-2.225l4.13-1.82 1.542-.68c0 .024-.12 1.265-.133 1.446-.299 3.215.846 5.401.846 5.401z" fill="#FFB27D"/>
        <path d="M221.177 126.25c3.811 3.676 18.234 3.058 19.122-.993.888-4.05-.969-34.48-7.479-36.39-1.35-.398-8.573 1.936-8.573 1.936a45.788 45.788 0 0 0-1.876 6.731c-.145.735-.565 8.511-.88 15.788a646.843 646.843 0 0 0-.335 9.108c-.058 2.256-.061 3.74.021 3.82z" fill="#F99746"/>
        <path d="M231.203 84.64c-.838 1.415-3.779 2.653-5.337 3.22-.002-.742.034-1.485.111-2.224l4.129-1.82c.914-.013 1.47.19 1.097.823z" fill="#FCA56B"/>
        <path d="M224.418 85.385s6.655 2.075 7.885-2.087c1.23-4.162 2.921-6.696-1.281-8.197-4.203-1.5-5.497-.156-6.242 1.133-.744 1.29-2.067 8.511-.362 9.15z" fill="#FFB27D"/>
        <path d="M225.038 75.834s.424 4.841 1.427 4.631c1.003-.21 2.105-.663 1.959.796-.146 1.46.974 3.962 2.419 3.955 3.1-.012 6.468-7.96 5.619-9.466-2.448-4.343-14.962-5.22-11.424.084z" fill="#163560"/>
        <path d="M226.018 88.972c.086-.036 4.954-2.218 5.524-2.03.569.186 1.278 1.926 1.278 1.926l-8.572 1.935s.674-1.37 1.77-1.83z" fill="#ED7D2B"/>
        <path d="m195.706 112.538 27.292 25.674c.531.503 1.21.663 1.499.357l.922-.978c.289-.308.089-.971-.446-1.474l-27.294-25.675c-.531-.503-1.209-.663-1.499-.355l-.921.977c-.29.307-.088.97.447 1.474z" fill="#1F4D84"/>
        <path d="m211.027 126.945 11.976 11.267c.532.503 1.21.663 1.5.357l.921-.978c.29-.308.089-.971-.446-1.474l-11.976-11.266-1.975 2.094z" fill="#739AF0"/>
        <path d="M197.094 81.959a21.381 21.381 0 0 0-14.927-6.717 21.4 21.4 0 0 0-15.644 6.12 21.364 21.364 0 0 0 2.809 32.816 21.411 21.411 0 0 0 23.671.463 21.385 21.385 0 0 0 8.068-9.363 21.356 21.356 0 0 0-3.977-23.32zm-2.078 28.983a19.713 19.713 0 0 1-30.212-3.903 19.67 19.67 0 0 1 .667-21.866 19.705 19.705 0 0 1 9.06-6.978 19.722 19.722 0 0 1 25.415 11.432 19.64 19.64 0 0 1-.459 15.065 19.678 19.678 0 0 1-4.471 6.253v-.003z" fill="#1F4D84"/>
        <path opacity=".5" d="M167.165 110.096a19.713 19.713 0 0 0 30.392-2.059 19.674 19.674 0 0 0 .666-21.864 19.696 19.696 0 0 0-8.617-7.516 19.72 19.72 0 0 0-21.592 3.613 19.593 19.593 0 0 0-.849 27.826z" fill="#B3CFF9"/>
        <path d="M221.156 122.424c15.039-10.708 13.788-24.994 13.788-24.994-5.496 3.096-10.95 9.95-13.453 15.886-.148 3.403-.271 6.7-.335 9.108z" fill="#ED7D2B"/>
        <path d="M206.313 117.552c-1.062-.245-1.772-1.046-1.92-1.186 0 0-.453.031.073.995.045.081.142.288.217.434a.112.112 0 0 1 .009.044.095.095 0 0 1-.014.044.094.094 0 0 1-.075.045c-.611.046-1.227-.195-2.406.05-.162.035-.21.423-.203.589.01.281-.01.596.317 1.027.19.249.72.519 1.9.994.449.182 1.736.045 2.94-.369l.963-.446-.299-1.787-.242.051c-.383.082-.859-.389-1.26-.485z" fill="#FFB27D"/>
        <path d="M230.281 90.803s13.509 2.566-3.983 22.122c-2.798 3.127-17.908 7.197-17.908 7.197s-1.534-1.303-.761-2.357c0 0 10.404-7.549 12.695-8.749 1.029-.54 3.995-12.049 5.675-14.82 1.68-2.772 4.282-3.393 4.282-3.393z" fill="#F99746"/>
        <path d="M204.234 98.096s-.442-.844-.531-1.29c-.089-.445-.643-1.743-.873-1.971-.091-.091-.398.027-.43.42-.015.172.069.482.218.854.242.605.202 1.423.285 1.697.213.68 1.331.29 1.331.29z" fill="#FFB27D"/>
    </g>
    <defs>
        <clipPath id="cswy8bmzxa">
            <path fill="#fff" d="M0 0h328v182H0z"/>
        </clipPath>
    </defs>
</svg>
