<svg width="327" height="208" viewBox="0 0 327 208" fill="none" xmlns="http://www.w3.org/2000/svg">
    <path d="M10.128 165.626c-4.012 0-8.567-4.735-9.76-8.603-1.337-4.302 1.084-8.892 5.422-10.23a10.702 10.702 0 0 1 3.217-.506c3.543 0 6.905 1.808 5.929 6.543-.94 4.41.94 11.278-3.398 12.616-.47.144-.904.18-1.41.18zM34.834 28.406c-2.639 0-4.88-.723-6.145-3.073-3.253-6.037 3.217-15.797 9.254-19.05A12.254 12.254 0 0 1 43.799 4.8c4.41 0 8.711 2.386 10.953 6.543 3.217 6 3.217 15.363-6.182 15.363H48.245c-2.097 0-4.41.433-6.724.831-2.313.434-4.627.868-6.687.868zM307.167 193.712h-27.291c3.181-5.567 5.313-11.712 6.326-18.074h12.651c.47 0 .868-.362.868-.832v-5.602h9.471a3.317 3.317 0 0 0 3.325-3.326v-3.723h4.447a.819.819 0 0 0 .831-.832v-6c0-.47-.362-.868-.831-.868h-9.471a.88.88 0 0 0-.868.868v6c0 .47.398.832.868.832h4.048v3.723c0 .651-.289 1.229-.686 1.663a2.322 2.322 0 0 1-1.663.687h-9.471v-19.05a.88.88 0 0 0-.868-.868h-5.856c0-.036.037-.072.037-.108v-9.869a3.325 3.325 0 0 0-1.591-2.819c4.229-6.688 9.543-12.978 12.146-20.207 5.747-16.195 5.458-34.305-1.518-50.029a56.113 56.113 0 0 0-4.519-8.314c.036-.18 0-.325-.036-.47l-1.121-3.832a1.16 1.16 0 0 0-1.12-.831c-.109 0-.217.036-.326.072l-.976.29a40.934 40.934 0 0 0-3.687-3.832l.723-1.338c.289-.542.109-1.265-.47-1.554l-3.506-1.88c-.145-.108-.362-.144-.542-.144-.398 0-.796.216-1.012.578l-.253.47c-7.483-4.808-16.448-6.796-25.485-7.157a31.156 31.156 0 0 0-14.17-3.398 31.116 31.116 0 0 0-20.677 7.808c-8.639 1.735-17.315 3.29-25.882 3.29-2.277 0-4.554-.11-6.832-.362-4.952-.543-8.278-3.254-10.989-6.724 6.579-1.265 13.086-3.145 19.665-4.772 13.411-3.289 27.292-5.747 41.136-5.928.507-.036 1.013-.036 1.555-.036 14.893 0 30.039 2.928 43.016 10.266 16.484 9.399 29.786 26.75 27.653 46.414-1.048 9.905-5.639 19.592-3.904 29.678 1.338 7.627 6.001 13.736 9.218 20.604 3.398 7.23 5.856 15.544 6.724 23.496.903 7.989-.181 16.448-4.447 23.28-3.506 5.53-8.892 9.651-14.64 12.76zm-1.156-14.532c-.976 0-1.772.76-1.772 1.735 0 .976.796 1.772 1.772 1.772s1.771-.796 1.771-1.772c0-.975-.795-1.735-1.771-1.735zm-264.17 14.532H31.574c-.433-.398-.759-.868-1.12-1.338-5.205-7.229-8.531-16.158-8.82-25.086-.362-10.411 3.434-20.424 4.518-30.69 1.338-12.471-3.76-22.954-6.506-34.811-2.459-10.555-1.446-22.556 1.88-33.003 4.59-14.242 14.892-27.472 29.64-35.642 5.17-2.855 10.737-5.024 16.52-6.542-4.988 7.59-7.844 16.375-7.374 25.629.109 2.168.398 4.337.76 6.506l-.543-.289a.962.962 0 0 0-.434-.108c-.289 0-.614.18-.759.47l-1.446 2.71c-.253.398-.072.94.326 1.194l2.277 1.192c-.253.94-.325 1.916-.29 2.856l-2.457.723c-.47.145-.76.65-.615 1.12L58 71.533c.144.397.47.614.867.614.073 0 .145 0 .253-.036l2.458-.723c.47.831 1.085 1.554 1.808 2.241l-1.23 2.241a.854.854 0 0 0 .362 1.193l.904.506a30.525 30.525 0 0 1-.434 3.651c-1.843 9.254-7.808 17.857-13.592 25.81h-6.289a3.163 3.163 0 0 0-3.181 3.181v11.025c-4.88 9.109-7.844 19.267-8.567 29.605-1.013 14.929 2.71 30.112 10.482 42.872zM23.586 98.498c0 .47.397.831.831.831h19.7c.47 0 .832-.361.832-.831v-14.35a.818.818 0 0 0-.831-.832h-19.7a.84.84 0 0 0-.832.831v14.351zM292.02 148.31h-6.181c.868-4.265 2.783-8.169 5.097-11.929.145.072.253.181.398.325.433.398.686.976.686 1.627v9.977z" fill="#F6F8FB"/>
    <path d="M166.896 39.51c-1.735 0-3.47-.072-5.241-.253-.47-.036-.94-.109-1.41-.145.253-.361.47-.687.687-1.084a8.794 8.794 0 0 0 1.048-4.193 8.882 8.882 0 0 0-4.627-7.808 8.828 8.828 0 0 0-4.229-1.049c-3.145 0-6.182 1.663-7.772 4.627a8.84 8.84 0 0 0-1.085 4.193c0 .47.037.94.109 1.374l-3.145-1.084v-.29c0-.976.108-1.952.362-2.928l.036-.18-2.964-1.59c-.29-.145-.434-.434-.434-.76 0-.108.036-.253.108-.398l1.808-3.289a.83.83 0 0 1 .723-.47c.144 0 .289.036.397.109l2.964 1.626.145-.144a12.965 12.965 0 0 1 2.675-2.205l.144-.073-.939-3.253c-.037-.072-.037-.145-.037-.217 0-.361.217-.687.579-.795l3.651-1.085c.072-.036.144-.036.217-.036.361 0 .686.217.795.579l.976 3.253.181-.036h.506c.976 0 1.988.108 2.928.361l.217.073 1.59-2.965a.796.796 0 0 1 .723-.433c.145 0 .289.036.398.072l3.325 1.807c.29.145.434.434.434.76 0 .108-.036.253-.072.397l-1.627 2.928.145.145c.867.795 1.59 1.699 2.169 2.675l.108.18 3.217-.976c.109 0 .181-.036.253-.036.362 0 .687.253.796.615l1.084 3.615c.036.072.036.18.036.253a.847.847 0 0 1-.614.795l-3.218.976v.18c.037.181.037.326.037.507 0 .976-.145 1.952-.398 2.928l-.036.18 2.964 1.59.108-.216.145-.217-2.639-1.41c.217-.94.362-1.915.362-2.855 0-.109-.037-.217-.037-.326l2.856-.867c.579-.145.976-.687.976-1.265 0-.145-.036-.253-.072-.398l-1.085-3.615c-.144-.578-.686-.94-1.265-.94-.144 0-.253 0-.397.036l-2.856.868a12.062 12.062 0 0 0-1.988-2.494l1.41-2.639v-.036.036c.108-.18.144-.398.144-.615 0-.47-.253-.94-.687-1.192l-3.325-1.808a1.418 1.418 0 0 0-.651-.144c-.47 0-.94.253-1.157.686l-1.446 2.64a10.846 10.846 0 0 0-2.855-.362h-.326l-.831-2.82a1.344 1.344 0 0 0-1.301-.976c-.109 0-.253 0-.362.072l-3.615 1.049c-.614.18-.976.723-.976 1.301 0 .108 0 .253.073.362v.036l.831 2.82a13.283 13.283 0 0 0-2.494 2.024l-2.603-1.41a1.417 1.417 0 0 0-.65-.145c-.47 0-.94.253-1.193.687l-1.772 3.326c-.108.18-.18.433-.18.614 0 .506.253.94.723 1.193l2.602 1.41c-.217.94-.325 1.916-.325 2.855v.109a882.846 882.846 0 0 1-5.35-1.952 2.638 2.638 0 0 0-.759-1.554l-4.952-4.953a2.523 2.523 0 0 0-1.844-.795c-.687 0-1.337.253-1.88.795l-2.602 2.603c-2.169-.615-4.338-1.12-6.543-1.627v-4.807c0-1.41-1.193-2.603-2.639-2.603h-7.012c-1.41 0-2.603 1.193-2.603 2.603V24.4c-4.302-.506-8.64-.76-12.941-.76-8.17 0-16.23.94-23.894 2.965 6.29-9.688 15.977-17.387 26.424-21.653C102.227 1.627 110.94 0 119.687 0c10.157 0 20.315 2.205 29.497 6.434 9.253 4.266 17.64 10.7 23.785 18.87 2.928 3.831 5.169 8.748 8.242 12.652-4.193.831-8.423 1.41-12.688 1.518v-.181c0-.47-.253-.94-.687-1.193l-.145.217-.108.217c.289.18.434.47.434.759 0 .072 0 .145-.036.217h-1.085zm-7.229-.47c-5.097-.687-9.941-2.06-14.749-3.687a7.346 7.346 0 0 1-.144-1.555c0-1.337.325-2.674 1.012-3.94 1.518-2.82 4.374-4.374 7.338-4.374 1.337 0 2.711.326 3.976.976a8.411 8.411 0 0 1 4.374 7.375 8.334 8.334 0 0 1-1.012 3.976c-.217.434-.506.831-.795 1.229zm-25.702-7.591c-1.446-.506-2.855-1.012-4.301-1.482-1.627-.542-3.326-1.048-5.025-1.555l2.169-2.132c.253-.29.651-.434 1.012-.434.362 0 .723.145 1.012.434l4.953 4.952a.958.958 0 0 0 .18.217zm-18.363-5.278a112.255 112.255 0 0 0-9.868-1.626v-2.928c0-.76.65-1.41 1.41-1.41h7.012c.795 0 1.446.65 1.446 1.41v4.554z" fill="#F1F4FA"/>
    <path d="M279.886 193.712h-89.864c24.508-8.17 43.595-28.124 50.607-53.138h43.812a.84.84 0 0 0 .831-.832v-3.831a.587.587 0 0 0 .326.108h4.084c.47 0 .904.109 1.265.362-2.313 3.759-4.229 7.663-5.096 11.929h-26.858a.88.88 0 0 0-.868.867v25.629c0 .47.398.831.868.831h27.219c-1.012 6.363-3.145 12.508-6.326 18.075zm-139.531 0H41.851c-7.772-12.761-11.495-27.943-10.483-42.872.723-10.338 3.687-20.496 8.567-29.605v44.426c0 2.349 1.88 4.229 4.193 4.229h25.449c.108 12.435 10.085 22.484 22.412 22.484 9.543 0 17.712-6.073 20.929-14.64 7.88 7.085 17.207 12.58 27.437 15.978zm151.098-58.199a3.274 3.274 0 0 0-1.771-.506h-4.084a.587.587 0 0 0-.326.108v-27.978a.818.818 0 0 0-.831-.832h-39.474a8.702 8.702 0 0 0-2.964-2.241c-.145-.687-.289-1.337-.434-2.024.47-.253.904-.578 1.338-.904.867-.687 1.626-1.59 1.807-2.675.036-.217.036-.433.036-.65.253 0 .542.036.832.036a31.036 31.036 0 0 0 18.327-5.965c.325.47.723.868 1.156 1.265l-.939 1.736c-.181.325-.073.723.289.94l2.169 1.156c.108.036.217.073.325.073.253 0 .47-.109.614-.326l.904-1.735c.687.18 1.41.253 2.097.253h.181l.614 1.916a.726.726 0 0 0 .687.506c.072 0 .108 0 .181-.036l2.313-.615c.362-.108.578-.47.47-.831l-.615-1.916a8.792 8.792 0 0 0 1.736-1.374l1.771.977c.144.072.253.108.361.108.253 0 .47-.145.615-.361l1.084-2.061a.64.64 0 0 0-.289-.904l-1.807-1.012c.18-.723.253-1.446.18-2.169l1.952-.542c.362-.108.579-.47.47-.831l-.759-2.278c-.072-.289-.361-.506-.687-.506-.036 0-.108 0-.18.036l-1.952.507c-.362-.615-.868-1.193-1.446-1.736l.94-1.735c.18-.325.036-.723-.29-.903l-1.518-.832c.506-1.193.94-2.422 1.338-3.687a.757.757 0 0 1 .144-.217l1.591-2.928c1.012.253 2.096.398 3.145.398.18 0 .361 0 .542-.036l.94 3.217c.144.506.614.831 1.084.831.109 0 .253-.036.362-.072l3.795-1.12c.615-.181.94-.832.759-1.447l-.94-3.18a12.67 12.67 0 0 0 2.892-2.35l2.928 1.59c.181.109.362.145.543.145.397 0 .795-.217 1.012-.615l1.916-3.47a1.218 1.218 0 0 0-.47-1.59l-2.928-1.555c.289-1.229.433-2.494.361-3.723l3.217-.94c.434-.144.759-.506.796-.94a56.01 56.01 0 0 1 4.518 8.314c6.977 15.725 7.266 33.835 1.518 50.029-2.602 7.23-7.916 13.52-12.146 20.207zm-7.771-39.727c0 .29.253.543.542.543h12.977a.556.556 0 0 0 .542-.543v-9.47a.556.556 0 0 0-.542-.543h-12.977a.556.556 0 0 0-.542.543v9.47zm-195.85 11.242h-3.398l1.373-2.566c.795.181 1.627.325 2.422.361-.144.723-.253 1.446-.397 2.205zm-6.688 0H49.406c5.784-7.952 11.748-16.555 13.592-25.81.217-1.192.361-2.421.434-3.65l1.77.94c.145.072.29.108.434.108.29 0 .615-.145.76-.434l1.229-2.277a9.298 9.298 0 0 0 2.422.325c.144 0 .289-.036.433-.036l.723 2.458a.88.88 0 0 0 .832.65c.108 0 .18 0 .253-.035l2.964-.868a.893.893 0 0 0 .578-1.12l-.723-2.459a9.485 9.485 0 0 0 2.205-1.807l2.278 1.23a.728.728 0 0 0 .397.108.87.87 0 0 0 .796-.47l1.445-2.675a.854.854 0 0 0-.361-1.193l-2.241-1.23c.217-.94.325-1.879.289-2.855l2.458-.723a.905.905 0 0 0 .615-1.084l-.904-2.928a.848.848 0 0 0-.832-.651c-.072 0-.18 0-.252.036l-2.459.723a9.48 9.48 0 0 0-1.807-2.205l1.229-2.277c.217-.398.072-.94-.361-1.193l-2.675-1.446a.962.962 0 0 0-.434-.108c-.325 0-.615.18-.795.47l-1.193 2.24c-.832-.18-1.627-.289-2.422-.289h-.434l-.723-2.458c-.108-.397-.47-.614-.868-.614-.072 0-.144 0-.253.036l-2.928.867a.854.854 0 0 0-.578 1.085l.723 2.458a9.654 9.654 0 0 0-2.205 1.807l-1.735-.94c-.362-2.168-.65-4.337-.76-6.506-.47-9.254 2.386-18.038 7.375-25.63 7.663-2.023 15.724-2.963 23.894-2.963 4.302 0 8.639.253 12.941.759v2.639c-1.88.506-3.651 1.265-5.35 2.24l-3.832-3.83a2.466 2.466 0 0 0-1.843-.796c-.651 0-1.338.253-1.844.795l-4.952 4.953a2.618 2.618 0 0 0 0 3.687l3.832 3.831a22.269 22.269 0 0 0-2.206 5.35h-5.422c-1.446 0-2.639 1.157-2.639 2.603v7.013c0 1.446 1.193 2.602 2.64 2.602h5.422c.506 1.88 1.229 3.687 2.205 5.35l-3.832 3.832c-1.012 1.012-1.012 2.675 0 3.723l4.952 4.952a2.63 2.63 0 0 0 1.844.76c.686 0 1.337-.254 1.843-.76l3.832-3.831a22.401 22.401 0 0 0 4.157 1.843 78.836 78.836 0 0 0-4.663 6.688l-3.398-1.844c-.18-.072-.362-.145-.542-.145-.434 0-.796.253-1.012.615l-1.59 2.928a13.39 13.39 0 0 0-3.146-.398c-.18 0-.361.037-.542.037l-.976-3.218a1.118 1.118 0 0 0-1.085-.831c-.108 0-.216.036-.325.072l-3.832 1.12c-.578.182-.94.832-.759 1.447l.94 3.18c-1.048.651-2.024 1.41-2.856 2.35l-2.964-1.59c-.144-.108-.361-.145-.542-.145-.397 0-.795.217-1.012.615l-1.88 3.506c-.325.542-.108 1.23.47 1.555l2.928 1.59c-.325 1.193-.433 2.458-.397 3.687l-3.181.94c-.615.18-.976.831-.796 1.446l1.157 3.796c.145.506.578.83 1.085.83.108 0 .216-.035.325-.071l3.217-.94a13.574 13.574 0 0 0 2.314 2.892l-1.591 2.928c-.29.542-.072 1.265.47 1.554l1.988 1.084zm7.808-5.928a8.882 8.882 0 0 1-4.302-1.12c-4.41-2.386-6.036-7.88-3.65-12.29 1.626-3.001 4.771-4.736 7.988-4.736a9.26 9.26 0 0 1 4.302 1.084c.542.326 1.048.65 1.482 1.049a77.419 77.419 0 0 0-5.748 16.013h-.072zm181.463-8.06a5.359 5.359 0 0 1-2.711-.724 5.17 5.17 0 0 1-2.024-1.807c2.639-2.17 4.88-4.808 6.723-7.736.109.036.254.109.362.18 2.711 1.447 3.759 4.736 2.386 7.339-.976 1.771-2.784 2.747-4.736 2.747zM70.047 73.337c-1.121 0-2.242-.289-3.326-.867-3.362-1.808-4.627-6.037-2.783-9.435 1.265-2.35 3.65-3.65 6.145-3.65 1.12 0 2.24.252 3.29.83a6.979 6.979 0 0 1-3.326 13.122zm23.46-.433c-.362 0-.723-.145-1.012-.434l-4.953-4.953c-.542-.542-.542-1.445 0-2.024l4.483-4.482-.217-.398c-1.12-1.807-1.916-3.795-2.458-5.856l-.109-.47h-6.326c-.795 0-1.446-.614-1.446-1.41v-7.012c0-.795.651-1.41 1.446-1.41h6.326l.109-.47c.542-2.06 1.337-4.012 2.458-5.856l.217-.398-4.483-4.482c-.542-.578-.542-1.482 0-2.024l4.953-4.952c.289-.29.65-.434 1.012-.434.361 0 .723.144 1.012.434L99 30.756l.398-.253c1.843-1.084 3.795-1.916 5.892-2.422l.434-.108v-3.434c3.325.397 6.615.94 9.868 1.626v1.808l.434.108a22.026 22.026 0 0 1 5.892 2.422l.398.253 2.313-2.35c1.699.506 3.398 1.013 5.025 1.555 1.446.47 2.855.976 4.301 1.482.362.542.29 1.301-.18 1.807l-4.483 4.483.217.397a23.108 23.108 0 0 1 2.458 5.856l.109.47h6.326c.578 0 1.12.361 1.337.868a77.585 77.585 0 0 0-12.616 5.639c.073-.543.073-1.049.073-1.59 0-9.11-7.411-16.557-16.556-16.557-9.109 0-16.556 7.447-16.556 16.556 0 8.278 6.109 15.146 14.062 16.375a98.733 98.733 0 0 0-4.013 4.591 20.55 20.55 0 0 1-4.735-2.096L99 67.987l-4.482 4.483c-.29.289-.65.434-1.012.434zm187.247-4.447a9.311 9.311 0 0 1-3.651-.759c.036-.614.036-1.193.036-1.807 0-4.627-.976-9.037-2.711-13.013a9.035 9.035 0 0 1 6.326-2.567c1.482 0 2.928.361 4.301 1.12 4.41 2.386 6.037 7.88 3.687 12.291a9.15 9.15 0 0 1-7.988 4.735zm-171.559-3.795c-7.808-.723-13.917-7.302-13.917-15.29 0-8.46 6.904-15.364 15.363-15.364 8.495 0 15.363 6.905 15.363 15.363 0 .795-.036 1.555-.145 2.314a78.786 78.786 0 0 0-16.664 12.977zm105.588-5.856c-12.904-10.592-29.243-17.098-47.1-17.677l.686-1.229c.073-.108.109-.253.145-.433 4.265-.109 8.495-.687 12.688-1.519 2.711 3.47 6.037 6.182 10.989 6.724 2.277.253 4.555.361 6.832.361 8.567 0 17.243-1.554 25.882-3.289a32.007 32.007 0 0 0-10.122 17.062zm76.996-5.965c-.651-1.048-1.41-2.024-2.35-2.891l.868-1.59a41.166 41.166 0 0 1 3.687 3.83l-2.205.651zm-19.122-3.398c-3.073-5.169-7.555-9.398-12.905-12.11 9.037.362 18.001 2.35 25.484 7.158l-1.337 2.494c-1.013-.289-2.097-.397-3.145-.397h-.543l-.939-3.217c-.145-.47-.615-.796-1.121-.796-.108 0-.217 0-.325.036l-3.796 1.121c-.614.18-.976.832-.795 1.446l.976 3.181c-.542.325-1.048.687-1.554 1.084zm-131.796-4.482c-.398-1.012-1.338-1.699-2.458-1.699h-5.423c-.506-1.88-1.265-3.65-2.205-5.35l3.832-3.831a2.664 2.664 0 0 0 .759-2.133c1.771.65 3.543 1.301 5.35 1.952v.253l-2.856.831a1.39 1.39 0 0 0-.976 1.302c0 .108.037.253.073.361l1.084 3.615c.181.578.687.976 1.265.976.145 0 .253-.036.398-.072l2.856-.832a12.012 12.012 0 0 0 2.024 2.494l-.651 1.193c-1.048.29-2.06.615-3.072.94zm3.723-1.12.614-1.121-.144-.145a11.722 11.722 0 0 1-2.169-2.675l-.108-.18-3.218.976c-.072.036-.18.036-.253.036a.846.846 0 0 1-.795-.615l-1.084-3.614c0-.073-.037-.145-.037-.217a.89.89 0 0 1 .615-.832l3.217-.94v-.433l3.145 1.084a8.795 8.795 0 0 0 4.519 6.434l.144-.217.109-.216a8.322 8.322 0 0 1-4.23-5.82c4.808 1.626 9.652 3 14.749 3.687-.94 1.193-2.205 2.06-3.579 2.602-1.229.145-2.458.29-3.687.507a8.891 8.891 0 0 1-3.253-.976l-.109.216-.144.217c.65.362 1.337.615 2.024.796a76.285 76.285 0 0 0-6.326 1.446zm13.013-2.386a8.6 8.6 0 0 0 2.639-2.35c.47.036.94.109 1.41.145 1.771.18 3.506.253 5.241.253h1.085a.594.594 0 0 1-.073.18l-.759 1.446c-.65-.036-1.301-.036-1.952-.036-2.566 0-5.097.145-7.591.362zM122.1 29.274a22.123 22.123 0 0 0-5.314-2.241v-.615c2.205.506 4.374 1.012 6.543 1.627l-1.229 1.229z" fill="#EEF2FA"/>
    <path d="M322.063 120.446c-1.229 0-2.241-1.012-2.241-2.277a2.252 2.252 0 0 1 2.241-2.241c1.266 0 2.278 1.012 2.278 2.241a2.268 2.268 0 0 1-2.278 2.277z" fill="#9397C6"/>
    <path d="M305.993 182.694a1.774 1.774 0 0 1-1.771-1.771c0-.976.795-1.735 1.771-1.735.976 0 1.771.759 1.771 1.735 0 .976-.795 1.771-1.771 1.771z" fill="#B3CCF2"/>
    <path d="M33.376 42.114c-1.23 0-2.241-1.012-2.241-2.277a2.252 2.252 0 0 1 2.241-2.241c1.265 0 2.277 1.012 2.277 2.24a2.268 2.268 0 0 1-2.277 2.278z" fill="#EEF2FA"/>
    <path d="M16.314 126.442c-.976 0-1.771-.795-1.771-1.735 0-.976.795-1.771 1.771-1.771.976 0 1.772.795 1.772 1.771 0 .94-.796 1.735-1.772 1.735zM18.835 51.663a.763.763 0 0 1-.759-.76c0-.433.325-.758.76-.758.397 0 .722.325.722.759 0 .397-.325.759-.723.759z" fill="#9397C6"/>
    <path d="M202.929 19.26c-.181 0-.362-.036-.543-.072a2.676 2.676 0 0 1-2.096-3.217c.253-1.265 1.374-2.133 2.639-2.133.18 0 .397 0 .578.036 1.446.325 2.386 1.771 2.097 3.217a2.737 2.737 0 0 1-2.675 2.17z" fill="#EEF2FA"/>
    <path d="M183.073 26.783c-.072 0-.144-.036-.217-.036a.915.915 0 0 1-.687-1.084.933.933 0 0 1 .904-.687h.181c.47.108.795.578.687 1.084-.109.434-.47.723-.868.723z" fill="#9397C6"/>
    <path d="M110.637 34.011c-8.459 0-15.363 6.904-15.363 15.363s6.904 15.363 15.363 15.363c8.495 0 15.363-6.904 15.363-15.363s-6.868-15.363-15.363-15.363zm0 31.919c-9.109 0-16.556-7.41-16.556-16.556 0-9.11 7.447-16.556 16.556-16.556 9.145 0 16.556 7.447 16.556 16.556 0 9.146-7.411 16.556-16.556 16.556zm-11.64 2.06.398.254c1.843 1.084 3.795 1.915 5.892 2.421l.434.109v6.362c0 .76.65 1.41 1.409 1.41h7.013c.795 0 1.446-.65 1.446-1.41v-6.362l.434-.109a22.036 22.036 0 0 0 5.892-2.422l.398-.252 4.482 4.482c.542.578 1.446.578 2.024 0l4.953-4.953c.542-.542.542-1.445 0-2.024l-4.483-4.482.217-.398a22.574 22.574 0 0 0 2.458-5.856l.109-.47h6.326c.795 0 1.409-.614 1.409-1.41v-7.012c0-.795-.614-1.41-1.409-1.41h-6.326l-.109-.47a23.108 23.108 0 0 0-2.458-5.856l-.217-.398 4.483-4.482c.542-.578.542-1.482 0-2.024l-4.953-4.953c-.578-.542-1.482-.578-2.024 0l-4.482 4.483-.398-.253a22.037 22.037 0 0 0-5.892-2.422l-.434-.108v-6.363c0-.759-.651-1.41-1.446-1.41h-7.013c-.759 0-1.409.651-1.409 1.41v6.363l-.434.108c-2.097.506-4.049 1.337-5.892 2.422l-.398.253-4.482-4.482c-.542-.579-1.446-.579-2.025 0l-4.952 4.952c-.542.542-.542 1.446 0 2.024l4.483 4.482-.217.398c-1.12 1.844-1.916 3.796-2.458 5.856l-.109.47h-6.326c-.795 0-1.446.615-1.446 1.41v7.013c0 .795.651 1.41 1.446 1.41h6.326l.109.47c.542 2.06 1.337 4.048 2.458 5.855l.217.398-4.483 4.482c-.542.579-.542 1.482 0 2.025l4.953 4.952c.578.578 1.482.578 2.024 0l4.482-4.483zm15.146 11.749h-7.013a2.615 2.615 0 0 1-2.602-2.603v-5.422c-1.88-.506-3.651-1.266-5.35-2.205l-3.832 3.831a2.618 2.618 0 0 1-3.687 0l-4.952-4.952c-1.012-1.048-1.012-2.711 0-3.723l3.832-3.832c-.977-1.663-1.7-3.47-2.206-5.35h-5.422c-1.446 0-2.639-1.156-2.639-2.602v-7.013c0-1.446 1.193-2.603 2.64-2.603h5.421a22.27 22.27 0 0 1 2.206-5.35l-3.832-3.831a2.618 2.618 0 0 1 0-3.688l4.952-4.952a2.555 2.555 0 0 1 3.687 0l3.832 3.832c1.699-.976 3.47-1.735 5.35-2.241v-5.423c0-1.41 1.193-2.602 2.602-2.602h7.013c1.446 0 2.639 1.193 2.639 2.602v5.423a22.123 22.123 0 0 1 5.314 2.24l3.831-3.83c1.049-1.05 2.712-1.05 3.724 0l4.952 4.951a2.618 2.618 0 0 1 0 3.688l-3.832 3.831c.94 1.7 1.699 3.47 2.205 5.35h5.423a2.592 2.592 0 0 1 2.602 2.603v7.013a2.592 2.592 0 0 1-2.602 2.602h-5.423a23.155 23.155 0 0 1-2.205 5.35l3.832 3.832c1.012 1.012 1.012 2.675 0 3.723l-4.952 4.952c-1.012 1.013-2.675 1.013-3.724 0l-3.831-3.831a23.561 23.561 0 0 1-5.314 2.205v5.422c0 1.446-1.193 2.603-2.639 2.603z" fill="#EEF2FA"/>
    <path d="M84.604 99.984c-4.41-2.386-6.037-7.88-3.651-12.29 2.385-4.374 7.88-6.037 12.29-3.651 4.41 2.385 6.037 7.916 3.65 12.29-2.385 4.41-7.88 6.037-12.29 3.651zm19.664-3.217-2.928-1.59c.325-1.194.434-2.459.398-3.688l3.181-.94c.614-.18.976-.831.795-1.446l-1.157-3.795c-.181-.615-.831-.976-1.41-.795l-3.217.976a12.694 12.694 0 0 0-2.35-2.892l1.591-2.928a1.121 1.121 0 0 0-.434-1.555L95.231 76.2c-.578-.29-1.265-.073-1.554.47l-1.59 2.928c-1.23-.29-2.459-.434-3.688-.362l-.976-3.217a1.113 1.113 0 0 0-1.41-.76l-3.831 1.121c-.579.181-.94.832-.76 1.446l.94 3.181c-1.048.65-2.024 1.41-2.855 2.35l-2.964-1.59a1.151 1.151 0 0 0-1.555.47l-1.88 3.506c-.325.542-.108 1.229.47 1.554l2.928 1.59c-.325 1.193-.433 2.459-.397 3.688l-3.181.94c-.615.18-.976.83-.795 1.445l1.156 3.796c.181.615.796.94 1.41.76l3.217-.94a13.545 13.545 0 0 0 2.314 2.891l-1.59 2.928c-.29.542-.073 1.265.47 1.554l3.505 1.88a1.13 1.13 0 0 0 1.555-.434l1.59-2.928c1.23.29 2.458.434 3.687.362l.94 3.217c.181.578.832.94 1.446.759l3.832-1.12c.578-.181.94-.832.759-1.446l-.94-3.181c1.048-.651 2.024-1.41 2.856-2.35l2.928 1.59c.578.29 1.265.109 1.59-.469l1.88-3.507a1.152 1.152 0 0 0-.47-1.554z" fill="#FEFEFE"/>
    <path d="m63.443 77.566-.904-.506a.854.854 0 0 1-.362-1.193l1.23-2.241c-.724-.687-1.338-1.41-1.808-2.242l-2.458.724c-.109.036-.18.036-.253.036a.889.889 0 0 1-.868-.615l-.867-2.928c-.145-.47.144-.976.614-1.12l2.458-.724c-.036-.94.036-1.915.29-2.855l-2.278-1.193c-.398-.253-.578-.795-.325-1.193l1.446-2.711c.144-.29.47-.47.759-.47.145 0 .289.036.434.108l.542.29c1.012 6.325 2.675 12.58 2.35 18.833z" fill="#F6F8FB"/>
    <path d="M72.024 79.31a.88.88 0 0 1-.831-.65L70.47 76.2c-.145 0-.29.036-.434.036a9.3 9.3 0 0 1-2.422-.325l-1.229 2.277c-.145.29-.47.434-.759.434a.963.963 0 0 1-.434-.109l-1.771-.94c.325-6.253-1.338-12.507-2.35-18.832l1.735.94a9.649 9.649 0 0 1 2.205-1.808l-.722-2.458a.855.855 0 0 1 .578-1.085l2.928-.867c.108-.036.18-.036.253-.036.397 0 .759.217.867.614l.723 2.458h.434c.795 0 1.59.109 2.422.29l1.193-2.242c.18-.289.47-.47.795-.47.145 0 .29.036.434.109l2.675 1.446c.434.253.578.795.362 1.193l-1.23 2.277a9.482 9.482 0 0 1 1.808 2.205l2.458-.723c.072-.036.18-.036.253-.036.398 0 .723.253.831.65l.904 2.929a.905.905 0 0 1-.615 1.084l-2.457.723c.036.976-.073 1.916-.29 2.856l2.242 1.229c.433.217.614.759.361 1.193l-1.446 2.675a.87.87 0 0 1-.795.47.729.729 0 0 1-.398-.109l-2.277-1.229a9.482 9.482 0 0 1-2.205 1.807l.723 2.459a.893.893 0 0 1-.579 1.12l-2.964.868c-.072.036-.144.036-.253.036zm-1.952-19.918c-2.494 0-4.88 1.301-6.145 3.651-1.844 3.398-.578 7.627 2.783 9.435 1.085.578 2.205.867 3.326.867a6.979 6.979 0 0 0 3.326-13.122 6.74 6.74 0 0 0-3.29-.83z" fill="#EEF2FA"/>
    <path d="M167.93 39.503c.036-.072.036-.144.036-.217a.892.892 0 0 0-.434-.759l.109-.217.144-.216c.434.253.687.723.687 1.192v.181c-.181.036-.361.036-.542.036zm-.398-.976-2.964-1.59.036-.18c.253-.977.398-1.953.398-2.929 0-.18 0-.325-.036-.506v-.18l3.217-.977a.846.846 0 0 0 .614-.795c0-.072 0-.18-.036-.253l-1.084-3.615a.847.847 0 0 0-.795-.614c-.073 0-.145.036-.254.036l-3.217.976-.108-.18a11.746 11.746 0 0 0-2.169-2.676l-.145-.144 1.627-2.928c.036-.145.072-.29.072-.398 0-.325-.144-.615-.433-.76l-3.326-1.807a1.304 1.304 0 0 0-.398-.072.796.796 0 0 0-.723.434l-1.59 2.964-.217-.072c-.94-.253-1.952-.362-2.928-.362h-.506l-.181.036-.976-3.253a.813.813 0 0 0-.795-.578c-.072 0-.145 0-.217.036l-3.651 1.084a.814.814 0 0 0-.578.796c0 .072 0 .144.036.216l.94 3.254-.145.072a12.965 12.965 0 0 0-2.675 2.205l-.145.145-2.964-1.627a.727.727 0 0 0-.397-.108.83.83 0 0 0-.723.47l-1.808 3.289a.946.946 0 0 0-.108.398c0 .325.144.614.434.759l2.964 1.59-.036.181a11.602 11.602 0 0 0-.362 2.928v.29c-.181-.073-.361-.145-.506-.182v-.108c0-.94.109-1.916.325-2.856l-2.602-1.41a1.316 1.316 0 0 1-.723-1.192c0-.181.072-.434.181-.615l1.771-3.326a1.395 1.395 0 0 1 1.193-.686c.217 0 .433.036.65.144l2.603 1.41a13.319 13.319 0 0 1 2.494-2.024l-.831-2.82v-.036c-.072-.108-.072-.253-.072-.361 0-.579.361-1.121.976-1.302l3.614-1.048c.109-.072.253-.072.362-.072.578 0 1.12.361 1.301.976l.832 2.82h.325c.976 0 1.916.108 2.856.36l1.446-2.638c.216-.434.686-.687 1.156-.687.217 0 .434.036.651.145l3.326 1.807c.433.253.686.723.686 1.193 0 .217-.036.434-.144.614l-1.41 2.64c.759.722 1.446 1.59 1.988 2.494l2.856-.868c.144-.036.253-.036.398-.036.578 0 1.12.361 1.265.94l1.084 3.614c.036.145.072.253.072.398 0 .578-.397 1.12-.976 1.265l-2.855.868c0 .108.036.217.036.325 0 .94-.145 1.916-.362 2.856l2.639 1.41-.144.216-.109.217z" fill="#F1F4FA"/>
    <path d="m143.942 44.028.651-1.193a12.012 12.012 0 0 1-2.024-2.495l-2.856.832c-.144.036-.253.072-.398.072-.578 0-1.084-.397-1.265-.976l-1.084-3.614a1.29 1.29 0 0 1-.072-.362c0-.578.397-1.12.976-1.301l2.855-.832v-.253c.145.036.326.109.506.181v.434l-3.217.94a.89.89 0 0 0-.614.831c0 .072.036.145.036.217l1.084 3.615a.847.847 0 0 0 .795.614c.073 0 .181 0 .254-.036l3.217-.976.108.18a11.72 11.72 0 0 0 2.169 2.676l.145.144-.615 1.12c-.217.073-.434.11-.651.182zm23.75-2.892h-.543l.76-1.446a.613.613 0 0 0 .072-.18c.181 0 .361 0 .542-.037-.036.18-.072.325-.145.434l-.686 1.229z" fill="#EEF2FA"/>
    <path d="M160.215 39.11a3.175 3.175 0 0 0-.579-.073c.289-.398.579-.795.796-1.229a8.346 8.346 0 0 0 1.012-3.976 8.41 8.41 0 0 0-4.374-7.374 8.727 8.727 0 0 0-3.976-.976c-2.965 0-5.82 1.554-7.338 4.374a8.198 8.198 0 0 0-1.013 3.94c0 .542.037 1.048.145 1.554-.181-.072-.362-.108-.542-.18a8.38 8.38 0 0 1-.109-1.374 8.84 8.84 0 0 1 1.085-4.194c1.59-2.964 4.627-4.626 7.772-4.626 1.445 0 2.891.325 4.229 1.048a8.882 8.882 0 0 1 4.627 7.808c0 1.41-.326 2.855-1.049 4.193-.216.398-.433.723-.686 1.084z" fill="#F1F4FA"/>
    <path d="M150.922 42.407a8.728 8.728 0 0 1-2.025-.795l.145-.217.109-.217a8.89 8.89 0 0 0 3.253.976c-.506.073-.976.181-1.482.253zm5.169-.759c1.374-.542 2.639-1.41 3.579-2.602.18 0 .397.036.578.072a8.6 8.6 0 0 1-2.639 2.35c-.506.072-1.012.108-1.518.18zm-7.194-.036a8.797 8.797 0 0 1-4.518-6.434c.181.072.361.108.542.18a8.322 8.322 0 0 0 4.23 5.82l-.109.217-.145.217z" fill="#EEF2FA"/>
    <path d="M121.764 169.894H44.082c-2.314 0-4.193-1.88-4.193-4.23v-54.439a4.196 4.196 0 0 1 4.193-4.193h77.682c2.35 0 4.229 1.88 4.229 4.193v54.439c0 2.35-1.879 4.23-4.229 4.23z" fill="#FEFEFE"/>
    <path d="M39.889 124.383v-14.17a3.163 3.163 0 0 1 3.18-3.181h79.707c1.772 0 3.217 1.41 3.217 3.181v13.845l-86.104.325z" fill="#E5EFFF"/>
    <path d="M46.594 135.415h9.543v-7.627h-9.543v7.627z" fill="#B2CFFC"/>
    <path d="M46.594 148.743h9.543v-7.628h-9.543v7.628zM46.594 161.698h9.543v-7.628h-9.543v7.628zM62.91 135.415h9.542v-7.627H62.91v7.627z" fill="#C7DDFF"/>
    <path d="M62.91 148.743h9.542v-7.628H62.91v7.628z" fill="#B2CFFC"/>
    <path d="M70.97 161.698h-8.06v-7.628h9.542v4.41c-.578 1.049-1.084 2.097-1.482 3.218z" fill="#C7DDFF"/>
    <path d="M88.476 135.415h-9.543v-7.627h8.35c.253 2.567.65 5.133 1.193 7.627zM83.415 148.743h-4.482v-7.628h9.543v6.182c-1.772.289-3.47.759-5.061 1.446z" fill="#CEE1FF"/>
    <path d="M110.917 148.743h9.543v-7.628h-9.543v7.628z" fill="#B2CFFC"/>
    <path d="M71.313 131.466h-.253c0 .759-.325 1.446-.795 1.952a2.763 2.763 0 0 1-1.952.832 2.639 2.639 0 0 1-1.952-.832 2.762 2.762 0 0 1-.832-1.952c0-.759.326-1.446.832-1.952.47-.506 1.157-.795 1.952-.795.759 0 1.446.289 1.952.795.47.506.795 1.193.795 1.952h.506a3.263 3.263 0 0 0-3.253-3.253c-1.808 0-3.29 1.446-3.29 3.253 0 1.808 1.483 3.254 3.29 3.254a3.263 3.263 0 0 0 3.253-3.254h-.253z" fill="#FEFEFE"/>
    <path d="m66.682 129.336 2.53 4.265c.072.145.217.181.361.109.109-.073.145-.254.073-.362l-2.53-4.265a.235.235 0 0 0-.326-.073c-.145.073-.18.217-.108.326z" fill="#FEFEFE"/>
    <path d="m70.143 129.875-4.265 2.53c-.145.072-.18.217-.109.325.073.109.217.145.362.109l4.265-2.531c.109-.072.145-.217.073-.361a.234.234 0 0 0-.326-.072z" fill="#FEFEFE"/>
    <path d="M50.497 117.306c-2.133 0-3.832-1.699-3.832-3.796a3.833 3.833 0 0 1 3.832-3.831c2.096 0 3.795 1.735 3.795 3.831a3.795 3.795 0 0 1-3.795 3.796z" fill="#92BDFF"/>
    <path d="M50.483 114.87c-.94 0-1.699-.759-1.699-1.699v-10.953c0-.939.76-1.698 1.7-1.698.903 0 1.662.759 1.662 1.698v10.953c0 .94-.759 1.699-1.663 1.699z" fill="#3C83F0"/>
    <path d="M61.726 117.306c-2.096 0-3.831-1.699-3.831-3.796 0-2.096 1.735-3.831 3.831-3.831 2.097 0 3.796 1.735 3.796 3.831a3.795 3.795 0 0 1-3.796 3.796z" fill="#92BDFF"/>
    <path d="M61.78 114.87c-.94 0-1.7-.759-1.7-1.699v-10.953c0-.939.76-1.698 1.7-1.698.903 0 1.662.759 1.662 1.698v10.953c0 .94-.76 1.699-1.663 1.699z" fill="#3C83F0"/>
    <path d="M72.353 117.306a3.795 3.795 0 0 1-3.795-3.796c0-2.096 1.699-3.831 3.795-3.831 2.097 0 3.796 1.735 3.796 3.831a3.795 3.795 0 0 1-3.796 3.796z" fill="#92BDFF"/>
    <path d="M72.405 114.87c-.904 0-1.663-.759-1.663-1.699v-10.953c0-.939.76-1.698 1.663-1.698.94 0 1.663.759 1.663 1.698v10.953c0 .94-.723 1.699-1.663 1.699z" fill="#3C83F0"/>
    <path d="M83.645 117.306a3.795 3.795 0 0 1-3.795-3.796c0-2.096 1.699-3.831 3.795-3.831 1.59 0 2.964 1.012 3.543 2.386-.109 1.12-.181 2.241-.253 3.361a3.797 3.797 0 0 1-3.29 1.88z" fill="#92BDFF"/>
    <path d="M83.63 114.87c-.903 0-1.662-.759-1.662-1.699v-10.953c0-.939.759-1.698 1.662-1.698.94 0 1.7.759 1.7 1.698v10.953c0 .94-.76 1.699-1.7 1.699zM94.258 114.87c-.94 0-1.698-.759-1.698-1.699v-10.953c0-.939.759-1.698 1.698-1.698.904 0 1.663.759 1.663 1.698v10.953c0 .94-.759 1.699-1.663 1.699zM105.554 114.87a1.698 1.698 0 0 1-1.699-1.699v-10.953c0-.939.76-1.698 1.699-1.698.904 0 1.663.759 1.663 1.698v10.953c0 .94-.759 1.699-1.663 1.699zM116.179 114.87c-.903 0-1.662-.759-1.662-1.699v-10.953c0-.939.759-1.698 1.662-1.698.94 0 1.663.759 1.663 1.698v10.953c0 .94-.723 1.699-1.663 1.699z" fill="#3C83F0"/>
    <path d="M114.331 169.711c0 12.507-10.013 22.665-22.375 22.665-12.399 0-22.412-10.158-22.412-22.665 0-12.544 10.013-22.665 22.412-22.665 12.362 0 22.375 10.121 22.375 22.665z" fill="#6E97CE"/>
    <path d="M109.148 169.711c0 9.616-7.699 17.424-17.206 17.424s-17.243-7.808-17.243-17.424c0-9.615 7.736-17.423 17.243-17.423 9.507 0 17.206 7.808 17.206 17.423z" fill="#FEFEFE"/>
    <path d="M92.308 168.45h-.759c-.253 0-.47-.217-.47-.433v-10.953c0-.253.217-.434.47-.434h.76c.252 0 .469.181.469.434v10.953c0 .216-.217.433-.47.433zM91.995 170.372v-.76c0-.253.217-.433.434-.433h8.603c.253 0 .47.18.47.433v.76c0 .253-.217.47-.47.47h-8.603c-.217 0-.434-.217-.434-.47z" fill="#6E97CE"/>
    <path d="M94.478 169.716c0 1.373-1.121 2.53-2.495 2.53a2.538 2.538 0 0 1-2.53-2.53c0-1.41 1.12-2.53 2.53-2.53 1.374 0 2.495 1.12 2.495 2.53z" fill="#3C83F0"/>
    <path d="M44.111 83.327h-19.7a.84.84 0 0 0-.832.832v14.35c0 .47.398.832.831.832h19.701c.47 0 .831-.362.831-.832V84.16a.818.818 0 0 0-.831-.832z" fill="#FEFEFE"/>
    <path d="M34.243 91.677c-.073 0-.109 0-.181-.036l-2.169-1.157-7.772-3.94-.542-.253V84.16a.84.84 0 0 1 .831-.832h19.701c.47 0 .831.362.831.832v1.337a.273.273 0 0 0-.144.072l-.723.398-9.616 5.675c-.072.036-.144.036-.216.036zM23.58 97.493V87.299l7.663 3.904-7.664 6.29zM44.942 97.565l-7.736-6.507 7.736-4.518v11.025z" fill="#86ADDB"/>
    <path d="M44.111 99.342h-19.7a.84.84 0 0 1-.832-.831v-.109c.072 0 .145.036.18.036a.41.41 0 0 0 .29-.108l7.989-6.615.072-.072 1.518.795c.18.108.398.18.615.18.253 0 .47-.072.686-.18l1.446-.868 8.025 6.76a.576.576 0 0 0 .29.108c.108 0 .18-.036.252-.072v.145c0 .47-.361.831-.831.831z" fill="#86ADDB"/>
    <path d="M44.942 85.498a.274.274 0 0 0-.144.072l-.723.398-9.616 5.675a.392.392 0 0 1-.397 0l-2.169-1.157-7.772-3.94-.542-.253v1.012l7.663 3.904-7.663 6.29v.904c.072 0 .145.036.18.036a.41.41 0 0 0 .29-.109l7.989-6.615.072-.072 1.518.795c.18.109.398.181.615.181.253 0 .47-.072.686-.18l1.446-.868 8.025 6.76a.576.576 0 0 0 .29.108c.108 0 .18-.036.252-.072v-.796l-7.735-6.506 7.735-4.519v-1.048z" fill="#586CB2"/>
    <path d="M243.505 119.44c0 43.233-35.063 78.297-78.332 78.297-43.27 0-78.333-35.064-78.333-78.297 0-43.269 35.063-78.333 78.333-78.333 43.269 0 78.332 35.064 78.332 78.333z" fill="#3C83F0"/>
    <path d="M165.148 190.608c-39.293 0-71.175-31.883-71.175-71.176 0-39.329 31.882-71.175 71.175-71.175 18.906 0 36.112 7.374 48.873 19.411a31.851 31.851 0 0 0 11.278 22.737c-.542.398-1.229.651-1.699 1.157a3.074 3.074 0 0 0-.542.796c-10.194-21.762-32.281-36.835-57.91-36.835-35.28 0-63.91 28.593-63.91 63.909 0 35.281 28.63 63.91 63.91 63.91 28.232 0 52.198-18.327 60.657-43.703h6.109v.109c0 .433.398.831.867.831h.362c-9.001 28.991-36.04 50.029-67.995 50.029zm62.211-85.96c-.108-.398-.217-.795-.289-1.193.506.181 1.048.325 1.627.434-.47.217-.904.47-1.338.759z" fill="#B3CCF2"/>
    <path d="M229.063 119.438c0 35.281-28.593 63.91-63.91 63.91-35.281 0-63.91-28.629-63.91-63.91 0-35.317 28.629-63.91 63.91-63.91 35.317 0 63.91 28.593 63.91 63.91z" fill="#FEFEFE"/>
    <path d="M165.109 69.94h-.144c-.904 0-1.663-.76-1.663-1.663v-8.314c0-.904.759-1.663 1.663-1.663h.144c.904 0 1.663.759 1.663 1.663v8.314c0 .903-.759 1.662-1.663 1.662zM165.321 180.554h-.145a1.682 1.682 0 0 1-1.662-1.663v-8.314c0-.94.759-1.663 1.662-1.663h.145c.904 0 1.663.723 1.663 1.663v8.314c0 .904-.759 1.663-1.663 1.663zM214.632 119.394v-.144c0-.904.723-1.663 1.663-1.663h8.314c.903 0 1.662.759 1.662 1.663v.144c0 .904-.759 1.663-1.662 1.663h-8.314c-.94 0-1.663-.759-1.663-1.663zM104.066 119.607v-.144c0-.904.76-1.663 1.663-1.663h8.314c.94 0 1.663.759 1.663 1.663v.144c0 .904-.723 1.627-1.663 1.627h-8.314c-.903 0-1.663-.723-1.663-1.627zM201.702 82.85l-.072-.073c-.651-.65-.651-1.735 0-2.35l3.036-3.072a1.657 1.657 0 0 1 2.349 0l.073.109c.65.65.65 1.699 0 2.35l-3.037 3.036c-.65.65-1.698.65-2.349 0zM123.334 161.551l-.073-.108a1.66 1.66 0 0 1 0-2.35l3.724-3.723a1.657 1.657 0 0 1 2.349 0l.073.072a1.66 1.66 0 0 1 0 2.35l-3.724 3.759a1.657 1.657 0 0 1-2.349 0zM201.77 155.972l.073-.072a1.657 1.657 0 0 1 2.349 0l3.073 3.037c.614.65.614 1.698 0 2.349l-.109.072a1.657 1.657 0 0 1-2.349 0l-3.037-3.036a1.66 1.66 0 0 1 0-2.35zM123.053 77.605l.109-.072a1.659 1.659 0 0 1 2.35 0l3.723 3.723c.651.65.651 1.7 0 2.35l-.072.108a1.728 1.728 0 0 1-2.35 0l-3.76-3.76a1.66 1.66 0 0 1 0-2.349z" fill="#454253"/>
    <path d="M165.184 120.414h-.109a1.829 1.829 0 0 1-1.844-1.844V78.446c0-1.012.796-1.843 1.844-1.843h.109a1.85 1.85 0 0 1 1.843 1.843v40.124a1.85 1.85 0 0 1-1.843 1.844z" fill="#3C83F0"/>
    <path d="M163.231 121.924v-.145c0-1.012.796-1.843 1.844-1.843h27.726a1.85 1.85 0 0 1 1.843 1.843v.145c0 1.012-.831 1.807-1.843 1.807h-27.726c-1.048 0-1.844-.795-1.844-1.807z" fill="#3C83F0"/>
    <path d="M193.648 93.149 165.09 118.85a.471.471 0 0 0-.036.687c.181.217.506.253.687.072l28.593-25.737c.181-.18.217-.506.036-.687a.513.513 0 0 0-.722-.036z" fill="#454253"/>
    <path d="M172.096 119.426a6.904 6.904 0 0 1-6.905 6.904c-3.795 0-6.904-3.109-6.904-6.904a6.904 6.904 0 0 1 6.904-6.905 6.881 6.881 0 0 1 6.905 6.905z" fill="#C1DAFF"/>
    <path d="M311.51 161.795v4.085c0 .651-.289 1.229-.686 1.663a2.326 2.326 0 0 1-1.663.687h-9.869a.494.494 0 0 0-.506.506c0 .253.217.47.506.47h9.869a3.317 3.317 0 0 0 3.325-3.326v-4.085c0-.289-.217-.506-.47-.506a.494.494 0 0 0-.506.506zM285.594 136.02h4.085c.65 0 1.229.253 1.662.687.434.397.687.976.687 1.626v9.869c0 .289.217.506.506.506a.517.517 0 0 0 .506-.506v-9.869c-.036-1.843-1.518-3.325-3.361-3.325h-4.085a.494.494 0 0 0-.506.506c0 .289.217.506.506.506z" fill="#FEFEFE"/>
    <path d="M258.984 175.644h39.871c.47 0 .868-.361.868-.831v-25.629a.88.88 0 0 0-.868-.868h-39.871a.88.88 0 0 0-.868.868v25.629c0 .47.398.831.868.831z" fill="#FEFEFE"/>
    <path d="M298.855 175.644h-39.871c-.47 0-.868-.361-.868-.831v-25.629a.88.88 0 0 1 .868-.868h39.871a.88.88 0 0 1 .868.868v25.629c0 .47-.398.831-.868.831z" fill="#9ABBE2"/>
    <path d="M264.52 161.038h28.81c.325 0 .614-.289.614-.65v-6.073a.633.633 0 0 0-.614-.615h-28.81a.633.633 0 0 0-.615.615v6.073c0 .361.289.65.615.65zM264.303 164.539h29.207c.254 0 .434-.18.434-.433 0-.217-.18-.398-.434-.398h-29.207a.402.402 0 0 0-.398.398c0 .253.181.433.398.433zM264.303 166.868h29.207c.254 0 .434-.181.434-.398 0-.217-.18-.398-.434-.398h-29.207a.402.402 0 0 0-.398.398c0 .217.181.398.398.398zM264.303 169.427h29.207a.417.417 0 0 0 .434-.434c0-.217-.18-.397-.434-.397h-29.207a.4.4 0 0 0-.398.397c0 .253.181.434.398.434zM264.303 171.74h29.207c.254 0 .434-.181.434-.398 0-.217-.18-.398-.434-.398h-29.207a.402.402 0 0 0-.398.398c0 .217.181.398.398.398zM307.491 162.159h9.471a.819.819 0 0 0 .831-.832v-6c0-.47-.362-.868-.831-.868h-9.471a.88.88 0 0 0-.868.868v6c0 .47.398.832.868.832z" fill="#FEFEFE"/>
    <path d="M316.962 162.159h-9.471c-.47 0-.868-.362-.868-.832v-6a.88.88 0 0 1 .868-.868h9.471c.469 0 .831.398.831.868v6c0 .47-.362.832-.831.832z" fill="#EEF2FA"/>
    <path d="M284.42 140.577h-43.812c.073-.325.181-.614.253-.94h3.941c.289 0-1.302-7.41-1.302-7.663l.109-.795h10.844a.247.247 0 0 0 .253-.254.247.247 0 0 0-.253-.253h-10.772l.795-5.566h9.977a.247.247 0 0 0 .253-.253.247.247 0 0 0-.253-.253h-9.904l.831-5.64h13.375a.247.247 0 0 0 .253-.253.248.248 0 0 0-.253-.253h-13.303l.506-3.542h30.871a.248.248 0 0 0 .253-.253c0-.109-.109-.253-.253-.253h-30.798l.433-2.892c.253-2.061-.361-3.832-1.518-5.205h39.474c.47 0 .831.361.831.831v27.979c-.108.072-.181.217-.181.397 0 .145.073.289.181.398v3.832a.84.84 0 0 1-.831.831zm-25.448-18.725c-.543 0-1.013.47-1.013 1.012v9.797c0 .542.47 1.012 1.013 1.012h17.206c.542 0 1.012-.47 1.012-1.012v-9.797c0-.542-.47-1.012-1.012-1.012h-17.206zm3.651-3.398c-.217 0-.398.145-.398.326 0 .144.181.289.398.289h13.808c.217 0 .398-.145.398-.289 0-.181-.181-.326-.398-.326h-13.808z" fill="#919ED0"/>
    <path d="M240.573 140.573h-7.446c.072-.326.181-.615.289-.94h7.41c-.072.325-.18.614-.253.94z" fill="#5162AB"/>
    <path d="M233.153 140.573h-.362c-.47 0-.867-.398-.867-.832v-.108h1.518c-.108.325-.217.614-.289.94z" fill="#7586C1"/>
    <path d="M285.269 135.912a.582.582 0 0 1-.181-.399c0-.181.072-.326.181-.399v.798z" fill="#97A3D2"/>
    <path d="M276.844 114.916h-30.87l.072-.506h30.798c.145 0 .253.145.253.253a.247.247 0 0 1-.253.253zM254.47 125.102h-9.977l.072-.506h9.905c.145 0 .253.108.253.253a.247.247 0 0 1-.253.253zM254.422 131.189h-10.844l.072-.506h10.772c.145 0 .253.108.253.253a.247.247 0 0 1-.253.253zM258.785 118.959H245.41l.072-.506h13.303c.144 0 .253.109.253.253a.247.247 0 0 1-.253.253zM276.419 119.068h-13.808c-.217 0-.398-.145-.398-.29 0-.18.181-.325.398-.325h13.808c.217 0 .398.145.398.325 0 .145-.181.29-.398.29zM276.194 133.679h-17.206c-.542 0-1.012-.47-1.012-1.012v-9.796c0-.543.47-1.013 1.012-1.013h17.206c.542 0 1.012.47 1.012 1.013v9.796c0 .542-.47 1.012-1.012 1.012zm-4.446-2.82c.289 0 .542-.144.723-.397l2.747-4.374a.516.516 0 0 0 .434.217.494.494 0 0 0 .506-.506v-1.88l-1.88.47a.506.506 0 0 0-.361.614.544.544 0 0 0 .506.362h.072l-2.747 4.374-3.832-4.844a.877.877 0 0 0-.651-.326h-.036c-.144 0-.325.073-.47.145a.99.99 0 0 0-.325.434l-1.663 4.518-2.747-3a.846.846 0 0 0-.614-.253h-.037a.79.79 0 0 0-.469.145.982.982 0 0 0-.326.433l-1.048 3.145c-.109.253.036.542.325.651H260c.217 0 .397-.109.47-.325l.976-2.928 2.747 3c.181.181.398.289.614.289h.037c.144-.036.325-.072.47-.145a.988.988 0 0 0 .325-.433l1.663-4.519 3.759 4.808a.89.89 0 0 0 .687.325z" fill="#F9FCFE"/>
    <path d="M271.714 130.849a.89.89 0 0 1-.687-.325l-3.759-4.808-1.663 4.519a.988.988 0 0 1-.325.433c-.145.073-.326.109-.47.145h-.036c-.217 0-.434-.108-.615-.289l-2.747-3-.976 2.928c-.072.216-.253.325-.47.325h-.145c-.289-.109-.433-.398-.325-.651l1.048-3.145a.99.99 0 0 1 .326-.433.79.79 0 0 1 .47-.145h.036c.217 0 .433.072.614.253l2.747 3 1.663-4.518a.993.993 0 0 1 .326-.434c.144-.072.325-.144.47-.144h.036c.217 0 .47.108.65.325l3.832 4.844 2.747-4.374h.036l.615-.145v.579c0 .108.036.216.072.289l-2.747 4.374c-.181.253-.434.397-.723.397z" fill="#8596CB"/>
    <path d="M275.617 126.309a.516.516 0 0 1-.433-.217.672.672 0 0 1-.073-.289v-.579l-.614.145H274.388a.544.544 0 0 1-.506-.362.507.507 0 0 1 .362-.614l1.879-.47v1.88a.494.494 0 0 1-.506.506z" fill="#8596CB"/>
    <path d="M272.002 97.664a.724.724 0 0 1-.686-.506l-.615-1.916h-.181a8.316 8.316 0 0 1-2.096-.253l-.904 1.735a.71.71 0 0 1-.614.326c-.109 0-.217-.037-.326-.073l-2.169-1.156c-.361-.217-.47-.615-.289-.94l.94-1.735c-.434-.398-.831-.796-1.157-1.266a21.15 21.15 0 0 0 1.772-1.373 5.163 5.163 0 0 0 2.024 1.807 5.354 5.354 0 0 0 2.711.723c1.952 0 3.759-.976 4.735-2.747 1.374-2.603.326-5.892-2.386-7.338a1.683 1.683 0 0 0-.361-.18 37.206 37.206 0 0 0 2.133-4.122l1.518.832c.325.18.47.578.289.903l-.94 1.736c.579.542 1.085 1.12 1.446 1.735l1.952-.506c.072-.036.145-.036.181-.036.325 0 .614.216.687.506l.759 2.277c.108.361-.109.723-.47.831l-1.952.543a6.31 6.31 0 0 1-.181 2.168l1.808 1.013c.361.18.469.578.289.903l-1.085 2.06c-.144.218-.361.362-.614.362-.109 0-.217-.036-.362-.108l-1.771-.976a8.79 8.79 0 0 1-1.735 1.373l.614 1.916c.109.362-.108.723-.469.831l-2.314.615c-.072.036-.108.036-.181.036z" fill="#C3D9F0"/>
    <path d="M297.556 56.974c-1.085-1.662-2.277-3.29-3.579-4.771l.976-.29c.109-.035.217-.072.326-.072.506 0 .976.326 1.12.832l1.121 3.831c.036.145.072.29.036.47zm-7.266-8.603a37.742 37.742 0 0 0-3.217-2.639c-.614-.433-1.229-.831-1.844-1.229l.254-.47a1.196 1.196 0 0 1 1.012-.578c.18 0 .397.036.542.145l3.506 1.88c.579.289.759 1.012.47 1.554l-.723 1.337z" fill="#F7FBFE"/>
    <path d="M283.323 76.244c-.47 0-.94-.326-1.085-.832l-.939-3.217c-.181.036-.362.036-.543.036-1.048 0-2.132-.144-3.145-.397l-1.59 2.928a.76.76 0 0 0-.145.216c.651-2.35 1.085-4.771 1.229-7.265a9.313 9.313 0 0 0 3.651.759 9.153 9.153 0 0 0 7.989-4.735c2.35-4.41.723-9.905-3.687-12.29a8.788 8.788 0 0 0-4.302-1.122 9.037 9.037 0 0 0-6.326 2.567c-.506-1.193-1.12-2.313-1.771-3.434.506-.398 1.012-.76 1.555-1.084l-.976-3.181a1.171 1.171 0 0 1 .795-1.446l3.795-1.121c.109-.036.217-.036.326-.036.506 0 .976.325 1.12.795l.94 3.217h.542c1.049 0 2.133.109 3.145.398l1.338-2.494c.614.397 1.229.795 1.843 1.229a37.76 37.76 0 0 1 3.217 2.639l-.867 1.59c.94.868 1.699 1.844 2.349 2.892l2.205-.65c1.302 1.481 2.495 3.108 3.579 4.77-.036.435-.361.796-.795.94l-3.217.94c.072 1.23-.073 2.495-.362 3.724l2.928 1.554c.542.325.759 1.012.47 1.59l-1.916 3.47a1.157 1.157 0 0 1-1.012.615 1.02 1.02 0 0 1-.542-.144l-2.928-1.59a12.712 12.712 0 0 1-2.892 2.349l.94 3.18c.181.615-.145 1.266-.759 1.447l-3.796 1.12a1.28 1.28 0 0 1-.361.073z" fill="#F3F6FB"/>
    <path d="M238.917 35.534h13.194v-7.628h-13.194v7.628z" fill="#FF6A87"/>
    <path d="M253.315 30.288h-15.472c-.542 0-.976-.47-.976-1.012v-3.253c0-.542.434-.976.976-.976h15.472c.542 0 .976.434.976.976v3.253c0 .542-.434 1.012-.976 1.012z" fill="#586CB2"/>
    <path d="M277.144 65.896c0 17.64-14.134 31.955-31.557 31.955-17.46 0-31.594-14.315-31.594-31.955s14.134-31.955 31.594-31.955c17.423 0 31.557 14.315 31.557 31.955z" fill="#FF9AAE"/>
    <path d="M269.814 65.901c0 13.556-10.844 24.545-24.255 24.545s-24.291-10.99-24.291-24.545c0-13.555 10.88-24.58 24.291-24.58s24.255 11.025 24.255 24.58z" fill="#FEFEFE"/>
    <path d="M245.443 90.44c-.795 0-1.554-.036-2.313-.108.65.072 1.337.108 1.988.108h.361-.036zm-16.05-6.109a24.16 24.16 0 0 1-5.458-7.049c-.072-.108-.072-.253-.036-.397a24.344 24.344 0 0 0 5.567 7.374c0 .036-.037.036-.073.072z" fill="#EDDFE6"/>
    <path d="M245.672 90.435c5.892-.072 10.989-3.579 13.411-8.603.506-1.012-6.759-6.724-13.736-6.724h-.181c-7.013.073-13.664 6.037-13.122 7.122.181.361.398.722.615 1.084h-.072a5.49 5.49 0 0 0-2.133.434c-.325.144-.651.325-1.012.506a24.36 24.36 0 0 1-5.567-7.374c.398-2.386 10.483-10.88 21.074-11.025h.253c11.206 0 22.81 9.145 22.051 10.772-3.904 8.097-12.11 13.7-21.581 13.808zm-.578 0c-.651 0-1.338-.036-1.988-.108v-.073c.65.109 1.301.181 1.988.181z" fill="#F1F4FA"/>
    <path d="M245.477 90.447h-.397c-.687 0-1.338-.072-1.989-.18-.144-.58-.506-1.05-.939-1.447-.543-.47-.832-.867-.94-1.59-.073-.65-.073-1.338-.398-1.88-.217-.398-.578-.687-.976-.94-.976-.687-2.205-1.156-3.434-1.156-.651 0-1.121.252-1.735.36-.072 0-.109.037-.181.037-.253 0-.47-.144-.759-.217a4.817 4.817 0 0 0-1.012-.108h-.072a16.521 16.521 0 0 1-.615-1.085c-.542-1.084 6.109-7.049 13.122-7.12h.181c6.976 0 14.242 5.71 13.736 6.723-2.422 5.024-7.519 8.53-13.411 8.603h-.181z" fill="#F7FBFE"/>
    <path d="M246.268 64.127h-1.446a.478.478 0 0 1-.469-.47v-15.76c0-.253.216-.434.469-.434h1.446c.253 0 .434.18.434.434v15.76c0 .253-.181.47-.434.47z" fill="#B2CFFC"/>
    <path d="M249.107 65.902c0 1.952-1.59 3.578-3.542 3.578-1.952 0-3.543-1.626-3.543-3.578 0-1.988 1.591-3.579 3.543-3.579 1.952 0 3.542 1.59 3.542 3.579z" fill="#3C83F0"/>
    <path d="M297.197 85.781H284.22a.556.556 0 0 0-.542.542v9.471c0 .29.253.543.542.543h12.977a.556.556 0 0 0 .542-.543v-9.47a.556.556 0 0 0-.542-.543z" fill="#FEFEFE"/>
    <path d="M290.691 91.276c-.037 0-.073 0-.145-.036l-1.41-.723-5.133-2.603-.325-.18v-1.41c0-.29.253-.543.542-.543h12.977c.289 0 .542.253.542.542v.904l-.108.036-.47.253-6.326 3.724c-.036.036-.108.036-.144.036zM283.678 95.099V88.41l5.025 2.53-5.025 4.157zM297.741 95.147l-5.097-4.265 5.097-3v7.265z" fill="#86ADDB"/>
    <path d="M297.197 96.333H284.22a.556.556 0 0 1-.542-.542v-.108l.108.036a.277.277 0 0 0 .181-.072l5.278-4.338.036-.037 1.012.507a.728.728 0 0 0 .398.108.96.96 0 0 0 .433-.108l.976-.579 5.278 4.447c.072.036.108.072.181.072.072 0 .108 0 .18-.036v.108c0 .29-.253.542-.542.542z" fill="#86ADDB"/>
    <path d="m297.739 87.228-.108.037-.47.253-6.326 3.723c-.072.072-.181.072-.289 0l-1.41-.723-5.133-2.603-.325-.18v.686l5.024 2.53-5.024 4.158v.578l.108.036a.277.277 0 0 0 .181-.072l5.278-4.338.036-.036 1.012.506a.728.728 0 0 0 .398.109.96.96 0 0 0 .433-.109l.976-.578 5.278 4.446c.072.036.108.072.181.072.072 0 .108 0 .18-.036v-.542l-5.096-4.266 5.096-3v-.65z" fill="#586CB2"/>
    <path d="M214.791 120.085c-.218-.036-.399-.036-.58-.072-.145 0-.218-.109-.218-.254v-.036c.073.036.145.036.254.072.109 0 .29 0 .435.036.036.073.072.145.109.254z" fill="#F7FBFE"/>
    <path d="M236.668 144.991c.073 0 .147-16.945.147-37.814 0-20.906-.074-37.814-.147-37.814s-.147 16.908-.147 37.814c0 20.869.074 37.814.147 37.814zM212.307 85.833c0 .294.256.55.55.55.33 0 .587-.256.587-.55 0-.293-.257-.55-.587-.55a.564.564 0 0 0-.55.55z" fill="#0064FE"/>
    <path d="M236.094 69.913c0 .294.256.55.55.55.293 0 .55-.256.55-.55a.564.564 0 0 0-.55-.55.564.564 0 0 0-.55.55z" fill="#0064FE"/>
    <path d="m228.865 205.542.11-4.694 8.766.146-.11 6.859-.513.037c-2.421.073-12.324.293-13.938-.257-1.76-.55 5.685-2.091 5.685-2.091z" fill="#F1626C"/>
    <path d="M234.516 207.742a3.227 3.227 0 0 1 1.137-1.871c.586-.44 1.32-.66 2.053-.587l-.036 2.458h-3.154z" fill="#0064FE"/>
    <path d="M225.25 206.418s-2.64.697-2.31 1.137c.293.44 10.306.587 14.707.293v-.183l-11.663-.11s-.257-1.137-.734-1.137z" fill="#0064FE"/>
    <path d="M237.832 207.623H235.668a124.41 124.41 0 0 1-5.281 0c-2.054-.036-3.888-.11-5.245-.146-.623-.037-1.137-.037-1.577-.074h-.586.146c.11.037.257.037.44.037.404.037.954.073 1.577.11 1.357.073 3.191.147 5.245.147 2.054.037 3.924.037 5.281 0 .624 0 1.137 0 1.577-.037h.44c.074 0 .147 0 .147-.037z" fill="#DD4138"/>
    <path d="M226.01 207.67c.037.037.073-.367-.183-.807-.257-.403-.624-.586-.624-.55-.037 0 .293.22.513.624.257.366.257.77.294.733zM228.592 206.424c.037 0-.036-.184-.184-.405-.11-.184-.22-.367-.257-.331-.037 0 .037.184.184.405.11.184.257.331.257.331zM229.337 206.054c0-.037-.111-.147-.258-.294-.147-.147-.257-.221-.294-.221 0 .037.074.184.221.294.147.147.294.258.331.221zM229.776 205.238c0-.036-.184-.073-.442-.073-.257 0-.478.037-.478.073 0 0 .221.037.478.037.258 0 .442 0 .442-.037zM229.958 204.659c0-.037-.257 0-.513.036-.294 0-.514 0-.514.037-.036 0 .22.074.514.074.293-.037.513-.111.513-.147z" fill="#DD4138"/>
    <path d="M228.331 205.652s-.184-.037-.55-.073c-.147-.037-.33-.11-.55-.184a1.279 1.279 0 0 1-.331-.146c-.073-.037-.11-.147-.036-.22.183-.111.477-.111.66-.037.22.073.367.183.477.33.22.257.256.477.256.477v-.147a1.12 1.12 0 0 0-.183-.367c-.183-.293-.733-.623-1.284-.33-.036.037-.11.147-.073.22 0 .074.073.147.147.184.11.073.22.11.33.146.22.074.403.11.587.147.366.037.55 0 .55 0z" fill="#DD4138"/>
    <path d="M228.184 205.69c.036 0 0-.146.036-.403.037-.11.074-.22.147-.367.11-.11.257-.22.404-.22.11.037.073.257 0 .367-.074.146-.184.256-.257.33-.147.183-.257.257-.257.257 0 .036.147-.037.33-.22a1.28 1.28 0 0 0 .257-.331 1.76 1.76 0 0 0 .11-.256c0-.074-.037-.22-.183-.257-.22 0-.367.183-.477.293-.074.147-.147.294-.147.404-.037.257.037.403.037.403zM237.67 205.238s-.074-.036-.184-.036c-.11-.037-.257-.037-.477-.037a3.048 3.048 0 0 0-1.467.55c-.513.404-.806.917-.916 1.284-.074.22-.074.367-.11.477v.183c.036 0 .036-.257.183-.623.147-.367.44-.844.917-1.211.477-.367 1.027-.55 1.393-.587.404-.036.661.037.661 0zM236.811 201.582c-.037 0-.037.807-.074 1.797 0 .99.037 1.797.074 1.797 0 0 .036-.807.036-1.797 0-.99 0-1.797-.036-1.797zM233.427 206.857c0-.036-.55 0-1.284 0-.697 0-1.247-.073-1.284-.036 0 .036.587.11 1.284.146.734 0 1.284-.11 1.284-.11z" fill="#DD4138"/>
    <path d="M235.136 206.864s-.147.074-.221.221c-.073.147-.036.294 0 .294 0 0 .037-.11.111-.257.073-.111.147-.221.11-.258zM235.787 206.088c-.037-.037-.11.037-.221.11-.073.111-.147.184-.11.221.037 0 .11-.037.184-.147.11-.074.184-.184.147-.184zM236.719 205.717c.036-.037-.111-.074-.258-.037-.184.074-.257.184-.22.221 0 0 .11-.074.257-.11.11-.037.221-.037.221-.074zM237.352 205.568c0-.037-.073-.037-.147 0-.074 0-.11.073-.11.073.036.037.073.037.147 0 .073 0 .147-.073.11-.073z" fill="#DD4138"/>
    <path d="M198.264 74.418s-7.482-7.703-8.142-7.373c-.697.33 2.75 3.485 2.274 3.888-.44.404-4.035 3.154 1.76 7.482l4.108-3.997z" fill="#F3B6A6"/>
    <path d="m191.821 72.175.11.22c.11.184.22.404.367.624.183.257.367.55.55.844.11.183.22.366.44.476a.52.52 0 0 0 .661-.11c.183-.22.073-.476-.037-.66-.11-.183-.22-.367-.33-.513-.22-.294-.404-.587-.587-.88-.11-.184-.257-.404-.367-.587-.11-.11-.147-.184-.147-.184-.036 0 .037.074.111.22.11.184.22.404.366.587.147.294.33.587.55.88.074.184.184.33.294.514.11.183.183.403.073.55a.444.444 0 0 1-.55.073c-.183-.073-.293-.256-.403-.403l-.551-.88c-.146-.184-.293-.367-.403-.55-.11-.147-.147-.22-.147-.22z" fill="#F18B7A"/>
    <path d="M191.392 73.03s0 .074.036.22c.037.147.11.33.184.588.11.22.256.476.513.733.074.147.22.294.404.367a.45.45 0 0 0 .587-.037.585.585 0 0 0 .073-.587 2.036 2.036 0 0 0-.294-.476c-.183-.257-.33-.514-.476-.734-.147-.22-.257-.403-.33-.513-.074-.11-.147-.184-.147-.184l.11.22c.11.147.22.33.293.514.147.22.294.477.477.77.073.11.184.257.257.44a.452.452 0 0 1-.037.477.451.451 0 0 1-.477.037c-.146-.11-.293-.22-.366-.33a3.815 3.815 0 0 1-.514-.734c-.22-.44-.257-.77-.293-.77z" fill="#F18B7A"/>
    <path d="M195.921 72.84c-.916-.073-1.833-.146-2.714-.183-.073 0-.11-.037-.183 0-.147.037-.147.257-.11.403.11.44.513.807.954.99.44.184.916.22 1.393.257.44 0 .881.037 1.321.074l-.661-1.54z" fill="#F3B6A6"/>
    <path d="M196.567 74.383s-.11-.037-.293-.037c-.257-.036-.514-.073-.807-.073-.33-.037-.734-.037-1.174-.147-.44-.073-.917-.293-1.21-.733-.11-.184-.22-.477-.11-.624.073-.11.183-.073.293-.073.11 0 .22.037.33.037.441 0 .844.036 1.211.073.293 0 .55 0 .807.037h.293c0-.037-.11-.037-.293-.037-.257-.037-.514-.073-.807-.073-.367-.037-.77-.074-1.174-.11-.11 0-.257 0-.367-.037h-.183a.2.2 0 0 0-.183.11c-.111.11-.074.257-.037.403 0 .11.073.257.147.367.293.44.806.66 1.247.77.44.074.88.074 1.21.11.293 0 .55 0 .807.037h.293zM190.963 73.8s0 .037.037.147c.073.11.11.256.146.44.074.22.11.44.257.697a.86.86 0 0 0 .33.293.395.395 0 0 0 .22.073c.11-.036.183-.073.22-.146.11-.147.073-.33.037-.477-.037-.147-.11-.257-.184-.404-.073-.183-.183-.403-.293-.623-.147-.367-.257-.587-.293-.587 0 0 .073.22.256.624.074.22.184.44.257.623.073.257.293.55.147.77a.239.239 0 0 1-.33.074 1.13 1.13 0 0 1-.294-.294c-.11-.22-.183-.44-.256-.623-.11-.404-.257-.624-.257-.587z" fill="#F18B7A"/>
    <path d="M194.444 76.547c.037 0-.11-.514-.146-1.137-.037-.66.036-1.174 0-1.174 0-.037-.147.514-.11 1.174.036.66.256 1.173.256 1.137z" fill="#F18B7A"/>
    <path d="M229.942 71.852c0 1.98-1.1 3.924-2.787 4.95-.44.258-.954.478-1.357.808-.44.33-.77.807-.734 1.357.037.843.881 1.357 1.614 1.724-.807.77-.843 2.237-.037 3.007.807.77 2.274.697 3.008-.146.037 1.577 1.284 2.934 2.787 3.374 1.504.44 3.155 0 4.438-.917 1.247-.88 2.164-2.237 2.824-3.668l-9.756-10.49z" fill="#1B1B43"/>
    <path d="M233.712 86.416c.147-.77-.183-4.108-.183-4.108s-3.044-.293-3.228-3.3c-.183-3.008 0-9.903 0-9.903l5.538-2.714 6.052 4.584-.917 15-7.262.441z" fill="#F3B6A6"/>
    <path d="M230.935 74.12c0 .22.147.367.367.367.221 0 .405-.147.405-.367 0-.221-.184-.368-.405-.368-.22 0-.367.147-.367.368zM230.587 73.726c.037.037.33-.22.733-.22.404-.037.734.183.771.11 0-.037-.037-.11-.184-.22-.11-.074-.33-.147-.587-.147-.256 0-.476.11-.623.22-.11.11-.147.22-.11.257zM235.374 74.12c0 .22.184.367.368.367.22 0 .404-.147.404-.367 0-.221-.184-.368-.404-.368a.369.369 0 0 0-.368.368zM235.173 73.726c.037.037.33-.22.733-.22.404-.037.734.183.771.11 0-.037-.037-.11-.184-.22-.11-.074-.367-.147-.623-.147-.257 0-.44.11-.587.22-.11.11-.147.22-.11.257zM233.642 77.169c0-.037-.256-.037-.66-.074-.11 0-.22-.036-.257-.11-.036-.073 0-.183.074-.33.073-.293.183-.55.256-.843.221-.624.367-1.174.477-1.578a3.02 3.02 0 0 0 .184-.623c-.037-.037-.147.22-.257.623-.147.367-.33.917-.55 1.54-.074.294-.184.551-.257.844-.037.11-.11.257-.037.44.074.147.257.147.33.147.441 0 .697 0 .697-.036z" fill="#1B1B43"/>
    <path d="M234.994 77.573c.404-.257-1.137.697-1.98.697 0 0 .513.77 1.357.404.88-.367.623-1.1.623-1.1z" fill="#FEFEFE"/>
    <path d="M233.581 82.306s2.017.036 3.961-1.32c0 0-.88 2.2-3.888 2.053l-.073-.733z" fill="#F18B7A"/>
    <path d="M231.585 66.9c2.971-3.117 4.988-2.457 6.162-2.457.843 0 4.217.66 6.491 3.741.844.88 2.018 3.668 2.164 4.658.147.99-.036 2.017-.036 3.008 0 .99.22 2.09.99 2.75.477.404 1.137.66 1.431 1.21.33.66-.037 1.541-.661 1.944-.623.404-1.393.477-2.164.44.184 1.468-.953 2.971-2.42 3.191-.771.147-1.541-.11-2.164-.55-.477.477-1.027.954-1.578 1.394-.146-4.364-.036-8.729.257-13.094-1.98-.366-5.575-1.43-6.198-4.657-.807 1.833-2.018 2.824-3.631 4.217 0 0-1.614-2.714 1.357-5.794z" fill="#1B1B43"/>
    <path d="M239.884 71.957c0-.037-.476-.037-1.21 0-.733.036-1.797.11-2.861-.33-.513-.22-.916-.55-1.173-.954a3.431 3.431 0 0 1-.477-1.174c-.147-.733-.073-1.21-.11-1.21-.037 0-.183.477-.073 1.247.036.367.183.844.44 1.284.293.44.733.843 1.283 1.063 1.137.477 2.238.33 2.971.257.77-.073 1.21-.147 1.21-.183zM247.686 79.292s-.183.037-.477-.074c-.293-.073-.696-.403-.806-.953-.147-.55.036-1.247.366-1.944.147-.367.294-.734.404-1.174.11-.403.146-.88.073-1.357-.073-.917-.44-1.724-.88-2.384a7.831 7.831 0 0 0-1.357-1.614c-.44-.403-.807-.696-1.064-.916-.257-.22-.403-.33-.403-.294-.037.037.513.514 1.357 1.357.403.404.843.917 1.247 1.577.403.66.77 1.43.843 2.31a3 3 0 0 1-.073 1.285c-.073.366-.257.77-.403 1.1-.294.734-.477 1.467-.294 2.09.147.624.624.954.954 1.028.146.036.293.036.403.036.074-.036.11-.036.11-.073zM225.953 75.04c-.037-.037-.11.11-.11.33 0 .257.146.624.513.88.367.257.991.294 1.504.037.514-.257.954-.77 1.247-1.32a8.486 8.486 0 0 0 1.064-3.118c.11-.843.037-1.357.037-1.357-.074 0-.074.514-.221 1.32-.146.808-.44 1.945-1.1 3.008-.293.55-.697.99-1.137 1.247-.477.22-.99.22-1.284.037a1.056 1.056 0 0 1-.513-.734c-.037-.22 0-.33 0-.33z" fill="#1B1B43"/>
    <path d="M230.576 122.176s-10.196 33.119-9.573 43.829c.66 10.709 8.106 37.3 8.106 37.3l1.467-81.129z" fill="#0064FE"/>
    <path d="M244.979 116.525c.22-.073 4.731 6.492 4.878 12.177 0 .513-.037 1.1-.073 1.65-.184 1.981-.697 3.925-1.431 5.758-3.778 9.573-7.665 20.906-7.739 23.51-.183 7.959-1.76 44.526-1.76 44.526l-11.003-.77.366-43.756 2.678-43.462 14.084.367z" fill="#0064FE"/>
    <path d="M238.964 116.341c-.073-.037-.073 1.21-.073 3.411-.037 2.237.073 5.464-.073 9.426-.037.99-.074 2.017-.147 3.117-.074 1.064-.184 2.201-.294 3.338-.22 2.347-.55 4.804-.99 7.408-.403 2.568-.88 5.282-1.284 8.106-.366 2.861-.696 5.795-.843 8.802-.184 3.044-.147 6.015-.22 8.876-.037 2.861-.11 5.612-.184 8.216-.146 5.244-.33 9.976-.476 13.937-.147 3.961-.257 7.189-.367 9.426-.037 1.1-.037 1.944-.074 2.53v.917c0-.733.184-5.061.514-12.873.147-3.961.33-8.693.513-13.937.074-2.604.147-5.355.184-8.216.073-2.861.036-5.832.183-8.839.184-3.044.477-5.978.88-8.802.404-2.825.881-5.539 1.284-8.143.404-2.604.734-5.061.99-7.408.11-1.137.184-2.274.257-3.338.11-1.1.11-2.127.184-3.117.11-3.998 0-7.189 0-9.426v-2.531c0-.587.036-.917.036-.88z" fill="#DD4138"/>
    <path d="M238.927 204.254h-11.076v-1.688h11.076v1.688zM238.219 116.673c.037 0 .037-.11.037-.257.037-.147 0-.258-.037-.258s-.037.111-.037.258c-.037.147 0 .257.037.257zM238.204 117.658c.037.036.073-.111.073-.221 0-.147-.036-.257-.073-.257 0 0-.037.11-.037.22 0 .147 0 .258.037.258zM238.132 118.696c.037 0 .074-.11.074-.257 0-.11-.037-.257-.037-.257-.037 0-.073.11-.073.257 0 .147 0 .257.036.257zM238.132 119.718c.037 0 .074-.11.074-.257 0-.148 0-.258-.037-.258s-.073.11-.073.258c0 .147.036.257.036.257zM238.098 120.739s.037-.11.037-.257c0-.147 0-.257-.037-.257s-.074.11-.074.257c0 .147.037.257.074.257zM238.076 121.776c.037 0 .037-.147.037-.257.037-.147 0-.257-.037-.257-.036 0-.036.11-.036.257-.037.11 0 .257.036.257zM237.994 122.762c.037 0 .037-.11.073-.257 0-.111-.036-.258-.073-.258 0 0-.037.11-.037.258 0 .147 0 .257.037.257zM237.99 123.783c.037 0 .073-.11.073-.257 0-.147-.036-.257-.036-.257-.037 0-.074.11-.074.257 0 .147 0 .257.037.257zM237.923 124.82c.036 0 .073-.11.073-.257 0-.147 0-.257-.037-.257-.036 0-.073.11-.073.257 0 .147.037.257.037.257zM237.955 125.842s.037-.11.037-.258c0-.147 0-.257-.037-.257-.036 0-.073.11-.073.257 0 .111.037.258.073.258zM237.887 126.827c.037 0 .037-.11.037-.257 0-.11 0-.221-.037-.258-.037 0-.037.148-.074.258 0 .147.037.257.074.257zM237.887 127.865s.037-.11.037-.257c0-.147-.037-.257-.037-.257-.037 0-.074.11-.074.257 0 .147.037.257.074.257zM237.85 128.887c.037 0 .074-.11.074-.258 0-.147-.037-.257-.074-.257 0 0-.037.11-.037.257 0 .148 0 .258.037.258zM237.884 129.907s.037-.11.037-.257c0-.147 0-.257-.037-.257s-.073.11-.073.257c0 .147.036.257.073.257zM237.813 130.946s.037-.111.037-.258c0-.147 0-.257-.037-.257s-.037.11-.074.257c0 .11.037.258.074.258zM237.775 131.93c.037 0 .074-.11.074-.22 0-.148 0-.258-.037-.258s-.037.11-.074.221c0 .147.037.257.037.257zM237.704 132.951c.037 0 .073-.11.073-.257 0-.11 0-.257-.036-.257-.037 0-.074.11-.074.257 0 .147 0 .257.037.257zM237.632 133.99c.037 0 .074-.111.074-.258 0-.147 0-.257-.037-.257s-.073.11-.073.257c0 .147 0 .258.036.258zM237.561 135.011c.037 0 .073-.111.073-.258 0-.147 0-.257-.036-.257-.037 0-.074.11-.074.257 0 .111 0 .258.037.258zM237.489 136.001l.073-.22c0-.147 0-.258-.036-.258-.037-.036-.074.111-.074.221 0 .147 0 .257.037.257zM237.417 137.035c.036 0 .073-.11.073-.257 0-.147 0-.257-.037-.257 0 0-.036.11-.073.257 0 .147 0 .257.037.257zM237.274 138.056c.037 0 .074-.111.074-.258.036-.147 0-.257-.037-.257 0 0-.037.11-.074.257 0 .111 0 .258.037.258zM237.203 139.041s.037-.11.073-.257c0-.111 0-.258-.036-.258 0 0-.074.111-.074.258 0 .147 0 .257.037.257zM237.056 140.079c.037 0 .074-.11.074-.257.037-.147.037-.258 0-.258s-.074.111-.11.258c0 .11 0 .257.036.257zM236.908 141.064c.036 0 .073-.111.11-.258 0-.11 0-.22-.037-.257-.037 0-.073.11-.073.257-.037.147-.037.258 0 .258zM236.76 142.085c.037 0 .074-.11.11-.257 0-.147 0-.258-.036-.258-.037 0-.074.111-.074.221-.037.147-.037.257 0 .294zM236.626 143.087c.037 0 .073-.11.073-.257.037-.111.037-.258 0-.258-.036 0-.073.111-.11.258 0 .147 0 .257.037.257zM236.406 144.072c.037 0 .074-.11.111-.221v-.257c-.037 0-.074.073-.111.22-.036.148-.036.258 0 .258zM236.269 145.094s.074-.11.074-.257c.037-.148.037-.258 0-.258s-.074.11-.111.258c0 .11 0 .257.037.257zM236.05 146.079c.037 0 .073-.11.11-.257 0-.11 0-.258-.037-.258 0 0-.073.111-.073.258-.037.147-.037.257 0 .257zM235.89 147.081c.037 0 .074-.111.111-.221.037-.147.037-.257 0-.257s-.074.073-.111.22a.514.514 0 0 0 0 .258zM235.759 148.103c.037 0 .074-.111.074-.258.036-.147.036-.257 0-.257-.037 0-.074.11-.074.257-.037.11-.037.221 0 .258zM235.538 149.088c.037 0 .073-.11.11-.257v-.258c-.037 0-.073.111-.11.258a.496.496 0 0 0 0 .257zM235.403 150.079c.036 0 .073-.111.073-.221.037-.147.037-.257 0-.257-.037-.037-.073.073-.073.22-.037.147-.037.258 0 .258zM235.267 151.112c.037 0 .074-.111.074-.258.037-.147.037-.257 0-.257s-.074.11-.111.257c0 .11 0 .221.037.258zM235.124 152.096c.036 0 .073-.11.073-.258.037-.11.037-.257 0-.257s-.073.11-.11.257c0 .148 0 .258.037.258zM234.972 153.097c.037.037.073-.073.073-.22.037-.148.037-.258 0-.258-.036 0-.073.11-.073.221-.037.147-.037.257 0 .257zM234.838 154.12s.037-.11.074-.257c0-.147 0-.258-.037-.258 0 0-.037.111-.073.258 0 .147 0 .257.036.257zM234.781 155.142s.037-.111.074-.258c0-.147 0-.257-.037-.257s-.073.11-.073.221c-.037.147 0 .257.036.294zM234.625 156.143c.037 0 .037-.111.073-.258 0-.11 0-.257-.036-.257-.037 0-.074.11-.074.257 0 .147 0 .258.037.258zM234.552 157.164c.037 0 .074-.11.074-.257.037-.147 0-.258-.037-.258 0 0-.037.111-.073.258 0 .147 0 .257.036.257zM234.48 158.149c.037 0 .074-.11.074-.221 0-.147 0-.257-.037-.257s-.074.11-.074.221c0 .147 0 .257.037.257zM234.409 159.188c.037 0 .074-.11.074-.258 0-.147 0-.257-.037-.257s-.074.11-.074.257c0 .148 0 .258.037.258zM234.353 160.208s.036-.11.036-.257c.037-.147 0-.258-.036-.258 0 0-.037.111-.037.258-.037.147 0 .257.037.257zM234.265 161.193c.037 0 .074-.11.074-.221 0-.147 0-.257-.037-.257s-.073.11-.073.22c0 .148.036.258.036.258zM234.265 162.232c.037 0 .074-.111.074-.258 0-.147 0-.257-.037-.257s-.073.11-.073.257c0 .147.036.258.036.258zM234.231 163.253s.037-.11.037-.257c0-.147 0-.258-.037-.258s-.074.111-.074.258c0 .147.037.257.074.257zM234.194 164.274c.037 0 .074-.111.074-.258 0-.147-.037-.257-.074-.257 0 0-.037.11-.037.257 0 .147 0 .258.037.258zM234.194 165.275c.037 0 .074-.11.074-.221 0-.147-.037-.257-.074-.257s-.037.11-.037.257c0 .111 0 .221.037.221zM234.231 166.298c.037 0 .037-.11.037-.257 0-.148 0-.258-.037-.258s-.074.11-.074.258c0 .147.037.257.074.257zM234.231 167.319s.037-.111.037-.258c0-.147-.037-.257-.037-.257-.037 0-.074.11-.074.257 0 .147.037.258.074.258zM234.194 168.357c.037 0 .074-.111.074-.258 0-.147-.037-.257-.074-.257 0 0-.037.11-.037.257 0 .147 0 .258.037.258zM234.16 169.378c.037 0 .037-.147.037-.257 0-.147 0-.258-.037-.258s-.074.111-.074.258c0 .11.037.257.074.257zM234.123 170.363c.037 0 .074-.11.074-.257 0-.11-.037-.257-.074-.257 0 0-.037.147-.037.257 0 .147 0 .257.037.257zM234.155 171.401s.037-.11.037-.257c0-.147 0-.257-.037-.257-.036 0-.073.11-.073.257 0 .147.037.257.073.257zM234.119 172.422c.036 0 .073-.11.073-.257 0-.147-.037-.258-.073-.258 0 0-.037.111-.037.258 0 .147 0 .257.037.257zM234.051 173.444c.037 0 .074-.111.074-.258 0-.147 0-.257-.037-.257s-.073.11-.073.257c0 .147.036.258.036.258zM234.084 174.445c.037 0 .037-.111.037-.221 0-.147 0-.257-.037-.257-.036 0-.036.11-.073.22 0 .147.037.258.073.258zM234.048 175.467c.036 0 .036-.11.073-.257 0-.148-.037-.258-.073-.258 0 0-.037.11-.037.258 0 .147 0 .257.037.257zM233.98 176.488c.037 0 .074-.111.074-.258 0-.147-.037-.257-.037-.257-.037 0-.074.11-.074.257 0 .147 0 .258.037.258zM233.976 177.526c.037 0 .074-.111.074-.258 0-.147 0-.257-.037-.257s-.074.11-.074.257c0 .147.037.258.037.258zM233.909 178.51c.037.037.073-.11.073-.22 0-.147 0-.258-.036-.258-.037 0-.074.111-.074.258 0 .11.037.22.037.22zM233.941 179.532s.036-.11.036-.257c0-.11 0-.257-.036-.257-.037 0-.074.11-.074.257 0 .147.037.257.074.257zM233.873 180.57s.037-.11.037-.257c0-.147 0-.257-.037-.257-.036 0-.036.11-.073.257 0 .147.037.257.073.257zM233.869 181.591s.037-.11.037-.257c.037-.148 0-.258-.037-.258-.036 0-.036.11-.073.258 0 .147.037.257.073.257zM233.781 182.612c.037 0 .037-.147.037-.257.037-.147 0-.257-.037-.257-.036 0-.036.11-.036.257-.037.11 0 .257.036.257zM233.781 183.614c.036 0 .036-.11.036-.257.037-.11 0-.257-.036-.257-.037 0-.037.11-.037.257-.037.147 0 .257.037.257zM233.731 184.636s.036-.11.036-.257c.037-.148 0-.258-.036-.258-.037 0-.037.11-.074.258 0 .147.037.257.074.257zM233.726 185.657s.036-.111.036-.258c0-.147 0-.257-.036-.257-.037 0-.037.11-.074.257 0 .147.037.258.074.258zM233.659 186.695s.036-.111.036-.258c0-.147 0-.257-.036-.257-.037 0-.037.11-.074.257 0 .111.037.258.074.258zM233.618 187.681c.036 0 .073-.11.073-.258 0-.11 0-.257-.037-.257-.036 0-.073.11-.073.257 0 .148.037.258.037.258zM233.55 188.702c.037 0 .074-.11.074-.257 0-.147 0-.257-.037-.257s-.073.11-.073.257c0 .147.036.257.036.257zM233.547 189.74c.036 0 .073-.111.073-.258 0-.147 0-.257-.037-.257-.036 0-.073.11-.073.257 0 .147 0 .258.037.258zM233.479 190.761c.037 0 .074-.111.074-.258 0-.147 0-.257-.037-.257s-.074.11-.074.257c0 .111 0 .258.037.258zM233.408 191.746c.037 0 .073-.11.073-.257 0-.11-.036-.221-.036-.258-.037 0-.074.148-.074.258 0 .147 0 .257.037.257zM233.408 192.784c.037 0 .073-.11.073-.257 0-.147-.036-.257-.036-.257-.037 0-.074.11-.074.257 0 .147 0 .257.037.257zM233.337 193.805c.036 0 .036-.111.073-.258 0-.147-.037-.257-.073-.257 0 0-.037.11-.037.257 0 .147 0 .258.037.258zM233.347 194.826c.037 0 .037-.11.073-.257 0-.147-.036-.257-.073-.257 0 0-.037.11-.037.257-.037.11 0 .257.037.257zM233.279 195.828c.037 0 .037-.11.037-.257.037-.11 0-.221-.037-.258-.036 0-.036.148-.036.258-.037.147 0 .257.036.257zM233.23 196.85s.037-.111.037-.258c0-.147 0-.257-.037-.257s-.037.11-.074.257c0 .147.037.258.074.258zM233.226 197.87s.037-.11.037-.257c0-.147 0-.258-.037-.258s-.037.111-.074.258c0 .147.037.257.074.257zM233.159 198.908s.036-.11.036-.257c0-.147 0-.257-.036-.257-.037 0-.074.11-.074.257 0 .11.037.257.074.257zM233.155 199.893s.036-.11.036-.221c0-.147 0-.257-.036-.257-.037 0-.074.11-.074.221 0 .147.037.257.074.257zM233.087 200.915s.037-.11.037-.257c0-.147 0-.258-.037-.258s-.073.111-.073.258c0 .147.036.257.073.257zM233.082 201.952s.037-.11.037-.257c0-.147 0-.257-.037-.257-.036 0-.073.11-.073.257 0 .147.037.257.073.257z" fill="#DD4138"/>
    <path d="M233.016 202.974s.037-.111.037-.258c0-.147 0-.257-.037-.257s-.037.11-.074.257c0 .147.037.258.074.258zM232.979 203.701c.037 0 .037-.037.074-.11 0-.074-.037-.111-.074-.111s-.037.037-.037.111c0 .073 0 .11.037.11zM230.081 127.777c-.037 0 .147.147.44.037a.943.943 0 0 0 .477-.331c.11-.183.183-.44.22-.696.11-1.101.183-2.604.257-4.292.073-1.613.146-3.08.22-4.254.036-.477.036-.917.073-1.284v-.477s-.037.037-.037.11c0 .111 0 .257-.036.367 0 .367-.037.807-.074 1.284-.073 1.174-.146 2.641-.257 4.254a217.941 217.941 0 0 1-.22 4.255c-.036.293-.073.513-.22.697-.11.183-.256.293-.403.33-.293.11-.44 0-.44 0zM248.408 135.625c0-.037-.147 0-.404-.11-.22-.147-.55-.404-.733-.844-.183-.44-.22-1.027-.183-1.687.036-.66.073-1.357.22-2.091.22-1.43.623-2.714.953-3.631l-.036.037c.476.073.843.147 1.21.183.11.037.22.037.33.074h.11s-.037 0-.11-.037c-.11-.037-.22-.037-.33-.073-.33-.074-.734-.147-1.174-.22h-.036l-.037.036c-.367.881-.77 2.164-.99 3.595a24.44 24.44 0 0 0-.22 2.127c0 .66 0 1.247.22 1.724.22.44.55.733.806.843.257.074.404.074.404.074z" fill="#DD4138"/>
    <path d="M247.841 128.811c0 .037.403.147.953.257.551.147.991.22.991.183.036-.036-.404-.146-.954-.257-.55-.146-.99-.22-.99-.183zM254.773 108.68c-.146-.55-3.741-4.474-6.968-7.922-1.137 6.822-2.641 14.744-2.788 15.514 3.888-2.64 9.976-6.895 9.756-7.592zM192.68 78.642l5.721-4.695c15.514 14.01 35.503 12.397 35.503 12.397v.037c.88-.147 5.612-.88 7.152-.917 1.211-.037 4.035-.257 6.015 1.65.074.037.11.074.147.11 1.834 1.797 19.879 19.586 17.971 23.987-2.017 4.621-19.181 14.707-19.181 14.707l-4.145-7.555s1.284-.844 3.044-2.017l-14.01-.367-.624-10.49s-2.384-2.677-2.384-4.584c0-1.357.734-3.558 1.687-5.832-22.079-1.87-36.896-16.431-36.896-16.431z" fill="#DD4138"/>
    <path d="M228.713 103.178s.147.036.513.036c.33 0 .844 0 1.467-.183.587-.147 1.394-.587 1.798-1.43.183-.404.22-.991 0-1.467-.257-.44-.734-.88-1.357-.844-.624.037-1.137.55-1.284 1.174-.184.66.073 1.357.477 1.907.843 1.1 2.384 1.724 3.924 1.577a4.487 4.487 0 0 0 2.201-.734c.66-.476 1.247-1.137 1.467-1.943.11-.441.11-.881-.074-1.284a1.614 1.614 0 0 0-.953-.88c-.404-.184-.917-.184-1.284.146-.367.294-.513.807-.44 1.247.037.44.183.881.44 1.247.22.367.55.697.88.954.697.55 1.541.843 2.348.954 1.65.256 3.411-.367 4.364-1.578.22-.33.404-.66.477-1.063.073-.367 0-.77-.147-1.1a1.331 1.331 0 0 0-.807-.734c-.366-.11-.733-.037-1.063.11-.624.293-1.064.917-1.064 1.577-.036.66.294 1.247.697 1.651.807.88 1.944 1.137 2.824 1.1a4.254 4.254 0 0 0 2.237-.734c.551-.33.881-.733 1.064-.99.183-.293.257-.44.257-.44 0-.037-.074.147-.294.403a3.519 3.519 0 0 1-1.063.991c-.55.33-1.284.66-2.201.66-.88.036-1.98-.22-2.751-1.064-.366-.403-.66-.953-.66-1.577 0-.623.44-1.21 1.027-1.467.294-.147.624-.183.954-.073.293.073.587.33.733.66.147.293.184.66.11 1.027-.073.33-.22.66-.44.953-.953 1.211-2.604 1.798-4.218 1.541-.807-.11-1.613-.404-2.274-.917-.33-.257-.623-.587-.88-.917a2.795 2.795 0 0 1-.403-1.174c-.037-.44.073-.88.403-1.137.294-.256.77-.293 1.137-.11.367.147.697.44.844.807.183.33.183.77.073 1.174-.22.77-.77 1.394-1.394 1.834-.66.44-1.393.697-2.164.733-1.467.147-2.97-.477-3.777-1.54-.404-.514-.624-1.174-.477-1.761.147-.587.623-1.063 1.174-1.1.55-.037 1.027.367 1.247.807.256.44.22.953.036 1.357-.403.843-1.137 1.247-1.76 1.394a4.85 4.85 0 0 1-1.431.22h-.513zM230.716 112.857s.073.073.257.183c.183.111.403.257.733.477.33.184.734.44 1.247.587.514.184 1.174.257 1.834.184.66-.074 1.467-.257 2.09-.844.294-.257.514-.66.551-1.1a1.312 1.312 0 0 0-.514-1.247 1.777 1.777 0 0 0-.66-.257c-.257 0-.514.11-.697.257-.403.33-.55.88-.44 1.393.11.514.44.917.844 1.247.403.33.843.624 1.357.807.953.367 2.053.404 3.007.184.954-.257 1.87-.734 2.347-1.541.257-.403.33-.917.147-1.32-.22-.404-.587-.697-1.027-.734a.794.794 0 0 0-.587.147.896.896 0 0 0-.33.513c-.11.404.037.771.22 1.064.404.587.99.88 1.504 1.064.513.183.99.22 1.394.22.366-.037.66-.11.843-.147.22-.073.294-.11.294-.11 0-.037-.404.183-1.137.183-.404 0-.844-.036-1.357-.22-.477-.22-1.064-.513-1.431-1.063a1.115 1.115 0 0 1-.22-.954.768.768 0 0 1 .807-.587c.367.037.734.33.88.697.184.33.11.807-.11 1.174-.477.77-1.357 1.21-2.274 1.467-.917.22-1.98.183-2.934-.183a4.13 4.13 0 0 1-1.283-.771c-.404-.293-.697-.697-.807-1.173-.11-.44.036-.954.403-1.247.33-.294.844-.257 1.174.036.33.257.513.66.44 1.064-.037.403-.257.77-.514 1.064-.55.55-1.32.733-1.98.806-.66.074-1.284.037-1.797-.146-.514-.147-.917-.404-1.247-.587a9.765 9.765 0 0 0-.77-.44c-.147-.11-.257-.147-.257-.147zM223.041 85.678s-.22.11-.55.403a2.515 2.515 0 0 0-.844 1.65c-.073.404 0 .844.147 1.321.183.44.476.843.88 1.21.403.33.954.587 1.504.66.293.037.587.037.917 0 .293-.073.586-.183.807-.476a.733.733 0 0 0 .073-.477c-.037-.183-.147-.293-.294-.403a1.425 1.425 0 0 0-.843-.257c-.587 0-1.137.293-1.504.66-.403.403-.55.917-.587 1.394-.036.476.037.916.22 1.283.33.734.881 1.174 1.247 1.394.184.11.33.183.44.22.111.037.184.073.184.073 0-.036-.22-.11-.587-.366-.367-.22-.88-.66-1.174-1.357-.146-.367-.256-.77-.22-1.247.037-.44.22-.917.587-1.284a1.91 1.91 0 0 1 1.394-.624c.257 0 .55.074.77.22.22.184.33.477.147.697-.147.22-.44.33-.697.367a2.211 2.211 0 0 1-.844.037 2.726 2.726 0 0 1-1.43-.66c-.844-.624-1.137-1.614-1.027-2.348.073-.807.44-1.357.77-1.65.294-.294.514-.404.514-.44zM215.584 83.887s-.11.073-.257.293c-.036.11-.11.293-.073.477 0 .183.11.403.22.587a4 4 0 0 0 .917 1.283c.404.44.88.917 1.247 1.468.734 1.173.917 2.457.844 3.337-.074.88-.294 1.394-.257 1.43 0 0 .073-.146.147-.366.073-.257.183-.624.22-1.064a5.24 5.24 0 0 0-.807-3.41c-.367-.588-.88-1.064-1.284-1.468a6.28 6.28 0 0 1-.953-1.247 2.868 2.868 0 0 1-.221-.55c0-.183.037-.33.074-.44.11-.22.183-.33.183-.33zM209.982 89.904s.257.147.77.147c.477 0 1.284-.184 1.797-.954.514-.77.587-1.98.11-3.08-.22-.55-.587-1.1-1.137-1.504-.513-.404-1.247-.587-1.944-.404-.33.11-.623.33-.843.587-.184.293-.294.66-.294.99.037.33.184.66.441.88.256.22.586.294.88.33.623 0 1.173-.256 1.577-.623.403-.367.623-.807.77-1.247.257-.88.073-1.65-.147-2.09-.22-.477-.44-.66-.44-.66s.184.22.404.66c.183.476.33 1.21.073 2.053-.147.404-.367.844-.77 1.21-.367.33-.88.55-1.467.55-.257-.036-.55-.11-.77-.292a1.03 1.03 0 0 1-.367-.77 1.41 1.41 0 0 1 1.027-1.431c.623-.183 1.32 0 1.797.403.513.367.843.88 1.1 1.394.477 1.064.404 2.237-.073 2.97-.477.734-1.284.954-1.724.954-.513.037-.77-.11-.77-.073zM205.967 79.589s-.11.037-.33.147c-.183.073-.44.256-.734.476-.33.257-.623.624-.88 1.064-.257.44-.477.99-.587 1.577-.22 1.174.037 2.274.33 2.971.184.367.33.624.477.807.11.147.22.257.22.257 0-.037-.293-.404-.587-1.1a5.152 5.152 0 0 1-.293-2.898c.11-.587.33-1.1.55-1.54.257-.44.55-.77.844-1.028.55-.513.99-.697.99-.733zM197.552 82.667s.22.11.66.146c.22.037.477.037.77-.073.33-.073.624-.257.88-.55.551-.55.954-1.504.807-2.53-.073-.514-.33-1.064-.843-1.394a1.506 1.506 0 0 0-.807-.257c-.294 0-.624.11-.844.293-.256.184-.44.477-.477.77-.036.33.074.624.257.844.367.477.99.587 1.504.55 1.064-.11 1.834-.77 2.237-1.394.22-.33.33-.696.294-1.026 0-.294-.11-.55-.184-.734a4.405 4.405 0 0 1-.22-.477c-.073-.073-.073-.146-.073-.146-.037 0 0 .073.036.183.074.11.11.293.184.44.073.22.183.44.183.734 0 .293-.11.623-.293.953a3.008 3.008 0 0 1-2.164 1.32c-.477.037-1.027-.073-1.357-.513a.811.811 0 0 1-.22-.697c0-.257.183-.513.367-.697.44-.367 1.063-.293 1.503 0 .44.294.697.77.771 1.247.146.99-.221 1.907-.734 2.458-.477.586-1.174.66-1.577.623-.404 0-.66-.073-.66-.073zM230.645 107.871s.146.183.476.44c.33.22.881.55 1.577.697a7.26 7.26 0 0 0 2.568.147c.99-.074 2.017-.331 3.117-.587 1.064-.294 2.091-.514 3.081-.55.954-.037 1.797.11 2.494.366.661.22 1.174.587 1.467.844.294.293.441.477.441.477s-.11-.22-.404-.514a4.045 4.045 0 0 0-1.467-.917 6.75 6.75 0 0 0-2.567-.403c-.954.037-2.018.257-3.081.513-1.101.294-2.128.551-3.081.624-.954.11-1.834.073-2.531-.11-1.43-.33-2.054-1.064-2.09-1.027zM252.202 92.316c.036 0-.294-.294-.917-.184-.33.037-.697.22-1.064.477-.367.257-.733.587-1.174.954-.44.366-.88.806-1.393 1.21a4.384 4.384 0 0 1-1.871.844c-1.467.293-3.117-.037-4.694-.697-1.578-.624-3.045-1.394-4.512-1.76a7.087 7.087 0 0 0-2.09-.331 7.079 7.079 0 0 0-1.834.33c-1.064.367-1.797 1.027-2.127 1.577a1.7 1.7 0 0 0-.184.367 1.12 1.12 0 0 0-.147.294c-.036.146-.073.22-.036.22 0 .036.073-.33.44-.844.33-.513 1.027-1.137 2.09-1.504a5.601 5.601 0 0 1 1.798-.293c.66 0 1.357.11 2.054.293 1.43.404 2.897 1.174 4.511 1.797 1.577.66 3.264.99 4.768.697a4.576 4.576 0 0 0 1.907-.88c.55-.44.954-.88 1.394-1.247.44-.33.807-.697 1.137-.954.367-.257.733-.44 1.027-.513.623-.11.917.183.917.147zM229.024 86.34s-.037.147-.073.404c-.037.294-.037.697.073 1.21.147.514.367 1.101.844 1.688a3.46 3.46 0 0 0 2.164 1.247c.916.183 2.017 0 2.934-.624.44-.33.88-.733 1.137-1.283.11-.294.11-.66-.11-.917-.184-.257-.514-.404-.844-.44a1.256 1.256 0 0 0-.917.293c-.22.257-.367.587-.367.917-.073.66.294 1.357.807 1.76.55.44 1.211.697 1.871.88.66.184 1.394.294 2.09.257a3.446 3.446 0 0 0 1.981-.733c.587-.44.954-1.137.954-1.834 0-.66-.33-1.394-.954-1.687-.587-.33-1.357-.257-1.834.183-.513.44-.55 1.21-.293 1.76.22.55.697.954 1.21 1.174 1.027.477 2.091.514 3.008.404a6.786 6.786 0 0 0 3.851-2.017c.33-.404.55-.734.697-.99l.183-.368c-.037 0-.22.55-.954 1.284-.66.77-1.943 1.724-3.777 1.98-.917.11-1.981.037-2.935-.403-.513-.22-.953-.623-1.173-1.137-.22-.513-.184-1.173.293-1.577.404-.367 1.137-.44 1.651-.183.55.293.88.954.843 1.577 0 .66-.33 1.284-.843 1.687-.55.44-1.211.66-1.908.734-.696.036-1.393-.11-2.053-.294-.624-.183-1.284-.403-1.798-.807-.513-.403-.843-1.027-.77-1.65 0-.293.147-.587.33-.807.22-.183.514-.293.807-.257.294.037.587.147.734.367.183.22.183.513.073.77-.22.514-.623.917-1.064 1.247a4.02 4.02 0 0 1-2.824.624 3.571 3.571 0 0 1-2.127-1.174c-.477-.587-.734-1.174-.844-1.65-.22-1.027-.036-1.614-.073-1.614zM255.051 95.244s-.074-.037-.184-.074c-.146-.073-.366-.11-.623-.183-.514-.147-1.357-.293-2.274.073-.44.184-.917.477-1.321.917-.366.44-.66 1.027-.696 1.687 0 .66.256 1.357.77 1.87.513.514 1.284.771 2.054.698.403-.074.77-.22 1.027-.477.293-.257.44-.66.33-1.027-.074-.367-.33-.66-.624-.88-.256-.22-.587-.33-.917-.404-1.283-.33-2.494.147-3.227.807-.697.697-.991 1.504-1.064 2.017-.073.551 0 .844 0 .844s-.037-.293.073-.844c.074-.513.367-1.283 1.064-1.944.697-.623 1.907-1.063 3.118-.733.33.073.623.183.88.367.257.22.477.477.55.807a.918.918 0 0 1-.293.88c-.22.22-.587.367-.917.403-.734.11-1.431-.146-1.944-.623a2.534 2.534 0 0 1-.734-1.76 2.773 2.773 0 0 1 .661-1.614 3.52 3.52 0 0 1 1.247-.88c.916-.368 1.723-.257 2.237-.147.257.073.477.146.587.183.146.037.22.037.22.037zM252.898 106.295s-.11-.147-.074-.441c.037-.256.184-.697.514-1.1.257-.477.88-.697 1.577-.624.66 0 1.394.331 2.237.257.844-.073 1.577-.477 2.017-1.027.44-.587.587-1.247.587-1.797 0-.514-.147-.954-.33-1.21-.147-.257-.33-.331-.33-.331s.147.11.293.367c.147.257.294.66.257 1.174-.037.513-.147 1.174-.587 1.687-.403.514-1.137.917-1.907.991-.807.036-1.54-.257-2.237-.257-.367-.037-.697 0-.99.146a1.35 1.35 0 0 0-.697.551c-.294.44-.44.88-.44 1.173-.037.33.073.477.11.441zM258.526 117.661s-.293.036-.697-.184c-.22-.073-.44-.257-.587-.587-.11-.293-.146-.66-.11-1.063.074-.44.184-.881.33-1.357.147-.477.331-.954.697-1.394.33-.403.917-.697 1.467-.55a.937.937 0 0 1 .624.55c.11.293.11.623 0 .88-.183.624-.807.917-1.394.917-.587.037-1.137-.257-1.577-.587-.843-.697-1.394-1.577-1.76-2.31-.367-.771-.551-1.431-.587-1.908-.037-.44 0-.733-.037-.733 0 0-.037.293-.037.77.037.44.184 1.137.551 1.907.366.771.916 1.651 1.797 2.384.44.367 1.027.661 1.65.624.33 0 .66-.074.917-.22.294-.184.55-.44.66-.77.11-.331.11-.697-.036-.991a1.04 1.04 0 0 0-.697-.66c-.66-.147-1.284.184-1.651.624-.366.44-.55.953-.697 1.43-.146.477-.293.917-.33 1.357-.036.44 0 .844.147 1.137.147.33.404.514.624.624.22.11.403.11.55.146.11 0 .183-.036.183-.036zM251.753 121.583s-.147.036-.367-.074c-.257-.11-.55-.367-.734-.807-.183-.44-.146-.99.074-1.577.22-.587.587-1.174.807-1.907.11-.33.183-.697.146-1.064a1.997 1.997 0 0 0-.366-.953 2.413 2.413 0 0 0-1.431-.917c-.477-.11-.88-.11-1.137-.074-.256.037-.403.074-.403.074 0 .036.587-.147 1.54.11.44.11.954.367 1.321.88.146.257.293.55.33.88.036.33-.037.697-.147 1.027-.22.697-.587 1.284-.807 1.871-.22.623-.257 1.247-.037 1.687.22.477.551.734.807.807.257.11.404.037.404.037z" fill="#FEFEFE"/>
    <path d="M248.662 101.671s-.183-.22-.477-.624c-.33-.403-.843-.99-1.43-1.687-.587-.697-1.321-1.504-2.091-2.42-.403-.477-.807-.99-1.21-1.504a11.096 11.096 0 0 1-1.1-1.687c-.624-1.247-1.027-2.531-.991-3.741 0-1.174.404-2.238 1.064-2.898a3.824 3.824 0 0 1 1.797-1.027c.514-.073.807 0 .807-.036 0 0-.073-.037-.22-.037-.11-.037-.33-.037-.587 0-.513.037-1.284.33-1.944.99-.697.66-1.173 1.76-1.173 3.008-.037 1.247.403 2.604 1.027 3.85.293.624.696 1.211 1.137 1.724.403.55.806 1.028 1.21 1.504.77.917 1.504 1.724 2.127 2.42.587.661 1.1 1.175 1.467 1.615.367.366.55.587.587.55zM254.36 108.67c-.037.074.77.367 1.76.661.99.33 1.797.513 1.834.44 0-.074-.77-.367-1.761-.697-.99-.294-1.833-.477-1.833-.404z" fill="#1B1B43"/>
    <path d="M254.574 108.604c-.037.073.55.44 1.137 1.1.587.624.917 1.247.991 1.211.073 0-.147-.734-.771-1.394-.623-.697-1.32-.954-1.357-.917zM228.862 96.533c.037 0 .257-.404.587-1.064.33-.66.733-1.614 1.137-2.677.367-1.064.623-2.054.807-2.788.146-.733.22-1.173.183-1.21-.037 0-.147.44-.367 1.137-.22.734-.513 1.687-.88 2.787-.367 1.064-.77 1.98-1.027 2.678-.293.697-.477 1.1-.44 1.137zM234.305 101.421c-.037 0 .183.44.66 1.027a6.885 6.885 0 0 0 2.42 1.761c1.101.476 2.164.623 2.934.55.771-.037 1.211-.184 1.211-.22 0-.037-.477.073-1.211.036a7.471 7.471 0 0 1-2.824-.586c-1.063-.477-1.87-1.101-2.383-1.651-.514-.55-.771-.953-.807-.917z" fill="#1B1B43"/>
    <path d="M237.813 126.576s3.522.77 3.998.403c.441-.403-.696-.807-.696-.807s1.027.11 1.063-.257c0-.366-.367-.623-.367-.623l-3.998 1.284z" fill="#F3B6A6"/>
    <path d="M242.592 119.757s-4.952 2.237-4.988 2.421c-.074.146-.221 3.667.256 4.401.477.733 6.933-2.824 6.933-2.824l-2.201-3.998z" fill="#F3B6A6"/>
    <path d="M238.954 125.77s.073 0 .22-.036c.22 0 .44-.037.697-.074.55-.073 1.357-.22 2.201-.477a7.397 7.397 0 0 0 2.017-.953c.183-.147.367-.257.55-.404.11-.073.183-.146.183-.146l-.22.11c-.183.11-.366.256-.587.366-.44.331-1.173.697-1.98.954-.844.257-1.614.367-2.201.477l-.66.11c-.147.037-.22.073-.22.073zM238.954 125.835c0 .037.514.22 1.137.293.66.11 1.174.11 1.174.074 0-.037-.514-.074-1.137-.184-.66-.073-1.174-.22-1.174-.183z" fill="#F18B7A"/>
</svg>
