<svg width="20" height="20" viewBox="0 0 20 20" fill="none" xmlns="http://www.w3.org/2000/svg">
<g clip-path="url(#clip0_534_4899)">
<path fill-rule="evenodd" clip-rule="evenodd" d="M10.6879 1.55297C12.7921 -0.531541 16.1878 -0.515531 18.2723 1.58873L18.447 1.7651C20.5315 3.86936 20.5155 7.26503 18.4113 9.34954L15.549 12.1787C15.1983 12.5261 14.6324 12.5234 14.285 12.1727C13.9375 11.822 13.9402 11.2561 14.2909 10.9086L17.1532 8.07951C18.556 6.68983 18.5667 4.42605 17.177 3.02322L17.0023 2.84684C15.6126 1.444 13.3488 1.43333 11.946 2.823L9.19937 5.53759C8.84866 5.88501 8.28272 5.88234 7.9353 5.53163C7.58788 5.18092 7.59055 4.61497 7.94126 4.26756L10.6879 1.55297ZM5.90514 7.55525C6.25256 7.90596 6.24989 8.47191 5.89918 8.81932L2.84684 11.8368C1.444 13.2264 1.43333 15.4902 2.823 16.8931L2.99772 17.0694C4.3874 18.4723 6.65118 18.4829 8.05402 17.0933L10.9507 14.2301C11.3014 13.8826 11.8673 13.8853 12.2147 14.236C12.5621 14.5867 12.5595 15.1527 12.2088 15.5001L9.31213 18.3633C7.20787 20.4478 3.8122 20.4318 1.72769 18.3275L1.55297 18.1512C-0.531539 16.0469 -0.515533 12.6512 1.58872 10.5667L4.64107 7.54929C4.99177 7.20187 5.55772 7.20454 5.90514 7.55525Z" fill="#7A7A7A"/>
<path fill-rule="evenodd" clip-rule="evenodd" d="M13.9957 5.99175C14.3448 6.34082 14.3448 6.90677 13.9957 7.25584L7.29189 13.9597C6.94282 14.3087 6.37687 14.3087 6.0278 13.9597C5.67874 13.6106 5.67874 13.0447 6.0278 12.6956L12.7316 5.99175C13.0807 5.64269 13.6467 5.64269 13.9957 5.99175Z" fill="#7A7A7A"/>
</g>
<defs>
<clipPath id="clip0_534_4899">
<rect width="20" height="20" fill="white"/>
</clipPath>
</defs>
</svg>
