<svg width="90" height="90" viewBox="0 0 90 90" fill="none" xmlns="http://www.w3.org/2000/svg">
<path d="M90 45C90 69.8528 69.8528 90 45 90C20.1472 90 0 69.8528 0 45C0 20.1472 20.1472 0 45 0C69.8528 0 90 20.1472 90 45Z" fill="#B9D4FF"/>
<path fill-rule="evenodd" clip-rule="evenodd" d="M45.0015 84.0734C66.5803 84.0734 84.0734 66.5803 84.0734 45.0015C84.0734 23.4228 66.5803 5.92969 45.0015 5.92969C10.8825 13.8698 0.505225 65.5988 45.0015 84.0734Z" fill="#64A1FF"/>
<path d="M5.92969 45.0015C5.92969 66.5803 23.4228 84.0734 45.0015 84.0734C0.505225 65.5988 10.8825 13.8698 45.0015 5.92969C23.4228 5.92969 5.92969 23.4228 5.92969 45.0015Z" fill="#3E8AFF"/>
<path d="M40.6894 24.8158C39.2523 19.8577 33.5038 21.1348 33.0547 24.8158V43.8593C34.6715 45.9851 38.4619 50.4342 40.6894 51.2246V24.8158Z" fill="#FFF5F4"/>
<path d="M33.0547 65.2366C33.6834 69.4581 40.0607 69.3683 40.6894 65.2366V51.2246C38.4619 50.4342 34.6715 45.9851 33.0547 43.8593V65.2366Z" fill="#EAE1DC"/>
<path d="M56.9472 24.8431C55.5101 19.885 49.7616 21.1621 49.3125 24.8431V43.8866V54.5753C51.5281 55.0758 56.1568 55.8793 56.9472 55.0889V51.2519V24.8431Z" fill="#FFF5F4"/>
<path d="M49.3125 65.2639C49.9412 69.4854 56.3185 69.3956 56.9472 65.2639V55.0889C56.1568 55.8793 51.5281 55.0758 49.3125 54.5753V65.2639Z" fill="#EAE1DC"/>
</svg>
