<svg width="22" height="22" viewBox="0 0 22 22" fill="none" xmlns="http://www.w3.org/2000/svg">
    <path fill-rule="evenodd" clip-rule="evenodd" d="M8.502 4.08c-2.757.317-5.254 2.04-6.543 4.513-1.84 3.531-.97 7.91 2.074 10.437a8.543 8.543 0 0 0 4.247 1.902c.588.09 1.848.09 2.44-.001a8.42 8.42 0 0 0 4.654-2.297 7.969 7.969 0 0 0 1.729-2.37c.543-1.103.808-2.124.855-3.293l.024-.593-.12-.1-.118-.101H9.833v-7.91l-.096-.114-.095-.114-.432.005c-.237.003-.556.019-.709.036zM9.139 8.7l.01 3.957.102.103.103.102 3.957.01 3.957.01v.138c-.001.168-.094.844-.15 1.1a7.874 7.874 0 0 1-2.258 4.03c-1.163 1.107-2.554 1.796-4.196 2.079-.469.08-1.728.09-2.236.017a7.805 7.805 0 0 1-4.439-2.224c-1.7-1.7-2.513-4.019-2.238-6.38a7.832 7.832 0 0 1 7.203-6.895l.175-.004.01 3.957z" fill="#7A7A7A" stroke="#7A7A7A" stroke-width=".5"/>
    <path fill-rule="evenodd" clip-rule="evenodd" d="M12.123 1.051c-.134.078-.125.405-.125 4.368v4.193l.108.108.108.108H20.613l.103-.09.104-.09-.004-.474c-.01-1.113-.314-2.342-.852-3.437-1.361-2.777-4.164-4.61-7.237-4.733-.249-.01-.488-.002-.531.017-.028.012-.052.018-.072.03zm3.104 1.199c-.652-.258-1.422-.45-2.027-.503a7.93 7.93 0 0 1-.38-.042l-.12-.018v7.439h7.439l-.019-.121a8.042 8.042 0 0 1-.042-.38 7.096 7.096 0 0 0-.245-1.257 7.835 7.835 0 0 0-4.606-5.118z" fill="#7A7A7A" stroke="#7A7A7A" stroke-width=".5"/>
</svg>
