<svg width="209" height="177" viewBox="0 0 209 177" fill="none" xmlns="http://www.w3.org/2000/svg">
<path opacity="0.1" d="M13.167 113.338C18.3974 118.301 24.6805 123.309 27.0259 130.408C31.2463 143.192 10.6217 161.016 26.6801 170.348C30.4553 172.542 34.9501 173.099 39.3132 173.261C63.4384 174.161 87.5728 174.844 111.755 174.556C134.956 174.279 159.859 175.399 182.799 171.658C215.756 166.283 216.383 112.262 186.666 101.395C179.065 98.6156 171.112 98.6297 163.298 97.5143C157.608 96.7023 150.802 93.8418 149.529 86.0057C148.428 79.2287 152.194 73.0741 154.682 67.0668C163.768 45.1328 156.907 15.5172 134.232 4.98962C126.422 1.36395 118.115 0.429359 109.894 0.0931439C82.6141 -1.02227 55.193 7.92151 33.6834 24.7073C11.4014 42.0955 -6.51663 70.0646 2.77201 99.1658C4.54577 104.726 8.71847 109.117 13.167 113.338Z" fill="#0559FF"/>
<path d="M128.982 70.0241C129.53 68.4212 130.483 66.6628 132.153 66.3784C133.933 66.0749 135.447 67.5974 136.608 68.9795C136.376 66.4666 136.537 63.9181 137.084 61.4547C137.436 59.8654 138.227 58.0525 139.831 57.7727C140.721 57.6173 141.612 58.0016 142.404 58.4369C144.948 59.8372 147.136 61.879 148.708 64.3211C149.156 60.7586 149.604 57.1961 150.052 53.6336C150.26 51.9743 150.594 50.1051 151.991 49.1855C153.161 48.415 154.761 48.5976 155.988 49.2732C157.216 49.9488 158.153 51.0379 159.062 52.1038C159.491 49.1128 160.709 46.2391 162.56 43.8493C164.819 40.9319 169.299 43.1159 171.12 45.4799C172.707 47.5413 173.567 50.1519 173.516 52.7531C173.414 57.8912 169.991 62.2866 166.73 66.2594C168.172 66.1358 169.438 67.4747 169.641 68.9068C169.844 70.3389 169.22 71.7701 168.386 72.9523C166.194 76.0582 162.652 77.8743 159.251 79.5721C161.618 79.9842 162.502 83.2305 161.435 85.3837C157.647 93.0326 142.896 95.5056 135.448 95.7405C133.348 95.8068 130.839 95.5124 129.092 94.237C126.882 92.6255 127.583 90.834 127.484 88.4091C127.231 82.2028 126.936 76.001 128.982 70.0241Z" fill="#82ABFF"/>
<path d="M164.666 57.4453C164.666 57.4453 141.109 88.1972 122.695 100.431C121.884 100.971 120.794 100.789 120.191 100.024C119.543 99.201 119.695 98.007 120.529 97.3723C125.394 93.6689 141.569 80.8559 164.666 57.4453Z" fill="#373C8A"/>
<path d="M197.774 43.851C193.556 45.9533 188.542 45.6307 184.11 47.1732C181.343 48.136 178.61 49.6117 177.642 52.614C177.614 52.7012 177.619 52.7762 177.637 52.8453C176.702 53.5976 175.78 54.3682 174.867 55.147C174.554 50.967 178.084 48.0474 180.381 44.9601C182.185 42.5357 183.254 39.7719 183.659 36.7596C183.718 36.3225 183.116 35.9386 182.885 36.4257C179.85 42.8288 169.915 47.613 173.999 55.8989C172.471 57.2261 170.984 58.5986 169.523 59.9976C167.852 58.4882 169.114 53.5281 169.551 51.9906C170.173 49.8107 171.077 47.7366 171.831 45.6053C173.118 41.9728 173.952 38.1231 172.583 34.3907C172.443 34.0099 171.882 33.9495 171.766 34.3907C170.952 37.4848 169.882 40.4843 168.489 43.3572C167.37 45.6634 166.048 47.8938 165.291 50.3641C164.693 52.3178 164.478 54.4709 164.998 56.4709C165.538 58.5468 166.839 59.7867 168.352 61.1193C166.617 62.8236 164.936 64.5833 163.301 66.3852C160.621 61.7727 161.919 56.3914 163.028 51.4445C163.864 47.7166 164.755 43.5643 162.518 40.1618C162.277 39.7942 161.764 39.9496 161.729 40.3803C161.219 46.5526 157.929 52.0047 157.37 58.1166C157.035 61.7759 158.201 66.6923 162.1 67.7237C160.09 70.0018 158.166 72.3571 156.321 74.7756C156.705 70.5093 155.027 67.1862 153.595 63.1198C151.761 57.9126 152.988 52.5608 154.543 47.4585C154.664 47.0605 154.111 46.7011 153.835 47.0369C150.731 50.8121 149.044 55.5945 149.428 60.5509C149.608 62.8745 150.215 65.1689 151.222 67.2612C151.886 68.641 152.82 69.8577 153.488 71.2321C154.241 72.7824 154.73 74.503 155.287 76.1432C154.066 77.7893 152.896 79.474 151.753 81.1791C152.127 79.3263 152.393 77.439 152.108 75.5552C151.793 73.4716 150.824 71.5965 149.799 69.7964C146.985 64.8559 145.148 60.1275 145.649 54.291C145.692 53.7903 144.95 53.7235 144.816 54.1756C144.064 56.724 143.065 59.3315 142.838 62.0026C142.62 64.5787 143.331 67.1748 144.115 69.5979C144.886 71.98 146.215 73.6529 147.553 75.7002C149.046 77.9824 149.745 80.6212 150.385 83.2537C146.243 89.7036 142.658 96.5392 139.714 103.691C139.503 104.205 140.323 104.429 140.531 103.922C142.051 100.23 143.75 96.615 145.614 93.0925C146.545 91.3342 147.517 89.5986 148.528 87.8871C149.232 86.6967 149.886 85.5263 150.681 84.3977C150.941 84.0279 152.486 81.2427 152.698 81.2959C160.772 83.3059 170.347 91.9798 178.443 85.2673C178.748 85.0143 178.477 84.5431 178.144 84.5276C173.146 84.2932 168.484 83.0583 163.909 81.0265C160.482 79.5044 157.087 79.8102 153.464 80.1587C154.267 78.9978 155.085 77.8479 155.926 76.7152C156.03 76.687 156.123 76.6257 156.177 76.5371C156.203 76.5494 156.223 76.5666 156.255 76.5739C161.766 77.772 167.322 79.3258 172.914 80.0519C177.292 80.6203 181.928 80.0333 185.072 76.5825C185.297 76.3358 185.161 75.7965 184.773 75.8428C179.12 76.5153 174.075 75.0555 168.6 73.9291C164.885 73.1654 161.069 72.97 157.575 74.538C159.22 72.4175 160.93 70.3498 162.704 68.3402C162.738 68.3502 162.769 68.3643 162.81 68.3652C167.347 68.4906 171.409 71.0531 175.955 71.3839C180.072 71.6833 184.135 70.7796 187.829 68.9295C188.194 68.7464 188.032 68.0758 187.615 68.1222C182.742 68.6615 178.214 67.2466 173.511 66.2085C170.455 65.5342 167.35 65.2984 164.454 66.3906C165.843 64.8818 167.266 63.4056 168.725 61.9671C168.746 61.9876 168.76 62.0108 168.788 62.028C172.667 64.5251 177.325 64.7509 181.783 64.417C185.653 64.1271 189.609 63.2061 192.277 60.1211C192.532 59.8267 192.292 59.232 191.865 59.3969C187.854 60.9453 183.666 60.8249 179.462 60.4451C176.791 60.2038 173.276 59.2361 170.577 60.1847C171.918 58.9167 173.277 57.6686 174.672 56.4609C174.778 56.4223 174.869 56.346 174.925 56.241C175.244 55.9657 175.557 55.6826 175.88 55.4105C175.933 55.4164 175.99 55.4123 176.053 55.3919C178.304 54.6626 179.889 56.3001 181.758 57.2165C182.802 57.7286 183.912 58.0307 185.061 58.1656C188.362 58.5541 191.571 57.4959 194.665 56.4537C195.033 56.3296 195.103 55.7049 194.665 55.6181C189.302 54.5513 183.183 52.5331 177.697 53.9248C178.098 53.5999 178.491 53.2655 178.895 52.9457C185.497 50.4309 193.786 50.7903 198.354 44.444C198.628 44.0623 198.114 43.6816 197.774 43.851Z" fill="#5F82F7"/>
<path d="M87.4663 70.0241C86.9174 68.4212 85.9647 66.6628 84.2945 66.3784C82.5153 66.0749 81.0005 67.5974 79.8396 68.9795C80.0718 66.4666 79.9105 63.9181 79.3639 61.4547C79.0109 59.8654 78.2204 58.0525 76.6165 57.7727C75.7265 57.6173 74.8355 58.0016 74.044 58.4369C71.4997 59.8372 69.312 61.879 67.74 64.3211C67.292 60.7586 66.844 57.1961 66.396 53.6336C66.1875 51.9743 65.8535 50.1051 64.4569 49.1855C63.2865 48.415 61.6872 48.5976 60.4596 49.2732C59.2319 49.9488 58.2951 51.0379 57.3859 52.1038C56.9566 49.1128 55.7385 46.2391 53.8879 43.8493C51.6284 40.9319 47.1486 43.1159 45.328 45.4799C43.7406 47.5413 42.8809 50.1519 42.9318 52.7531C43.0331 57.8912 46.4566 62.2866 49.717 66.2594C48.2758 66.1358 47.0096 67.4747 46.8065 68.9068C46.6034 70.3389 47.2277 71.7701 48.0614 72.9523C50.2531 76.0582 53.7952 77.8743 57.196 79.5721C54.8293 79.9842 53.9452 83.2305 55.0115 85.3837C58.7998 93.0326 73.5511 95.5056 80.9991 95.7405C83.0987 95.8068 85.6076 95.5124 87.3554 94.237C89.5644 92.6255 88.8638 90.834 88.9629 88.4091C89.2173 82.2028 89.5122 76.001 87.4663 70.0241Z" fill="#82ABFF"/>
<path d="M51.7812 57.4453C51.7812 57.4453 75.3386 88.1972 93.7523 100.431C94.5637 100.971 95.6533 100.789 96.2562 100.024C96.905 99.201 96.7519 98.007 95.9181 97.3723C91.0539 93.6689 74.8792 80.8559 51.7812 57.4453Z" fill="#373C8A"/>
<path d="M18.0934 44.444C22.6605 50.7903 30.95 50.4309 37.5521 52.9457C37.9564 53.2655 38.3495 53.5999 38.7497 53.9248C33.264 52.5331 27.1448 54.5513 21.7818 55.6181C21.3447 55.7049 21.4142 56.3301 21.7818 56.4537C24.8763 57.4959 28.0853 58.5541 31.3862 58.1656C32.5352 58.0302 33.6447 57.7281 34.6888 57.2165C36.558 56.3001 38.1432 54.6622 40.394 55.3919C40.4567 55.4123 40.5144 55.4164 40.5676 55.4105C40.8902 55.6826 41.2027 55.9657 41.5226 56.241C41.578 56.346 41.6689 56.4223 41.7757 56.4609C43.1705 57.6686 44.5295 58.9167 45.8698 60.1847C43.1714 59.2356 39.6566 60.2038 36.9855 60.4451C32.781 60.8249 28.5928 60.9458 24.5819 59.3969C24.1548 59.232 23.9149 59.8267 24.1698 60.1211C26.8377 63.2061 30.7946 64.1271 34.6643 64.417C39.1223 64.7509 43.7802 64.5251 47.6594 62.028C47.6867 62.0108 47.7008 61.9871 47.7221 61.9671C49.1815 63.4056 50.6045 64.8818 51.993 66.3906C49.0979 65.2984 45.992 65.5342 42.9365 66.2085C38.2322 67.2466 33.7047 68.6615 28.8323 68.1222C28.4152 68.0758 28.2535 68.7469 28.6183 68.9295C32.3121 70.7796 36.3758 71.6833 40.4921 71.3839C45.0379 71.0531 49.0997 68.4906 53.6364 68.3652C53.6772 68.3639 53.7086 68.3498 53.7431 68.3402C55.5169 70.3498 57.2266 72.418 58.8718 74.538C55.3774 72.97 51.5618 73.1654 47.8471 73.9291C42.3722 75.055 37.3263 76.5153 31.6742 75.8428C31.2853 75.7965 31.1499 76.3358 31.3748 76.5825C34.5189 80.0333 39.1546 80.6203 43.5326 80.0519C49.1252 79.3258 54.6804 77.772 60.1916 76.5739C60.2239 76.5671 60.2434 76.5494 60.2698 76.5371C60.3243 76.6257 60.417 76.6875 60.521 76.7152C61.3616 77.8479 62.1799 78.9978 62.9831 80.1587C59.3593 79.8102 55.9644 79.5044 52.5373 81.0265C47.9629 83.0578 43.3009 84.2932 38.3031 84.5276C37.9701 84.5431 37.6984 85.0143 38.0037 85.2673C46.1001 91.9798 55.6745 83.3059 63.7483 81.2959C63.9604 81.2432 65.5057 84.0283 65.766 84.3977C66.5611 85.5263 67.2149 86.6967 67.9182 87.8871C68.9296 89.5981 69.9015 91.3337 70.8324 93.0925C72.697 96.6155 74.3958 100.23 75.9156 103.922C76.1242 104.429 76.9438 104.205 76.7325 103.691C73.7888 96.5392 70.2036 89.704 66.0613 83.2537C66.702 80.6207 67.4007 77.9819 68.8933 75.7002C70.2322 73.6529 71.5603 71.98 72.3313 69.5979C73.1155 67.1748 73.8265 64.5787 73.6085 62.0026C73.3822 59.3319 72.3831 56.724 71.6302 54.1756C71.4967 53.7235 70.7552 53.7898 70.7979 54.291C71.2986 60.1275 69.4617 64.8559 66.6479 69.7964C65.6224 71.5965 64.6542 73.4716 64.3389 75.5552C64.054 77.4394 64.3198 79.3263 64.6933 81.1791C63.5511 79.4744 62.3811 77.7893 61.1599 76.1432C61.7164 74.5034 62.2048 72.7824 62.9591 71.2321C63.6274 69.8577 64.5606 68.641 65.2244 67.2612C66.2313 65.1689 66.8383 62.8749 67.0186 60.5509C67.403 55.595 65.716 50.8121 62.6119 47.0369C62.3362 46.7011 61.7828 47.0605 61.9036 47.4585C63.4584 52.5604 64.6851 57.9121 62.8509 63.1198C61.4184 67.1862 59.7409 70.5088 60.1253 74.7756C58.2807 72.3571 56.3565 70.0018 54.3465 67.7237C58.2457 66.6923 59.4111 61.7759 59.0762 58.1166C58.5169 52.0047 55.2275 46.553 54.7177 40.3803C54.6823 39.9496 54.1702 39.7937 53.9285 40.1618C51.6913 43.5643 52.5832 47.7166 53.4187 51.4445C54.5278 56.3914 55.8254 61.7727 53.1461 66.3852C51.5105 64.5833 49.8298 62.8236 48.0942 61.1193C49.6086 59.7863 50.9094 58.5468 51.4487 56.4709C51.9685 54.4709 51.754 52.3178 51.1556 50.3641C50.3991 47.8933 49.0765 45.6634 47.9579 43.3572C46.5649 40.4843 45.4949 37.4843 44.6808 34.3907C44.5644 33.9495 44.0033 34.0099 43.8638 34.3907C42.4949 38.1236 43.3291 41.9732 44.6153 45.6053C45.3705 47.7366 46.2741 49.8107 46.8952 51.9906C47.3332 53.5277 48.5945 58.4882 46.9239 59.9976C45.4622 58.5986 43.9752 57.2261 42.4476 55.8989C46.5322 47.613 36.597 42.8288 33.562 36.4257C33.3312 35.9386 32.7288 36.3225 32.7878 36.7596C33.1926 39.7715 34.2622 42.5353 36.0659 44.9601C38.3626 48.0474 41.8929 50.967 41.5798 55.147C40.6662 54.3682 39.7452 53.5976 38.8093 52.8453C38.8274 52.7762 38.8329 52.7012 38.8047 52.614C37.8365 49.6117 35.1036 48.136 32.3371 47.1732C27.9045 45.6307 22.8908 45.9533 18.6731 43.851C18.3328 43.6816 17.819 44.0623 18.0934 44.444Z" fill="#5F82F7"/>
<path d="M130.631 51.3116C131.964 50.013 131.228 47.7509 129.387 47.4837L115.626 45.4841C114.895 45.3778 114.263 44.9189 113.936 44.2565L107.781 31.7861C106.958 30.1182 104.58 30.1182 103.756 31.7861L97.6019 44.2565C97.2752 44.9189 96.6432 45.3778 95.9122 45.4841L82.1505 47.4837C80.3099 47.7513 79.5748 50.0135 80.9065 51.3116L90.8648 61.0182C91.3937 61.5339 91.6349 62.2767 91.5105 63.0046L89.1597 76.7108C88.8453 78.5441 90.7694 79.9421 92.416 79.0766L104.725 72.6054C105.379 72.2614 106.16 72.2614 106.814 72.6054L119.123 79.0766C120.769 79.9421 122.694 78.5441 122.379 76.7108L120.028 63.0046C119.903 62.2767 120.145 61.5339 120.674 61.0182L130.631 51.3116Z" fill="#FE912D"/>
<path d="M90.8206 67.0265C91.5431 67.0651 92.2709 67.0914 93.0074 67.0914C108.706 67.0914 121.433 58.124 121.433 47.0625C121.433 46.8149 121.419 46.5696 121.407 46.3242L115.626 45.4841C114.895 45.3778 114.263 44.9189 113.936 44.2565L107.782 31.7861C106.959 30.1182 104.58 30.1182 103.757 31.7861L97.6022 44.2565C97.2755 44.9189 96.6435 45.3778 95.9125 45.4841L82.1504 47.4837C80.3098 47.7513 79.5747 50.0135 80.9068 51.3116L90.8652 61.0182C91.394 61.5339 91.6353 62.2767 91.5108 63.0046L90.8206 67.0265Z" fill="#FFAC0E"/>
<path d="M183.815 82.332H32.6265C29.5797 82.332 27.1094 84.8023 27.1094 87.8491V171.223C27.1094 174.27 29.5797 176.74 32.6265 176.74H183.815C186.862 176.74 189.332 174.27 189.332 171.223V87.8491C189.332 84.8019 186.862 82.332 183.815 82.332Z" fill="#AAC6FF"/>
<path d="M183.815 82.332H32.6265C29.5797 82.332 27.1094 84.8023 27.1094 87.8491V96.9238H189.332V87.8491C189.332 84.8019 186.862 82.332 183.815 82.332Z" fill="#0559FF"/>
<path d="M36.501 92.1856C38.2663 92.1856 39.6973 90.7546 39.6973 88.9893C39.6973 87.224 38.2663 85.793 36.501 85.793C34.7357 85.793 33.3047 87.224 33.3047 88.9893C33.3047 90.7546 34.7357 92.1856 36.501 92.1856Z" fill="white"/>
<path d="M48.7979 92.1856C50.5632 92.1856 51.9942 90.7546 51.9942 88.9893C51.9942 87.224 50.5632 85.793 48.7979 85.793C47.0326 85.793 45.6016 87.224 45.6016 88.9893C45.6016 90.7546 47.0326 92.1856 48.7979 92.1856Z" fill="white"/>
<path d="M61.1026 92.1856C62.8678 92.1856 64.2989 90.7546 64.2989 88.9893C64.2989 87.224 62.8678 85.793 61.1026 85.793C59.3373 85.793 57.9062 87.224 57.9062 88.9893C57.9062 90.7546 59.3373 92.1856 61.1026 92.1856Z" fill="white"/>
<path d="M176.403 110.18H45.1605C43.3285 110.18 41.8438 111.664 41.8438 113.496V163.62C41.8438 165.452 43.3285 166.937 45.1605 166.937H176.403C178.235 166.937 179.719 165.452 179.719 163.62V113.496C179.719 111.664 178.234 110.18 176.403 110.18Z" fill="#8CB3FF"/>
<path d="M172.371 106.145H41.1292C39.2973 106.145 37.8125 107.63 37.8125 109.461V159.585C37.8125 161.417 39.2973 162.902 41.1292 162.902H172.371C174.203 162.902 175.688 161.417 175.688 159.585V109.461C175.688 107.629 174.203 106.145 172.371 106.145Z" fill="#FEFFFF"/>
<path d="M116.68 147.258C117.213 146.739 116.919 145.834 116.183 145.728L110.682 144.928C110.39 144.886 110.137 144.703 110.007 144.438L107.546 139.453C107.217 138.786 106.266 138.786 105.937 139.453L103.477 144.438C103.346 144.703 103.094 144.886 102.802 144.928L97.3003 145.728C96.5643 145.834 96.2708 146.738 96.8033 147.258L100.784 151.138C100.995 151.344 101.092 151.641 101.042 151.932L100.102 157.411C99.9764 158.144 100.746 158.703 101.404 158.357L106.324 155.77C106.585 155.633 106.897 155.633 107.159 155.77L112.079 158.357C112.737 158.703 113.507 158.143 113.381 157.411L112.441 151.932C112.391 151.641 112.488 151.344 112.699 151.138L116.68 147.258Z" fill="#FE912D"/>
<path d="M100.767 153.54C101.055 153.555 101.346 153.566 101.641 153.566C107.916 153.566 113.003 149.982 113.003 145.559C113.003 145.46 112.998 145.362 112.993 145.264L110.682 144.928C110.39 144.886 110.137 144.703 110.007 144.438L107.546 139.453C107.217 138.786 106.266 138.786 105.937 139.453L103.477 144.438C103.347 144.703 103.094 144.886 102.802 144.928L97.3003 145.728C96.5643 145.834 96.2708 146.738 96.8033 147.258L100.784 151.138C100.995 151.344 101.092 151.641 101.042 151.932L100.767 153.54Z" fill="#FFAC0E"/>
<path d="M95.1422 149.149C95.5847 148.717 95.3403 147.966 94.7292 147.877L90.1576 147.213C89.915 147.177 89.705 147.025 89.5965 146.805L87.5519 142.662C87.2784 142.108 86.4883 142.108 86.2148 142.662L84.1702 146.805C84.0616 147.024 83.8517 147.177 83.6091 147.213L79.0375 147.877C78.4259 147.966 78.1819 148.717 78.6245 149.149L81.9326 152.373C82.1084 152.544 82.1884 152.791 82.147 153.033L81.366 157.586C81.2615 158.195 81.9008 158.659 82.4478 158.372L86.5369 156.222C86.7541 156.108 87.0135 156.108 87.2307 156.222L91.3198 158.372C91.8668 158.659 92.5061 158.195 92.4016 157.586L91.6206 153.033C91.5792 152.791 91.6592 152.544 91.835 152.373L95.1422 149.149Z" fill="#FE912D"/>
<path d="M81.9171 154.369C82.157 154.382 82.3987 154.39 82.6436 154.39C87.8586 154.39 92.0863 151.412 92.0863 147.737C92.0863 147.655 92.0817 147.573 92.0776 147.492L90.1576 147.213C89.915 147.177 89.705 147.025 89.5965 146.805L87.5519 142.662C87.2784 142.108 86.4883 142.108 86.2148 142.662L84.1702 146.805C84.0616 147.024 83.8517 147.177 83.6091 147.213L79.0375 147.877C78.4259 147.966 78.1819 148.717 78.6245 149.149L81.9326 152.373C82.1084 152.544 82.1884 152.791 82.147 153.033L81.9171 154.369Z" fill="#FFAC0E"/>
<path d="M75.275 149.149C75.7175 148.717 75.4731 147.966 74.862 147.877L70.2904 147.213C70.0478 147.177 69.8379 147.025 69.7293 146.805L67.6847 142.662C67.4112 142.108 66.6211 142.108 66.3476 142.662L64.303 146.805C64.1944 147.024 63.9845 147.177 63.7419 147.213L59.1703 147.877C58.5587 147.966 58.3148 148.717 58.7573 149.149L62.0654 152.373C62.2412 152.544 62.3212 152.791 62.2798 153.033L61.4988 157.586C61.3943 158.195 62.0336 158.659 62.5806 158.372L66.6697 156.222C66.8869 156.108 67.1463 156.108 67.3635 156.222L71.4526 158.372C71.9996 158.659 72.6389 158.195 72.5344 157.586L71.7534 153.033C71.712 152.791 71.792 152.544 71.9678 152.373L75.275 149.149Z" fill="#FE912D"/>
<path d="M62.0499 154.369C62.2898 154.382 62.5315 154.39 62.7764 154.39C67.9914 154.39 72.2191 151.412 72.2191 147.737C72.2191 147.655 72.2145 147.573 72.2104 147.492L70.2904 147.213C70.0478 147.177 69.8379 147.025 69.7293 146.805L67.6847 142.662C67.4112 142.108 66.6211 142.108 66.3476 142.662L64.303 146.805C64.1944 147.024 63.9845 147.177 63.7419 147.213L59.1703 147.877C58.5587 147.966 58.3148 148.717 58.7573 149.149L62.0654 152.373C62.2412 152.544 62.3212 152.791 62.2798 153.033L62.0499 154.369Z" fill="#FFAC0E"/>
<path d="M134.869 149.149C135.311 148.717 135.067 147.966 134.456 147.877L129.884 147.213C129.642 147.177 129.432 147.025 129.323 146.805L127.278 142.662C127.005 142.108 126.215 142.108 125.941 142.662L123.897 146.805C123.788 147.024 123.578 147.177 123.336 147.213L118.764 147.877C118.152 147.966 117.909 148.717 118.351 149.149L121.659 152.373C121.835 152.544 121.915 152.791 121.874 153.033L121.093 157.586C120.988 158.195 121.627 158.659 122.174 158.372L126.263 156.222C126.481 156.108 126.74 156.108 126.957 156.222L131.046 158.372C131.593 158.659 132.233 158.195 132.128 157.586L131.347 153.033C131.306 152.791 131.386 152.544 131.562 152.373L134.869 149.149Z" fill="#FE912D"/>
<path d="M121.644 154.369C121.884 154.382 122.126 154.39 122.371 154.39C127.586 154.39 131.813 151.412 131.813 147.737C131.813 147.655 131.809 147.573 131.805 147.492L129.885 147.213C129.642 147.177 129.432 147.025 129.323 146.805L127.278 142.662C127.005 142.108 126.215 142.108 125.941 142.662L123.897 146.805C123.788 147.024 123.578 147.177 123.336 147.213L118.764 147.877C118.152 147.966 117.909 148.717 118.351 149.149L121.659 152.373C121.835 152.544 121.915 152.791 121.874 153.033L121.644 154.369Z" fill="#FFAC0E"/>
<path d="M155.025 149.149C155.468 148.717 155.223 147.966 154.612 147.877L150.04 147.213C149.798 147.177 149.588 147.025 149.479 146.805L147.435 142.662C147.161 142.108 146.371 142.108 146.098 142.662L144.053 146.805C143.944 147.024 143.735 147.177 143.492 147.213L138.92 147.877C138.309 147.966 138.065 148.717 138.507 149.149L141.815 152.373C141.991 152.544 142.071 152.791 142.03 153.033L141.249 157.586C141.144 158.195 141.784 158.659 142.331 158.372L146.42 156.222C146.637 156.108 146.896 156.108 147.114 156.222L151.203 158.372C151.75 158.659 152.389 158.195 152.284 157.586L151.503 153.033C151.462 152.791 151.542 152.544 151.718 152.373L155.025 149.149Z" fill="#A4C5CF"/>
<path d="M141.8 154.369C142.04 154.382 142.282 154.39 142.526 154.39C147.741 154.39 151.969 151.412 151.969 147.737C151.969 147.655 151.965 147.573 151.96 147.492L150.04 147.213C149.798 147.177 149.588 147.025 149.479 146.805L147.435 142.662C147.161 142.108 146.371 142.108 146.098 142.662L144.053 146.805C143.944 147.024 143.735 147.177 143.492 147.213L138.92 147.877C138.309 147.966 138.065 148.717 138.507 149.149L141.815 152.373C141.991 152.544 142.071 152.791 142.03 153.033L141.8 154.369Z" fill="#D5F0F0"/>
<path d="M59.0963 137.45C66.45 137.45 72.4113 131.489 72.4113 124.135C72.4113 116.782 66.45 110.82 59.0963 110.82C51.7426 110.82 45.7812 116.782 45.7812 124.135C45.7812 131.489 51.7426 137.45 59.0963 137.45Z" fill="#D4E1FD"/>
<path d="M65.7724 130.099L61.214 126.703C63.4884 125.845 65.1091 123.654 65.1091 121.079C65.1091 117.756 62.4153 115.062 59.0926 115.062C55.77 115.062 53.0762 117.756 53.0762 121.079C53.0762 123.654 54.6968 125.845 56.9713 126.703L52.4129 130.099C51.8681 130.505 51.5469 131.145 51.5469 131.824V135.106C53.6918 136.584 56.2902 137.452 59.0922 137.452C61.8941 137.452 64.4925 136.584 66.6375 135.106V131.824C66.6384 131.145 66.3172 130.506 65.7724 130.099Z" fill="#0559FF"/>
<path d="M165.985 118.73H82.09C81.1345 118.73 80.3594 119.505 80.3594 120.461C80.3594 121.417 81.134 122.192 82.09 122.192H165.984C166.94 122.192 167.715 121.417 167.715 120.461C167.715 119.505 166.94 118.73 165.985 118.73Z" fill="#0559FF"/>
<path d="M165.985 126.074H82.09C81.1345 126.074 80.3594 126.849 80.3594 127.805C80.3594 128.761 81.134 129.535 82.09 129.535H165.984C166.94 129.535 167.715 128.761 167.715 127.805C167.715 126.849 166.94 126.074 165.985 126.074Z" fill="#0559FF"/>
</svg>
