<svg width="20" height="20" viewBox="0 0 20 20" fill="none" xmlns="http://www.w3.org/2000/svg">
    <path fill-rule="evenodd" clip-rule="evenodd" d="M9.207.011c-2.466.23-4.533 1.183-6.251 2.88C1.366 4.46.406 6.37.069 8.628c-.083.564-.094 2.07-.017 2.62.32 2.303 1.292 4.263 2.904 5.854 1.832 1.81 4.108 2.794 6.681 2.89a9.94 9.94 0 0 0 7.437-2.933c1.579-1.59 2.539-3.546 2.852-5.811.068-.487.068-2.016 0-2.503-.314-2.267-1.272-4.22-2.852-5.811-1.537-1.548-3.49-2.527-5.685-2.852C11 .024 9.564-.022 9.207.012zm2.17 1.263a8.91 8.91 0 0 1 4.137 1.837 8.945 8.945 0 0 1 3.052 4.777c.19.788.238 1.208.238 2.108 0 .902-.048 1.32-.24 2.112-.305 1.26-.966 2.553-1.842 3.6-1.156 1.38-2.863 2.438-4.622 2.864-.79.192-1.21.24-2.11.24-.903 0-1.321-.048-2.112-.24-1.834-.444-3.594-1.569-4.775-3.05-.58-.727-1.16-1.762-1.442-2.574a8.858 8.858 0 0 1 1.594-8.66C4.412 2.906 6.12 1.846 7.878 1.42a11.897 11.897 0 0 1 1.407-.237c.421-.039 1.636.014 2.092.09z" fill="#7A7A7A"/>
    <path fill-rule="evenodd" clip-rule="evenodd" d="M9.837 3.856a.616.616 0 0 0-.24.134c-.064.063-.447.794-.958 1.835l-.85 1.732-1.844.265a78.428 78.428 0 0 0-1.986.3c-.178.044-.372.257-.408.448-.052.28.02.391.657 1.015.329.32.961.94 1.406 1.376l.808.792-.33 1.92c-.3 1.745-.354 2.051-.227 2.225.028.038.065.07.111.11.077.068.2.129.293.144l2.184-1.01 1.535-.809 1.3.687 2.412 1.133a.67.67 0 0 0 .297-.144c.046-.04.083-.073.111-.111.127-.174.073-.48-.227-2.224l-.33-1.918.828-.812 1.405-1.38c.616-.603.69-.717.638-.992a.726.726 0 0 0-.3-.417c-.06-.032-2.525-.408-3.618-.552l-.317-.042-.836-1.705c-.46-.938-.885-1.761-.945-1.83a.522.522 0 0 0-.215-.149 18.8 18.8 0 0 0-.165-.038.577.577 0 0 0-.19.017zm1.635 4.714c-.119-.077-.224-.266-.801-1.442-.366-.744-.674-1.353-.685-1.353-.01 0-.318.609-.684 1.353-.577 1.175-.682 1.365-.801 1.442-.116.076-.354.12-1.545.29-.774.111-1.44.214-1.48.23-.057.022.128.22 1.007 1.075.877.853 1.087 1.077 1.124 1.201.04.135.016.326-.208 1.63-.14.811-.25 1.481-.245 1.488.005.007.49-.242 1.079-.552 1.494-.789 1.618-.848 1.762-.848.09 0 .527.208 1.474.704.74.387 1.348.7 1.352.694.004-.006-.107-.675-.247-1.487-.223-1.301-.248-1.494-.208-1.629.037-.123.248-.348 1.124-1.2.884-.86 1.065-1.054 1.006-1.077-.04-.016-.705-.119-1.48-.229-1.19-.17-1.428-.214-1.544-.29z" fill="#7A7A7A"/>
</svg>
