<svg width="127" height="47" viewBox="0 0 127 47" fill="none" xmlns="http://www.w3.org/2000/svg">
<path opacity="0.5" d="M0 15.793H127" stroke="#7A7A7A" stroke-dasharray="2 2"/>
<path d="M2.71094 14.8223C2.71094 14.8223 4.37009 14.5049 6.16763 11.5616C7.96517 8.61838 11.7444 1.21084 12.9426 1.33743C14.1409 1.46402 14.8783 10.771 14.8783 10.771L20.0401 15.1396L24.9254 13.6834C25.5399 13.7256 26.898 14.0759 27.4142 15.1396C28.0594 16.4692 28.2438 19.5082 29.8107 20.2046C31.3777 20.9011 32.3916 22.4206 34.4195 20.7745C36.4474 19.1283 38.9361 16.0893 40.8718 16.6591C42.8075 17.2289 45.4806 18.6851 45.8493 21.091C46.218 23.4969 47.3241 26.8525 48.0615 25.2697C48.7989 23.6869 47.1397 24.0034 48.0615 20.7745C48.9832 17.5455 47.4162 15.3929 49.3519 13.6834C51.2876 11.974 52.9468 9.25151 54.3294 7.98525C55.712 6.71899 57.8321 2.60365 59.2147 3.61665C60.5973 4.62966 62.1643 5.57936 62.0721 7.98525C61.9799 10.3911 62.0721 12.987 62.0721 13.1769C62.0721 13.3668 62.6252 14.1899 64.2843 13.6834C65.9435 13.1769 66.5887 11.5616 67.2339 11.5616C67.8792 11.5616 67.1418 16.1526 68.6166 15.836C70.0914 15.5195 69.8149 14.7922 70.6444 13.1769C71.474 11.5616 72.3958 8.42844 74.2393 8.61838C75.7141 8.77033 77.3732 10.1168 78.0185 10.771" stroke="#DD2006"/>
<path opacity="0.2" d="M6.16763 11.5618C4.37009 14.505 2.71094 14.8224 2.71094 14.8224V46.3359H78.0185V10.7711C77.3732 10.1169 75.7141 8.77044 74.2393 8.61849C72.3958 8.42855 71.474 11.5618 70.6444 13.177C69.8149 14.7923 70.0914 15.5196 68.6166 15.8362C67.1418 16.1527 67.8792 11.5618 67.2339 11.5618C66.5887 11.5618 65.9435 13.177 64.2843 13.6835C62.6252 14.19 62.0721 13.367 62.0721 13.177C62.0721 12.9871 61.9799 10.3913 62.0721 7.98536C62.1643 5.57947 60.5973 4.62977 59.2147 3.61677C57.8321 2.60376 55.712 6.7191 54.3294 7.98536C52.9468 9.25162 51.2876 11.9741 49.3519 13.6835C47.4162 15.393 48.9832 17.5456 48.0615 20.7746C47.1397 24.0035 48.7989 23.687 48.0615 25.2698C47.3241 26.8526 46.218 23.497 45.8493 21.0911C45.4806 18.6852 42.8075 17.229 40.8718 16.6592C38.9361 16.0894 36.4474 19.1284 34.4195 20.7746C32.3916 22.4207 31.3777 20.9012 29.8107 20.2048C28.2438 19.5083 28.0594 16.4693 27.4142 15.1397C26.898 14.0761 25.5399 13.7257 24.9254 13.6835L20.0401 15.1397L14.8783 10.7711C14.8783 10.7711 14.1409 1.46413 12.9426 1.33754C11.7444 1.21095 7.96517 8.61849 6.16763 11.5618Z" fill="url(#paint0_linear_819_42683)"/>
<defs>
<linearGradient id="paint0_linear_819_42683" x1="40.3647" y1="3.02963" x2="40.3647" y2="46.3359" gradientUnits="userSpaceOnUse">
<stop stop-color="#DD2006"/>
<stop offset="1" stop-color="#DD2006" stop-opacity="0"/>
</linearGradient>
</defs>
</svg>
