<svg width="18" height="20" viewBox="0 0 18 20" fill="none" xmlns="http://www.w3.org/2000/svg">
    <g opacity=".99" fill="#7A7A7A">
        <path fill-rule="evenodd" clip-rule="evenodd" d="M15.24 5.934c-.065 0-11.264-.018-12.201 0-.88.018-.963.026-1.267.126a2.853 2.853 0 0 0-.982.573c-.25.225-.551.705-.678 1.078L0 8.042v4.88c0 4.548-.011 5.024.157 5.424.032.075.07.147.115.243.216.458.671.92 1.12 1.137.078.038.136.07.197.098.41.19.916.177 8.146.177 5.174 0 7.496-.014 7.575-.043a.6.6 0 0 0 .376-.457c.032-.146.04-2.094.032-6.66-.012-6.406-.013-6.453-.094-6.592a.74.74 0 0 0-.222-.222c-.135-.079-.212-.082-2.162-.093zm1.276 12.857-.02-11.636-6.403-.01-6.402-.01V18.79h12.825zM2.481 18.8V7.175l-.132.003c-.256.007-.486.124-.739.377-.08.08-.144.13-.196.19-.227.266-.204.745-.215 5.036-.008 3.117.002 4.667.031 4.858.093.601.505 1.026 1.1 1.133l.15.028z"/>
        <path d="M4.65 3.919A4.955 4.955 0 0 1 8.8.024c.384-.054 1.324-.012 1.715.077a4.932 4.932 0 0 1 3.77 3.973c.116.68.062 1.562-.138 2.232l-1.28-.019c.21-.54.248-.755.248-1.401 0-.457-.018-.675-.074-.888-.1-.38-.415-1.032-.645-1.337a3.804 3.804 0 0 0-2.022-1.347c-.313-.082-1.153-.139-1.392-.095-1.034.19-1.807.624-2.377 1.331a3.697 3.697 0 0 0-.526 3.83l-1.27.084c-.276-.944-.326-1.743-.16-2.545zM16.537 10.414l-2.229.013-2.229.012c-.493.066-.94.596-1.07.93-.091.233-.094.282-.11 1.781-.011.984-.001 1.661.027 1.87.077.572.453 1.171 1.073 1.307l2.268.012 2.27.011-.021-1.233-2.114.01c-1.929.01-2.12.005-2.188-.057-.07-.063-.074-.155-.064-1.703V11.87c0-.121.044-.2.226-.2l2.51-.029 1.63.008.021-1.235z"/>
        <path d="M12.896 13.675c-.17-.25-.083-.616.187-.797a.615.615 0 0 1 .65 0c.493.336.27 1.094-.323 1.094-.227 0-.366-.08-.514-.297z"/>
        <path fill-rule="evenodd" clip-rule="evenodd" d="M8.998 3.986c.779-.004.787 0 .558.26-.162.184-.336.234-.82.236l-.358.002.001.2.002.2.664.787.664.787.37-.002c.203 0 .368-.014.367-.03-.001-.016-.27-.344-.598-.73-.375-.442-.58-.712-.554-.73a.276.276 0 0 1 .124-.03c.046 0 .18-.037.3-.083a.989.989 0 0 0 .596-.631l.072-.224.191-.012.192-.012.057-.204a2.64 2.64 0 0 0 .058-.227c0-.013-.116-.023-.256-.022l-.255.001-.067-.2a6.74 6.74 0 0 0-.086-.246c-.015-.036.05-.048.259-.05h.278l.045-.163.064-.229c.017-.063-.052-.066-1.207-.051l-1.226.016-.045.16a8.416 8.416 0 0 0-.069.254l-.023.095.522.01c.577.01.66.04.804.288l.07.12-.636.003-.636.003-.056.229-.055.228.689-.003z"/>
    </g>
</svg>
