<svg width="17" height="17" viewBox="0 0 17 17" fill="none" xmlns="http://www.w3.org/2000/svg">
<g clip-path="url(#clip0_819_45932)">
<path d="M16.2362 15.5332L13.4095 12.7294C14.5067 11.3613 15.0381 9.62485 14.8943 7.87704C14.7506 6.12923 13.9426 4.50293 12.6366 3.33254C11.3306 2.16215 9.62576 1.53663 7.8727 1.5846C6.11965 1.63257 4.4516 2.35038 3.21154 3.59044C1.97148 4.83051 1.25366 6.49856 1.20569 8.25161C1.15772 10.0047 1.78324 11.7095 2.95364 13.0155C4.12403 14.3215 5.75033 15.1295 7.49814 15.2732C9.24594 15.417 10.9824 14.8856 12.3505 13.7884L15.1543 16.5922C15.2251 16.6637 15.3094 16.7203 15.4022 16.759C15.4951 16.7977 15.5947 16.8176 15.6952 16.8176C15.7958 16.8176 15.8954 16.7977 15.9883 16.759C16.0811 16.7203 16.1654 16.6637 16.2362 16.5922C16.3735 16.4502 16.4503 16.2603 16.4503 16.0627C16.4503 15.8651 16.3735 15.6753 16.2362 15.5332ZM8.07619 13.7884C7.02136 13.7884 5.99021 13.4756 5.11315 12.8896C4.23609 12.3036 3.5525 11.4706 3.14883 10.4961C2.74517 9.52154 2.63955 8.44918 2.84534 7.41462C3.05112 6.38005 3.55908 5.42974 4.30496 4.68386C5.05084 3.93798 6.00115 3.43003 7.03571 3.22424C8.07028 3.01846 9.14263 3.12407 10.1172 3.52774C11.0917 3.93141 11.9247 4.61499 12.5107 5.49206C13.0967 6.36912 13.4095 7.40026 13.4095 8.4551C13.4095 9.86959 12.8476 11.2261 11.8474 12.2263C10.8472 13.2265 9.49068 13.7884 8.07619 13.7884Z" fill="#7A7A7A"/>
</g>
<defs>
<clipPath id="clip0_819_45932">
<rect width="16" height="16" fill="white" transform="translate(0.460938 0.835938)"/>
</clipPath>
</defs>
</svg>
