<svg width="20" height="21" viewBox="0 0 20 21" fill="none" xmlns="http://www.w3.org/2000/svg">
<g clip-path="url(#clip0_819_45884)">
<path d="M19.721 19.2085L16.1877 15.7037C17.5592 13.9936 18.2234 11.8231 18.0437 9.63829C17.864 7.45353 16.854 5.42066 15.2215 3.95767C13.589 2.49468 11.458 1.71278 9.26666 1.77274C7.07534 1.8327 4.99028 2.72997 3.4402 4.28005C1.89013 5.83012 0.99286 7.91519 0.932898 10.1065C0.872936 12.2978 1.65484 14.4288 3.11783 16.0614C4.58081 17.6939 6.61369 18.7038 8.79845 18.8835C10.9832 19.0632 13.1538 18.3991 14.8639 17.0275L18.3686 20.5323C18.4572 20.6216 18.5625 20.6924 18.6786 20.7408C18.7946 20.7891 18.9191 20.814 19.0448 20.814C19.1706 20.814 19.295 20.7891 19.4111 20.7408C19.5272 20.6924 19.6325 20.6216 19.721 20.5323C19.8927 20.3547 19.9886 20.1174 19.9886 19.8704C19.9886 19.6234 19.8927 19.3861 19.721 19.2085V19.2085ZM9.52102 17.0275C8.20248 17.0275 6.91355 16.6365 5.81722 15.904C4.72089 15.1715 3.86641 14.1303 3.36182 12.9121C2.85724 11.6939 2.72522 10.3535 2.98245 9.06026C3.23969 7.76706 3.87463 6.57917 4.80698 5.64682C5.73933 4.71447 6.92721 4.07953 8.22042 3.8223C9.51363 3.56506 10.8541 3.69708 12.0722 4.20167C13.2904 4.70625 14.3316 5.56074 15.0642 6.65706C15.7967 7.75339 16.1877 9.04232 16.1877 10.3609C16.1877 12.129 15.4853 13.8247 14.2351 15.0749C12.9848 16.3252 11.2891 17.0275 9.52102 17.0275V17.0275Z" fill="#7A7A7A"/>
</g>
<defs>
<clipPath id="clip0_819_45884">
<rect width="20" height="20" fill="white" transform="translate(0 0.835938)"/>
</clipPath>
</defs>
</svg>
