<svg width="18" height="20" viewBox="0 0 18 20" fill="none" xmlns="http://www.w3.org/2000/svg">
    <path fill-rule="evenodd" clip-rule="evenodd" d="M8.446.051c-.358.1-.41.129-2.663 1.427l-3.506 2.02C1.151 4.149.898 4.312.666 4.54c-.302.297-.536.72-.618 1.118-.064.31-.064 8.39 0 8.699.082.398.316.82.618 1.118.232.229.485.392 1.611 1.041l3.506 2.022c1.194.689 2.293 1.3 2.442 1.357.233.09.338.105.751.105.412 0 .519-.015.751-.104.243-.093 6.52-3.68 7.17-4.097.498-.32.892-.883 1.007-1.442.064-.31.064-8.39 0-8.699-.116-.56-.509-1.123-1.007-1.442C16.22 3.78 9.967.21 9.727.122 9.383-.006 8.77-.04 8.446.052zm4.166 3.235a454.058 454.058 0 0 1 3.569 2.07c.16.1.241.19.323.356l.11.221V14.082l-.107.216a.957.957 0 0 1-.22.295c-.06.043-1.643.963-3.515 2.043-2.083 1.202-3.48 1.984-3.6 2.014a.687.687 0 0 1-.386.001c-.167-.042-6.803-3.83-7.125-4.067a.978.978 0 0 1-.22-.294l-.103-.208V5.932l.104-.209a.98.98 0 0 1 .219-.293c.13-.095 6.9-4.007 7.039-4.067.048-.02.194-.032.322-.025.225.011.372.091 3.59 1.947z" fill="#7A7A7A"/>
    <path fill-rule="evenodd" clip-rule="evenodd" d="M8.344 6.756c-1.015.213-1.87.86-2.32 1.754-.268.531-.334.826-.333 1.5 0 .517.014.652.098.919.347 1.114 1.144 1.912 2.26 2.26.267.084.4.098.918.098s.65-.014.916-.098c1.126-.353 1.913-1.139 2.263-2.26.083-.268.097-.4.097-.919 0-.517-.014-.65-.097-.918-.348-1.112-1.13-1.9-2.24-2.254-.329-.105-1.229-.152-1.562-.082zm2.054 1.916a1.852 1.852 0 0 0-.91-.56 1.953 1.953 0 0 0-1.961.571c-.85.915-.636 2.38.444 3.027.576.344 1.389.348 1.981.009.265-.151.64-.547.767-.808.371-.768.25-1.623-.321-2.239z" fill="#7A7A7A"/>
</svg>
