<svg width="16" height="16" viewBox="0 0 16 16" fill="none" xmlns="http://www.w3.org/2000/svg">
<path d="M14.6667 1.50033H12.5V0.500333C12.5001 0.367725 12.4475 0.240513 12.3538 0.146682C12.2601 0.0528517 12.1329 8.85242e-05 12.0003 1.18722e-07C11.8677 -8.82868e-05 11.7405 0.0525054 11.6467 0.146211C11.5529 0.239917 11.5001 0.367059 11.5 0.499667V1.50033H8.5V0.500333C8.50004 0.434673 8.48715 0.369646 8.46207 0.308966C8.43698 0.248287 8.40019 0.193143 8.35379 0.146682C8.30739 0.100222 8.2523 0.0633557 8.19165 0.0381879C8.131 0.0130201 8.06599 4.38852e-05 8.00033 1.11271e-07C7.86773 -8.82942e-05 7.74051 0.0525053 7.64668 0.146211C7.55285 0.239917 7.50009 0.367059 7.5 0.499667V1.50033H4.5V0.500333C4.50004 0.434673 4.48715 0.369646 4.46207 0.308966C4.43698 0.248287 4.40019 0.193143 4.35379 0.146682C4.30739 0.100222 4.2523 0.0633557 4.19165 0.0381879C4.131 0.0130201 4.06599 4.38852e-05 4.00033 1.11271e-07C3.86773 -8.82942e-05 3.74051 0.0525053 3.64668 0.146211C3.55285 0.239917 3.50009 0.367059 3.5 0.499667V1.50033H1.33333C0.979827 1.50033 0.640789 1.64072 0.39076 1.89062C0.140731 2.14053 0.000176753 2.47949 0 2.833V14.6663C0 15.02 0.140476 15.3591 0.390524 15.6091C0.640573 15.8592 0.979711 15.9997 1.33333 15.9997H14.6667C15.0203 15.9997 15.3594 15.8592 15.6095 15.6091C15.8595 15.3591 16 15.02 16 14.6663V2.833C15.9998 2.47949 15.8593 2.14053 15.6092 1.89062C15.3592 1.64072 15.0202 1.50033 14.6667 1.50033V1.50033ZM15 14.667C15 14.7553 14.965 14.84 14.9026 14.9025C14.8402 14.965 14.7556 15.0002 14.6673 15.0003H1.33333C1.24493 15.0003 1.16014 14.9652 1.09763 14.9027C1.03512 14.8402 1 14.7554 1 14.667V2.83367C1.00018 2.74538 1.03537 2.66076 1.09787 2.5984C1.16036 2.53603 1.24504 2.501 1.33333 2.501H3.5V3.501C3.49991 3.63361 3.55251 3.76082 3.64621 3.85465C3.73992 3.94848 3.86706 4.00125 3.99967 4.00133C4.13227 4.00142 4.25949 3.94883 4.35332 3.85512C4.44715 3.76142 4.49991 3.63428 4.5 3.50167V2.501H7.5V3.501C7.49991 3.63361 7.55251 3.76082 7.64621 3.85465C7.73992 3.94848 7.86706 4.00125 7.99967 4.00133C8.13228 4.00142 8.25949 3.94883 8.35332 3.85512C8.44715 3.76142 8.49991 3.63428 8.5 3.50167V2.501H11.5V3.501C11.4999 3.63361 11.5525 3.76082 11.6462 3.85465C11.7399 3.94848 11.8671 4.00125 11.9997 4.00133C12.1323 4.00142 12.2595 3.94883 12.3533 3.85512C12.4471 3.76142 12.4999 3.63428 12.5 3.50167V2.501H14.6667C14.7548 2.50118 14.8394 2.53628 14.9017 2.59863C14.9641 2.66098 14.9992 2.74549 14.9993 2.83367L15 14.667Z" fill="#15803D"/>
<path d="M3.5 6.75C3.5 6.33579 3.83579 6 4.25 6H4.75C5.16421 6 5.5 6.33579 5.5 6.75V6.75C5.5 7.16421 5.16421 7.5 4.75 7.5H4.25C3.83579 7.5 3.5 7.16421 3.5 6.75V6.75Z" fill="#15803D"/>
<path d="M3.5 9.25C3.5 8.83579 3.83579 8.5 4.25 8.5H4.75C5.16421 8.5 5.5 8.83579 5.5 9.25V9.25C5.5 9.66421 5.16421 10 4.75 10H4.25C3.83579 10 3.5 9.66421 3.5 9.25V9.25Z" fill="#15803D"/>
<path d="M3.5 11.75C3.5 11.3358 3.83579 11 4.25 11H4.75C5.16421 11 5.5 11.3358 5.5 11.75V11.75C5.5 12.1642 5.16421 12.5 4.75 12.5H4.25C3.83579 12.5 3.5 12.1642 3.5 11.75V11.75Z" fill="#15803D"/>
<path d="M7 11.75C7 11.3358 7.33579 11 7.75 11H8.25C8.66421 11 9 11.3358 9 11.75V11.75C9 12.1642 8.66421 12.5 8.25 12.5H7.75C7.33579 12.5 7 12.1642 7 11.75V11.75Z" fill="#15803D"/>
<path d="M7 9.25C7 8.83579 7.33579 8.5 7.75 8.5H8.25C8.66421 8.5 9 8.83579 9 9.25V9.25C9 9.66421 8.66421 10 8.25 10H7.75C7.33579 10 7 9.66421 7 9.25V9.25Z" fill="#15803D"/>
<path d="M7 6.75C7 6.33579 7.33579 6 7.75 6H8.25C8.66421 6 9 6.33579 9 6.75V6.75C9 7.16421 8.66421 7.5 8.25 7.5H7.75C7.33579 7.5 7 7.16421 7 6.75V6.75Z" fill="#15803D"/>
<path d="M10.5 11.75C10.5 11.3358 10.8358 11 11.25 11H11.75C12.1642 11 12.5 11.3358 12.5 11.75V11.75C12.5 12.1642 12.1642 12.5 11.75 12.5H11.25C10.8358 12.5 10.5 12.1642 10.5 11.75V11.75Z" fill="#15803D"/>
<path d="M10.5 9.25C10.5 8.83579 10.8358 8.5 11.25 8.5H11.75C12.1642 8.5 12.5 8.83579 12.5 9.25V9.25C12.5 9.66421 12.1642 10 11.75 10H11.25C10.8358 10 10.5 9.66421 10.5 9.25V9.25Z" fill="#15803D"/>
<path d="M10.5 6.75C10.5 6.33579 10.8358 6 11.25 6H11.75C12.1642 6 12.5 6.33579 12.5 6.75V6.75C12.5 7.16421 12.1642 7.5 11.75 7.5H11.25C10.8358 7.5 10.5 7.16421 10.5 6.75V6.75Z" fill="#15803D"/>
</svg>
