<svg width="43" height="42" viewBox="0 0 43 42" fill="none" xmlns="http://www.w3.org/2000/svg">
<path d="M0 0H39C41.2091 0 43 1.79086 43 4V38C43 40.2091 41.2091 42 39 42H0V0Z" fill="#86EFAC"/>
<g clip-path="url(#clip0_819_48337)">
<path d="M28.1667 14.5003H26V13.5003C26.0001 13.3677 25.9475 13.2405 25.8538 13.1467C25.7601 13.0529 25.6329 13.0001 25.5003 13C25.3677 12.9999 25.2405 13.0525 25.1467 13.1462C25.0529 13.2399 25.0001 13.3671 25 13.4997V14.5003H22V13.5003C22 13.4347 21.9872 13.3696 21.9621 13.309C21.937 13.2483 21.9002 13.1931 21.8538 13.1467C21.8074 13.1002 21.7523 13.0634 21.6917 13.0382C21.631 13.013 21.566 13 21.5003 13C21.3677 12.9999 21.2405 13.0525 21.1467 13.1462C21.0529 13.2399 21.0001 13.3671 21 13.4997V14.5003H18V13.5003C18 13.4347 17.9872 13.3696 17.9621 13.309C17.937 13.2483 17.9002 13.1931 17.8538 13.1467C17.8074 13.1002 17.7523 13.0634 17.6916 13.0382C17.631 13.013 17.566 13 17.5003 13C17.3677 12.9999 17.2405 13.0525 17.1467 13.1462C17.0529 13.2399 17.0001 13.3671 17 13.4997V14.5003H14.8333C14.4798 14.5003 14.1408 14.6407 13.8908 14.8906C13.6407 15.1405 13.5002 15.4795 13.5 15.833V27.6663C13.5 28.02 13.6405 28.3591 13.8905 28.6091C14.1406 28.8592 14.4797 28.9997 14.8333 28.9997H28.1667C28.5203 28.9997 28.8594 28.8592 29.1095 28.6091C29.3595 28.3591 29.5 28.02 29.5 27.6663V15.833C29.4998 15.4795 29.3593 15.1405 29.1092 14.8906C28.8592 14.6407 28.5202 14.5003 28.1667 14.5003ZM28.5 27.667C28.5 27.7553 28.465 27.84 28.4026 27.9025C28.3402 27.965 28.2556 28.0002 28.1673 28.0003H14.8333C14.7449 28.0003 14.6601 27.9652 14.5976 27.9027C14.5351 27.8402 14.5 27.7554 14.5 27.667V15.8337C14.5002 15.7454 14.5354 15.6608 14.5979 15.5984C14.6604 15.536 14.745 15.501 14.8333 15.501H17V16.501C16.9999 16.6336 17.0525 16.7608 17.1462 16.8547C17.2399 16.9485 17.3671 17.0012 17.4997 17.0013C17.6323 17.0014 17.7595 16.9488 17.8533 16.8551C17.9471 16.7614 17.9999 16.6343 18 16.5017V15.501H21V16.501C20.9999 16.6336 21.0525 16.7608 21.1462 16.8547C21.2399 16.9485 21.3671 17.0012 21.4997 17.0013C21.6323 17.0014 21.7595 16.9488 21.8533 16.8551C21.9471 16.7614 21.9999 16.6343 22 16.5017V15.501H25V16.501C24.9999 16.6336 25.0525 16.7608 25.1462 16.8547C25.2399 16.9485 25.3671 17.0012 25.4997 17.0013C25.6323 17.0014 25.7595 16.9488 25.8533 16.8551C25.9471 16.7614 25.9999 16.6343 26 16.5017V15.501H28.1667C28.2548 15.5012 28.3394 15.5363 28.4017 15.5986C28.4641 15.661 28.4992 15.7455 28.4993 15.8337L28.5 27.667Z" fill="#15803D"/>
<path d="M17 19.75C17 19.3358 17.3358 19 17.75 19H18.25C18.6642 19 19 19.3358 19 19.75C19 20.1642 18.6642 20.5 18.25 20.5H17.75C17.3358 20.5 17 20.1642 17 19.75Z" fill="#15803D"/>
<path d="M17 22.25C17 21.8358 17.3358 21.5 17.75 21.5H18.25C18.6642 21.5 19 21.8358 19 22.25C19 22.6642 18.6642 23 18.25 23H17.75C17.3358 23 17 22.6642 17 22.25Z" fill="#15803D"/>
<path d="M17 24.75C17 24.3358 17.3358 24 17.75 24H18.25C18.6642 24 19 24.3358 19 24.75C19 25.1642 18.6642 25.5 18.25 25.5H17.75C17.3358 25.5 17 25.1642 17 24.75Z" fill="#15803D"/>
<path d="M20.5 24.75C20.5 24.3358 20.8358 24 21.25 24H21.75C22.1642 24 22.5 24.3358 22.5 24.75C22.5 25.1642 22.1642 25.5 21.75 25.5H21.25C20.8358 25.5 20.5 25.1642 20.5 24.75Z" fill="#15803D"/>
<path d="M20.5 22.25C20.5 21.8358 20.8358 21.5 21.25 21.5H21.75C22.1642 21.5 22.5 21.8358 22.5 22.25C22.5 22.6642 22.1642 23 21.75 23H21.25C20.8358 23 20.5 22.6642 20.5 22.25Z" fill="#15803D"/>
<path d="M20.5 19.75C20.5 19.3358 20.8358 19 21.25 19H21.75C22.1642 19 22.5 19.3358 22.5 19.75C22.5 20.1642 22.1642 20.5 21.75 20.5H21.25C20.8358 20.5 20.5 20.1642 20.5 19.75Z" fill="#15803D"/>
<path d="M24 24.75C24 24.3358 24.3358 24 24.75 24H25.25C25.6642 24 26 24.3358 26 24.75C26 25.1642 25.6642 25.5 25.25 25.5H24.75C24.3358 25.5 24 25.1642 24 24.75Z" fill="#15803D"/>
<path d="M24 22.25C24 21.8358 24.3358 21.5 24.75 21.5H25.25C25.6642 21.5 26 21.8358 26 22.25C26 22.6642 25.6642 23 25.25 23H24.75C24.3358 23 24 22.6642 24 22.25Z" fill="#15803D"/>
<path d="M24 19.75C24 19.3358 24.3358 19 24.75 19H25.25C25.6642 19 26 19.3358 26 19.75C26 20.1642 25.6642 20.5 25.25 20.5H24.75C24.3358 20.5 24 20.1642 24 19.75Z" fill="#15803D"/>
</g>
<defs>
<clipPath id="clip0_819_48337">
<rect width="16" height="16" fill="white" transform="translate(13.5 13)"/>
</clipPath>
</defs>
</svg>
