<svg width="20" height="21" viewBox="0 0 20 21" fill="none" xmlns="http://www.w3.org/2000/svg">
<path d="M9.23967 4.15974C9.48014 3.42478 10.5199 3.42478 10.7603 4.15974L11.9443 7.77814C12.0518 8.10696 12.3586 8.32936 12.7046 8.32936H16.5239C17.3002 8.32936 17.6216 9.3239 16.992 9.77813L13.9117 12.0005C13.6294 12.2042 13.5112 12.5672 13.6195 12.8981L14.7983 16.5009C15.0391 17.2369 14.1979 17.8515 13.5699 17.3984L10.4681 15.1605C10.1886 14.9589 9.8114 14.9589 9.53192 15.1605L6.43013 17.3984C5.80207 17.8516 4.96088 17.2369 5.20172 16.5009L6.38054 12.8981C6.4888 12.5672 6.37063 12.2042 6.08828 12.0005L3.00802 9.77813C2.37844 9.32389 2.69977 8.32936 3.4761 8.32936H7.29541C7.64138 8.32936 7.94816 8.10696 8.05575 7.77814L9.23967 4.15974Z" fill="#FFA903"/>
</svg>
