<svg width="25" height="24" viewBox="0 0 25 24" fill="none" xmlns="http://www.w3.org/2000/svg">
<circle opacity="0.1" cx="12.1875" cy="12" r="12" fill="#16A086"/>
<g clip-path="url(#clip0_818_6600)">
<path d="M6.7475 16.5604C6.7475 16.3871 6.68417 16.2371 6.5575 16.1104C6.43083 15.9837 6.28083 15.9204 6.1075 15.9204C5.9275 15.9204 5.77583 15.9837 5.6525 16.1104C5.52917 16.2371 5.4675 16.3871 5.4675 16.5604C5.4675 16.7404 5.52917 16.8921 5.6525 17.0154C5.77583 17.1387 5.9275 17.2004 6.1075 17.2004C6.28083 17.2004 6.43083 17.1387 6.5575 17.0154C6.68417 16.8921 6.7475 16.7404 6.7475 16.5604ZM8.3475 11.4404V17.8404C8.3475 18.0137 8.28417 18.1637 8.1575 18.2904C8.03083 18.4171 7.88083 18.4804 7.7075 18.4804H4.8275C4.65417 18.4804 4.50417 18.4171 4.3775 18.2904C4.25083 18.1637 4.1875 18.0137 4.1875 17.8404V11.4404C4.1875 11.2671 4.25083 11.1171 4.3775 10.9904C4.50417 10.8637 4.65417 10.8004 4.8275 10.8004H7.7075C7.88083 10.8004 8.03083 10.8637 8.1575 10.9904C8.28417 11.1171 8.3475 11.2671 8.3475 11.4404ZM20.1875 11.4404C20.1875 12.0137 20.0042 12.5104 19.6375 12.9304C19.7375 13.2237 19.7875 13.4771 19.7875 13.6904C19.8075 14.1971 19.6642 14.6537 19.3575 15.0604C19.4708 15.4337 19.4708 15.8237 19.3575 16.2304C19.2575 16.6104 19.0775 16.9237 18.8175 17.1704C18.8775 17.9171 18.7142 18.5204 18.3275 18.9804C17.9008 19.4871 17.2442 19.7471 16.3575 19.7604H15.0675C14.6275 19.7604 14.1475 19.7087 13.6275 19.6054C13.1075 19.5021 12.7025 19.4054 12.4125 19.3154C12.1225 19.2254 11.7208 19.0937 11.2075 18.9204C10.3875 18.6337 9.86083 18.4871 9.6275 18.4804C9.45417 18.4737 9.30417 18.4087 9.1775 18.2854C9.05083 18.1621 8.9875 18.0137 8.9875 17.8404V11.4304C8.9875 11.2637 9.0475 11.1187 9.1675 10.9954C9.2875 10.8721 9.43083 10.8037 9.5975 10.7904C9.7575 10.7771 10.0108 10.5804 10.3575 10.2004C10.7042 9.82039 11.0408 9.41706 11.3675 8.99039C11.8208 8.41039 12.1575 8.01039 12.3775 7.79039C12.4975 7.67039 12.6008 7.51039 12.6875 7.31039C12.7742 7.11039 12.8325 6.94872 12.8625 6.82539C12.8925 6.70206 12.9375 6.50039 12.9975 6.22039C13.0442 5.96039 13.0858 5.75706 13.1225 5.61039C13.1592 5.46372 13.2242 5.29039 13.3175 5.09039C13.4108 4.89039 13.5242 4.72372 13.6575 4.59039C13.7842 4.46372 13.9342 4.40039 14.1075 4.40039C14.4142 4.40039 14.6892 4.43539 14.9325 4.50539C15.1758 4.57539 15.3758 4.66206 15.5325 4.76539C15.6892 4.86872 15.8225 5.00372 15.9325 5.17039C16.0425 5.33706 16.1225 5.48706 16.1725 5.62039C16.2225 5.75372 16.2625 5.92039 16.2925 6.12039C16.3225 6.32039 16.3392 6.47039 16.3425 6.57039C16.3458 6.67039 16.3475 6.80039 16.3475 6.96039C16.3475 7.21372 16.3158 7.46706 16.2525 7.72039C16.1892 7.97372 16.1258 8.17372 16.0625 8.32039C15.9992 8.46706 15.9075 8.65372 15.7875 8.88039C15.7675 8.92039 15.7342 8.98039 15.6875 9.06039C15.6408 9.14039 15.6042 9.21372 15.5775 9.28039C15.5508 9.34706 15.5242 9.42706 15.4975 9.52039H18.2675C18.7875 9.52039 19.2375 9.71039 19.6175 10.0904C19.9975 10.4704 20.1875 10.9204 20.1875 11.4404Z" fill="#16A086"/>
</g>
<defs>
<clipPath id="clip0_818_6600">
<rect width="16" height="16" fill="white" transform="translate(4.1875 4)"/>
</clipPath>
</defs>
</svg>
