<svg width="25" height="24" viewBox="0 0 25 24" fill="none" xmlns="http://www.w3.org/2000/svg">
<circle cx="12.1367" cy="12" r="12" fill="#E5EEFE"/>
<path d="M7.52344 10.9531V14.0931" stroke="#0559FF" stroke-width="0.5" stroke-linecap="round"/>
<rect x="8.99023" y="15.6836" width="2.85448" height="3.01759" transform="rotate(180 8.99023 15.6836)" fill="#0559FF"/>
<path d="M16.25 9.15918L16.25 4.99979" stroke="#0559FF" stroke-width="0.5" stroke-linecap="round"/>
<rect x="14.7812" y="7.12109" width="2.85448" height="3.42538" fill="#0559FF"/>
<path d="M16.25 18.2939L16.25 14.2161" stroke="#0559FF" stroke-width="0.5" stroke-linecap="round"/>
<rect x="14.7812" y="13.1553" width="2.85448" height="3.42538" fill="#0559FF"/>
<path d="M14.2858 6.78755C14.3273 6.65587 14.2542 6.51547 14.1226 6.47395L11.9767 5.79733C11.845 5.75581 11.7046 5.82889 11.6631 5.96057C11.6216 6.09225 11.6947 6.23266 11.8263 6.27418L13.7338 6.87562L13.1323 8.78305C13.0908 8.91473 13.1639 9.05513 13.2956 9.09666C13.4273 9.13818 13.5677 9.06509 13.6092 8.93341L14.2858 6.78755ZM8.20918 10.0333L14.1628 6.93413L13.9319 6.49062L7.97832 9.58977L8.20918 10.0333Z" fill="#0559FF"/>
<path d="M14.8632 18.4485C14.9939 18.404 15.0638 18.262 15.0193 18.1313L14.2942 16.0013C14.2497 15.8706 14.1076 15.8007 13.9769 15.8452C13.8462 15.8897 13.7763 16.0317 13.8208 16.1625L14.4654 18.0558L12.5721 18.7003C12.4414 18.7448 12.3715 18.8868 12.416 19.0175C12.4605 19.1482 12.6025 19.2181 12.7332 19.1736L14.8632 18.4485ZM9.53415 15.9079L14.6722 18.4362L14.893 17.9875L9.75491 15.4593L9.53415 15.9079Z" fill="#0559FF"/>
</svg>
