<svg width="37" height="36" viewBox="0 0 37 36" fill="none" xmlns="http://www.w3.org/2000/svg">
<path d="M8.79102 16.4355V23.5215" stroke="#0063F5" stroke-width="1.8" stroke-linecap="round"/>
<rect x="12.1035" y="27.1104" width="6.44175" height="6.80985" transform="rotate(180 12.1035 27.1104)" fill="#0063F5"/>
<path d="M28.4863 12.3867L28.4863 3.00017" stroke="#0063F5" stroke-width="1.8" stroke-linecap="round"/>
<rect x="25.1719" y="7.78613" width="6.44175" height="7.7301" fill="#0063F5"/>
<path d="M28.4863 33L28.4863 23.7975" stroke="#0063F5" stroke-width="1.8" stroke-linecap="round"/>
<rect x="25.1719" y="21.4043" width="6.44175" height="7.7301" fill="#0063F5"/>
<path d="M24.231 7.09102C24.3556 6.69598 24.1363 6.27476 23.7413 6.1502L17.3037 4.12033C16.9087 3.99577 16.4874 4.21504 16.3629 4.61008C16.2383 5.00512 16.4576 5.42634 16.8526 5.5509L22.5749 7.35522L20.7706 13.0775C20.646 13.4725 20.8653 13.8938 21.2603 14.0183C21.6554 14.1429 22.0766 13.9236 22.2011 13.5286L24.231 7.09102ZM10.4264 14.5246L23.862 7.53074L23.1694 6.20022L9.73378 13.1941L10.4264 14.5246Z" fill="#0063F5"/>
<path d="M25.415 33.5259C25.8071 33.3924 26.0167 32.9663 25.8833 32.5742L23.708 26.1843C23.5745 25.7922 23.1484 25.5825 22.7563 25.716C22.3642 25.8495 22.1545 26.2756 22.288 26.6677L24.2216 32.3476L18.5417 34.2812C18.1496 34.4147 17.9399 34.8408 18.0734 35.2329C18.2069 35.625 18.633 35.8347 19.0251 35.7012L25.415 33.5259ZM13.247 27.7833L24.8421 33.4888L25.5044 32.143L13.9093 26.4374L13.247 27.7833Z" fill="#0063F5"/>
</svg>
