<svg width="130" height="116" viewBox="0 0 130 116" fill="none" xmlns="http://www.w3.org/2000/svg">
<path d="M110.841 57.8503C110.841 78.2626 94.2939 94.81 73.8816 94.81C53.4693 94.81 36.9219 78.2626 36.9219 57.8503C36.9219 37.438 53.4693 20.8906 73.8816 20.8906C94.2939 20.8906 110.841 37.438 110.841 57.8503Z" fill="#0BAC68"/>
<path d="M54.4219 60.5998L60.3197 54.5054L69.7562 62.7623L89.6122 43.4961L95.5101 49.5905L69.7562 75.1478L54.4219 60.5998Z" fill="white" stroke="white"/>
<circle cx="27.6832" cy="42.316" r="4.12848" fill="#FFBB5D"/>
<circle cx="27.6832" cy="42.316" r="4.12848" stroke="black"/>
<circle cx="36.7222" cy="100.117" r="4.12848" fill="#70C043"/>
<circle cx="36.7222" cy="100.117" r="4.12848" stroke="black"/>
<path d="M104.355 96.3822C101.949 93.9764 104.355 93.4564 105.927 93.8265C109.27 94.6128 114.774 100.117 114.508 104.948C114.603 105.183 114.692 105.408 114.774 105.622C114.774 107.588 112.21 108.571 111.825 106.409C110.253 97.5617 105.927 97.9549 104.355 96.3822Z" fill="#FFBB5D"/>
<path d="M111.236 23.0514C108.483 23.0514 107.5 26.0004 111.236 26.0004C129.519 23.0514 120.082 9.48645 129.519 7.32391C130.24 6.34094 130.502 4.375 127.75 4.375C116.937 7.32391 126.57 20.2991 111.236 23.0514Z" fill="#F95685"/>
<circle cx="74.8657" cy="107.979" r="2.16254" fill="#70C043"/>
<circle cx="74.8657" cy="107.979" r="2.16254" stroke="black"/>
<circle cx="86.4631" cy="111.713" r="3.93188" fill="#14A9CC"/>
<circle cx="86.4631" cy="111.713" r="3.93188" stroke="black"/>
<circle cx="120.472" cy="55.2925" r="4.12848" fill="#71D1FF"/>
<circle cx="120.472" cy="55.2925" r="4.12848" stroke="black"/>
<circle cx="62.2822" cy="4.57123" r="3.73529" fill="#C25EF6"/>
<circle cx="62.2822" cy="4.57123" r="3.73529" stroke="black"/>
<circle cx="74.4725" cy="11.2537" r="1.76935" fill="#FFBB5D"/>
<circle cx="74.4725" cy="11.2537" r="1.76935" stroke="black"/>
<path fill-rule="evenodd" clip-rule="evenodd" d="M1.92808 82.6191C-0.234507 81.6361 -1.02098 84.6729 1.92808 85.3714C10.5781 87.4201 17.4196 88.5169 21.1942 79.0804C25.5192 79.0804 30.67 77.1145 32.4 73.1826C33.265 71.2166 31.6136 71.2167 30.4341 71.2167C28.2715 74.3622 25.5192 76.7213 22.3737 75.7384C23.1601 61.1904 1.92808 68.0712 18.4418 78.0975C17.59 81.1119 13.0947 86.2364 1.92808 82.6191ZM19.2282 75.7384C19.4597 73.5758 19.2334 69.6439 16.4759 71.2167C15.4929 71.7641 14.6672 73.4349 19.2282 75.7384Z" fill="#71D1FF"/>
</svg>
