<svg width="109" height="109" viewBox="0 0 109 109" fill="none" xmlns="http://www.w3.org/2000/svg">
<g clip-path="url(#clip0_819_47127)">
<path d="M105.161 54.8346C106.845 52.8923 108.024 50.5723 108.598 48.076C109.172 45.5797 109.122 42.9825 108.453 40.5096C107.784 38.0366 106.517 35.7627 104.76 33.8851C103.003 32.0075 100.811 30.5829 98.3731 29.7349C98.8508 27.2187 98.7017 24.6251 97.9387 22.179C97.1756 19.7329 95.8218 17.5082 93.9945 15.6979C92.1673 13.8876 89.9218 12.5465 87.453 11.7907C84.9842 11.035 82.3665 10.8876 79.8272 11.3612C78.972 8.94502 77.5344 6.77217 75.6394 5.03132C73.7444 3.29047 71.4492 2.03425 68.9531 1.37171C66.4569 0.709168 63.8353 0.660345 61.3158 1.22948C58.7962 1.79861 56.455 2.96849 54.4953 4.63756C52.535 2.96964 50.1937 1.80081 47.6743 1.23247C45.1549 0.664121 42.5336 0.713425 40.0378 1.3761C37.542 2.03877 35.2471 3.2948 33.3521 5.03523C31.4571 6.77566 30.0194 8.94792 29.1635 11.3636C26.6242 10.8907 24.0069 11.0388 21.5385 11.795C19.0701 12.5512 16.8251 13.8928 14.9984 15.7032C13.1717 17.5137 11.8183 19.7384 11.0557 22.1843C10.2931 24.6303 10.1443 27.2237 10.6222 29.7396C8.18425 30.5876 5.99189 32.0122 4.23536 33.8898C2.47884 35.7674 1.21118 38.0413 0.542376 40.5142C-0.126428 42.9872 -0.176195 45.5844 0.397407 48.0807C0.971009 50.577 2.15067 52.8969 3.83402 54.8392C2.15016 56.7815 0.970134 59.1016 0.396369 61.5981C-0.177396 64.0947 -0.127586 66.6923 0.541511 69.1654C1.21061 71.6386 2.47875 73.9125 4.23588 75.79C5.99301 77.6674 8.18605 79.0916 10.6246 79.9389C10.1463 82.4548 10.2949 85.0484 11.0576 87.4945C11.8203 89.9406 13.174 92.1654 15.0012 93.9756C16.8284 95.7858 19.0738 97.1268 21.5426 97.8821C24.0115 98.6375 26.6291 98.7845 29.1682 98.3102C30.0241 100.726 31.4619 102.898 33.3568 104.639C35.2518 106.379 37.5467 107.635 40.0425 108.298C42.5383 108.96 45.1596 109.01 47.679 108.441C50.1984 107.873 52.5398 106.704 54.5 105.036C56.4603 106.705 58.8018 107.874 61.3215 108.442C63.8411 109.011 66.4627 108.962 68.9587 108.299C71.4547 107.636 73.7498 106.379 75.6446 104.638C77.5394 102.897 78.9767 100.724 79.8319 98.3079C82.3712 98.7817 84.9888 98.6343 87.4575 97.8786C89.9263 97.1229 92.1717 95.7817 93.9988 93.9713C95.8259 92.161 97.1795 89.9362 97.9422 87.49C98.7049 85.0439 98.8536 82.4502 98.3755 79.9342C100.814 79.0864 103.006 77.6618 104.763 75.7842C106.519 73.9065 107.787 71.6324 108.456 69.1593C109.124 66.6863 109.174 64.0889 108.6 61.5926C108.025 59.0963 106.845 56.7765 105.161 54.8346Z" fill="#22C55E"/>
<path d="M46.9561 77.6646L27.4062 58.3034L33.5851 52.1765L46.7624 65.226L74.7821 35.7148L81.1499 41.6498L46.9561 77.6646Z" fill="white"/>
</g>
<defs>
<clipPath id="clip0_819_47127">
<rect width="108.999" height="108" fill="white" transform="translate(0 0.835938)"/>
</clipPath>
</defs>
</svg>
