<svg width="20" height="21" viewBox="0 0 20 21" fill="none" xmlns="http://www.w3.org/2000/svg">
<path d="M0.46967 15.3056C0.176777 15.5985 0.176777 16.0734 0.46967 16.3663C0.762563 16.6592 1.23744 16.6592 1.53033 16.3663L0.46967 15.3056ZM7.5 9.33594L8.09201 8.87548L7.57042 8.20486L6.96967 8.80561L7.5 9.33594ZM11 13.8359L10.408 14.2964L10.9296 14.967L11.5303 14.3663L11 13.8359ZM19 5.83594H19.75V5.08594H19V5.83594ZM14.5 5.08594C14.0858 5.08594 13.75 5.42172 13.75 5.83594C13.75 6.25015 14.0858 6.58594 14.5 6.58594V5.08594ZM18.25 10.3359C18.25 10.7502 18.5858 11.0859 19 11.0859C19.4142 11.0859 19.75 10.7502 19.75 10.3359H18.25ZM1.53033 16.3663L8.03033 9.86627L6.96967 8.80561L0.46967 15.3056L1.53033 16.3663ZM6.90799 9.79639L10.408 14.2964L11.592 13.3755L8.09201 8.87548L6.90799 9.79639ZM11.5303 14.3663L19.5303 6.36627L18.4697 5.30561L10.4697 13.3056L11.5303 14.3663ZM19 5.08594H14.5V6.58594H19V5.08594ZM18.25 5.83594V10.3359H19.75V5.83594H18.25Z" fill="#7A7A7A"/>
</svg>
