<svg width="42" height="42" viewBox="0 0 42 42" fill="none" xmlns="http://www.w3.org/2000/svg">
    <circle cx="21" cy="21" r="21" fill="#E5EEFE"/>
    <path d="M24.508 18.479h-5.63c-6.185 0-5.875-.015-6.505.303-.646.326-1.202 1.095-1.32 1.826-.07.44-.07 8.82 0 9.261.161.998 1.03 1.893 2.02 2.08.365.068 12.411.068 12.776 0 1.29 0 1.121-1.85-.367-1.728h.045c-.33 0-.26.092-6.066.092-5.805 0-6.07-.004-6.263-.092-.243-.11-.394-.308-.463-.604-.07-.309-.07-8.425.001-8.757.066-.308.202-.485.462-.604.193-.087.469-.091 6.263-.091H26.735c1.265 0 1.017-1.686 0-1.686h-2.227z" fill="#0559FF"/>
    <path d="M15.603 25.271c-.128-.335.111-.88.463-1.053.29-.144.513-.148.776-.015.944.48.495 1.906-.54 1.713-.343-.064-.55-.255-.699-.645zM18.527 25.271c-.128-.335.11-.88.462-1.053.29-.144.513-.148.776-.015.945.48.495 1.906-.54 1.713-.343-.064-.55-.255-.698-.645zM21.45 25.271c-.128-.335.111-.88.462-1.053.29-.144.514-.148.776-.015.945.48.496 1.906-.54 1.713-.342-.064-.549-.255-.698-.645zM19.532 10.025c-2.1.288-3.817 1.887-4.383 4.083-.092.704-.092 1.026-.092 1.691v3.483h1.516v-4.184c.056-.729 0-.99.22-1.677.48-.928 1.344-1.515 2.284-1.83 2.218-.741 4.277.374 4.712 2.868.046.259.239 1.008.239 2.596l-.057 1.985h1.391l-.017-2c-.019-2.137-.032-2.364-.179-2.932a5.658 5.658 0 0 0-1.377-2.516 5.067 5.067 0 0 0-2.702-1.513c-.366-.076-1.19-.104-1.555-.054zM27.732 21.57a2.937 2.937 0 0 0-1.599.91c-.451.488-.77 1.23-.77 1.792v.22c0 .813 1.392.972 1.613-.023l.027-.189a1.32 1.32 0 0 1 .764-1.01c.312-.147.826-.152 1.115-.012.275.133.49.334.63.583.107.195.12.258.12.567 0 .531-.088.675-.963 1.573-.916.941-1.075 1.206-1.135 1.888l-.03.341c0 .936 1.515 1.08 1.659 0v-.153c0-.22.095-.35.634-.874.62-.604.962-1.032 1.186-1.487.258-.524.316-.791.296-1.366-.02-.54-.124-.911-.38-1.348-.311-.53-.937-1.069-1.483-1.273a3.154 3.154 0 0 0-1.684-.14zM27.233 31.055c-.16-.422.138-1.108.575-1.327.362-.181.64-.186.966-.018 1.177.605.617 2.401-.672 2.158-.426-.08-.683-.32-.869-.813z" fill="#0559FF"/>
</svg>
