<svg width="42" height="42" viewBox="0 0 42 42" fill="none" xmlns="http://www.w3.org/2000/svg">
    <circle cx="21" cy="21" r="21" fill="#E5EEFE"/>
    <path fill-rule="evenodd" clip-rule="evenodd" d="M27.571 24.733c.587-.689.848-1.205 1.08-2.132.594-2.38-.912-4.947-3.34-5.692-1.72-.528-3.603-.047-4.9 1.252-.627.629-1.124 1.584-1.316 2.532-.136.666-.03 1.91.216 2.535l.182.463-.568.688c-.562.682-.567.692-.529 1.127l.038.439-.438.038c-.494.043-.628.15-.599.484.016.186-.017.235-.168.248a.778.778 0 0 0-.36.16c-.146.123-.167.223-.13.636l.042.49-.475.044c-.464.042-.486.055-.91.544l-.436.5.107 1.229c.098 1.13.12 1.234.274 1.3.096.04.744.021 1.513-.046l1.346-.117 2.193-2.591 2.193-2.592.382.083c.21.046.681.078 1.047.072a4.816 4.816 0 0 0 3.556-1.694zm-2.02-6.971c.991.422 1.887 1.375 2.26 2.406.285.787.288 1.954.007 2.797-.309.93-1.276 1.97-2.23 2.401-.649.294-1.795.416-2.503.267-.326-.069-.642-.12-.703-.115-.062.005-1.096 1.18-2.3 2.612-2.137 2.543-2.195 2.604-2.518 2.632l-.33.029-1.184.102-.273.024-.053-.765c-.052-.733-.045-.776.178-1.055.22-.275.263-.293.83-.342.761-.067.85-.16.793-.824-.043-.484-.04-.49.195-.51.283-.025.388-.155.397-.492.006-.24.023-.251.44-.298.601-.068.673-.164.615-.825l-.048-.55.567-.669c.311-.367.56-.735.553-.816-.007-.081-.11-.41-.23-.73-.53-1.416-.3-2.853.651-4.062.718-.914 1.716-1.448 2.897-1.548.72-.062 1.289.033 1.989.33z" fill="#0559FF" stroke="#0559FF" stroke-width=".5"/>
    <path fill-rule="evenodd" clip-rule="evenodd" d="M24.424 19.245c-.879.398-.869 1.71.016 2.079.925.386 1.88-.556 1.495-1.476-.227-.543-.98-.844-1.51-.603z" fill="#0559FF" stroke="#0559FF" stroke-width=".5"/>
    <path d="m19.249 23.283-.338-.197-2.883 1.794-2.882 1.794-1.317-.302c-.752-.172-1.375-.352-1.453-.42-.127-.11-.116-.216.137-1.322l.276-1.202.568-.343c.554-.335.579-.34 1.033-.238l.465.105.11-.48c.093-.405.143-.494.319-.565a.778.778 0 0 1 .393-.043c.147.034.194-.002.236-.184.074-.326.234-.388.718-.277l.43.098.097-.429c.098-.425.105-.433.85-.91l.75-.48-.03-.498c-.042-.67.238-1.886.572-2.48.474-.842 1.24-1.599 2.03-2.004 1.633-.839 3.572-.72 5.047.311a4.942 4.942 0 0 1 1.953 2.856l-.973-.591a4.14 4.14 0 0 0-1.013-1.38c-.575-.498-1.088-.763-1.792-.925-1.154-.267-2.268-.065-3.232.585-1.275.86-1.935 2.156-1.866 3.667.016.341.014.685-.005.764-.018.08-.368.353-.777.608l-.744.463-.123.537c-.149.648-.246.717-.839.597-.411-.083-.43-.078-.51.15-.112.317-.252.408-.529.345-.23-.053-.234-.048-.342.426-.15.65-.263.71-1.007.54-.555-.127-.601-.123-.895.072-.298.197-.318.235-.494.95l-.184.744.268.06 1.157.266.324.074c.316.072.39.032 3.204-1.732 1.584-.993 2.93-1.795 2.99-1.781.06.014.345.16.634.325l.467.985a5.36 5.36 0 0 1-.8-.333z" fill="#0559FF"/>
    <path d="m19.249 23.283.126-.217-.126.217zm-.338-.197-.132-.212.127-.08.13.076-.125.216zm-2.883 1.794-.132-.212.133.212zm-2.882 1.794.132.212-.087.054-.1-.023.055-.243zm-2.77-.722.164-.189-.164.189zm.413-2.524-.244-.056.024-.103.09-.055.13.214zm.568-.343.129.214-.13-.214zm1.033-.238.055-.244-.055.244zm.465.105.244.055-.056.243-.242-.054.054-.244zm.429-1.045.094.232-.094-.232zm1.776-.406.244.056-.056.244-.244-.056.056-.244zm.948-1.339.134.21-.134-.21zm.75-.48.25-.017.01.147-.125.08-.134-.21zm-.03-.498.25-.015-.25.015zm.572-2.48.218.123-.218-.122zm2.03-2.004.114.222-.114-.222zm5.047.311-.143.205.143-.205zm-.033.885.163-.189-.163.19zm-1.792-.925.057-.244-.057.244zm-3.232.585.14.207-.14-.207zm-1.866 3.667.25-.011-.25.011zm-.782 1.372-.132-.212.132.212zm-.744.463-.244-.056.023-.101.089-.055.132.212zm-.962 1.134-.05.245.05-.245zm-.51.15.236.082-.236-.083zm-2.773 1.383-.138-.209.138.209zm-.494.95-.243-.06.243.06zm-.184.744-.055.243-.248-.056.06-.247.243.06zm4.953-1.332.133.212-.133-.212zm3.624-1.456.124-.217.068.039.034.07-.226.108zm5.775-5.355-.13.214-.065-.04-.032-.069.227-.105zm.973.59.242-.06.148.59-.52-.315.13-.214zm-6.28 5.75.225-.107.253.533-.559-.19.08-.236zm-.926-.117-.339-.196.251-.433.338.196-.25.433zm-.081-.2-2.882 1.793-.265-.424 2.883-1.794.264.425zm-2.882 1.793-2.883 1.794-.264-.424 2.882-1.794.265.424zm-3.07 1.825-1.317-.3.111-.488 1.317.301-.112.487zm-1.317-.3c-.38-.088-.729-.177-.994-.254a5.809 5.809 0 0 1-.335-.106 1.66 1.66 0 0 1-.119-.047.479.479 0 0 1-.115-.07l.329-.377c-.02-.017-.032-.02-.007-.008l.082.032c.074.026.177.06.304.096.254.073.593.16.966.246l-.111.487zm-1.562-.477a.445.445 0 0 1-.143-.214.736.736 0 0 1-.015-.287c.02-.198.09-.52.216-1.065l.487.112c-.128.56-.19.845-.206 1.004-.008.08-.002.098-.003.093-.006-.02-.02-.03-.008-.02l-.328.377zm.058-1.566.275-1.202.487.112-.275 1.202-.487-.112zm.39-1.36.567-.343.259.428-.568.343-.259-.428zm.567-.343c.262-.158.447-.27.628-.313.197-.045.375-.003.59.045l-.11.488c-.24-.054-.301-.06-.368-.045-.084.02-.189.077-.481.253l-.259-.428zm1.218-.268.465.105-.11.488-.465-.105.11-.488zm.167.293.11-.48.487.111-.11.48-.487-.111zm.11-.48c.045-.197.087-.356.154-.474a.587.587 0 0 1 .314-.267l.188.464a.196.196 0 0 0-.049.025.072.072 0 0 0-.018.023c-.025.045-.055.133-.102.34l-.487-.111zm.468-.74a1.028 1.028 0 0 1 .542-.055l-.111.487a.538.538 0 0 0-.243.03l-.188-.463zm.542-.055.026.005h-.002a.148.148 0 0 0-.075.03c-.027.02-.034.04-.03.034a.68.68 0 0 0 .019-.065l.486.111a.864.864 0 0 1-.048.155.405.405 0 0 1-.12.16c-.133.103-.288.075-.367.057l.111-.487zm-.063.004c.043-.192.132-.393.36-.48.188-.073.42-.04.658.014l-.111.488c-.115-.027-.2-.04-.264-.044a.267.267 0 0 0-.104.008c-.003.001-.005.002-.011.01a.366.366 0 0 0-.04.115l-.488-.111zm1.018-.466.429.098-.112.488-.428-.098.111-.488zm.13.286.098-.429.487.112-.098.429-.488-.112zm.098-.429c.047-.205.083-.38.243-.55.134-.144.358-.286.715-.515l.27.421c-.388.249-.54.35-.62.435-.055.058-.07.1-.121.32l-.487-.11zm.958-1.064.75-.482.27.422-.75.48-.27-.42zm.636-.255-.03-.497.498-.031.031.496-.499.032zm-.03-.497c-.024-.37.041-.868.15-1.34.11-.473.27-.952.453-1.278l.436.245c-.15.267-.297.694-.402 1.145-.104.451-.158.896-.139 1.197l-.499.031zm.603-2.618c.496-.881 1.296-1.675 2.134-2.105l.228.445c-.742.381-1.474 1.101-1.926 1.905l-.436-.245zm2.134-2.105c1.713-.88 3.75-.755 5.304.33l-.286.41c-1.398-.977-3.238-1.092-4.79-.295l-.228-.445zm4.964 1.608c-.546-.473-1.022-.718-1.684-.87l.113-.488c.745.172 1.295.457 1.898.98l-.327.378zm-1.684-.87c-1.088-.252-2.131-.062-3.036.548l-.28-.415c1.023-.689 2.208-.902 3.429-.62l-.113.486zm-3.036.548c-1.205.812-1.821 2.026-1.756 3.449l-.5.022c-.073-1.6.63-2.978 1.977-3.886l.28.415zm-1.756 3.449a9.953 9.953 0 0 1 .006.683.939.939 0 0 1-.017.148l-.487-.111c-.001.004.002-.012.004-.062.003-.044.004-.101.005-.168 0-.134-.003-.301-.01-.468l.499-.022zm-.01.831a.355.355 0 0 1-.069.136.793.793 0 0 1-.072.08c-.051.05-.117.106-.192.163-.149.117-.346.254-.557.385l-.264-.424c.199-.124.38-.25.514-.354a1.904 1.904 0 0 0 .176-.157c.008-.01-.014.013-.024.06l.487.111zm-.89.764-.744.463-.264-.424.744-.463.264.424zm-.633.307-.123.537-.487-.111.123-.538.487.112zm-.123.537a2.795 2.795 0 0 1-.122.422.686.686 0 0 1-.229.312.62.62 0 0 1-.371.105c-.122 0-.26-.023-.41-.053l.1-.49c.146.03.243.043.311.043.064 0 .08-.012.08-.012.005-.004.026-.02.056-.095.031-.075.061-.183.098-.343l.487.111zm-1.131.786a3.38 3.38 0 0 0-.224-.04c-.054-.007-.055-.001-.036-.007a.128.128 0 0 0 .067-.047 1.297 1.297 0 0 0-.032.081l-.472-.166a.914.914 0 0 1 .08-.18.376.376 0 0 1 .216-.168.588.588 0 0 1 .239-.01c.072.01.16.026.26.047l-.099.49zm-.225-.013c-.06.173-.147.341-.302.442-.165.108-.35.103-.519.065l.112-.488c.108.025.132.006.134.005.012-.009.052-.045.103-.19l.472.166zm-.82.507a1.29 1.29 0 0 0-.065-.014l-.012-.002a.154.154 0 0 0 .11-.055c.009-.012.01-.016.005-.006a.518.518 0 0 0-.018.054 5.27 5.27 0 0 0-.064.26l-.487-.111c.027-.116.049-.213.07-.288a.637.637 0 0 1 .104-.223.347.347 0 0 1 .274-.131c.07-.001.147.018.194.028l-.112.488zm-.044.237a2.301 2.301 0 0 1-.131.431.636.636 0 0 1-.274.312.747.747 0 0 1-.412.07 3.339 3.339 0 0 1-.489-.084l.112-.487c.185.042.315.066.412.073.096.006.13-.007.14-.012.006-.004.026-.015.056-.08.032-.069.062-.173.099-.334l.487.111zm-1.306.729c-.292-.067-.399-.085-.47-.08-.045.004-.081.017-.231.116l-.276-.417c.144-.095.278-.182.468-.197.164-.013.358.03.62.09l-.111.488zm-.701.036c-.147.097-.177.126-.209.188-.047.09-.089.243-.18.613l-.486-.12c.085-.343.141-.567.223-.724.096-.185.225-.274.376-.374l.276.417zm-.39.801-.183.745-.485-.12.183-.745.486.12zm-.37.441.268.061-.112.488-.267-.062.111-.487zm1.425.326.323.074-.111.488-.323-.075.111-.487zm.323.074c.066.015.087.017.129.008.06-.013.16-.052.362-.161.4-.217 1.113-.662 2.525-1.547l.266.424c-1.403.879-2.134 1.336-2.553 1.563-.208.112-.36.18-.492.209a.728.728 0 0 1-.348-.009l.111-.487zm3.016-1.7c.794-.497 1.528-.947 2.072-1.271.271-.162.497-.293.66-.384.08-.045.148-.081.2-.106a.996.996 0 0 1 .118-.049.262.262 0 0 1 .129-.003l-.112.488a.238.238 0 0 0 .11-.001l.012-.004a4.512 4.512 0 0 0-.214.112c-.156.087-.377.216-.647.377-.54.321-1.271.769-2.062 1.265l-.266-.424zm3.179-1.813c.044.01.097.034.132.05a10.873 10.873 0 0 1 .57.302l-.248.434a10.291 10.291 0 0 0-.53-.281c-.044-.02-.05-.02-.036-.017l.112-.488zm6.126-4.68a3.89 3.89 0 0 0-.95-1.297l.328-.378c.446.387.815.902 1.076 1.464l-.454.21zm-.61-2.576a5.193 5.193 0 0 1 2.052 3l-.485.122a4.693 4.693 0 0 0-1.853-2.712l.286-.41zm.967 2.256.973.591-.26.428-.973-.591.26-.428zm-5.518 6.79a5.552 5.552 0 0 1-.846-.353l.252-.432c.133.077.448.209.754.312l-.16.474zm-.161-1.328.467.985-.452.214-.467-.985.452-.214zm-8.48 2.712 1.158.265-.111.487-1.158-.264.112-.488z" fill="#0559FF"/>
    <path d="M27.904 19.94c-.738.403-1.228.542-2.024.573l-1.593-.905c.848.36 2.098.364 2.885.01.712-.322 1.466-1.02 1.805-1.674.445-.857.527-2.006.209-2.899-.225-.63-.504-1.056-.973-1.485-.77-.704-1.71-1.031-2.73-.95-1.35.107-2.418.815-3.019 2.003l-.54-.344c.258-.532 1-1.343 1.512-1.653.728-.44 1.643-.69 2.424-.658 1.614.064 3.05.995 3.735 2.423.966 2.015.204 4.522-1.691 5.558z" fill="#0559FF" stroke="#0559FF" stroke-width=".5"/>
</svg>
