<svg width="42" height="42" viewBox="0 0 42 42" fill="none" xmlns="http://www.w3.org/2000/svg">
    <circle cx="21" cy="21" r="21" fill="#E5EEFE"/>
    <path fill-rule="evenodd" clip-rule="evenodd" d="M14.996 20.12h4.951c5.44 0 5.167-.012 5.72.267.569.287 1.057.962 1.161 1.604.063.387.063 7.75 0 8.137-.141.876-.906 1.663-1.776 1.827-.321.06-10.915.06-11.236 0-.881-.166-1.64-.955-1.779-1.85-.032-.207-.043-1.553-.034-4.22l.013-3.916.098-.289a2.31 2.31 0 0 1 1.104-1.298l.246-.132 1.532-.13zm-1.476 2.093c.058-.271.177-.427.406-.53.17-.078.412-.081 5.508-.081s5.338.003 5.508.08c.229.104.348.26.406.53.063.292.063 7.423 0 7.694-.06.26-.192.434-.405.53-.171.078-.404.082-5.509.082s-5.338-.004-5.509-.081c-.213-.097-.346-.271-.406-.531-.062-.27-.062-7.402 0-7.693z" fill="#0559FF"/>
    <path d="M20.777 24.979c-.199-.43-.654-.787-1.1-.862a1.512 1.512 0 0 0-1.332.442c-.304.325-.389.546-.39 1.015 0 .364.011.411.15.668.088.161.238.35.36.453l.209.176v.909c0 1.003.02 1.11.257 1.308.301.254.663.254.965 0 .236-.198.257-.305.257-1.308v-.909l.209-.176a1.77 1.77 0 0 0 .359-.453c.14-.257.15-.304.15-.668 0-.309-.02-.434-.094-.595zM20.193 10.029c2.409.33 4.377 2.167 5.026 4.689.18.702.234 1.673.106 1.942-.143.301-.547.477-.86.373-.396-.13-.502-.322-.553-1.006-.064-.837-.222-1.412-.578-2.099-.55-1.065-1.472-1.871-2.549-2.232-2.544-.852-5.184.892-5.683 3.756-.052.298-.065.827-.065 2.65v2.123l-1.53.156.02-2.295c.02-2.455.037-2.716.205-3.368a6.5 6.5 0 0 1 1.578-2.89 5.81 5.81 0 0 1 3.1-1.737c.42-.087 1.364-.12 1.783-.062zM28.996 16.558c.001.033-.613.413-1.365.842l-1.34.76c-.824.308-1.293-.811-.663-1.169l1.345-.763.038-.022 1.353-.768c.681-.33 1.256.795.632 1.12zM29.014 20.698c-.023.025-.724-.145-1.559-.378l-1.482-.418c-.799-.369-.333-1.49.364-1.293l1.488.419.043.012 1.498.422c.714.25.319 1.451-.352 1.236z" fill="#0559FF"/>
</svg>
