<svg width="37" height="33" viewBox="0 0 37 33" fill="none" xmlns="http://www.w3.org/2000/svg">
<g clip-path="url(#clip0_819_45925)">
<path d="M18.3852 20.6818C19.443 20.6818 20.3483 20.3052 21.1015 19.5523C21.8545 18.7994 22.2311 17.8937 22.2311 16.8359V10.6822C22.2311 9.62445 21.8548 8.7191 21.1015 7.96584C20.3483 7.21275 19.443 6.83594 18.3852 6.83594C17.3275 6.83594 16.4221 7.21275 15.6689 7.96584C14.9156 8.71897 14.5391 9.62445 14.5391 10.6822V16.8359C14.5391 17.8936 14.9158 18.7994 15.6689 19.5523C16.422 20.3052 17.3275 20.6818 18.3852 20.6818Z" fill="#777777"/>
<path d="M25.0786 14.7558C24.9268 14.6035 24.7461 14.5273 24.5377 14.5273C24.3296 14.5273 24.1493 14.6035 23.9969 14.7558C23.8448 14.908 23.7687 15.0883 23.7687 15.2965V16.8351C23.7687 18.3175 23.2417 19.5854 22.188 20.6391C21.1346 21.6928 19.8665 22.2197 18.384 22.2197C16.9016 22.2197 15.6336 21.6928 14.5799 20.6391C13.5263 19.5857 12.9995 18.3175 12.9995 16.8351V15.2965C12.9995 15.0883 12.9233 14.908 12.7711 14.7558C12.6189 14.6035 12.4388 14.5273 12.2303 14.5273C12.0218 14.5273 11.8415 14.6035 11.6894 14.7558C11.5371 14.908 11.4609 15.0883 11.4609 15.2965V16.8351C11.4609 18.6059 12.052 20.1464 13.2338 21.4564C14.4156 22.7664 15.8759 23.5175 17.6148 23.7097V25.2964H14.5379C14.3296 25.2964 14.1493 25.3726 13.9971 25.5249C13.8448 25.6771 13.7687 25.8574 13.7687 26.0657C13.7687 26.2737 13.8448 26.4544 13.9971 26.6066C14.1493 26.7587 14.3296 26.8351 14.5379 26.8351H22.23C22.4383 26.8351 22.6188 26.7588 22.7708 26.6066C22.9232 26.4545 22.9994 26.2738 22.9994 26.0657C22.9994 25.8574 22.9232 25.6771 22.7708 25.5249C22.6188 25.3726 22.4383 25.2964 22.23 25.2964H19.1535V23.7097C20.8921 23.5175 22.3523 22.7664 23.5342 21.4564C24.7161 20.1464 25.3074 18.6059 25.3074 16.8351V15.2965C25.3074 15.0883 25.231 14.9082 25.0786 14.7558Z" fill="#777777"/>
</g>
<defs>
<clipPath id="clip0_819_45925">
<rect width="20" height="20" fill="white" transform="translate(8.38281 6.83594)"/>
</clipPath>
</defs>
</svg>
