<svg width="33" height="33" viewBox="0 0 33 33" fill="none" xmlns="http://www.w3.org/2000/svg">
<path d="M4.16406 31.5811V24.1333M11.8991 31.5811V19.5873M20.601 31.5811V16.3954M28.1748 31.5811V12.4297" stroke="#0063F5" stroke-width="1.8" stroke-linecap="round"/>
<path d="M0.162109 31.582H32.1764" stroke="#0063F5" stroke-width="1.8"/>
<path d="M27.6018 4.27095C27.7513 3.7969 27.4881 3.29143 27.0141 3.14196L19.289 0.706125C18.815 0.55665 18.3095 0.819769 18.16 1.29382C18.0106 1.76787 18.2737 2.27333 18.7477 2.42281L25.6145 4.58799L23.4493 11.4547C23.2998 11.9288 23.5629 12.4342 24.037 12.5837C24.511 12.7332 25.0165 12.4701 25.1659 11.996L27.6018 4.27095ZM6.29251 15.6606L27.159 4.79862L26.3279 3.20198L5.46139 14.064L6.29251 15.6606Z" fill="#0063F5"/>
</svg>
