<svg width="25" height="24" viewBox="0 0 25 24" fill="none" xmlns="http://www.w3.org/2000/svg">
<circle cx="12.1367" cy="12" r="12" fill="#E5EEFE"/>
<path d="M6.09375 19.0004V15.3582M9.87641 19.0004V13.1351M14.1319 19.0004V11.5741M17.8357 19.0004V9.63477" stroke="#0063F5" stroke-linecap="round"/>
<path d="M4.13672 19.001H19.7927" stroke="#0063F5"/>
<path d="M17.6148 5.15003C17.6978 4.88667 17.5517 4.60585 17.2883 4.52281L12.9966 3.16957C12.7332 3.08653 12.4524 3.23271 12.3694 3.49607C12.2863 3.75943 12.4325 4.04024 12.6959 4.12328L16.5107 5.32616L15.3078 9.14101C15.2248 9.40437 15.371 9.68519 15.6343 9.76823C15.8977 9.85127 16.1785 9.7051 16.2616 9.44173L17.6148 5.15003ZM7.16446 10.755L17.3688 5.44318L16.9071 4.55616L6.70273 9.86801L7.16446 10.755Z" fill="#0063F5"/>
</svg>
