<svg width="52" height="41" viewBox="0 0 52 41" fill="none" xmlns="http://www.w3.org/2000/svg">
<circle opacity="0.1" cx="20" cy="20" r="20" fill="#0559FF"/>
<path d="M26.8395 4.3498L15.1866 4.38533L14.8817 4.54811C14.4688 4.76859 14.0798 5.17126 13.8691 5.59623L13.6945 5.94852L13.6759 17.3493C13.6554 29.863 13.6323 29.1505 14.0794 29.7677C14.1954 29.9279 14.4334 30.1574 14.6082 30.2777C15.1931 30.6801 15.4643 30.7108 18.4305 30.7108H21.1117L21.3044 30.5451C21.4462 30.4231 21.4954 30.3168 21.4904 30.1435C21.477 29.6708 21.5609 29.6843 18.3994 29.645C15.5757 29.6099 15.5388 29.6076 15.2805 29.4469C14.9311 29.2297 14.7248 28.7936 14.7248 28.2725V27.8687H31.8488H48.9728V28.2725C48.9728 28.7936 48.7664 29.2297 48.4171 29.4469L48.1557 29.6095L35.6725 29.628L23.1893 29.6466L23.0426 29.833C22.8752 30.0458 22.864 30.1366 22.9748 30.3799C23.1127 30.6824 23.2959 30.7108 25.1096 30.7108C26.447 30.7108 27.7357 30.7287 27.8697 30.7287C27.8697 30.7189 29.6603 30.7108 31.8488 30.7108C34.033 30.7108 35.8209 30.7189 35.8278 30.7287C35.8034 30.6583 38.0168 30.7108 42.4133 30.7108C48.4893 30.7108 48.4567 30.7129 49.0779 30.2855C49.2465 30.1695 49.4849 29.9381 49.6079 29.771C50.0669 29.1476 50.0421 29.8887 50.0217 17.3493L50.0031 5.94852L49.8309 5.59872C49.6058 5.14134 49.1919 4.73442 48.7358 4.52203L48.3688 4.35122L44.5497 4.35051C40.8248 4.3498 40.727 4.35328 40.5884 4.49191C40.3573 4.72298 40.4248 5.17886 40.7108 5.31841C40.7803 5.35237 42.5217 5.39607 44.5806 5.41561L48.3241 5.45114L48.5507 5.6643C49.0004 6.08757 48.9728 5.37397 48.9728 16.5688V26.8029H31.8488H14.7248V16.5688C14.7248 5.37383 14.6971 6.08757 15.147 5.6643L15.3736 5.45114L27.0279 5.41561L38.6822 5.38008L38.8538 5.18071C38.9481 5.07107 39.0252 4.92349 39.0252 4.85279C39.0252 4.68468 38.7787 4.37446 38.6184 4.34078C38.549 4.32621 33.2485 4.33026 26.8395 4.3498Z" fill="#0559FF"/>
<path d="M27.2621 31.3883C27.2198 31.6526 27.1649 31.9859 27.1045 32.3312C27.0361 32.7226 26.9739 33.0844 26.9286 33.3522C26.906 33.4859 26.8875 33.5969 26.8746 33.6767C26.8681 33.7164 26.8628 33.7498 26.8591 33.7748C26.8572 33.7871 26.8554 33.7994 26.854 33.8103C26.8533 33.8156 26.8524 33.8229 26.8515 33.8308L26.8515 33.8311C26.8511 33.8346 26.8486 33.8574 26.8484 33.8843C26.8465 34.1254 27.006 34.2569 27.0481 34.2886C27.1038 34.3307 27.1554 34.3511 27.1741 34.3582C27.2174 34.3746 27.2547 34.3819 27.267 34.3843C27.2991 34.3905 27.331 34.3941 27.3523 34.3962C27.3996 34.4009 27.461 34.405 27.5299 34.4086C27.6701 34.416 27.8686 34.4231 28.1087 34.4295C28.5903 34.4425 29.2524 34.4535 29.9793 34.4593L32.3756 34.4784C32.3757 34.4786 32.3758 34.4788 32.3759 34.479C32.3227 34.4836 32.2491 34.4884 32.1483 34.4928C31.6664 34.5134 30.7323 34.5184 28.8492 34.5276L25.0594 34.5461L24.9429 34.5467C25.0616 34.5121 25.2539 34.4815 25.5972 34.4626L25.5973 34.4626L26.2828 34.4248L26.6811 34.4029L26.7482 34.0096L26.9857 32.6159C27.0331 32.3381 27.0811 32.0496 27.1238 31.7933C27.1401 31.6951 27.1557 31.6015 27.1701 31.5152C27.1777 31.47 27.1849 31.4268 27.1918 31.386L27.2621 31.3883ZM27.2607 30.995C27.2607 30.995 27.2605 30.9956 27.2603 30.9966L27.2607 30.995ZM24.7119 36.5018C23.9975 36.0525 24.0061 35.0663 24.7634 34.6264L24.6828 34.7201L24.5113 34.9195C24.3854 35.0659 24.2383 35.2751 24.228 35.5487C24.2175 35.8279 24.3534 36.0459 24.4732 36.1982C24.4732 36.1983 24.4733 36.1983 24.4733 36.1984L24.6204 36.3855L24.7119 36.5018ZM39.0283 36.3855L39.1755 36.1983C39.1755 36.1983 39.1755 36.1983 39.1755 36.1982C39.2953 36.0459 39.4311 35.8279 39.4207 35.5488C39.4105 35.2752 39.2635 35.0661 39.1375 34.9196C39.1375 34.9196 39.1375 34.9195 39.1375 34.9195L38.9662 34.7202L38.8866 34.6276C38.987 34.6829 39.0857 34.765 39.2112 34.9039C39.6268 35.3639 39.5256 36.128 38.9372 36.5013L39.0283 36.3855ZM38.0515 34.4626C38.3491 34.479 38.5434 34.5069 38.6856 34.5472L38.5925 34.5461L36.604 34.5243C36.604 34.5243 36.604 34.5243 36.604 34.5243C35.6609 34.514 35.1829 34.5063 34.9232 34.4866C34.9221 34.4865 34.921 34.4864 34.9199 34.4863C35.0177 34.4741 35.1844 34.4655 35.5001 34.4562C35.7308 34.4495 35.9446 34.4378 36.1045 34.4238C36.1826 34.417 36.2575 34.4089 36.3179 34.3989C36.3448 34.3944 36.3879 34.3866 36.4322 34.3728C36.4506 34.3671 36.499 34.3515 36.5525 34.3196C36.579 34.3038 36.6302 34.2703 36.6796 34.2125C36.731 34.1522 36.8016 34.039 36.8003 33.8813V33.8813C36.8001 33.8534 36.7974 33.8297 36.7971 33.827L36.797 33.8268C36.7962 33.8191 36.7953 33.812 36.7946 33.8068C36.7931 33.7961 36.7914 33.7841 36.7895 33.7719C36.7858 33.7472 36.7805 33.7141 36.7741 33.6747C36.7612 33.5953 36.7427 33.4846 36.7201 33.3512C36.6748 33.084 36.6126 32.7226 36.5442 32.3312L36.5439 32.3299L36.3613 31.3008H36.4428L36.6628 32.6144L36.663 32.6159L36.9005 34.0096L36.9676 34.4029L37.3659 34.4248L38.0514 34.4626L38.0515 34.4626ZM35.8034 33.9396C35.8042 33.9457 35.8042 33.9464 35.8038 33.9433L35.8033 33.9385L35.8034 33.9396ZM32.3794 34.5425C32.3782 34.5439 32.3777 34.5445 32.3777 34.5445C32.3777 34.5445 32.3783 34.5438 32.3794 34.5425ZM27.8454 33.9412L27.8456 33.9401C27.8448 33.9474 27.8444 33.949 27.8454 33.9412ZM38.6352 36.5764H38.7814C38.6968 36.5911 38.4719 36.612 37.8643 36.6235C36.9361 36.6411 35.1982 36.6422 31.8244 36.6422C28.4505 36.6422 26.7126 36.6411 25.7844 36.6235C25.1768 36.612 24.9519 36.5911 24.8673 36.5764H25.0135H31.8244H38.6352Z" fill="#0559FF" stroke="#0559FF"/>
<path fill-rule="evenodd" clip-rule="evenodd" d="M43.5549 8.24104L43.3677 8.38827V12.149C43.3677 15.815 43.3712 15.9132 43.5098 16.0518C43.6434 16.1855 43.7466 16.1939 45.2506 16.1939C46.7546 16.1939 46.8578 16.1855 46.9914 16.0518C47.0696 15.9736 47.1341 15.8377 47.1348 15.7498C47.1355 15.6619 47.1357 13.9752 47.1352 12.0017L47.1343 8.41349L46.9524 8.25362C46.7758 8.09851 46.7251 8.09375 45.2562 8.09375C43.832 8.09375 43.731 8.10249 43.5549 8.24104ZM46.0677 12.1438V15.1281H45.2506H44.4335V12.1438V9.15956H45.2506H46.0677V12.1438Z" fill="#1049A1"/>
<path d="M17.0376 9.38791C16.7298 9.30577 16.623 8.48865 17.2627 8.45312H23.4308C29.5634 8.45312 29.6 8.45398 29.7862 8.60042C30.0208 8.78495 30.0429 9.16523 29.8313 9.37683C29.6913 9.5168 29.5945 9.51893 23.4443 9.51893C17.4812 9.51893 17.2627 9.48341 17.0376 9.38791Z" fill="#0559FF"/>
<path d="M17.0219 12.835C16.7034 12.6645 16.7222 12.0887 17.0515 11.9296C17.1554 11.8794 18.5066 11.8526 21.0899 11.8494C25.4072 11.844 25.2197 11.8232 25.3155 12.3195C25.3508 12.5019 25.3239 12.5809 25.1768 12.728L24.9945 12.9104H21.0786C18.4543 12.9104 17.1163 12.8855 17.0219 12.835Z" fill="#0559FF"/>
<path d="M26.812 12.4557C26.812 12.2398 26.9572 11.9801 27.1129 11.9175C27.2015 11.8819 27.8051 11.8508 28.4544 11.8483C29.545 11.8442 29.6493 11.8551 29.8222 11.9912C30.0568 12.1757 30.0789 12.556 29.8673 12.7676C29.7357 12.8992 29.6305 12.9097 28.4431 12.9097C27.1764 12.9097 27.1587 12.9075 26.9864 12.7352C26.8905 12.6393 26.812 12.5135 26.812 12.4557Z" fill="#0559FF"/>
<path d="M17.101 16.44C16.7711 16.2634 16.7902 15.6993 17.1319 15.5341C17.2365 15.4835 19.2852 15.4576 23.4411 15.4544C29.5633 15.4496 29.5964 15.4504 29.7827 15.5969C30.0173 15.7814 30.0394 16.1617 29.8278 16.3733C29.6878 16.5133 29.591 16.5154 23.4638 16.5154C19.214 16.5154 17.1972 16.4916 17.101 16.44Z" fill="#0559FF"/>
<path d="M16.9378 19.3524C16.9987 19.2346 17.0891 19.122 17.1388 19.102C17.1885 19.082 17.7981 19.0631 18.4935 19.06C19.7448 19.0545 19.7598 19.0563 19.9324 19.2289C20.0283 19.3248 20.1068 19.4861 20.1068 19.5873C20.1068 19.6886 20.0283 19.8499 19.9324 19.9458C19.7604 20.1178 19.7405 20.1202 18.5067 20.1202C17.8184 20.1202 17.1978 20.0895 17.1276 20.0519C17.0574 20.0143 16.961 19.8897 16.9135 19.775C16.8423 19.603 16.8466 19.5288 16.9378 19.3524Z" fill="#0559FF"/>
<path d="M21.4116 19.5915C21.4116 19.4902 21.4901 19.329 21.5861 19.233L21.7604 19.0586H25.6848H29.6092L29.7737 19.2131C29.9844 19.4111 29.9888 19.7415 29.7836 19.96L29.6291 20.1244H25.6948H21.7604L21.5861 19.95C21.4901 19.854 21.4116 19.6928 21.4116 19.5915Z" fill="#0559FF"/>
<path d="M16.9378 22.9619C16.9987 22.8442 17.0891 22.7315 17.1388 22.7115C17.1885 22.6915 18.586 22.6726 20.2444 22.6696C23.246 22.664 23.2602 22.6647 23.424 22.8184C23.6564 23.0369 23.6459 23.39 23.4012 23.5825C23.2186 23.7261 23.1412 23.7298 20.2346 23.7298C18.4632 23.7298 17.2035 23.7021 17.1276 23.6614C17.0574 23.6238 16.961 23.4992 16.9135 23.3845C16.8423 23.2126 16.8466 23.1383 16.9378 22.9619Z" fill="#0559FF"/>
<path d="M40.9117 20.8445C41.7737 19.1495 42.2114 18.3611 42.3199 18.3076C42.5286 18.2048 42.803 18.2657 42.9583 18.4493C43.0275 18.5312 43.4199 19.2652 43.8305 20.0806L44.5768 21.5631H45.5603C46.4476 21.5631 46.562 21.5775 46.7309 21.7104C46.9655 21.8949 46.9876 22.2752 46.776 22.4868C46.6445 22.6183 46.5392 22.6289 45.3628 22.6289C44.2552 22.6289 44.0729 22.6129 43.9458 22.5045C43.8656 22.4362 43.5219 21.8414 43.1821 21.1828L42.5642 19.9856L41.942 21.1828C41.5998 21.8414 41.0207 22.9717 40.6551 23.6947C39.9338 25.121 39.7958 25.282 39.409 25.1486C39.2364 25.089 39.0573 24.7841 38.1075 22.9318C37.5017 21.7506 36.9888 20.7836 36.9677 20.7828C36.9466 20.7821 36.7708 21.1068 36.5769 21.5045C36.3831 21.9022 36.1497 22.3179 36.0583 22.4282L35.8921 22.6289H34.6291C33.4588 22.6289 33.3522 22.6181 33.1788 22.4816C32.9528 22.3038 32.9315 22.0084 33.1272 21.7663C33.256 21.607 33.3158 21.5968 34.3174 21.5631L35.3719 21.5275L35.9758 20.3561C36.644 19.0601 36.7825 18.91 37.1644 19.0681C37.3499 19.145 37.5191 19.4347 38.4612 21.2897C39.057 22.463 39.5707 23.3961 39.6027 23.3633C39.6347 23.3307 40.2237 22.1971 40.9117 20.8445Z" fill="#1049A1"/>
<path fill-rule="evenodd" clip-rule="evenodd" d="M33.1681 9.69006L32.9937 9.86443V12.8823V15.9002L33.1809 16.0474C33.3573 16.1862 33.4575 16.1947 34.9249 16.1947H36.4818L36.6584 16.0181L36.835 15.8414L36.815 12.8143L36.795 9.78719L36.6273 9.65141C36.4735 9.52699 36.3294 9.51562 34.901 9.51562H33.3425L33.1681 9.69006ZM35.7648 15.1289V12.8552V10.5814H34.9121H34.0595V12.8552V15.1289H34.9121H35.7648Z" fill="#1049A1"/>
<path fill-rule="evenodd" clip-rule="evenodd" d="M38.2035 11.2354C38.0782 11.3738 38.0665 11.5356 38.0465 13.4203C38.0231 15.6241 38.0408 15.8547 38.2498 16.0637C38.3783 16.1922 38.4978 16.2018 39.9732 16.2018C41.4704 16.2018 41.5672 16.1938 41.714 16.0569C41.8677 15.9138 41.8695 15.8854 41.8695 13.657C41.8695 11.7308 41.8534 11.3788 41.7589 11.2439C41.65 11.0884 41.623 11.0859 39.9936 11.0859C38.402 11.0859 38.3337 11.0916 38.2035 11.2354ZM40.8037 15.136V13.6439V12.1517H39.9487H39.0937L39.1013 13.6439L39.1089 15.136H39.9563H40.8037Z" fill="#1049A1"/>
</svg>
