<svg width="30" height="30" viewBox="0 0 30 30" fill="none" xmlns="http://www.w3.org/2000/svg">
<path d="M7.84686 6.42188C7.28537 6.42188 6.52115 6.71836 6.01543 7.1324C5.62829 7.44934 5.20758 8.07763 5.05279 8.56987C4.9462 8.90897 4.93262 9.06323 4.93262 9.9375C4.93262 10.7106 4.95169 10.9819 5.02109 11.1962C5.20076 11.7515 5.40707 12.0898 5.82681 12.5177C6.05565 12.751 6.23457 12.9778 6.22594 13.0237C6.21502 13.0815 6.02912 13.1534 5.6171 13.2593L5.02397 13.4116L4.34668 13.5458L6.52988 15.3857C6.54485 15.343 6.7136 15.4143 7.02106 15.593C7.27866 15.7428 7.50856 15.8822 7.53189 15.9029V16.5952L8.42161 16.3272C8.40696 16.3286 8.40254 16.1196 8.41176 15.8628L8.42853 15.3958L7.28468 14.7307C6.65554 14.3649 6.16857 14.0506 6.20256 14.0321C6.23649 14.0137 6.45004 13.9554 6.67711 13.9025L7.08993 13.8065V13.1027V12.3989L6.82642 12.2298C6.46511 11.9979 6.20346 11.6939 6.00531 11.2757C5.84189 10.9308 5.83778 10.9031 5.82037 10.0313C5.80572 9.29734 5.81877 9.09013 5.89425 8.85943C6.02971 8.44517 6.21358 8.15811 6.52189 7.87937C7.13846 7.32203 7.95632 7.16143 8.7296 7.44593C9.27191 7.64542 9.80112 8.17793 10.023 8.7473C10.1239 9.00629 10.1482 9.19038 10.1676 9.84242C10.1881 10.5288 10.177 10.6719 10.0791 10.9945C9.9288 11.4893 9.59002 11.9427 9.1722 12.2082L8.84769 12.4144L8.86106 13.1036L8.87438 13.7929L9.59253 13.9727C9.9875 14.0716 10.3195 14.1614 10.3303 14.1722C10.3411 14.183 10.2904 14.2714 10.2175 14.3685C9.92891 14.7533 9.76889 15.2306 9.73917 15.7954L9.72665 16.0337L10.6019 15.8118L10.639 15.578C10.7176 15.0826 10.9467 14.749 11.3449 14.5502C11.4803 14.4826 12.1603 14.2866 12.8561 14.1145L14.1212 13.8017V13.1003V12.3989L13.8577 12.2298C13.4964 11.9979 13.2347 11.6939 13.0366 11.2757L12.8694 10.9229V9.93473V8.94652C13.3313 7.41115 14.632 7.08281 15.6601 7.41115C16.3916 7.64478 16.9838 8.30726 17.1564 9.08523C17.1971 9.26863 17.2143 9.66706 17.2024 10.1506C17.1849 10.8617 17.1717 10.948 17.0358 11.2388C16.8373 11.6637 16.5743 11.9728 16.1892 12.2344L15.8689 12.4519L15.9069 13.1256C15.9277 13.4962 15.948 13.8018 15.9519 13.8048C15.9557 13.8078 16.5222 13.9492 17.2107 14.119C18.544 14.4479 18.8705 14.5731 19.0967 14.8419C19.3852 15.1847 19.4126 15.3166 19.4171 16.3828L19.4213 17.3683L20.328 16.8622C20.3127 16.8622 20.2999 16.5446 20.2995 16.1564C20.2987 15.2453 20.1961 14.8497 19.8357 14.3685C19.763 14.2714 19.7123 14.183 19.7231 14.1722C19.7339 14.1614 20.0659 14.0716 20.4609 13.9727L21.1791 13.7929L21.1916 13.1036L21.2042 12.4144L20.8724 12.1988C20.4916 11.9515 20.1908 11.5844 20.0232 11.1626C19.9276 10.922 19.903 10.7318 19.8851 10.0973C19.8526 8.94529 19.9969 8.46722 20.5357 7.94244C21.1399 7.35384 21.916 7.16852 22.7238 7.41994C23.2234 7.57543 23.701 7.98777 23.9622 8.48912C24.2162 8.97651 24.2536 9.19943 24.2335 10.1034C24.2159 10.8935 24.2093 10.9356 24.0481 11.2757C23.85 11.6939 23.5883 11.9979 23.227 12.2298L22.9635 12.3989V13.101V13.8031L24.0289 14.0657C24.8327 14.2638 25.0778 14.3429 25.0276 14.388L26.062 13.7164C25.9838 13.6781 25.4526 13.5254 24.8816 13.3769C24.1517 13.1871 23.839 13.0831 23.8288 13.027C23.8207 12.983 24.0003 12.7548 24.2278 12.5199C24.9082 11.8171 25.093 11.3379 25.131 10.1772C25.1626 9.20977 25.087 8.77521 24.7783 8.15305C24.5155 7.62315 24.1853 7.24368 23.7212 6.93814C21.6318 5.786 19.4171 6.93814 19.1461 8.54483C19.0039 8.97843 18.9952 9.05822 18.9966 9.91087C18.9988 11.2678 19.1866 11.8055 19.9137 12.5368C20.1262 12.7506 20.3002 12.967 20.3002 13.0175C20.3002 13.092 20.1338 13.1507 19.4213 13.3276L18.5424 13.5458L17.6634 13.3276C16.9316 13.1459 16.7845 13.0934 16.7845 13.0131C16.7845 12.9601 16.9344 12.7766 17.1175 12.6053C17.5001 12.2472 17.8042 11.7669 17.9635 11.2692C18.1185 10.7847 18.1613 9.54327 18.0425 8.97869C17.7854 7.75712 16.8487 6.77056 15.6865 6.49725C15.2088 6.38491 14.4873 6.4215 14.0294 6.5813C13.1296 6.89537 12.39 7.65128 12.0917 8.56172C11.976 8.9152 11.9639 9.04267 11.9639 9.91087C11.9639 10.7535 11.9782 10.9148 12.082 11.2425C12.247 11.7634 12.5457 12.24 12.936 12.6053C13.1191 12.7766 13.2689 12.9601 13.2689 13.0131C13.2689 13.0934 13.1219 13.1459 12.39 13.3276L11.5111 13.5458L10.6322 13.3276C9.94414 13.1568 9.75329 13.0906 9.75329 13.0226C9.75329 12.9747 9.92704 12.7585 10.1395 12.5419C10.8537 11.8136 11.0527 11.2597 11.0561 9.99077C11.0561 9.33824 10.9355 8.78187 10.728 8.31618C10.1742 7.07358 9.00111 6.4767 7.84686 6.42188Z" fill="#FF8800"/>
<path fill-rule="evenodd" clip-rule="evenodd" d="M13.1819 2.11009C13.0976 2.52083 13.0025 2.88869 12.9703 2.92757C12.9383 2.96646 12.7442 3.05302 12.5391 3.11992C12.3341 3.18683 11.9841 3.33272 11.7615 3.44416L11.3568 3.64679L10.6696 3.19945L9.98232 2.75206L8.81572 3.91685L7.64917 5.08169L7.87033 5.60616C7.992 5.89466 8.0915 6.14869 8.09145 6.17063L8.54431 7.04624L10.5161 8.27044C10.6598 8.03983 10.7185 7.94219 10.8802 7.67591C11.9301 5.94638 13.9372 5.04872 15.9216 5.42117C17.2147 5.66385 18.3785 6.46744 19.1365 7.64107L19.2864 7.8731L19.5173 8.39453L21.2174 7.19602L21.9014 6.19631L22.1432 5.63999L22.385 5.08372L21.2174 3.91786L20.0498 2.75206L19.3625 3.19945L18.6753 3.64679L18.2706 3.44416C18.048 3.33272 17.6981 3.18683 17.493 3.11992C17.2879 3.05302 17.0938 2.96646 17.0618 2.92757C17.0297 2.88869 16.9345 2.52083 16.8502 2.11009L16.697 1.36328H15.0161H13.3351L13.1819 2.11009ZM16.1637 3.12754C16.1146 2.87495 16.0511 2.57846 16.0226 2.46857L15.9708 2.26882H15.0161H14.0614L14.0095 2.46857C13.981 2.57846 13.9175 2.87495 13.8684 3.12754C13.8193 3.38008 13.7637 3.60886 13.7451 3.63592C13.7263 3.66293 13.4713 3.75471 13.1783 3.83983C12.8854 3.92495 12.3486 4.14462 11.9855 4.32802C11.2335 4.70781 11.3608 4.71697 10.6369 4.23139C10.3817 4.06019 10.1416 3.9201 10.1034 3.9201C10.0039 3.9201 8.73054 5.21001 8.73054 5.3109C8.73054 5.35719 8.83346 5.63114 8.95927 5.91969C9.17527 6.41508 9.20467 6.45492 9.48656 6.63374C9.65073 6.73793 9.87382 6.89379 9.98227 6.98008C10.1602 7.12156 10.1845 7.12806 10.2303 7.04624C10.369 6.79828 10.9649 6.1212 11.2792 5.85433C12.3209 4.96989 13.4085 4.53933 14.7802 4.46838C16.2295 4.39343 17.5972 4.87411 18.7731 5.8717C19.086 6.13713 19.6593 6.79157 19.8014 7.04533C19.8442 7.12188 19.8842 7.10552 20.11 6.9193C20.2526 6.80163 20.4752 6.64796 20.6046 6.57781C20.8205 6.46078 20.8587 6.40655 21.0688 5.91761C21.1947 5.62465 21.2986 5.34862 21.2997 5.30424C21.3019 5.20794 20.0249 3.9201 19.9271 3.9201C19.8898 3.9201 19.6505 4.06019 19.3952 4.23139C18.6713 4.71697 18.7986 4.70781 18.0466 4.32802C17.6835 4.14462 17.1467 3.92495 16.8538 3.83983C16.5608 3.75471 16.3058 3.66293 16.2871 3.63592C16.2684 3.60886 16.2129 3.38008 16.1637 3.12754Z" fill="#FF8800"/>
<path fill-rule="evenodd" clip-rule="evenodd" d="M2.78882 11.9062H2.07632H1.36377L1.36505 16.4739L1.36633 21.0415L3.52007 21.7495C5.66237 22.4538 5.67616 22.4574 6.11327 22.442C6.5327 22.4272 6.55422 22.4204 6.5841 22.2933C6.60131 22.2201 6.63891 22.1602 6.66773 22.1602C6.69649 22.1602 6.99591 22.3243 7.33309 22.525L7.94619 22.8898L8.01118 23.1642C8.13295 23.6782 8.60084 24.1311 9.07593 24.1949C9.27691 24.2218 9.28969 24.2346 9.31665 24.4356C9.38067 24.9127 9.83334 25.3786 10.3526 25.5016C10.6001 25.5602 10.6322 25.5835 10.6322 25.7045C10.6322 25.7798 10.6954 25.968 10.7725 26.1227C10.9397 26.4584 11.2884 26.7344 11.6579 26.8238C11.8666 26.8742 11.9167 26.91 11.942 27.0262C12.0403 27.4795 12.2798 27.8097 12.6605 28.017C13.0302 28.2183 13.5195 28.2353 13.8605 28.0586L14.0792 27.9453L14.2515 28.123C14.6718 28.5567 15.3134 28.7312 15.842 28.5557C16.2879 28.4075 16.6647 27.9607 16.7412 27.4893C16.7677 27.3261 16.79 27.3077 16.9983 27.2765C17.4842 27.2036 17.9325 26.7458 18.0479 26.2047C18.0921 25.9976 18.1156 25.9686 18.2404 25.9676C18.7291 25.9636 19.3629 25.3279 19.3669 24.8378C19.3678 24.7227 19.3986 24.6859 19.5145 24.661C20.2225 24.5096 20.6955 24.0159 20.6985 23.4252L20.6997 23.1988L24.6681 21.2148L28.6365 19.2308V16.0213V12.8118H28.126H27.6155L26.8965 13.1913C26.2256 13.5453 26.168 13.5661 26.0354 13.5012L25.001 14.1728C24.9316 14.235 20.3502 16.647 20.3014 16.647L19.3947 17.1531L19.1942 17.1696C19.0641 17.1804 18.5231 17.052 17.6551 16.8044C16.9189 16.5944 16.1342 16.3905 15.9114 16.3513C15.6885 16.3121 15.0987 16.149 14.6006 15.9889C12.7706 15.4008 12.3278 15.3505 10.8302 15.5608L10.5753 15.5966L9.70006 15.8185L9.06086 15.964C8.7093 16.0439 8.40967 16.1106 8.39502 16.112C8.38037 16.1134 8.37595 15.9044 8.38517 15.6476L8.40194 15.1806L2.78882 11.9062ZM5.71398 14.6407C5.70802 14.6347 5.00303 14.2208 4.1474 13.7208C3.06331 13.0874 2.54278 12.8118 2.4305 12.8118H2.26931V16.608V20.4043L3.18497 20.7084C3.68861 20.8756 4.11064 21.0025 4.12284 20.9902C4.14921 20.9639 5.7298 14.6565 5.71398 14.6407ZM27.731 18.6982V16.2344C27.731 14.8793 27.713 13.7725 27.691 13.7748C27.669 13.7771 25.8173 14.7474 23.5761 15.9309C19.6397 18.0097 19.4912 18.0829 19.2059 18.0841C18.9938 18.0849 18.5219 17.9726 17.5317 17.6856C15.7905 17.181 15.5921 17.1447 15.1692 17.253C14.9924 17.2983 14.2213 17.6488 13.4555 18.0319C12.1533 18.6834 12.0582 18.7407 11.9835 18.9196C11.823 19.3037 12.0347 19.7318 12.4257 19.8141C12.6274 19.8565 12.722 19.8118 13.779 19.1748C14.7528 18.5879 14.8778 18.538 15.3741 18.538C16.0542 18.538 16.1784 18.6238 18.409 20.6344L20.353 22.3866L24.042 20.5424L27.731 18.6982ZM5.86862 21.5862C5.92721 21.5153 7.53657 15.7153 7.5053 15.6877C7.48197 15.667 7.25207 15.5276 6.99447 15.3778C6.68701 15.1991 6.51826 15.1278 6.50329 15.1705C6.46452 15.2809 4.98593 21.2239 4.98593 21.2692C4.98593 21.3073 5.84433 21.6154 5.86862 21.5862ZM13.9866 16.7487C13.9888 16.7011 13.1006 16.4392 12.7363 16.38C12.4219 16.3289 11.6389 16.3201 11.378 16.3647C11.0714 16.4171 8.10546 17.0786 8.0849 17.0991C8.03557 17.1485 6.90274 21.1836 6.92714 21.223C6.94152 21.2464 7.23928 21.4364 7.58872 21.6454L8.22414 22.0253L8.66865 21.5699C9.19738 21.0282 9.48257 20.8287 9.83691 20.7528C10.539 20.6022 11.2543 21.0627 11.4354 21.7818C11.4712 21.9239 11.5323 22.0332 11.5836 22.047C11.6316 22.0598 11.7406 22.086 11.8256 22.105C12.2275 22.195 12.6194 22.6155 12.7385 23.0846C12.7953 23.3083 12.8143 23.3266 13.0718 23.4068C13.4828 23.5348 13.789 23.7784 13.9532 24.108C14.031 24.264 14.0946 24.4588 14.0946 24.541C14.0946 24.6634 14.1178 24.6903 14.2233 24.6903C14.4324 24.6903 14.8132 24.8799 15.0203 25.087C15.1264 25.193 15.2132 25.3004 15.2132 25.3256C15.2132 25.3699 15.8914 25.956 16.287 26.2536C16.7655 26.6134 17.347 26.2956 17.15 25.7821C17.1312 25.7332 16.6099 25.2722 15.9914 24.7578C15.3729 24.2434 14.8336 23.7918 14.7929 23.7543C14.7305 23.6969 14.7601 23.6353 14.9793 23.3656C15.1226 23.1893 15.2558 23.0438 15.2753 23.0421C15.2948 23.0404 15.8221 23.4655 16.4471 23.9866C17.0722 24.5078 17.6429 24.9752 17.7153 25.0253C17.9218 25.1683 18.1783 25.1426 18.3601 24.9608C18.5252 24.7957 18.5533 24.6292 18.4473 24.4444C18.4117 24.3822 17.9032 23.9306 17.3173 23.4407C16.7313 22.9509 16.2065 22.5061 16.151 22.4524C16.0523 22.357 16.0558 22.3479 16.3108 22.0342C16.4542 21.8578 16.5835 21.7127 16.5981 21.7116C16.6128 21.7107 17.1856 22.1768 17.8711 22.7474C19.0085 23.6941 19.135 23.7848 19.3196 23.7848C19.7052 23.7848 19.936 23.4289 19.7558 23.1124C19.6438 22.916 16.0081 19.6324 15.7609 19.5046C15.5602 19.4008 15.2242 19.3908 15.016 19.4825C14.934 19.5185 14.5314 19.7497 14.1212 19.9961C13.1091 20.6041 12.9062 20.6941 12.546 20.6948C12.1035 20.6956 11.7673 20.5594 11.4778 20.2624C11.1794 19.956 11.0582 19.6353 11.0589 19.1544C11.0595 18.7194 11.2187 18.3503 11.5198 18.0852C11.6363 17.9827 12.2386 17.6471 12.8583 17.3395C13.478 17.0319 13.9857 16.766 13.9866 16.7487ZM10.579 22.0869C10.579 21.9175 10.5471 21.8498 10.4151 21.7388C10.1239 21.4937 9.98882 21.5395 9.4488 22.0669C9.18636 22.3233 8.94623 22.58 8.91523 22.6373C8.77929 22.8887 8.90745 23.2057 9.18838 23.3131C9.41689 23.4005 9.63998 23.2711 10.1209 22.7722C10.5385 22.339 10.579 22.2785 10.579 22.0869ZM11.8917 23.5318C11.9351 23.3613 11.8749 23.1661 11.7401 23.0406C11.6655 22.971 11.5515 22.9325 11.4199 22.9325C11.237 22.9325 11.1691 22.9773 10.7689 23.3614C10.2906 23.8207 10.1297 24.0737 10.1824 24.2838C10.2351 24.4934 10.4383 24.6477 10.6616 24.6477C10.8398 24.6477 10.9085 24.5987 11.3602 24.1497C11.6357 23.8757 11.8749 23.5977 11.8917 23.5318ZM13.1707 24.9395C13.2674 24.7539 13.225 24.5281 13.0664 24.3848C12.778 24.124 12.569 24.205 11.9756 24.8074C11.4486 25.3424 11.3839 25.5214 11.6171 25.7986C11.7346 25.9382 11.7989 25.9688 11.9752 25.9688C12.1723 25.9688 12.2272 25.9325 12.6412 25.5293C12.8893 25.2876 13.1276 25.0222 13.1707 24.9395ZM14.1609 26.6732C14.603 26.2064 14.6633 25.9605 14.3964 25.7114C14.0986 25.4335 13.8475 25.5312 13.2441 26.1597C12.8708 26.5486 12.8162 26.63 12.8162 26.7972C12.8162 26.9382 12.8575 27.0303 12.9719 27.1447C13.2619 27.4348 13.5464 27.3219 14.1609 26.6732ZM15.8524 27.2898C15.8524 27.1361 15.8091 27.0576 15.6266 26.8804C15.4118 26.672 15.2665 26.6033 15.2665 26.7102C15.2665 26.7371 15.1435 26.8938 14.9931 27.0583C14.8427 27.2228 14.7289 27.3665 14.7401 27.3776C14.7513 27.3886 14.8536 27.4717 14.9675 27.5621C15.3682 27.8803 15.8524 27.7313 15.8524 27.2898Z" fill="#0559FF"/>
</svg>
