<svg width="173" height="115" viewBox="0 0 173 115" fill="none" xmlns="http://www.w3.org/2000/svg">
<ellipse cx="146.191" cy="108.584" rx="4.01837" ry="26.0546" transform="rotate(90.2497 146.191 108.584)" fill="url(#paint0_diamond_3951_20854)"/>
<ellipse cx="59.4665" cy="108.608" rx="20.7717" ry="3.91694" fill="url(#paint1_diamond_3951_20854)"/>
<ellipse cx="96.1586" cy="102.364" rx="3.70058" ry="33.2348" transform="rotate(90.2497 96.1586 102.364)" fill="url(#paint2_diamond_3951_20854)"/>
<ellipse cx="119.186" cy="106.092" rx="3.70058" ry="16.8557" transform="rotate(90.2497 119.186 106.092)" fill="url(#paint3_diamond_3951_20854)"/>
<ellipse cx="161.303" cy="113.166" rx="1.7957" ry="8.17917" transform="rotate(90.2497 161.303 113.166)" fill="url(#paint4_diamond_3951_20854)"/>
<g filter="url(#filter0_d_3951_20854)">
<path fill-rule="evenodd" clip-rule="evenodd" d="M70.6198 0.1609C66.8156 0.939778 63.1474 3.85754 61.6706 7.27905C60.4993 9.99361 60.538 8.5225 60.5342 50.5133C60.5319 76.1325 60.6147 90.2736 60.7716 91.1071C61.6599 95.8195 66.0253 100.187 70.7114 101.052C72.4453 101.372 103.012 101.367 104.712 101.047C108.115 100.405 111.703 97.7433 113.325 94.6567C114.983 91.5018 114.886 94.2404 114.889 50.6966C114.892 25.6514 114.807 10.9175 114.657 10.1028C114.326 8.30624 112.75 5.23061 111.486 3.91238C110.085 2.45267 108.606 0.830866 104.804 0.0407806L88.1866 0.00351035C79.0471 -0.0169052 71.142 0.0538371 70.6198 0.1609ZM105.177 3.23273C107.98 4.1049 110.861 6.40954 111.926 10.2486L111.988 50.1171C112.057 93.6986 112.13 91.1802 110.727 93.5695C109.466 95.7167 106.866 97.6241 104.438 98.1837C103.772 98.3373 97.5251 98.4296 87.577 98.4334C70.3923 98.4396 70.5172 98.4484 68.1967 97.091C66.6886 96.2088 64.6905 93.9159 64.0524 92.3346L63.498 90.9613L63.4344 51.0797C63.3722 11.9537 63.3798 11.1689 63.8397 9.65201C64.5722 7.23585 66.4495 4.95998 68.6565 3.81244C70.5324 2.83748 71.1793 2.80258 87.7501 2.78644C102.903 2.77148 103.767 2.79356 105.177 3.23273Z" fill="url(#paint5_linear_3951_20854)"/>
<path d="M105.177 3.23273C107.98 4.1049 110.861 6.40954 111.926 10.2486L111.988 50.1171C112.057 93.6986 112.13 91.1802 110.727 93.5695C109.466 95.7167 106.866 97.6241 104.438 98.1837C103.772 98.3373 97.5251 98.4296 87.577 98.4334C70.3923 98.4396 70.5172 98.4484 68.1967 97.091C66.6886 96.2088 64.6905 93.9159 64.0524 92.3346L63.498 90.9613L63.4344 51.0797C63.3722 11.9537 63.3798 11.1689 63.8397 9.65201C64.5722 7.23585 66.4495 4.95998 68.6565 3.81244C70.5324 2.83748 71.1793 2.80258 87.7501 2.78644C102.903 2.77148 103.767 2.79356 105.177 3.23273Z" fill="url(#paint6_linear_3951_20854)"/>
</g>
<circle cx="72.2853" cy="13.4113" r="4.39172" fill="url(#paint7_linear_3951_20854)"/>
<path d="M81.543 10.3281C80.8219 10.3281 80.2373 10.9127 80.2373 11.6338C80.2373 12.3549 80.8219 12.9394 81.543 12.9394H96.2612C96.9822 12.9394 97.5668 12.3549 97.5668 11.6338C97.5668 10.9127 96.9822 10.3281 96.2612 10.3281H81.543Z" fill="url(#paint8_linear_3951_20854)"/>
<path d="M81.543 14.4805C80.8219 14.4805 80.2373 15.065 80.2373 15.7861C80.2373 16.5072 80.8219 17.0918 81.543 17.0918H90.089C90.8101 17.0918 91.3947 16.5072 91.3947 15.7861C91.3947 15.065 90.8101 14.4805 90.089 14.4805H81.543Z" fill="url(#paint9_linear_3951_20854)"/>
<path d="M68.0122 30.8594C67.9467 30.8594 67.8936 30.8062 67.8936 30.7407C67.8936 30.6751 67.9467 30.622 68.0122 30.622H107.182C107.247 30.622 107.3 30.6751 107.3 30.7407C107.3 30.8062 107.247 30.8594 107.182 30.8594H68.0122Z" fill="url(#paint10_linear_3951_20854)"/>
<path d="M68.0122 37.0312C67.9467 37.0312 67.8936 36.9781 67.8936 36.9126C67.8936 36.847 67.9467 36.7939 68.0122 36.7939H107.182C107.247 36.7939 107.3 36.847 107.3 36.9126C107.3 36.9781 107.247 37.0312 107.182 37.0312H68.0122Z" fill="url(#paint11_linear_3951_20854)"/>
<path d="M68.0122 43.4414C67.9467 43.4414 67.8936 43.3883 67.8936 43.3227C67.8936 43.2572 67.9467 43.204 68.0122 43.204H107.182C107.247 43.204 107.3 43.2572 107.3 43.3227C107.3 43.3883 107.247 43.4414 107.182 43.4414H68.0122Z" fill="url(#paint12_linear_3951_20854)"/>
<path d="M68.0122 49.8516C67.9467 49.8516 67.8936 49.7984 67.8936 49.7329C67.8936 49.6673 67.9467 49.6142 68.0122 49.6142H107.182C107.247 49.6142 107.3 49.6673 107.3 49.7329C107.3 49.7984 107.247 49.8516 107.182 49.8516H68.0122Z" fill="url(#paint13_linear_3951_20854)"/>
<path d="M68.0122 56.2617C67.9467 56.2617 67.8936 56.2086 67.8936 56.143C67.8936 56.0775 67.9467 56.0243 68.0122 56.0243H107.182C107.247 56.0243 107.3 56.0775 107.3 56.143C107.3 56.2086 107.247 56.2617 107.182 56.2617H68.0122Z" fill="url(#paint14_linear_3951_20854)"/>
<path d="M68.0122 62.6719C67.9467 62.6719 67.8936 62.6187 67.8936 62.5532C67.8936 62.4876 67.9467 62.4345 68.0122 62.4345H107.182C107.247 62.4345 107.3 62.4876 107.3 62.5532C107.3 62.6187 107.247 62.6719 107.182 62.6719H68.0122Z" fill="url(#paint15_linear_3951_20854)"/>
<path d="M68.0122 69.0781C67.9467 69.0781 67.8936 69.025 67.8936 68.9594C67.8936 68.8939 67.9467 68.8407 68.0122 68.8407H107.182C107.247 68.8407 107.3 68.8939 107.3 68.9594C107.3 69.025 107.247 69.0781 107.182 69.0781H68.0122Z" fill="url(#paint16_linear_3951_20854)"/>
<path d="M143.791 38.5364C141.803 41.1559 137.516 43.7783 134.823 44.022C134.001 44.0964 133.043 44.034 132.56 43.8751C131.416 43.4982 129.678 41.59 128.025 38.8965C127.268 37.6627 126.422 36.4041 126.144 36.0994C124.866 34.6956 123.066 34.4852 121.573 35.5651C120.271 36.5061 119.882 37.0518 118.192 40.3058C116.125 44.2846 114.668 45.6308 113.08 45.0282C112.774 44.9122 111.431 43.1187 109.803 40.6525C105.872 34.6996 103.875 32.7557 101.696 32.7578C99.8137 32.7597 98.9284 33.7886 97.7356 37.3616C96.2841 41.7092 94.0863 44.8001 92.4463 44.8001C90.9893 44.8001 88.6696 42.5924 86.8326 39.4571L85.9506 37.952C84.239 36.4476 82.5983 37.952 84.2387 41.0353L84.9877 42.2682C86.9885 45.5616 90.0396 47.8699 92.3919 47.8699C95.4606 47.8699 98.1799 44.9984 100.107 39.723C101.334 36.3642 101.582 35.8267 101.91 35.8267C102.536 35.8267 104.813 38.6436 107.659 42.9367C110.995 47.9703 111.155 48.106 113.729 48.106C116.663 48.106 118.438 46.5534 120.807 41.9151C122.187 39.2123 123.076 37.952 123.602 37.952C123.73 37.952 124.608 39.2004 125.555 40.7266C128.457 45.4048 130.361 46.9182 133.586 47.1107C137.138 47.3225 141.064 45.525 144.744 42.0011C147.643 38.5364 145.376 36.4476 143.791 38.5364Z" fill="url(#paint17_linear_3951_20854)"/>
<path fill-rule="evenodd" clip-rule="evenodd" d="M72.5895 83.3265C71.9436 81.1371 73.303 78.7603 75.607 78.2227H99.3463C101.987 79.1412 102.934 81.0872 102.738 82.8518C101.652 85.0358 99.5504 85.74 98.6353 85.8191C91.3949 85.8587 76.7057 85.8191 75.8458 85.8191C74.4215 85.8191 73.3189 84.1179 72.5895 83.3265Z" fill="#BB9AFF"/>
<path d="M75.607 86.4126H98.8715C101.016 86.4126 102.529 84.7355 102.738 82.8518C101.652 85.0358 99.5504 85.74 98.6353 85.8191C91.3949 85.8587 76.7057 85.8191 75.8458 85.8191C74.4215 85.8191 73.3189 84.1179 72.5895 83.3265C72.9417 84.5205 73.9467 86.2939 75.607 86.4126Z" fill="#A58CDA"/>
<path fill-rule="evenodd" clip-rule="evenodd" d="M44.9666 66.0518C40.8816 67.9429 36.8011 71.3419 33.7735 75.376C27.0578 84.3247 25.6072 96.492 30.3937 103.73C34.0589 109.273 40.8672 111.541 47.7819 109.521C58.9641 106.255 67.9938 94.1808 68.5186 81.7941C68.5769 80.4213 68.3836 78.9682 67.796 76.361C66.8849 72.3184 66.0982 70.7738 63.652 68.2254C62.0773 66.5849 58.712 64.807 56.3516 64.3686C53.0784 63.7606 48.4325 64.4474 44.9666 66.0518Z" fill="url(#paint18_linear_3951_20854)"/>
<path fill-rule="evenodd" clip-rule="evenodd" d="M46.6004 63.5997C42.8282 64.6169 38.7774 67.2061 35.4886 70.7022C28.1933 78.4576 24.7006 90.7934 27.3498 99.4491C29.3783 106.078 34.6503 110.027 40.8141 109.536C50.7822 108.741 60.599 98.2695 63.3582 85.4893C63.664 84.073 63.7745 82.5143 63.7712 79.6615C63.766 75.238 63.3971 73.4457 61.8276 70.2208C60.8173 68.1447 58.3345 65.5082 56.4417 64.5011C53.8168 63.1045 49.8009 62.7366 46.6004 63.5997Z" fill="#FDF6F9"/>
<path fill-rule="evenodd" clip-rule="evenodd" d="M46.6653 67.3099C43.5927 68.1367 40.293 70.241 37.6141 73.0826C31.6717 79.3859 28.8267 89.4121 30.9846 96.4472C32.6369 101.835 36.9313 105.045 41.9521 104.645C50.0717 103.999 58.0681 95.4885 60.3156 85.1011C60.5647 83.9499 60.6547 82.6831 60.652 80.3645C60.6478 76.7692 60.3473 75.3124 59.0689 72.6913C58.2459 71.004 56.2235 68.861 54.6817 68.0425C52.5436 66.9074 49.2724 66.6084 46.6653 67.3099Z" fill="url(#paint19_radial_3951_20854)"/>
<path fill-rule="evenodd" clip-rule="evenodd" d="M46.4212 71.5037C43.9727 72.1641 41.3432 73.8449 39.2085 76.1146C34.4731 81.1493 32.206 89.1577 33.9256 94.7769C35.2423 99.0802 38.6643 101.644 42.6653 101.325C49.1356 100.809 55.5077 94.0111 57.2987 85.7143C57.4973 84.7948 57.5689 83.7829 57.5668 81.9309C57.5634 79.0592 57.324 77.8957 56.3052 75.802C55.6494 74.4543 54.0378 72.7426 52.8092 72.0888C51.1054 71.1822 48.4986 70.9434 46.4212 71.5037Z" fill="#FDF6F9"/>
<path fill-rule="evenodd" clip-rule="evenodd" d="M46.1765 74.7483C44.3521 75.2423 42.3929 76.4996 40.8023 78.1974C37.274 81.9635 35.5848 87.954 36.8661 92.1574C37.8471 95.3763 40.3969 97.2942 43.378 97.0556C48.199 96.6695 52.9469 91.5845 54.2813 85.3782C54.4293 84.6904 54.4827 83.9335 54.4811 82.5482C54.4786 80.4001 54.3002 79.5297 53.5411 77.9636C53.0525 76.9554 51.8517 75.675 50.9362 75.186C49.6667 74.5078 47.7244 74.3291 46.1765 74.7483Z" fill="url(#paint20_radial_3951_20854)"/>
<path fill-rule="evenodd" clip-rule="evenodd" d="M45.9832 79.8817C44.951 80.1625 43.8425 80.8772 42.9426 81.8423C40.9463 83.983 39.9906 87.3881 40.7155 89.7774C41.2706 91.6071 42.7132 92.6973 44.3999 92.5616C47.1276 92.3422 49.8138 89.4518 50.5689 85.924C50.6526 85.533 50.6828 85.1028 50.6819 84.3153C50.6805 83.0943 50.5795 82.5996 50.1501 81.7093C49.8736 81.1363 49.1942 80.4085 48.6762 80.1305C47.958 79.745 46.859 79.6435 45.9832 79.8817Z" fill="#FDF6F9"/>
<g filter="url(#filter1_d_3951_20854)">
<path d="M19.2286 76.5376L21.3651 74.8758L4.74781 67.2793L0 71.315L16.0239 78.6741L19.2286 76.5376Z" fill="#F792B3"/>
<path d="M4.74781 67.2793L2.72999 63.125L0 71.315L4.74781 67.2793Z" fill="#F8BDCF"/>
<path d="M21.3651 74.8758L20.7717 73.4515L19.466 70.6028L2.72999 63.125L4.74781 67.2793L21.3651 74.8758Z" fill="#F6B2C9"/>
<path d="M45.3416 84.4901L20.7717 73.4515L21.3651 74.8758L19.2286 76.5376L43.9172 87.1014C45.579 87.6949 46.8846 85.5584 45.3416 84.4901Z" fill="#F9BDC8"/>
</g>
<path d="M125.934 68.7238H114.776C103.146 75.7268 98.5149 100.7 108.011 104.214C112.76 105.971 130.351 105.923 132.82 104.214C137.805 100.762 142.315 82.8485 125.934 68.7238Z" fill="url(#paint21_radial_3951_20854)"/>
<path d="M125.934 66.8246L114.776 66.5872C113.59 66.9433 113.59 68.4864 114.776 68.7238H125.934C126.646 68.7238 127.002 66.8246 125.934 66.8246Z" fill="#7867D9"/>
<path d="M113.59 60.1777C112.07 59.418 112.244 60.7316 112.521 61.4833C114.706 64.237 114.935 66.0333 114.776 66.5872L125.934 66.8246C125.554 66.3499 129.02 58.7534 127.951 59.4656C127.666 60.0354 124.39 61.246 122.966 60.8899C122.586 60.7949 121.067 59.6436 120.236 59.2282C119.841 59.0304 118.788 58.8009 117.744 59.4656C115.014 60.8899 115.489 61.1272 113.59 60.1777Z" fill="url(#paint22_radial_3951_20854)"/>
<g filter="url(#filter2_d_3951_20854)">
<path fill-rule="evenodd" clip-rule="evenodd" d="M117.1 86.7077C119.798 86.6946 119.825 86.7096 119.035 87.7672C118.473 88.5195 117.873 88.7234 116.195 88.7315L114.956 88.7375L114.962 89.553L114.969 90.3685L117.269 93.5808L119.569 96.7931L120.848 96.7869C121.552 96.7835 122.125 96.7283 122.121 96.6642C122.117 96.6001 121.185 95.259 120.05 93.6839C118.751 91.8819 118.039 90.7775 118.129 90.7051C118.208 90.642 118.401 90.5887 118.559 90.5865C118.717 90.5845 119.183 90.4319 119.595 90.2474C120.591 89.8014 121.328 88.8807 121.657 87.673L121.905 86.7621L122.569 86.7123L123.232 86.6624L123.43 85.8299C123.539 85.3718 123.627 84.9556 123.627 84.9046C123.627 84.8537 123.229 84.8139 122.743 84.8163L121.858 84.8206L121.627 84.0061C121.5 83.5581 121.366 83.1044 121.328 82.9978C121.278 82.853 121.504 82.8028 122.224 82.7993L123.187 82.7947L123.342 82.1337C123.428 81.7701 123.526 81.3493 123.562 81.1984C123.623 80.9398 123.385 80.9278 119.384 80.9856L115.142 81.0471L114.985 81.6978C114.898 82.0559 114.792 82.5229 114.748 82.7359L114.669 83.1231L116.476 83.1648C118.474 83.2111 118.757 83.3314 119.259 84.3446L119.5 84.832L117.299 84.8426L115.099 84.8532L114.907 85.7862L114.715 86.7192L117.1 86.7077Z" fill="white"/>
</g>
<path d="M156.108 101.541C152.117 101.796 146.004 101.61 142.362 101.102C142.973 99.2286 158.552 99.3326 156.108 101.541Z" fill="url(#paint23_linear_3951_20854)"/>
<path d="M142.362 101.102C137.932 98.269 164.433 98.9563 156.108 101.541C158.552 99.3326 142.973 99.2286 142.362 101.102Z" fill="url(#paint24_linear_3951_20854)"/>
<path d="M160.001 100.713C160.003 98.4981 138.389 98.5744 139.381 100.254C139.638 100.592 140.761 100.878 142.362 101.102C137.932 98.269 164.433 98.9563 156.108 101.541C158.287 101.403 159.834 101.133 160.001 100.713Z" fill="url(#paint25_linear_3951_20854)"/>
<path d="M142.362 101.102C140.761 100.878 139.638 100.592 139.381 100.254V103.462C141.751 104.913 157.861 105.549 160.001 103.768V100.713C159.834 101.133 158.287 101.403 156.108 101.541C152.117 101.796 146.004 101.61 142.362 101.102Z" fill="url(#paint26_linear_3951_20854)"/>
<path d="M139.381 103.462C141.751 104.913 157.861 105.549 160.001 103.768C158.289 105.967 141.063 105.219 139.381 103.462Z" fill="url(#paint27_linear_3951_20854)"/>
<path d="M156.108 98.0296C152.117 98.2838 146.004 98.0982 142.362 97.5898C142.973 95.7168 158.552 95.8209 156.108 98.0296Z" fill="url(#paint28_linear_3951_20854)"/>
<path d="M142.362 97.5898C137.932 94.7572 164.433 95.4446 156.108 98.0296C158.552 95.8209 142.973 95.7168 142.362 97.5898Z" fill="url(#paint29_linear_3951_20854)"/>
<path d="M160.001 97.2009C160.003 94.9863 138.389 95.0627 139.381 96.7427C139.638 97.0808 140.761 97.3664 142.362 97.5898C137.932 94.7572 164.433 95.4446 156.108 98.0296C158.287 97.8908 159.834 97.6209 160.001 97.2009Z" fill="url(#paint30_linear_3951_20854)"/>
<path d="M142.362 97.5898C140.761 97.3664 139.638 97.0808 139.381 96.7427V99.9504C141.751 101.401 157.861 102.037 160.001 100.256V97.2009C159.834 97.6209 158.287 97.8908 156.108 98.0296C152.117 98.2838 146.004 98.0982 142.362 97.5898Z" fill="url(#paint31_linear_3951_20854)"/>
<path d="M139.381 99.9504C141.751 101.401 157.861 102.037 160.001 100.256C158.289 102.455 141.063 101.707 139.381 99.9504Z" fill="url(#paint32_linear_3951_20854)"/>
<path d="M156.108 94.5218C152.117 94.776 146.004 94.5903 142.362 94.082C142.973 92.209 158.552 92.3131 156.108 94.5218Z" fill="url(#paint33_linear_3951_20854)"/>
<path d="M142.362 94.082C137.932 91.2494 164.433 91.9368 156.108 94.5218C158.552 92.3131 142.973 92.209 142.362 94.082Z" fill="url(#paint34_linear_3951_20854)"/>
<path d="M160.001 93.6931C160.003 91.4785 138.389 91.5549 139.381 93.2349C139.638 93.5729 140.761 93.8586 142.362 94.082C137.932 91.2494 164.433 91.9368 156.108 94.5218C158.287 94.383 159.834 94.1131 160.001 93.6931Z" fill="url(#paint35_linear_3951_20854)"/>
<path d="M142.362 94.082C140.761 93.8586 139.638 93.5729 139.381 93.2349V96.4426C141.751 97.8936 157.861 98.5291 160.001 96.748V93.6931C159.834 94.1131 158.287 94.383 156.108 94.5218C152.117 94.776 146.004 94.5903 142.362 94.082Z" fill="url(#paint36_linear_3951_20854)"/>
<path d="M139.381 96.4426C141.751 97.8936 157.861 98.5291 160.001 96.748C158.289 98.9475 141.063 98.1991 139.381 96.4426Z" fill="url(#paint37_linear_3951_20854)"/>
<path d="M156.108 91.0139C152.117 91.2682 146.004 91.0825 142.362 90.5742C142.973 88.7012 158.552 88.8053 156.108 91.0139Z" fill="url(#paint38_linear_3951_20854)"/>
<path d="M142.362 90.5742C137.932 87.7416 164.433 88.4289 156.108 91.0139C158.552 88.8053 142.973 88.7012 142.362 90.5742Z" fill="url(#paint39_linear_3951_20854)"/>
<path d="M160.001 90.1853C160.003 87.9707 138.389 88.047 139.381 89.7271C139.638 90.0651 140.761 90.3508 142.362 90.5742C137.932 87.7416 164.433 88.4289 156.108 91.0139C158.287 90.8752 159.834 90.6053 160.001 90.1853Z" fill="url(#paint40_linear_3951_20854)"/>
<path d="M142.362 90.5742C140.761 90.3508 139.638 90.0651 139.381 89.7271V92.9347C141.751 94.3858 157.861 95.0213 160.001 93.2402V90.1853C159.834 90.6053 158.287 90.8752 156.108 91.0139C152.117 91.2682 146.004 91.0825 142.362 90.5742Z" fill="url(#paint41_linear_3951_20854)"/>
<path d="M139.381 92.9347C141.751 94.3858 157.861 95.0213 160.001 93.2402C158.289 95.4397 141.063 94.6913 139.381 92.9347Z" fill="url(#paint42_linear_3951_20854)"/>
<path d="M156.108 87.5061C152.117 87.7604 146.004 87.5747 142.362 87.0664C142.973 85.1934 158.552 85.2974 156.108 87.5061Z" fill="url(#paint43_linear_3951_20854)"/>
<path d="M142.362 87.0664C137.932 84.2338 164.433 84.9211 156.108 87.5061C158.552 85.2974 142.973 85.1934 142.362 87.0664Z" fill="url(#paint44_linear_3951_20854)"/>
<path d="M160.001 86.6775C160.003 84.4629 138.389 84.5392 139.381 86.2193C139.638 86.5573 140.761 86.843 142.362 87.0664C137.932 84.2338 164.433 84.9211 156.108 87.5061C158.287 87.3674 159.834 87.0975 160.001 86.6775Z" fill="url(#paint45_linear_3951_20854)"/>
<path d="M142.362 87.0664C140.761 86.843 139.638 86.5573 139.381 86.2193V89.4269C141.751 90.878 157.861 91.5134 160.001 89.7324V86.6775C159.834 87.0975 158.287 87.3674 156.108 87.5061C152.117 87.7604 146.004 87.5747 142.362 87.0664Z" fill="url(#paint46_linear_3951_20854)"/>
<path d="M139.381 89.4269C141.751 90.878 157.861 91.5134 160.001 89.7324C158.289 91.9319 141.063 91.1834 139.381 89.4269Z" fill="url(#paint47_linear_3951_20854)"/>
<path d="M140.509 104.964C136.275 105.234 129.791 105.037 125.927 104.498C126.575 102.511 143.101 102.621 140.509 104.964Z" fill="url(#paint48_linear_3951_20854)"/>
<path d="M125.927 104.498C121.229 101.493 149.339 102.222 140.509 104.964C143.101 102.621 126.575 102.511 125.927 104.498Z" fill="url(#paint49_linear_3951_20854)"/>
<path d="M144.638 104.085C144.64 101.736 121.713 101.817 122.766 103.599C123.038 103.958 124.229 104.261 125.927 104.498C121.229 101.493 149.339 102.222 140.509 104.964C142.82 104.817 144.46 104.531 144.638 104.085Z" fill="url(#paint50_linear_3951_20854)"/>
<path d="M125.927 104.498C124.229 104.261 123.038 103.958 122.766 103.599V107.001C125.279 108.541 142.368 109.215 144.638 107.326V104.085C144.46 104.531 142.82 104.817 140.509 104.964C136.275 105.234 129.791 105.037 125.927 104.498Z" fill="url(#paint51_linear_3951_20854)"/>
<path d="M122.766 107.001C125.279 108.541 142.368 109.215 144.638 107.326C142.822 109.659 124.55 108.865 122.766 107.001Z" fill="url(#paint52_linear_3951_20854)"/>
<path d="M140.509 101.241C136.275 101.511 129.791 101.314 125.927 100.775C126.575 98.7881 143.101 98.8985 140.509 101.241Z" fill="url(#paint53_linear_3951_20854)"/>
<path d="M125.927 100.775C121.229 97.7702 149.339 98.4993 140.509 101.241C143.101 98.8985 126.575 98.7881 125.927 100.775Z" fill="url(#paint54_linear_3951_20854)"/>
<path d="M144.638 100.362C144.64 98.0133 121.713 98.0942 122.766 99.8763C123.038 100.235 124.229 100.538 125.927 100.775C121.229 97.7702 149.339 98.4993 140.509 101.241C142.82 101.094 144.46 100.808 144.638 100.362Z" fill="url(#paint55_linear_3951_20854)"/>
<path d="M125.927 100.775C124.229 100.538 123.038 100.235 122.766 99.8763V103.279C125.279 104.818 142.368 105.492 144.638 103.603V100.362C144.46 100.808 142.82 101.094 140.509 101.241C136.275 101.511 129.791 101.314 125.927 100.775Z" fill="url(#paint56_linear_3951_20854)"/>
<path d="M122.766 103.279C125.279 104.818 142.368 105.492 144.638 103.603C142.822 105.936 124.55 105.142 122.766 103.279Z" fill="url(#paint57_linear_3951_20854)"/>
<path d="M140.509 97.5226C136.275 97.7923 129.791 97.5953 125.927 97.0561C126.575 95.0694 143.101 95.1797 140.509 97.5226Z" fill="url(#paint58_linear_3951_20854)"/>
<path d="M125.927 97.0561C121.229 94.0515 149.339 94.7806 140.509 97.5226C143.101 95.1797 126.575 95.0694 125.927 97.0561Z" fill="url(#paint59_linear_3951_20854)"/>
<path d="M144.638 96.6436C144.64 94.2945 121.713 94.3755 122.766 96.1576C123.038 96.5161 124.229 96.8192 125.927 97.0561C121.229 94.0515 149.339 94.7806 140.509 97.5226C142.82 97.3754 144.46 97.0891 144.638 96.6436Z" fill="url(#paint60_linear_3951_20854)"/>
<path d="M125.927 97.0561C124.229 96.8192 123.038 96.5161 122.766 96.1576V99.5601C125.279 101.099 142.368 101.773 144.638 99.8841V96.6436C144.46 97.0891 142.82 97.3754 140.509 97.5226C136.275 97.7923 129.791 97.5953 125.927 97.0561Z" fill="url(#paint61_linear_3951_20854)"/>
<path d="M122.766 99.5601C125.279 101.099 142.368 101.773 144.638 99.8841C142.822 102.217 124.55 101.423 122.766 99.5601Z" fill="url(#paint62_linear_3951_20854)"/>
<path d="M140.509 93.7999C136.275 94.0696 129.791 93.8727 125.927 93.3335C126.575 91.3467 143.101 91.4571 140.509 93.7999Z" fill="url(#paint63_linear_3951_20854)"/>
<path d="M125.927 93.3335C121.229 90.3288 149.339 91.0579 140.509 93.7999C143.101 91.4571 126.575 91.3467 125.927 93.3335Z" fill="url(#paint64_linear_3951_20854)"/>
<path d="M144.638 92.921C144.64 90.5719 121.713 90.6528 122.766 92.4349C123.038 92.7935 124.229 93.0965 125.927 93.3335C121.229 90.3288 149.339 91.0579 140.509 93.7999C142.82 93.6527 144.46 93.3665 144.638 92.921Z" fill="url(#paint65_linear_3951_20854)"/>
<path d="M125.927 93.3335C124.229 93.0965 123.038 92.7935 122.766 92.4349V95.8374C125.279 97.3766 142.368 98.0507 144.638 96.1615V92.921C144.46 93.3665 142.82 93.6527 140.509 93.7999C136.275 94.0696 129.791 93.8727 125.927 93.3335Z" fill="url(#paint66_linear_3951_20854)"/>
<path d="M122.766 95.8374C125.279 97.3766 142.368 98.0507 144.638 96.1615C142.822 98.4945 124.55 97.7006 122.766 95.8374Z" fill="url(#paint67_linear_3951_20854)"/>
<path d="M169.734 102.044C169.734 108.206 164.738 113.201 158.576 113.201C152.414 113.201 147.419 108.206 147.419 102.044C147.419 95.882 152.414 90.8867 158.576 90.8867C164.738 90.8867 169.734 95.882 169.734 102.044ZM150.435 102.044C150.435 106.54 154.08 110.185 158.576 110.185C163.072 110.185 166.717 106.54 166.717 102.044C166.717 97.5479 163.072 93.903 158.576 93.903C154.08 93.903 150.435 97.5479 150.435 102.044Z" fill="url(#paint68_linear_3951_20854)"/>
<path d="M166.717 102.044C166.717 97.5479 163.072 93.903 158.576 93.903C154.08 93.903 150.435 97.5479 150.435 102.044C150.825 94.5275 163.744 89.9472 166.717 102.044Z" fill="url(#paint69_linear_3951_20854)"/>
<path d="M150.435 102.044C150.435 106.54 154.08 110.185 158.576 110.185C163.072 110.185 166.717 106.54 166.717 102.044C163.744 89.9472 150.825 94.5275 150.435 102.044Z" fill="url(#paint70_linear_3951_20854)"/>
<g filter="url(#filter3_d_3951_20854)">
<path fill-rule="evenodd" clip-rule="evenodd" d="M157.358 100.753C158.935 100.745 158.951 100.754 158.489 101.373C158.161 101.813 157.81 101.932 156.829 101.936L156.104 101.94L156.108 102.417L156.111 102.894L157.456 104.772L158.801 106.65L159.55 106.647C159.961 106.645 160.296 106.613 160.294 106.575C160.292 106.538 159.747 105.753 159.083 104.832C158.323 103.779 157.907 103.133 157.959 103.091C158.005 103.054 158.119 103.022 158.211 103.021C158.303 103.02 158.576 102.931 158.817 102.823C159.399 102.562 159.83 102.024 160.023 101.318L160.168 100.785L160.556 100.756L160.943 100.727L161.059 100.24C161.123 99.9719 161.175 99.7285 161.174 99.6987C161.174 99.6689 160.942 99.6457 160.657 99.6471L160.14 99.6496L160.005 99.1734C159.931 98.9114 159.852 98.6461 159.83 98.5838C159.801 98.4991 159.933 98.4697 160.354 98.4677L160.917 98.465L161.008 98.0785C161.058 97.8659 161.116 97.6198 161.136 97.5316C161.172 97.3803 161.033 97.3733 158.693 97.4071L156.213 97.4431L156.121 97.8236C156.07 98.0329 156.008 98.306 155.983 98.4306L155.936 98.657L156.993 98.6814C158.161 98.7085 158.327 98.7788 158.62 99.3713L158.761 99.6563L157.474 99.6625L156.187 99.6687L156.076 100.214L155.963 100.76L157.358 100.753Z" fill="#FFFAEF"/>
</g>
<path fill-rule="evenodd" clip-rule="evenodd" d="M80.1697 80.2845C80.1697 80.31 79.8645 81.2179 79.4916 82.3023L78.8135 84.2739L79.2934 84.2386C79.7451 84.2054 79.7795 84.1778 79.8793 83.7677L79.9854 83.3318L80.7193 83.3654C81.4471 83.3986 81.4542 83.4021 81.5856 83.8011C81.7042 84.1614 81.7654 84.2069 82.1717 84.2378L82.6254 84.2722L81.9463 82.2553L81.267 80.2383H80.7184C80.4166 80.2383 80.1697 80.2591 80.1697 80.2845ZM83.1152 82.2495V84.2608H83.5116H83.9081V83.6287V82.9966L84.333 82.9959C85.4355 82.9943 86.0613 82.4945 86.0585 81.6174C86.0555 80.6352 85.4778 80.2387 84.0498 80.2385L83.1152 80.2383V82.2495ZM86.627 82.2495V84.2608H87.0235H87.42V83.6287V82.9966L87.8448 82.9959C88.9752 82.9943 89.5724 82.5104 89.5724 81.5965C89.5724 80.608 89.0343 80.2383 87.5956 80.2383H86.627V82.2495ZM90.1388 82.2495V84.2608H91.385H92.6311V83.9211V83.5814L91.8098 83.5476L90.9885 83.5138L90.9571 81.876L90.9256 80.2383H90.5323H90.1388V82.2495ZM92.8672 80.8991C93.0686 81.2626 93.4037 81.8602 93.612 82.227C93.9251 82.7787 93.9906 83.0121 93.9906 83.5774V84.2608H94.387H94.7835V83.5457C94.7835 82.885 94.8353 82.7366 95.4633 81.5992C95.8371 80.9219 96.143 80.3386 96.143 80.303C96.143 80.2674 95.9491 80.2383 95.7124 80.2383C95.2916 80.2383 95.271 80.2586 94.8181 81.1171L94.3545 81.996L93.8791 81.1171C93.4099 80.2498 93.3977 80.2383 92.9524 80.2383H92.5012L92.8672 80.8991ZM84.9816 81.0839C85.2627 81.2925 85.2627 81.9423 84.9816 82.1509C84.8659 82.2368 84.577 82.307 84.3397 82.307H83.9081V81.6174V80.9279H84.3397C84.577 80.9279 84.8659 80.9981 84.9816 81.0839ZM88.5529 81.1577C89.0415 81.6534 88.655 82.307 87.8731 82.307H87.42V81.6174V80.9279H87.8731C88.1753 80.9279 88.4018 81.0045 88.5529 81.1577ZM80.9986 81.8861C81.1035 82.2236 81.1893 82.5339 81.1893 82.5757C81.1893 82.6176 80.9854 82.6518 80.7362 82.6518C80.4869 82.6518 80.283 82.6176 80.283 82.5757C80.283 82.3899 80.6715 81.2726 80.7362 81.2726C80.7757 81.2726 80.8938 81.5487 80.9986 81.8861Z" fill="white"/>
<defs>
<filter id="filter0_d_3951_20854" x="60.5342" y="0" width="66.3555" height="105.289" filterUnits="userSpaceOnUse" color-interpolation-filters="sRGB">
<feFlood flood-opacity="0" result="BackgroundImageFix"/>
<feColorMatrix in="SourceAlpha" type="matrix" values="0 0 0 0 0 0 0 0 0 0 0 0 0 0 0 0 0 0 127 0" result="hardAlpha"/>
<feOffset dx="12" dy="4"/>
<feComposite in2="hardAlpha" operator="out"/>
<feColorMatrix type="matrix" values="0 0 0 0 0 0 0 0 0 0 0 0 0 0 0 0 0 0 0.04 0"/>
<feBlend mode="normal" in2="BackgroundImageFix" result="effect1_dropShadow_3951_20854"/>
<feBlend mode="normal" in="SourceGraphic" in2="effect1_dropShadow_3951_20854" result="shape"/>
</filter>
<filter id="filter1_d_3951_20854" x="0" y="63.125" width="46.0298" height="31.0781" filterUnits="userSpaceOnUse" color-interpolation-filters="sRGB">
<feFlood flood-opacity="0" result="BackgroundImageFix"/>
<feColorMatrix in="SourceAlpha" type="matrix" values="0 0 0 0 0 0 0 0 0 0 0 0 0 0 0 0 0 0 127 0" result="hardAlpha"/>
<feOffset dy="7"/>
<feComposite in2="hardAlpha" operator="out"/>
<feColorMatrix type="matrix" values="0 0 0 0 0 0 0 0 0 0 0 0 0 0 0 0 0 0 0.25 0"/>
<feBlend mode="normal" in2="BackgroundImageFix" result="effect1_dropShadow_3951_20854"/>
<feBlend mode="normal" in="SourceGraphic" in2="effect1_dropShadow_3951_20854" result="shape"/>
</filter>
<filter id="filter2_d_3951_20854" x="114.669" y="80.957" width="8.95801" height="19.8359" filterUnits="userSpaceOnUse" color-interpolation-filters="sRGB">
<feFlood flood-opacity="0" result="BackgroundImageFix"/>
<feColorMatrix in="SourceAlpha" type="matrix" values="0 0 0 0 0 0 0 0 0 0 0 0 0 0 0 0 0 0 127 0" result="hardAlpha"/>
<feOffset dy="4"/>
<feComposite in2="hardAlpha" operator="out"/>
<feColorMatrix type="matrix" values="0 0 0 0 0 0 0 0 0 0 0 0 0 0 0 0 0 0 0.25 0"/>
<feBlend mode="normal" in2="BackgroundImageFix" result="effect1_dropShadow_3951_20854"/>
<feBlend mode="normal" in="SourceGraphic" in2="effect1_dropShadow_3951_20854" result="shape"/>
</filter>
<filter id="filter3_d_3951_20854" x="155.937" y="97.3906" width="5.23779" height="12.2617" filterUnits="userSpaceOnUse" color-interpolation-filters="sRGB">
<feFlood flood-opacity="0" result="BackgroundImageFix"/>
<feColorMatrix in="SourceAlpha" type="matrix" values="0 0 0 0 0 0 0 0 0 0 0 0 0 0 0 0 0 0 127 0" result="hardAlpha"/>
<feOffset dy="3"/>
<feComposite in2="hardAlpha" operator="out"/>
<feColorMatrix type="matrix" values="0 0 0 0 0.698039 0 0 0 0 0.407843 0 0 0 0 0.109804 0 0 0 0.43 0"/>
<feBlend mode="normal" in2="BackgroundImageFix" result="effect1_dropShadow_3951_20854"/>
<feBlend mode="normal" in="SourceGraphic" in2="effect1_dropShadow_3951_20854" result="shape"/>
</filter>
<radialGradient id="paint0_diamond_3951_20854" cx="0" cy="0" r="1" gradientUnits="userSpaceOnUse" gradientTransform="translate(144.111 109.22) rotate(74.907) scale(19.0873 67.6166)">
<stop offset="0.149716" stop-color="#A89ECB"/>
<stop offset="1" stop-color="#BAB3DE" stop-opacity="0"/>
</radialGradient>
<radialGradient id="paint1_diamond_3951_20854" cx="0" cy="0" r="1" gradientUnits="userSpaceOnUse" gradientTransform="translate(48.7162 108.704) rotate(6.15493) scale(25.8402 38.8138)">
<stop offset="0.149716" stop-color="#A89ECB"/>
<stop offset="1" stop-color="#BAB3DE" stop-opacity="0"/>
</radialGradient>
<radialGradient id="paint2_diamond_3951_20854" cx="0" cy="0" r="1" gradientUnits="userSpaceOnUse" gradientTransform="translate(94.2434 103.175) rotate(78.9821) scale(23.949 63.3052)">
<stop offset="0.149716" stop-color="#A89ECB"/>
<stop offset="1" stop-color="#BAB3DE" stop-opacity="0"/>
</radialGradient>
<radialGradient id="paint3_diamond_3951_20854" cx="0" cy="0" r="1" gradientUnits="userSpaceOnUse" gradientTransform="translate(117.271 106.503) rotate(68.998) scale(12.7707 60.2095)">
<stop offset="0.149716" stop-color="#A89ECB"/>
<stop offset="1" stop-color="#BAB3DE" stop-opacity="0"/>
</radialGradient>
<radialGradient id="paint4_diamond_3951_20854" cx="0" cy="0" r="1" gradientUnits="userSpaceOnUse" gradientTransform="translate(160.374 113.366) rotate(68.998) scale(6.19694 29.2165)">
<stop stop-color="#C3BAE6"/>
<stop offset="0.807315" stop-color="#BAB3DE" stop-opacity="0"/>
</radialGradient>
<linearGradient id="paint5_linear_3951_20854" x1="87.7119" y1="0" x2="87.5967" y2="111.93" gradientUnits="userSpaceOnUse">
<stop stop-color="#8A6FDC"/>
<stop offset="1" stop-color="#7E64CA"/>
</linearGradient>
<linearGradient id="paint6_linear_3951_20854" x1="87.7119" y1="0" x2="87.5967" y2="111.93" gradientUnits="userSpaceOnUse">
<stop offset="0.618474" stop-color="#F7F9FF"/>
<stop offset="1" stop-color="#A4ABBF"/>
</linearGradient>
<linearGradient id="paint7_linear_3951_20854" x1="72.2853" y1="9.01953" x2="72.2853" y2="17.803" gradientUnits="userSpaceOnUse">
<stop stop-color="#A28DE1"/>
<stop offset="1" stop-color="#8461EF"/>
</linearGradient>
<linearGradient id="paint8_linear_3951_20854" x1="88.9021" y1="10.3281" x2="88.9021" y2="12.9394" gradientUnits="userSpaceOnUse">
<stop stop-color="#D9D9D9"/>
<stop offset="1" stop-color="#BDBDBD"/>
</linearGradient>
<linearGradient id="paint9_linear_3951_20854" x1="85.816" y1="14.4805" x2="85.816" y2="17.0918" gradientUnits="userSpaceOnUse">
<stop stop-color="#D9D9D9"/>
<stop offset="1" stop-color="#BDBDBD"/>
</linearGradient>
<linearGradient id="paint10_linear_3951_20854" x1="87.597" y1="30.8594" x2="87.597" y2="30.622" gradientUnits="userSpaceOnUse">
<stop stop-color="#D9D9D9"/>
<stop offset="1" stop-color="#BDBDBD"/>
</linearGradient>
<linearGradient id="paint11_linear_3951_20854" x1="87.597" y1="37.0312" x2="87.597" y2="36.7939" gradientUnits="userSpaceOnUse">
<stop stop-color="#D9D9D9"/>
<stop offset="1" stop-color="#BDBDBD"/>
</linearGradient>
<linearGradient id="paint12_linear_3951_20854" x1="87.597" y1="43.4414" x2="87.597" y2="43.204" gradientUnits="userSpaceOnUse">
<stop stop-color="#D9D9D9"/>
<stop offset="1" stop-color="#BDBDBD"/>
</linearGradient>
<linearGradient id="paint13_linear_3951_20854" x1="87.597" y1="49.8516" x2="87.597" y2="49.6142" gradientUnits="userSpaceOnUse">
<stop stop-color="#D9D9D9"/>
<stop offset="1" stop-color="#BDBDBD"/>
</linearGradient>
<linearGradient id="paint14_linear_3951_20854" x1="87.597" y1="56.2617" x2="87.597" y2="56.0243" gradientUnits="userSpaceOnUse">
<stop stop-color="#D9D9D9"/>
<stop offset="1" stop-color="#BDBDBD"/>
</linearGradient>
<linearGradient id="paint15_linear_3951_20854" x1="87.597" y1="62.6719" x2="87.597" y2="62.4345" gradientUnits="userSpaceOnUse">
<stop stop-color="#D9D9D9"/>
<stop offset="1" stop-color="#BDBDBD"/>
</linearGradient>
<linearGradient id="paint16_linear_3951_20854" x1="87.597" y1="69.0781" x2="87.597" y2="68.8407" gradientUnits="userSpaceOnUse">
<stop stop-color="#D9D9D9"/>
<stop offset="1" stop-color="#BDBDBD"/>
</linearGradient>
<linearGradient id="paint17_linear_3951_20854" x1="102.434" y1="25.3987" x2="141.603" y2="48.1882" gradientUnits="userSpaceOnUse">
<stop stop-color="#AE8FDF"/>
<stop offset="0.119794" stop-color="#D6C0F9"/>
<stop offset="0.213545" stop-color="#A78AD6"/>
<stop offset="0.458341" stop-color="#B59ADF"/>
<stop offset="0.546885" stop-color="#CBB6ED"/>
<stop offset="0.619802" stop-color="#B39BD8"/>
<stop offset="0.708346" stop-color="#947ABE"/>
<stop offset="0.85939" stop-color="#9B80D6"/>
<stop offset="1" stop-color="#8164BF"/>
</linearGradient>
<linearGradient id="paint18_linear_3951_20854" x1="62.0891" y1="94.1361" x2="41.5693" y2="66.8391" gradientUnits="userSpaceOnUse">
<stop stop-color="#F5C3D0"/>
<stop offset="1" stop-color="#FFF0F7"/>
</linearGradient>
<radialGradient id="paint19_radial_3951_20854" cx="0" cy="0" r="1" gradientUnits="userSpaceOnUse" gradientTransform="translate(46.8834 84.8566) rotate(115.317) scale(21.9281 17.6528)">
<stop offset="0.525773" stop-color="#F696A1"/>
<stop offset="0.732867" stop-color="#FFA7B1"/>
<stop offset="0.968906" stop-color="#FF99A5"/>
</radialGradient>
<radialGradient id="paint20_radial_3951_20854" cx="0" cy="0" r="1" gradientUnits="userSpaceOnUse" gradientTransform="translate(46.306 85.2321) rotate(115.178) scale(13.0868 10.4933)">
<stop offset="0.525773" stop-color="#F696A1"/>
<stop offset="0.732867" stop-color="#FFA7B1"/>
<stop offset="0.968906" stop-color="#FF99A5"/>
</radialGradient>
<radialGradient id="paint21_radial_3951_20854" cx="0" cy="0" r="1" gradientUnits="userSpaceOnUse" gradientTransform="translate(114.184 77.0324) rotate(61.8087) scale(33.6676 24.9868)">
<stop stop-color="#C8C4F8"/>
<stop offset="0.290344" stop-color="#B2ABF6"/>
<stop offset="0.427463" stop-color="#B1ABEC"/>
<stop offset="0.588569" stop-color="#A8A1E8"/>
<stop offset="0.716817" stop-color="#948AD8"/>
<stop offset="0.862896" stop-color="#8476CF"/>
<stop offset="0.996346" stop-color="#6759B7"/>
</radialGradient>
<radialGradient id="paint22_radial_3951_20854" cx="0" cy="0" r="1" gradientUnits="userSpaceOnUse" gradientTransform="translate(113.947 64.2133) rotate(71.2287) scale(19.1806 14.2351)">
<stop stop-color="#C8C4F8"/>
<stop offset="0.171437" stop-color="#B2ABF6"/>
<stop offset="0.427463" stop-color="#B1ABEC"/>
<stop offset="0.588569" stop-color="#A8A1E8"/>
<stop offset="0.716817" stop-color="#948AD8"/>
<stop offset="0.862896" stop-color="#8476CF"/>
<stop offset="0.996346" stop-color="#6759B7"/>
</radialGradient>
<linearGradient id="paint23_linear_3951_20854" x1="149.675" y1="99.0195" x2="149.675" y2="105.124" gradientUnits="userSpaceOnUse">
<stop offset="0.428096" stop-color="#F2D379"/>
<stop offset="1" stop-color="#E9BB35" stop-opacity="0.81"/>
</linearGradient>
<linearGradient id="paint24_linear_3951_20854" x1="142.209" y1="102.942" x2="157.179" y2="102.876" gradientUnits="userSpaceOnUse">
<stop stop-color="#F0BD59"/>
<stop offset="1" stop-color="#F4A93F"/>
</linearGradient>
<linearGradient id="paint25_linear_3951_20854" x1="149.675" y1="99.0195" x2="149.675" y2="105.124" gradientUnits="userSpaceOnUse">
<stop stop-color="#F5CD40"/>
<stop offset="1" stop-color="#FFD772"/>
</linearGradient>
<linearGradient id="paint26_linear_3951_20854" x1="139.612" y1="102.63" x2="159.927" y2="102.849" gradientUnits="userSpaceOnUse">
<stop stop-color="#E7B455"/>
<stop offset="0.294279" stop-color="#E3A239"/>
<stop offset="0.671845" stop-color="#ECC64B"/>
<stop offset="1" stop-color="#F4E17B"/>
</linearGradient>
<linearGradient id="paint27_linear_3951_20854" x1="149.693" y1="104.302" x2="149.675" y2="105.124" gradientUnits="userSpaceOnUse">
<stop stop-color="#7C1A00"/>
<stop offset="1" stop-color="#A66E11"/>
</linearGradient>
<linearGradient id="paint28_linear_3951_20854" x1="149.675" y1="95.5078" x2="149.675" y2="101.612" gradientUnits="userSpaceOnUse">
<stop offset="0.428096" stop-color="#F2D379"/>
<stop offset="1" stop-color="#E9BB35" stop-opacity="0.81"/>
</linearGradient>
<linearGradient id="paint29_linear_3951_20854" x1="142.209" y1="99.4307" x2="157.179" y2="99.3647" gradientUnits="userSpaceOnUse">
<stop stop-color="#F0BD59"/>
<stop offset="1" stop-color="#F4A93F"/>
</linearGradient>
<linearGradient id="paint30_linear_3951_20854" x1="149.675" y1="95.5078" x2="149.675" y2="101.612" gradientUnits="userSpaceOnUse">
<stop stop-color="#F5CD40"/>
<stop offset="1" stop-color="#FFD772"/>
</linearGradient>
<linearGradient id="paint31_linear_3951_20854" x1="139.612" y1="99.1185" x2="159.927" y2="99.3374" gradientUnits="userSpaceOnUse">
<stop stop-color="#E7B455"/>
<stop offset="0.294279" stop-color="#E3A239"/>
<stop offset="0.671845" stop-color="#ECC64B"/>
<stop offset="1" stop-color="#F4E17B"/>
</linearGradient>
<linearGradient id="paint32_linear_3951_20854" x1="149.693" y1="100.79" x2="149.675" y2="101.612" gradientUnits="userSpaceOnUse">
<stop stop-color="#7C1A00"/>
<stop offset="1" stop-color="#A66E11"/>
</linearGradient>
<linearGradient id="paint33_linear_3951_20854" x1="149.675" y1="92" x2="149.675" y2="98.1046" gradientUnits="userSpaceOnUse">
<stop offset="0.428096" stop-color="#F2D379"/>
<stop offset="1" stop-color="#E9BB35" stop-opacity="0.81"/>
</linearGradient>
<linearGradient id="paint34_linear_3951_20854" x1="142.209" y1="95.9228" x2="157.179" y2="95.8569" gradientUnits="userSpaceOnUse">
<stop stop-color="#F0BD59"/>
<stop offset="1" stop-color="#F4A93F"/>
</linearGradient>
<linearGradient id="paint35_linear_3951_20854" x1="149.675" y1="92" x2="149.675" y2="98.1046" gradientUnits="userSpaceOnUse">
<stop stop-color="#F5CD40"/>
<stop offset="1" stop-color="#FFD772"/>
</linearGradient>
<linearGradient id="paint36_linear_3951_20854" x1="139.612" y1="95.6107" x2="159.927" y2="95.8296" gradientUnits="userSpaceOnUse">
<stop stop-color="#E7B455"/>
<stop offset="0.294279" stop-color="#E3A239"/>
<stop offset="0.671845" stop-color="#ECC64B"/>
<stop offset="1" stop-color="#F4E17B"/>
</linearGradient>
<linearGradient id="paint37_linear_3951_20854" x1="149.693" y1="97.2826" x2="149.675" y2="98.1046" gradientUnits="userSpaceOnUse">
<stop stop-color="#7C1A00"/>
<stop offset="1" stop-color="#A66E11"/>
</linearGradient>
<linearGradient id="paint38_linear_3951_20854" x1="149.675" y1="88.4922" x2="149.675" y2="94.5967" gradientUnits="userSpaceOnUse">
<stop offset="0.428096" stop-color="#F2D379"/>
<stop offset="1" stop-color="#E9BB35" stop-opacity="0.81"/>
</linearGradient>
<linearGradient id="paint39_linear_3951_20854" x1="142.209" y1="92.415" x2="157.179" y2="92.3491" gradientUnits="userSpaceOnUse">
<stop stop-color="#F0BD59"/>
<stop offset="1" stop-color="#F4A93F"/>
</linearGradient>
<linearGradient id="paint40_linear_3951_20854" x1="149.675" y1="88.4922" x2="149.675" y2="94.5967" gradientUnits="userSpaceOnUse">
<stop stop-color="#F5CD40"/>
<stop offset="1" stop-color="#FFD772"/>
</linearGradient>
<linearGradient id="paint41_linear_3951_20854" x1="139.612" y1="92.1029" x2="159.927" y2="92.3218" gradientUnits="userSpaceOnUse">
<stop stop-color="#E7B455"/>
<stop offset="0.294279" stop-color="#E3A239"/>
<stop offset="0.671845" stop-color="#ECC64B"/>
<stop offset="1" stop-color="#F4E17B"/>
</linearGradient>
<linearGradient id="paint42_linear_3951_20854" x1="149.693" y1="93.7748" x2="149.675" y2="94.5967" gradientUnits="userSpaceOnUse">
<stop stop-color="#7C1A00"/>
<stop offset="1" stop-color="#A66E11"/>
</linearGradient>
<linearGradient id="paint43_linear_3951_20854" x1="149.675" y1="84.9844" x2="149.675" y2="91.0889" gradientUnits="userSpaceOnUse">
<stop offset="0.428096" stop-color="#F2D379"/>
<stop offset="1" stop-color="#E9BB35" stop-opacity="0.81"/>
</linearGradient>
<linearGradient id="paint44_linear_3951_20854" x1="142.209" y1="88.9072" x2="157.179" y2="88.8413" gradientUnits="userSpaceOnUse">
<stop stop-color="#F0BD59"/>
<stop offset="1" stop-color="#F4A93F"/>
</linearGradient>
<linearGradient id="paint45_linear_3951_20854" x1="149.675" y1="84.9844" x2="149.675" y2="91.0889" gradientUnits="userSpaceOnUse">
<stop stop-color="#F5CD40"/>
<stop offset="1" stop-color="#FFD772"/>
</linearGradient>
<linearGradient id="paint46_linear_3951_20854" x1="139.612" y1="88.5951" x2="159.927" y2="88.814" gradientUnits="userSpaceOnUse">
<stop stop-color="#E7B455"/>
<stop offset="0.294279" stop-color="#E3A239"/>
<stop offset="0.671845" stop-color="#ECC64B"/>
<stop offset="1" stop-color="#F4E17B"/>
</linearGradient>
<linearGradient id="paint47_linear_3951_20854" x1="149.693" y1="90.267" x2="149.675" y2="91.0889" gradientUnits="userSpaceOnUse">
<stop stop-color="#7C1A00"/>
<stop offset="1" stop-color="#A66E11"/>
</linearGradient>
<linearGradient id="paint48_linear_3951_20854" x1="133.684" y1="102.289" x2="133.684" y2="108.764" gradientUnits="userSpaceOnUse">
<stop offset="0.428096" stop-color="#F2D379"/>
<stop offset="1" stop-color="#E9BB35" stop-opacity="0.81"/>
</linearGradient>
<linearGradient id="paint49_linear_3951_20854" x1="125.765" y1="106.45" x2="141.644" y2="106.38" gradientUnits="userSpaceOnUse">
<stop stop-color="#F0BD59"/>
<stop offset="1" stop-color="#F4A93F"/>
</linearGradient>
<linearGradient id="paint50_linear_3951_20854" x1="133.684" y1="102.289" x2="133.684" y2="108.764" gradientUnits="userSpaceOnUse">
<stop stop-color="#F5CD40"/>
<stop offset="1" stop-color="#FFD772"/>
</linearGradient>
<linearGradient id="paint51_linear_3951_20854" x1="123.011" y1="106.119" x2="144.559" y2="106.351" gradientUnits="userSpaceOnUse">
<stop stop-color="#E7B455"/>
<stop offset="0.294279" stop-color="#E3A239"/>
<stop offset="0.671845" stop-color="#ECC64B"/>
<stop offset="1" stop-color="#F4E17B"/>
</linearGradient>
<linearGradient id="paint52_linear_3951_20854" x1="133.704" y1="107.893" x2="133.684" y2="108.764" gradientUnits="userSpaceOnUse">
<stop stop-color="#7C1A00"/>
<stop offset="1" stop-color="#A66E11"/>
</linearGradient>
<linearGradient id="paint53_linear_3951_20854" x1="133.684" y1="98.5664" x2="133.684" y2="105.042" gradientUnits="userSpaceOnUse">
<stop offset="0.428096" stop-color="#F2D379"/>
<stop offset="1" stop-color="#E9BB35" stop-opacity="0.81"/>
</linearGradient>
<linearGradient id="paint54_linear_3951_20854" x1="125.765" y1="102.728" x2="141.644" y2="102.658" gradientUnits="userSpaceOnUse">
<stop stop-color="#F0BD59"/>
<stop offset="1" stop-color="#F4A93F"/>
</linearGradient>
<linearGradient id="paint55_linear_3951_20854" x1="133.684" y1="98.5664" x2="133.684" y2="105.042" gradientUnits="userSpaceOnUse">
<stop stop-color="#F5CD40"/>
<stop offset="1" stop-color="#FFD772"/>
</linearGradient>
<linearGradient id="paint56_linear_3951_20854" x1="123.011" y1="102.396" x2="144.559" y2="102.629" gradientUnits="userSpaceOnUse">
<stop stop-color="#E7B455"/>
<stop offset="0.294279" stop-color="#E3A239"/>
<stop offset="0.671845" stop-color="#ECC64B"/>
<stop offset="1" stop-color="#F4E17B"/>
</linearGradient>
<linearGradient id="paint57_linear_3951_20854" x1="133.704" y1="104.17" x2="133.684" y2="105.042" gradientUnits="userSpaceOnUse">
<stop stop-color="#7C1A00"/>
<stop offset="1" stop-color="#A66E11"/>
</linearGradient>
<linearGradient id="paint58_linear_3951_20854" x1="133.684" y1="94.8477" x2="133.684" y2="101.323" gradientUnits="userSpaceOnUse">
<stop offset="0.428096" stop-color="#F2D379"/>
<stop offset="1" stop-color="#E9BB35" stop-opacity="0.81"/>
</linearGradient>
<linearGradient id="paint59_linear_3951_20854" x1="125.765" y1="99.0088" x2="141.644" y2="98.9389" gradientUnits="userSpaceOnUse">
<stop stop-color="#F0BD59"/>
<stop offset="1" stop-color="#F4A93F"/>
</linearGradient>
<linearGradient id="paint60_linear_3951_20854" x1="133.684" y1="94.8477" x2="133.684" y2="101.323" gradientUnits="userSpaceOnUse">
<stop stop-color="#F5CD40"/>
<stop offset="1" stop-color="#FFD772"/>
</linearGradient>
<linearGradient id="paint61_linear_3951_20854" x1="123.011" y1="98.6777" x2="144.559" y2="98.9099" gradientUnits="userSpaceOnUse">
<stop stop-color="#E7B455"/>
<stop offset="0.294279" stop-color="#E3A239"/>
<stop offset="0.671845" stop-color="#ECC64B"/>
<stop offset="1" stop-color="#F4E17B"/>
</linearGradient>
<linearGradient id="paint62_linear_3951_20854" x1="133.704" y1="100.451" x2="133.684" y2="101.323" gradientUnits="userSpaceOnUse">
<stop stop-color="#7C1A00"/>
<stop offset="1" stop-color="#A66E11"/>
</linearGradient>
<linearGradient id="paint63_linear_3951_20854" x1="133.684" y1="91.125" x2="133.684" y2="97.6004" gradientUnits="userSpaceOnUse">
<stop offset="0.428096" stop-color="#F2D379"/>
<stop offset="1" stop-color="#E9BB35" stop-opacity="0.81"/>
</linearGradient>
<linearGradient id="paint64_linear_3951_20854" x1="125.765" y1="95.2861" x2="141.644" y2="95.2162" gradientUnits="userSpaceOnUse">
<stop stop-color="#F0BD59"/>
<stop offset="1" stop-color="#F4A93F"/>
</linearGradient>
<linearGradient id="paint65_linear_3951_20854" x1="133.684" y1="91.125" x2="133.684" y2="97.6004" gradientUnits="userSpaceOnUse">
<stop stop-color="#F5CD40"/>
<stop offset="1" stop-color="#FFD772"/>
</linearGradient>
<linearGradient id="paint66_linear_3951_20854" x1="123.011" y1="94.9551" x2="144.559" y2="95.1872" gradientUnits="userSpaceOnUse">
<stop stop-color="#E7B455"/>
<stop offset="0.294279" stop-color="#E3A239"/>
<stop offset="0.671845" stop-color="#ECC64B"/>
<stop offset="1" stop-color="#F4E17B"/>
</linearGradient>
<linearGradient id="paint67_linear_3951_20854" x1="133.704" y1="96.7285" x2="133.684" y2="97.6004" gradientUnits="userSpaceOnUse">
<stop stop-color="#7C1A00"/>
<stop offset="1" stop-color="#A66E11"/>
</linearGradient>
<linearGradient id="paint68_linear_3951_20854" x1="158.576" y1="90.8867" x2="158.576" y2="113.201" gradientUnits="userSpaceOnUse">
<stop stop-color="#F2D86A"/>
<stop offset="1" stop-color="#E8B543"/>
</linearGradient>
<linearGradient id="paint69_linear_3951_20854" x1="158.576" y1="90.8867" x2="158.576" y2="113.201" gradientUnits="userSpaceOnUse">
<stop stop-color="#974F0B"/>
<stop offset="0.326641" stop-color="#D18430"/>
<stop offset="1" stop-color="#E8B543"/>
</linearGradient>
<linearGradient id="paint70_linear_3951_20854" x1="158.576" y1="90.8867" x2="158.576" y2="113.201" gradientUnits="userSpaceOnUse">
<stop stop-color="#F3D47A"/>
<stop offset="1" stop-color="#F3D47A"/>
</linearGradient>
</defs>
</svg>
