<svg width="53" height="46" viewBox="0 0 53 46" fill="none" xmlns="http://www.w3.org/2000/svg">
<circle opacity="0.1" cx="20" cy="20" r="20" fill="#0559FF"/>
<path fill-rule="evenodd" clip-rule="evenodd" d="M15.2396 8.21528C14.9359 8.52167 14.917 9.25257 15.2055 9.53534C15.316 9.64368 15.7874 9.90864 16.2531 10.124C17.6849 10.7864 19.3248 11.5707 19.3563 11.6081C19.3844 11.6412 19.6359 12.9519 21.4069 22.2911C24.0114 36.0264 23.7552 34.9806 24.6282 35.4422C25.0552 35.668 25.3105 35.6732 35.9671 35.6732C47.8756 35.6732 47.2165 35.7103 47.4567 35.0259C47.5828 34.6669 47.3952 34.0833 47.0937 33.8962C46.9173 33.7868 44.3384 33.7394 36.1262 33.695L25.3893 33.6368L25.1439 32.415C25.0088 31.7429 24.8964 31.1546 24.8941 31.1075C24.8917 31.0603 29.9632 31.008 36.1641 30.9911C47.4134 30.9605 47.4391 30.9598 47.7418 30.7169C48.3665 30.2156 48.4537 29.9308 49.2189 25.8891C49.624 23.7502 50.1904 20.778 50.4777 19.2843C50.765 17.7905 51 16.3392 51 16.0591C51 15.3869 50.7476 14.8419 50.2735 14.4901L49.8876 14.2036L35.7853 14.1732L21.6829 14.1429L21.5212 13.3587C21.4323 12.9274 21.3006 12.2341 21.2286 11.8181C21.0082 10.5432 20.7038 10.107 19.7262 9.66532C19.4045 9.51986 18.4666 9.08081 17.642 8.68947C16.0326 7.92576 15.6094 7.84221 15.2396 8.21528ZM49.2101 16.0946C49.2374 16.1426 48.7089 19.0619 48.0358 22.582C47.3627 26.1021 46.8114 28.9952 46.8108 29.0112C46.81 29.0273 41.7895 29.0403 35.6541 29.0403H24.4987L24.1083 26.9748C23.8937 25.8387 23.3521 22.9732 22.9049 20.6068C22.4575 18.2404 22.1152 16.2374 22.1442 16.1558C22.1865 16.0365 24.8475 16.0073 35.6788 16.0073C43.0938 16.0073 49.1829 16.0465 49.2101 16.0946Z" fill="#0559FF"/>
<path fill-rule="evenodd" clip-rule="evenodd" d="M29.0807 37.2005C28.4083 37.4061 27.8653 37.7914 27.4219 38.3775C26.2317 39.9506 26.5767 42.2585 28.1739 43.407C28.7233 43.802 28.8565 43.845 29.6726 43.8915C30.4577 43.936 30.6402 43.9067 31.1505 43.6536C31.8402 43.3117 32.4246 42.6945 32.7629 41.9509C33.0973 41.2161 33.1027 39.902 32.7747 39.126C32.1438 37.6334 30.4875 36.7701 29.0807 37.2005ZM31.235 40.5103C31.235 39.992 31.1908 39.8827 30.8178 39.4787C30.4754 39.1079 30.3263 39.0275 29.9851 39.0297C28.8733 39.0368 28.2187 40.0943 28.6417 41.2002C28.7947 41.6 29.4546 42.0525 29.885 42.0525C30.638 42.0525 31.235 41.3706 31.235 40.5103Z" fill="#1049A1"/>
<path fill-rule="evenodd" clip-rule="evenodd" d="M40.4703 37.2005C39.7979 37.4061 39.255 37.7914 38.8115 38.3775C37.6213 39.9506 37.9663 42.2585 39.5636 43.407C40.113 43.802 40.2461 43.845 41.0623 43.8915C41.8473 43.936 42.0299 43.9067 42.5401 43.6536C43.2299 43.3117 43.8143 42.6945 44.1525 41.9509C44.4869 41.2161 44.4924 39.902 44.1644 39.126C43.5334 37.6334 41.8772 36.7701 40.4703 37.2005ZM42.6246 40.5103C42.6246 39.992 42.5804 39.8827 42.2075 39.4787C41.865 39.1079 41.7159 39.0275 41.3747 39.0297C40.263 39.0368 39.6084 40.0943 40.0313 41.2002C40.1843 41.6 40.8443 42.0525 41.2746 42.0525C42.0276 42.0525 42.6246 41.3706 42.6246 40.5103Z" fill="#1049A1"/>
<path d="M28.4312 19.9856C28.4312 19.8108 28.5314 19.5299 28.6539 19.3613L28.8765 19.0547H35.6043H42.332L42.5807 19.3077C42.9033 19.6359 42.9179 20.3043 42.6103 20.6618L42.3912 20.9166H35.6339H28.8765L28.6539 20.6099C28.5314 20.4413 28.4312 20.1604 28.4312 19.9856Z" fill="#1049A1"/>
<path d="M29.0757 25.168C29.0757 24.9067 29.3643 24.3259 29.5301 24.2536C29.6052 24.2209 32.383 24.19 35.7028 24.185L41.7391 24.1758L41.9618 24.4824C42.2633 24.8974 42.2471 25.3987 41.9207 25.752L41.6571 26.0376H35.6805H29.7038L29.3898 25.6975C29.217 25.5104 29.0757 25.2722 29.0757 25.168Z" fill="#1049A1"/>
</svg>
