<svg width="53" height="46" viewBox="0 0 53 46" fill="none" xmlns="http://www.w3.org/2000/svg">
<circle opacity="0.1" cx="20" cy="20" r="20" fill="#0559FF"/>
<path fill-rule="evenodd" clip-rule="evenodd" d="M15.9251 10.1261C15.7451 10.2062 15.4675 10.4267 15.308 10.6161C14.7389 11.2925 14.992 12.5144 15.7916 12.9509C16.1004 13.1196 16.525 13.1508 19.1499 13.1976L22.1547 13.2513L22.1809 22.6951L22.2071 32.1388L21.5402 32.4491C21.1335 32.6382 20.6361 32.9964 20.2656 33.367C17.4843 36.1483 18.7997 40.8214 22.6413 41.8068C24.0593 42.1705 25.6239 41.8341 26.8521 40.9012C28.0095 40.0222 28.6987 38.7362 28.8305 37.2095L28.8931 36.4851H31.056C32.5953 36.4851 33.2561 36.448 33.3477 36.3563C33.5518 36.1523 33.5042 35.6489 33.269 35.523C33.1452 35.4568 32.172 35.412 30.8594 35.412H28.6574L28.4377 34.9154C28.3169 34.6423 28.2181 34.4008 28.2181 34.3788C28.2181 34.3568 30.6568 34.3388 33.6375 34.3388C36.6182 34.3388 39.0569 34.3568 39.0569 34.3788C39.0569 34.4008 38.9581 34.6423 38.8373 34.9154L38.6176 35.412H37.0735C35.2824 35.412 34.9789 35.4862 34.9789 35.9244C34.9789 36.4464 35.1065 36.4851 36.8248 36.4851H38.413L38.4193 36.9949C38.4285 37.7557 38.747 38.8387 39.167 39.5373C40.205 41.2637 42.3093 42.2171 44.3205 41.8723C46.6535 41.4722 48.5007 39.3187 48.5007 36.9992V36.4851H49.15C49.9121 36.4851 50.3119 36.3069 50.7047 35.7918C51.2429 35.0862 51.0238 34.0471 50.2229 33.5074C49.9142 33.2995 49.724 33.2657 48.8604 33.2657H47.8568L47.8438 29.8047C47.8367 27.9012 47.8415 25.712 47.8542 24.9399C47.874 23.7516 47.85 23.5085 47.6985 23.357C47.4736 23.1321 47.1711 23.1279 46.9522 23.3466C46.8216 23.4773 46.7837 23.7554 46.7837 24.5819V25.6486L42.2496 25.6206L37.7155 25.5926V22.3195V19.0463H39.0569H40.3984L40.452 20.7794C40.5221 23.044 40.4579 22.9634 42.1928 22.9634C42.8958 22.9634 43.5594 22.916 43.6673 22.8583C43.9991 22.6807 44.1008 22.1357 44.1008 20.5328V18.9927H45.4422H46.7837V20.1492C46.7837 21.3761 46.9147 21.7829 47.3097 21.7829C47.7569 21.7829 47.8568 21.4672 47.8568 20.0545C47.8568 18.5576 47.7761 18.3313 47.1486 18.0691C46.6087 17.8436 37.8209 17.8502 37.2789 18.0766C36.6647 18.3332 36.5887 18.6643 36.5887 21.0819V23.178H31.8907C27.721 23.178 27.1645 23.1976 26.9428 23.353C26.4178 23.7207 26.3937 23.942 26.3937 28.3908C26.3937 32.2975 26.3829 32.533 26.2059 32.4613C26.1026 32.4195 25.8867 32.3376 25.7262 32.2794L25.4343 32.1737L25.4042 22.4443L25.3742 12.7147L25.0646 12.0443C24.7101 11.2768 24.0492 10.6098 23.3004 10.2637C22.8253 10.0442 22.6241 10.0304 19.5255 10.0062C16.9582 9.98612 16.1818 10.012 15.9251 10.1261ZM20.8133 11.5879V12.1245H18.6133C16.5564 12.1245 16.3994 12.1105 16.1987 11.9099C15.9403 11.6514 15.9361 11.5968 16.1512 11.2899C16.3147 11.0563 16.3648 11.0513 18.5658 11.0513H20.8133V11.5879ZM22.8289 11.218C23.335 11.4294 23.7738 11.8449 24.0695 12.3928L24.301 12.822L24.3301 22.3463L24.3592 31.8706H23.8204H23.2815V22.4963V13.1221L23.0376 12.7602C22.8087 12.4205 22.5121 12.2111 22.0742 12.0801C21.9313 12.0374 21.8864 11.9078 21.8864 11.5376C21.8864 11.0888 21.9074 11.0513 22.1582 11.0513C22.3077 11.0513 22.6094 11.1264 22.8289 11.218ZM43.0039 20.4683L43.0338 21.8902H42.2795H41.5252V20.4365V18.9829L42.2496 19.0146L42.974 19.0463L43.0039 20.4683ZM30.2571 25.9563C30.2571 28.2219 30.2071 28.1554 31.9484 28.2036C33.1841 28.2378 33.241 28.2296 33.541 27.9717L33.8521 27.7043L33.8864 25.9777L33.9206 24.2512H35.2546H36.5887V28.7584V33.2657H32.0278H27.4669V28.7584V24.2512H28.862H30.2571V25.9563ZM32.8089 25.7267L32.8389 27.1487H32.0845H31.3302V25.695V24.2414L32.0546 24.273L32.779 24.3048L32.8089 25.7267ZM40.452 28.4028C40.452 30.631 40.4135 30.5828 42.1948 30.5828C42.8967 30.5828 43.5594 30.5354 43.6673 30.4777C43.997 30.3013 44.1008 29.7574 44.1008 28.2058V26.7194H45.4422H46.7837V29.8915C46.7837 32.4022 46.7556 33.0463 46.6495 32.9802C45.6664 32.3687 45.2424 32.1746 44.5554 32.0218C43.1495 31.709 41.8066 31.9695 40.6132 32.7865L39.9134 33.2657H38.7876H37.6618V29.9925V26.7194H39.0569H40.452V28.4028ZM43.0039 28.1413L42.974 29.5633L42.2496 29.595L41.5252 29.6267V28.1731V26.7194H42.2795H43.0338L43.0039 28.1413ZM25.0441 33.1556C26.2777 33.58 27.2668 34.6083 27.6205 35.8339C28.3757 38.4502 26.2865 41.0372 23.5599 40.8623C22.1044 40.7688 20.8966 39.9605 20.2499 38.6469C19.9304 37.9979 19.9011 37.8525 19.9011 36.9166C19.9011 36.0319 19.9397 35.8124 20.1896 35.2793C21.0485 33.4467 23.18 32.5142 25.0441 33.1556ZM45.1275 33.3274C45.9302 33.7072 46.7155 34.49 47.0854 35.2793C47.335 35.812 47.3739 36.032 47.3739 36.9144C47.3739 37.791 47.3346 38.0166 47.0938 38.5241C46.6782 39.3999 46.0282 40.0697 45.197 40.4787C44.5332 40.8052 44.4044 40.8309 43.4588 40.8237C42.6656 40.8178 42.3294 40.7665 41.9545 40.5942C40.414 39.8869 39.4867 38.4823 39.4897 36.8607C39.491 36.17 39.9044 35.002 40.3442 34.4469C41.4511 33.0491 43.5172 32.5655 45.1275 33.3274ZM49.852 34.6071C50.0148 34.8556 50.0148 34.8951 49.852 35.1437C49.6947 35.3839 49.6038 35.412 48.9862 35.412H48.2962L48.0765 34.9154C47.9556 34.6423 47.8568 34.4008 47.8568 34.3788C47.8568 34.3568 48.2662 34.3388 48.7665 34.3388C49.6185 34.3388 49.6874 34.3559 49.852 34.6071Z" fill="#0559FF"/>
<path fill-rule="evenodd" clip-rule="evenodd" d="M23.1768 34.0586C21.8356 34.2572 20.8135 35.5036 20.8135 36.9406C20.8135 38.643 22.0662 39.8964 23.7432 39.8724C24.6079 39.8599 25.2636 39.5889 25.8104 39.018C26.9842 37.7926 26.9315 35.8789 25.6934 34.7626C25.007 34.1439 24.1742 33.9109 23.1768 34.0586ZM24.9802 38.3645C25.8882 37.4565 25.8225 36.2251 24.8236 35.4305C24.3974 35.0912 23.6785 34.9612 23.1341 35.1247C22.3325 35.3655 21.7158 36.4061 21.8728 37.2528C22.1441 38.7172 23.9732 39.3715 24.9802 38.3645Z" fill="#1049A1"/>
<path fill-rule="evenodd" clip-rule="evenodd" d="M23.1768 34.0586C21.8356 34.2572 20.8135 35.5036 20.8135 36.9406C20.8135 38.643 22.0662 39.8964 23.7432 39.8724C24.6079 39.8599 25.2636 39.5889 25.8104 39.018C26.9842 37.7926 26.9315 35.8789 25.6934 34.7626C25.007 34.1439 24.1742 33.9109 23.1768 34.0586ZM24.9802 38.3645C25.8882 37.4565 25.8225 36.2251 24.8236 35.4305C24.3974 35.0912 23.6785 34.9612 23.1341 35.1247C22.3325 35.3655 21.7158 36.4061 21.8728 37.2528C22.1441 38.7172 23.9732 39.3715 24.9802 38.3645Z" fill="#1049A1"/>
<path fill-rule="evenodd" clip-rule="evenodd" d="M42.9229 34.0586C41.5816 34.2572 40.5596 35.5036 40.5596 36.9406C40.5596 38.643 41.8123 39.8964 43.4893 39.8724C44.354 39.8599 45.0097 39.5889 45.5565 39.018C46.7303 37.7926 46.6776 35.8789 45.4395 34.7626C44.7531 34.1439 43.9203 33.9109 42.9229 34.0586ZM44.7263 38.3645C45.6343 37.4565 45.5686 36.2251 44.5697 35.4305C44.1435 35.0912 43.4246 34.9612 42.8802 35.1247C42.0786 35.3655 41.4619 36.4061 41.6189 37.2528C41.8902 38.7172 43.7193 39.3715 44.7263 38.3645Z" fill="#1049A1"/>
<circle cx="23.7998" cy="37" r="4.5" stroke="#1049A1"/>
<circle cx="43.5" cy="37" r="4.5" stroke="#1049A1"/>
</svg>
