<svg width="30" height="30" viewBox="0 0 30 30" fill="none" xmlns="http://www.w3.org/2000/svg">
<path fill-rule="evenodd" clip-rule="evenodd" d="M4.28931 1.44509C3.47362 1.66431 2.87045 2.37354 2.77122 3.23016C2.71223 3.7398 2.71335 20.6885 2.77239 20.8945C2.88789 21.2971 3.3443 21.2971 3.4598 20.8945C3.4891 20.7922 3.50677 17.6132 3.50677 12.1105V3.29286L3.63267 2.8426C3.76863 2.56976 3.94185 2.40045 4.25805 2.23128L4.45906 2.12375L11.1739 2.11193C16.1222 2.10319 17.917 2.08527 17.9963 2.04385C18.21 1.93212 18.2244 1.58778 18.0217 1.43385C17.8886 1.33276 4.667 1.34361 4.28931 1.44509ZM19.2833 1.46169C19.1475 1.5975 19.1495 1.86907 19.2872 1.99741C19.3866 2.09005 19.4724 2.09537 21.0819 2.10919C22.7162 2.12326 22.7789 2.12731 22.9732 2.23128C23.2895 2.40045 23.4627 2.56976 23.5986 2.8426L23.7245 3.09522V13.8686V24.642L23.5986 24.8946C23.4627 25.1674 23.2895 25.3368 22.9732 25.5059L22.7722 25.6134L13.7205 25.6261C7.6581 25.6347 4.60727 25.6224 4.48289 25.5889C4.19135 25.5104 3.84183 25.2467 3.67911 24.9826L3.53119 24.7425L3.50209 23.5664C3.48607 22.9196 3.46961 22.3857 3.46546 22.38C3.24033 22.0718 2.87294 22.1195 2.77239 22.47C2.71496 22.6703 2.71418 24.0145 2.77122 24.507C2.87211 25.3779 3.48026 26.0815 4.31739 26.296C4.58002 26.3632 5.62822 26.3702 13.7414 26.3588L22.8699 26.346L23.1553 26.2309C23.7004 26.011 24.125 25.5682 24.3683 24.9658L24.4815 24.6856V13.8686V3.05161L24.3683 2.7714C24.1249 2.16863 23.6997 1.7254 23.1553 1.50686C22.8775 1.39537 22.8234 1.3919 21.1268 1.37677C19.4221 1.36153 19.3816 1.36338 19.2833 1.46169Z" fill="#0559FF"/>
<path fill-rule="evenodd" clip-rule="evenodd" d="M4.96804 3.50142C4.7349 3.62531 4.58971 3.85528 4.55313 4.15859C4.53629 4.29826 4.52935 5.67614 4.53775 7.22056C4.5524 9.92612 4.5565 10.0346 4.65061 10.1944C4.70433 10.2856 4.8103 10.4065 4.88614 10.463L5.02405 10.5658H13.6119H22.1997L22.3376 10.463C22.4134 10.4065 22.5194 10.2856 22.5731 10.1944C22.6679 10.0334 22.6708 9.94077 22.6708 7.0008C22.6708 4.23514 22.681 3.85006 22.4937 3.6644C22.4531 3.62416 22.4032 3.59329 22.3419 3.54957L22.1824 3.43583L13.6607 3.42323C5.43349 3.41102 5.13305 3.41376 4.96804 3.50142ZM21.9138 9.85765V7.0008V4.14394H13.6119H5.30988V7.0008V9.85765H13.6119H21.9138Z" fill="#FF8800"/>
<path fill-rule="evenodd" clip-rule="evenodd" d="M19.4934 11.4372C19.2756 11.532 19.0912 11.7766 19.0571 12.0158C19.0408 12.1298 19.034 14.8861 19.0419 18.1408C19.0563 24.0302 19.0568 24.0591 19.157 24.1933C19.2124 24.2675 19.3184 24.3735 19.3926 24.4289C19.5212 24.5249 19.5901 24.5295 20.879 24.5295C22.216 24.5295 22.2323 24.5283 22.3901 24.4158C22.4421 24.3787 22.486 24.358 22.523 24.3287C22.7381 24.158 22.719 23.6923 22.719 17.9612C22.719 11.9636 22.7184 11.9292 22.6186 11.7592C22.5634 11.6652 22.4315 11.5392 22.3255 11.4792C22.14 11.3741 22.0875 11.3701 20.8876 11.3712C19.9616 11.372 19.6042 11.3889 19.4934 11.4372ZM21.962 23.8214V17.9612V12.101H20.8632H19.7644V17.9612V23.8214H20.8632H21.962Z" fill="#0559FF"/>
<path fill-rule="evenodd" clip-rule="evenodd" d="M4.9276 11.474C4.82162 11.5346 4.68977 11.6612 4.63458 11.7552C4.5395 11.917 4.53418 12.0012 4.53418 13.3459V14.7657L4.65402 14.9406C4.89698 15.295 4.9002 15.2957 6.51581 15.2957H7.96026L8.14476 15.1549C8.45413 14.9189 8.46541 14.8538 8.46541 13.3022C8.46541 11.9451 8.46311 11.9127 8.35553 11.7546C8.29507 11.6658 8.18363 11.5472 8.10789 11.491C7.97647 11.3936 7.90405 11.3883 6.54516 11.3763C5.14403 11.3639 5.11698 11.3656 4.9276 11.474ZM7.73288 14.5875V13.3423V12.097H6.512H5.29112V13.3423V14.5875H6.512H7.73288Z" fill="#0559FF"/>
<path fill-rule="evenodd" clip-rule="evenodd" d="M14.597 11.474C14.4911 11.5346 14.3592 11.6612 14.304 11.7552C14.2089 11.917 14.2036 12.0012 14.2036 13.3459V14.7657L14.3235 14.9406C14.5664 15.295 14.5696 15.2957 16.1852 15.2957H17.6297L17.8142 15.1549C18.1236 14.9189 18.1348 14.8538 18.1348 13.3022C18.1348 11.9451 18.1325 11.9127 18.025 11.7546C17.9645 11.6658 17.8531 11.5472 17.7773 11.491C17.6459 11.3936 17.5735 11.3883 16.2146 11.3763C14.8135 11.3639 14.7864 11.3656 14.597 11.474ZM17.4023 14.5875V13.3423V12.097H16.1814H14.9606V13.3423V14.5875H16.1814H17.4023Z" fill="#0559FF"/>
<path fill-rule="evenodd" clip-rule="evenodd" d="M9.76256 11.474C9.65658 11.5346 9.52473 11.6612 9.46955 11.7552C9.37446 11.917 9.36914 12.0012 9.36914 13.3459V14.7657L9.48898 14.9406C9.73194 15.295 9.73516 15.2957 11.3508 15.2957H12.7952L12.9797 15.1549C13.2891 14.9189 13.3004 14.8538 13.3004 13.3022C13.3004 11.9451 13.2981 11.9127 13.1905 11.7546C13.13 11.6658 13.0186 11.5472 12.9428 11.491C12.8114 11.3936 12.739 11.3883 11.3801 11.3763C9.97899 11.3639 9.95194 11.3656 9.76256 11.474ZM12.5678 14.5875V13.3423V12.097H11.347H10.1261V13.3423V14.5875H11.347H12.5678Z" fill="#0559FF"/>
<path fill-rule="evenodd" clip-rule="evenodd" d="M4.9276 16.0677C4.82162 16.1284 4.68977 16.2549 4.63458 16.3489C4.5395 16.5107 4.53418 16.5949 4.53418 17.9396V19.3594L4.65402 19.5343C4.89698 19.8888 4.9002 19.8894 6.51581 19.8894H7.96026L8.14476 19.7487C8.45413 19.5127 8.46541 19.4476 8.46541 17.896C8.46541 16.5389 8.46311 16.5064 8.35553 16.3484C8.29507 16.2596 8.18363 16.141 8.10789 16.0848C7.97647 15.9873 7.90405 15.982 6.54516 15.97C5.14403 15.9577 5.11698 15.9593 4.9276 16.0677ZM7.73288 19.1813V17.936V16.6907H6.512H5.29112V17.936V19.1813H6.512H7.73288Z" fill="#0559FF"/>
<path fill-rule="evenodd" clip-rule="evenodd" d="M14.597 16.0677C14.4911 16.1284 14.3592 16.2549 14.304 16.3489C14.2089 16.5107 14.2036 16.5949 14.2036 17.9396V19.3594L14.3235 19.5343C14.5664 19.8888 14.5696 19.8894 16.1852 19.8894H17.6297L17.8142 19.7487C18.1236 19.5127 18.1348 19.4476 18.1348 17.896C18.1348 16.5389 18.1325 16.5064 18.025 16.3484C17.9645 16.2596 17.8531 16.141 17.7773 16.0848C17.6459 15.9873 17.5735 15.982 16.2146 15.97C14.8135 15.9577 14.7864 15.9593 14.597 16.0677ZM17.4023 19.1813V17.936V16.6907H16.1814H14.9606V17.936V19.1813H16.1814H17.4023Z" fill="#0559FF"/>
<path fill-rule="evenodd" clip-rule="evenodd" d="M9.76256 16.0677C9.65658 16.1284 9.52473 16.2549 9.46955 16.3489C9.37446 16.5107 9.36914 16.5949 9.36914 17.9396V19.3594L9.48898 19.5343C9.73194 19.8888 9.73516 19.8894 11.3508 19.8894H12.7952L12.9797 19.7487C13.2891 19.5127 13.3004 19.4476 13.3004 17.896C13.3004 16.5389 13.2981 16.5064 13.1905 16.3484C13.13 16.2596 13.0186 16.141 12.9428 16.0848C12.8114 15.9873 12.739 15.982 11.3801 15.97C9.97899 15.9577 9.95194 15.9593 9.76256 16.0677ZM12.5678 19.1813V17.936V16.6907H11.347H10.1261V17.936V19.1813H11.347H12.5678Z" fill="#0559FF"/>
<path fill-rule="evenodd" clip-rule="evenodd" d="M4.9276 20.6537C4.82162 20.7143 4.68977 20.8408 4.63458 20.9348C4.5395 21.0967 4.53418 21.1809 4.53418 22.5256V23.9454L4.65402 24.1203C4.89698 24.4747 4.9002 24.4753 6.51581 24.4753H7.96026L8.14476 24.3346C8.45413 24.0986 8.46541 24.0335 8.46541 22.4819C8.46541 21.1248 8.46311 21.0923 8.35553 20.9343C8.29507 20.8455 8.18363 20.7269 8.10789 20.6707C7.97647 20.5733 7.90405 20.5679 6.54516 20.556C5.14403 20.5436 5.11698 20.5452 4.9276 20.6537ZM7.73288 23.7672V22.5219V21.2766H6.512H5.29112V22.5219V23.7672H6.512H7.73288Z" fill="#0559FF"/>
<path fill-rule="evenodd" clip-rule="evenodd" d="M14.597 20.6537C14.4911 20.7143 14.3592 20.8408 14.304 20.9348C14.2089 21.0967 14.2036 21.1809 14.2036 22.5256V23.9454L14.3235 24.1203C14.5664 24.4747 14.5696 24.4753 16.1852 24.4753H17.6297L17.8142 24.3346C18.1236 24.0986 18.1348 24.0335 18.1348 22.4819C18.1348 21.1248 18.1325 21.0923 18.025 20.9343C17.9645 20.8455 17.8531 20.7269 17.7773 20.6707C17.6459 20.5733 17.5735 20.5679 16.2146 20.556C14.8135 20.5436 14.7864 20.5452 14.597 20.6537ZM17.4023 23.7672V22.5219V21.2766H16.1814H14.9606V22.5219V23.7672H16.1814H17.4023Z" fill="#0559FF"/>
<path fill-rule="evenodd" clip-rule="evenodd" d="M9.76256 20.6537C9.65658 20.7143 9.52473 20.8408 9.46955 20.9348C9.37446 21.0967 9.36914 21.1809 9.36914 22.5256V23.9454L9.48898 24.1203C9.73194 24.4747 9.73516 24.4753 11.3508 24.4753H12.7952L12.9797 24.3346C13.2891 24.0986 13.3004 24.0335 13.3004 22.4819C13.3004 21.1248 13.2981 21.0923 13.1905 20.9343C13.13 20.8455 13.0186 20.7269 12.9428 20.6707C12.8114 20.5733 12.739 20.5679 11.3801 20.556C9.97899 20.5436 9.95194 20.5452 9.76256 20.6537ZM12.5678 23.7672V22.5219V21.2766H11.347H10.1261V22.5219V23.7672H11.347H12.5678Z" fill="#0559FF"/>
</svg>
