<svg width="52" height="46" viewBox="0 0 52 46" fill="none" xmlns="http://www.w3.org/2000/svg">
<circle opacity="0.1" cx="20" cy="20" r="20" fill="#0559FF"/>
<path fill-rule="evenodd" clip-rule="evenodd" d="M19.0011 8.60853C19.0027 9.4935 19.1933 10.5312 19.4947 11.2951C20.5108 13.8707 22.8023 15.6953 25.5398 16.1084C25.806 16.1486 27.007 16.1762 28.4875 16.1762H30.986L31.0241 16.4415C31.0926 16.9181 30.9587 24.9741 30.9587 24.9741C30.9587 24.9741 29.3152 25.045 25.9013 25.0553L20.9103 25.0702L20.9217 27.5355C20.9279 28.8915 20.9339 30.0219 20.9348 30.0477C20.9357 30.0734 21.2291 30.0945 21.5869 30.0945H22.2373L22.2752 30.3285C22.296 30.4573 22.3977 31.1945 22.5012 31.9669C22.6789 33.2918 22.9366 35.1841 23.0622 36.0862C23.0933 36.3093 23.1466 36.7025 23.1806 36.96C23.2147 37.2175 23.2864 37.7511 23.3401 38.1459C23.3938 38.5406 23.4644 39.0602 23.4969 39.3005C23.5295 39.5408 23.5873 39.9621 23.6253 40.2367C23.6633 40.5113 23.718 40.9186 23.7468 41.1417C23.8706 42.1015 24.066 43.5015 24.1083 43.7319L24.1541 43.9815L31.6153 43.9974C35.7189 44.0061 39.097 43.9921 39.1222 43.9662C39.1617 43.9255 39.2977 43.0273 39.5546 41.1105C39.5913 40.8359 39.6481 40.4286 39.6805 40.2055C39.713 39.9824 39.8104 39.2662 39.897 38.614C39.9835 37.9617 40.0823 37.2315 40.1164 36.9912C40.1506 36.7509 40.2061 36.3577 40.2399 36.1174C40.3153 35.5804 40.5894 33.5511 40.6784 32.8719C40.7143 32.5973 40.7684 32.2181 40.7986 32.0293C40.8288 31.8405 40.887 31.4052 40.9279 31.0619C41.0481 30.0541 40.9834 30.1309 41.7431 30.0945L42.394 30.0633L42.4103 27.5512L42.4267 25.0393L37.4167 25.0397C34.6612 25.04 32.3854 25.0189 32.3593 24.9928C32.3125 24.946 32.2963 24.1535 32.3024 22.2147L32.3055 21.2317L34.8198 21.2315C37.5879 21.2312 38.0236 21.193 39.038 20.8618C40.0919 20.5177 40.9162 20.0507 41.6992 19.354C43.3313 17.902 44.1866 16.1122 44.2799 13.9537L44.3187 13.0555L41.0138 13.0565C37.4537 13.0576 37.2884 13.0701 36.1971 13.4226C35.7074 13.5807 34.7792 14.0441 34.2981 14.3706C33.9135 14.6315 32.8494 15.6496 32.5086 16.0826L32.3121 16.3322L32.3088 15.7153C32.302 14.4392 31.9352 12.9846 31.3566 11.9399C30.9812 11.2621 30.6531 10.8342 30.0289 10.2083C29.129 9.30595 28.2203 8.74235 27.0299 8.34802C26.0438 8.02141 25.7492 8 22.2401 8H19L19.0011 8.60853ZM25.1423 9.25502C26.7332 9.39969 28.0145 9.97939 29.1277 11.0583C29.7928 11.7029 30.4065 12.6813 30.7132 13.586C30.838 13.9543 30.9973 14.8093 30.9541 14.8792C30.9374 14.906 29.8469 14.9279 28.5308 14.9279C25.9885 14.9279 25.4867 14.8865 24.6221 14.6054C23.7095 14.3087 22.6202 13.6234 21.9947 12.9523C21.1359 12.0311 20.4817 10.699 20.3382 9.57969L20.2967 9.2557L20.601 9.23205C21.322 9.17594 24.4463 9.19173 25.1423 9.25502ZM42.9865 14.4754C42.9842 14.903 42.6903 15.851 42.3551 16.5119C41.9081 17.3934 41.0973 18.3221 40.309 18.8555C39.762 19.2257 38.8761 19.6309 38.2399 19.802C37.7342 19.938 37.5833 19.9459 35.0615 19.9684C33.5163 19.9822 32.3904 19.9683 32.3571 19.9351C32.3228 19.9009 32.3488 19.6559 32.4222 19.3197C32.9449 16.9269 34.7855 15.024 37.1155 14.4677C37.7241 14.3224 37.7068 14.3232 40.4419 14.3132L42.9874 14.3038L42.9865 14.4754ZM41.1447 27.5043C41.1447 28.1565 41.1201 28.7253 41.0902 28.7682C41.047 28.83 39.0813 28.8462 31.6175 28.8462C23.0869 28.8462 22.1956 28.8369 22.1613 28.7475C22.1104 28.6148 22.1126 26.3813 22.1637 26.3302C22.1858 26.3081 26.4656 26.2964 31.6743 26.3042L41.1447 26.3184V27.5043ZM39.753 30.3441C39.7434 30.4643 39.7079 30.7451 39.6741 30.9683C39.6185 31.3345 39.4079 32.8783 39.2357 34.1826C39.1994 34.4572 39.1423 34.8645 39.1088 35.0876C39.0753 35.3107 38.9634 36.1252 38.86 36.8976C38.7566 37.67 38.643 38.5125 38.6074 38.77C38.5719 39.0275 38.519 39.4207 38.4899 39.6438C38.4607 39.8669 38.3915 40.3725 38.336 40.7672C38.2806 41.162 38.2053 41.7237 38.1687 42.0155C38.132 42.3073 38.0759 42.5952 38.0439 42.6553C37.989 42.7582 37.6199 42.7645 31.6461 42.7645H25.3065L25.2499 42.624C25.2187 42.5468 25.1197 41.9219 25.0298 41.2353C24.94 40.5488 24.8405 39.8045 24.8088 39.5814C24.6662 38.5757 24.6099 38.1683 24.468 37.116C24.2225 35.2956 24.0632 34.1276 23.9021 32.9655C23.8187 32.3648 23.719 31.6345 23.6804 31.3428C23.6417 31.051 23.5874 30.6719 23.5596 30.5005C23.5319 30.3291 23.5223 30.1674 23.5384 30.1414C23.5546 30.1153 27.2134 30.1012 31.6691 30.1098L39.7704 30.1257L39.753 30.3441Z" fill="#0559FF"/>
<path d="M31.6001 25V20.5M31.6001 15.5C31.7668 13.6667 30.8001 9.7 25.6001 8.5H19.6001C19.6001 10.5 20.8001 14.7 25.6001 15.5H31.6001ZM31.6001 15.5V20M31.6001 20.5H37.1001C39.2668 20.3333 43.6001 18.7 43.6001 13.5H37.6001C35.7668 13.8333 32.0001 16 31.6001 20M31.6001 20.5V20" stroke="#1049A1" stroke-width="1.2"/>
</svg>
