<svg width="53" height="46" viewBox="0 0 53 46" fill="none" xmlns="http://www.w3.org/2000/svg">
<circle opacity="0.1" cx="20" cy="20" r="20" fill="#0559FF"/>
<path fill-rule="evenodd" clip-rule="evenodd" d="M37.0517 16.5664L32.3231 21.293L30.9639 19.9323C29.6926 18.6596 29.5876 18.5716 29.3416 18.5716C29.0894 18.5716 28.9324 18.7197 25.4916 22.2018C21.7678 25.9703 21.7954 25.9381 21.9491 26.3386C22.0135 26.5064 22.3772 26.674 22.5712 26.6253C22.6627 26.6023 24.2335 25.0875 26.0617 23.2589L29.3857 19.9344L30.7519 21.294C31.9937 22.5299 32.1404 22.6536 32.3639 22.6536C32.594 22.6536 32.9323 22.3312 37.6055 17.658C42.1925 13.071 42.6012 12.643 42.6012 12.4269C42.6012 12.1111 42.3303 11.8398 42.0149 11.8398C41.7998 11.8398 41.3848 12.2351 37.0517 16.5664Z" fill="#1049A1" stroke="#1049A1" stroke-width="0.3"/>
<path d="M17.751 13.4657L17.6025 13.6544V26.5353V39.4163V42.0334C17.6025 43.5002 17.6031 43.5054 17.7784 43.6806C17.8891 43.7914 18.036 43.8564 18.1755 43.8564C18.315 43.8564 18.4618 43.7914 18.5726 43.6806C18.7478 43.5054 18.7484 43.5002 18.7484 42.0334V39.4163V26.4898C18.7484 13.6589 18.7473 13.5623 18.6051 13.4202C18.3861 13.2012 17.9403 13.2249 17.751 13.4657Z" fill="#1049A1" stroke="#1049A1" stroke-width="0.3"/>
<path d="M28.7771 34.219V39.4165V40.4141H27.5955V39.3807L27.6139 34.5647L27.6323 29.7486H25.8034C24.4062 29.7486 23.9664 29.7697 23.9403 29.8381C23.9215 29.8874 23.9144 32.0546 23.9246 34.6542L23.9432 39.3807V40.4141H22.7781L22.7588 39.4165L22.7781 34.1906L22.7973 28.9648L22.9604 28.8016C23.1233 28.6387 23.1255 28.6385 25.7384 28.6181L28.3533 28.5977L28.5652 28.8095L28.7771 29.0214V34.219Z" fill="#0559FF" stroke="#0559FF" stroke-width="0.3"/>
<path d="M39.0183 30.1369V35.3345V40.056L37.8367 39.877V35.2987L37.8551 30.4826L37.8735 25.6665H36.0446C34.6474 25.6665 34.2076 25.6877 34.1815 25.7561C34.1627 25.8053 34.1556 27.9725 34.1658 30.5721L34.1844 35.2987V40.056H33V35.3345L33.0193 30.1086L33.0385 24.8827L33.2016 24.7196C33.3645 24.5567 33.3667 24.5565 35.9796 24.536L38.5945 24.5156L38.8064 24.7275L39.0183 24.9394V30.1369Z" fill="#0559FF" stroke="#0559FF" stroke-width="0.3"/>
<path d="M48.6145 26.0549V31.2525V40.3066H47.4697L47.4329 31.2167L47.4513 26.4006L47.4697 21.5845H45.6408C44.2436 21.5845 43.8038 21.6056 43.7777 21.674C43.7589 21.7233 43.7518 23.8905 43.762 26.4901L43.7806 31.2167V40.3066H42.5962V31.2525L42.6155 26.0266L42.6347 20.8007L42.7978 20.6376C42.9607 20.4746 42.9629 20.4745 45.5758 20.454L48.1907 20.4336L48.4026 20.6454L48.6145 20.8573V26.0549Z" fill="#0559FF" stroke="#0559FF" stroke-width="0.3"/>
<path d="M51.0979 39.7735L50.8717 39.625H35.4304H19.989H16.8516C15.0934 39.625 15.0871 39.6256 14.8771 39.8008C14.7442 39.9116 14.6663 40.0584 14.6663 40.1979C14.6663 40.3374 14.7442 40.4842 14.8771 40.595C15.0871 40.7703 15.0934 40.7708 16.8516 40.7708H19.989H35.4849C50.8663 40.7708 50.982 40.7698 51.1524 40.6276C51.4149 40.4086 51.3865 39.9628 51.0979 39.7735Z" fill="#1049A1" stroke="#1049A1" stroke-width="0.3"/>
<path d="M41.8516 9.46473C42.5409 9.42055 43.1854 9.375 43.2839 9.36354C43.3824 9.35208 43.7393 9.3379 44.0771 9.33203H44.3865C44.7087 9.33203 45.0337 9.36354 45.0337 9.68581L44.8452 11.9775C44.6443 14.4205 44.6105 14.5726 44.2484 14.6635C44.0091 14.7236 43.6786 14.579 43.5848 14.3733C43.6681 13.3653 43.7979 10.531 43.7807 10.5179C43.7635 10.5049 43.0185 10.5416 42.1252 10.5996C40.6438 10.6957 40.4855 10.6949 40.3257 10.5902C39.9752 10.3605 40.0253 9.76516 40.4076 9.61842C40.5125 9.5781 41.1623 9.50899 41.8516 9.46473Z" fill="#1049A1" stroke="#1049A1" stroke-width="0.3"/>
</svg>
