<svg width="30" height="30" viewBox="0 0 30 30" fill="none" xmlns="http://www.w3.org/2000/svg">
<path fill-rule="evenodd" clip-rule="evenodd" d="M15.6154 4.48187C13.2591 5.00088 11.5831 6.97089 11.4647 9.36061L11.4363 9.93375L11.2589 9.9979C10.9181 10.1212 10.586 10.618 10.586 11.0049C10.586 11.2872 10.7154 11.5564 10.9695 11.8028L11.2345 12.0599L11.2358 12.4519C11.2375 12.9514 11.313 13.2794 11.4829 13.5261C11.6162 13.7195 12.0613 14.0067 12.2278 14.0067C12.2784 14.0067 12.327 14.0683 12.3452 14.1554C12.546 15.1154 12.8009 15.6921 13.288 16.2885C13.4656 16.506 13.7562 16.7934 13.9338 16.9273L14.2567 17.1707L14.26 17.6673C14.2628 18.0953 14.2502 18.1678 14.1686 18.1919C14.1165 18.2073 13.2465 18.3799 12.2351 18.5755C11.2237 18.771 10.1893 18.9773 9.93642 19.034C8.01081 19.465 6.7822 20.4751 6.38084 21.9572C6.2963 22.2694 6.28564 22.5935 6.28564 24.8508C6.28564 27.3332 6.28835 27.3987 6.40123 27.6428C6.55975 27.9857 6.87437 28.3195 7.20169 28.4923L7.47553 28.6368H16.8864H26.2973L26.5434 28.5229C26.9078 28.3544 27.1645 28.1026 27.3494 27.7324L27.5142 27.4026V24.8521C27.5142 22.5517 27.5045 22.2647 27.4151 21.9265C27.1562 20.9469 26.5566 20.2035 25.5796 19.6507C24.921 19.278 24.3259 19.1143 21.9583 18.6542C20.7156 18.4128 19.6685 18.2061 19.6313 18.1949C19.5834 18.1806 19.5636 18.0261 19.5636 17.6665V17.1583L19.7811 17.0077C20.1165 16.7752 20.6661 16.1642 20.9078 15.7551C21.1503 15.3445 21.393 14.6713 21.4392 14.281C21.4685 14.0332 21.4764 14.0238 21.7034 13.9631C21.9951 13.8851 22.3083 13.6154 22.4375 13.3311C22.5117 13.1676 22.5362 12.9788 22.5372 12.5635C22.5382 12.0634 22.5481 12.0097 22.645 11.9789C22.8304 11.9201 23.1232 11.5241 23.1811 11.2539C23.2941 10.7272 22.9601 10.0851 22.5152 9.9734C22.4001 9.94457 22.3898 9.90644 22.3583 9.3903C22.2379 7.42299 21.1513 5.76419 19.4284 4.91753C18.5991 4.51005 18.2044 4.42427 17.0487 4.40058C16.244 4.38409 15.9954 4.3982 15.6154 4.48187ZM16.4912 6.26691C16.5061 7.23553 16.5181 7.35441 16.6108 7.4568C16.7373 7.59628 17.0513 7.60937 17.1931 7.48097C17.2828 7.39979 17.2921 7.28821 17.2921 6.28411V5.17677L17.6052 5.21219C17.7774 5.23166 18.039 5.27742 18.1866 5.31382L18.4549 5.38002L18.4819 5.93229C18.5115 6.53637 18.5704 6.64573 18.8681 6.6493C19.1286 6.65244 19.2553 6.48996 19.2822 6.11823C19.2954 5.93532 19.324 5.78566 19.3457 5.78566C19.4259 5.78566 19.8713 6.13273 20.204 6.45459C21.0131 7.23737 21.4622 8.22968 21.5473 9.42291L21.581 9.89616H16.9134H12.2458L12.2802 9.36883C12.3538 8.24066 12.7875 7.26139 13.5527 6.49624C13.8515 6.19741 14.396 5.78566 14.4924 5.78566C14.5151 5.78566 14.5337 5.9206 14.5337 6.08557C14.5337 6.33193 14.5574 6.40927 14.6665 6.51825C14.8287 6.68051 15.0134 6.68765 15.2025 6.53891C15.3383 6.43209 15.345 6.4031 15.345 5.92012C15.345 5.63757 15.3691 5.39852 15.3995 5.3797C15.4715 5.33524 16.1433 5.20229 16.3289 5.1958L16.4744 5.19072L16.4912 6.26691ZM22.2914 10.7793C22.3465 10.8195 22.3896 10.9187 22.3896 11.0049C22.3896 11.3163 22.6474 11.3024 16.8792 11.3024H11.5651L11.4809 11.1822C11.3696 11.0233 11.3747 10.9458 11.5049 10.8156C11.6116 10.7089 11.6852 10.7074 16.9031 10.7074C21.2155 10.7074 22.2113 10.7207 22.2914 10.7793ZM21.7271 12.5556C21.7271 13.116 21.6687 13.1954 21.2565 13.1954C20.8396 13.1954 20.7278 13.3198 20.6765 13.8411C20.5894 14.7241 20.2707 15.4109 19.671 16.0078C19.0531 16.6228 18.3852 16.9734 17.5392 17.1268C16.7276 17.2739 15.9795 17.1495 15.1286 16.7258C14.7192 16.5219 14.5255 16.3818 14.1752 16.0361C13.5413 15.4104 13.237 14.764 13.1309 13.8178C13.1024 13.5639 13.0506 13.3657 12.9992 13.3143C12.9482 13.2634 12.7854 13.2202 12.5909 13.2061C12.1506 13.1743 12.0976 13.1059 12.0838 12.5527L12.0728 12.1135L16.8999 12.1136L21.7271 12.1137V12.5556ZM16.401 17.9633C17.1251 18.0524 17.9978 17.9345 18.6577 17.6584C18.744 17.6223 18.7524 17.6646 18.7524 18.1402C18.7524 18.7596 18.6921 18.9322 18.3469 19.3013C18.0891 19.5769 17.4832 20.021 17.1011 20.2144L16.8832 20.3247L16.4491 20.0618C15.9234 19.7433 15.3242 19.2057 15.1802 18.9235C15.0964 18.7592 15.0745 18.6054 15.0745 18.1792V17.6419L15.4815 17.7711C15.7054 17.8422 16.1192 17.9287 16.401 17.9633ZM14.4528 19.2757C14.6347 19.6353 15.1098 20.1321 15.5995 20.4748C15.8016 20.6163 15.9861 20.7482 16.0095 20.7678C16.0328 20.7875 15.9028 20.8958 15.7204 21.0083C15.4405 21.1811 15.3557 21.2085 15.1755 21.1843C15.0582 21.1686 14.9254 21.1252 14.8806 21.088C14.7973 21.0189 13.621 19.3311 13.5766 19.2171C13.5612 19.1773 13.6683 19.1312 13.8671 19.092C14.134 19.0393 14.2625 19.0079 14.2974 18.9868C14.3013 18.9845 14.3712 19.1145 14.4528 19.2757ZM20.2546 19.1688C20.2664 19.1805 19.9837 19.6132 19.6266 20.1303C18.9783 21.069 18.8477 21.2 18.5597 21.2C18.434 21.2 17.8633 20.9143 17.8069 20.8232C17.7927 20.8001 17.915 20.6922 18.0788 20.5835C18.5559 20.2667 19.1508 19.6676 19.3391 19.3141L19.5089 18.9956L19.8712 19.0716C20.0704 19.1133 20.243 19.1571 20.2546 19.1688ZM14.3595 21.8085C15.3105 23.1843 16.1404 24.4127 16.2037 24.5382C16.4396 25.0051 16.4808 25.3147 16.4808 26.62V27.8526H13.4867H10.4926L10.462 25.919C10.4219 23.3862 10.2857 22.2854 9.8077 20.6305C9.70483 20.2745 9.63857 19.9645 9.66048 19.9416C9.68238 19.9188 10.3558 19.7695 11.157 19.6098C11.9581 19.4501 12.6175 19.3167 12.6221 19.3133C12.6268 19.3099 13.4087 20.4327 14.3595 21.8085ZM22.722 19.631C23.4923 19.7819 24.1395 19.9158 24.1602 19.9286C24.1809 19.9414 24.1192 20.2266 24.0229 20.5624C23.6799 21.7598 23.4204 23.3279 23.3909 24.382C23.3775 24.8556 23.3845 24.8931 23.5044 24.9905C23.6522 25.1106 23.8815 25.1252 24.0207 25.0234C24.1307 24.9429 24.2092 24.6037 24.2126 24.1933C24.221 23.2121 24.8156 20.2806 25.0063 20.2806C25.1275 20.2806 25.8865 20.8253 26.0837 21.0539C26.1916 21.1789 26.3387 21.3964 26.4107 21.5372C26.6899 22.0834 26.7029 22.2293 26.7029 24.8134C26.7029 27.5265 26.7096 27.4786 26.299 27.7192C26.0804 27.8473 26.034 27.8526 25.1162 27.8526H24.1609V27.0118C24.1609 26.1813 24.1592 26.1693 24.0221 26.0322C23.9102 25.9203 23.85 25.8998 23.7111 25.9266C23.383 25.99 23.3496 26.091 23.3496 27.0202V27.8526H20.3208H17.2921L17.2937 26.8385C17.2957 25.6403 17.3487 25.1646 17.5303 24.7179C17.6118 24.5173 18.3041 23.4625 19.2986 22.0234C21.2597 19.1858 21.1724 19.3058 21.255 19.3339C21.2915 19.3464 21.9517 19.4801 22.722 19.631ZM9.02151 20.8269C9.4894 22.4642 9.66545 24.0261 9.66578 26.5443L9.66599 27.8591L8.65189 27.8423C7.69057 27.8264 7.62859 27.819 7.46119 27.6996C7.08903 27.4341 7.09693 27.4965 7.09693 24.8238C7.09693 22.6401 7.10628 22.383 7.19801 22.0503C7.32144 21.6026 7.61074 21.1425 7.96619 20.8285C8.25539 20.573 8.74281 20.2717 8.82431 20.2981C8.85222 20.307 8.94092 20.545 9.02151 20.8269ZM17.5006 21.5959C17.8172 21.7838 18.1288 21.9603 18.193 21.988C18.3034 22.0357 18.2739 22.0898 17.6386 23.0052C17.2695 23.5369 16.9675 23.9932 16.9675 24.0193C16.9675 24.1198 16.8782 24.059 16.7789 23.8908C16.7218 23.7941 16.4129 23.3393 16.0924 22.8801L15.5098 22.0451L15.7932 21.9C15.9491 21.8201 16.2588 21.6428 16.4815 21.506C16.7042 21.3691 16.8951 21.2564 16.9057 21.2556C16.9163 21.2548 17.184 21.4079 17.5006 21.5959Z" fill="#0559FF"/>
<path d="M8.50485 1.38317C8.34426 1.43387 8.15226 1.54906 8.03823 1.66309C7.82943 1.87192 7.77575 2.04356 7.68325 2.79844C7.6374 3.17268 7.5867 3.49609 7.57053 3.51718C7.5544 3.53824 7.48845 3.57201 7.42394 3.59217C7.35946 3.61236 7.15859 3.694 6.97758 3.77362L6.64849 3.91833L6.53027 3.82474C5.98825 3.39554 5.55796 3.07565 5.43754 3.01235C5.31753 2.94931 5.24609 2.93669 5.00553 2.93625C4.75925 2.93577 4.69519 2.94733 4.5654 3.01558C4.35602 3.12568 3.09715 4.38459 3.00066 4.58035C2.89605 4.79257 2.89883 5.23989 3.00603 5.44387C3.06935 5.56439 3.38995 5.99557 3.81925 6.53762L3.91366 6.65689L3.78535 6.93701C3.71477 7.09111 3.62997 7.29454 3.5969 7.38915C3.56041 7.49347 3.51152 7.57143 3.4727 7.58727C3.43746 7.60162 3.11389 7.65076 2.75364 7.69642C2.02813 7.78841 1.85933 7.84199 1.65654 8.04478C1.59216 8.10916 1.49995 8.23684 1.45164 8.32851L1.36377 8.4952V9.53361V10.572L1.45164 10.7387C1.49995 10.8304 1.59216 10.9581 1.65654 11.0224C1.86192 11.2278 2.03503 11.2829 2.75754 11.3732C3.11565 11.4179 3.43746 11.4661 3.4727 11.4803C3.51168 11.496 3.56028 11.5734 3.5969 11.6781C3.62997 11.7727 3.71454 11.9756 3.78483 12.1291C3.87308 12.3217 3.90308 12.4206 3.88174 12.4486C3.86474 12.4709 3.67793 12.7119 3.4666 12.9843C2.95522 13.6435 2.93062 13.6926 2.92992 14.0547C2.92909 14.4862 2.96014 14.5339 3.75461 15.3219C4.54313 16.104 4.58601 16.1318 5.0062 16.131C5.24602 16.1305 5.31763 16.1179 5.43754 16.0549C5.55796 15.9916 5.98825 15.6717 6.53027 15.2425L6.64849 15.1489L6.97758 15.2936C7.15859 15.3732 7.36157 15.4556 7.42864 15.4766C7.49941 15.4988 7.56257 15.5436 7.57919 15.5836C7.59491 15.6213 7.64379 15.9446 7.68779 16.302C7.77668 17.0237 7.83211 17.198 8.03846 17.4044C8.10284 17.4687 8.23051 17.5609 8.32218 17.6093L8.48887 17.6971H9.51131H10.5337L10.7122 17.6134C10.8104 17.5674 10.9453 17.4752 11.012 17.4085C11.2217 17.1987 11.2762 17.029 11.3668 16.3033C11.4115 15.9452 11.4597 15.6234 11.4739 15.5882C11.4896 15.5492 11.567 15.5006 11.6717 15.464C12.0574 15.3444 11.9645 14.6954 11.5589 14.7694C11.4773 14.8019 11.3992 14.8316 11.3326 14.8551C11.0598 14.9514 10.932 15.0134 10.8896 15.0702C10.8437 15.1317 10.8052 15.3396 10.7221 15.9762C10.6085 16.8461 10.5883 16.9146 10.4188 17.0017C10.3639 17.03 10.1105 17.0413 9.52728 17.0415C8.7764 17.0419 8.70454 17.037 8.61073 16.9798C8.55472 16.9457 8.49251 16.8871 8.47245 16.8496C8.45235 16.812 8.38851 16.4145 8.33052 15.9661C8.24898 15.3355 8.21153 15.1326 8.16524 15.0706C8.12255 15.0134 7.99519 14.9514 7.72198 14.8547C7.51113 14.7801 7.18443 14.6438 6.99599 14.5519C6.7213 14.4179 6.63417 14.3889 6.55663 14.406C6.50288 14.4178 6.19366 14.6346 5.86108 14.8936C5.53173 15.1501 5.21519 15.3878 5.15768 15.4217C4.95901 15.539 4.90629 15.5051 4.22308 14.8212C3.41404 14.0114 3.42366 14.1549 4.11831 13.2579C4.40318 12.8901 4.64521 12.5485 4.65611 12.4988C4.67141 12.4291 4.63608 12.3262 4.50169 12.0493C4.4058 11.8519 4.27286 11.5322 4.20617 11.3388C4.13952 11.1455 4.06405 10.9628 4.03849 10.9327C3.96574 10.8471 3.8403 10.8202 3.10511 10.7328C2.30572 10.6377 2.21741 10.6175 2.1127 10.5061L2.03474 10.4231V9.53361V8.64412L2.1127 8.56114C2.21741 8.4497 2.30572 8.42954 3.10511 8.33445C3.8403 8.24703 3.96574 8.22016 4.03849 8.13453C4.06405 8.10447 4.13959 7.92168 4.20637 7.72837C4.27311 7.53507 4.40705 7.21431 4.50399 7.01557C4.66148 6.69277 4.67691 6.64331 4.64879 6.55161C4.63144 6.49515 4.38845 6.15507 4.10882 5.79584C3.4235 4.91555 3.41238 5.05691 4.23148 4.23781C5.05058 3.41871 4.90923 3.42983 5.78951 4.11515C6.14874 4.39478 6.48835 4.63764 6.5442 4.65477C6.63436 4.68244 6.68449 4.66688 6.99218 4.51565C7.18274 4.42204 7.51104 4.28509 7.72179 4.21138C7.99701 4.11515 8.12188 4.05473 8.16501 3.99693C8.21163 3.93449 8.24898 3.7317 8.3317 3.09198C8.44417 2.22233 8.46455 2.15348 8.63572 2.06551C8.74432 2.0097 10.3102 2.0097 10.4188 2.06551C10.5924 2.15469 10.6129 2.22396 10.7236 3.093C10.8054 3.73518 10.8415 3.93258 10.8888 3.99587C10.9322 4.05412 11.0573 4.11492 11.3347 4.21269C11.5467 4.2874 11.8743 4.42347 12.0628 4.51505C12.3315 4.64563 12.4256 4.67713 12.4988 4.66103C12.5502 4.64975 12.8619 4.43076 13.1914 4.17435C13.521 3.91794 13.8381 3.6802 13.8961 3.64598C14.0939 3.52927 14.1467 3.56097 14.813 4.22756C15.0606 4.4732 15.5883 4.06756 15.3147 3.75458C14.5326 2.96765 14.4827 2.93542 14.0484 2.93625C13.6862 2.93695 13.6372 2.96155 12.978 3.47293C12.7056 3.68425 12.4645 3.87107 12.4423 3.88807C12.4143 3.90941 12.3154 3.87941 12.1228 3.79116C11.9693 3.72087 11.7664 3.63629 11.6717 3.60323C11.5675 3.56677 11.4894 3.51782 11.4736 3.47903C11.4592 3.44379 11.4104 3.12076 11.3652 2.76115C11.2741 2.03653 11.2203 1.86707 11.0161 1.66287C10.9517 1.59848 10.8241 1.50627 10.7324 1.45796L10.5657 1.3701L9.57521 1.364C9.03044 1.36067 8.54878 1.36927 8.50485 1.38317Z" fill="#FF8800"/>
<path d="M8.97844 6.15489C8.50186 6.21016 7.91351 6.43066 7.48284 6.7154C6.94414 7.0716 6.47414 7.66413 6.21668 8.31171C5.7185 9.56481 6.03788 11.0229 7.01837 11.9716C7.90804 12.8324 9.08683 13.1026 10.1528 12.8561C10.6936 12.6415 10.4502 12.0723 10.0716 12.1724C10.0179 12.1866 9.96328 12.1995 9.9079 12.2109C9.7284 12.248 9.55442 12.2576 9.26261 12.2465C8.92221 12.2335 8.81824 12.2161 8.5602 12.1289C8.39361 12.0726 8.17794 11.9816 8.08093 11.9267C7.37574 11.5281 6.88542 10.8636 6.71972 10.0819C6.66297 9.81428 6.66297 9.26165 6.71972 8.99403C6.9451 7.93095 7.76746 7.10342 8.83111 6.86938C9.0856 6.8134 9.67437 6.81234 9.93419 6.86743C10.0935 6.90119 10.2479 6.94843 10.3962 7.00822C10.6125 7.15178 11.0993 6.66501 10.5651 6.3405C10.311 6.24708 10.0435 6.18463 9.763 6.15335C9.42074 6.1152 9.31885 6.11539 8.97844 6.15489Z" fill="#FF8800"/>
</svg>
