<svg width="53" height="40" viewBox="0 0 53 40" fill="none" xmlns="http://www.w3.org/2000/svg">
<circle opacity="0.1" cx="20" cy="20" r="20" fill="#0559FF"/>
<path d="M42.8823 15.9411C42.8823 23.6406 36.6406 29.8823 28.9411 29.8823C21.2417 29.8823 15 23.6406 15 15.9411C15 8.24166 21.2417 2 28.9411 2C36.6406 2 42.8823 8.24166 42.8823 15.9411ZM16.3404 15.9411C16.3404 22.9003 21.982 28.5418 28.9411 28.5418C35.9003 28.5418 41.5418 22.9003 41.5418 15.9411C41.5418 8.98195 35.9003 3.34042 28.9411 3.34042C21.982 3.34042 16.3404 8.98195 16.3404 15.9411Z" fill="#0559FF"/>
<path d="M39.5483 15.9472C39.5483 21.8055 34.7992 26.5546 28.9409 26.5546C23.0826 26.5546 18.3335 21.8055 18.3335 15.9472C18.3335 10.0889 23.0826 5.33984 28.9409 5.33984C34.7992 5.33984 39.5483 10.0889 39.5483 15.9472ZM19.7913 15.9472C19.7913 21.0004 23.8877 25.0968 28.9409 25.0968C33.994 25.0968 38.0904 21.0004 38.0904 15.9472C38.0904 10.8941 33.994 6.79768 28.9409 6.79768C23.8877 6.79768 19.7913 10.8941 19.7913 15.9472Z" fill="#0559FF"/>
<path fill-rule="evenodd" clip-rule="evenodd" d="M37.1621 27.1927L37.7872 27.7988L38.4123 28.405L37.6546 29.2763L41.3293 33.0078L44.0569 35.7776L45.004 36.7393C48.1104 39.4291 52.7701 35.7776 50.3077 32.1175L48.4893 30.2612L42.4279 24.3514L41.746 25.1091L40.3064 23.5938L39.3215 24.8439L40.6853 26.1698L39.5109 27.3063L38.0334 25.8668L37.1621 27.1927ZM42.5795 26.4729L41.1778 27.8746L40.8747 28.1777L39.7761 29.2763L46.0647 35.7776C48.1862 37.0424 50.3077 34.5042 48.9439 33.0078L48.0768 32.1175L45.004 28.9624L42.5795 26.4729Z" fill="#0559FF"/>
<rect x="23.4858" y="15.4062" width="1.51534" height="5.83406" fill="#1049A2"/>
<rect x="26.8198" y="12.2305" width="1.51534" height="9.01628" fill="#1049A2"/>
<rect x="29.7749" y="14.0547" width="1.51534" height="7.19787" fill="#1049A2"/>
<rect x="32.8809" y="10.332" width="1.51534" height="10.9105" fill="#1049A2"/>
</svg>
