<svg width="20" height="20" viewBox="0 0 20 20" fill="none" xmlns="http://www.w3.org/2000/svg">
<path d="M4.65852 8.60159L5.4065 8.5466L4.65852 8.60159ZM11.0305 3.35973L10.8707 4.0925L11.0305 3.35973ZM5.13426 3.08578C5.45448 2.82304 5.50107 2.35046 5.23833 2.03024C4.97559 1.71002 4.503 1.66343 4.18279 1.92617L5.13426 3.08578ZM1.2556 8.91475C1.27012 9.3287 1.61748 9.65251 2.03144 9.63799C2.4454 9.62346 2.7692 9.27611 2.75468 8.86215L1.2556 8.91475ZM15.5723 1.96112C15.2714 1.67648 14.7967 1.68966 14.5121 1.99058C14.2274 2.29149 14.2406 2.76618 14.5415 3.05083L15.5723 1.96112ZM17.1043 8.9162C17.1196 9.33013 17.4676 9.65326 17.8815 9.63793C18.2954 9.6226 18.6186 9.27462 18.6032 8.86069L17.1043 8.9162ZM2.62043 16.1853L3.23568 16.6143L2.62043 16.1853ZM3.23568 16.6143C4.2675 15.1342 5.67205 12.158 5.4065 8.5466L3.91054 8.65659C4.14423 11.8347 2.89848 14.4751 2.00518 15.7564L3.23568 16.6143ZM14.3069 8.60159C14.3069 12.2548 15.17 14.9293 16.5488 16.6271L17.7132 15.6814C16.6233 14.3395 15.8069 12.0448 15.8069 8.60159H14.3069ZM5.4065 8.5466C5.28543 6.89992 5.813 5.90044 6.48808 5.26114C7.19407 4.59256 8.13226 4.25353 8.89895 4.09401L8.59339 2.62546C7.68695 2.81406 6.44459 3.23645 5.45667 4.17201C4.43784 5.13685 3.75816 6.58423 3.91054 8.65659L5.4065 8.5466ZM8.89895 4.09401C9.3715 3.99569 9.74274 3.97311 9.89358 3.97311V2.47311C9.63591 2.47311 9.16229 2.50709 8.59339 2.62546L8.89895 4.09401ZM9.4696 3.16187C9.38046 2.83595 9.33957 2.39431 9.42478 2.08277C9.46387 1.93985 9.51687 1.86948 9.55928 1.83411C9.59372 1.8054 9.67905 1.75 9.89358 1.75V0.25C9.39099 0.25 8.94743 0.391243 8.59865 0.682078C8.25785 0.966258 8.0733 1.33834 7.97792 1.68703C7.79421 2.35872 7.89675 3.09694 8.02274 3.5576L9.4696 3.16187ZM9.89358 3.97311C10.054 3.97311 10.417 3.99355 10.8707 4.0925L11.1904 2.62696C10.6251 2.50366 10.1545 2.47311 9.89358 2.47311V3.97311ZM10.8707 4.0925C11.5753 4.2462 12.4322 4.57442 13.1063 5.24015C13.7607 5.88649 14.3069 6.91288 14.3069 8.60159H15.8069C15.8069 6.54967 15.126 5.12659 14.1603 4.17288C13.2142 3.23857 12.0578 2.81618 11.1904 2.62696L10.8707 4.0925ZM9.89358 1.75C10.1082 1.75 10.1925 1.80542 10.2257 1.83324C10.2669 1.86774 10.3193 1.93716 10.3576 2.07978C10.4414 2.39088 10.3986 2.83254 10.3079 3.15889L11.7531 3.56058C11.8811 3.10035 11.987 2.36214 11.8061 1.69002C11.7122 1.34103 11.529 0.967997 11.1884 0.682955C10.8399 0.391225 10.3961 0.25 9.89358 0.25V1.75ZM7.45534 15.9552H2.87726V17.4552H7.45534V15.9552ZM7.45534 17.4552C7.19086 17.4552 7.01686 17.3195 6.9423 17.2461C6.86901 17.1739 6.83133 17.1049 6.81958 17.0828C6.79452 17.0357 6.787 17.0051 6.79502 17.0304C6.81028 17.0786 6.82288 17.131 6.86109 17.2668C6.92622 17.4984 7.03301 17.8463 7.22328 18.2045C7.41453 18.5645 7.70145 18.9568 8.13843 19.2586C8.5832 19.5657 9.14175 19.75 9.82187 19.75V18.25C9.4263 18.25 9.1691 18.1474 8.99086 18.0243C8.80484 17.8958 8.66148 17.7144 8.54795 17.5007C8.43344 17.2852 8.36095 17.0594 8.30506 16.8607C8.28276 16.7814 8.24942 16.6545 8.22491 16.5772C8.21304 16.5397 8.18716 16.4599 8.14425 16.3791C8.12357 16.3401 8.07708 16.2584 7.99497 16.1775C7.9116 16.0953 7.72877 15.9552 7.45534 15.9552V17.4552ZM16.8886 15.9552H12.1884V17.4552H16.8886V15.9552ZM12.1884 15.9552H7.45534V17.4552H12.1884V15.9552ZM9.82187 19.75C10.9419 19.75 11.7258 19.2372 12.2183 18.5965C12.6886 17.9848 12.8889 17.2686 12.9351 16.7752L11.4417 16.6352C11.4162 16.9067 11.2938 17.3379 11.0291 17.6823C10.7865 17.9978 10.423 18.25 9.82187 18.25V19.75ZM4.18279 1.92617C3.11569 2.80174 1.13078 5.35737 1.2556 8.91475L2.75468 8.86215C2.65001 5.87928 4.33682 3.74009 5.13426 3.08578L4.18279 1.92617ZM14.5415 3.05083C15.329 3.79572 16.9988 6.06961 17.1043 8.9162L18.6032 8.86069C18.4792 5.51126 16.5538 2.88954 15.5723 1.96112L14.5415 3.05083ZM16.5488 16.6271C16.4343 16.4861 16.4399 16.3199 16.4867 16.2115C16.5357 16.0979 16.6738 15.9552 16.8886 15.9552V17.4552C17.3742 17.4552 17.7189 17.1421 17.864 16.8056C18.007 16.4742 17.9983 16.0325 17.7132 15.6814L16.5488 16.6271ZM2.00518 15.7564C1.54618 16.4148 1.95438 17.4552 2.87726 17.4552V15.9552C3.07761 15.9552 3.21593 16.0816 3.27161 16.196C3.32543 16.3065 3.33607 16.4703 3.23568 16.6143L2.00518 15.7564Z" fill="#7A7A7A"/>
</svg>
