<svg width="30" height="30" viewBox="0 0 30 30" fill="none" xmlns="http://www.w3.org/2000/svg">
<path fill-rule="evenodd" clip-rule="evenodd" d="M12.2982 1.39372C12.0523 1.47133 11.7583 1.64762 11.5837 1.82216C11.264 2.14179 11.1818 2.4045 11.0402 3.55989C10.97 4.13269 10.8923 4.62769 10.8676 4.65996C10.8429 4.69219 10.7419 4.74388 10.6431 4.77474C10.5444 4.80565 10.2368 4.9306 9.95966 5.05246L9.45575 5.27394L9.27473 5.13071C8.44479 4.47379 7.78593 3.98417 7.60154 3.88729C7.41778 3.79081 7.30839 3.77149 6.94004 3.77081C6.56294 3.77007 6.46485 3.78778 6.26612 3.89223C5.94552 4.06075 4.01793 5.98759 3.87018 6.28722C3.71 6.61204 3.71426 7.29668 3.8784 7.60888C3.97536 7.79334 4.46626 8.45329 5.1236 9.28294L5.26817 9.46549L5.0717 9.89423C4.96362 10.1301 4.83378 10.4415 4.78314 10.5863C4.72727 10.7459 4.65242 10.8653 4.59298 10.8895C4.53901 10.9115 4.04356 10.9867 3.49195 11.0566C2.38104 11.1974 2.12258 11.2794 1.81206 11.5898C1.71348 11.6883 1.57228 11.8837 1.49831 12.024L1.36377 12.2791V13.8685V15.4579L1.49831 15.713C1.57228 15.8533 1.71348 16.0487 1.81206 16.1472C2.12654 16.4615 2.39161 16.546 3.49792 16.6841C4.04625 16.7525 4.53901 16.8263 4.59298 16.848C4.65266 16.872 4.72708 16.9905 4.78314 17.1507C4.83378 17.2955 4.96328 17.6062 5.07091 17.8411C5.20604 18.1359 5.25198 18.2873 5.2193 18.3301C5.19327 18.3642 4.90721 18.7332 4.58363 19.15C3.80061 20.1589 3.76294 20.234 3.76186 20.7883C3.76059 21.4487 3.80814 21.5217 5.02463 22.7279C6.23202 23.925 6.29767 23.9674 6.94107 23.9662C7.30829 23.9655 7.41793 23.9461 7.60154 23.8497C7.78593 23.7528 8.44479 23.2632 9.27473 22.6063L9.45575 22.4631L9.95966 22.6845C10.2368 22.8064 10.5476 22.9324 10.6503 22.9646C10.7587 22.9986 10.8554 23.0672 10.8808 23.1283C10.9049 23.1861 10.9798 23.681 11.0471 24.228C11.1832 25.3325 11.2681 25.5994 11.5841 25.9152C11.6827 26.0137 11.8782 26.1549 12.0185 26.2288L12.2738 26.3633H13.8393H15.4049L15.6782 26.2352C15.8285 26.1647 16.035 26.0236 16.1371 25.9215C16.4583 25.6005 16.5418 25.3406 16.6805 24.23C16.7489 23.6819 16.8228 23.1894 16.8445 23.1354C16.8685 23.0758 16.9871 23.0014 17.1474 22.9453C17.2922 22.8947 17.603 22.7653 17.838 22.6577C18.1329 22.5226 18.2844 22.4767 18.3272 22.5094C18.3613 22.5354 18.7305 22.8213 19.1475 23.1448C20.1568 23.9275 20.232 23.9651 20.7865 23.9662C21.147 23.9669 21.2678 23.9468 21.4531 23.8556C21.7614 23.7038 23.7047 21.7593 23.8571 21.4503C24.0175 21.1249 24.0134 20.4406 23.8491 20.1281C23.7522 19.9437 23.2613 19.2837 22.6039 18.4541L22.4594 18.2715L22.6558 17.8428C22.7639 17.6069 22.8938 17.2955 22.9444 17.1507C23.0007 16.9899 23.0747 16.8723 23.1346 16.8485C23.1885 16.827 23.684 16.752 24.2356 16.6818C25.351 16.5397 25.604 16.4586 25.9218 16.1409C26.0239 16.0388 26.1651 15.8324 26.2356 15.6821L26.3638 15.409V13.8685V12.328L26.2356 12.0549C26.1651 11.9046 26.0239 11.6982 25.9218 11.5961C25.599 11.2734 25.3436 11.1924 24.1664 11.0393C23.5837 10.9635 23.0886 10.8813 23.0663 10.8567C23.044 10.8321 22.9644 10.647 22.8895 10.4453C22.8146 10.2435 22.688 9.94753 22.6082 9.78752C22.4358 9.44187 22.3829 9.55914 23.1604 8.56249C23.9244 7.58321 23.9646 7.50252 23.9657 6.94869C23.9669 6.29769 23.9195 6.22414 22.7255 5.02332C21.5279 3.81888 21.4515 3.76953 20.7865 3.77081C20.232 3.77188 20.1568 3.80954 19.1475 4.59223C18.7305 4.91568 18.3613 5.20162 18.3272 5.22763C18.2844 5.2603 18.1329 5.21438 17.838 5.07931C17.603 4.97172 17.2922 4.84228 17.1474 4.79166C16.9877 4.73586 16.8682 4.66094 16.8439 4.60157C16.8219 4.54763 16.7472 4.05322 16.6781 3.50282C16.5386 2.39374 16.4561 2.13436 16.1435 1.82182C16.0449 1.72328 15.8494 1.58214 15.709 1.5082L15.4538 1.37371L13.9372 1.36437C13.103 1.35929 12.3655 1.37244 12.2982 1.39372ZM15.2289 2.43809C15.4946 2.57458 15.5261 2.68061 15.6956 4.01073C15.8208 4.99363 15.8761 5.29576 15.9485 5.39263C16.015 5.48178 16.2065 5.57485 16.6313 5.72449C16.9559 5.83883 17.4576 6.04711 17.7462 6.18726C18.1577 6.38713 18.3017 6.43535 18.4138 6.4107C18.4925 6.39344 18.9697 6.05826 19.4743 5.66581C19.979 5.27336 20.4645 4.90947 20.5533 4.85709C20.8589 4.67684 20.9386 4.72789 21.9856 5.7755C23.2246 7.01519 23.2088 6.80163 22.1605 8.1476C21.7324 8.69742 21.3602 9.21804 21.3337 9.30455C21.2906 9.4449 21.3133 9.5186 21.5452 9.99022C21.688 10.2809 21.8982 10.7827 22.0121 11.1054C22.1591 11.522 22.2545 11.7185 22.3411 11.7831C22.4351 11.8532 22.7503 11.911 23.7181 12.0356C25.0759 12.2102 25.1721 12.2402 25.2916 12.5259C25.3915 12.7649 25.3915 14.9721 25.2916 15.2111C25.1718 15.4975 25.0746 15.5279 23.7149 15.7037C22.7586 15.8274 22.43 15.8876 22.3389 15.9555C22.2549 16.0182 22.1573 16.2204 22.0116 16.6336C21.8974 16.9575 21.6876 17.4601 21.5453 17.7506C21.3157 18.2194 21.2919 18.2964 21.3343 18.4343C21.3605 18.5198 21.7324 19.0396 22.1605 19.5894C23.2099 20.9367 23.2269 20.7204 21.9727 21.9741C20.7187 23.2276 20.9413 23.2116 19.5665 22.1473C19.0033 21.7113 18.479 21.3406 18.4016 21.3236C18.2919 21.2995 18.1452 21.3495 17.7379 21.5495C17.4504 21.6908 16.9509 21.8995 16.6281 22.0134C16.2103 22.1607 16.0147 22.2557 15.9497 22.3426C15.8794 22.4368 15.8206 22.7549 15.6933 23.7294C15.5194 25.0607 15.4883 25.1656 15.2289 25.2989C15.1447 25.3422 14.7569 25.3595 13.8638 25.3599C12.714 25.3604 12.604 25.3529 12.4603 25.2654C12.3746 25.2131 12.2793 25.1234 12.2486 25.066C12.2178 25.0086 12.1201 24.4001 12.0313 23.7138C11.9064 22.7486 11.8491 22.4381 11.7782 22.3432C11.7128 22.2557 11.5178 22.1608 11.0995 22.0128C10.7766 21.8986 10.2764 21.69 9.98784 21.5493C9.56724 21.3442 9.43383 21.2999 9.31509 21.326C9.2328 21.344 8.75932 21.6759 8.25007 22.0724C7.74577 22.465 7.26108 22.8287 7.17302 22.8806C6.86881 23.0601 6.78808 23.0082 5.74195 21.9615C4.50315 20.722 4.51788 20.9417 5.58153 19.5688C6.01773 19.0058 6.38833 18.4829 6.40501 18.4069C6.42845 18.3002 6.37434 18.1427 6.16856 17.719C6.02174 17.4168 5.81817 16.9274 5.71607 16.6315C5.61401 16.3357 5.49846 16.0559 5.45932 16.0099C5.34792 15.8788 5.15584 15.8377 4.03011 15.7039C2.80609 15.5584 2.67086 15.5275 2.51054 15.3569L2.39117 15.2299V13.8685V12.5071L2.51054 12.3801C2.67086 12.2095 2.80609 12.1786 4.03011 12.0331C5.15584 11.8993 5.34792 11.8582 5.45932 11.7271C5.49846 11.6811 5.61411 11.4013 5.71636 11.1055C5.81856 10.8096 6.02365 10.3187 6.17209 10.0145C6.41323 9.52041 6.43686 9.44471 6.39381 9.30436C6.36724 9.21794 5.99518 8.69742 5.567 8.1476C4.51763 6.80027 4.50061 7.01661 5.75482 5.76293C7.00902 4.50924 6.79259 4.52626 8.14048 5.57519C8.69053 6.00319 9.21054 6.3749 9.29606 6.40112C9.43412 6.44347 9.51088 6.41965 9.98202 6.18819C10.2738 6.0449 10.7765 5.83531 11.0992 5.72249C11.5206 5.57519 11.7118 5.48271 11.7779 5.39425C11.8492 5.29869 11.9064 4.9883 12.0331 4.00916C12.2053 2.67811 12.2365 2.57272 12.4986 2.43809C12.6649 2.35266 15.0626 2.35266 15.2289 2.43809Z" fill="#0559FF"/>
<path fill-rule="evenodd" clip-rule="evenodd" d="M13.189 8.69418C12.4593 8.77878 11.5584 9.11626 10.8989 9.55209C10.0741 10.0973 9.35443 11.0042 8.9602 11.9953C8.19738 13.9133 8.68642 16.145 10.1877 17.597C12.7849 20.1089 16.9912 19.3348 18.5413 16.0598C19.4968 14.0409 19.0448 11.6637 17.4094 10.1066C16.5563 9.29432 15.5453 8.82055 14.3903 8.69183C13.8663 8.63344 13.7102 8.63374 13.189 8.69418ZM17.4773 11.8682C16.8669 10.7889 15.8493 10.0384 14.6525 9.78477C14.2546 9.70046 13.3531 9.70208 12.9634 9.78775C11.3348 10.146 10.0756 11.4126 9.73045 13.0397C9.64357 13.4493 9.64357 14.2951 9.73045 14.7047C9.98417 15.9011 10.735 16.9182 11.8147 17.5284C11.9633 17.6123 12.2935 17.7516 12.5486 17.8377C12.9437 17.9712 13.1029 17.9979 13.6241 18.0178C14.071 18.0348 14.3374 18.0201 14.6122 17.9633C16.1379 17.6479 17.2696 16.6437 17.791 15.1427C17.9479 14.6911 17.9521 14.6581 17.9521 13.8722C17.9521 13.0863 17.9479 13.0533 17.791 12.6017C17.7025 12.3468 17.5613 12.0167 17.4773 11.8682Z" fill="#FF8800"/>
</svg>
