<svg width="261" height="237" viewBox="0 0 261 237" fill="none" xmlns="http://www.w3.org/2000/svg">
<path fill-rule="evenodd" clip-rule="evenodd" d="M82.2266 63.1055C82.2266 55.3735 88.4946 49.1055 96.2266 49.1055H160.361L195.255 83.9991V193.031C195.255 200.763 188.986 207.031 181.254 207.031H96.2266C88.4946 207.031 82.2266 200.763 82.2266 193.031V98.7187H78.2266V193.031C78.2266 202.972 86.2854 211.031 96.2266 211.031H181.254C191.196 211.031 199.255 202.972 199.255 193.031V83.1707V82.3423L198.669 81.7565L162.604 45.6913L162.018 45.1055H161.189H96.2266C86.2855 45.1055 78.2266 53.1643 78.2266 63.1055V88.99H82.2266V63.1055Z" fill="#7A7A7A"/>
<path d="M161.295 47.0625V63.0008C161.295 74.0465 170.249 83.0008 181.295 83.0008H197.233" stroke="#7A7A7A" stroke-width="4"/>
<circle cx="103.044" cy="103.044" r="3.8882" stroke="#7A7A7A" stroke-width="4"/>
<line x1="118.293" y1="96.6289" x2="165.815" y2="96.6289" stroke="#7A7A7A" stroke-width="4" stroke-linecap="round"/>
<line x1="118.293" y1="105.461" x2="131.958" y2="105.461" stroke="#7A7A7A" stroke-width="4" stroke-linecap="round"/>
<circle cx="103.044" cy="132.486" r="3.8882" stroke="#7A7A7A" stroke-width="4"/>
<line x1="118.293" y1="126.07" x2="165.815" y2="126.07" stroke="#7A7A7A" stroke-width="4" stroke-linecap="round"/>
<line x1="118.293" y1="134.902" x2="131.958" y2="134.902" stroke="#7A7A7A" stroke-width="4" stroke-linecap="round"/>
<circle cx="103.044" cy="158.982" r="3.8882" stroke="#7A7A7A" stroke-width="4"/>
<line x1="118.293" y1="152.566" x2="165.815" y2="152.566" stroke="#7A7A7A" stroke-width="4" stroke-linecap="round"/>
<line x1="118.293" y1="161.398" x2="131.958" y2="161.398" stroke="#7A7A7A" stroke-width="4" stroke-linecap="round"/>
<circle cx="194.31" cy="166.343" r="27.441" fill="#CCE0FF" stroke="#7A7A7A" stroke-width="4"/>
<path d="M195.618 173.154H193.053L191.807 150.152H196.864L195.618 173.154ZM191.367 179.605C191.367 177.636 192.344 176.651 194.299 176.651C195.244 176.651 195.969 176.905 196.474 177.411C196.995 177.918 197.255 178.649 197.255 179.605C197.255 180.532 196.995 181.256 196.474 181.777C195.952 182.284 195.228 182.537 194.299 182.537C193.452 182.537 192.752 182.313 192.198 181.864C191.644 181.401 191.367 180.648 191.367 179.605Z" fill="#7A7A7A"/>
<circle cx="58.8823" cy="225.224" r="5.8882" fill="#0064FE" fill-opacity="0.2"/>
<circle cx="69.1864" cy="27.9696" r="7.36025" fill="#0064FE" fill-opacity="0.2"/>
<circle cx="92.7404" cy="20.6076" r="4.41615" fill="#0064FE" fill-opacity="0.2"/>
<circle cx="171.493" cy="8.09627" r="8.09627" fill="#0064FE" fill-opacity="0.2"/>
<circle cx="212.712" cy="69.9205" r="8.09627" fill="#0064FE" fill-opacity="0.2"/>
<circle cx="220.071" cy="50.7856" r="3.68012" fill="#0064FE" fill-opacity="0.2"/>
<circle cx="225.223" cy="113.346" r="2.9441" fill="#0064FE" fill-opacity="0.2"/>
<circle cx="257.608" cy="141.315" r="2.9441" fill="#0064FE" fill-opacity="0.2"/>
<circle cx="236.999" cy="228.167" r="2.9441" fill="#0064FE" fill-opacity="0.2"/>
<circle cx="157.51" cy="234.057" r="2.9441" fill="#0064FE" fill-opacity="0.2"/>
<circle cx="2.9441" cy="151.62" r="2.9441" fill="#0064FE" fill-opacity="0.2"/>
<circle cx="32.3855" cy="72.1316" r="2.9441" fill="#0064FE" fill-opacity="0.2"/>
<circle cx="20.6082" cy="192.839" r="2.9441" fill="#0064FE" fill-opacity="0.2"/>
<circle cx="187.686" cy="24.2895" r="3.68012" fill="#0064FE" fill-opacity="0.2"/>
</svg>
