<svg width="136" height="136" viewBox="0 0 136 136" fill="none" xmlns="http://www.w3.org/2000/svg">
<path d="M66.8498 4.01034C58.2051 4.16572 49.6815 6.07111 41.7935 9.61148C33.9055 13.1518 26.8166 18.2538 20.9548 24.6094C15.0929 30.965 10.5796 38.4424 7.68725 46.5904C4.79491 54.7383 3.58352 63.3879 4.12618 72.0169L16.9009 71.2135C16.4668 64.3103 17.4359 57.3907 19.7498 50.8723C22.0637 44.3539 25.6743 38.372 30.3638 33.2875C35.0533 28.203 40.7244 24.1215 47.0348 21.2892C53.3452 18.4569 60.1641 16.9326 67.0798 16.8083L66.8498 4.01034Z" fill="#F9E559"/>
<path d="M103.701 125.874C116.293 118.107 126.009 106.444 131.373 92.6549C136.737 78.8661 137.458 63.7039 133.426 49.4684C129.394 35.2329 120.829 22.7009 109.03 13.7735C97.2317 4.84608 82.8432 0.0103958 68.0477 1.67316e-05L68.0337 19.9878C78.4802 19.9952 88.6394 23.4095 96.9699 29.7128C105.301 36.0161 111.348 44.8644 114.195 54.9156C117.042 64.9667 116.533 75.6721 112.745 85.4079C108.958 95.1436 102.098 103.378 93.207 108.863L103.701 125.874Z" fill="url(#paint0_radial_818_9717)"/>
<path d="M4.27892 73.9686C5.2791 84.6466 8.94666 94.9021 14.9447 103.793C20.9426 112.684 29.0787 119.925 38.6054 124.85C48.1321 129.776 58.7439 132.229 69.4659 131.983C80.1879 131.738 90.6762 128.801 99.9673 123.444L93.5738 112.356C86.141 116.641 77.7503 118.99 69.1727 119.187C60.5951 119.383 52.1057 117.421 44.4843 113.48C36.863 109.54 30.3541 103.747 25.5557 96.6343C20.7573 89.5217 17.8233 81.3173 17.0231 72.7749L4.27892 73.9686Z" fill="#6CCECB"/>
<defs>
<radialGradient id="paint0_radial_818_9717" cx="0" cy="0" r="1" gradientUnits="userSpaceOnUse" gradientTransform="translate(68 68) rotate(90) scale(68)">
<stop stop-color="#218C8D"/>
<stop offset="1" stop-color="#218C8D" stop-opacity="0.8"/>
</radialGradient>
</defs>
</svg>
