<svg width="24" height="24" viewBox="0 0 24 24" fill="none" xmlns="http://www.w3.org/2000/svg">
<circle cx="12" cy="12" r="12" fill="#E5EEFE"/>
<path fill-rule="evenodd" clip-rule="evenodd" d="M5.34966 7.03963C5.20582 7.10399 5.07726 7.2554 5.03517 7.40998C5.00978 7.50321 4.99918 8.88159 5.00005 11.9693C5.00152 17.0226 4.97968 16.6438 5.28011 16.8284L5.44477 16.9294L9.54326 16.9383C13.1994 16.9462 13.648 16.9528 13.6994 16.9992C13.731 17.0279 13.7901 17.1742 13.8306 17.3244C13.9168 17.6444 13.9723 17.7614 14.0889 17.8693L14.1741 17.9482H16.0535H17.9328L18.0103 17.8658C18.0648 17.8079 18.1108 17.679 18.1658 17.4303C18.2087 17.236 18.2578 17.0521 18.2749 17.0215C18.292 16.9909 18.4312 16.9051 18.5841 16.8308C19.0505 16.6041 18.9982 17.2064 18.9982 12.0587V7.61039L18.9243 7.47231C18.8367 7.30881 18.6808 7.14648 18.5347 7.06665C18.4364 7.01291 18.0075 7.0087 11.9398 7.00195C6.56515 6.99597 5.43279 7.00245 5.34966 7.03963ZM18.4753 7.38998C18.5372 7.4341 18.6159 7.5318 18.6502 7.60709C18.7099 7.73835 18.7124 7.92283 18.7127 12.0695C18.7128 14.4485 18.7017 16.4125 18.6881 16.4339C18.6745 16.4553 18.5501 16.5243 18.4117 16.5873C18.0432 16.7549 17.9591 16.8741 17.8764 17.3461C17.811 17.7189 18.0176 17.681 16.0533 17.681C14.1047 17.681 14.2399 17.7006 14.1643 17.4072C14.0713 17.0465 13.9899 16.8515 13.8936 16.7594L13.792 16.6622L9.65448 16.6455C5.20906 16.6276 5.3992 16.6358 5.33133 16.4576C5.31176 16.4062 5.29948 14.6697 5.29948 11.9488C5.29948 8.10858 5.30604 7.51096 5.34896 7.42805C5.37615 7.37551 5.41757 7.32478 5.44095 7.31529C5.46434 7.30584 8.38129 7.30073 11.9231 7.30393L18.3627 7.30978L18.4753 7.38998Z" fill="#0559FF"/>
<path fill-rule="evenodd" clip-rule="evenodd" d="M6.30522 7.92896C6.11815 8.02479 5.96145 8.1963 5.90234 8.36984L5.9267 15.6719C6.02125 15.8381 6.20484 16.0024 6.3533 16.0537C6.46218 16.0914 7.55694 16.1004 12.0028 16.1004H17.5171H17.6121C17.7543 16.1004 18.0655 15.8874 18.0655 15.6196L18.079 15.5031L18.0788 12.0167C18.0787 9.66906 18.0659 8.48582 18.0398 8.39394C17.9915 8.22433 17.7784 7.98966 17.6106 7.92131C17.5022 7.87718 16.6924 7.87 11.9496 7.87122C6.98326 7.8725 6.4038 7.87843 6.30522 7.92896ZM17.6762 8.45446L17.5639 8.34959L17.4517 8.24472L12.0066 8.23786C9.01184 8.23411 6.52678 8.24483 6.48422 8.26168C6.44171 8.27853 6.37165 8.33602 6.32858 8.38941L6.25028 8.48646V11.9615C6.25028 14.384 6.26233 15.4622 6.29002 15.5215C6.31188 15.5683 6.37623 15.6333 6.43303 15.666C6.5281 15.7207 6.9655 15.7255 11.9616 15.7255C12.2126 15.7255 12.4524 15.7255 12.6814 15.7255L12.6957 15.7255C17.2427 15.7258 17.5328 15.7258 17.6121 15.5997C17.6175 15.5911 17.622 15.582 17.6267 15.5722C17.6303 15.5648 17.634 15.557 17.6385 15.5489C17.6636 15.5031 17.6762 14.3084 17.6762 11.9673V8.45446Z" fill="#0559FF"/>
<path fill-rule="evenodd" clip-rule="evenodd" d="M8.83389 13.356C8.3668 13.3569 8.30019 13.4584 8.31414 14.1477C8.32508 14.6885 8.36385 14.7891 8.57758 14.8315C8.64037 14.844 10.187 14.8519 12.0146 14.8491L15.3375 14.8441C15.4199 14.8441 15.5327 14.7568 15.5327 14.6256V14.1259C15.5327 13.8098 15.5181 13.594 15.4928 13.5385C15.4323 13.4057 15.3013 13.3555 15.0159 13.3555L8.83389 13.356ZM15.1706 14.1168C15.1646 13.9099 15.1569 13.7379 15.1536 13.7346C15.1357 13.7167 13.2558 13.7077 11.1087 13.7153L8.675 13.7239V14.1084V14.4929H11.9282L15.1815 14.4929L15.1706 14.1168Z" fill="#0559FF"/>
<path fill-rule="evenodd" clip-rule="evenodd" d="M13.6471 10.0061C12.9584 10.9029 13.0094 10.8204 13.0734 10.9349C13.1041 10.9897 13.171 11.0444 13.2222 11.0566L13.3153 11.0786V12.5628V13.4262H12.6222V12.7487C12.6222 11.295 12.6179 11.2649 12.3933 11.1483C12.3002 11.1 12.1773 11.0908 11.754 11.1007L11.23 11.1129C11.0604 11.1168 10.9549 11.2821 10.9737 11.3939V12.7298V13.4262H10.2993V12.7547C10.2993 11.4523 10.2987 11.4429 10.2139 11.3164C10.0817 11.1195 9.99861 11.0952 9.45628 11.0947C9.03324 11.0944 8.95292 11.1043 8.8452 11.1703C8.62179 11.307 8.61328 11.3663 8.61328 12.7856V13.541H15.0529L14.9826 12.5689V11.072L15.1044 11.036C15.2028 11.0069 15.2281 10.9784 15.2362 10.8872C15.2445 10.7944 15.1793 10.6873 14.8702 10.2853C14.3676 9.63169 14.2259 9.47656 14.132 9.47656C14.0755 9.47656 13.9403 9.62424 13.6471 10.0061ZM14.6132 10.7739C14.6542 10.66 14.646 10.6427 14.4014 10.3293C14.2615 10.1499 14.1453 10.004 14.1433 10.005C14.1413 10.006 14.0238 10.1597 13.8823 10.3466C13.6924 10.5973 13.6359 10.6974 13.6668 10.7285C13.6965 10.7582 13.7087 11.2528 13.7087 12.4181V13.4262H14.5705V12.4791C14.5705 11.386 14.5838 10.8556 14.6132 10.7739ZM9.05157 11.4941C9.03718 11.5085 9.02541 12.0931 9.02541 12.7931L9.05157 13.4262H9.86841L9.87827 12.7774L9.86841 11.489L9.47307 11.4784C9.25565 11.4726 9.06599 11.4797 9.05157 11.4941ZM11.3945 11.5142C11.3598 11.549 11.3483 11.8712 11.3483 12.8131V13.4262H12.2387V12.7774L12.2288 11.489L11.8347 11.4784C11.5601 11.471 11.4267 11.4819 11.3945 11.5142Z" fill="#0559FF"/>
<path d="M17.302 17.3662C17.0967 17.3672 16.9926 17.1163 17.1581 16.9862C17.225 16.9337 17.3001 16.8837 17.4267 16.9491C17.5419 17.0087 17.5819 17.1278 17.5237 17.2381C17.4802 17.3208 17.4066 17.3657 17.302 17.3662Z" fill="#0559FF"/>
<path d="M16.0989 17.3506C15.8936 17.3515 15.7895 17.1007 15.955 16.9706C16.0219 16.9181 16.097 16.868 16.2236 16.9335C16.3388 16.9931 16.3788 17.1121 16.3206 17.2225C16.277 17.3052 16.2034 17.3501 16.0989 17.3506Z" fill="#0559FF"/>
<path d="M14.8938 17.3506C14.6885 17.3515 14.5844 17.1007 14.7499 16.9706C14.8168 16.9181 14.8919 16.868 15.0185 16.9335C15.1337 16.9931 15.1737 17.1121 15.1155 17.2225C15.0719 17.3052 14.9984 17.3501 14.8938 17.3506Z" fill="#0559FF"/>
</svg>
