<svg width="24" height="24" viewBox="0 0 24 24" fill="none" xmlns="http://www.w3.org/2000/svg">
<circle cx="12" cy="12" r="12" fill="#E5EEFE"/>
<path fill-rule="evenodd" clip-rule="evenodd" d="M15.5186 8.57058C15.345 8.64907 15.2097 8.78245 15.1274 8.95629L15.0593 9.09999L15.059 13.7629L15.0588 18.4259H14.2541H13.4494L13.4492 15.8753C13.4491 14.226 13.4386 13.2873 13.4196 13.2188C13.3701 13.0403 13.2176 12.8501 13.0462 12.7529L12.8889 12.6637H11.9693C11.0806 12.6637 11.0457 12.6658 10.9331 12.726C10.7756 12.8103 10.6382 12.9531 10.5646 13.1091C10.504 13.2376 10.5035 13.2559 10.4956 15.8322L10.4877 18.4259H9.69991H8.91208L8.90311 17.0536C8.89423 15.6918 8.89366 15.6802 8.8281 15.5376C8.7374 15.3403 8.58163 15.1892 8.39851 15.1207C8.25858 15.0683 8.17414 15.0634 7.41815 15.0634C6.50631 15.0634 6.42521 15.0753 6.22697 15.2388C6.16857 15.2869 6.08522 15.3868 6.04177 15.4607L5.96277 15.5951L5.95455 17.0105L5.94633 18.4259H5.58671C5.11364 18.4259 5 18.4816 5 18.7133C5 18.8335 5.04187 18.9049 5.14312 18.9573C5.2173 18.9956 6.01033 19.0007 11.9549 19.0007C17.8995 19.0007 18.6925 18.9956 18.7667 18.9573C18.8679 18.9049 18.9098 18.8335 18.9098 18.7133C18.9098 18.4835 18.795 18.4259 18.3365 18.4259H17.9902L17.9899 13.7629L17.9896 9.09999L17.9222 8.95629C17.8367 8.77426 17.7267 8.66427 17.5447 8.57883C17.4037 8.51267 17.3845 8.51141 16.5245 8.51175C15.7049 8.51207 15.6395 8.51589 15.5186 8.57058ZM17.3628 9.13318C17.4133 9.17888 17.4154 9.36154 17.4154 13.8033V18.4259H16.5245H15.6335V13.8083C15.6335 9.55194 15.6372 9.18661 15.6811 9.13818C15.725 9.08967 15.7898 9.08562 16.5195 9.08562C17.215 9.08562 17.3166 9.09134 17.3628 9.13318ZM12.8081 13.2866L12.8746 13.3491V15.8875V18.4259H11.9693H11.064V15.8955V13.3652L11.1345 13.2946L11.2051 13.2241H11.9733C12.7225 13.2241 12.7432 13.2256 12.8081 13.2866ZM8.24113 15.6829L8.30502 15.7276V17.0768V18.4259H7.4141H6.52318V17.0895C6.52318 15.7914 6.52482 15.7515 6.58066 15.6957C6.63527 15.641 6.67645 15.6382 7.40769 15.6382C8.05772 15.6382 8.18719 15.6451 8.24113 15.6829Z" fill="#0559FF"/>
<path d="M6.19629 13.0951C6.23701 13.0543 6.29999 13.021 6.3328 13.0088C6.35666 13 6.37941 13 6.40378 13C6.43396 13.0048 6.46329 13.0025 6.50883 13.0295C6.78608 13.1454 6.69506 13.5636 6.39258 13.5636C6.1576 13.5636 6.03066 13.2607 6.19629 13.0951Z" fill="#0559FF"/>
<path d="M15.5848 5.28739C15.5848 5.22112 15.6121 5.16812 15.6825 5.09771L15.7802 5H16.7329C17.746 5 17.8113 5.00808 17.8831 5.14212C17.9016 5.17678 17.9127 5.54676 17.9127 6.13463V7.07184L17.8433 7.14122C17.741 7.2435 17.6339 7.26115 17.512 7.19583C17.3644 7.11673 17.3414 7.01934 17.3395 6.46608L17.3379 5.99222L15.7931 7.53366C14.9435 8.38146 14.2184 9.08405 14.1817 9.095C14.0421 9.13665 13.9608 9.07658 13.393 8.51185L12.8251 7.94696L10.3032 10.4682L7.78128 12.9895H7.66345C7.4751 12.9895 7.35925 12.8436 7.38957 12.6447C7.39718 12.5948 8.21157 11.7609 10.0488 9.9216L12.6566 7.32348C12.8251 7.17965 12.9528 7.27124 13.5288 7.84479L14.1057 8.4192L15.5277 6.99698L16.9497 5.57479H16.3649H15.7802L15.6825 5.47707C15.6121 5.40666 15.5848 5.35367 15.5848 5.28739Z" fill="#0559FF"/>
</svg>
