<svg width="24" height="24" viewBox="0 0 24 24" fill="none" xmlns="http://www.w3.org/2000/svg">
<circle cx="12" cy="12" r="12" fill="#E5EEFE"/>
<path fill-rule="evenodd" clip-rule="evenodd" d="M16.0994 5.22543V5.45085H16.7263H17.3532L16.1677 6.63635L14.9823 7.82181L14.8011 7.76047C14.3689 7.61408 13.9091 7.80936 13.704 8.22643C13.6468 8.34272 13.6347 8.40976 13.6343 8.61036L13.6339 8.8534L12.8326 9.31135C12.1047 9.72738 12.026 9.76584 11.9731 9.73192C11.69 9.55033 11.6092 9.52263 11.3654 9.52334C11.0855 9.52413 10.932 9.58437 10.7435 9.76731C10.6233 9.88394 10.4926 10.1258 10.4921 10.2325C10.492 10.2664 10.4764 10.3038 10.4575 10.3155C10.4386 10.3272 10.2614 10.3639 10.0637 10.3971L9.70508 10.4525L9.7874 10.9002L10.1044 10.8505C10.2788 10.8231 10.4473 10.7945 10.479 10.787C10.524 10.7764 10.5569 10.8047 10.629 10.9159C11.0001 11.4886 11.8742 11.4181 12.1827 10.7907C12.2399 10.6743 12.2521 10.6074 12.2524 10.4065L12.2529 10.1632L13.0095 9.7302C13.4257 9.49206 13.7891 9.28627 13.8171 9.27292C13.8544 9.25519 13.9014 9.27162 13.9921 9.33401C14.178 9.46191 14.379 9.51866 14.5863 9.50184C15.1759 9.45396 15.5559 8.8827 15.3677 8.32708L15.3064 8.14595L16.4919 6.96048L17.6774 5.77499V6.4019V7.02885H17.9028H18.1282V6.01442V5H17.1138H16.0994V5.22543ZM14.9581 8.60684C14.9581 8.42999 14.9119 8.33849 14.7683 8.23127C14.6671 8.1557 14.4484 8.14102 14.3292 8.20177C14.2777 8.22801 14.2016 8.29403 14.1601 8.34847C14.0612 8.47809 14.0525 8.72882 14.1427 8.84959C14.2531 8.99745 14.3432 9.0436 14.5214 9.0436C14.7957 9.0436 14.9581 8.88115 14.9581 8.60684ZM11.7209 10.1444C11.6763 10.0859 11.5974 10.0203 11.5457 9.99868C11.3476 9.91586 11.1392 9.97481 11.0041 10.1519C10.9053 10.2815 10.8966 10.5322 10.9867 10.653C11.0971 10.8009 11.1872 10.847 11.3654 10.847C11.6385 10.847 11.8022 10.6844 11.8022 10.413C11.8022 10.2778 11.7887 10.2332 11.7209 10.1444Z" fill="#0559FF"/>
<path fill-rule="evenodd" clip-rule="evenodd" d="M13.5938 14.3576V18.8675L15.376 18.8589L17.1583 18.8504L17.426 18.7596C18.4527 18.4115 19.0579 17.5084 18.9948 16.4186C18.963 15.8675 18.8875 15.6845 18.3098 14.7572L17.8974 14.0953L18.1027 13.3733C18.2156 12.9763 18.3138 12.593 18.321 12.5216C18.344 12.2941 18.2631 12.0892 18.0768 11.9029C17.8579 11.684 17.7434 11.6511 17.2006 11.6511C16.693 11.6511 16.5583 11.6852 16.3595 11.864C16.2813 11.9342 16.2095 12.0165 16.1999 12.0468C16.1851 12.0934 16.1564 12.1019 16.0152 12.1019H15.848V10.9748V9.84766H14.7209H13.5938V14.3576ZM15.3972 12.1211V11.2098V10.2985H14.7209H14.0446V14.3562V18.4139H14.7146H15.3846L15.1564 18.1814C14.6732 17.6892 14.4639 17.1231 14.5046 16.4186C14.5362 15.8723 14.6203 15.6668 15.177 14.7761L15.5574 14.1675L15.209 13.8133C14.8284 13.4263 14.753 13.3037 14.7283 13.0311C14.7045 12.7687 14.7803 12.5747 14.987 12.3686C15.0984 12.2575 15.1992 12.185 15.2774 12.1598L15.3972 12.1211ZM17.6642 12.1418C17.7755 12.1883 17.8451 12.2828 17.8664 12.4159C17.8803 12.5033 17.8122 12.7707 17.5357 13.7151L17.48 13.9053H16.712H15.944L15.5744 13.532C15.1858 13.1393 15.1378 13.0581 15.1846 12.8717C15.244 12.6351 15.3999 12.5528 15.7889 12.5528H16.0735V12.7782V13.0036H16.2989H16.5243L16.5244 12.7007C16.5244 12.1709 16.6015 12.102 17.1944 12.102C17.4537 12.1019 17.5981 12.1142 17.6642 12.1418ZM18.3978 15.7981C18.3576 15.7102 18.1449 15.3498 17.9249 14.9973L17.525 14.3562H16.7494H15.9738L15.5822 14.9832C15.3668 15.328 15.1544 15.6874 15.1101 15.7819C14.9864 16.046 14.9383 16.3202 14.9551 16.6668C14.9794 17.1689 15.1388 17.5346 15.4829 17.8778C15.6968 18.0911 15.9007 18.2191 16.1908 18.3223C16.3716 18.3866 16.4417 18.3958 16.7497 18.3958C17.0577 18.3958 17.1279 18.3866 17.3087 18.3223C17.5993 18.219 17.803 18.0909 18.0165 17.8773C18.3592 17.5346 18.5233 17.1591 18.5454 16.6668C18.5606 16.3278 18.5138 16.0523 18.3978 15.7981Z" fill="#0559FF"/>
<path fill-rule="evenodd" clip-rule="evenodd" d="M5.47852 16.3859V18.8656H6.60565H7.73279V16.3859V13.9062H6.60565H5.47852V16.3859ZM7.28193 18.4148V16.3859V14.3571H6.60565H5.92937V16.3859V18.4148H6.60565H7.28193Z" fill="#0559FF"/>
<path fill-rule="evenodd" clip-rule="evenodd" d="M8.18359 16.6097V18.864H9.31073H10.4379V16.6097V14.3555H9.31073H8.18359V16.6097ZM9.98701 18.4132V16.6097V14.8063H9.31073H8.63445V16.6097V18.4132H9.31073H9.98701Z" fill="#0559FF"/>
<path fill-rule="evenodd" clip-rule="evenodd" d="M10.8887 15.2553V18.8621H12.0158H13.1429V15.2553V11.6484H12.0158H10.8887V15.2553ZM12.6921 18.4113V15.2553V12.0993H12.0158H11.3395V15.2553V18.4113H12.0158H12.6921Z" fill="#0559FF"/>
<path fill-rule="evenodd" clip-rule="evenodd" d="M15.9905 15.0957C15.9875 15.105 15.906 15.3752 15.9051 15.3787L15.9043 15.3819L16.1855 15.3826C16.4733 15.3834 16.4767 15.3834 16.5228 15.3885C16.6744 15.4051 16.7883 15.456 16.8653 15.5414C16.9033 15.5837 16.9302 15.6272 16.9503 15.6791C16.956 15.6937 16.9645 15.7192 16.9645 15.7216C16.9645 15.722 16.7457 15.7224 16.4784 15.7224H15.9923L15.9899 15.7306C15.9661 15.8115 15.9045 16.0236 15.9045 16.0245C15.9045 16.0254 16.0703 16.0258 16.4392 16.0258H16.9739L16.9721 16.0334C16.9551 16.1085 16.9193 16.174 16.8664 16.2271C16.8014 16.2922 16.7147 16.335 16.6014 16.3578C16.5674 16.3646 16.5374 16.3687 16.485 16.3734C16.4737 16.3745 16.3933 16.375 16.1996 16.3753C15.9463 16.3758 15.9301 16.3759 15.93 16.3779C15.93 16.379 15.9312 16.4284 15.9326 16.4876L15.9352 16.5953L15.9396 16.6009C15.9421 16.6039 16.1565 16.8675 16.4161 17.1866L16.8881 17.7668H17.0914H17.2946V17.7565V17.7463L16.8548 17.2053C16.6129 16.9078 16.415 16.6642 16.415 16.664C16.415 16.6638 16.4343 16.6633 16.4579 16.6628C16.6607 16.6591 16.8234 16.6236 16.949 16.5554C17.0201 16.5168 17.0743 16.4771 17.1247 16.4265C17.1898 16.3612 17.2335 16.2925 17.2707 16.197C17.2896 16.1485 17.3062 16.0878 17.3137 16.0396L17.3158 16.0258L17.4535 16.0255L17.5912 16.0252L17.6352 15.8741L17.6793 15.723L17.4949 15.7227L17.3105 15.7224L17.31 15.7196C17.3096 15.7181 17.3082 15.7111 17.3068 15.704C17.2856 15.5997 17.2403 15.4931 17.1827 15.4125C17.1756 15.4025 17.1689 15.3932 17.168 15.3918L17.1662 15.3892L17.2587 15.39C17.3096 15.3904 17.4053 15.3912 17.4713 15.3916L17.5913 15.3924L17.6338 15.2466C17.6572 15.1664 17.677 15.0983 17.6779 15.0953L17.6795 15.0898H16.836H15.9924L15.9905 15.0957Z" fill="#0559FF"/>
<path fill-rule="evenodd" clip-rule="evenodd" d="M9.95718 10.8148L9.82717 10.2287C9.68408 9.79196 9.37761 9.353 9.01642 9.06738C8.01699 8.27709 6.62675 8.3556 5.72935 9.25302C5.13569 9.84666 4.88276 10.6825 5.05113 11.4943C5.4521 13.4274 7.83203 14.1429 9.22562 12.7493C9.68957 12.2854 9.95718 11.6465 9.95718 11.0029V10.8148ZM9.46643 10.6285C9.30931 9.80729 8.67135 9.16933 7.85014 9.01221C6.7584 8.80332 5.69903 9.52833 5.48854 10.6285C5.2801 11.7179 6.00522 12.7797 7.1008 12.9893C8.49337 13.2558 9.73252 12.0192 9.46643 10.6285Z" fill="#0559FF"/>
<path fill-rule="evenodd" clip-rule="evenodd" d="M6.69169 9.68159C6.68868 9.69094 6.60713 9.96114 6.60626 9.96465L6.60547 9.96784L6.8867 9.96856C7.17451 9.9693 7.17783 9.96936 7.22397 9.97442C7.37561 9.99106 7.4895 10.0419 7.56646 10.1274C7.60449 10.1696 7.63135 10.2131 7.65148 10.2651C7.65715 10.2797 7.66564 10.3051 7.66564 10.3075C7.66564 10.308 7.4469 10.3083 7.17955 10.3083H6.69347L6.69104 10.3166C6.66728 10.3974 6.60565 10.6095 6.60565 10.6105C6.60565 10.6113 6.77145 10.6117 7.14035 10.6117H7.67506L7.67332 10.6194C7.65627 10.6945 7.62051 10.76 7.5676 10.813C7.50259 10.8782 7.41583 10.921 7.30253 10.9438C7.26859 10.9506 7.2386 10.9546 7.1862 10.9594C7.17482 10.9604 7.0945 10.9609 6.9008 10.9613C6.64745 10.9617 6.63123 10.9619 6.63121 10.9638C6.6312 10.965 6.63236 11.0144 6.63378 11.0736L6.63637 11.1812L6.64081 11.1868C6.64325 11.1899 6.85765 11.4535 7.11727 11.7726L7.58929 12.3527H7.79255H7.99582V12.3425V12.3322L7.55598 11.7912C7.31407 11.4937 7.11615 11.2501 7.11615 11.2499C7.11615 11.2497 7.13547 11.2492 7.15909 11.2488C7.36191 11.2451 7.52453 11.2095 7.65014 11.1414C7.72128 11.1028 7.77552 11.063 7.82591 11.0125C7.89098 10.9472 7.93467 10.8785 7.97189 10.7829C7.99077 10.7345 8.00733 10.6738 8.01486 10.6255L8.017 10.6117L8.15466 10.6114L8.29232 10.6111L8.33642 10.46L8.38051 10.3089L8.19611 10.3086L8.0117 10.3083L8.01113 10.3056C8.01081 10.304 8.00939 10.297 8.00795 10.29C7.9868 10.1856 7.94144 10.0791 7.88386 9.9984C7.87675 9.98844 7.87012 9.97913 7.86913 9.97771L7.86732 9.97513L7.9599 9.97594C8.01081 9.97639 8.10648 9.97711 8.17248 9.97754L8.29249 9.97833L8.33497 9.8325C8.35833 9.7523 8.37818 9.68422 8.37908 9.68123L8.38071 9.67578H7.53714H6.69356L6.69169 9.68159Z" fill="#0559FF"/>
</svg>
