<svg width="28" height="28" viewBox="0 0 28 28" fill="none" xmlns="http://www.w3.org/2000/svg">
<rect width="28" height="28" rx="6" fill="white"/>
<g clip-path="url(#clip0_818_9704)">
<path fill-rule="evenodd" clip-rule="evenodd" d="M7.56989 6.09529L7.47456 6.19062V7.33188V8.47311H6.95136C6.44732 8.47311 6.42465 8.47658 6.33333 8.56794L6.2385 8.66273V10.422V12.1813H6.02088C5.90118 12.1813 5.73172 12.2024 5.64427 12.2282C5.4321 12.2909 5.11211 12.6109 5.04942 12.8231C4.98353 13.0462 4.98353 15.6425 5.04942 15.8656C5.11211 16.0778 5.4321 16.3978 5.64427 16.4605C5.73172 16.4863 5.90118 16.5074 6.02088 16.5074H6.2385V18.2667V20.026L6.33333 20.1208L6.42812 20.2156H11.3548C15.4356 20.2156 16.261 20.2239 16.281 20.2666L16.1269 19.5976H11.4917H6.85653V18.0542V16.5109L8.74166 16.4995L10.6268 16.4881L10.9186 16.3439C11.2701 16.1701 11.4891 15.9464 11.6592 15.5874L11.7814 15.3293V14.3444V13.3594L11.6592 13.1013C11.4891 12.7423 11.2701 12.5186 10.9186 12.3448L10.6268 12.2006L8.74166 12.1892L6.85653 12.1778V10.635V9.0921L14.3027 9.08194L21.7489 9.07182L22.0184 8.93284C22.1666 8.85644 22.2922 8.79124 22.2975 8.78799C22.3028 8.78479 22.307 10.7072 22.3068 13.06L22.3063 17.3379L22.8668 19.8811C22.9179 19.5837 22.9242 18.7426 22.9157 13.3594L22.9059 7.17912L22.7836 6.92109C22.6135 6.56202 22.3945 6.33833 22.043 6.16459L21.7511 6.02032L14.7082 6.01016L7.66518 6L7.56989 6.09529ZM22.3072 7.54607C22.3072 7.18897 21.9973 6.76407 21.6654 6.666C21.5432 6.62992 19.9524 6.61903 14.7995 6.61903H8.09258V7.54607V8.47311H14.7995C19.9524 8.47311 21.5432 8.46221 21.6654 8.42614C21.9973 8.32806 22.3072 7.90317 22.3072 7.54607ZM11.1357 13.4411C11.073 13.2289 10.7531 12.9089 10.5409 12.8463C10.4239 12.8117 9.77786 12.7993 8.09602 12.7993H5.8101L5.71531 12.8941L5.62048 12.9889V14.3444V15.6998L5.71531 15.7946L5.8101 15.8894H8.09602C9.77786 15.8894 10.4239 15.877 10.5409 15.8424C10.7531 15.7798 11.073 15.4598 11.1357 15.2476C11.1993 15.0324 11.1993 13.6563 11.1357 13.4411Z" fill="#0559FF"/>
<path fill-rule="evenodd" clip-rule="evenodd" d="M9.32478 13.4679C9.1352 13.5277 8.81185 13.8625 8.75372 14.0593C8.64673 14.4214 8.72216 14.7102 8.99514 14.9831C9.39048 15.3785 9.936 15.3701 10.302 14.963C10.6612 14.5635 10.6499 14.0833 10.2724 13.7058C10.0006 13.4341 9.68427 13.3546 9.32478 13.4679ZM9.63379 14.6535C9.90383 14.6535 10.0396 14.3219 9.84797 14.1303C9.78822 14.0705 9.70903 14.0355 9.63379 14.0355C9.55855 14.0355 9.47936 14.0705 9.41961 14.1303C9.35981 14.1901 9.32478 14.2692 9.32478 14.3445C9.32478 14.5033 9.475 14.6535 9.63379 14.6535Z" fill="#0559FF"/>
<path d="M19.2521 18.9396V18.1671V17.3945H19.5611H19.8701V18.1671V18.9396H20.6427H21.4152V19.2486V19.5576H20.6427H19.8701V20.3302V21.1027H19.5611H19.2521V20.3302V19.5576H18.4796H17.707V19.2486V18.9396H18.4796H19.2521Z" fill="#0559FF"/>
<path d="M9.13281 7.81724V7.50823V7.19922H15.3131H21.4933V7.50823V7.81724H15.3131H9.13281Z" fill="#0559FF"/>
<path fill-rule="evenodd" clip-rule="evenodd" d="M19.1464 15.8426C18.6655 15.8984 18.0718 16.1207 17.6372 16.4079C17.0935 16.767 16.6192 17.3646 16.3594 18.0176C15.8567 19.2812 16.179 20.7515 17.1684 21.7082C18.8801 23.3631 21.6523 22.8531 22.6739 20.6954C23.3036 19.3652 23.0058 17.7991 21.9279 16.7732C21.3657 16.238 20.6994 15.9259 19.9382 15.8411C19.5928 15.8026 19.49 15.8028 19.1464 15.8426ZM21.9726 17.9338C21.5703 17.2227 20.8997 16.7283 20.1109 16.5612C19.8487 16.5056 19.2546 16.5067 18.9978 16.5631C17.9244 16.7991 17.0945 17.6336 16.8671 18.7056C16.8098 18.9755 16.8098 19.5328 16.8671 19.8026C17.0343 20.5908 17.5291 21.2609 18.2407 21.6629C18.3386 21.7183 18.5563 21.81 18.7244 21.8668C18.9848 21.9547 19.0897 21.9723 19.4332 21.9854C19.7277 21.9966 19.9033 21.9869 20.0844 21.9495C21.0899 21.7417 21.8358 21.0801 22.1794 20.0911C22.2828 19.7937 22.2856 19.7719 22.2856 19.2541C22.2856 18.7363 22.2828 18.7146 22.1794 18.4171C22.1211 18.2491 22.028 18.0316 21.9726 17.9338Z" fill="#0559FF"/>
</g>
<defs>
<clipPath id="clip0_818_9704">
<rect width="20" height="20" fill="white" transform="translate(4 4)"/>
</clipPath>
</defs>
</svg>
