<svg width="24" height="24" viewBox="0 0 24 24" fill="none" xmlns="http://www.w3.org/2000/svg">
<circle cx="12" cy="12" r="12" fill="#E5EEFE"/>
<path fill-rule="evenodd" clip-rule="evenodd" d="M10.9766 5.03078C10.9108 5.06911 10.4199 6.05066 10.4199 6.144C10.4199 6.18368 10.4511 6.2473 10.4892 6.28541L10.5585 6.3547H12.0006H13.4426L13.5119 6.28541C13.55 6.2473 13.5812 6.18368 13.5812 6.144C13.5812 6.0449 13.0875 5.06598 13.019 5.02934C12.9443 4.98932 11.0455 4.99067 10.9766 5.03078ZM12.9891 5.90309L12.8756 5.67729L12.762 5.45148H12.0006H11.2391L11.1256 5.67729L11.012 5.90309H12.0006H12.9891Z" fill="#0559FF"/>
<path fill-rule="evenodd" clip-rule="evenodd" d="M9.39459 6.58156C9.32873 6.61989 8.83789 7.60144 8.83789 7.69478C8.83789 7.73446 8.86908 7.79808 8.90718 7.83619L8.97645 7.90548H10.4185H11.8606L11.9299 7.83619C11.968 7.79808 11.9992 7.73446 11.9992 7.69478C11.9992 7.59568 11.5054 6.61676 11.437 6.58012C11.3622 6.5401 9.46351 6.54145 9.39459 6.58156ZM11.407 7.45387L11.2935 7.22807L11.18 7.00226H10.4185H9.65706L9.54353 7.22807L9.43001 7.45387H10.4185H11.407Z" fill="#0559FF"/>
<path fill-rule="evenodd" clip-rule="evenodd" d="M12.5567 6.58156C12.4908 6.61989 12 7.60144 12 7.69478C12 7.73446 12.0312 7.79808 12.0693 7.83619L12.1386 7.90548H13.5806H15.0227L15.092 7.83619C15.1301 7.79808 15.1613 7.73446 15.1613 7.69478C15.1613 7.59568 14.6675 6.61676 14.5991 6.58012C14.5243 6.5401 12.6256 6.54145 12.5567 6.58156ZM14.5692 7.45387L14.4556 7.22807L14.3421 7.00226H13.5806H12.8192L12.7056 7.22807L12.5921 7.45387H13.5806H14.5692Z" fill="#0559FF"/>
<path fill-rule="evenodd" clip-rule="evenodd" d="M7.81451 8.44484C7.74866 8.48317 7.25781 9.46472 7.25781 9.55806C7.25781 9.59775 7.289 9.66137 7.32711 9.69947L7.39637 9.76876H8.83845H10.2805L10.3498 9.69947C10.3879 9.66137 10.4191 9.59775 10.4191 9.55806C10.4191 9.45896 9.92536 8.48004 9.85691 8.4434C9.78215 8.40338 7.88343 8.40473 7.81451 8.44484ZM9.82697 9.31715L9.71344 9.09135L9.59992 8.86554H8.83845H8.07698L7.96345 9.09135L7.84993 9.31715H8.83845H9.82697Z" fill="#0559FF"/>
<path fill-rule="evenodd" clip-rule="evenodd" d="M10.9766 8.44484C10.9108 8.48317 10.4199 9.46472 10.4199 9.55806C10.4199 9.59775 10.4511 9.66137 10.4892 9.69947L10.5585 9.76876H12.0006H13.4426L13.5119 9.69947C13.55 9.66137 13.5812 9.59775 13.5812 9.55806C13.5812 9.45896 13.0875 8.48004 13.019 8.4434C12.9443 8.40338 11.0455 8.40473 10.9766 8.44484ZM12.9891 9.31715L12.8756 9.09135L12.762 8.86554H12.0006H11.2391L11.1256 9.09135L11.012 9.31715H12.0006H12.9891Z" fill="#0559FF"/>
<path fill-rule="evenodd" clip-rule="evenodd" d="M14.1368 8.44484C14.0709 8.48317 13.5801 9.46472 13.5801 9.55806C13.5801 9.59775 13.6113 9.66137 13.6494 9.69947L13.7186 9.76876H15.1607H16.6028L16.6721 9.69947C16.7102 9.66137 16.7414 9.59775 16.7414 9.55806C16.7414 9.45896 16.2476 8.48004 16.1792 8.4434C16.1044 8.40338 14.2057 8.40473 14.1368 8.44484ZM16.1492 9.31715L16.0357 9.09135L15.9222 8.86554H15.1607H14.3992L14.2857 9.09135L14.1722 9.31715H15.1607H16.1492Z" fill="#0559FF"/>
<path fill-rule="evenodd" clip-rule="evenodd" d="M5.45168 10.426C5.39735 10.4431 5.28896 10.5212 5.2108 10.5995C5.01257 10.7982 4.95601 11.0117 5.03326 11.2695C5.07379 11.4048 5.24975 11.6107 5.36604 11.6589L5.45168 11.6943V12.873V14.0516L5.36604 14.087C5.17631 14.1656 5.00007 14.4509 5.00007 14.6794C5.00007 14.9079 5.17631 15.1932 5.36604 15.2717L5.45168 15.3072V16.4858V17.6645L5.36604 17.6999C5.17631 17.7785 5.00007 18.0638 5.00007 18.2923C5.00007 18.5532 5.2265 18.8637 5.46907 18.9354C5.63667 18.9849 11.1376 18.9849 11.3052 18.9354C11.5478 18.8637 11.7742 18.5532 11.7742 18.2923C11.7742 18.0638 11.598 17.7785 11.4082 17.6999L11.3226 17.6645V16.4858V15.3072L11.4082 15.2717C11.598 15.1932 11.7742 14.9079 11.7742 14.6794C11.7742 14.4509 11.598 14.1656 11.4082 14.087L11.3226 14.0516V12.873V11.6943L11.4082 11.6589C11.5245 11.6107 11.7005 11.4048 11.741 11.2695C11.814 11.0261 11.7632 10.8126 11.5851 10.6146C11.5725 10.6006 11.5614 10.5875 11.551 10.5752C11.5323 10.5532 11.5159 10.5338 11.4973 10.5167C11.3579 10.3881 11.0996 10.3885 8.89946 10.3913C8.73568 10.3916 8.56113 10.3918 8.37507 10.392C6.40192 10.394 5.52069 10.4043 5.45168 10.426ZM10.871 14.002V12.873V11.7439H8.38715H5.90329V12.873V14.002H8.38715H10.871ZM11.2533 11.223L11.1841 11.2923H8.38715H5.59024L5.52097 11.223C5.47728 11.1794 5.45168 11.1215 5.45168 11.0665C5.45168 11.0115 5.47728 10.9537 5.52097 10.91L5.59024 10.8407H8.38715H11.1841L11.2533 10.91C11.345 11.0016 11.345 11.1314 11.2533 11.223ZM11.1841 14.9052L11.2533 14.8359C11.345 14.7443 11.345 14.6145 11.2533 14.5229L11.1841 14.4536H8.38715H5.59024L5.52097 14.5229C5.47728 14.5665 5.45168 14.6244 5.45168 14.6794C5.45168 14.7344 5.47728 14.7922 5.52097 14.8359L5.59024 14.9052H8.38715H11.1841ZM10.871 16.4858V17.6149H8.38715H5.90329V16.4858V15.3568H8.38715H10.871V16.4858ZM11.1841 18.5181L11.2533 18.4488C11.345 18.3571 11.345 18.2274 11.2533 18.1358L11.1841 18.0665H8.38715H5.59024L5.52097 18.1358C5.47728 18.1794 5.45168 18.2373 5.45168 18.2923C5.45168 18.3473 5.47728 18.4051 5.52097 18.4488L5.59024 18.5181H8.38715H11.1841Z" fill="#0559FF"/>
<path fill-rule="evenodd" clip-rule="evenodd" d="M12.6782 10.426C12.6239 10.4431 12.5155 10.5212 12.4374 10.5995C12.2391 10.7982 12.1826 11.0117 12.2598 11.2695C12.3004 11.4048 12.4763 11.6107 12.5926 11.6589L12.6782 11.6943V12.873V14.0516L12.5926 14.087C12.4029 14.1656 12.2266 14.4509 12.2266 14.6794C12.2266 14.9079 12.4029 15.1932 12.5926 15.2717L12.6782 15.3072V16.4858V17.6645L12.5926 17.6999C12.4029 17.7785 12.2266 18.0638 12.2266 18.2923C12.2266 18.5532 12.4531 18.8637 12.6956 18.9354C12.8632 18.9849 18.3642 18.9849 18.5318 18.9354C18.7744 18.8637 19.0008 18.5532 19.0008 18.2923C19.0008 18.0638 18.8245 17.7785 18.6348 17.6999L18.5492 17.6645V16.4858V15.3072L18.6348 15.2717C18.8245 15.1932 19.0008 14.9079 19.0008 14.6794C19.0008 14.4509 18.8245 14.1656 18.6348 14.087L18.5492 14.0516V12.873V11.6943L18.6348 11.6589C18.7511 11.6107 18.9271 11.4048 18.9676 11.2695C19.0405 11.0261 18.9897 10.8126 18.8116 10.6146C18.7991 10.6006 18.788 10.5875 18.7775 10.5752C18.7589 10.5532 18.7424 10.5338 18.7239 10.5167C18.5845 10.3881 18.3262 10.3885 16.126 10.3913C15.9622 10.3916 15.7877 10.3918 15.6016 10.392C13.6285 10.394 12.7473 10.4043 12.6782 10.426ZM18.0976 14.002V12.873V11.7439H15.6137H13.1299V12.873V14.002H15.6137H18.0976ZM18.4799 11.223L18.4106 11.2923H15.6137H12.8168L12.7475 11.223C12.7038 11.1794 12.6782 11.1215 12.6782 11.0665C12.6782 11.0115 12.7038 10.9537 12.7475 10.91L12.8168 10.8407H15.6137H18.4106L18.4799 10.91C18.5716 11.0016 18.5716 11.1314 18.4799 11.223ZM18.4106 14.9052L18.4799 14.8359C18.5716 14.7443 18.5716 14.6145 18.4799 14.5229L18.4106 14.4536H15.6137H12.8168L12.7475 14.5229C12.7038 14.5665 12.6782 14.6244 12.6782 14.6794C12.6782 14.7344 12.7038 14.7922 12.7475 14.8359L12.8168 14.9052H15.6137H18.4106ZM18.0976 16.4858V17.6149H15.6137H13.1299V16.4858V15.3568H15.6137H18.0976V16.4858ZM18.4106 18.5181L18.4799 18.4488C18.5716 18.3571 18.5716 18.2274 18.4799 18.1358L18.4106 18.0665H15.6137H12.8168L12.7475 18.1358C12.7038 18.1794 12.6782 18.2373 12.6782 18.2923C12.6782 18.3473 12.7038 18.4051 12.7475 18.4488L12.8168 18.5181H15.6137H18.4106Z" fill="#0559FF"/>
</svg>
