<svg width="24" height="24" viewBox="0 0 24 24" fill="none" xmlns="http://www.w3.org/2000/svg">
<circle cx="12" cy="12" r="12" fill="#E5EEFE"/>
<path fill-rule="evenodd" clip-rule="evenodd" d="M8.18969 5.04205C7.6589 5.13883 7.18133 5.32807 6.73813 5.61727C5.86406 6.18763 5.28289 7.03995 5.06444 8.07188C4.986 8.44237 4.97778 9.13492 5.04744 9.50631C5.19468 10.2918 5.54907 10.9614 6.11964 11.5324C6.70817 12.1213 7.46361 12.5093 8.23027 12.6165C8.35073 12.6333 8.45932 12.6555 8.47158 12.6659C8.48382 12.6763 8.46315 12.7602 8.42567 12.8525C8.11741 13.6111 8.07541 14.524 8.31161 15.3312C8.61053 16.3528 9.33804 17.2233 10.2889 17.6973C11.1029 18.1029 12.1315 18.2006 13.0215 17.9568C13.3678 17.862 13.9317 17.6005 14.1546 17.4314L14.2199 17.3819L14.1068 17.2153C14.0446 17.1238 13.9845 17.0433 13.9731 17.0366C13.9617 17.0298 13.8477 17.0877 13.7197 17.1652C12.4083 17.9591 10.6977 17.7439 9.60074 16.6469C8.46635 15.5125 8.28576 13.746 9.16613 12.396C9.35507 12.1063 9.82412 11.6296 10.0953 11.4517C10.6948 11.0584 11.2935 10.8774 11.9948 10.8774C12.6962 10.8774 13.2949 11.0584 13.8944 11.4517C14.1656 11.6296 14.6346 12.1063 14.8236 12.396C15.6092 13.6008 15.5577 15.1578 14.6945 16.2958L14.5724 16.4568L14.6457 16.5187C14.686 16.5527 14.7648 16.6181 14.8208 16.664L14.9225 16.7474L15.0976 16.5107C15.556 15.8908 15.7949 15.1879 15.8211 14.3821C15.8399 13.8047 15.7622 13.3396 15.5668 12.8592C15.489 12.6679 15.4988 12.6387 15.6413 12.6379C15.7525 12.6372 16.0888 12.5626 16.3344 12.484C16.6778 12.3741 17.0371 12.1958 17.3843 11.9631C17.3937 11.9568 17.144 11.5971 17.1303 11.5971C17.1265 11.5971 17.0227 11.6576 16.8996 11.7316C16.4966 11.9738 15.9779 12.1513 15.5727 12.1858C15.4646 12.195 15.3493 12.208 15.3164 12.2147C15.2676 12.2246 15.227 12.1858 15.0932 12.001C14.6833 11.4343 14.0909 10.9718 13.4182 10.693C13.2016 10.6032 12.6083 10.4472 12.4837 10.4472C12.3278 10.4472 12.323 10.4331 12.4052 10.2195C12.7623 9.29199 12.756 8.29059 12.3874 7.40811C12.334 7.28012 12.2845 7.15043 12.2774 7.11993C12.2577 7.03448 12.4669 6.74382 12.7611 6.44822C13.6141 5.59091 14.8318 5.25149 15.9921 5.54754C17.2895 5.87857 18.276 6.94952 18.4995 8.26964C18.5604 8.62907 18.5404 9.29407 18.4595 9.59841C18.3194 10.1259 18.1039 10.575 17.8311 10.9082L17.7338 11.027L17.8418 11.1206C17.9011 11.1722 17.9821 11.2386 18.0216 11.2683L18.0936 11.3222L18.2613 11.0864C18.9076 10.1778 19.1373 9.12358 18.9207 8.06069C18.6041 6.50703 17.3683 5.31871 15.7803 5.04092C15.4734 4.98723 14.8395 4.98619 14.5374 5.03887C13.9975 5.13302 13.4684 5.34409 13.0134 5.64681C12.7454 5.82516 12.3103 6.23307 12.1317 6.47346C12.064 6.56469 12.0024 6.63954 11.9948 6.63984C11.9873 6.64011 11.9257 6.56581 11.8579 6.47472C11.7065 6.2711 11.3344 5.90965 11.0777 5.71663C10.9722 5.63742 10.7258 5.49303 10.5301 5.39578C10.1598 5.21185 9.84353 5.1071 9.45223 5.03887C9.1658 4.9889 8.47158 4.99066 8.18969 5.04205ZM9.2159 5.46636C10.7315 5.64698 11.9297 6.79346 12.1734 8.29633C12.2756 8.92599 12.177 9.64712 11.9091 10.231L11.8261 10.4118L11.5512 10.4452C10.4767 10.5754 9.51195 11.145 8.8795 12.0227L8.74047 12.2157L8.51043 12.1955C7.34404 12.0932 6.29344 11.3622 5.78127 10.2966C5.32117 9.33927 5.33765 8.19703 5.82491 7.27234C6.48676 6.01629 7.82952 5.30116 9.2159 5.46636Z" fill="#0559FF"/>
<path d="M7.32812 7.08145C7.32807 7.0734 7.39715 7.0087 7.48161 6.93771C7.56605 6.86669 7.64492 6.80859 7.65683 6.80859C7.66877 6.80859 7.93541 7.10973 8.24936 7.47781C8.56332 7.84586 8.82903 8.14771 8.83987 8.14859C8.85068 8.14944 9.11905 7.8483 9.4362 7.47937C9.75336 7.11044 10.0225 6.80859 10.0342 6.80859C10.0646 6.80859 10.3534 7.05845 10.3534 7.08476C10.3534 7.09678 10.0669 7.43948 9.71684 7.8463L9.08028 8.58597V8.88825V9.19054H9.29931H9.51834V9.42326V9.65598H9.29931H9.08028V9.87501V10.094H9.29931H9.51834V10.3268V10.5595H9.29931H9.08028V10.669V10.7785H8.84756H8.61484V10.669V10.5595H8.39581H8.17678V10.3268V10.094H8.39581H8.61484V9.87501V9.65598H8.39581H8.17678V9.42326V9.19054H8.39581H8.61484V8.89414V8.59777L7.97153 7.8469C7.61771 7.43395 7.32818 7.08947 7.32812 7.08145Z" fill="#0559FF"/>
<path d="M14.0248 7.87994C14.0779 7.36541 14.3361 7.01913 14.7864 6.85888C14.9599 6.79711 15.288 6.79128 15.4708 6.84675C15.869 6.96755 16.175 7.31079 16.251 7.72197C16.2674 7.81062 16.2808 7.89322 16.2808 7.90551C16.2808 7.91781 16.1761 7.92785 16.0481 7.92785H15.8154L15.8151 7.85256C15.815 7.81114 15.7861 7.71559 15.751 7.64019C15.5234 7.15142 14.8574 7.11991 14.5703 7.58431C14.5004 7.69733 14.486 7.75167 14.4778 7.93256L14.468 8.14688H14.6899H14.9119V8.3796V8.61232H14.6928H14.4738V8.83135V9.05038H14.6928H14.9119V9.2831V9.51582H14.6893H14.4668L14.4794 9.73381C14.4955 10.0124 14.5854 10.173 14.796 10.2993C15.1463 10.5094 15.5588 10.3951 15.7401 10.0378C15.7815 9.9561 15.8154 9.85455 15.8154 9.81209V9.73485H16.0505H16.2856L16.2676 9.85121C16.225 10.1266 16.135 10.3179 15.9601 10.5048C15.5281 10.9667 14.8065 10.975 14.3552 10.5231C14.1298 10.2974 14.0093 9.98298 14.0086 9.61849L14.0084 9.51582H13.7893H13.5703V9.2831V9.05038H13.7893H14.0084V8.83135V8.61232H13.7893H13.5703V8.3796V8.14688H13.7838H13.9972L14.0248 7.87994Z" fill="#0559FF"/>
<path fill-rule="evenodd" clip-rule="evenodd" d="M10.923 12.59C10.9189 12.6028 10.807 12.9731 10.8058 12.9779L10.8047 12.9823L11.1907 12.9833C11.5858 12.9843 11.5903 12.9844 11.6537 12.9913C11.8618 13.0141 12.0181 13.0838 12.1237 13.2009C12.176 13.2588 12.2128 13.3184 12.2405 13.3896C12.2482 13.4097 12.2599 13.4446 12.2599 13.4478C12.2599 13.4484 11.9596 13.4489 11.5927 13.4489H10.9255L10.9221 13.4602C10.8895 13.571 10.8049 13.8617 10.8049 13.863C10.8049 13.8642 11.0325 13.8648 11.5389 13.8648H12.2728L12.2704 13.8752C12.247 13.9781 12.1979 14.0679 12.1253 14.1406C12.0361 14.2299 11.917 14.2885 11.7615 14.3198C11.7149 14.3291 11.6737 14.3347 11.6018 14.3412C11.5862 14.3426 11.4759 14.3433 11.2101 14.3438C10.8623 14.3444 10.84 14.3446 10.84 14.3473C10.84 14.3489 10.8416 14.4166 10.8436 14.4977L10.8471 14.6453L10.8532 14.6529C10.8565 14.6571 11.1508 15.0183 11.5072 15.4557L12.1551 16.2508H12.4341H12.7131V16.2367V16.2227L12.1094 15.4813C11.7773 15.0735 11.5056 14.7396 11.5056 14.7394C11.5056 14.7391 11.5322 14.7384 11.5646 14.7378C11.843 14.7327 12.0662 14.684 12.2386 14.5906C12.3363 14.5377 12.4107 14.4832 12.4799 14.4139C12.5692 14.3245 12.6292 14.2303 12.6802 14.0994C12.7062 14.0329 12.7289 13.9498 12.7392 13.8836L12.7422 13.8648L12.9311 13.8643L13.1201 13.8639L13.1806 13.6568L13.2411 13.4498L12.988 13.4493L12.7349 13.4489L12.7341 13.4451C12.7337 13.4431 12.7317 13.4334 12.7297 13.4238C12.7007 13.2808 12.6385 13.1347 12.5594 13.0242C12.5497 13.0105 12.5406 12.9978 12.5392 12.9958L12.5367 12.9923L12.6638 12.9934C12.7337 12.994 12.865 12.995 12.9556 12.9956L13.1203 12.9967L13.1786 12.7968C13.2107 12.6869 13.2379 12.5936 13.2392 12.5895L13.2414 12.582H12.0835H10.9256L10.923 12.59Z" fill="#0559FF"/>
</svg>
