<svg width="8" height="8" viewBox="0 0 8 8" fill="none" xmlns="http://www.w3.org/2000/svg">
    <path d="M6.8 1.8H5.6v-.4A1.2 1.2 0 0 0 4.4.2h-.8a1.2 1.2 0 0 0-1.2 1.2v.4H1.2A1.2 1.2 0 0 0 0 3v3.6a1.2 1.2 0 0 0 1.2 1.2h5.6A1.2 1.2 0 0 0 8 6.6V3a1.2 1.2 0 0 0-1.2-1.2zm-3.6-.4a.4.4 0 0 1 .4-.4h.8a.4.4 0 0 1 .4.4v.4H3.2v-.4zm4 5.2a.4.4 0 0 1-.4.4H1.2a.4.4 0 0 1-.4-.4V4.4a8.684 8.684 0 0 0 6.4 0v2.2zm0-3.076a7.956 7.956 0 0 1-6.4 0V3a.4.4 0 0 1 .4-.4h5.6a.4.4 0 0 1 .4.4v.524z" fill="#7A7A7A"/>
</svg>
