<svg width="200" height="108" viewBox="0 0 200 108" fill="none" xmlns="http://www.w3.org/2000/svg">
<path d="M189.568 73.0938H7.76875C3.84006 73.0938 1.34987 75.7404 0.416528 79.0444H199.599C198.544 75.743 195.36 73.0938 189.568 73.0938Z" fill="#408DFF"/>
<path d="M199.599 79.0444H0.416528C-0.309312 81.6139 -0.0936019 84.5809 1.11931 87.0099H198.417C199.952 84.5893 200.423 81.6186 199.599 79.0444Z" fill="#207AFF"/>
<path d="M7.76875 91.7423H189.568C193.64 91.7423 196.697 89.7213 198.417 87.0099H1.11931C2.32769 89.4297 4.52583 91.3156 7.76875 91.7423Z" fill="#0063F5"/>
<path fill-rule="evenodd" clip-rule="evenodd" d="M173.716 46.3452C164.033 34.8153 157.988 41.9213 156.177 46.9155L153.081 63.3843C157.992 58.4484 169.658 49.5532 177.024 53.4607C173.086 52.6646 162.715 53.8997 152.738 65.2091L149.985 79.8532C162.167 69.8302 166.993 76.7956 169.709 77.4979C180.286 77.1704 177.02 71.8631 174.902 69.8302C173.646 68.6244 167.102 62.2697 177.648 64.0217C188.194 65.7737 191.394 57.2238 186.022 55.9082C182.586 54.9735 182.142 54.822 182.831 52.2901C183.034 51.5404 183.835 51.0557 185.186 50.6532C187.47 49.9728 190.341 49.1172 187.568 45.4033C183.155 39.4926 178.966 44.1802 178.22 46.2107C178.084 46.58 177.989 46.9828 177.899 47.365C177.492 49.0846 177.185 50.3876 173.716 46.3452Z" fill="#3FFD7E"/>
<path d="M177.024 53.4607C169.658 49.5532 157.992 58.4484 153.081 63.3843L152.738 65.2091C162.715 53.8997 173.086 52.6646 177.024 53.4607Z" fill="#20BF55"/>
<path d="M25.5133 18.6257C18.9072 18.6257 18.8132 27.7626 25.5133 27.7626H95.3517V18.3446L63.7009 18.472L54.7046 18.5082L25.5133 18.6257Z" fill="#8DB6F1"/>
<path d="M41.2102 4.80332L54.7046 18.5082L63.7009 18.472L51.8778 6.81812L46.4112 1.42972C45.8143 0.880305 45.2311 0.508616 44.6775 0.28224C41.4067 -1.05517 39.1665 2.67942 41.2102 4.80332Z" fill="#8DB6F1"/>
<path d="M44.6775 0.28224C45.2311 0.508616 45.8143 0.880305 46.4112 1.42972L51.8778 6.81812H105.262L116.039 18.2613L125.035 18.2251L107.417 0.28224H44.6775Z" fill="#0063F5"/>
<path d="M165.19 27.7626C171.797 27.7626 173.109 18.0635 165.19 18.0635L125.035 18.2251L116.039 18.2613L95.3517 18.3446V27.7626H165.19Z" fill="#8DB6F1"/>
<path d="M165.19 27.7626H95.3517V82.3493H151.18L165.19 27.7626Z" fill="white"/>
<path d="M95.3517 27.7626H25.5133L41.2102 82.3493H95.3517V27.7626Z" fill="#F3F2F0"/>
<path d="M34.8647 82.5859C24.9777 82.5859 25.5399 93.5501 35.7549 93.5501L166.06 93.7376C174.166 93.7376 174.54 82.5859 166.06 82.5859H34.8647Z" fill="#408DFF"/>
<path d="M34.8647 89.332C24.9777 89.332 25.5399 100.296 35.7549 100.296L166.06 100.484C174.166 100.484 174.54 89.332 166.06 89.332H34.8647Z" fill="#207AFF"/>
<path d="M34.8647 96.082C24.9777 96.082 25.5399 107.046 35.7549 107.046L166.06 107.234C174.166 107.234 174.54 96.082 166.06 96.082H34.8647Z" fill="#0063F5"/>
<circle cx="113.091" cy="50.5144" r="2.99876" fill="#7A7A7A"/>
<path d="M121.7 64.2775C124.365 59.5293 131.338 52.4295 138.206 61.574C132.871 62.2239 122.373 63.643 121.7 64.2775Z" fill="#7A7A7A"/>
<path d="M121.7 64.2775C124.365 59.5293 131.338 52.4295 138.206 61.574C132.871 62.2239 122.373 63.643 121.7 64.2775ZM121.7 64.2775C121.678 64.2987 121.666 64.3191 121.666 64.3385C121.677 64.3182 121.689 64.2979 121.7 64.2775Z" stroke="#0063F5"/>
<circle cx="142.141" cy="50.5144" r="2.99876" fill="#7A7A7A"/>
<path d="M111.263 55.293C108.639 58.0887 104.226 63.8863 107.562 64.7109C110.898 65.5356 111.42 58.7759 111.263 55.293Z" fill="#6CA7FE"/>
<path d="M146.276 53.5117C147.525 54.8373 149.624 57.5861 148.037 57.9771C146.45 58.3681 146.202 55.1631 146.276 53.5117Z" fill="#6CA7FE"/>
<path d="M44.793 41.6674C44.793 38.247 49.9002 36.9819 50.6499 41.6674V70.343C50.6499 73.2668 44.793 74.0915 44.793 70.343V41.6674Z" fill="#65A3FF"/>
<path d="M58.3856 42.0637C58.0177 38.6631 62.9592 36.856 64.2086 41.4337L67.2933 69.9429C67.6078 72.8497 61.8736 74.2997 61.4704 70.573L58.3856 42.0637Z" fill="#65A3FF"/>
<path d="M76.2819 40.5176C76.5979 37.1118 81.8003 36.3241 82.1138 41.0588L79.4639 69.6118C79.1937 72.523 73.2856 72.803 73.632 69.0705L76.2819 40.5176Z" fill="#65A3FF"/>
</svg>
