<svg width="20" height="20" viewBox="0 0 20 20" fill="none" xmlns="http://www.w3.org/2000/svg">
<g clip-path="url(#clip0_818_10206)">
<path d="M10.3288 11.4375C10.0296 11.4398 9.73991 11.5421 9.50576 11.7282C9.27161 11.9144 9.10653 12.1735 9.03684 12.4644C8.96716 12.7553 8.99688 13.0612 9.12128 13.3332C9.24568 13.6052 9.45759 13.8277 9.7232 13.9653V15.5542H10.8343V14.0153C11.1212 13.8977 11.3583 13.6843 11.5053 13.4113C11.6524 13.1384 11.7001 12.8229 11.6405 12.5187C11.5808 12.2145 11.4174 11.9404 11.1782 11.7432C10.939 11.5461 10.6388 11.438 10.3288 11.4375Z" fill="#0559FF"/>
<path d="M14.8091 8.1909V5.75601C14.8335 4.52257 14.3684 3.32967 13.5154 2.43834C12.6625 1.54702 11.4912 1.02985 10.2579 1C9.02458 1.02985 7.8533 1.54702 7.00036 2.43834C6.14741 3.32967 5.68227 4.52257 5.7067 5.75601V8.1909H4V17.8622C4 18.164 4.11987 18.4534 4.33325 18.6667C4.54663 18.8801 4.83604 19 5.1378 19H15.378C15.6798 19 15.9692 18.8801 16.1825 18.6667C16.3959 18.4534 16.5158 18.164 16.5158 17.8622V8.1909H14.8091ZM6.8445 5.75601C6.81997 4.82428 7.16522 3.92073 7.80481 3.24276C8.4444 2.5648 9.32633 2.16754 10.2579 2.1378C11.1895 2.16754 12.0714 2.5648 12.711 3.24276C13.3506 3.92073 13.6958 4.82428 13.6713 5.75601V8.1909H6.8445V5.75601ZM5.1378 17.8622V9.3287H15.378V17.8622H5.1378Z" fill="#0559FF"/>
</g>
<defs>
<clipPath id="clip0_818_10206">
<rect width="20" height="20" fill="white"/>
</clipPath>
</defs>
</svg>
