<svg width="24" height="24" viewBox="0 0 24 24" fill="none" xmlns="http://www.w3.org/2000/svg">
<g clip-path="url(#clip0_3776_46176)">
<path d="M22.6998 23.5C22.4998 23.5 22.2998 23.4 22.1998 23.3L17.8998 19C17.5998 18.7 17.5998 18.2 17.8998 17.9C18.1998 17.6 18.6998 17.6 18.9998 17.9L23.2998 22.2C23.5998 22.5001 23.5998 23 23.2998 23.3C23.0998 23.4 22.8998 23.5 22.6998 23.5Z" fill="#4A4A4A"/>
<path d="M10.6 20.2C9.2 20.2 7.8 19.9 6.6 19.3C6.2 19.1 6.1 18.7 6.2 18.3C6.4 17.9 6.8 17.8 7.2 17.9C8.3 18.4 9.4 18.6 10.6 18.6C15.1 18.6 18.7 15 18.7 10.5C18.7 6 15.1 2.4 10.6 2.4C6.1 2.4 2.5 6.1 2.5 10.6C2.5 13 3.6 15.3 5.5 16.9C5.8 17.2 5.9 17.6 5.6 18C5.3 18.3 4.9 18.4 4.5 18.1C2.3 16.2 1 13.5 1 10.6C1 5.3 5.3 1 10.6 1C15.9 1 20.2 5.3 20.2 10.6C20.2 15.9 15.9 20.2 10.6 20.2Z" fill="#4A4A4A"/>
<path d="M5.8 14.6001C5.4 14.6001 5 14.3001 5 13.8001V8.9001C5 8.5001 5.3 8.1001 5.8 8.1001C6.3 8.1001 6.6 8.4001 6.6 8.9001V13.8001C6.6 14.3001 6.2 14.6001 5.8 14.6001Z" fill="#4A4A4A"/>
<path d="M8.90156 14.6016C8.50156 14.6016 8.10156 14.3016 8.10156 13.8016V7.20161C8.10156 6.80161 8.40156 6.40161 8.90156 6.40161C9.40156 6.40161 9.70156 6.70161 9.70156 7.20161V13.8016C9.60156 14.3016 9.30156 14.6016 8.90156 14.6016Z" fill="#4A4A4A"/>
<path d="M12.0002 14.6001C11.6002 14.6001 11.2002 14.3001 11.2002 13.8001V9.4001C11.2002 9.0001 11.5002 8.6001 12.0002 8.6001C12.5002 8.6001 12.8002 8.9001 12.8002 9.4001V13.8001C12.7002 14.3001 12.4002 14.6001 12.0002 14.6001Z" fill="#4A4A4A"/>
<path d="M15.0998 14.6C14.6998 14.6 14.2998 14.3 14.2998 13.8V6.60005C14.2998 6.20005 14.5998 5.80005 15.0998 5.80005C15.5998 5.80005 15.8998 6.10005 15.8998 6.60005V13.9C15.7998 14.3 15.4998 14.6 15.0998 14.6Z" fill="#4A4A4A"/>
<path d="M16.7002 14.6H4.5002C4.1002 14.6 3.7002 14.3 3.7002 13.8C3.7002 13.3 4.0002 13 4.5002 13H16.7002C17.1002 13 17.5002 13.3 17.5002 13.8C17.5002 14.3 17.2002 14.6 16.7002 14.6Z" fill="#4A4A4A"/>
<path d="M17.1 20.0001C16.9 20.0001 16.7 19.9001 16.6 19.8001C16.3 19.5001 16.3 19.0001 16.6 18.7001L18.6 16.7001C18.9 16.4001 19.4 16.4001 19.7 16.7001C20 17.0001 20 17.5001 19.7 17.8001L17.7 19.8001C17.5 19.9001 17.3 20.0001 17.1 20.0001Z" fill="#4A4A4A"/>
</g>
<defs>
<clipPath id="clip0_3776_46176">
<rect width="22.4" height="22.5" fill="white" transform="translate(1 1)"/>
</clipPath>
</defs>
</svg>
