<svg width="24" height="24" viewBox="0 0 24 24" fill="none" xmlns="http://www.w3.org/2000/svg">
<g clip-path="url(#clip0_1210_19676)">
<path d="M17.2998 9.3C16.8998 9.3 16.4998 9 16.4998 8.5V6.9C16.4998 4.5 14.4998 2.5 12.0998 2.5C9.6998 2.5 7.6998 4.5 7.6998 6.9V8.3C7.7998 8.7 7.4998 9 7.0998 9C6.6998 9 6.2998 8.7 6.2998 8.3V6.9C6.2998 3.6 8.9998 1 12.1998 1C15.3998 1 18.0998 3.6 18.0998 6.9V8.6C18.0998 9 17.7998 9.3 17.2998 9.3Z" fill="#4A4A4A"/>
<path d="M12.1996 16.1C10.9996 16.1 10.0996 15.1 10.0996 14C10.0996 12.9 11.0996 11.9 12.1996 11.9C13.2996 11.9 14.2996 12.9 14.2996 14C14.2996 15.1 13.3996 16.1 12.1996 16.1ZM12.1996 13.4C11.8996 13.4 11.5996 13.7 11.5996 14C11.5996 14.3 11.8996 14.6 12.1996 14.6C12.4996 14.6 12.7996 14.3 12.7996 14C12.7996 13.7 12.4996 13.4 12.1996 13.4Z" fill="#4A4A4A"/>
<path d="M12.1999 19.8C11.7999 19.8 11.3999 19.5 11.3999 19V15.3C11.3999 14.9 11.6999 14.5 12.1999 14.5C12.6999 14.5 12.9999 14.8 12.9999 15.3V19C12.9999 19.5 12.5999 19.8 12.1999 19.8Z" fill="#4A4A4A"/>
<path d="M21.3 23.4H19.6C19.2 23.4 18.8 23.1 18.8 22.6C18.8 22.1 19.1 21.8 19.6 21.8H21.3C21.7 21.8 21.9 21.5 21.9 21.2V10.4C21.9 10 21.6 9.80005 21.3 9.80005H3.1C2.8 9.80005 2.5 10 2.5 10.4V21.3C2.5 21.7 2.8 21.9 3.1 21.9H17.3C17.7 21.9 18.1 22.2 18.1 22.7C18.1 23.2 17.8 23.5 17.3 23.5H3.1C1.9 23.5 1 22.5 1 21.4V10.4C1 9.20005 2 8.30005 3.1 8.30005H21.2C22.4 8.30005 23.3 9.30005 23.3 10.4V21.3C23.4 22.5 22.4 23.4 21.3 23.4Z" fill="#4A4A4A"/>
</g>
<defs>
<clipPath id="clip0_1210_19676">
<rect width="22.4" height="22.4" fill="white" transform="translate(1 1)"/>
</clipPath>
</defs>
</svg>
