<svg width="32" height="32" viewBox="0 0 32 32" fill="none" xmlns="http://www.w3.org/2000/svg">
<rect width="32" height="32" rx="16" fill="#0559FF" fill-opacity="0.1"/>
<g clip-path="url(#clip0_3865_22552)">
<path d="M22.1757 15.4336C22.1757 15.1424 21.9396 14.9062 21.6484 14.9062C21.3572 14.9062 21.121 15.1424 21.121 15.4336C21.121 18.2573 18.8237 20.5547 16 20.5547C13.1762 20.5547 10.8789 18.2573 10.8789 15.4336C10.8789 15.1424 10.6428 14.9062 10.3516 14.9062C10.0603 14.9062 9.82422 15.1424 9.82422 15.4336C9.82422 18.6613 12.3133 21.3181 15.4726 21.5866V23.9437H14.3055C14.0142 23.9437 13.7781 24.1798 13.7781 24.4711C13.7781 24.7623 14.0142 24.9984 14.3055 24.9984H17.6945C17.9858 24.9984 18.2219 24.7623 18.2219 24.4711C18.2219 24.1798 17.9858 23.9437 17.6945 23.9437H16.5273V21.5866C19.6867 21.3181 22.1757 18.6612 22.1757 15.4336Z" fill="#0559FF"/>
<path d="M16.0001 7C14.4635 7 13.2134 8.25012 13.2134 9.78673V15.4352C13.2134 16.9718 14.4635 18.2219 16.0001 18.2219C17.5367 18.2219 18.7868 16.9718 18.7868 15.4351V9.78673C18.7868 8.25012 17.5367 7 16.0001 7ZM17.7322 15.4352C17.7322 16.3902 16.9551 17.1672 16.0001 17.1672C15.0451 17.1672 14.2681 16.3902 14.2681 15.4352V9.78673C14.2681 8.83168 15.0451 8.05469 16.0001 8.05469C16.9551 8.05469 17.7322 8.83168 17.7322 9.78673V15.4352V15.4352Z" fill="#0559FF"/>
</g>
<defs>
<clipPath id="clip0_3865_22552">
<rect width="18" height="18" fill="white" transform="translate(7 7)"/>
</clipPath>
</defs>
</svg>
