<svg width="76" height="85" viewBox="0 0 76 85" fill="none" xmlns="http://www.w3.org/2000/svg">
<path fill-rule="evenodd" clip-rule="evenodd" d="M26.7266 9.85742L25.5071 10.9753L26.7266 13.6175L28.4541 12.6012L30.5882 13.211L30.8931 15.2434H34.0434L34.145 13.5158L35.9742 12.398L37.6002 14.2272L38.5148 13.211L37.8035 11.9915L38.5148 10.772C38.9891 10.8737 39.9782 11.0159 40.1408 10.772C40.3034 10.5281 40.615 9.38318 40.7505 8.84119L39.3278 8.12983L39.1245 6.30062L40.1408 4.8779L39.3278 3.25193L37.6002 3.5568L35.9742 2.43895V0.71136L34.145 0L33.2304 1.52434L31.4012 2.03246L29.9785 0.71136L28.4541 1.52434V3.5568L27.4379 4.67465L25.5071 4.8779L25.1006 6.91036L26.7266 7.62172V9.85742ZM29.9785 7.82496C29.8769 6.199 31.4012 4.8779 32.8239 4.8779C35.2629 4.7153 36.0759 6.77486 36.1775 7.82496C36.0081 9.01057 35.1003 11.3005 32.8239 10.9753C30.5476 10.6501 29.9785 8.73957 29.9785 7.82496Z" fill="#7C9ED2"/>
<path d="M32.8239 4.8779C31.4012 4.8779 29.8769 6.199 29.9785 7.82496C29.9785 8.73957 30.5476 10.6501 32.8239 10.9753C35.1003 11.3005 36.0081 9.01057 36.1775 7.82496C36.0759 6.77486 35.2629 4.7153 32.8239 4.8779Z" fill="white"/>
<path fill-rule="evenodd" clip-rule="evenodd" d="M42.2688 16.1257L41.4947 17.3103L43.0696 19.2327L44.2871 18.0233L46.1883 18.0706L46.8742 19.6848L49.489 19.0108L49.2054 17.5615L50.4856 16.2465L52.2248 17.4101L52.7675 16.3747L51.9173 15.5192L52.248 14.3593C52.6632 14.3419 53.5145 14.2478 53.5975 14.0115C53.6805 13.7751 53.6953 12.7624 53.6924 12.2855L52.36 12.0021L51.8017 10.5341L52.3421 9.14102L51.321 7.97138L49.952 8.59292L48.3643 8.01708L47.9964 6.58954L46.3266 6.39308L45.8921 7.84836L44.4821 8.65958L43.0198 7.87232L41.9278 8.87024L42.3607 10.5497L41.7553 11.6908L40.196 12.2719L40.2915 14.0383L41.7926 14.2783L42.2688 16.1257ZM44.535 13.7505C44.1043 12.4286 45.0882 11.0108 46.269 10.7064C48.2588 10.0503 49.3722 11.5782 49.6802 12.4242C49.7922 13.4401 49.5264 15.5265 47.5678 15.7449C45.6091 15.9632 44.7298 14.5062 44.535 13.7505Z" fill="#95B2DD"/>
<path d="M46.269 10.7064C45.0882 11.0108 44.1043 12.4286 44.535 13.7505C44.7298 14.5062 45.6091 15.9632 47.5678 15.7449C49.5264 15.5265 49.7922 13.4401 49.6802 12.4242C49.3722 11.5782 48.2588 10.0503 46.269 10.7064Z" fill="white"/>
<path d="M16.7674 29.1644C15.8867 28.3514 14.0034 27.091 13.5155 26.9287C12.9058 26.7258 13.109 25.8111 13.8204 26.4209C14.5324 27.038 15.5189 27.9162 16.5351 28.8597C16.201 25.9974 12.7025 22.2542 12.1944 26.0143C11.7879 29.0223 15.0737 29.3677 16.7674 29.1644Z" fill="#7C9ED2"/>
<path d="M19.1048 31.722C17.5466 30.2963 14.2269 28.2265 13.4139 31.3534C13.2106 33.3311 18.7519 31.722 19.1048 31.722Z" fill="#6BB6B2"/>
<path d="M19.1032 31.2952C19.1037 31.3149 19.1042 31.3343 19.1048 31.3534C19.1866 31.4377 19.2669 31.5212 19.3454 31.6036C20.7218 30.0453 22.8445 26.7865 20.3243 26.2176C17.804 25.6488 18.3257 29.2657 18.9016 31.1453C18.9703 31.2152 19.0381 31.2846 19.1048 31.3534C19.1027 31.3371 19.1023 31.3176 19.1032 31.2952C19.0727 30.0744 19.1328 27.7635 19.6129 27.8435C20.2008 27.9414 19.1295 30.6918 19.1032 31.2952Z" fill="#787498"/>
<path d="M17.2756 34.449C17.6008 34.0425 19.85 34.6988 20.934 35.0778C19.2741 33.7969 15.8935 32.0037 15.6496 35.0778C15.4979 36.9895 20.6657 35.4017 20.934 35.0778C20.8324 35.0778 16.8691 34.9571 17.2756 34.449Z" fill="#FAC174"/>
<path d="M21.9616 38.2053L20.934 33.5343C20.6813 33.0795 20.0948 32.3904 19.3454 31.6036C19.2669 31.5212 19.1866 31.4377 19.1048 31.3534C19.0381 31.2846 18.9703 31.2152 18.9016 31.1453C18.5745 30.8126 18.244 30.5281 17.8853 30.1809C18.257 30.5956 18.6653 31.075 19.1048 31.722C19.7282 32.6398 20.3777 33.7743 20.934 35.0778C21.3427 36.0354 21.701 37.0843 21.9616 38.2053Z" fill="#431F09"/>
<path d="M20.934 35.0778C19.85 34.6988 17.6008 34.0425 17.2756 34.449C16.8691 34.9571 20.8324 35.0778 20.934 35.0778Z" fill="#431F09"/>
<path d="M19.1032 31.2952C19.0727 30.0744 19.1328 27.7635 19.6129 27.8435C20.2008 27.9414 19.1295 30.6918 19.1032 31.2952Z" fill="#431F09"/>
<path d="M13.5155 26.9287C14.0034 27.091 15.8867 28.3514 16.7674 29.1644C16.8294 29.185 16.9107 29.2313 17.0083 29.302C16.8505 29.1535 16.6924 29.0058 16.5351 28.8597C15.5189 27.9162 14.5324 27.038 13.8204 26.4209C13.109 25.8111 12.9058 26.7258 13.5155 26.9287Z" fill="#431F09"/>
<path d="M61.1319 31.408C62.0729 30.5344 64.0851 29.18 64.6063 29.0056C65.2578 28.7876 65.0406 27.8047 64.2806 28.4599C63.5198 29.123 62.4659 30.0667 61.3802 31.0806C61.7371 28.0049 65.4749 23.9826 66.0178 28.023C66.4521 31.2553 62.9415 31.6265 61.1319 31.408Z" fill="#7C9ED2"/>
<path d="M58.6346 34.1563C60.2995 32.6243 63.8463 30.4002 64.7149 33.7602C64.9321 35.8854 59.0116 34.1563 58.6346 34.1563Z" fill="#6BB6B2"/>
<path d="M58.6363 33.6977C58.6357 33.7188 58.6352 33.7397 58.6346 33.7602C58.5471 33.8509 58.4614 33.9406 58.3775 34.0291C56.9069 32.3546 54.639 28.8528 57.3317 28.2415C60.0244 27.6303 59.467 31.5169 58.8517 33.5366C58.7783 33.6117 58.7059 33.6863 58.6346 33.7602C58.6368 33.7427 58.6373 33.7218 58.6363 33.6977C58.6689 32.3859 58.6046 29.9026 58.0917 29.9886C57.4636 30.0939 58.6082 33.0493 58.6363 33.6977Z" fill="#787498"/>
<path d="M60.589 37.0866C60.2416 36.6498 57.8384 37.355 56.6802 37.7623C58.4537 36.3859 62.0656 34.459 62.3262 37.7623C62.4883 39.8166 56.9669 38.1104 56.6802 37.7623C56.7888 37.7623 61.0233 37.6326 60.589 37.0866Z" fill="#FAC174"/>
<path d="M55.5823 41.123L56.6802 36.1038C56.9502 35.615 57.5768 34.8745 58.3775 34.0291C58.4614 33.9406 58.5471 33.8509 58.6346 33.7602C58.7059 33.6863 58.7783 33.6117 58.8517 33.5366C59.2012 33.1791 59.5875 33.0274 59.9104 32.665C59.5133 33.1106 59.1042 33.461 58.6346 34.1563C57.9686 35.1425 57.2746 36.3616 56.6802 37.7623C56.2436 38.7913 55.8607 39.9184 55.5823 41.123Z" fill="#431F09"/>
<path d="M56.6802 37.7623C57.8384 37.355 60.2416 36.6498 60.589 37.0866C61.0233 37.6326 56.7888 37.7623 56.6802 37.7623Z" fill="#431F09"/>
<path d="M58.6363 33.6977C58.6689 32.3859 58.6046 29.9026 58.0917 29.9886C57.4636 30.0939 58.6082 33.0493 58.6363 33.6977Z" fill="#431F09"/>
<path d="M64.6063 29.0056C64.0851 29.18 62.0729 30.5344 61.1319 31.408C61.0657 31.4302 58.8581 33.5612 58.7537 33.6372C60.1889 32.5921 61.2121 31.2376 61.3802 31.0806C62.4659 30.0667 63.5198 29.123 64.2806 28.4599C65.0406 27.8047 65.2578 28.7876 64.6063 29.0056Z" fill="#431F09"/>
<path fill-rule="evenodd" clip-rule="evenodd" d="M70.3231 58.4269C61.4616 58.6708 54.7071 73.5687 52.4375 80.9872L54.5716 81.5968C54.9984 81.6368 55.5297 81.6437 56.124 81.5968C57.9777 77.9044 61.9494 70.2759 63.0063 69.3004C63.0402 67.7761 63.1892 64.6867 63.5144 64.5241C63.8396 64.3615 63.5144 67.4373 63.3112 68.9955C63.8193 68.3519 64.9168 67.0241 65.242 66.8615C65.4452 66.7598 65.5723 65.8706 65.6993 64.9814C65.8263 64.0922 65.9533 63.203 66.1566 63.1014C66.4818 62.9388 66.0211 65.2694 65.7501 66.455C67.0712 64.7951 69.8353 61.5161 70.3231 61.6787C70.8109 61.8413 67.7487 64.9306 66.1566 66.455C66.6128 66.6831 67.6515 66.0855 68.4896 65.6034C69.145 65.2263 69.6777 64.9198 69.7134 65.1339C69.0698 65.7097 67.3761 66.9224 65.7501 67.1663C65.0387 67.273 62.3965 70.9264 61.9901 71.6377C63.8531 70.8248 67.62 69.3411 67.7826 69.9102C67.8798 70.2504 66.5822 70.5441 65.1462 70.8692C63.5798 71.2238 61.8487 71.6157 61.5836 72.1459C61.3895 72.534 61.1954 72.8777 61.0296 73.1713C60.7614 73.6462 60.5673 73.9899 60.5673 74.1783C60.5673 74.3061 61.3705 73.9519 62.3337 73.5273C63.6686 72.9387 65.3107 72.2146 65.5469 72.4507C65.7425 72.6464 64.5257 73.0774 63.1881 73.5513C61.7465 74.0619 60.1646 74.6223 60.0592 74.9913C59.8966 75.5604 57.688 79.5998 56.604 81.5483C58.9875 81.2558 62.1292 80.099 63.7176 76.9221C64.8968 74.5638 66.6022 73.5009 68.0119 72.6222C69.7609 71.5321 71.0546 70.7258 70.3231 68.0811C69.7705 66.0832 71.6183 64.0142 73.1444 62.3054C75.2666 59.9291 76.7667 58.2495 70.3231 58.4269Z" fill="#7C9ED2"/>
<path d="M63.0063 69.3004C61.9494 70.2759 57.9777 77.9044 56.124 81.5968C56.2799 81.5845 56.4402 81.5684 56.604 81.5483C57.688 79.5998 59.8966 75.5604 60.0592 74.9913C60.1646 74.6223 61.7465 74.0619 63.1881 73.5513C64.5257 73.0774 65.7425 72.6464 65.5469 72.4507C65.3107 72.2146 63.6686 72.9387 62.3337 73.5273C61.3705 73.9519 60.5673 74.3061 60.5673 74.1783C60.5673 73.9899 60.7614 73.6462 61.0296 73.1713C61.1954 72.8777 61.3895 72.534 61.5836 72.1459C61.8487 71.6157 63.5798 71.2238 65.1462 70.8692C66.5822 70.5441 67.8798 70.2504 67.7826 69.9102C67.62 69.3411 63.8531 70.8248 61.9901 71.6377C62.3965 70.9264 65.0387 67.273 65.7501 67.1663C67.3761 66.9224 69.0698 65.7097 69.7134 65.1339C69.6777 64.9198 69.145 65.2263 68.4896 65.6034C67.6515 66.0855 66.6128 66.6831 66.1566 66.455C67.7487 64.9306 70.8109 61.8413 70.3231 61.6787C69.8353 61.5161 67.0712 64.7951 65.7501 66.455C66.0211 65.2694 66.4818 62.9388 66.1566 63.1014C65.9533 63.203 65.8263 64.0922 65.6993 64.9814C65.5723 65.8706 65.4452 66.7598 65.242 66.8615C64.9168 67.0241 63.8193 68.3519 63.3112 68.9955C63.5144 67.4373 63.8396 64.3615 63.5144 64.5241C63.1892 64.6867 63.0402 67.7761 63.0063 69.3004Z" fill="#21519A"/>
<path fill-rule="evenodd" clip-rule="evenodd" d="M9.91255 33.5012C16.8306 32.7554 23.6641 43.6735 26.216 49.2258L24.6209 49.9272C24.2931 50.0035 23.8806 50.0651 23.4134 50.0912C21.5801 47.4042 17.682 41.8677 16.7565 41.2178C16.5685 40.0312 16.125 37.6349 15.8548 37.5423C15.5846 37.4497 16.1638 39.8168 16.4871 41.012C16.0236 40.5631 15.0292 39.6423 14.759 39.5497C14.5902 39.4919 14.3971 38.811 14.204 38.1302C14.0109 37.4494 13.8178 36.7685 13.6489 36.7107C13.3787 36.6181 13.9842 38.389 14.3207 39.2861C13.1172 38.1297 10.6196 35.8616 10.2574 36.0401C9.89528 36.2185 12.6046 38.3071 14.0046 39.329C13.6739 39.5553 12.8027 39.1985 12.0997 38.9106C11.55 38.6854 11.1031 38.5024 11.0981 38.6733C11.6598 39.0549 13.1057 39.8228 14.3962 39.8415C14.9608 39.8496 17.4032 42.4229 17.7948 42.9353C16.2596 42.4974 13.1725 41.7369 13.1064 42.1984C13.0669 42.4744 14.1072 42.5666 15.2586 42.6687C16.5145 42.7801 17.9025 42.9031 18.1649 43.2891C18.357 43.5716 18.5444 43.8195 18.7044 44.0311C18.9634 44.3736 19.1508 44.6215 19.1708 44.7686C19.1844 44.8683 18.5221 44.6767 17.728 44.4469C16.6273 44.1283 15.2733 43.7365 15.1147 43.9458C14.9833 44.1192 15.9754 44.3272 17.066 44.5559C18.2413 44.8023 19.5311 45.0727 19.6522 45.3496C19.839 45.7768 21.9852 48.6973 23.0349 50.1041C21.1501 50.1275 18.5839 49.5562 17.0116 47.2437C15.8444 45.527 14.4052 44.8772 13.2157 44.3402C11.7397 43.6738 10.648 43.1809 10.9364 41.0388C11.1543 39.4205 9.49776 38.0004 8.12962 36.8275C6.22699 35.1963 4.8822 34.0435 9.91255 33.5012Z" fill="#7C9ED2"/>
<path d="M16.7565 41.2178C17.682 41.8677 21.5801 47.4042 23.4134 50.0912C23.2909 50.0981 23.1645 50.1025 23.0349 50.1041C21.9852 48.6973 19.839 45.7768 19.6522 45.3496C19.5311 45.0727 18.2413 44.8023 17.066 44.5559C15.9754 44.3272 14.9833 44.1192 15.1147 43.9458C15.2733 43.7365 16.6273 44.1283 17.728 44.4469C18.5221 44.6767 19.1844 44.8683 19.1708 44.7686C19.1508 44.6215 18.9634 44.3736 18.7044 44.0311C18.5444 43.8195 18.357 43.5716 18.1649 43.2891C17.9025 42.9031 16.5145 42.7801 15.2586 42.6687C14.1072 42.5666 13.0669 42.4744 13.1064 42.1984C13.1725 41.7369 16.2596 42.4974 17.7948 42.9353C17.4032 42.4229 14.9608 39.8496 14.3962 39.8415C13.1057 39.8228 11.6598 39.0549 11.0981 38.6733C11.1031 38.5024 11.55 38.6854 12.0997 38.9106C12.8027 39.1985 13.6739 39.5553 14.0046 39.329C12.6046 38.3071 9.89528 36.2185 10.2574 36.0401C10.6196 35.8616 13.1172 38.1297 14.3207 39.2861C13.9842 38.389 13.3787 36.6181 13.6489 36.7107C13.8178 36.7685 14.0109 37.4494 14.204 38.1302C14.3971 38.811 14.5902 39.4919 14.759 39.5497C15.0292 39.6423 16.0236 40.5631 16.4871 41.012C16.1638 39.8168 15.5846 37.4497 15.8548 37.5423C16.125 37.6349 16.5685 40.0312 16.7565 41.2178Z" fill="#21519A"/>
<path fill-rule="evenodd" clip-rule="evenodd" d="M2.98762 45.1626C8.79005 41.3223 19.8751 47.8815 24.6923 51.6411L23.5976 52.9969C23.3416 53.2152 23.0034 53.4593 22.6005 53.6972C19.7377 52.1526 13.732 49.0253 12.6114 48.8731C11.8994 47.9055 10.4047 45.9807 10.1222 46.0226C9.83965 46.0644 11.4414 47.901 12.2776 48.8141C11.6597 48.6283 10.3534 48.2672 10.0709 48.309C9.89436 48.3352 9.4101 47.8191 8.92583 47.3031C8.44157 46.787 7.9573 46.271 7.78073 46.2971C7.49822 46.339 8.84952 47.6339 9.56048 48.2761C7.96025 47.8018 4.69988 46.9344 4.46019 47.2593C4.2205 47.5842 7.58644 48.1948 9.29938 48.4595C9.10963 48.8124 8.17186 48.8957 7.41517 48.9628C6.82346 49.0154 6.34248 49.058 6.4165 49.2122C7.09068 49.2931 8.72777 49.311 9.88261 48.7348C10.3879 48.4827 13.7394 49.6465 14.3226 49.9218C12.7578 50.238 9.66637 50.9806 9.81964 51.4209C9.91127 51.6841 10.8777 51.2882 11.9473 50.85C13.1141 50.372 14.4035 49.8438 14.8138 50.0661C15.1143 50.2288 15.3946 50.3628 15.634 50.4773C16.0214 50.6626 16.3017 50.7967 16.387 50.9182C16.4448 51.0005 15.7685 51.1345 14.9576 51.2952C13.8336 51.5178 12.4509 51.7917 12.4062 52.0505C12.3691 52.2649 13.3459 51.9939 14.4197 51.6961C15.5769 51.3751 16.8467 51.0228 17.0815 51.2132C17.4437 51.5068 20.6915 53.115 22.2702 53.8825C20.6067 54.7691 18.0649 55.4404 15.606 54.1085C13.7806 53.1198 12.2038 53.2037 10.9005 53.2731C9.2834 53.3592 8.08724 53.4229 7.35947 51.3876C6.80969 49.8501 4.68587 49.3495 2.93184 48.9361C0.492564 48.3613 -1.23153 47.9549 2.98762 45.1626Z" fill="#7C9ED2"/>
<path d="M12.6114 48.8731C13.732 49.0253 19.7377 52.1526 22.6005 53.6972C22.4947 53.7596 22.3845 53.8215 22.2702 53.8825C20.6915 53.115 17.4437 51.5068 17.0815 51.2132C16.8467 51.0228 15.5769 51.3751 14.4197 51.6961C13.3459 51.9939 12.3691 52.2649 12.4062 52.0505C12.4509 51.7917 13.8336 51.5178 14.9576 51.2952C15.7685 51.1345 16.4448 51.0005 16.387 50.9182C16.3017 50.7967 16.0214 50.6626 15.634 50.4773C15.3946 50.3628 15.1143 50.2288 14.8138 50.0661C14.4035 49.8438 13.1141 50.372 11.9473 50.85C10.8777 51.2882 9.91127 51.6841 9.81964 51.4209C9.66637 50.9806 12.7578 50.238 14.3226 49.9218C13.7394 49.6465 10.3879 48.4827 9.88261 48.7348C8.72777 49.311 7.09068 49.2931 6.4165 49.2122C6.34248 49.058 6.82346 49.0154 7.41517 48.9628C8.17186 48.8957 9.10963 48.8124 9.29938 48.4595C7.58644 48.1948 4.2205 47.5842 4.46019 47.2593C4.69988 46.9344 7.96025 47.8018 9.56048 48.2761C8.84952 47.6339 7.49822 46.339 7.78073 46.2971C7.9573 46.271 8.44157 46.787 8.92583 47.3031C9.4101 47.8191 9.89436 48.3352 10.0709 48.309C10.3534 48.2672 11.6597 48.6283 12.2776 48.8141C11.4414 47.901 9.83965 46.0644 10.1222 46.0226C10.4047 45.9807 11.8994 47.9055 12.6114 48.8731Z" fill="#21519A"/>
<path fill-rule="evenodd" clip-rule="evenodd" d="M20.4258 14.7438C20.4259 13.9308 21.1778 12.1829 23.3728 12.1016H54.8762C56.5021 12.1016 57.9248 13.6462 57.9248 15.3535V81.1035C57.5183 82.9327 56.3395 83.9286 54.8762 84.2538H23.3728C21.5438 84.2538 20.4258 83.0547 20.4258 81.1035V14.7438ZM23.4747 13.5243C22.2552 13.5243 21.8487 14.5405 21.9503 15.3535V81.1035C21.9164 81.7471 21.9503 82.5262 23.7795 82.5262H54.8762C55.4859 82.5262 56.0956 81.8149 55.994 81.1035V15.3535C55.994 14.5405 55.5265 13.8901 54.8762 13.7275L23.4747 13.5243Z" fill="#AEB2CD"/>
<path d="M21.9503 15.3535C21.8487 14.5405 22.2552 13.5243 23.4747 13.5243L54.8762 13.7275C55.5265 13.8901 55.994 14.5405 55.994 15.3535V81.1035C56.0956 81.8149 55.4859 82.5262 54.8762 82.5262H23.7795C21.9503 82.5262 21.9164 81.7471 21.9503 81.1035V15.3535Z" fill="#F0F0FC"/>
<path d="M29.4706 37.2032C30.1879 39.5343 32.7225 42.7586 34.3485 44.012V42.3859C33.0478 42.8737 31.7348 40.4551 31.8078 40.0486C32.3114 37.2427 33.3753 38.4607 33.9538 39.1229C34.1924 39.396 34.3485 39.5746 34.3485 39.3372C34.3485 39.1089 34.2683 38.9127 34.1756 38.6856C33.938 38.1037 33.6175 37.3188 34.3485 35.2723C35.3648 32.4268 41.462 32.0204 44.9171 32.4268C47.5729 32.7393 47.1067 36.4138 46.8872 38.1436C46.8211 38.6643 46.7774 39.0088 46.848 39.0323C46.9136 39.0542 46.9698 39.0573 47.0227 39.0323C47.2154 38.9415 47.3638 38.4791 47.7626 37.2031C48.2707 35.5772 47.1528 37.2031 49.1853 31.7156C53.3518 24.7036 43.3928 23.6874 41.4619 25.415C39.9173 26.797 36.347 27.2781 34.755 27.3458C29.5722 27.9555 28.6575 34.561 29.4706 37.2032Z" fill="#141130"/>
<path d="M36.4824 36.8983C37.1938 36.5595 38.6775 35.9633 38.9214 36.2885C39.1653 36.6137 39.023 37.1693 38.9214 37.4064C38.4471 37.5419 37.4174 37.8129 37.0922 37.8129C36.6857 37.8129 36.2792 36.9924 36.4824 36.8983Z" fill="#141130"/>
<path d="M43.0879 36.2885C43.0879 36.6273 43.1489 37.3047 43.3928 37.3047C43.5123 37.3047 43.8035 37.3516 44.1197 37.4024C44.61 37.4813 45.1602 37.5698 45.222 37.508C45.3236 37.4064 45.7301 36.5934 45.4252 36.4918C45.372 36.474 45.3062 36.4407 45.227 36.4006C44.8531 36.2111 44.1781 35.8692 43.0879 36.2885Z" fill="#141130"/>
<path d="M38.1084 38.2194C37.7019 38.2194 37.4499 38.6137 37.397 38.9307C37.2954 39.5405 37.9051 39.8196 38.1084 39.7817C38.5644 39.6965 38.9214 39.5405 38.9214 39.0323C38.9214 38.5242 38.5962 38.2194 38.1084 38.2194Z" fill="#141130"/>
<path d="M44.2058 38.1177C43.4944 38.4226 43.3928 39.2153 44.2058 39.5405C44.5107 39.5405 44.8561 39.4795 45.0187 38.8291C45.1813 38.1787 44.5445 38.0839 44.2058 38.1177Z" fill="#141130"/>
<path fill-rule="evenodd" clip-rule="evenodd" d="M44.9171 32.4268C41.462 32.0204 35.3648 32.4268 34.3485 35.2723C33.6175 37.3188 33.938 38.1037 34.1756 38.6856C34.2683 38.9127 34.3485 39.1089 34.3485 39.3372C34.3485 39.5746 34.1924 39.396 33.9538 39.1229C33.3753 38.4607 32.3114 37.2427 31.8078 40.0486C31.7348 40.4551 33.0478 42.8737 34.3485 42.3859V44.012C34.8571 44.6902 35.5966 45.4924 36.4824 46.1974C38.0714 47.4623 40.1311 48.4147 42.1733 47.7785C42.8589 47.565 43.5426 47.1724 44.2058 46.5524C47.9455 43.0566 47.6419 40.0824 47.0227 39.0323C46.9698 39.0573 46.9136 39.0542 46.848 39.0323C46.7774 39.0088 46.8211 38.6643 46.8872 38.1436C47.1067 36.4138 47.5729 32.7393 44.9171 32.4268ZM38.9214 36.2885C38.6775 35.9633 37.1938 36.5595 36.4824 36.8983C36.2792 36.9924 36.6857 37.8129 37.0922 37.8129C37.4174 37.8129 38.4471 37.5419 38.9214 37.4064C39.023 37.1693 39.1653 36.6137 38.9214 36.2885ZM43.3928 37.3047C43.1489 37.3047 43.0879 36.6273 43.0879 36.2885C44.1781 35.8692 44.8531 36.2111 45.227 36.4006C45.3062 36.4407 45.372 36.474 45.4252 36.4918C45.7301 36.5934 45.3236 37.4064 45.222 37.508C45.1602 37.5698 44.61 37.4813 44.1197 37.4024C43.8035 37.3516 43.5123 37.3047 43.3928 37.3047ZM37.397 38.9307C37.4499 38.6137 37.7019 38.2194 38.1084 38.2194C38.5962 38.2194 38.9214 38.5242 38.9214 39.0323C38.9214 39.5405 38.5644 39.6965 38.1084 39.7817C37.9051 39.8196 37.2954 39.5405 37.397 38.9307ZM44.2058 39.5405C43.3928 39.2153 43.4944 38.4226 44.2058 38.1177C44.5445 38.0839 45.1813 38.1787 45.0187 38.8291C44.8561 39.4795 44.5107 39.5405 44.2058 39.5405ZM40.4457 40.7599C41.1571 42.081 41.9294 41.6542 42.5798 40.7599H40.4457ZM38.7181 42.9956H38.9214H43.3928H43.9009C43.9009 43.8919 43.1351 45.2531 42.0717 45.632C41.3519 45.8884 40.4958 45.6948 39.6486 44.6024C39.3348 44.1978 39.0221 43.6698 38.7181 42.9956Z" fill="#FFC686"/>
<path d="M40.4457 40.7599C41.1571 42.081 41.9294 41.6542 42.5798 40.7599H40.4457Z" fill="#F6AC6B"/>
<path d="M38.9214 42.9956H38.7181C39.0221 43.6698 39.3348 44.1978 39.6486 44.6024C39.9364 44.2692 40.7953 44.0319 42.0717 45.632C43.1351 45.2531 43.9009 43.8919 43.9009 42.9956H43.3928V43.1989C42.8237 44.1745 40.2425 44.7232 39.023 43.1989L38.9214 42.9956Z" fill="#B34030"/>
<path d="M38.9214 42.9956L39.023 43.1989C40.2425 44.7232 42.8237 44.1745 43.3928 43.1989V42.9956H38.9214Z" fill="#FFFBF7"/>
<path d="M42.0717 45.632C41.3519 45.8884 40.4958 45.6948 39.6486 44.6024C39.9364 44.2692 40.7953 44.0319 42.0717 45.632Z" fill="#F79E5A"/>
<path d="M36.4824 46.1974L36.2792 48.28L39.4295 51.2271L40.5473 51.1255C41.1232 50.5584 42.2749 49.2564 42.2749 48.5849C42.2749 47.9134 42.2072 47.7676 42.1733 47.7785C40.1311 48.4147 38.0714 47.4623 36.4824 46.1974Z" fill="#F79E5A"/>
<path d="M39.4295 51.2271L36.2792 48.28C35.2501 49.0197 33.3723 50.4248 33.6716 50.4262C33.6942 50.4221 33.7165 50.418 33.7386 50.4141C34.45 50.2109 37.9051 54.8855 37.7019 53.8693C37.5393 53.0563 38.7859 51.7691 39.4295 51.2271Z" fill="#272443"/>
<path d="M42.2749 48.5849C42.2749 49.2564 41.1232 50.5584 40.5473 51.1255C40.9945 51.0848 42.1564 52.5313 42.6814 53.2595C43.3456 52.0893 44.5414 49.8087 44.3661 49.4452C44.3465 49.4296 44.3269 49.4138 44.3074 49.3979C43.9009 49.3166 42.783 48.822 42.2749 48.5849Z" fill="#272443"/>
<path d="M40.5473 51.1255L39.4295 51.2271C38.7859 51.7691 37.5393 53.0563 37.7019 53.8693C37.9051 54.8855 34.45 50.2109 33.7386 50.4141C33.7098 50.4223 33.6876 50.4263 33.6716 50.4262C31.545 50.8166 27.1627 52.2309 26.1169 54.8855C28.1493 52.1214 30.6899 56.5115 31.7062 59.0521C31.7062 61.4612 29.7287 65.0568 28.7591 67.8897L29.877 71.9456C32.7955 72.5524 37.4352 74.1753 39.6328 75.0069L42.9863 75.6166C44.1592 75.1066 46.687 74.5123 49.287 75.1509C49.9513 73.8038 50.3089 71.2411 50.4759 68.2997C50.7382 63.682 50.5308 58.1309 50.3032 54.8855C50.3032 53.9118 50.1166 53.218 49.7951 52.6951C48.7839 51.0507 46.4385 51.097 44.3661 49.4452C44.5414 49.8087 43.3456 52.0893 42.6814 53.2595C42.1564 52.5313 40.9945 51.0848 40.5473 51.1255Z" fill="#141130"/>
<path d="M50.3032 54.8855C50.5308 58.1309 50.7382 63.682 50.4759 68.2997C54.673 77.8523 61.0752 78.3604 61.8882 62.5072C60.3639 62.8799 57.3761 62.7511 57.62 59.2553C57.5757 59.3923 57.5291 59.538 57.4808 59.6913C56.7006 62.1658 55.4696 66.596 55.7656 67.8081C55.7741 67.8367 55.7825 67.8651 55.7908 67.8932C55.7814 67.8669 55.773 67.8385 55.7656 67.8081C54.4982 63.5362 51.5717 54.6693 49.7951 52.6951C50.1166 53.218 50.3032 53.9118 50.3032 54.8855Z" fill="#3F4261"/>
<path d="M26.1169 54.8855C24.7958 58.2391 19.613 71.6533 21.7471 75.0069C23.8812 78.3604 37.1938 80.1896 38.1084 78.8685C38.8401 77.8116 39.4295 75.8537 39.6328 75.0069C37.4352 74.1753 32.7955 72.5524 29.877 71.9456C29.4664 71.8603 29.09 71.795 28.7591 71.7549C27.9564 71.0286 28.1745 69.5978 28.7591 67.8897C29.7287 65.0568 31.7062 61.4612 31.7062 59.0521C30.6899 56.5115 28.1493 52.1214 26.1169 54.8855Z" fill="#3F4261"/>
<path d="M39.6328 75.0069C39.4295 75.8537 38.8401 77.8116 38.1084 78.8685L41.7669 79.1734L42.9863 75.6166L39.6328 75.0069Z" fill="#141130"/>
<path d="M42.9863 75.6166L41.7669 79.1734C41.8685 79.5799 48.7788 81.9172 53.2502 80.7994C56.8274 79.9051 55.6892 78.462 54.673 77.8523C53.1486 76.8361 51.1162 77.8523 49.7951 76.5312C50.9129 76.8022 52.8844 77.1206 51.8275 76.2263C51.0032 75.7036 50.1412 75.3607 49.287 75.1509C46.687 74.5123 44.1592 75.1066 42.9863 75.6166Z" fill="#FEC786"/>
<path d="M57.8233 58.6456C59.0089 59.6618 61.4817 61.5723 61.8882 61.0845C61.9757 60.9795 62.0333 60.9543 62.0683 60.986C62.9482 60.4823 64.3772 59.3512 64.2255 58.1374C63.4125 54.7839 61.9898 54.3774 61.5833 54.1742C61.4707 54.1178 61.2098 54.1474 60.872 54.2411C59.9907 54.4856 58.5861 55.1671 57.9249 55.9017C57.1932 56.7147 57.5523 58.0697 57.8233 58.6456Z" fill="#FEC786"/>
<path d="M57.62 59.2553C57.3761 62.7511 60.3639 62.8799 61.8882 62.5072C62.0211 61.9756 62.1958 61.1017 62.0683 60.986C62.0052 61.0221 61.9449 61.055 61.8882 61.0845C61.4817 61.5723 59.0089 59.6618 57.8233 58.6456L57.62 59.2553Z" fill="#5EA2A3"/>
<path d="M57.62 59.2553L57.8233 58.6456C57.5523 58.0697 57.1932 56.7147 57.9249 55.9017C58.5861 55.1671 59.9907 54.4856 60.872 54.2411L61.1768 50.8206H55.9941L57.4168 59.2553L57.4808 59.6913C57.5291 59.538 57.5757 59.3923 57.62 59.2553Z" fill="#5EA2A3"/>
<path d="M55.0795 50.8206C52.9454 49.3979 52.0308 42.7924 54.0632 40.3534C52.6744 40.6583 49.7544 41.9997 49.1853 44.9265C48.9414 46.8776 49.3535 47.5687 49.7951 48.28C50.4048 49.2624 52.3153 51.1458 55.0795 50.8206Z" fill="#141130"/>
<path d="M55.9941 50.8206H61.1768C65.2956 50.658 67.071 50.8206 68.9002 51.4303C63.2093 43.9102 66.5629 34.2561 65.9531 35.6788C65.474 36.7966 57.8233 39.2695 54.0632 40.3534C52.0308 42.7924 52.9454 49.3979 55.0795 50.8206H55.9941Z" fill="#5EA2A3"/>
<path d="M72.3554 34.6626C70.079 31.4106 68.0194 33.5108 67.2742 34.9674C66.6699 36.1001 66.5122 38.1951 66.548 40.2518C67.4304 41.5526 69.4323 41.6068 70.3229 41.4713C72.0505 41.4713 72.8635 44.52 70.5261 44.6216C70.3485 44.6293 70.1791 44.6497 70.018 44.6808C68.4837 44.9775 67.692 46.2528 67.4775 46.9136C68.3061 49.0587 70.3423 53.2207 73.0667 51.4303C76.6235 49.093 75.2008 38.7275 72.3554 34.6626Z" fill="#5EA2A3"/>
<path fill-rule="evenodd" clip-rule="evenodd" d="M65.9531 35.6788C66.5629 34.2561 63.2093 43.9102 68.9002 51.4303C72.1521 54.3774 74.9976 51.8368 75.6073 48.1784C76.0985 45.2313 75.404 40.3534 74.7943 38.0161C74.0829 35.6788 72.1115 32.122 69.9164 32.122C67.8839 32.2236 66.4409 34.378 65.9531 35.6788ZM67.2742 34.9674C68.0194 33.5108 70.079 31.4106 72.3554 34.6626C75.2008 38.7275 76.6235 49.093 73.0667 51.4303C70.3423 53.2207 68.3061 49.0587 67.4775 46.9136C67.2243 46.2582 67.0839 45.791 67.071 45.7395C66.9055 45.0778 66.5905 42.6917 66.548 40.2518C66.5122 38.1951 66.6699 36.1001 67.2742 34.9674Z" fill="#8ED6D2"/>
<path d="M70.5261 44.6216C72.8635 44.52 72.0505 41.4713 70.3229 41.4713C69.747 41.6463 68.8799 42.5332 70.018 44.6808C70.1791 44.6497 70.3485 44.6293 70.5261 44.6216Z" fill="#8ED6D2"/>
<path d="M23.7251 81.5145C20.5435 81.7617 15.6707 81.5812 12.7675 81.0869C13.2545 79.2657 25.6731 79.3669 23.7251 81.5145Z" fill="url(#paint0_linear_3865_23139)"/>
<path d="M12.7675 81.0869C9.23665 78.3327 30.3606 79.001 23.7251 81.5145C25.6731 79.3669 13.2545 79.2657 12.7675 81.0869Z" fill="url(#paint1_linear_3865_23139)"/>
<path d="M26.8281 80.7087C26.8296 78.5555 9.6005 78.6297 10.3917 80.2632C10.5962 80.5919 11.4917 80.8697 12.7675 81.0869C9.23665 78.3327 30.3606 79.001 23.7251 81.5145C25.4619 81.3795 26.6947 81.1171 26.8281 80.7087Z" fill="url(#paint2_linear_3865_23139)"/>
<path d="M12.7675 81.0869C11.4917 80.8697 10.5962 80.5919 10.3917 80.2632V83.3821C12.2804 84.793 25.1223 85.4109 26.8281 83.6791V80.7087C26.6947 81.1171 25.4619 81.3795 23.7251 81.5145C20.5435 81.7617 15.6707 81.5812 12.7675 81.0869Z" fill="url(#paint3_linear_3865_23139)"/>
<path d="M10.3917 83.3821C12.2804 84.793 25.1223 85.4109 26.8281 83.6791C25.4632 85.8177 11.7326 85.09 10.3917 83.3821Z" fill="url(#paint4_linear_3865_23139)"/>
<path d="M23.7251 78.1551C20.5435 78.4023 15.6707 78.2218 12.7675 77.7275C13.2545 75.9064 25.6731 76.0075 23.7251 78.1551Z" fill="url(#paint5_linear_3865_23139)"/>
<path d="M12.7675 77.7275C9.23665 74.9733 30.3606 75.6416 23.7251 78.1551C25.6731 76.0075 13.2545 75.9064 12.7675 77.7275Z" fill="url(#paint6_linear_3865_23139)"/>
<path d="M26.8281 77.3494C26.8296 75.1961 9.6005 75.2703 10.3917 76.9038C10.5962 77.2325 11.4917 77.5103 12.7675 77.7275C9.23665 74.9733 30.3606 75.6416 23.7251 78.1551C25.4619 78.0202 26.6947 77.7578 26.8281 77.3494Z" fill="url(#paint7_linear_3865_23139)"/>
<path d="M12.7675 77.7275C11.4917 77.5103 10.5962 77.2325 10.3917 76.9038V80.0227C12.2804 81.4336 25.1223 82.0515 26.8281 80.3198V77.3494C26.6947 77.7578 25.4619 78.0202 23.7251 78.1551C20.5435 78.4023 15.6707 78.2218 12.7675 77.7275Z" fill="url(#paint8_linear_3865_23139)"/>
<path d="M10.3917 80.0227C12.2804 81.4336 25.1223 82.0515 26.8281 80.3198C25.4632 82.4583 11.7326 81.7306 10.3917 80.0227Z" fill="url(#paint9_linear_3865_23139)"/>
<path d="M23.7251 75.241C20.5435 75.4882 15.6707 75.3077 12.7675 74.8135C13.2545 72.9923 25.6731 73.0935 23.7251 75.241Z" fill="url(#paint10_linear_3865_23139)"/>
<path d="M12.7675 74.8135C9.23665 72.0593 30.3606 72.7276 23.7251 75.241C25.6731 73.0935 13.2545 72.9923 12.7675 74.8135Z" fill="url(#paint11_linear_3865_23139)"/>
<path d="M26.8281 74.4353C26.8296 72.282 9.6005 72.3562 10.3917 73.9898C10.5962 74.3185 11.4917 74.5963 12.7675 74.8135C9.23665 72.0593 30.3606 72.7276 23.7251 75.241C25.4619 75.1061 26.6947 74.8437 26.8281 74.4353Z" fill="url(#paint12_linear_3865_23139)"/>
<path d="M12.7675 74.8135C11.4917 74.5963 10.5962 74.3185 10.3917 73.9898V77.1087C12.2804 78.5195 25.1223 79.1374 26.8281 77.4057V74.4353C26.6947 74.8437 25.4619 75.1061 23.7251 75.241C20.5435 75.4882 15.6707 75.3077 12.7675 74.8135Z" fill="url(#paint13_linear_3865_23139)"/>
<path d="M10.3917 77.1087C12.2804 78.5195 25.1223 79.1374 26.8281 77.4057C25.4632 79.5443 11.7326 78.8166 10.3917 77.1087Z" fill="url(#paint14_linear_3865_23139)"/>
<path d="M23.7251 72.3309C20.5435 72.5781 15.6707 72.3976 12.7675 71.9033C13.2545 70.0821 25.6731 70.1833 23.7251 72.3309Z" fill="url(#paint15_linear_3865_23139)"/>
<path d="M12.7675 71.9033C9.23665 69.1491 30.3606 69.8174 23.7251 72.3309C25.6731 70.1833 13.2545 70.0821 12.7675 71.9033Z" fill="url(#paint16_linear_3865_23139)"/>
<path d="M26.8281 71.5252C26.8296 69.3719 9.6005 69.4461 10.3917 71.0796C10.5962 71.4083 11.4917 71.6861 12.7675 71.9033C9.23665 69.1491 30.3606 69.8174 23.7251 72.3309C25.4619 72.1959 26.6947 71.9335 26.8281 71.5252Z" fill="url(#paint17_linear_3865_23139)"/>
<path d="M12.7675 71.9033C11.4917 71.6861 10.5962 71.4083 10.3917 71.0796V74.1985C12.2804 75.6094 25.1223 76.2273 26.8281 74.4955V71.5252C26.6947 71.9335 25.4619 72.1959 23.7251 72.3309C20.5435 72.5781 15.6707 72.3976 12.7675 71.9033Z" fill="url(#paint18_linear_3865_23139)"/>
<path d="M10.3917 74.1985C12.2804 75.6094 25.1223 76.2273 26.8281 74.4955C25.4632 76.6341 11.7326 75.9064 10.3917 74.1985Z" fill="url(#paint19_linear_3865_23139)"/>
<path d="M23.7251 69.4207C20.5435 69.6679 15.6707 69.4874 12.7675 68.9931C13.2545 67.172 25.6731 67.2732 23.7251 69.4207Z" fill="url(#paint20_linear_3865_23139)"/>
<path d="M12.7675 68.9931C9.23665 66.239 30.3606 66.9073 23.7251 69.4207C25.6731 67.2732 13.2545 67.172 12.7675 68.9931Z" fill="url(#paint21_linear_3865_23139)"/>
<path d="M26.8281 68.615C26.8296 66.4617 9.6005 66.5359 10.3917 68.1695C10.5962 68.4982 11.4917 68.7759 12.7675 68.9931C9.23665 66.239 30.3606 66.9073 23.7251 69.4207C25.4619 69.2858 26.6947 69.0234 26.8281 68.615Z" fill="url(#paint22_linear_3865_23139)"/>
<path d="M12.7675 68.9931C11.4917 68.7759 10.5962 68.4982 10.3917 68.1695V71.2884C12.2804 72.6992 25.1223 73.3171 26.8281 71.5854V68.615C26.6947 69.0234 25.4619 69.2858 23.7251 69.4207C20.5435 69.6679 15.6707 69.4874 12.7675 68.9931Z" fill="url(#paint23_linear_3865_23139)"/>
<path d="M10.3917 71.2884C12.2804 72.6992 25.1223 73.3171 26.8281 71.5854C25.4632 73.724 11.7326 72.9962 10.3917 71.2884Z" fill="url(#paint24_linear_3865_23139)"/>
<path fill-rule="evenodd" clip-rule="evenodd" d="M17.7991 52.1409C21.2046 52.1409 24.7839 55.3031 24.7839 58.917C24.975 61.6448 22.8518 66.6592 17.4168 66.5619C12.1695 66.4679 10.1714 61.5927 10.3799 58.917C10.3799 56.3282 12.6421 51.9185 17.7991 52.1409ZM23.8457 58.917C23.943 55.3587 20.249 52.9923 17.7991 52.9923C12.9618 52.8255 11.3587 56.8726 11.1618 58.917C10.9254 62.2113 13.6464 65.7105 17.4168 65.7105C22.5078 65.7105 24.141 61.28 23.8457 58.917Z" fill="#E5A63B"/>
<path d="M17.7991 52.9923C20.249 52.9923 23.943 55.3587 23.8457 58.917C24.141 61.28 22.5078 65.7105 17.4168 65.7105C13.6464 65.7105 10.9254 62.2113 11.1618 58.917C11.3587 56.8726 12.9618 52.8255 17.7991 52.9923Z" fill="#F3D479"/>
<path fill-rule="evenodd" clip-rule="evenodd" d="M16.4507 58.1364C17.9424 58.1292 17.9574 58.1375 17.5205 58.7224C17.2099 59.1384 16.8779 59.2511 15.9501 59.2556L15.2647 59.2589L15.2682 59.7099L15.2718 60.1609L16.5437 61.9373L17.8156 63.7136L18.5233 63.7102C18.9126 63.7083 19.2292 63.6779 19.2271 63.6424C19.2249 63.6069 18.7095 62.8653 18.0817 61.9943C17.3634 60.9978 16.9695 60.387 17.0194 60.347C17.063 60.3121 17.17 60.2826 17.2573 60.2814C17.3445 60.2803 17.6023 60.1959 17.8301 60.0939C18.3808 59.8473 18.7887 59.3381 18.9707 58.6703L19.1079 58.1665L19.4747 58.139L19.8414 58.1114L19.9508 57.651C20.011 57.3977 20.0601 57.1675 20.06 57.1393C20.0598 57.1111 19.8397 57.0892 19.5708 57.0905L19.0818 57.0928L18.954 56.6425C18.8837 56.3947 18.8094 56.1438 18.7888 56.0849C18.7608 56.0048 18.886 55.977 19.2839 55.9751L19.8164 55.9725L19.9023 55.607C19.9496 55.4059 20.0043 55.1732 20.024 55.0898C20.0576 54.9468 19.9258 54.9401 17.7136 54.9721L15.3675 55.0061L15.2807 55.366C15.2329 55.564 15.1741 55.8222 15.15 55.94L15.1062 56.1541L16.1055 56.1772C17.2104 56.2028 17.367 56.2693 17.6444 56.8296L17.7778 57.0991L16.5607 57.105L15.3437 57.1109L15.2378 57.6268L15.1318 58.1428L16.4507 58.1364Z" fill="#E5A63B"/>
<defs>
<linearGradient id="paint0_linear_3865_23139" x1="18.5967" y1="79.0625" x2="18.5967" y2="84.9981" gradientUnits="userSpaceOnUse">
<stop offset="0.428096" stop-color="#F2D379"/>
<stop offset="1" stop-color="#E9BB35" stop-opacity="0.81"/>
</linearGradient>
<linearGradient id="paint1_linear_3865_23139" x1="12.6457" y1="82.8768" x2="24.5784" y2="82.8337" gradientUnits="userSpaceOnUse">
<stop stop-color="#F0BD59"/>
<stop offset="1" stop-color="#F4A93F"/>
</linearGradient>
<linearGradient id="paint2_linear_3865_23139" x1="18.5967" y1="79.0625" x2="18.5967" y2="84.9981" gradientUnits="userSpaceOnUse">
<stop stop-color="#F5CD40"/>
<stop offset="1" stop-color="#FFD772"/>
</linearGradient>
<linearGradient id="paint3_linear_3865_23139" x1="10.5759" y1="82.5733" x2="26.7697" y2="82.7163" gradientUnits="userSpaceOnUse">
<stop stop-color="#E7B455"/>
<stop offset="0.294279" stop-color="#E3A239"/>
<stop offset="0.671845" stop-color="#ECC64B"/>
<stop offset="1" stop-color="#F4E17B"/>
</linearGradient>
<linearGradient id="paint4_linear_3865_23139" x1="18.6115" y1="84.1989" x2="18.5895" y2="84.9979" gradientUnits="userSpaceOnUse">
<stop stop-color="#7C1A00"/>
<stop offset="1" stop-color="#A66E11"/>
</linearGradient>
<linearGradient id="paint5_linear_3865_23139" x1="18.5967" y1="75.7031" x2="18.5967" y2="81.6387" gradientUnits="userSpaceOnUse">
<stop offset="0.428096" stop-color="#F2D379"/>
<stop offset="1" stop-color="#E9BB35" stop-opacity="0.81"/>
</linearGradient>
<linearGradient id="paint6_linear_3865_23139" x1="12.6457" y1="79.5174" x2="24.5784" y2="79.4743" gradientUnits="userSpaceOnUse">
<stop stop-color="#F0BD59"/>
<stop offset="1" stop-color="#F4A93F"/>
</linearGradient>
<linearGradient id="paint7_linear_3865_23139" x1="18.5967" y1="75.7031" x2="18.5967" y2="81.6387" gradientUnits="userSpaceOnUse">
<stop stop-color="#F5CD40"/>
<stop offset="1" stop-color="#FFD772"/>
</linearGradient>
<linearGradient id="paint8_linear_3865_23139" x1="10.5759" y1="79.2139" x2="26.7697" y2="79.357" gradientUnits="userSpaceOnUse">
<stop stop-color="#E7B455"/>
<stop offset="0.294279" stop-color="#E3A239"/>
<stop offset="0.671845" stop-color="#ECC64B"/>
<stop offset="1" stop-color="#F4E17B"/>
</linearGradient>
<linearGradient id="paint9_linear_3865_23139" x1="18.6115" y1="80.8396" x2="18.5895" y2="81.6385" gradientUnits="userSpaceOnUse">
<stop stop-color="#7C1A00"/>
<stop offset="1" stop-color="#A66E11"/>
</linearGradient>
<linearGradient id="paint10_linear_3865_23139" x1="18.5967" y1="72.7891" x2="18.5967" y2="78.7247" gradientUnits="userSpaceOnUse">
<stop offset="0.428096" stop-color="#F2D379"/>
<stop offset="1" stop-color="#E9BB35" stop-opacity="0.81"/>
</linearGradient>
<linearGradient id="paint11_linear_3865_23139" x1="12.6457" y1="76.6033" x2="24.5784" y2="76.5603" gradientUnits="userSpaceOnUse">
<stop stop-color="#F0BD59"/>
<stop offset="1" stop-color="#F4A93F"/>
</linearGradient>
<linearGradient id="paint12_linear_3865_23139" x1="18.5967" y1="72.7891" x2="18.5967" y2="78.7247" gradientUnits="userSpaceOnUse">
<stop stop-color="#F5CD40"/>
<stop offset="1" stop-color="#FFD772"/>
</linearGradient>
<linearGradient id="paint13_linear_3865_23139" x1="10.5759" y1="76.2999" x2="26.7697" y2="76.4429" gradientUnits="userSpaceOnUse">
<stop stop-color="#E7B455"/>
<stop offset="0.294279" stop-color="#E3A239"/>
<stop offset="0.671845" stop-color="#ECC64B"/>
<stop offset="1" stop-color="#F4E17B"/>
</linearGradient>
<linearGradient id="paint14_linear_3865_23139" x1="18.6115" y1="77.9255" x2="18.5895" y2="78.7245" gradientUnits="userSpaceOnUse">
<stop stop-color="#7C1A00"/>
<stop offset="1" stop-color="#A66E11"/>
</linearGradient>
<linearGradient id="paint15_linear_3865_23139" x1="18.5967" y1="69.8789" x2="18.5967" y2="75.8145" gradientUnits="userSpaceOnUse">
<stop offset="0.428096" stop-color="#F2D379"/>
<stop offset="1" stop-color="#E9BB35" stop-opacity="0.81"/>
</linearGradient>
<linearGradient id="paint16_linear_3865_23139" x1="12.6457" y1="73.6932" x2="24.5784" y2="73.6501" gradientUnits="userSpaceOnUse">
<stop stop-color="#F0BD59"/>
<stop offset="1" stop-color="#F4A93F"/>
</linearGradient>
<linearGradient id="paint17_linear_3865_23139" x1="18.5967" y1="69.8789" x2="18.5967" y2="75.8145" gradientUnits="userSpaceOnUse">
<stop stop-color="#F5CD40"/>
<stop offset="1" stop-color="#FFD772"/>
</linearGradient>
<linearGradient id="paint18_linear_3865_23139" x1="10.5759" y1="73.3897" x2="26.7697" y2="73.5328" gradientUnits="userSpaceOnUse">
<stop stop-color="#E7B455"/>
<stop offset="0.294279" stop-color="#E3A239"/>
<stop offset="0.671845" stop-color="#ECC64B"/>
<stop offset="1" stop-color="#F4E17B"/>
</linearGradient>
<linearGradient id="paint19_linear_3865_23139" x1="18.6115" y1="75.0153" x2="18.5895" y2="75.8143" gradientUnits="userSpaceOnUse">
<stop stop-color="#7C1A00"/>
<stop offset="1" stop-color="#A66E11"/>
</linearGradient>
<linearGradient id="paint20_linear_3865_23139" x1="18.5967" y1="66.9688" x2="18.5967" y2="72.9044" gradientUnits="userSpaceOnUse">
<stop offset="0.428096" stop-color="#F2D379"/>
<stop offset="1" stop-color="#E9BB35" stop-opacity="0.81"/>
</linearGradient>
<linearGradient id="paint21_linear_3865_23139" x1="12.6457" y1="70.783" x2="24.5784" y2="70.7399" gradientUnits="userSpaceOnUse">
<stop stop-color="#F0BD59"/>
<stop offset="1" stop-color="#F4A93F"/>
</linearGradient>
<linearGradient id="paint22_linear_3865_23139" x1="18.5967" y1="66.9688" x2="18.5967" y2="72.9044" gradientUnits="userSpaceOnUse">
<stop stop-color="#F5CD40"/>
<stop offset="1" stop-color="#FFD772"/>
</linearGradient>
<linearGradient id="paint23_linear_3865_23139" x1="10.5759" y1="70.4795" x2="26.7697" y2="70.6226" gradientUnits="userSpaceOnUse">
<stop stop-color="#E7B455"/>
<stop offset="0.294279" stop-color="#E3A239"/>
<stop offset="0.671845" stop-color="#ECC64B"/>
<stop offset="1" stop-color="#F4E17B"/>
</linearGradient>
<linearGradient id="paint24_linear_3865_23139" x1="18.6115" y1="72.1052" x2="18.5895" y2="72.9042" gradientUnits="userSpaceOnUse">
<stop stop-color="#7C1A00"/>
<stop offset="1" stop-color="#A66E11"/>
</linearGradient>
</defs>
</svg>
