<svg width="103" height="93" viewBox="0 0 103 93" fill="none" xmlns="http://www.w3.org/2000/svg">
<path d="M87.7229 42.3453C107.504 53.9308 107.504 72.7249 87.7229 84.3104C67.9418 95.8958 35.8888 95.8958 16.1077 84.3104C-3.65187 72.7249 -6.11913 53.9308 13.6619 42.3453C33.443 30.7599 67.9633 30.7599 87.7229 42.3453Z" fill="#F5F5F5"/>
<path d="M26.5774 82.3805C25.3545 82.3805 24.0458 82.123 22.973 81.5008C21.6428 80.7285 20.8276 79.6772 20.5487 78.3256C20.0981 76.2445 21.085 73.9703 22.0505 72.6401L22.3294 72.2539C24.0243 69.9154 24.9683 68.6067 24.625 67.2765C24.2174 65.6674 18.9396 65.8819 13.3829 66.311C12.9109 66.3539 12.396 66.3969 11.881 66.4183C8.29814 66.6972 2.99888 66.0536 2.50542 64.423C2.31233 63.8009 2.78433 63.1572 3.92142 62.4921C8.27669 59.9819 16.129 55.4336 16.129 55.4336L16.3436 55.7983C16.3436 55.7983 8.49123 60.3467 4.13597 62.8569C3.49233 63.2216 2.76288 63.7794 2.91306 64.2943C3.25633 65.4314 7.78323 66.2896 11.8596 65.9892C12.3745 65.9463 12.868 65.9034 13.3614 65.8819C19.1541 65.4314 24.5607 65.2169 25.0327 67.1692C25.4188 68.6925 24.4319 70.0441 22.6512 72.5114L22.3723 72.8976C21.4498 74.1634 20.5487 76.3088 20.9563 78.2612C21.2138 79.4841 21.9647 80.4496 23.1876 81.1576C25.3759 82.4234 28.401 82.0372 29.7312 81.2648C31.6621 80.1706 39.3643 75.751 39.3643 75.751L39.5788 76.1157C39.5788 76.1157 31.8767 80.5139 29.9457 81.6296C29.109 82.1016 27.8861 82.3805 26.5774 82.3805Z" fill="#E0E0E0"/>
<path d="M19.2616 57.599L7.05396 50.5619L17.5238 44.5117L29.7099 51.5703L19.2616 57.599Z" fill="#E0E0E0"/>
<path d="M66.8692 80.6451L96.9269 63.3098C99.5658 61.7866 99.5658 59.2978 96.9269 57.7746L82.5953 49.4931C74.4211 44.7731 61.0335 44.7731 52.8594 49.4931L32.9281 60.9927C22.6729 66.9142 25.2474 73.7153 34.623 79.1433C43.9772 84.5712 56.5924 86.588 66.8692 80.6451Z" fill="#E0E0E0"/>
<path d="M14.649 47.8505C14.649 47.8505 14.3486 44.8468 12.9112 42.5083C11.4523 40.1698 9.43557 38.6894 7.52611 38.4963C5.61666 38.3247 4.05048 40.041 6.06721 41.2854C8.08393 42.5298 11.6883 43.817 13.2974 48.3439L14.649 47.8505Z" fill="#27DEBF"/>
<g opacity="0.15">
<path d="M14.649 47.8505C14.649 47.8505 14.3486 44.8468 12.9112 42.5083C11.4523 40.1698 9.43557 38.6894 7.52611 38.4963C5.61666 38.3247 4.05048 40.041 6.06721 41.2854C8.08393 42.5298 11.6883 43.817 13.2974 48.3439L14.649 47.8505Z" fill="black"/>
</g>
<path d="M14.1127 47.0575C14.1127 47.0575 14.1341 47.0575 14.1127 47.0575C14.177 47.0361 14.2199 46.9717 14.1985 46.9288C12.2676 41.9299 8.47012 39.8059 6.71085 39.3768C6.64649 39.3553 6.60358 39.3983 6.58212 39.4412C6.56067 39.5055 6.60358 39.5484 6.64649 39.5699C8.34139 39.999 12.0745 42.0801 13.9839 46.9932C14.0268 47.0575 14.0697 47.079 14.1127 47.0575Z" fill="white"/>
<path d="M4.69437 45.9932C4.84456 46.3579 5.25219 46.5724 5.61692 46.7226C5.98165 46.8728 6.38928 47.0444 6.58237 47.4092C6.96855 48.1172 6.28201 49.0826 6.68964 49.7906C6.86128 50.091 7.20455 50.2412 7.52637 50.3055C7.80528 50.3699 8.08419 50.3699 8.3631 50.4128C8.49182 50.4128 8.64201 50.4128 8.77073 50.3913C9.15691 50.3484 9.586 50.3484 9.92928 50.5415C10.4871 50.8633 10.6373 51.5713 10.9591 52.1292C11.3453 52.7943 12.0533 53.2448 12.8042 53.3521C13.4264 53.4593 14.3918 53.3306 14.5635 53.0517C14.6922 52.8372 14.3489 52.1935 14.3275 51.9361C14.3275 51.3139 14.2631 50.6703 14.1344 50.0481C14.07 49.7477 14.0271 49.4903 14.0271 49.1899C14.0485 48.8681 14.0485 48.5463 14.0485 48.2244C14.0485 47.8812 14.1344 47.6023 14.0271 47.2375C13.9198 46.8943 13.7053 46.5939 13.5122 46.315C13.3191 46.0361 13.1045 45.7357 12.89 45.4568C12.654 45.1135 12.3965 44.7917 12.0747 44.5343C11.5169 44.0837 10.766 43.8692 10.058 43.9764C9.45728 44.0623 8.878 44.3841 8.27728 44.3412C7.69801 44.2983 7.11873 44.1266 6.51801 44.1481C5.89583 44.1695 5.23074 44.427 4.86601 44.9634C4.67292 45.2637 4.56565 45.6714 4.69437 45.9932Z" fill="#27DEBF"/>
<path d="M14.0912 51.4822C14.1556 51.4607 14.177 51.4178 14.1556 51.3749C12.8254 45.8396 7.05415 44.8956 5.70252 44.96C5.65961 44.96 5.6167 45.0029 5.6167 45.0458C5.6167 45.0887 5.65961 45.1316 5.70252 45.1316C7.0327 45.0673 12.6752 45.9898 13.9625 51.4178C14.0054 51.4607 14.0483 51.5036 14.0912 51.4822Z" fill="white"/>
<path d="M7.71935 48.5445C7.7408 48.5445 7.76226 48.5231 7.76226 48.5231C7.78371 48.5016 9.28553 47.0856 11.7313 47.5147C11.7743 47.5147 11.8172 47.4933 11.8386 47.4504C11.8386 47.4075 11.8172 47.3645 11.7743 47.3431C9.24262 46.8925 7.65498 48.3729 7.65498 48.3944C7.61208 48.4373 7.61208 48.4802 7.65498 48.5231C7.67644 48.5231 7.69789 48.5445 7.71935 48.5445Z" fill="white"/>
<path d="M18.9397 25.42L17.2019 20.3782L13.8765 18.4688V22.5022V53.6971L18.9397 56.6149V25.42Z" fill="#27DEBF"/>
<g opacity="0.5">
<path d="M18.9397 25.42L17.2019 20.3782L13.8765 18.4688V22.5022V53.6971L18.9397 56.6149V25.42Z" fill="black"/>
</g>
<path d="M26.7706 14.8398L28.5299 19.8817L18.9397 25.4169L17.2019 20.3751L26.7706 14.8398Z" fill="#27DEBF"/>
<path opacity="0.2" d="M26.7706 14.8398L28.5299 19.8817L18.9397 25.4169L17.2019 20.3751L26.7706 14.8398Z" fill="black"/>
<path d="M26.7706 14.843L23.4666 12.9336L13.8765 18.4689L17.2019 20.3783L26.7706 14.843Z" fill="#27DEBF"/>
<path opacity="0.1" d="M26.7706 14.843L23.4666 12.9336L13.8765 18.4689L17.2019 20.3783L26.7706 14.843Z" fill="black"/>
<path d="M18.9393 25.4219C18.9822 28.0179 19.0037 30.6139 19.0251 33.2099L19.0466 40.9979L19.0251 48.7858L19.0037 52.6906L18.9608 56.5953L18.8749 52.712L18.8535 48.8073L18.832 41.0193L18.8535 33.2313C18.8749 30.6139 18.8964 28.0179 18.9393 25.4219Z" fill="white"/>
<path d="M28.5296 19.8867C27.8001 20.3587 27.0492 20.8093 26.2983 21.2813C25.5474 21.7318 24.7965 22.1609 24.0456 22.6114C23.2732 23.0405 22.5223 23.4911 21.7499 23.8987L20.5914 24.5209C20.2052 24.714 19.819 24.9285 19.4329 25.1216C19.7976 24.8856 20.1838 24.6496 20.5485 24.4136L21.6641 23.7271C22.415 23.2765 23.1659 22.8474 23.9169 22.3969C24.6892 21.9678 25.4401 21.5173 26.2125 21.1096C26.9634 20.702 27.7358 20.2729 28.5296 19.8867Z" fill="white"/>
<path d="M26.7273 14.8867C25.9979 15.3587 25.247 15.8093 24.4961 16.2813C23.7452 16.7318 22.9942 17.1609 22.2433 17.6114C21.471 18.0405 20.7201 18.4911 19.9477 18.8987L18.7892 19.5209C18.403 19.7354 18.0168 19.95 17.6306 20.1431C17.9953 19.9071 18.3815 19.6711 18.7463 19.4351L19.8619 18.7485C20.6128 18.298 21.3637 17.8689 22.1146 17.4184C22.887 16.9893 23.6379 16.5387 24.4102 16.1311C25.1826 15.702 25.9335 15.2729 26.7273 14.8867Z" fill="white"/>
<path d="M18.9397 25.4181L28.5299 19.8828V51.0777L18.9397 56.6129V25.4181Z" fill="#27DEBF"/>
<path opacity="0.3" d="M18.9397 25.4181L28.5299 19.8828V51.0777L18.9397 56.6129V25.4181Z" fill="black"/>
<path d="M19.7981 25.9116L27.6719 21.3633V50.5843L19.7981 55.1327V25.9116Z" fill="#455A64"/>
<path d="M26.7708 22.9062V34.9637L20.6777 38.5037V26.4248L26.3417 23.1422L26.7708 22.9062Z" fill="#37474F"/>
<path d="M26.7709 22.8867L26.3418 23.1442V34.7296L26.7709 34.9656V22.8867Z" fill="#263238"/>
<path d="M26.3415 34.73L20.6775 37.9911V26.4271L26.3415 23.1445V34.73Z" fill="#27DEBF"/>
<path d="M24.1745 25.6758L22.5439 28.6794L23.6596 28.9798L23.1018 31.5114L24.6036 28.3361L23.4665 28.1001L24.1745 25.6758Z" fill="#FAFAFA"/>
<path opacity="0.15" d="M21.7934 33.3567L25.4621 31.2327C25.5908 31.1683 25.6981 31.2112 25.6981 31.34C25.6981 31.4687 25.5908 31.6618 25.4621 31.7261L21.7934 33.8501C21.6646 33.9145 21.5574 33.8716 21.5574 33.7429C21.5574 33.6141 21.6646 33.4425 21.7934 33.3567Z" fill="black"/>
<path opacity="0.15" d="M21.7934 34.3645L25.4621 32.2405C25.5908 32.1761 25.6981 32.2191 25.6981 32.3478C25.6981 32.4765 25.5908 32.6696 25.4621 32.734L21.7934 34.858C21.6646 34.9223 21.5574 34.8794 21.5574 34.7507C21.5574 34.622 21.6646 34.4503 21.7934 34.3645Z" fill="black"/>
<path opacity="0.15" d="M21.7934 35.3762L25.4621 33.2522C25.5908 33.1879 25.6981 33.2308 25.6981 33.3595C25.6981 33.4882 25.5908 33.6813 25.4621 33.7457L21.7934 35.8697C21.6646 35.934 21.5574 35.8911 21.5574 35.7624C21.5574 35.6337 21.6646 35.462 21.7934 35.3762Z" fill="black"/>
<path d="M14.4773 30.89C14.4773 30.3537 14.6704 29.9675 14.9707 29.8173C15.0137 29.7959 15.1853 29.7101 15.2282 29.6671C15.5071 29.517 15.8504 29.5384 16.258 29.753C17.0947 30.225 17.7598 31.4479 17.7598 32.4562V34.8162C17.7598 35.3311 17.5882 35.6959 17.3093 35.8675C17.2449 35.9104 17.0518 36.0177 17.0089 36.0391C16.7515 36.1893 16.3867 36.1679 16.0006 35.9533C15.1638 35.4813 14.4987 34.2584 14.4987 33.25L14.4773 30.89Z" fill="#27DEBF"/>
<path d="M15.9791 29.9217C15.1424 29.4497 14.4773 29.8788 14.4773 30.9086V33.2686C14.4773 34.2984 15.1424 35.4999 15.9791 35.9719C16.8158 36.4439 17.4809 36.0148 17.4809 34.9849V32.625C17.4809 31.6166 16.7944 30.3937 15.9791 29.9217Z" fill="#27DEBF"/>
<path opacity="0.7" d="M15.9791 29.9217C15.1424 29.4497 14.4773 29.8788 14.4773 30.9086V33.2686C14.4773 34.2984 15.1424 35.4999 15.9791 35.9719C16.8158 36.4439 17.4809 36.0148 17.4809 34.9849V32.625C17.4809 31.6166 16.7944 30.3937 15.9791 29.9217Z" fill="white"/>
<path opacity="0.5" d="M17.0088 36.0614C17.0732 36.0185 17.2448 35.9327 17.2877 35.9112C17.5666 35.7396 17.7382 35.3749 17.7382 34.8599V32.4785C17.7382 32.0065 17.6095 31.513 17.3735 31.0625L17.1161 31.2127C17.3521 31.6632 17.4808 32.1567 17.4808 32.6287V34.9887C17.4808 35.525 17.3092 35.8898 17.0088 36.0614Z" fill="white"/>
<path opacity="0.9" d="M15.0137 29.7969C15.2711 29.6896 15.6144 29.7111 15.9577 29.9256C16.4082 30.1831 16.8159 30.6766 17.0948 31.2129L17.3522 31.0627C17.0733 30.5049 16.6657 30.0329 16.2151 29.7755C15.8075 29.5395 15.4642 29.5395 15.1853 29.6896C15.1853 29.6896 15.078 29.754 15.0137 29.7969Z" fill="white"/>
<path d="M15.9789 31.3468C15.5713 31.1108 15.228 31.3039 15.228 31.7759C15.228 32.2479 15.5713 32.8272 15.9789 33.0846C16.3866 33.3206 16.7298 33.1275 16.7298 32.6555C16.7298 32.1621 16.3866 31.5828 15.9789 31.3468Z" fill="#37474F"/>
<path d="M15.3997 31.6673C15.3997 31.4742 15.4426 31.3455 15.5498 31.2382C15.6786 31.2168 15.8287 31.2382 15.9789 31.324C16.3866 31.56 16.7298 32.1393 16.7298 32.6328C16.7298 32.8258 16.6869 32.9546 16.5797 33.0618C16.4509 33.0833 16.3007 33.0618 16.1506 32.976C15.7429 32.74 15.3997 32.1608 15.3997 31.6673Z" fill="#455A64"/>
<path d="M42.1104 42.4312L41.9173 43.225C41.4668 44.0617 40.4799 45.113 40.1366 45.0271C39.8148 44.9413 39.6217 44.4908 39.5359 43.933C39.493 43.6755 39.4715 43.3966 39.4501 43.1177C39.4286 42.2166 39.8148 40.157 41.0591 39.5992C41.3381 39.4704 41.5955 39.5777 41.7886 39.7708C41.9602 39.921 42.089 40.157 42.1533 40.3715C42.3464 40.9722 42.1533 42.4097 42.1104 42.4312Z" fill="#27DEBF"/>
<path opacity="0.3" d="M42.1104 42.4312C42.0461 42.7744 41.9173 43.225 41.9173 43.225C41.4668 44.0617 40.4799 45.113 40.1366 45.0271C39.8148 44.9413 39.6217 44.4908 39.5359 43.933C39.493 43.6755 39.4715 43.3966 39.4501 43.1177C39.4286 42.2166 39.8148 40.157 41.0591 39.5992C41.3381 39.4704 41.5955 39.5777 41.7886 39.7708C41.9602 39.921 42.089 40.157 42.1533 40.3715C42.3464 40.9722 42.1533 42.4097 42.1104 42.4312Z" fill="black"/>
<path d="M41.9173 43.2445C41.4668 44.0812 40.4799 45.1325 40.1366 45.0467C39.8148 44.9609 39.6217 44.5103 39.5359 43.9525C39.493 43.695 39.4715 43.4161 39.4501 43.1372C39.4286 42.2361 39.8148 40.1765 41.0591 39.6187C41.3381 39.49 41.5955 39.5972 41.7886 39.7903L41.617 40.1765C40.7588 40.5412 40.5228 41.8714 40.6086 42.9012C40.673 43.8667 41.4239 43.7594 41.9173 43.2445Z" fill="#27DEBF"/>
<path opacity="0.35" d="M41.9173 43.2445C41.4668 44.0812 40.4799 45.1325 40.1366 45.0467C39.8148 44.9609 39.6217 44.5103 39.5359 43.9525C39.493 43.695 39.4715 43.4161 39.4501 43.1372C39.4286 42.2361 39.8148 40.1765 41.0591 39.6187C41.3381 39.49 41.5955 39.5972 41.7886 39.7903L41.617 40.1765C40.7588 40.5412 40.5228 41.8714 40.6086 42.9012C40.673 43.8667 41.4239 43.7594 41.9173 43.2445Z" fill="black"/>
<path d="M42.1533 40.3491C41.8315 40.0273 41.0591 40.0059 40.4155 40.907C39.7719 41.808 39.5573 43.3528 39.5359 43.932C39.493 43.6746 39.4715 43.3957 39.4501 43.1168C39.4286 42.2157 39.8148 40.1561 41.0591 39.5982C41.5741 39.3622 42.0031 39.8771 42.1533 40.3491Z" fill="#37474F"/>
<path d="M83.0032 39.9005L70.6883 33.1209C70.2163 32.7776 69.6585 32.5201 68.972 32.327C69.5083 29.302 65.1102 25.8049 61.0338 26.9849C61.0338 26.9849 51.8084 30.8252 49.5342 33.271C46.1444 36.9183 42.0251 40.9303 40.8022 44.0627C40.5876 44.6205 61.3342 65.2812 61.3342 65.2812L69.9374 70.2372L92.1428 44.8994C90.3836 41.4023 88.1094 38.6132 83.0032 39.9005ZM61.0338 28.2721C62.7502 27.8216 63.9302 27.8001 65.5607 29.302C66.6549 30.3103 67.0196 33.3354 66.0542 33.8503C63.1792 35.3521 60.9051 36.5536 59.1243 37.4761H59.1029C59.0814 37.4761 59.06 37.4976 59.0385 37.519C58.4163 37.8409 58.5022 37.1543 58.6094 36.575C58.8669 35.0947 59.4247 31.9838 59.7251 30.2245C59.8538 29.302 60.24 28.4652 61.0338 28.2721ZM42.2611 44.4274C42.9906 41.9387 47.7535 37.1329 48.8262 36.1245C51.5294 33.6358 53.7607 31.9838 54.4902 31.5761C56.3138 30.5678 57.2578 30.0958 57.9014 29.774C58.6953 29.3878 58.9313 29.5594 58.9098 29.7954C58.8883 29.9027 58.8883 30.0529 58.8454 30.203L57.9873 34.8372C57.8371 35.5023 57.6654 35.6525 56.5283 36.2747C52.3876 38.5489 42.304 44.4059 42.2611 44.4274Z" fill="#27DEBF"/>
<path opacity="0.2" d="M83.0034 39.9005L70.6885 33.1209C70.2165 32.7776 69.6587 32.5201 68.9721 32.327C69.5085 29.302 65.1103 25.8049 61.0339 26.9849C61.0339 26.9849 52.4736 30.8252 50.1994 33.271C46.8096 36.9183 42.4543 41.3165 41.2314 44.4488C41.0169 45.0281 61.3343 65.3241 61.3343 65.3241L69.9376 70.2801L92.143 44.9423C90.3837 41.4023 88.1095 38.6132 83.0034 39.9005ZM61.0339 28.2721C62.7503 27.8216 63.9303 27.8001 65.5608 29.302C66.655 30.3103 67.0197 33.3354 66.0543 33.8503C63.1794 35.3521 60.9052 36.5536 59.1245 37.4761H59.103C59.0816 37.4761 59.0601 37.4976 59.0387 37.519C58.4165 37.8409 58.5023 37.1543 58.6096 36.575C58.867 35.0947 59.4249 31.9838 59.7252 30.2245C59.8539 29.302 60.2401 28.4652 61.0339 28.2721ZM42.2612 44.4274C42.9907 41.9387 47.7536 37.1329 48.8263 36.1245C51.5296 33.6358 53.7609 31.9838 54.4903 31.5761C56.3139 30.5678 57.2579 30.0958 57.9016 29.774C58.6954 29.3878 58.9314 29.5594 58.9099 29.7954C58.8885 29.9027 58.8885 30.0529 58.8456 30.203L57.9874 34.8372C57.8372 35.5023 57.6656 35.6525 56.5285 36.2747C52.3878 38.5489 42.3041 44.4059 42.2612 44.4274Z" fill="black"/>
<path d="M67.5984 50.8187L65.0883 50.7758L61.2694 48.5875C60.6472 48.2227 59.6174 48.1798 58.9523 48.4802L54.3181 50.5827L51.1428 50.5184V52.3635C51.1428 52.578 51.293 52.7926 51.5934 52.9642L59.9177 57.77C60.5399 58.1347 61.5053 58.0489 62.0632 57.5984L67.2337 53.3933C67.4912 53.1787 67.6199 52.9213 67.6199 52.6853L67.5984 50.8187Z" fill="#37474F"/>
<path d="M51.5719 51.1009L59.8963 55.9067C60.5185 56.2714 61.4839 56.1856 62.0417 55.7351L67.2123 51.53C67.7701 51.0795 67.7272 50.4144 67.0836 50.0711L61.2479 46.7242C60.6257 46.3595 59.5959 46.3166 58.9308 46.6169L51.6149 49.9209C50.9712 50.1998 50.9498 50.7362 51.5719 51.1009Z" fill="#455A64"/>
<path d="M67.5985 50.8203V52.6654C67.5985 52.9229 67.4698 53.1589 67.2123 53.3734L62.0418 57.5785C61.7629 57.793 61.3982 57.9218 61.0334 57.9647V56.1196C61.3982 56.0767 61.7629 55.9479 62.0418 55.7334L67.2123 51.5283C67.4698 51.3138 67.5985 51.0563 67.5985 50.8203Z" fill="#263238"/>
<path d="M68.3923 50.2623C68.3923 50.4769 68.3279 50.6271 68.2207 50.7129L66.0967 51.9358C66.2254 51.8714 66.2898 51.7212 66.2898 51.4852L65.8392 41.1227C65.8178 40.6936 65.4959 40.1573 65.1312 39.9427L60.1323 37.0678C59.9392 36.9605 59.7461 36.9391 59.5959 37.0249L61.6985 35.802C61.8487 35.7162 62.0418 35.7162 62.2349 35.8449L67.2338 38.7198C67.5985 38.9344 67.9203 39.4493 67.9418 39.8998L68.3923 50.2623Z" fill="#263238"/>
<path d="M60.1109 37.0689L65.1098 39.9438C65.4745 40.1584 65.7963 40.6947 65.8178 41.1238L66.2898 51.4864C66.3112 51.9154 66.0109 52.0871 65.6462 51.8725L58.5233 47.7747C58.1585 47.5602 57.9011 47.0453 57.9654 46.6162L59.3171 37.4551C59.3814 37.026 59.7462 36.8544 60.1109 37.0689Z" fill="#37474F"/>
<path d="M67.7272 39.2347L65.6032 40.4576C65.4744 40.2431 65.3028 40.05 65.1097 39.9427L60.1108 37.0678C59.9177 36.9605 59.7246 36.9391 59.5745 37.0249L61.677 35.802C61.8272 35.7162 62.0203 35.7162 62.2134 35.8449L67.2123 38.7198C67.4054 38.8485 67.5985 39.0202 67.7272 39.2347Z" fill="#455A64"/>
<path d="M66.8476 37.7337C66.8476 37.1115 66.8476 36.1889 66.8476 35.1591C66.8476 33.2926 65.6676 31.1042 64.2087 30.2675C63.5436 29.8813 62.9214 29.8384 62.4709 30.0959L60.8618 31.0399L61.5698 32.413V34.6871C61.5698 35.1162 61.8702 35.6526 62.2564 35.8671L63.8654 36.7897L65.0669 39.1068L66.6545 38.1842C66.7618 38.0984 66.8476 37.9482 66.8476 37.7337Z" fill="#263238"/>
<path d="M64.2087 33.9362L66.2898 32.7348C65.7964 31.6835 65.0669 30.7395 64.2087 30.2675C63.5436 29.8813 62.9214 29.8384 62.4709 30.0959L60.8618 31.0399L61.5698 32.413V32.8635L64.2087 33.9362Z" fill="#455A64"/>
<path d="M65.2602 38.6582C65.2602 38.036 65.2602 37.1135 65.2602 36.0837C65.2602 34.2171 64.0802 32.0288 62.6213 31.192C61.1624 30.3553 59.9824 31.1706 59.9824 33.0157V35.5902C59.9824 36.0193 60.2828 36.5557 60.669 36.7702L64.5737 39.0444C64.9599 39.2589 65.2602 39.0873 65.2602 38.6582Z" fill="#37474F"/>
<path d="M60.2608 39.2587C59.6601 41.5114 59.3597 43.8499 59.3812 46.2743C59.3812 46.7034 59.6816 47.2826 60.0248 47.5401C61.2263 48.4412 62.5565 49.1921 64.0154 49.8357C64.4016 50.0074 64.7448 49.7928 64.7663 49.3637C64.895 46.5532 64.9379 43.9357 64.7877 41.7474C64.7663 41.3183 64.4445 40.739 64.1012 40.503C63.1572 39.8165 62.1917 39.2587 61.2048 38.8296C60.8187 38.6365 60.3681 38.851 60.2608 39.2587Z" fill="#27DEBF"/>
<path opacity="0.15" d="M64.7237 49.5973C64.7451 49.5329 64.7666 49.4471 64.788 49.3613C64.9168 46.5508 64.9597 43.9333 64.8095 41.745C64.788 41.5304 64.7022 41.2729 64.595 41.0584C64.316 40.6722 64.2302 43.9762 64.2302 46.0144C64.2302 48.0097 64.2517 50.0478 64.595 49.8118C64.6164 49.8118 64.6164 49.7904 64.6379 49.7904C64.6379 49.726 64.6593 49.6617 64.7237 49.5973Z" fill="black"/>
<g opacity="0.15">
<path d="M59.8535 46.0977C59.8535 46.0977 59.9179 46.1406 60.0251 46.2049C60.1324 46.2693 60.2611 46.3551 60.4542 46.4838C60.7975 46.6984 61.2695 46.9987 61.7415 47.2777C62.2135 47.5566 62.707 47.7926 63.0717 47.9857C63.2648 48.0715 63.415 48.1573 63.5222 48.2002C63.6295 48.2431 63.6939 48.286 63.6939 48.286C63.6939 48.286 63.6295 48.2646 63.5008 48.2431C63.3935 48.2217 63.2219 48.1787 63.0073 48.1144C62.8142 48.05 62.5782 47.9642 62.3422 47.8569C62.2135 47.7926 62.1062 47.7497 61.9775 47.6853C61.8488 47.6209 61.7415 47.5566 61.6128 47.4922C61.3768 47.342 61.1408 47.1918 60.9262 47.0417C60.7117 46.8915 60.5186 46.7413 60.3684 46.5911C60.2182 46.4624 60.0895 46.3337 60.0037 46.2478C59.8964 46.162 59.8535 46.0977 59.8535 46.0977Z" fill="black"/>
<path d="M59.8535 44.7891C59.8535 44.7891 59.9179 44.832 60.0251 44.8963C60.1324 44.9607 60.2611 45.0465 60.4542 45.1752C60.7975 45.3898 61.2695 45.6902 61.7415 45.9691C62.2135 46.248 62.707 46.484 63.0717 46.6771C63.2648 46.7629 63.415 46.8487 63.5222 46.8916C63.6295 46.9345 63.6939 46.9774 63.6939 46.9774C63.6939 46.9774 63.6295 46.956 63.5008 46.9345C63.3935 46.9131 63.2219 46.8701 63.0073 46.8058C62.8142 46.7414 62.5782 46.6556 62.3422 46.5483C62.2135 46.484 62.1062 46.4411 61.9775 46.3767C61.8488 46.3123 61.7415 46.248 61.6128 46.1836C61.3768 46.0334 61.1408 45.8832 60.9262 45.7331C60.7117 45.5829 60.5186 45.4327 60.3684 45.2825C60.2182 45.1538 60.0895 45.0251 60.0037 44.9392C59.8964 44.8534 59.8535 44.7891 59.8535 44.7891Z" fill="black"/>
<path d="M60.1326 43.7148C60.1326 43.7148 60.1969 43.7578 60.2828 43.8007C60.3686 43.865 60.5187 43.9508 60.6689 44.0581C60.9907 44.2727 61.4198 44.5301 61.8489 44.7661C62.278 45.0021 62.75 45.2167 63.0933 45.3883C63.2649 45.4741 63.4151 45.5385 63.5009 45.6028C63.6082 45.6458 63.6511 45.6887 63.6511 45.6887C63.6511 45.6887 63.5867 45.6887 63.4795 45.6457C63.3722 45.6243 63.222 45.5814 63.0289 45.5385C62.8358 45.4956 62.6213 45.4098 62.4067 45.3239C62.2995 45.281 62.1707 45.2381 62.0635 45.1738C61.9562 45.1308 61.8275 45.0665 61.7202 45.0021C61.6129 44.9378 61.5057 44.8734 61.3984 44.809C61.2911 44.7447 61.1838 44.6803 61.098 44.5945C60.9049 44.4443 60.7333 44.3156 60.5831 44.1868C60.4329 44.0581 60.3257 43.9294 60.2613 43.865C60.1755 43.7578 60.1326 43.7148 60.1326 43.7148Z" fill="black"/>
<path d="M60.2397 42.4961C60.2397 42.4961 60.3041 42.5175 60.3899 42.5819C60.4757 42.6463 60.6045 42.7106 60.7761 42.8179C61.0765 43.011 61.5056 43.2685 61.9347 43.483C62.3637 43.719 62.7928 43.9121 63.1361 44.0623C63.3077 44.1481 63.4365 44.2125 63.5437 44.2554C63.651 44.2983 63.6939 44.3412 63.6939 44.3412C63.6939 44.3412 63.6296 44.3412 63.5223 44.3197C63.415 44.2983 63.2648 44.2554 63.0932 44.2125C62.9216 44.1695 62.707 44.1052 62.4925 44.0194C62.3852 43.9765 62.2779 43.9335 62.1707 43.8906C62.0634 43.8477 61.9561 43.7834 61.8274 43.719C61.7201 43.6546 61.6128 43.5903 61.5056 43.5259C61.3983 43.4615 61.3125 43.3972 61.2052 43.3328C61.0121 43.2041 60.8405 43.0539 60.7117 42.9252C60.583 42.7965 60.4757 42.6892 60.3899 42.6034C60.2827 42.539 60.2397 42.4961 60.2397 42.4961Z" fill="black"/>
<path d="M60.4114 41.3359C60.4114 41.3359 60.4543 41.3574 60.5401 41.4218C60.6259 41.4861 60.7546 41.5505 60.9048 41.6363C61.2052 41.8294 61.5914 42.0654 61.9776 42.2585C62.3852 42.4516 62.7928 42.6447 63.1146 42.7948C63.4365 42.945 63.6296 43.0523 63.6296 43.0523C63.6296 43.0523 63.3936 43.0094 63.0503 42.9236C62.707 42.8378 62.2565 42.6876 61.8488 42.4945C61.7416 42.4301 61.6343 42.3872 61.5485 42.3228C61.4412 42.2585 61.3554 42.1941 61.2696 42.1298C61.0979 42.001 60.9263 41.8723 60.7976 41.7436C60.5616 41.5076 60.4114 41.3359 60.4114 41.3359Z" fill="black"/>
<path d="M60.8618 40.1992C60.8618 40.1992 61.0335 40.3065 61.2909 40.4567C61.5484 40.6069 61.8916 40.8214 62.2349 40.993C62.5782 41.1647 62.9429 41.3363 63.2218 41.4865C63.5007 41.6152 63.6724 41.7225 63.6724 41.7225C63.6724 41.7225 63.4578 41.701 63.1789 41.6152C62.8785 41.5509 62.4924 41.4007 62.1276 41.2076C62.0418 41.1647 61.956 41.1003 61.8702 41.0574C61.7844 41.0145 61.6985 40.9501 61.6342 40.8858C61.484 40.7785 61.3338 40.6498 61.2265 40.5425C60.9691 40.3709 60.8618 40.1992 60.8618 40.1992Z" fill="black"/>
</g>
<path d="M58.137 48.6985C56.8283 48.9345 55.5196 49.5996 54.2323 50.565C53.889 50.8225 53.889 51.273 54.2323 51.5305C55.6698 52.6032 57.3432 53.5687 59.2527 54.4054C59.6388 54.577 60.2825 54.577 60.6687 54.3625C61.8057 53.7617 62.8141 53.0752 63.6723 52.217C63.9727 51.9167 63.9297 51.4447 63.5865 51.1872C62.2563 50.2432 60.9476 49.4279 59.6603 48.8701C59.2312 48.7199 58.5661 48.6127 58.137 48.6985Z" fill="#27DEBF"/>
<g opacity="0.2">
<path d="M54.9402 51.0547C54.9402 51.0547 55.026 51.0761 55.1547 51.1191C55.3049 51.162 55.498 51.2263 55.734 51.3121C56.206 51.4838 56.8282 51.7627 57.4075 52.106C57.9867 52.4492 58.5445 52.8354 58.9522 53.1572C59.3384 53.479 59.5744 53.715 59.5744 53.715C59.5744 53.715 59.2954 53.5434 58.8664 53.2645C58.4373 53.007 57.858 52.6423 57.2787 52.3205C56.6995 51.9987 56.0987 51.6769 55.6696 51.4409C55.4551 51.3121 55.262 51.2263 55.1333 51.162C55.0045 51.0976 54.9402 51.0547 54.9402 51.0547Z" fill="black"/>
<path d="M56.1846 50.3242C56.1846 50.3242 56.2704 50.3457 56.3991 50.3886C56.5493 50.4315 56.7424 50.4959 56.9784 50.5817C57.4504 50.7533 58.0726 51.0322 58.6518 51.3755C59.2311 51.7188 59.7889 52.1049 60.1966 52.4268C60.5827 52.7486 60.8187 52.9846 60.8187 52.9846C60.8187 52.9846 60.5398 52.8129 60.1107 52.534C59.6817 52.2766 59.1024 51.9119 58.5231 51.59C57.9438 51.2682 57.3431 50.9464 56.914 50.7104C56.6995 50.5817 56.5064 50.4959 56.3777 50.4315C56.2489 50.3671 56.1846 50.3242 56.1846 50.3242Z" fill="black"/>
<path d="M57.2571 49.7266C57.2571 49.7266 57.3429 49.748 57.4716 49.7909C57.6218 49.8338 57.8149 49.8982 58.0509 49.984C58.5229 50.1557 59.1451 50.4346 59.7243 50.7778C60.3036 51.1211 60.8614 51.5073 61.2691 51.8291C61.6553 52.1509 61.8913 52.3869 61.8913 52.3869C61.8913 52.3869 61.6123 52.2153 61.1833 51.9364C60.7542 51.6789 60.1749 51.3142 59.5956 50.9924C59.0163 50.6706 58.4156 50.3487 57.9865 50.1127C57.772 49.984 57.5789 49.8982 57.4502 49.8338C57.3429 49.7695 57.2571 49.7266 57.2571 49.7266Z" fill="black"/>
<path d="M58.4373 49.2109C58.4373 49.2109 58.5231 49.2324 58.6518 49.2753C58.7805 49.3182 58.9736 49.3611 59.1882 49.4469C59.6173 49.5971 60.1965 49.8546 60.7329 50.1764C61.2693 50.4768 61.7842 50.8415 62.1489 51.1418C62.5136 51.4422 62.7282 51.6568 62.7282 51.6568C62.7282 51.6568 62.6638 51.6138 62.5351 51.5495C62.4278 51.4851 62.2562 51.3778 62.0631 51.2491C61.6769 51.0131 61.1405 50.6913 60.6042 50.3909C60.0678 50.0906 59.5314 49.7902 59.1238 49.5757C58.9307 49.4684 58.7591 49.3826 58.6303 49.3182C58.5016 49.2538 58.4373 49.2109 58.4373 49.2109Z" fill="black"/>
</g>
<path d="M79.0769 57.5531L76.5668 57.5102L72.7479 55.3218C72.1257 54.9571 71.0959 54.9142 70.4308 55.2146L65.7966 57.3171L62.6213 57.2528V59.0978C62.6213 59.3124 62.7715 59.5269 63.0719 59.6986L71.3962 64.5044C72.0184 64.8691 72.9839 64.7833 73.5417 64.3327L78.7122 60.1277C78.9697 59.9131 79.0984 59.6557 79.0984 59.4197L79.0769 57.5531Z" fill="#37474F"/>
<path d="M63.0504 57.8118L71.3748 62.6177C71.997 62.9824 72.9624 62.8966 73.5203 62.446L78.6908 58.2409C79.2486 57.7904 79.2057 57.1253 78.5621 56.782L72.7264 53.4351C72.1042 53.0704 71.0744 53.0275 70.4093 53.3279L63.1148 56.6318C62.4497 56.9322 62.4283 57.4686 63.0504 57.8118Z" fill="#455A64"/>
<path d="M79.077 57.5547V59.3998C79.077 59.6572 78.9483 59.8932 78.6909 60.1078L73.5203 64.3129C73.2414 64.5274 72.8767 64.6561 72.512 64.699V62.854C72.8767 62.811 73.2414 62.6823 73.5203 62.4678L78.6909 58.2627C78.9483 58.0481 79.077 57.7907 79.077 57.5547Z" fill="#263238"/>
<path d="M79.8923 56.9967C79.8923 57.2113 79.8279 57.3614 79.7207 57.4473L77.5967 58.6702C77.7254 58.6058 77.7898 58.4556 77.7898 58.2196L77.3392 47.8571C77.3178 47.428 76.9959 46.8916 76.6312 46.6771L71.6323 43.8022C71.4392 43.6949 71.2461 43.6735 71.0959 43.7593L73.1985 42.5364C73.3487 42.4506 73.5418 42.4506 73.7349 42.5793L78.7338 45.4542C79.0985 45.6687 79.4203 46.1836 79.4418 46.6342L79.8923 56.9967Z" fill="#263238"/>
<path d="M71.5891 43.8033L76.588 46.6782C76.9528 46.8928 77.2746 47.4291 77.296 47.8582L77.7466 58.2207C77.768 58.6498 77.4677 58.8215 77.1029 58.6069L69.9801 54.5091C69.6153 54.2946 69.3579 53.7797 69.4222 53.3506L70.7953 44.1895C70.8597 43.7604 71.2244 43.5888 71.5891 43.8033Z" fill="#37474F"/>
<path d="M79.2057 45.9691L77.0817 47.192C76.953 46.9775 76.7813 46.7844 76.5882 46.6771L71.5893 43.8022C71.3963 43.6949 71.2032 43.6735 71.053 43.7593L73.1555 42.5364C73.3057 42.4506 73.4988 42.4506 73.6919 42.5793L78.6908 45.4542C78.9053 45.5615 79.077 45.7545 79.2057 45.9691Z" fill="#455A64"/>
<path d="M78.3261 44.4681C78.3261 43.8459 78.3261 42.9233 78.3261 41.8935C78.3261 40.027 77.1461 37.8386 75.6872 37.0019C75.0221 36.6157 74.4 36.5728 73.9494 36.8302L72.3403 37.7742L73.0483 39.1473V41.4001C73.0483 41.8291 73.3487 42.3655 73.7349 42.5801L75.344 43.5026L76.5454 45.8197L78.1331 44.8971C78.2618 44.8328 78.3261 44.6826 78.3261 44.4681Z" fill="#263238"/>
<path d="M75.6872 40.6706L77.7683 39.4691C77.2749 38.4179 76.5454 37.4739 75.6872 37.0019C75.0221 36.6157 74.4 36.5728 73.9494 36.8302L72.3403 37.7742L73.0483 39.1473V39.5979L75.6872 40.6706Z" fill="#455A64"/>
<path d="M76.7385 45.3926C76.7385 44.7704 76.7385 43.8479 76.7385 42.818C76.7385 40.9515 75.5585 38.7631 74.0996 37.9264C72.6407 37.0897 71.4607 37.905 71.4607 39.75V42.3246C71.4607 42.7537 71.7611 43.29 72.1472 43.5046L76.0949 45.7788C76.4381 45.9933 76.7385 45.8217 76.7385 45.3926Z" fill="#37474F"/>
<path d="M71.7396 45.993C71.1389 48.2458 70.8385 50.5843 70.86 53.0087C70.86 53.4377 71.1603 54.017 71.5036 54.2745C72.705 55.1756 74.0352 55.9265 75.4941 56.5701C75.8803 56.7417 76.2236 56.5272 76.245 56.0981C76.3738 53.2876 76.4167 50.6701 76.2665 48.4818C76.245 48.0527 75.9232 47.4734 75.58 47.2374C74.636 46.5508 73.6705 45.993 72.6836 45.5639C72.2974 45.3709 71.8683 45.5854 71.7396 45.993Z" fill="#27DEBF"/>
<path opacity="0.15" d="M76.202 56.3317C76.2234 56.2673 76.2449 56.1815 76.2663 56.0957C76.395 53.2851 76.438 50.6677 76.2878 48.4793C76.2663 48.2648 76.1805 48.0073 76.0732 47.7928C75.7943 47.4066 75.7085 50.7106 75.7085 52.7488C75.7085 54.744 75.73 56.7822 76.0732 56.5462C76.0947 56.5462 76.0947 56.5248 76.1161 56.5033C76.1161 56.4604 76.159 56.396 76.202 56.3317Z" fill="black"/>
<g opacity="0.15">
<path d="M71.332 52.832C71.332 52.832 71.3964 52.8749 71.5037 52.9393C71.6109 53.0037 71.7397 53.0895 71.9328 53.2182C72.276 53.4542 72.748 53.7331 73.22 54.012C73.692 54.2909 74.1855 54.5269 74.5502 54.72C74.7433 54.8058 74.8935 54.8917 75.0008 54.9346C75.108 54.9775 75.1724 55.0204 75.1724 55.0204C75.1724 55.0204 75.108 54.9989 74.9793 54.9775C74.872 54.956 74.7004 54.9131 74.4858 54.8488C74.2928 54.7844 74.0568 54.6986 73.8208 54.5913C73.692 54.5269 73.5848 54.484 73.456 54.4197C73.3273 54.3553 73.22 54.2909 73.0913 54.2266C72.8553 54.0764 72.6193 53.9262 72.4048 53.776C72.1902 53.6258 71.9971 53.4757 71.8469 53.3255C71.6968 53.1968 71.568 53.068 71.4822 52.9822C71.3749 52.8964 71.332 52.832 71.332 52.832Z" fill="black"/>
<path d="M71.332 51.5234C71.332 51.5234 71.3964 51.5663 71.5037 51.6307C71.6109 51.6951 71.7397 51.7809 71.9328 51.9096C72.276 52.1242 72.748 52.4245 73.22 52.7034C73.692 52.9823 74.1855 53.2183 74.5502 53.4114C74.7433 53.4973 74.8935 53.5831 75.0008 53.626C75.108 53.6689 75.1724 53.7118 75.1724 53.7118C75.1724 53.7118 75.108 53.6903 74.9793 53.6689C74.872 53.6474 74.7004 53.6045 74.4858 53.5402C74.2928 53.4758 74.0568 53.39 73.8208 53.2827C73.692 53.2183 73.5848 53.1754 73.456 53.1111C73.3273 53.0467 73.22 52.9823 73.0913 52.918C72.8553 52.7678 72.6193 52.6176 72.4048 52.4674C72.1902 52.3173 71.9971 52.1671 71.8469 52.0169C71.6968 51.8882 71.568 51.7594 71.4822 51.6736C71.3749 51.5878 71.332 51.5234 71.332 51.5234Z" fill="black"/>
<path d="M71.6111 50.4531C71.6111 50.4531 71.6755 50.4746 71.7613 50.5389C71.8471 50.6033 71.9973 50.6891 72.1474 50.7964C72.4693 51.0109 72.8984 51.2684 73.3274 51.5044C73.7565 51.7404 74.2285 51.9549 74.5718 52.1266C74.7434 52.2124 74.8936 52.2768 74.9794 52.3411C75.0867 52.384 75.1296 52.4269 75.1296 52.4269C75.1296 52.4269 75.0653 52.4269 74.958 52.384C74.8507 52.3626 74.7005 52.3197 74.5074 52.2768C74.3144 52.2338 74.0998 52.148 73.8853 52.0622C73.778 52.0193 73.6493 51.9764 73.542 51.912C73.4347 51.8691 73.306 51.8048 73.1987 51.7404C73.0915 51.676 72.9842 51.6117 72.8769 51.5473C72.7696 51.4829 72.6624 51.4186 72.5765 51.3328C72.3834 51.1826 72.2118 51.0539 72.0616 50.9251C71.9114 50.7964 71.8042 50.6677 71.7398 50.6033C71.654 50.496 71.6111 50.4531 71.6111 50.4531Z" fill="black"/>
<path d="M71.7183 49.2305C71.7183 49.2305 71.7826 49.2519 71.8684 49.3163C71.9543 49.3806 72.083 49.445 72.2546 49.5523C72.555 49.7454 72.9841 50.0028 73.4132 50.2174C73.8423 50.4534 74.2713 50.6465 74.6146 50.7966C74.7863 50.8825 74.915 50.9468 75.0223 50.9897C75.1295 51.0326 75.1724 51.0756 75.1724 51.0756C75.1724 51.0756 75.1081 51.0756 75.0008 51.0541C74.8935 51.0326 74.7434 50.9897 74.5717 50.9468C74.4001 50.9039 74.1855 50.8396 73.971 50.7537C73.8637 50.7108 73.7564 50.6679 73.6492 50.625C73.5419 50.5821 73.4346 50.5177 73.3059 50.4534C73.1986 50.389 73.0914 50.3246 72.9841 50.2603C72.8768 50.1959 72.791 50.1316 72.6837 50.0672C72.4906 49.9385 72.319 49.7883 72.1903 49.6596C72.0615 49.5308 71.9543 49.4236 71.8684 49.3377C71.7612 49.2734 71.7183 49.2305 71.7183 49.2305Z" fill="black"/>
<path d="M71.9111 48.0469C71.9111 48.0469 71.954 48.0683 72.0399 48.1327C72.1257 48.1971 72.2544 48.2614 72.4046 48.3472C72.7049 48.5403 73.0911 48.7763 73.4773 48.9694C73.8849 49.1625 74.2926 49.3556 74.6144 49.5058C74.9362 49.656 75.1293 49.7632 75.1293 49.7632C75.1293 49.7632 74.8933 49.7203 74.55 49.6345C74.2068 49.5487 73.7562 49.3985 73.3486 49.2054C73.2413 49.1411 73.134 49.0981 73.0482 49.0338C72.9409 48.9694 72.8551 48.9051 72.7693 48.8407C72.5977 48.712 72.426 48.5832 72.2973 48.4545C72.0399 48.24 71.9111 48.0469 71.9111 48.0469Z" fill="black"/>
<path d="M72.3403 46.9336C72.3403 46.9336 72.512 47.0409 72.7694 47.191C73.0269 47.3412 73.3701 47.5558 73.7134 47.7274C74.0567 47.899 74.4214 48.0707 74.7003 48.2209C74.9792 48.3496 75.1509 48.4569 75.1509 48.4569C75.1509 48.4569 74.9363 48.4354 74.6574 48.3496C74.3571 48.2852 73.9709 48.135 73.6061 47.942C73.5203 47.899 73.4345 47.8347 73.3487 47.7918C73.2629 47.7489 73.1771 47.6845 73.1127 47.6201C72.9625 47.5129 72.8123 47.3841 72.7051 47.2769C72.4476 47.1052 72.3403 46.9336 72.3403 46.9336Z" fill="black"/>
</g>
<path d="M69.6153 55.4329C68.3066 55.6689 66.9978 56.3339 65.7106 57.2994C65.3673 57.5569 65.3673 58.0074 65.7106 58.2649C67.148 59.3376 68.8215 60.303 70.7309 61.1398C71.1171 61.3114 71.7608 61.3114 72.1469 61.0968C73.284 60.4961 74.2924 59.8096 75.1506 58.9514C75.4509 58.651 75.408 58.179 75.0647 57.9216C73.7346 56.9776 72.4258 56.1623 71.1386 55.6045C70.7309 55.4543 70.0444 55.347 69.6153 55.4329Z" fill="#27DEBF"/>
<g opacity="0.2">
<path d="M66.4189 57.7891C66.4189 57.7891 66.5048 57.8105 66.6335 57.8534C66.7837 57.8963 66.9768 57.9607 67.2128 58.0465C67.6848 58.2182 68.3069 58.4971 68.8862 58.8403C69.4655 59.1836 70.0233 59.5698 70.4309 59.8916C70.8171 60.2134 71.0531 60.4494 71.0531 60.4494C71.0531 60.4494 70.7742 60.2778 70.3451 59.9989C69.916 59.7414 69.3368 59.3767 68.7575 59.0549C68.1782 58.7331 67.5775 58.4112 67.1484 58.1752C66.9339 58.0465 66.7408 57.9607 66.612 57.8963C66.4833 57.832 66.4189 57.7891 66.4189 57.7891Z" fill="black"/>
<path d="M67.6633 57.0586C67.6633 57.0586 67.7491 57.08 67.8779 57.123C68.0281 57.1659 68.2211 57.2302 68.4571 57.3161C68.9291 57.4877 69.5513 57.7666 70.1306 58.1099C70.7099 58.4531 71.2677 58.8393 71.6753 59.1611C72.0615 59.483 72.2975 59.719 72.2975 59.719C72.2975 59.719 72.0186 59.5473 71.5895 59.2684C71.1604 59.011 70.5811 58.6462 70.0019 58.3244C69.4226 58.0026 68.8219 57.6808 68.3928 57.4448C68.1782 57.316 67.9851 57.2302 67.8564 57.1659C67.7491 57.1015 67.6633 57.0586 67.6633 57.0586Z" fill="black"/>
<path d="M68.7358 56.4414C68.7358 56.4414 68.8217 56.4629 68.9504 56.5058C69.1006 56.5487 69.2937 56.613 69.5297 56.6989C70.0017 56.8705 70.6238 57.1494 71.2031 57.4927C71.7824 57.8359 72.3402 58.2221 72.7478 58.5439C73.134 58.8658 73.37 59.1018 73.37 59.1018C73.37 59.1018 73.0911 58.9301 72.662 58.6512C72.2329 58.3938 71.6537 58.029 71.0744 57.7072C70.4951 57.3854 69.8944 57.0636 69.4653 56.8276C69.2507 56.6989 69.0577 56.613 68.9289 56.5487C68.8217 56.4843 68.7358 56.4414 68.7358 56.4414Z" fill="black"/>
<path d="M69.916 55.9453C69.916 55.9453 70.0018 55.9668 70.1306 56.0097C70.2593 56.0526 70.4524 56.0955 70.6669 56.1813C71.096 56.3315 71.6753 56.5889 72.2117 56.9108C72.748 57.2111 73.2629 57.5759 73.6276 57.8762C73.9924 58.1766 74.2069 58.3911 74.2069 58.3911C74.2069 58.3911 74.1426 58.3482 74.0138 58.2839C73.9066 58.2195 73.7349 58.1122 73.5418 57.9835C73.1556 57.7475 72.6193 57.4257 72.0829 57.1253C71.5466 56.8249 71.0102 56.5246 70.6026 56.31C70.4095 56.2028 70.2378 56.1169 70.1091 56.0526C69.9804 55.9882 69.916 55.9453 69.916 55.9453Z" fill="black"/>
</g>
<path d="M95.3391 55.5869L86.7358 50.6095L91.5202 47.8633L96.1544 50.8025L95.3391 55.5869Z" fill="#27DEBF"/>
<path opacity="0.35" d="M95.3391 55.5869L86.7358 50.6095L91.5202 47.8633L96.1544 50.8025L95.3391 55.5869Z" fill="black"/>
<path d="M91.7135 54.4111L92.9579 51.9652L90.0186 50.2703C89.0746 49.734 87.8302 49.7983 86.4786 50.5922C83.5822 52.2656 82.9601 55.5696 82.9601 59.2383C82.9601 61.1478 81.8659 63.5078 82.8957 64.13L82.9386 64.1514L85.9422 65.8892L87.251 63.2932C89.7182 61.3838 91.6062 57.6722 91.7135 54.4111Z" fill="#37474F"/>
<path d="M91.7135 54.4111L92.9579 51.9652L90.0186 50.2703C89.0746 49.734 87.8302 49.7983 86.4786 50.5922C83.5822 52.2656 82.9601 55.5696 82.9601 59.2383C82.9601 61.1478 81.8659 63.5078 82.8957 64.13L82.9386 64.1514L85.9422 65.8892L87.251 63.2932C89.7182 61.3838 91.6062 57.6722 91.7135 54.4111Z" fill="#263238"/>
<path d="M94.7815 55.9097C94.7815 59.0635 93.0222 62.7108 90.6837 64.7275C90.319 65.0493 89.9328 65.3282 89.5252 65.5428C86.6288 67.2162 84.2688 65.6071 84.2688 61.9599C84.2688 59.1922 85.6204 56.0599 87.5084 53.9573C87.5084 53.9573 87.5299 53.9573 87.5299 53.9359C88.1521 53.2708 88.8172 52.713 89.5252 52.3053C92.4215 50.6533 94.7815 52.2624 94.7815 55.9097Z" fill="#37474F"/>
<path d="M89.5251 54.5408C91.3702 53.4681 92.872 54.5837 92.872 57.0296C92.872 59.4754 91.3702 62.3074 89.5251 63.3801C87.68 64.4528 86.1782 63.3372 86.1782 60.8914C86.1782 58.4456 87.68 55.6136 89.5251 54.5408Z" fill="#455A64"/>
<path d="M91.0269 58.2724C90.9196 59.4739 90.1472 60.7826 89.3105 61.1473C88.9458 61.319 88.624 61.276 88.4094 61.083C88.1091 60.8255 87.9589 60.332 88.0233 59.6455C88.1305 58.444 88.9029 57.1353 89.7396 56.7706C89.9542 56.6633 90.1687 56.6419 90.3403 56.6848C90.8338 56.7921 91.1127 57.3713 91.0269 58.2724Z" fill="#FAFAFA"/>
<path d="M90.7265 58.0988C90.6192 59.3002 89.8469 60.609 89.0102 60.9737C88.7956 61.081 88.5811 61.1024 88.4094 61.0595C88.1091 60.8021 87.9589 60.3086 88.0233 59.6221C88.1305 58.4206 88.9029 57.1119 89.7396 56.7472C89.9542 56.6399 90.1687 56.6184 90.3403 56.6613C90.6407 56.9188 90.7909 57.4337 90.7265 58.0988Z" fill="#E0E0E0"/>
<path d="M94.7817 55.9124C94.7817 59.0663 93.0224 62.7135 90.6838 64.7302C92.0784 63.2284 93.5158 60.6968 94.0093 58.2939C94.4598 56.1913 94.2882 53.1663 92.486 52.3939C90.6838 51.643 88.3024 53.2306 87.53 53.9815C88.1522 53.3164 88.8173 52.7586 89.5253 52.351C92.4217 50.6561 94.7817 52.2652 94.7817 55.9124Z" fill="#455A64"/>
<path d="M78.8836 52.5643C78.8407 52.5858 78.8193 52.6072 78.7764 52.6287C78.8193 52.5858 78.9265 52.5428 78.8836 52.5643Z" fill="#27DEBF"/>
<path d="M78.154 52.9721C78.154 52.9936 78.154 52.9721 78.154 52.9721V52.9721ZM92.1424 44.9267C92.1424 41.9016 86.65 37.3747 82.5522 39.3914C82.5522 39.3914 74.6998 43.4249 72.8548 45.8707C70.1086 49.518 67.6413 55.9543 66.9762 59.1081C66.8475 59.6874 68.8213 58.679 69.4864 58.5074C69.7439 58.443 69.9369 58.6576 69.9369 58.6576L69.9155 70.243L82.5737 62.9485C82.5737 62.6267 82.5951 62.2834 82.638 61.9401C83.0242 57.9281 85.9635 53.251 89.1387 51.4489C92.5715 49.4751 95.3391 51.3201 95.3391 55.5896C95.9184 55.3321 96.1973 55.0532 96.3475 54.3452C96.4976 53.6372 96.4976 52.4787 96.4976 50.462C96.4976 48.1449 95.2104 45.6991 92.1424 44.9267ZM88.9242 45.2271C86.3282 46.7289 84.8049 47.6085 83.1744 48.5311C83.1529 48.5311 83.1315 48.5525 83.11 48.574C82.5522 48.8958 82.5093 48.2092 82.5093 47.63C82.5093 46.1496 82.5093 44.562 82.5093 42.8242C82.4878 41.9016 82.7238 41.0649 83.4747 40.8718C85.1053 40.4213 86.3067 40.3998 88.1733 41.9016C89.4391 42.9314 89.8038 44.7336 88.9242 45.2271ZM69.9369 56.1903C70.2373 53.7016 72.1897 50.1616 72.7904 48.9387C74.1635 46.1496 76.8668 44.6049 77.5318 44.2187C79.1838 43.2103 80.042 42.7383 80.6213 42.4165C81.3507 42.0303 81.6082 42.2234 81.6297 42.438C81.6297 42.5452 81.6511 42.6954 81.6511 42.8456V48.5954C81.6511 49.0245 81.5867 49.4751 80.9431 49.8612C80.9431 49.8827 69.9799 56.1689 69.9369 56.1903Z" fill="#27DEBF"/>
<path opacity="0.5" d="M82.5093 50.4392C82.5093 50.4392 82.7453 50.761 82.8526 51.2973C82.8526 51.2973 88.6667 47.6501 90.4045 46.7919C92.1424 45.9337 94.4594 46.3628 95.6394 48.2937C95.6394 48.2937 95.1245 46.7704 93.6442 46.0839C91.9278 45.2901 90.9838 45.7835 87.7227 47.4999C84.4402 49.1948 82.5093 50.4392 82.5093 50.4392Z" fill="white"/>
<path opacity="0.5" d="M71.2029 56.7232L80.2996 51.5312C80.2996 51.5312 80.6643 51.7458 80.6429 52.3036L71.2029 56.7232Z" fill="white"/>
<path d="M78.7547 54.9009C78.7118 54.9224 78.6475 54.9009 78.6475 54.8365V54.4933C78.6475 54.2358 79.0336 53.8067 79.4842 53.5493L80.1707 53.1416C80.6427 52.8627 81.0075 52.8627 81.0075 53.1202V53.3991C81.0075 53.5064 80.9431 53.6136 80.8573 53.678L78.7547 54.9009Z" fill="#37474F"/>
<path opacity="0.15" d="M71.6963 67.1109C71.1814 67.3898 71.0742 66.2742 70.7738 64.1287C70.4734 61.9833 70.5163 58.3789 70.5163 58.3789C70.1731 59.988 70.3018 63.8927 70.5163 66.4029C70.7309 68.9131 71.2029 68.6771 71.6963 68.2909L80.6858 62.6698L71.6963 67.1109Z" fill="black"/>
<path opacity="0.15" d="M81.0508 51.062C81.0508 51.062 81.7159 51.8344 81.7159 53.5507C81.7159 55.5889 81.7373 62.3256 81.7373 62.3256C81.7373 62.3256 82.1235 55.0526 82.3381 53.3577C82.5741 51.6627 81.7159 50.7188 81.7159 50.7188L81.0508 51.062Z" fill="black"/>
<path d="M89.4176 42.4537C88.9241 41.5955 87.7012 40.4584 86.0492 40.1366C83.775 39.6861 82.0372 40.7373 80.943 41.3166C80.8787 41.3595 80.7929 41.4024 80.7285 41.4453C79.8489 41.9817 77.1027 43.5264 75.794 44.5348C74.5496 45.5002 72.962 47.4312 72.2754 48.8042C70.7307 51.9581 69.8081 54.554 69.5936 55.6482C69.5292 55.9486 69.2503 56.9999 69.6794 56.8282C69.7438 56.8068 70.0871 56.6351 70.1514 56.5922C71.8678 55.6482 74.2492 54.2966 74.2492 54.2966C74.2492 54.2966 78.7761 51.6148 80.707 50.4991C81.0289 50.3061 81.1361 50.2631 81.5223 50.0057C81.9085 49.7482 87.2078 46.7661 88.9456 45.7577C90.0398 45.1141 90.1256 43.6766 89.4176 42.4537ZM81.651 48.3537C81.651 48.7828 81.5867 49.2333 80.943 49.641C80.9216 49.641 80.9216 49.6624 80.9216 49.6624C80.9001 49.6624 80.9001 49.6839 80.8787 49.6839C80.235 50.0701 79.0336 50.7781 78.0896 51.293L78.0681 51.3144C78.0467 51.3144 78.0252 51.3359 78.0252 51.3359H78.0038C77.9823 51.3573 77.9609 51.3573 77.9394 51.3788C74.6569 53.1595 70.2372 55.8199 70.2158 55.8199C71.0525 52.7519 72.2111 50.3061 72.8118 49.0831C74.1849 46.2941 76.8881 44.5777 77.5532 44.1701C79.2052 43.1617 80.0634 42.6897 80.6427 42.3679C81.3721 41.9817 81.6296 42.1748 81.651 42.3893C81.651 42.4966 81.6725 42.6468 81.6725 42.797V48.3537H81.651ZM88.6452 45.1784C86.0492 46.6802 84.8048 47.3882 83.1958 48.3322C83.1743 48.3322 83.1529 48.3537 83.1314 48.3751C82.5736 48.697 82.5307 48.0104 82.5307 47.4312C82.5307 45.9508 82.5307 44.5777 82.5307 42.8184C82.5092 41.8959 82.7452 41.0592 83.4961 40.8661C85.1267 40.4155 86.3281 40.3941 88.1947 41.8959C89.439 42.9257 89.5248 44.685 88.6452 45.1784Z" fill="#263238"/>
<path d="M78.0469 51.2954C78.0688 51.2954 78.0688 51.2734 78.0907 51.2734C78.0469 51.2954 78.0469 51.3173 78.0469 51.2954Z" fill="#263238"/>
<path d="M78.7548 50.8828C78.6475 50.9472 78.5617 50.9901 78.5188 51.0115C78.5617 50.9901 78.5832 50.9686 78.6261 50.9472C78.669 50.9472 78.7119 50.9257 78.7548 50.8828Z" fill="#263238"/>
<path d="M81.0288 49.575C81.0726 49.5531 81.0726 49.5531 81.0288 49.575V49.575Z" fill="#263238"/>
<path d="M78.0681 51.2948C78.0896 51.2948 78.111 51.2734 78.1539 51.2519C78.1539 51.2519 78.1754 51.2519 78.1754 51.2305C78.111 51.2734 78.0681 51.2948 78.0681 51.2948Z" fill="#263238"/>
<path d="M78.3469 51.1249C78.3684 51.1034 78.3898 51.1034 78.4113 51.082C78.4327 51.0605 78.4542 51.0605 78.4757 51.0391C78.3255 51.1249 78.2397 51.1678 78.2611 51.1678C78.1967 51.1892 78.1753 51.2107 78.1753 51.2322C78.1967 51.2107 78.2182 51.2107 78.2397 51.1892C78.2397 51.1892 78.2611 51.1892 78.2611 51.1678C78.2611 51.1892 78.2826 51.1678 78.3469 51.1249Z" fill="#263238"/>
<path opacity="0.5" d="M81.6511 48.3556C81.6511 48.7847 81.5867 49.2353 80.9431 49.6429C80.9216 49.6429 80.9216 49.6643 80.9216 49.6643C80.9002 49.6643 80.9002 49.6858 80.8787 49.6858C80.2351 50.072 79.0336 50.78 78.0896 51.2949L78.0682 51.3163C78.0467 51.3163 78.0253 51.3378 78.0253 51.3378H78.0038C77.9824 51.3593 77.9609 51.3593 77.9394 51.3807C74.6569 53.1614 70.2373 55.8218 70.2158 55.8218C71.0525 52.7538 72.2111 50.308 72.8118 49.0851C74.1849 46.296 76.8882 44.5796 77.5533 44.172C79.2053 43.1636 80.0634 42.6916 80.6427 42.3698C81.3722 41.9836 81.6296 42.1767 81.6511 42.3913C81.6511 42.4985 81.6725 42.6487 81.6725 42.7989V48.3556H81.6511Z" fill="black"/>
<path opacity="0.5" d="M88.6452 45.1787C86.0492 46.6805 84.8048 47.3885 83.1957 48.3325C83.1742 48.3325 83.1528 48.354 83.1313 48.3754C82.5735 48.6973 82.5306 48.0107 82.5306 47.4314C82.5306 45.9511 82.5306 44.578 82.5306 42.8187C82.5092 41.8962 82.7452 41.0595 83.4961 40.8664C85.1266 40.4158 86.3281 40.3944 88.1946 41.8962C89.439 42.926 89.5248 44.6853 88.6452 45.1787Z" fill="black"/>
<path d="M90.5547 41.7084C88.2161 38.6404 84.8692 35.0146 75.558 30.3375C66.2253 25.6605 64.5733 25.2099 59.5744 27.5914C59.5744 27.5914 59.5744 27.5914 59.5529 27.5914C56.8711 28.7928 51.2286 31.4103 49.5122 33.2554C49.5122 33.2554 49.8984 33.191 50.1773 33.2339C53.4169 34.1135 69.9584 44.2401 72.6831 46.0637C72.7689 45.9135 72.8333 45.8492 72.8333 45.8492C74.6784 43.4033 82.5307 39.3699 82.5307 39.3699C84.9122 38.2114 88.2376 39.2412 90.5547 41.7084C90.5547 41.7084 90.5761 41.7299 90.5547 41.7084Z" fill="#27DEBF"/>
<path opacity="0.5" d="M90.5547 41.7084C88.2161 38.6404 84.8692 35.0146 75.558 30.3375C66.2253 25.6605 64.5733 25.2099 59.5744 27.5914C59.5744 27.5914 59.5744 27.5914 59.5529 27.5914C56.8711 28.7928 51.2286 31.4103 49.5122 33.2554C49.5122 33.2554 49.8984 33.191 50.1773 33.2339C53.4169 34.1135 69.9584 44.2401 72.6831 46.0637C72.7689 45.9135 72.8333 45.8492 72.8333 45.8492C74.6784 43.4033 82.5307 39.3699 82.5307 39.3699C84.9122 38.2114 88.2376 39.2412 90.5547 41.7084C90.5547 41.7084 90.5761 41.7299 90.5547 41.7084Z" fill="white"/>
<path d="M54.7691 49.0622C48.4829 45.3935 41.832 43.2266 41.8105 43.2266C41.9822 43.9131 42.1109 45.3077 43.2265 46.788C44.1062 47.9251 45.1789 49.1909 46.5091 50.0705C49.6629 52.2804 52.8382 53.7822 53.9323 54.4258C59.3389 57.3651 66.1614 58.3091 67.084 57.2364C67.084 57.2578 59.768 51.98 54.7691 49.0622Z" fill="#455A64"/>
<path d="M67.084 57.2578C66.8265 57.1076 58.2662 51.8084 54.2971 49.4269C50.5211 47.1527 42.7545 43.6557 41.8105 43.2266C42.6044 43.484 48.4829 45.3935 54.7691 49.0622C59.768 51.98 64.9171 55.6487 67.084 57.2578Z" fill="#37474F"/>
<path d="M69.916 70.2549L61.3342 65.2989L66.0971 62.5312L69.916 64.7411V70.2549Z" fill="#27DEBF"/>
<path opacity="0.35" d="M69.916 70.2549L61.3342 65.2989L66.0971 62.5312L69.916 64.7411V70.2549Z" fill="black"/>
<path d="M66.3973 69.0165L67.6416 66.5707L64.7024 64.8758C63.7584 64.3395 62.514 64.4038 61.1624 65.1976C58.266 66.8711 55.906 71.1834 55.906 74.8522C55.906 76.7616 56.5496 78.1132 57.5795 78.7354L57.6224 78.7569L60.626 80.4947L61.9347 77.8987C64.3805 76.0107 66.29 72.2776 66.3973 69.0165Z" fill="#37474F"/>
<path d="M66.3973 69.0165L67.6416 66.5707L64.7024 64.8758C63.7584 64.3395 62.514 64.4038 61.1624 65.1976C58.266 66.8711 55.906 71.1834 55.906 74.8522C55.906 76.7616 56.5496 78.1132 57.5795 78.7354L57.6224 78.7569L60.626 80.4947L61.9347 77.8987C64.3805 76.0107 66.29 72.2776 66.3973 69.0165Z" fill="#263238"/>
<path d="M69.4436 70.5381C69.4436 73.6919 67.6843 77.3391 65.3458 79.3559C64.9811 79.6777 64.5949 79.9566 64.1873 80.1711C61.2909 81.8446 58.9309 80.2355 58.9309 76.5882C58.9309 73.8206 60.2825 70.6882 62.1705 68.5857C62.1705 68.5857 62.192 68.5857 62.192 68.5643C62.8142 67.8992 63.4793 67.3413 64.1873 66.9337C67.1051 65.2817 69.4436 66.8693 69.4436 70.5381Z" fill="#37474F"/>
<path d="M64.1875 69.1658C66.0326 68.0931 67.5344 69.2088 67.5344 71.6546C67.5344 74.1004 66.0326 76.9324 64.1875 78.0051C62.3424 79.0778 60.8406 77.9622 60.8406 75.5164C60.862 73.0491 62.3424 70.2171 64.1875 69.1658Z" fill="#455A64"/>
<path d="M65.7107 72.8993C65.582 74.1008 64.8096 75.3881 63.9729 75.7742C63.6081 75.9459 63.2863 75.903 63.0718 75.6884C62.7714 75.431 62.6212 74.9161 62.7071 74.251C62.8358 73.0495 63.6081 71.7623 64.4449 71.3761C64.6809 71.2688 64.874 71.2473 65.0456 71.2902C65.5176 71.419 65.7965 72.0197 65.7107 72.8993Z" fill="#FAFAFA"/>
<path d="M65.4103 72.7277C65.2816 73.9292 64.5092 75.2164 63.6725 75.6026C63.4365 75.7099 63.2434 75.7313 63.0718 75.6884C62.7714 75.431 62.6212 74.9161 62.7071 74.251C62.8358 73.0495 63.6081 71.7623 64.4449 71.3761C64.6809 71.2688 64.874 71.2473 65.0456 71.2902C65.3245 71.5477 65.4747 72.0626 65.4103 72.7277Z" fill="#E0E0E0"/>
<path d="M69.4438 70.537C69.4438 73.6908 67.6845 77.3381 65.346 79.3548C66.7405 77.853 68.178 75.3213 68.6714 72.9184C69.1219 70.8159 68.9503 67.7908 67.1481 67.0184C65.346 66.2675 62.9645 67.8552 62.1921 68.6061C62.8143 67.941 63.4794 67.3832 64.1874 66.9755C67.1052 65.2806 69.4438 66.8683 69.4438 70.537Z" fill="#455A64"/>
<path d="M69.551 57.3616C69.551 57.3616 67.9419 57.4689 67.3412 57.6834C66.7834 57.8551 60.9907 57.6834 55.2409 55.1518C51.8082 53.65 49.1907 52.4056 46.2514 49.8954C42.4325 46.6129 41.9391 44.4245 41.5529 43.5234C39.9653 44.6391 37.8413 46.2053 36.6184 47.1493C33.8078 49.4878 30.3751 52.942 29.0235 56.7823C28.9376 57.0398 28.8518 57.2972 28.766 57.5547C26.7707 64.8707 28.4871 67.5525 30.2035 69.7838C30.9329 70.7278 32.9711 72.5728 35.5027 74.0961C37.6482 75.3834 39.7293 76.3918 41.9391 77.4001C43.2478 78.0008 44.9213 78.5158 45.9725 78.7518C52.9452 80.2965 57.6009 77.3572 57.6009 77.3572C57.6009 77.3572 57.5365 77.0139 57.6223 76.1987C57.6867 75.6838 57.7725 75.1688 57.9012 74.6539C58.2231 73.3667 58.7165 72.0794 59.3816 70.8994C60.3685 69.0972 61.6987 67.5096 63.179 66.4798C63.3721 66.351 63.5652 66.2223 63.7583 66.115C66.955 64.27 69.5939 65.7503 69.9372 69.419C69.9587 69.6765 69.9587 69.9554 69.9587 70.2558L70.1303 66.8874L69.9801 57.898C69.9372 57.898 69.4438 57.7907 69.551 57.3616Z" fill="#27DEBF"/>
<path opacity="0.2" d="M41.5529 46.1891C45.8009 52.6469 54.254 57.2382 63.8227 59.0618C64.402 59.1691 64.638 59.684 64.1445 60.0058C63.2649 60.5851 61.7845 60.8854 59.8965 60.5207C51.2718 57.9891 45.3075 54.728 41.2526 50.0509C40.8664 49.6004 40.33 48.8065 40.1798 48.2273C39.9653 47.4334 39.9867 46.6396 40.2871 46.0604C40.5446 45.524 41.2311 45.6956 41.5529 46.1891Z" fill="black"/>
<path d="M37.4766 65.1322C38.442 65.6471 40.2442 63.9307 41.1238 63.2227C42.0249 62.5362 39.9653 60.7126 38.8282 60.97C37.262 61.3777 36.6184 64.6817 37.4766 65.1322Z" fill="#455A64"/>
<path d="M41.9176 77.4059C42.7114 77.7706 43.6125 78.0924 44.4492 78.3499C43.4194 77.9422 44.2776 75.8826 43.5052 75.1102C42.69 74.3164 40.0725 73.0935 36.8973 71.2699C33.722 69.4462 31.598 67.451 31.1045 68.0731C30.2464 69.1673 29.5598 68.9742 29.5598 68.9742C29.7529 69.2531 29.9674 69.5321 30.182 69.811C30.9114 70.755 32.9496 72.6001 35.4813 74.1233C37.6267 75.3891 39.7078 76.3975 41.9176 77.4059Z" fill="#455A64"/>
<g opacity="0.2">
<path d="M40.8021 44.0586C39.0429 45.8608 37.4338 47.8346 36.2109 50.0444C34.988 52.2328 34.1727 54.6571 33.7651 57.1244C33.572 58.3688 33.4218 59.6131 33.4647 60.8575C33.5076 62.1018 33.7007 63.3462 34.1727 64.4833C34.2371 64.6335 34.28 64.7622 34.3658 64.9124C34.4302 65.0411 34.4945 65.1913 34.5803 65.32C34.752 65.5775 34.9022 65.8349 35.0952 66.0709C35.2669 66.3284 35.5029 66.5215 35.696 66.7575C35.932 66.9506 36.1465 67.1651 36.404 67.3582C36.8974 67.7444 37.4338 68.0233 37.9916 68.3236C38.5494 68.6026 39.1072 68.8815 39.708 69.0746C39.9869 69.1818 40.2872 69.2676 40.5876 69.3749C40.7378 69.4178 40.888 69.4607 41.0381 69.4822L41.2527 69.5466L41.4887 69.5895C42.0894 69.7182 42.7116 69.7396 43.3338 69.7182C44.5781 69.6753 45.7796 69.3535 46.9596 68.9244C47.5389 68.7098 48.1181 68.4524 48.6974 68.2164L50.4352 67.4869C51.5938 66.9935 52.7738 66.5429 53.9752 66.1138C55.1767 65.6847 56.3781 65.2986 57.5796 64.9338C58.781 64.5691 60.0039 64.2044 61.1625 63.7324C62.321 63.2604 63.4581 62.6811 64.4665 61.9302C65.4748 61.1793 66.333 60.2353 66.9337 59.1197C66.3759 60.2568 65.5392 61.2437 64.5308 62.0375C63.5225 62.8313 62.4068 63.4535 61.2483 63.9469C60.0898 64.4618 58.8668 64.8266 57.6654 65.2127C56.4639 65.5989 55.2625 66.0066 54.0825 66.4357C52.9025 66.8647 51.7225 67.3367 50.5639 67.8302L48.8261 68.5811C48.2469 68.8386 47.6676 69.096 47.0669 69.3106C45.8654 69.7611 44.621 70.1044 43.3123 70.1473C42.6687 70.1687 42.0251 70.1258 41.3814 70.0186L41.1454 69.9756L40.9094 69.9113C40.7592 69.8684 40.5876 69.8469 40.4374 69.804C40.1371 69.6967 39.8152 69.6109 39.5149 69.5036C38.9141 69.2891 38.3349 69.0102 37.7556 68.7098C37.1978 68.4095 36.6185 68.1091 36.1036 67.7015C35.8247 67.5084 35.6102 67.2938 35.3527 67.0793C35.1382 66.8433 34.9022 66.6073 34.7091 66.3498C34.4945 66.0924 34.3443 65.8135 34.1512 65.5346C34.0654 65.3844 34.0011 65.2557 33.9152 65.1055C33.8294 64.9553 33.7651 64.8051 33.7222 64.6549C33.2072 63.4535 33.0356 62.1662 32.9927 60.8789C32.9498 59.5917 33.1214 58.3258 33.336 57.0815C33.7865 54.5713 34.6447 52.1469 35.9105 49.9371C37.3051 47.7488 38.9571 45.7964 40.8021 44.0586Z" fill="black"/>
</g>
<path opacity="0.5" d="M50.0488 53.2019C50.0488 53.2019 43.6125 49.5976 41.231 43.9336C41.231 43.9336 38.4848 46.5296 36.7685 49.9623C34.8376 53.8241 34.2583 57.3641 34.2583 57.3641C34.2583 57.3641 35.6743 51.8503 38.0987 48.439C40.3728 45.2423 40.9307 44.47 42.2394 46.551C43.2477 48.1601 46.4659 52.0434 50.0488 53.2019Z" fill="white"/>
<path opacity="0.5" d="M60.0252 63.7578C58.4376 64.144 55.4125 64.8949 52.9023 65.9033C50.3921 66.9116 47.2383 68.864 43.9772 69.2287C40.7162 69.5934 37.4551 67.6411 37.4551 67.6411C37.4551 67.6411 40.802 69.1858 43.9129 68.7567C47.0023 68.3276 50.006 66.4396 53.074 65.3454C56.142 64.2513 60.0252 63.7578 60.0252 63.7578Z" fill="white"/>
<path d="M55.648 74.2945C55.3476 74.2516 54.5752 74.4661 53.288 74.8309C52.0007 75.1956 51.6789 75.2385 51.2069 75.5603C50.7992 75.8392 49.7265 76.7189 49.1901 76.9978C48.3534 77.4268 49.1901 77.7272 51.5072 77.7272C53.8243 77.7272 54.5967 77.0407 55.133 76.3327C55.6909 75.6032 56.356 74.3803 55.648 74.2945Z" fill="#455A64"/>
<path d="M28.5082 61.698C28.4224 62.2343 28.3795 62.8136 28.3795 62.9638C28.358 63.8005 28.5297 64.6372 28.8515 65.4096C28.9588 65.6456 29.1304 65.9031 29.3878 65.8816C29.4951 65.8816 29.2806 62.3631 29.2377 62.0198C29.1948 61.698 29.1518 61.3976 29.1089 61.0758C29.0875 60.9685 29.0446 60.8183 28.9373 60.7969C28.7228 60.7969 28.594 61.226 28.5082 61.698Z" fill="#455A64"/>
<path d="M32.1771 58.6102C32.4131 57.6233 32.3916 55.9928 32.4345 54.9844C32.4774 53.6971 32.5418 53.3539 32.7564 52.1739C32.8851 51.5517 32.9709 51.0368 32.7778 50.8008C31.1902 52.5815 29.7742 54.6197 29.0018 56.7651C28.916 57.0226 28.8302 57.28 28.7444 57.5375C28.68 57.795 28.6156 58.031 28.5513 58.2884C28.7015 59.0393 29.3665 60.0691 30.2462 60.1549C31.276 60.2837 31.9411 59.5971 32.1771 58.6102Z" fill="#455A64"/>
<path d="M31.7908 51.294C31.9624 51.1653 32.177 51.0795 32.3915 51.1009C32.6061 51.1224 32.5202 51.4657 32.4773 51.5944C32.3915 51.8304 32.3057 52.0878 32.2199 52.3238C32.1555 52.4955 32.1126 52.7315 31.8766 52.7529C31.5762 52.7744 31.4261 52.4097 31.3832 52.1737C31.2973 51.8304 31.5119 51.4871 31.7908 51.294Z" fill="#27DEBF"/>
<path opacity="0.65" d="M31.7908 51.294C31.9624 51.1653 32.177 51.0795 32.3915 51.1009C32.6061 51.1224 32.5202 51.4657 32.4773 51.5944C32.3915 51.8304 32.3057 52.0878 32.2199 52.3238C32.1555 52.4955 32.1126 52.7315 31.8766 52.7529C31.5762 52.7744 31.4261 52.4097 31.3832 52.1737C31.2973 51.8304 31.5119 51.4871 31.7908 51.294Z" fill="white"/>
<path d="M29.753 59.5163C30.1177 59.7523 30.5897 59.8167 31.0831 59.3447C31.3621 59.0872 31.5122 58.7225 31.641 58.3792C32.1559 56.8345 31.9199 55.1396 31.641 53.5305C31.6195 53.3374 31.5766 53.1443 31.4479 53.0156C31.0617 52.608 30.3537 53.3374 30.1177 53.6163C29.7101 54.0454 29.3882 54.5389 29.1522 55.0967C28.8304 55.8476 28.5515 56.9203 28.7017 57.7356C28.8304 58.3578 29.1737 59.1731 29.753 59.5163Z" fill="#27DEBF"/>
<path opacity="0.65" d="M29.753 59.5163C30.1177 59.7523 30.5897 59.8167 31.0831 59.3447C31.3621 59.0872 31.5122 58.7225 31.641 58.3792C32.1559 56.8345 31.9199 55.1396 31.641 53.5305C31.6195 53.3374 31.5766 53.1443 31.4479 53.0156C31.0617 52.608 30.3537 53.3374 30.1177 53.6163C29.7101 54.0454 29.3882 54.5389 29.1522 55.0967C28.8304 55.8476 28.5515 56.9203 28.7017 57.7356C28.8304 58.3578 29.1737 59.1731 29.753 59.5163Z" fill="white"/>
<path opacity="0.45" d="M30.2463 54.1961C29.6241 54.9041 29.5812 56.0412 30.1176 56.7921C30.2249 56.9423 30.375 57.0924 30.5681 57.1139C30.7612 57.1353 30.9543 57.0066 31.0616 56.835C31.1689 56.6633 31.1903 56.4703 31.2332 56.2772C31.2976 55.6764 31.2976 55.0757 31.2761 54.4535C31.2332 53.7455 30.6754 53.7026 30.2463 54.1961Z" fill="white"/>
<path d="M50.5424 68.6518C51.6151 67.7507 53.2671 66.9784 56.0347 66.6995C58.502 66.4635 60.6903 65.3264 60.7547 66.5493C60.8191 67.7722 58.8667 71.4624 55.2838 72.7067C52.1944 73.7795 50.2205 72.9427 49.5769 71.8915C48.9333 70.8831 49.4696 69.5744 50.5424 68.6518Z" fill="#455A64"/>
<path d="M59.0383 68.1135C59.5103 68.2422 59.8107 68.0277 60.0038 67.6201C60.1325 67.3197 60.2612 66.8906 59.875 66.719C59.3601 66.5044 58.6521 66.6761 58.1587 66.9121C57.1932 67.3841 58.5878 67.9848 59.0383 68.1135Z" fill="#27DEBF"/>
<path opacity="0.65" d="M59.0383 68.1135C59.5103 68.2422 59.8107 68.0277 60.0038 67.6201C60.1325 67.3197 60.2612 66.8906 59.875 66.719C59.3601 66.5044 58.6521 66.6761 58.1587 66.9121C57.1932 67.3841 58.5878 67.9848 59.0383 68.1135Z" fill="white"/>
<path d="M57.837 69.7901C58.1588 69.2323 58.309 68.5887 57.8799 68.1381C57.4294 67.6876 56.5926 67.5374 55.9919 67.4945C54.1683 67.3229 52.2588 67.9021 50.8643 69.0821C50.5425 69.361 50.2421 69.6614 50.0276 70.0261C49.8345 70.3909 49.7486 70.8414 49.8774 71.249C50.4781 73.137 53.3959 72.8367 54.8119 72.3003C55.7345 71.957 56.5712 71.3778 57.2148 70.6269C57.4079 70.4338 57.6439 70.1334 57.837 69.7901Z" fill="#27DEBF"/>
<path opacity="0.65" d="M57.837 69.7901C58.1588 69.2323 58.309 68.5887 57.8799 68.1381C57.4294 67.6876 56.5926 67.5374 55.9919 67.4945C54.1683 67.3229 52.2588 67.9021 50.8643 69.0821C50.5425 69.361 50.2421 69.6614 50.0276 70.0261C49.8345 70.3909 49.7486 70.8414 49.8774 71.249C50.4781 73.137 53.3959 72.8367 54.8119 72.3003C55.7345 71.957 56.5712 71.3778 57.2148 70.6269C57.4079 70.4338 57.6439 70.1334 57.837 69.7901Z" fill="white"/>
<path opacity="0.45" d="M54.5117 67.9233C54.0611 68.0091 53.5462 68.2022 53.3317 68.288C52.9026 68.4597 52.4735 68.8244 52.5164 69.2749C52.6022 70.2618 54.4688 70.7124 55.2626 70.6909C56.0778 70.648 56.8931 70.2189 57.2578 69.468C58.1589 67.6658 55.4342 67.7731 54.5117 67.9233Z" fill="white"/>
<path d="M50.1997 33.25C46.4451 36.4682 44.4284 38.8282 41.6179 42.7543C41.06 43.7198 42.755 47.4314 46.1448 50.1562C55.2629 57.558 66.6553 58.974 67.8138 57.794C69.4444 52.0227 71.1178 48.6114 72.7054 46.0798C69.9807 44.2562 53.4393 34.1296 50.1997 33.25ZM67.1058 57.1503C67.0629 57.279 66.9771 57.3649 66.8055 57.3649C63.9306 57.3649 55.22 56.1849 46.96 49.8987C42.6048 46.5733 42.3902 43.2693 42.3259 43.0118C44.5357 39.622 46.4666 37.5409 49.7706 34.5373C50.1138 34.2369 50.5858 34.1511 51.0149 34.3442C55.5418 36.318 65.3895 41.982 70.6458 45.758C71.1178 46.1013 71.268 46.7449 70.9891 47.2598C68.908 50.95 68.1571 53.4816 67.1058 57.1503Z" fill="#37474F"/>
<path opacity="0.5" d="M67.1056 57.1514C67.0627 57.2802 66.9769 57.366 66.8053 57.366C63.9304 57.366 55.2198 56.186 46.9599 49.8998C42.6046 46.5744 42.39 43.2704 42.3257 43.0129C44.5355 39.6231 46.4664 37.542 49.7704 34.5384C50.1137 34.238 50.5857 34.1522 51.0148 34.3453C55.5417 36.3191 65.3893 41.9831 70.6456 45.7591C71.1176 46.1024 71.2678 46.746 70.9889 47.2609C68.9078 50.9511 68.1569 53.4827 67.1056 57.1514Z" fill="black"/>
<path d="M72.8763 58.0492C72.4686 59.9372 70.3875 60.3448 68.8214 60.3019C67.9846 60.2804 67.2981 60.1303 67.105 60.0015C66.5043 59.6583 66.7832 58.9288 67.105 58.4997C67.6628 57.7917 70.1301 56.3543 71.6748 56.3114C72.5759 56.2685 73.1552 56.719 72.8763 58.0492Z" fill="#27DEBF"/>
<path opacity="0.3" d="M72.8763 58.0492C72.4686 59.9372 70.3875 60.3448 68.8214 60.3019C67.9846 60.2804 67.2981 60.1303 67.105 60.0015C66.5043 59.6583 66.7832 58.9288 67.105 58.4997C67.6628 57.7917 70.1301 56.3543 71.6748 56.3114C72.5759 56.2685 73.1552 56.719 72.8763 58.0492Z" fill="black"/>
<path d="M72.8763 58.0492C72.4686 59.9372 70.3875 60.3448 68.8214 60.3019C67.9846 60.2804 67.2981 60.1303 67.105 60.0015C66.5043 59.6583 66.7832 58.9288 67.105 58.4997C66.8046 59.079 68.4137 59.4437 69.8512 58.9288C71.2886 58.4139 72.3614 57.2983 71.6748 56.3114C72.5759 56.2685 73.1552 56.719 72.8763 58.0492Z" fill="#27DEBF"/>
<path opacity="0.35" d="M72.8763 58.0492C72.4686 59.9372 70.3875 60.3448 68.8214 60.3019C67.9846 60.2804 67.2981 60.1303 67.105 60.0015C66.5043 59.6583 66.7832 58.9288 67.105 58.4997C66.8046 59.079 68.4137 59.4437 69.8512 58.9288C71.2886 58.4139 72.3614 57.2983 71.6748 56.3114C72.5759 56.2685 73.1552 56.719 72.8763 58.0492Z" fill="black"/>
<path d="M72.8762 58.0492C72.4686 59.9372 70.3875 60.3448 68.8213 60.3019C70.3875 60.259 71.6318 59.3579 72.1038 58.371C72.5758 57.3841 72.2111 56.4401 71.6747 56.3114C72.5758 56.2685 73.1551 56.719 72.8762 58.0492Z" fill="#37474F"/>
<path d="M15.7429 31.423C15.5713 31.3371 15.3996 31.2942 15.2923 31.3371C15.2923 31.3371 15.1851 31.4015 15.1207 31.4444C14.8418 31.659 14.6702 31.9808 14.6702 32.3455C14.6916 32.9462 15.1851 33.4182 15.7858 33.4182C15.9574 33.4182 16.1076 33.3753 16.2363 33.311C16.3007 33.2681 16.3865 33.2251 16.3865 33.2251C16.4938 33.1393 16.5367 32.9677 16.5367 32.7746C16.5367 32.2597 16.172 31.6804 15.7429 31.423Z" fill="#27DEBF"/>
<path d="M39.0211 63.6292C38.7422 64.0154 38.3131 64.187 38.12 64.0583C37.7338 63.7794 37.648 63.243 37.9269 62.8568C38.2058 62.4707 38.7422 62.3848 39.1284 62.6638C39.3 62.8139 39.3 63.243 39.0211 63.6292Z" fill="#263238"/>
<path d="M26.7491 81.8437C25.6334 81.8437 24.432 81.5433 23.1876 80.8353C21.8574 80.063 21.0422 79.0117 20.7633 77.66C20.3127 75.579 21.2996 73.3048 22.2651 71.9746L22.544 71.5884C24.2389 69.2499 25.1829 67.9412 24.8396 66.611C24.432 65.0019 19.1542 65.2164 13.5975 65.6455C13.1255 65.6884 12.6106 65.7313 12.0956 65.7528C8.51274 66.0317 3.21348 65.3881 2.72002 63.7575C2.52693 63.1353 2.99893 62.4917 4.13602 61.8266C8.49129 59.3164 12.2673 57.1281 12.2673 52.451C12.2673 46.8085 12.2244 43.7834 12.2029 41.595C12.1815 40.3721 12.1815 38.5914 12.1815 37.5616C12.1815 34.6438 14.992 32.5412 15.1207 32.4554C15.2065 32.391 15.3567 32.4125 15.4211 32.4983C15.4855 32.5841 15.464 32.7343 15.3782 32.7987C15.3567 32.8201 12.6106 34.8798 12.6106 37.5616C12.6106 38.5914 12.632 40.3507 12.632 41.595C12.6535 43.8048 12.6964 46.8085 12.6964 52.451C12.6964 57.3855 8.64147 59.7241 4.35057 62.1913C3.70693 62.5561 2.97748 63.1139 3.12766 63.6288C3.47093 64.7659 7.99783 65.6241 12.0742 65.3237C12.5891 65.2808 13.0826 65.2379 13.576 65.2164C19.3687 64.7659 24.7753 64.5513 25.2473 66.5037C25.6334 68.027 24.6465 69.3786 22.8658 71.8459L22.5869 72.2321C21.6644 73.4979 20.7633 75.6433 21.1709 77.5957C21.4284 78.8186 22.1793 79.784 23.4022 80.492C26.1269 82.0582 28.7443 81.479 30.1174 80.2131C31.276 79.1404 31.7909 77.424 31.7909 74.635C31.7909 74.2059 31.7909 73.7553 31.7909 73.2833C31.7694 71.4382 31.7694 69.5288 31.9625 67.8339C32.1771 65.9673 32.9494 64.4441 34.1294 63.5644C35.1807 62.7706 36.5538 62.4917 38.1414 62.7492C38.2487 62.7706 38.3345 62.8779 38.3131 62.9852C38.2916 63.0924 38.1843 63.1783 38.0771 63.1568C36.5967 62.9208 35.3523 63.1783 34.3869 63.8862C32.928 64.9804 32.5203 66.847 32.3916 67.8768C32.1985 69.5288 32.22 71.4382 32.22 73.2619C32.22 73.7339 32.22 74.1844 32.22 74.6135C32.22 77.5313 31.6622 79.3335 30.4178 80.5135C29.5382 81.3073 28.2509 81.8437 26.7491 81.8437Z" fill="#37474F"/>
<path d="M60.1964 22.6526L58.995 20.3785L59.9604 17.5679V15.8516L56.9783 17.5679V19.2843L58.2655 21.4941C58.287 21.537 58.3084 21.5585 58.3514 21.5799L60.1964 22.6526Z" fill="#27DEBF"/>
<path opacity="0.2" d="M60.1964 22.6526L58.995 20.3785L59.9604 17.5679V15.8516L56.9783 17.5679V19.2843L58.2655 21.4941C58.287 21.537 58.3084 21.5585 58.3514 21.5799L60.1964 22.6526Z" fill="black"/>
<path d="M67.3195 2.183C67.3195 1.60372 66.9119 0.91718 66.4184 0.638272L65.689 0.209181C65.1955 -0.0697272 64.4017 -0.0697272 63.9083 0.209181L52.7519 6.66699C52.2585 6.9459 51.8508 7.6539 51.8508 8.21171V20.4837C51.8508 21.063 52.2585 21.7495 52.7519 22.0284L53.4814 22.4575C53.9748 22.7364 54.7686 22.7364 55.2621 22.4575L58.845 20.3764L60.1323 22.5862C60.2181 22.7364 60.4326 22.715 60.4755 22.5433L61.8272 18.6386L66.4184 15.9782C66.9119 15.6993 67.3195 14.9913 67.3195 14.4335V2.183Z" fill="#27DEBF"/>
<path opacity="0.2" d="M51.8508 20.4836C51.8508 21.0629 52.2585 21.7495 52.7519 22.0284L53.4814 22.4575C53.9319 22.7149 54.6185 22.7364 55.1119 22.5218C54.6828 22.672 54.361 22.436 54.361 21.9426V9.67057C54.361 9.39166 54.4683 9.06985 54.6185 8.79094L52.1297 7.33203C51.9581 7.61094 51.8723 7.93276 51.8723 8.21167V20.4836H51.8508Z" fill="black"/>
<path opacity="0.5" d="M67.2765 1.92554C67.1693 1.53936 66.826 1.43209 66.4183 1.66809L55.262 8.1259C55.026 8.27608 54.79 8.51208 54.6398 8.79099L52.1296 7.33208C52.3013 7.05317 52.5158 6.81717 52.7518 6.66699L63.9082 0.209181C64.4016 -0.0697272 65.1954 -0.0697272 65.6889 0.209181L66.4183 0.638272C66.8474 0.874271 67.1907 1.41063 67.2765 1.92554Z" fill="white"/>
<path d="M65.7316 5.66016C65.0021 7.37652 65.9032 10.0154 65.2596 12.1394C64.6159 14.2205 63.4359 15.186 62.1916 15.0143C62.0414 12.6543 62.7923 10.23 64.0152 8.25615C62.8567 9.43615 61.269 11.41 61.6123 14.95C60.6468 14.5423 59.7672 12.6543 60.797 10.3587C62.1916 7.18343 65.7316 5.66016 65.7316 5.66016Z" fill="white"/>
<path d="M58.0084 8.32031L55.7771 14.2418L57.6865 14.5636L57.1073 19.3265L59.4244 13.2119L57.5149 12.7829L58.0084 8.32031Z" fill="white"/>
</svg>
