<svg width="32" height="32" viewBox="0 0 32 32" fill="none" xmlns="http://www.w3.org/2000/svg">
<circle cx="16" cy="16" r="15" fill="#0559FF" stroke="#0559FF" stroke-width="2"/>
<path d="M16.416 23.18C15.3 23.18 14.328 22.988 13.5 22.604C12.672 22.22 11.982 21.704 11.43 21.056C10.89 20.396 10.482 19.664 10.206 18.86C9.942 18.044 9.81 17.21 9.81 16.358C9.81 15.506 9.942 14.672 10.206 13.856C10.482 13.04 10.896 12.308 11.448 11.66C12 11 12.696 10.478 13.536 10.094C14.376 9.698 15.354 9.5 16.47 9.5C17.346 9.5 18.096 9.614 18.72 9.842C19.356 10.058 19.884 10.34 20.304 10.688C20.736 11.036 21.078 11.408 21.33 11.804C21.594 12.188 21.792 12.554 21.924 12.902C22.056 13.25 22.146 13.538 22.194 13.766C22.242 13.982 22.266 14.09 22.266 14.09H19.818C19.818 14.09 19.794 14.012 19.746 13.856C19.71 13.688 19.626 13.484 19.494 13.244C19.362 13.004 19.17 12.764 18.918 12.524C18.678 12.284 18.36 12.086 17.964 11.93C17.568 11.762 17.076 11.678 16.488 11.678C15.78 11.678 15.162 11.81 14.634 12.074C14.118 12.338 13.686 12.692 13.338 13.136C12.99 13.58 12.732 14.078 12.564 14.63C12.396 15.182 12.312 15.746 12.312 16.322C12.312 17.102 12.468 17.852 12.78 18.572C13.092 19.292 13.554 19.88 14.166 20.336C14.79 20.792 15.558 21.02 16.47 21.02C17.526 21.02 18.36 20.732 18.972 20.156C19.596 19.58 19.95 18.812 20.034 17.852H16.398V15.908H22.41V16.898C22.41 18.278 22.146 19.436 21.618 20.372C21.09 21.296 20.37 21.998 19.458 22.478C18.558 22.946 17.544 23.18 16.416 23.18Z" fill="white"/>
</svg>
