<svg width="127" height="46" viewBox="0 0 127 46" fill="none" xmlns="http://www.w3.org/2000/svg">
<path opacity="0.5" d="M0 15.457H127" stroke="#7A7A7A" stroke-dasharray="2 2"/>
<path d="M2.70996 14.4864C2.70996 14.4864 4.36912 14.169 6.16666 11.2257C7.96419 8.28244 11.7434 0.874902 12.9417 1.00149C14.1399 1.12808 14.8773 10.4351 14.8773 10.4351L20.0392 14.8037L24.9245 13.3475C25.539 13.3897 26.897 13.74 27.4132 14.8037C28.0584 16.1332 28.2428 19.1723 29.8098 19.8687C31.3767 20.5651 32.3907 22.0847 34.4185 20.4385C36.4464 18.7924 38.9351 15.7534 40.8708 16.3232C42.8065 16.893 45.4796 18.3492 45.8483 20.7551C46.217 23.161 47.3231 26.5166 48.0605 24.9337C48.7979 23.3509 47.1387 23.6675 48.0605 20.4385C48.9822 17.2096 47.4153 15.0569 49.3509 13.3475C51.2866 11.638 52.9458 8.91557 54.3284 7.64931C55.711 6.38305 57.8311 2.26771 59.2137 3.28072C60.5963 4.29372 62.1633 5.24342 62.0711 7.64931C61.979 10.0552 62.0711 12.651 62.0711 12.841C62.0711 13.0309 62.6242 13.854 64.2834 13.3475C65.9425 12.841 66.5877 11.2257 67.233 11.2257C67.8782 11.2257 67.1408 15.8167 68.6156 15.5001C70.0904 15.1835 69.8139 14.4562 70.6435 12.841C71.473 11.2257 72.3948 8.0925 74.2383 8.28244C75.7131 8.43439 77.3723 9.78084 78.0175 10.4351" stroke="#0BAC68"/>
<path opacity="0.2" d="M6.16666 11.2258C4.36912 14.1691 2.70996 14.4865 2.70996 14.4865V46H78.0175V10.4352C77.3723 9.78096 75.7131 8.4345 74.2383 8.28255C72.3948 8.09261 71.473 11.2258 70.6435 12.8411C69.8139 14.4563 70.0904 15.1837 68.6156 15.5002C67.1408 15.8168 67.8782 11.2258 67.233 11.2258C66.5877 11.2258 65.9425 12.8411 64.2834 13.3476C62.6242 13.8541 62.0711 13.031 62.0711 12.8411C62.0711 12.6511 61.979 10.0553 62.0711 7.64942C62.1633 5.24353 60.5963 4.29384 59.2137 3.28083C57.8311 2.26782 55.711 6.38316 54.3284 7.64942C52.9458 8.91568 51.2866 11.6381 49.3509 13.3476C47.4153 15.057 48.9822 17.2097 48.0605 20.4386C47.1387 23.6676 48.7979 23.351 48.0605 24.9339C47.3231 26.5167 46.217 23.1611 45.8483 20.7552C45.4796 18.3493 42.8065 16.8931 40.8708 16.3233C38.9351 15.7535 36.4464 18.7925 34.4185 20.4386C32.3907 22.0848 31.3767 20.5653 29.8098 19.8688C28.2428 19.1724 28.0584 16.1334 27.4132 14.8038C26.897 13.7401 25.539 13.3898 24.9245 13.3476L20.0392 14.8038L14.8773 10.4352C14.8773 10.4352 14.1399 1.12819 12.9417 1.0016C11.7434 0.875014 7.96419 8.28255 6.16666 11.2258Z" fill="url(#paint0_linear_3865_22805)"/>
<defs>
<linearGradient id="paint0_linear_3865_22805" x1="40.3637" y1="2.6937" x2="40.3637" y2="46" gradientUnits="userSpaceOnUse">
<stop stop-color="#16BE77"/>
<stop offset="1" stop-color="#16BE77" stop-opacity="0"/>
</linearGradient>
</defs>
</svg>
