<svg width="20" height="20" viewBox="0 0 20 20" fill="none" xmlns="http://www.w3.org/2000/svg">
<path d="M1.10719 1.74909C1.27319 1.3897 1.62273 1.10941 1.99735 1.03529C2.08229 1.0185 5.32841 1.00319 9.21097 1.00126C16.8337 0.997507 16.5068 0.989259 16.8557 1.19379C17.2908 1.4487 17.4777 1.86609 17.4777 2.58249V2.89146H17.1666H16.8556L16.8389 2.48529C16.8239 2.12252 16.8115 2.06311 16.7228 1.92903C16.6682 1.84647 16.569 1.7492 16.5025 1.71287C16.3881 1.6503 16.0065 1.64629 9.30925 1.63715C4.61751 1.63072 2.18974 1.64016 2.09696 1.66512C1.90529 1.71677 1.76526 1.83536 1.68348 2.01541C1.61735 2.16105 1.61467 2.41745 1.61467 8.61313C1.61467 14.7897 1.61753 15.0655 1.68292 15.2079C1.81779 15.5016 2.0198 15.594 2.53259 15.5964L2.87626 15.598V15.9189V16.2397L2.42065 16.2221C2.0266 16.2069 1.93442 16.1908 1.73824 16.1028C1.45729 15.9767 1.23998 15.7592 1.10407 15.468L1 15.2451V8.61313V1.98119L1.10719 1.74909Z" fill="#7A7A7A"/>
<path d="M2.25122 2.82302V2.50721V2.19141H2.56703H2.88283V2.50721V2.82302H2.56703H2.25122Z" fill="#7A7A7A"/>
<path d="M3.55151 2.82302V2.50721V2.19141H3.86732H4.18313V2.50721V2.82302H3.86732H3.55151Z" fill="#7A7A7A"/>
<path d="M4.8147 2.82302V2.50721V2.19141H5.1305H5.44631V2.50721V2.82302H5.1305H4.8147Z" fill="#7A7A7A"/>
<path d="M4.8147 5.35036V5.03456V4.71875H5.1305H5.44631V5.03456V5.35036H5.1305H4.8147Z" fill="#7A7A7A"/>
<path d="M6.11523 5.35036V5.03456V4.71875H6.43104H6.74685V5.03456V5.35036H6.43104H6.11523Z" fill="#7A7A7A"/>
<path d="M7.37842 5.35036V5.03456V4.71875H7.69422H8.01003V5.03456V5.35036H7.69422H7.37842Z" fill="#7A7A7A"/>
<path d="M4.82551 6.66772H4.8147V6.05469H11.8011H18.7875V6.37061V6.68649L11.8119 6.67712L4.82551 6.66772Z" fill="#7A7A7A"/>
<path d="M4.84201 8.2488H4.8147V7.61719H6.04077H7.26684V8.2488H7.23953H6.04077H4.84201Z" fill="#7A7A7A"/>
<path d="M4.83628 9.5271H4.8147V8.91406H5.7837H6.75271V9.5271H6.73112H5.7837H4.83628Z" fill="#7A7A7A"/>
<path d="M16.837 17.406H16.8154V16.793H17.7844H18.7534V17.406H18.7319H17.7844H16.837Z" fill="#7A7A7A"/>
<path fill-rule="evenodd" clip-rule="evenodd" d="M11.1901 10.2005C10.7922 10.3182 10.5449 10.4673 10.2255 10.7821C9.75854 11.2425 9.56393 11.7173 9.57073 12.3797C9.58277 13.5447 10.485 14.4784 11.6603 14.5421C12.3255 14.5781 12.8538 14.372 13.3356 13.8887C14.0354 13.1866 14.1875 12.2369 13.7439 11.3394C13.4984 10.8428 13.0296 10.4277 12.5045 10.2421C12.1776 10.1266 11.5112 10.1055 11.1901 10.2005ZM13.3298 12.5841C13.4381 11.8826 13.0899 11.2292 12.4418 10.918C12.196 10.8 12.1262 10.7837 11.8287 10.7747C11.5804 10.7672 11.444 10.7818 11.3045 10.831C10.8561 10.9891 10.5465 11.2656 10.3474 11.6857C10.2376 11.9175 10.2298 11.9608 10.2298 12.3426C10.2298 12.7261 10.2372 12.7669 10.3498 13.0045C10.8183 13.9937 12.1116 14.2209 12.8811 13.4492C13.134 13.1957 13.2783 12.9174 13.3298 12.5841Z" fill="#7A7A7A"/>
<path fill-rule="evenodd" clip-rule="evenodd" d="M10.4527 8.01816C10.4636 7.51658 10.4756 7.45487 10.5811 7.3566C10.6584 7.28452 10.7084 7.28125 11.7341 7.28125H12.8062L12.8974 7.37246C12.9849 7.45989 12.9886 7.48348 12.9886 7.94508V8.42651L13.2394 8.52311C13.3773 8.57621 13.5153 8.63573 13.5459 8.65531C13.5891 8.68291 13.6788 8.61418 13.9442 8.3502C13.9689 8.32562 13.9922 8.30219 14.0144 8.27997C14.1752 8.11833 14.2723 8.02079 14.3784 8.00974C14.5398 7.99291 14.7221 8.17634 15.1818 8.63887C15.2233 8.68064 15.2671 8.72469 15.3133 8.77108C15.3627 8.82063 15.4094 8.86733 15.4535 8.91143C15.9053 9.36324 16.0832 9.54121 16.0666 9.69866C16.0558 9.80098 15.9629 9.89464 15.8095 10.0492C15.7865 10.0724 15.7621 10.0969 15.7365 10.1231L15.4005 10.4657L15.5228 10.7679L15.6451 11.0701L16.0643 11.0705C16.5649 11.071 16.7112 11.1174 16.7733 11.2954C16.8273 11.4505 16.8311 13.2443 16.7776 13.3975C16.7139 13.5804 16.6201 13.6129 16.1095 13.6284L15.6451 13.6426L15.5257 13.9242L15.4062 14.2058L15.7393 14.5501C15.7612 14.5728 15.7822 14.5943 15.8022 14.6148C15.9663 14.783 16.0645 14.8838 16.0748 14.9929C16.0902 15.156 15.909 15.3375 15.4571 15.7904C15.4203 15.8274 15.3816 15.8661 15.3411 15.9068C14.9389 16.3109 14.5657 16.6568 14.5118 16.6756C14.3626 16.7276 14.2312 16.6503 13.9044 16.3182L13.6127 16.0217L13.3099 16.1455L13.0072 16.2694L12.9978 16.7261C12.9926 16.9772 12.9699 17.2185 12.9473 17.2622C12.8702 17.4111 12.7701 17.4242 11.7072 17.4242H10.6893L10.585 17.3347C10.4827 17.2468 10.4804 17.2359 10.4622 16.7559L10.4436 16.2665L10.1464 16.1422L9.84913 16.0179L9.51404 16.3495C9.20681 16.6536 9.16684 16.6811 9.03327 16.6811C8.89391 16.6811 8.85705 16.6509 8.18587 15.9845C7.79992 15.6014 7.46037 15.2427 7.43127 15.1876C7.33389 15.0028 7.36317 14.9405 7.71676 14.5799L8.05509 14.2349L7.93382 13.9383L7.81255 13.6417L7.33835 13.6288C6.89667 13.6169 6.85758 13.6098 6.76834 13.5259L6.67249 13.4358L6.67367 12.3556C6.67457 11.5281 6.68616 11.2604 6.72313 11.2117C6.80561 11.1032 6.95939 11.0709 7.39468 11.0709H7.81485L7.93471 10.7705L8.0546 10.4701L7.7165 10.1253C7.69223 10.1006 7.66912 10.0772 7.64722 10.0551C7.48862 9.89503 7.39383 9.79934 7.38373 9.69542C7.36872 9.54103 7.5406 9.36848 7.96783 8.93958C8.00754 8.89972 8.04945 8.85765 8.09362 8.81317C8.487 8.41704 8.85467 8.0688 8.91066 8.03926C9.07213 7.95418 9.18824 8.01154 9.53882 8.34949L9.86391 8.66289L10.1538 8.55105L10.4436 8.43922L10.4527 8.01816ZM12.3632 8.35492C12.3776 8.86898 12.401 8.91386 12.7051 9.01105C12.8099 9.0446 13.0592 9.1473 13.2591 9.23929C13.5306 9.36424 13.6474 9.40024 13.7213 9.3817C13.7757 9.36806 13.9556 9.22469 14.1211 9.0631L14.4221 8.76933L14.8648 9.21313L15.3074 9.65693L15.0026 9.96928C14.6433 10.3373 14.6326 10.3851 14.8225 10.7653C14.8911 10.9028 14.9844 11.1278 15.0297 11.2654C15.1651 11.6768 15.1714 11.6808 15.7067 11.7025L16.1653 11.7211L16.1754 12.3395L16.1856 12.9579L15.7397 12.9711C15.3213 12.9835 15.2883 12.9901 15.2044 13.0772C15.1551 13.1283 15.0771 13.2871 15.0311 13.4302C14.985 13.5732 14.8911 13.8027 14.8225 13.9401C14.6343 14.3169 14.6443 14.3609 15.0018 14.7333L15.3059 15.0501L14.864 15.4932L14.422 15.9362L14.1002 15.6214C13.8601 15.3864 13.7534 15.3065 13.6799 15.3065C13.6258 15.3065 13.4522 15.371 13.2943 15.4498C13.1364 15.5287 12.8945 15.6303 12.7568 15.6757C12.3877 15.7972 12.357 15.8506 12.357 16.3704V16.7926H11.7254H11.0938V16.3857C11.0938 16.1618 11.0749 15.9373 11.0518 15.8866C11.0126 15.8005 10.8108 15.6895 10.5736 15.6235C10.5225 15.6093 10.3358 15.53 10.1586 15.4473C9.91333 15.3328 9.81186 15.3031 9.7335 15.3228C9.67692 15.337 9.49517 15.4808 9.32965 15.6424L9.02866 15.9361L8.58602 15.4923L8.14336 15.0485L8.44821 14.7362C8.81135 14.3642 8.82562 14.298 8.62829 13.903C8.55963 13.7655 8.46712 13.5444 8.42272 13.4116C8.28529 13.0006 8.22666 12.9658 7.67322 12.9658H7.3041V12.3342V11.7025H7.74348C8.26809 11.7025 8.27649 11.6969 8.43573 11.2381C8.49246 11.0746 8.58705 10.8452 8.64598 10.7283C8.81893 10.3851 8.80296 10.3238 8.44728 9.96628L8.14147 9.65887L8.58505 9.2141L9.02866 8.76933L9.32965 9.0631C9.49517 9.22469 9.6751 9.36806 9.72949 9.3817C9.80336 9.40024 9.9202 9.36424 10.1917 9.23929C10.3915 9.1473 10.6426 9.04401 10.7496 9.00975C11.0563 8.91163 11.0938 8.83821 11.0938 8.33512V7.91286H11.7223H12.3508L12.3632 8.35492Z" fill="#7A7A7A"/>
<path fill-rule="evenodd" clip-rule="evenodd" d="M4.59845 3.48464C4.0677 3.56233 3.6459 3.98068 3.54432 4.53022C3.51928 4.66572 3.50984 6.92905 3.51645 11.2155L3.52645 17.6958L3.63063 17.9188C3.80187 18.2852 4.0644 18.5126 4.4431 18.6227C4.6233 18.6751 5.38845 18.6801 11.8504 18.6715L19.0567 18.6618L19.2611 18.5647C19.6208 18.3939 19.8854 18.0605 19.9656 17.6773C19.9971 17.5265 20.0053 15.7628 19.9969 10.9516L19.9856 4.43039L19.8632 4.18194C19.6682 3.78562 19.3348 3.54821 18.8817 3.48267C18.6007 3.44202 4.8765 3.44392 4.59845 3.48464ZM19.1075 4.22392C19.1763 4.273 19.2637 4.38168 19.3017 4.46542C19.3683 4.61203 19.3709 4.8581 19.3717 11.0744C19.3724 16.4146 19.3638 17.5518 19.3223 17.6512C19.2556 17.8109 19.032 18.0027 18.881 18.0297C18.8142 18.0417 15.5648 18.0467 11.6602 18.0409L4.56096 18.0302L4.42449 17.9261C4.34944 17.8689 4.25879 17.7685 4.22304 17.7032C4.16189 17.5913 4.15806 17.2032 4.15806 11.0825V4.58056L4.24571 4.42768C4.2939 4.34356 4.39421 4.23938 4.46863 4.19613L4.60391 4.11752L11.7932 4.12614L18.9824 4.13472L19.1075 4.22392Z" fill="#7A7A7A"/>
</svg>
