<svg width="20" height="20" viewBox="0 0 20 20" fill="none" xmlns="http://www.w3.org/2000/svg">
<path d="M19.7238 18.3725L16.1905 14.8678C17.562 13.1577 18.2262 10.9871 18.0465 8.80236C17.8668 6.6176 16.8568 4.58472 15.2243 3.12173C13.5918 1.65874 11.4608 0.876842 9.26947 0.936804C7.07815 0.996766 4.99309 1.89403 3.44301 3.44411C1.89294 4.99419 0.995668 7.07925 0.935706 9.27057C0.875743 11.4619 1.65764 13.5929 3.12063 15.2254C4.58362 16.8579 6.6165 17.8679 8.80126 18.0476C10.986 18.2273 13.1566 17.5631 14.8667 16.1916L18.3715 19.6964C18.46 19.7856 18.5653 19.8565 18.6814 19.9048C18.7974 19.9532 18.9219 19.9781 19.0476 19.9781C19.1734 19.9781 19.2978 19.9532 19.4139 19.9048C19.53 19.8565 19.6353 19.7856 19.7238 19.6964C19.8955 19.5188 19.9914 19.2814 19.9914 19.0345C19.9914 18.7875 19.8955 18.5501 19.7238 18.3725V18.3725ZM9.52383 16.1916C8.20529 16.1916 6.91636 15.8006 5.82003 15.0681C4.7237 14.3355 3.86922 13.2943 3.36463 12.0762C2.86005 10.858 2.72803 9.51753 2.98526 8.22433C3.2425 6.93112 3.87743 5.74323 4.80978 4.81088C5.74213 3.87853 6.93002 3.24359 8.22323 2.98636C9.51643 2.72912 10.8569 2.86115 12.0751 3.36573C13.2932 3.87031 14.3344 4.7248 15.067 5.82113C15.7995 6.91745 16.1905 8.20639 16.1905 9.52493C16.1905 11.293 15.4881 12.9887 14.2379 14.239C12.9876 15.4892 11.2919 16.1916 9.52383 16.1916V16.1916Z" fill="#7A7A7A"/>
</svg>
