<svg width="113" height="86" viewBox="0 0 113 86" fill="none" xmlns="http://www.w3.org/2000/svg">
<path d="M106.809 45.4961V39.9967H104.715C104.463 39.0381 104.084 38.13 103.605 37.2975L105.068 35.8091L101.183 31.9242L99.6947 33.3874C98.8623 32.9081 97.9541 32.5044 96.9955 32.2774V30.1836H91.4961V32.2774C90.5375 32.5297 89.6293 32.9081 88.7968 33.3874L87.3085 31.9242L83.4488 35.8091L84.912 37.2975C84.4326 38.13 84.0542 39.0381 83.802 39.9967H81.7334V45.4961H83.8272C84.0795 46.4548 84.4579 47.3629 84.9372 48.1954L83.474 49.6838L87.3589 53.5687L88.8473 52.1055C89.6798 52.5848 90.5879 52.9632 91.5465 53.2155V55.3093H97.046V53.2155C98.0046 52.9632 98.9127 52.5848 99.7452 52.1055L101.234 53.5687L105.118 49.6838L103.655 48.1954C104.135 47.3629 104.538 46.4548 104.765 45.4961H106.809ZM94.271 47.5143C91.6475 47.5143 89.5032 45.37 89.5032 42.7464C89.5032 40.1229 91.6475 37.9786 94.271 37.9786C96.8946 37.9786 99.0389 40.1229 99.0389 42.7464C99.0389 45.37 96.8946 47.5143 94.271 47.5143Z" fill="#A2C7EB"/>
<path d="M90.2096 59.2694L89.1753 56.5449L88.141 56.9486C87.8383 56.5197 87.4599 56.1413 87.0815 55.8134L87.5356 54.8043L84.8616 53.6186L84.4075 54.6277C83.903 54.552 83.3732 54.5268 82.8434 54.5773L82.4398 53.543L79.7153 54.5773L80.119 55.6116C79.6901 55.9143 79.3117 56.2927 78.9838 56.6711L77.9747 56.217L76.7891 58.891L77.7981 59.3451C77.7224 59.8496 77.6972 60.3794 77.7477 60.9091L76.7134 61.3128L77.7477 64.0372L78.782 63.6336C79.0847 64.0625 79.4631 64.4409 79.8415 64.7688L79.3874 65.7779L82.0614 66.9635L82.5155 65.9545C83.02 66.0301 83.5498 66.0554 84.0795 66.0049L84.4832 67.0392L87.2077 66.0049L86.804 64.9706C87.2329 64.6679 87.6113 64.2895 87.9392 63.9111L88.9483 64.3652L90.1339 61.6912L89.1249 61.2371C89.2005 60.7326 89.2258 60.2028 89.1753 59.673L90.2096 59.2694ZM84.3823 62.6498C83.0705 63.1543 81.6073 62.4984 81.1028 61.1866C80.5983 59.8748 81.2542 58.4117 82.5659 57.9072C83.8777 57.4026 85.3409 58.0585 85.8202 59.3703C86.3247 60.6821 85.6688 62.1452 84.3823 62.6498Z" stroke="#A2C7EB" stroke-miterlimit="10"/>
<path d="M81.2793 49.7112L80.5729 47.8697L79.8666 48.1472C79.6647 47.8697 79.4125 47.5922 79.135 47.3904L79.4377 46.7093L77.6466 45.902L77.3439 46.5831C76.9907 46.5327 76.6376 46.5075 76.2844 46.5579L76.0069 45.8516L74.1653 46.5579L74.4428 47.2643C74.1653 47.4661 73.8879 47.7183 73.686 47.9958L73.0049 47.6931L72.1977 49.4842L72.8788 49.7869C72.8283 50.1401 72.8031 50.4933 72.8536 50.8464L72.1472 51.1239L72.8536 52.9655L73.5599 52.688C73.7617 52.9655 74.014 53.243 74.2915 53.4448L73.9888 54.1259L75.7798 54.9331L76.0826 54.252C76.4357 54.3025 76.7889 54.3277 77.1421 54.2772L77.4196 54.9836L79.2611 54.2772L78.9836 53.5709C79.2611 53.3691 79.5386 53.1168 79.7404 52.8393L80.4215 53.1421L81.2288 51.351L80.5477 51.0482C80.5981 50.6951 80.6234 50.3419 80.5729 49.9887L81.2793 49.7112ZM77.3439 51.9816C76.461 52.3096 75.4771 51.8807 75.124 50.9978C74.796 50.1149 75.2249 49.131 76.1078 48.7778C76.9907 48.4499 77.9746 48.8788 78.3025 49.7617C78.6557 50.6698 78.2016 51.6537 77.3439 51.9816Z" stroke="#A2C7EB" stroke-miterlimit="10"/>
<path d="M80.6491 15.4436C80.6491 18.1933 79.3626 20.6655 77.3444 22.2548C75.8561 23.4404 73.9893 24.1215 71.9712 24.1215C69.9278 24.1215 68.061 23.4152 66.5979 22.2548C64.5798 20.6655 63.2932 18.1933 63.2932 15.4436C63.2932 10.6505 67.1781 6.76563 71.9712 6.76563C76.739 6.76562 80.6491 10.6505 80.6491 15.4436Z" fill="#0097D8" stroke="#0097D8" stroke-miterlimit="10"/>
<path d="M71.9456 15.4434C73.5199 15.4434 74.7962 14.1671 74.7962 12.5928C74.7962 11.0184 73.5199 9.74219 71.9456 9.74219C70.3712 9.74219 69.095 11.0184 69.095 12.5928C69.095 14.1671 70.3712 15.4434 71.9456 15.4434Z" fill="white"/>
<path d="M77.3442 21.1681C75.8558 22.3538 73.9891 23.0349 71.9709 23.0349C69.9276 23.0349 68.0608 22.3286 66.5977 21.1681C67.1526 18.7212 67.6572 16.6021 68.1869 16.0724C68.9437 15.3156 70.9366 14.8867 71.9709 14.8867C73.0052 14.8867 75.099 15.4165 75.4774 15.7949C76.2595 16.6021 76.9406 18.7716 77.3442 21.1681Z" fill="white"/>
<path d="M59.4841 38.8607V34.5722C59.4841 33.4117 60.4427 32.4531 61.6032 32.4531H75.1246C76.285 32.4531 77.2437 33.4117 77.2437 34.5722V38.8607C77.2437 40.0211 76.285 40.9797 75.1246 40.9797H61.6284C60.4175 40.9797 59.4841 40.0211 59.4841 38.8607Z" fill="#0097D8"/>
<path d="M65.1853 38.6328L58.6516 45.0151L69.2468 39.6419" fill="#0097D8"/>
<path d="M61.1238 34.4725C61.1238 34.2707 61.2751 34.1445 61.4517 34.1445H68.1115C68.2881 34.1445 68.4395 34.2959 68.4395 34.4725V34.4977C68.4395 34.6743 68.2881 34.8257 68.1115 34.8257H61.4265C61.2499 34.7752 61.1238 34.6491 61.1238 34.4725Z" fill="white"/>
<path d="M68.717 34.4725C68.717 34.2707 68.8684 34.1445 69.045 34.1445H74.8723C75.0489 34.1445 75.2003 34.2959 75.2003 34.4725V34.4977C75.2003 34.6743 75.0489 34.8257 74.8723 34.8257H69.045C68.8684 34.7752 68.717 34.6491 68.717 34.4725Z" fill="white"/>
<path d="M66.1692 35.91C66.1692 35.7082 66.3206 35.582 66.4971 35.582H74.8724C75.049 35.582 75.2003 35.7334 75.2003 35.91V35.9352C75.2003 36.1118 75.049 36.2631 74.8724 36.2631H66.4971C66.3206 36.2127 66.1692 36.0866 66.1692 35.91Z" fill="white"/>
<path d="M61.1238 35.91C61.1238 35.7082 61.2751 35.582 61.4517 35.582H65.1853C65.3618 35.582 65.5132 35.7334 65.5132 35.91V35.9352C65.5132 36.1118 65.3618 36.2631 65.1853 36.2631H61.4517C61.2499 36.2127 61.1238 36.0866 61.1238 35.91Z" fill="white"/>
<path d="M67.3296 37.3475C67.3296 37.1457 67.481 37.0195 67.6575 37.0195H74.8723C75.0489 37.0195 75.2003 37.1709 75.2003 37.3475V37.3727C75.2003 37.5493 75.0489 37.7006 74.8723 37.7006H67.6575C67.481 37.6502 67.3296 37.4988 67.3296 37.3475Z" fill="white"/>
<path d="M61.1238 37.3475C61.1238 37.1457 61.2751 37.0195 61.4517 37.0195H66.4466C66.6232 37.0195 66.7745 37.1709 66.7745 37.3475V37.3727C66.7745 37.5493 66.6232 37.7006 66.4466 37.7006H61.4517C61.2499 37.6502 61.1238 37.4988 61.1238 37.3475Z" fill="white"/>
<path d="M61.1238 38.7615C61.1238 38.5597 61.2751 38.4336 61.4517 38.4336H63.2933C63.4699 38.4336 63.6212 38.585 63.6212 38.7615V38.7868C63.6212 38.9634 63.4699 39.1147 63.2933 39.1147H61.4517C61.2499 39.0895 61.1238 38.9381 61.1238 38.7615Z" fill="white"/>
<path d="M64.252 38.7615C64.252 38.5597 64.4033 38.4336 64.5799 38.4336H74.8976C75.0742 38.4336 75.2255 38.585 75.2255 38.7615V38.7868C75.2255 38.9634 75.0742 39.1147 74.8976 39.1147H64.5799C64.3781 39.0895 64.252 38.9381 64.252 38.7615Z" fill="white"/>
<path d="M18.5404 37.6219C23.152 37.6219 26.8904 33.8835 26.8904 29.2719C26.8904 24.6603 23.152 20.9219 18.5404 20.9219C13.9289 20.9219 10.1904 24.6603 10.1904 29.2719C10.1904 33.8835 13.9289 37.6219 18.5404 37.6219Z" fill="#0097D8"/>
<path d="M16.5733 35.38C17.6879 35.38 18.5914 34.4765 18.5914 33.3619C18.5914 32.2473 17.6879 31.3438 16.5733 31.3438C15.4587 31.3438 14.5552 32.2473 14.5552 33.3619C14.5552 34.4765 15.4587 35.38 16.5733 35.38Z" fill="white"/>
<path d="M15.5137 34.0923L15.4128 32.8058L16.4724 32.0742L17.6328 32.6292L17.7337 33.9158L16.6742 34.6473L15.5137 34.0923Z" fill="#0097D8"/>
<path d="M20.5086 27.1808C21.6232 27.1808 22.5267 26.2772 22.5267 25.1627C22.5267 24.0481 21.6232 23.1445 20.5086 23.1445C19.394 23.1445 18.4905 24.0481 18.4905 25.1627C18.4905 26.2772 19.394 27.1808 20.5086 27.1808Z" fill="white"/>
<path d="M19.4995 25.7696L19.5752 24.1298L20.8113 23.0703L21.9717 23.6253L21.896 25.2398L20.6599 26.3245L19.4995 25.7696Z" fill="#0097D8"/>
<path d="M17.9858 32.4289L16.447 31.6973L17.5822 29.0485C17.6579 28.8719 17.7336 28.7206 17.8093 28.544L19.1463 25.9961L20.6851 26.7277L19.5751 29.326C19.4994 29.5278 19.3985 29.7296 19.2976 29.9062L17.9858 32.4289Z" fill="white"/>
<path d="M24.3428 33.763C24.6455 33.6369 29.4385 33.8387 29.4385 33.8387L25.9825 30.6602L24.3428 33.763Z" fill="#0097D8"/>
<path d="M37.9658 20.0923C42.5077 20.0923 46.1897 16.4103 46.1897 11.8684C46.1897 7.32649 42.5077 3.64453 37.9658 3.64453C33.4239 3.64453 29.7419 7.32649 29.7419 11.8684C29.7419 16.4103 33.4239 20.0923 37.9658 20.0923Z" fill="#0097D8"/>
<path d="M38.2432 4.88281H37.6882V11.7697H38.2432V4.88281Z" fill="white"/>
<path d="M31.9144 15.7468L32.2302 16.2031L37.9756 12.2264L37.6597 11.7701L31.9144 15.7468Z" fill="white"/>
<path d="M37.9658 12.6269C38.3838 12.6269 38.7226 12.288 38.7226 11.8701C38.7226 11.4521 38.3838 11.1133 37.9658 11.1133C37.5478 11.1133 37.209 11.4521 37.209 11.8701C37.209 12.288 37.5478 12.6269 37.9658 12.6269Z" fill="white"/>
<path d="M60.2662 67.5007C59.7869 59.9831 63.0664 52.2133 68.591 47.7734C68.7676 55.3162 65.5133 62.9599 60.2662 67.5007Z" fill="#A2C7EB"/>
<path d="M67.6829 49.793C65.362 54.1319 63.3439 58.6727 61.6537 63.3649C59.6103 69.0661 58.0211 75.1205 54.5398 79.8883" stroke="#6F8BBF" stroke-miterlimit="10" stroke-linecap="round"/>
<path d="M58.5256 72.2186C61.3258 65.9624 66.8756 61.2198 73.0057 59.8828C70.3821 66.5931 64.5296 71.7141 58.5256 72.2186Z" fill="#A2C7EB"/>
<path d="M71.492 61.2461C67.3043 64.9292 63.041 68.5114 58.7273 71.9926" stroke="#6F8BBF" stroke-miterlimit="10" stroke-linecap="round"/>
<path d="M56.8606 77.6666C60.5941 72.0915 67.5062 69.1652 73.2074 70.7545C69.0198 76.2791 62.1077 79.2054 56.8606 77.6666Z" fill="#A2C7EB"/>
<path d="M71.8451 71.1562C66.9511 74.2339 61.6535 76.4791 56.2046 77.8413" stroke="#6F8BBF" stroke-miterlimit="10" stroke-linecap="round"/>
<path d="M58.8786 70.3033C60.0643 64.0219 58.2732 57.0089 54.2874 52.3672C52.6476 58.5477 54.2117 65.7877 58.8786 70.3033Z" fill="#A2C7EB"/>
<path d="M54.7163 53.9805C55.4983 59.833 56.911 65.3072 59.0805 70.6805" stroke="#6F8BBF" stroke-miterlimit="10" stroke-linecap="round"/>
<path d="M56.8354 75.674C56.3309 69.216 53.001 63.1364 48.1575 59.7812C48.435 63.2121 49.3431 66.5168 50.781 69.5187C52.446 72.9495 54.893 75.1443 56.8354 75.674Z" fill="#A2C7EB"/>
<path d="M48.8889 61.0938C50.8061 66.4922 53.5306 71.4871 56.9614 75.8261" stroke="#6F8BBF" stroke-miterlimit="10" stroke-linecap="round"/>
<path d="M94.2717 74.1031C96.9205 67.2163 103 61.6412 109.71 59.9258C106.784 66.737 100.78 72.2111 94.2717 74.1031Z" fill="#A2C7EB"/>
<path d="M108.096 61.3633C104.261 64.2896 100.604 67.5186 97.198 70.9998C93.0608 75.2379 89.1759 79.9805 84.1306 82.8059" stroke="#6F8BBF" stroke-miterlimit="10" stroke-linecap="round"/>
<path d="M90.7905 77.6103C95.8358 73.1704 102.697 71.2279 108.651 72.5397C103.606 77.4337 96.3152 79.6032 90.7905 77.6103Z" fill="#A2C7EB"/>
<path d="M106.759 73.1445C101.562 74.7086 96.3153 76.1717 91.0681 77.5087" stroke="#6F8BBF" stroke-miterlimit="10" stroke-linecap="round"/>
<path d="M87.1072 81.7997C92.7075 78.3436 99.998 78.5707 104.387 82.3294C98.4087 85.508 91.093 85.3062 87.1072 81.7997Z" fill="#A2C7EB"/>
<path d="M103 82.1007C97.3996 82.8323 91.7993 82.6809 86.426 81.6719" stroke="#6F8BBF" stroke-miterlimit="10" stroke-linecap="round"/>
<path d="M91.9003 76.0714C95.5329 70.9504 96.8195 63.9626 95.205 58.2109C91.2192 63.0544 89.6299 70.1431 91.9003 76.0714Z" fill="#A2C7EB"/>
<path d="M94.9023 59.8008C93.1869 65.3254 92.1778 70.7996 91.9255 76.4503" stroke="#6F8BBF" stroke-miterlimit="10" stroke-linecap="round"/>
<path d="M87.8893 80.006C90.084 74.0273 89.6552 67.2665 86.7289 62.2969C85.5685 65.4754 85.0135 68.7801 85.0639 72.0343C85.1396 75.7931 86.401 78.7446 87.8893 80.006Z" fill="#A2C7EB"/>
<path d="M86.8298 63.7617C86.3001 69.3368 86.6785 74.9119 87.9398 80.159" stroke="#6F8BBF" stroke-miterlimit="10" stroke-linecap="round"/>
<path d="M19.2731 62.0744C16.5739 53.8253 9.05637 47.1654 0.302734 45.2734C3.96059 52.4126 10.6456 58.0886 19.2731 62.0744Z" fill="#A2C7EB"/>
<path d="M19.7272 63.3602C13.8242 60.0051 6.40756 59.2735 0 61.3926C5.95348 64.3693 13.0169 65.2018 19.7272 63.3602Z" fill="#A2C7EB"/>
<path d="M21.3668 65.1515C14.9845 64.2686 8.29947 65.8326 3.10278 69.44C8.98058 71.5843 16.044 70.1968 21.3668 65.1515Z" fill="#A2C7EB"/>
<path d="M23.3598 69.0627C17.0279 69.0374 10.8222 72.0394 7.08862 76.9334C9.914 77.4883 12.8907 77.1604 15.4639 76C18.0622 74.8143 20.2317 72.8214 23.3598 69.0627Z" fill="#A2C7EB"/>
<path d="M27.825 75.5955C21.594 74.536 14.9342 76.4532 10.4438 80.6409C13.1179 81.6499 16.1451 81.8265 18.8695 81.0949C21.6192 80.3886 24.0914 78.7741 27.825 75.5955Z" fill="#A2C7EB"/>
<path d="M21.0896 62.4774C16.9776 56.9275 15.8424 49.4352 18.1885 43.0781C19.9796 46.1053 21.5184 49.3091 22.2248 52.7147C22.9563 56.0951 22.805 59.7277 21.0896 62.4774Z" fill="#A2C7EB"/>
<path d="M23.6122 67.8249C22.6284 61.9218 24.6465 55.6656 28.9098 51.4023C29.3891 57.5072 27.5223 63.7129 23.6122 67.8249Z" fill="#A2C7EB"/>
<path d="M2.21997 46.7344C14.7576 54.7564 24.5455 66.7138 29.7422 80.2858" stroke="#6F8BBF" stroke-miterlimit="10" stroke-linecap="round"/>
<path d="M18.5667 46.0039C20.0802 52.1844 21.0136 58.5163 21.3416 64.8482" stroke="#6F8BBF" stroke-miterlimit="10" stroke-linecap="round"/>
<path d="M27.9511 53.7969C27.4466 58.7917 25.9078 63.6605 23.4355 68.0751" stroke="#6F8BBF" stroke-miterlimit="10" stroke-linecap="round"/>
<path d="M2.64868 61.543C8.40035 62.6277 14.2277 63.2332 20.0803 63.3088" stroke="#6F8BBF" stroke-miterlimit="10" stroke-linecap="round"/>
<path d="M6.10474 68.9598C11.4023 68.5814 16.6242 67.2948 21.4425 65.1758" stroke="#6F8BBF" stroke-miterlimit="10" stroke-linecap="round"/>
<path d="M9.2832 76.0227C14.1772 73.5758 19.0711 71.154 23.9399 68.707" stroke="#6F8BBF" stroke-miterlimit="10" stroke-linecap="round"/>
<path d="M12.4619 80.3363C18.8442 79.1002 20.7362 77.6371 27.8249 75.5938" stroke="#6F8BBF" stroke-miterlimit="10" stroke-linecap="round"/>
<path d="M52.8744 68.6367C52.8744 68.6367 53.4294 73.7073 54.0348 74.1109C55.1448 74.8425 67.9347 76.5326 67.9347 76.5326L67.5058 79.8626C67.5058 79.8626 49.9986 81.4266 49.2418 80.5689C47.9552 79.0553 45.6848 71.7144 45.6848 71.7144L52.8744 68.6367Z" fill="#E06A58"/>
<path d="M44.4236 55.6204L45.8363 52.2148C45.8363 52.2148 49.6707 54.0059 50.932 56.2511C52.2943 58.6224 53.934 71.2862 53.934 71.2862C53.934 71.2862 47.1481 72.8502 45.912 72.1943C44.6758 71.5384 44.4236 55.6204 44.4236 55.6204Z" fill="#F2AE30"/>
<path d="M33.6519 39.8234C32.6681 39.4703 31.6085 39.1423 30.549 39.218C29.4895 39.2937 28.4048 39.8739 28.0516 40.8073C27.7993 41.4632 27.9002 42.2452 27.4966 42.8506C27.1182 43.4309 26.3362 43.6579 25.6046 43.7083C24.873 43.7588 24.1415 43.6579 23.4351 43.7588C21.2152 44.0615 19.6259 46.458 20.3575 48.4509C20.6602 49.233 21.2404 49.9898 21.1143 50.797C20.9629 51.68 20.0548 52.2602 19.6764 53.0674C19.1718 54.1522 19.7773 55.4639 20.7611 56.1955C21.7449 56.9271 23.0315 57.2046 24.2928 57.4064C26.0082 57.6587 27.7993 57.7848 29.4895 57.4316C31.1797 57.0784 32.8194 56.1703 33.7024 54.7576C34.106 54.1269 34.333 53.4458 34.7871 52.8404C35.7205 51.6295 37.3854 51.1754 38.6972 50.3177C40.1351 49.3843 41.1694 47.568 40.3369 46.1301C39.5297 44.7679 37.4107 44.4651 36.553 43.1029C36.1998 42.5479 36.1241 41.892 35.8971 41.2614C35.67 40.6812 35.115 40.3784 33.6519 39.8234Z" fill="#0A2240"/>
<path d="M39.4288 56.6522C39.6811 56.9297 39.9838 57.2577 40.3874 57.2829C40.8163 57.3081 41.1695 57.0054 41.4469 56.7027C42.8849 55.1891 43.8182 53.3223 44.1966 51.4051C43.8435 51.2033 43.4903 51.0015 43.1876 50.8249C42.9101 50.6483 42.683 50.4213 42.5569 50.1438C42.4812 49.942 42.4308 49.7149 42.456 49.4879C42.6578 47.5959 42.8344 46.5364 43.4903 44.6192C40.337 43.9128 37.335 43.0551 35.6196 41.6172C35.4178 42.5001 35.1655 44.2408 34.6358 45.9309C34.0808 47.7473 33.1978 49.5383 31.7095 50.3204C34.661 52.0358 37.2593 54.18 39.4288 56.6522Z" fill="#F9A07B"/>
<path d="M42.4813 49.4879C42.4561 49.7149 42.4813 49.942 42.5822 50.1438C40.7154 52.4142 36.5278 49.4374 34.6863 45.9309C35.216 44.2155 35.4683 42.5001 35.6701 41.6172C37.3855 43.0551 40.3623 43.9128 43.5408 44.6192C42.8597 46.5364 42.6831 47.5959 42.4813 49.4879Z" fill="#E06A58"/>
<path d="M47.678 76.9342C47.2744 79.6839 50.2259 82.6354 50.3016 84.0985C44.0202 84.0985 30.8771 84.4769 24.1668 83.5688C23.8641 81.8786 27.1688 78.0694 27.1688 74.3358C27.1688 73.8313 27.1436 73.3015 27.1183 72.6961C27.0174 71.0312 26.7652 69.0382 26.4877 66.9949C25.7309 61.5207 24.747 55.6429 25.4786 54.432C26.9165 52.0607 30.2717 50.4462 31.9366 49.7651C32.5168 49.5381 32.8952 49.3867 32.9204 49.3867C35.0143 52.9437 39.2776 55.9961 40.8668 55.87C41.3209 55.8447 42.6327 55.3654 43.5156 50.976C43.8688 51.1778 44.1967 51.3544 44.5247 51.531C46.1896 52.3887 47.7537 53.1203 48.1825 54.2302C49.3682 57.1565 50.5286 64.5479 50.2764 67.1715C50.0241 69.8203 48.9393 71.8384 48.2078 74.5124C48.0312 75.1431 47.8798 75.799 47.7537 76.5053C47.7285 76.6062 47.7032 76.7576 47.678 76.9342Z" fill="#FFC73C"/>
<path d="M50.3016 84.0716C44.0202 84.0716 30.8771 84.45 24.1668 83.5418C23.8641 81.8516 27.1688 78.0424 27.1688 74.3089C27.1688 73.8043 27.1436 73.2746 27.1183 72.6691C27.0174 71.0042 26.7652 69.0113 26.4877 66.9679C27.6733 68.2293 29.4139 62.9317 30.1707 64.4705C34.3331 72.8457 37.5874 75.0404 43.2886 75.0404C44.9788 75.0404 46.5428 74.8134 48.233 74.435C48.0564 75.0657 47.9051 75.7216 47.7789 76.4279C47.7537 76.5793 47.7285 76.7558 47.7032 76.9324C47.2744 79.6569 50.2259 82.6084 50.3016 84.0716Z" fill="#FFBB33"/>
<path d="M44.5498 51.4784C44.2723 53.4461 43.4903 56.0697 41.1442 56.776C37.9909 57.7094 33.4501 51.8568 31.9365 49.7378C32.5167 49.5107 32.8951 49.3594 32.9204 49.3594C35.0142 52.9163 39.2775 55.9687 40.8667 55.8426C41.3208 55.8174 42.6326 55.3381 43.5155 50.9487C43.8687 51.1252 44.1967 51.3018 44.5498 51.4784Z" fill="#FCE172"/>
<path d="M45.8367 81.146L45.8115 83.3155L84.9128 83.5425L84.9884 81.0703L45.8367 81.146Z" fill="#325F73"/>
<path d="M101.865 61.622L100.982 60.7391L72.5012 60.5625L58.2229 81.2231L58.9545 81.8285L101.865 61.622Z" fill="#325F73"/>
<path d="M73.056 61.3203L58.9543 81.8295L85.8711 81.9557L101.865 61.623L73.056 61.3203Z" fill="#0B2D50"/>
<path d="M79.8671 74.4093C81.5947 74.4093 82.9952 73.7091 82.9952 72.8453C82.9952 71.9815 81.5947 71.2812 79.8671 71.2812C78.1395 71.2812 76.739 71.9815 76.739 72.8453C76.739 73.7091 78.1395 74.4093 79.8671 74.4093Z" fill="#3C738C"/>
<path d="M50.0656 37.2912C48.4904 36.9976 46.8535 38.6917 46.4094 41.0749C45.9653 43.4582 46.8822 45.6281 48.4573 45.9217C50.0324 46.2152 51.6694 44.5211 52.1135 42.1379C52.5576 39.7546 51.6407 37.5847 50.0656 37.2912Z" fill="#56C4F9"/>
<path d="M52.0925 34.6542C51.7897 36.7228 50.8816 39.0184 49.5193 41.5411C49.04 39.4725 48.7373 36.9499 48.3337 34.4272C47.9048 31.9045 47.3751 29.3819 46.4165 27.3133C46.2147 26.8592 45.9624 26.4304 45.7354 26.0267C46.2903 25.9763 46.8453 26.0267 47.4003 26.1781C48.2328 26.4051 49.0148 26.834 49.6707 27.4142C50.7302 28.3728 51.4618 29.6594 51.8906 31.0216C52.2186 32.1568 52.2943 33.3677 52.0925 34.6542Z" fill="#0B2D50"/>
<path d="M50.5285 36.7992C50.5033 37.2028 50.478 37.6317 50.4528 38.0353C49.8726 44.7456 47.0724 49.3368 42.7587 49.3368C36.6791 49.3368 32.7185 42.5004 32.7185 35.8153C32.7185 29.206 36.7548 24.4381 41.4974 24.9931C44.2218 25.2958 46.2147 26.204 47.6274 27.541C48.5608 28.4239 49.2419 29.4835 49.696 30.6943C50.2258 32.0566 50.478 33.5954 50.5285 35.2604C50.5285 35.2604 50.5285 35.2604 50.5285 35.2856C50.5285 35.7901 50.5285 36.2946 50.5285 36.7992Z" fill="#F9A07B"/>
<path d="M50.5283 36.7995C50.3517 36.1436 50.0742 35.513 49.6958 34.958C46.1136 36.8248 41.8251 37.5563 37.7636 36.8752C36.9816 37.5311 36.2248 38.1618 35.468 38.7924C35.4932 35.74 35.5185 33.6714 36.7041 32.1831C37.8141 30.7956 39.6809 30.2658 41.4467 30.0388C43.4396 29.7865 45.4578 29.7865 47.4507 30.0892C48.2075 30.1902 48.9895 30.3667 49.6706 30.7451C50.2004 32.1074 50.4526 33.6462 50.5031 35.3112C50.5031 35.3112 50.5031 35.3112 50.5031 35.3364C50.5283 35.7905 50.5283 36.295 50.5283 36.7995Z" fill="#E06A58"/>
<path d="M51.3861 32.6851C50.5536 33.3915 49.4941 33.9717 48.3337 34.451C44.9785 35.8132 40.6395 36.2421 37.2592 36.0907C35.5942 39.7486 34.9131 41.0603 34.4843 44.2641C32.8697 42.7253 31.5327 39.9504 31.1291 37.7557C30.7507 35.5609 30.7759 33.2653 31.3814 31.1211C32.34 27.7407 34.7617 25.8992 36.4519 25.0162C36.8808 24.7892 37.2592 24.6378 37.5367 24.5117C39.6809 23.6792 42.1027 23.7549 44.2974 24.436C45.5083 24.8144 46.5173 25.4451 47.3498 26.2271C49.0652 27.7911 50.1247 29.885 50.8059 31.449C51.0834 31.8779 51.2599 32.3319 51.3861 32.6851Z" fill="#0B2D50"/>
<path d="M52.0924 34.6542C51.941 33.9227 51.7392 33.2163 51.4617 32.51C51.2852 32.1316 51.1086 31.7532 50.8563 31.3748C50.0995 30.1639 48.9895 29.1801 47.6273 28.7512C47.2489 28.2215 46.8453 27.7169 46.4164 27.2881C44.8776 25.724 43.0865 24.8411 41.1945 24.5384C39.6052 24.2861 37.9655 24.4375 36.4519 24.942C36.8808 24.715 37.2592 24.5636 37.5366 24.4375C39.6809 23.605 42.1027 23.6807 44.2974 24.3618C45.5083 24.7402 46.5173 25.3709 47.3498 26.1529C48.1823 26.3799 48.9643 26.8088 49.6202 27.389C50.6797 28.3476 51.4113 29.6342 51.8401 30.9964C52.2185 32.1568 52.2942 33.3677 52.0924 34.6542Z" fill="#225570"/>
<path d="M39.2019 38.7923C40.3371 38.1364 41.4975 37.8589 43.1373 38.4644" stroke="#0B2D50" stroke-width="2" stroke-miterlimit="10" stroke-linecap="round"/>
<path d="M46.896 38.7435C47.8546 38.012 49.2925 37.9615 50.0241 38.7435" stroke="#0B2D50" stroke-width="2" stroke-miterlimit="10" stroke-linecap="round"/>
<path d="M45.7355 42.3984C45.8364 42.903 45.786 44.0382 45.5337 44.5427" stroke="#EF7980" stroke-width="2" stroke-miterlimit="10" stroke-linecap="round"/>
<path d="M41.9265 42.7522C42.1773 42.7522 42.3806 42.4247 42.3806 42.0206C42.3806 41.6166 42.1773 41.2891 41.9265 41.2891C41.6757 41.2891 41.4724 41.6166 41.4724 42.0206C41.4724 42.4247 41.6757 42.7522 41.9265 42.7522Z" fill="#262D40"/>
<path d="M48.0061 42.4006C48.2569 42.4006 48.4602 42.0731 48.4602 41.6691C48.4602 41.265 48.2569 40.9375 48.0061 40.9375C47.7553 40.9375 47.552 41.265 47.552 41.6691C47.552 42.0731 47.7553 42.4006 48.0061 42.4006Z" fill="#262D40"/>
<path d="M45.1555 45.5542C45.1555 45.5542 45.0546 45.7307 44.878 45.983C44.6005 46.3362 44.1464 46.8407 43.5158 47.0425C43.2383 47.1182 42.9608 47.1687 42.6328 47.093C41.6742 46.9164 41.422 46.0587 41.3967 45.3776C41.3967 45.2514 41.3967 45.1253 41.3967 45.0244C41.3967 44.7469 41.422 44.5703 41.422 44.5703C42.9355 45.3776 45.1555 45.5542 45.1555 45.5542Z" fill="#CC454E"/>
<path d="M45.1556 45.5542C45.1556 45.5542 45.0547 45.7307 44.8781 45.983C44.0961 45.983 42.532 45.5794 41.3716 45.0244C41.3716 44.7469 41.3968 44.5703 41.3968 44.5703C42.9356 45.3776 45.1556 45.5542 45.1556 45.5542Z" fill="white"/>
<path d="M43.5158 47.0165C43.2383 47.0922 42.9608 47.1427 42.6328 47.067C41.6742 46.8904 41.422 46.0327 41.3967 45.3516C41.8508 45.402 42.3049 45.5786 42.6581 45.8561C43.0617 46.184 43.3644 46.5624 43.5158 47.0165Z" fill="#E8729B"/>
<path d="M34.5093 37.631C34.5093 37.631 34.4589 34.4777 35.7706 31.3496C37.4104 27.4143 40.7655 25.7493 43.9945 25.6232C47.9046 25.4718 50.3516 28.1206 50.3516 28.1206C50.3516 28.1206 49.0651 25.8754 46.5676 25.2196C44.9279 24.7907 42.4305 24.7403 40.4376 25.5475C38.369 26.38 35.8211 28.7008 34.8877 31.1478C33.9543 33.5948 33.5002 37.404 33.5002 37.404L34.5093 37.631Z" fill="#3D86E0"/>
<path d="M36.9961 40.91C36.7325 38.3742 35.1596 36.4598 33.4829 36.6341C31.8062 36.8084 30.6606 39.0054 30.9243 41.5413C31.1879 44.0771 32.7608 45.9915 34.4375 45.8172C36.1142 45.6429 37.2598 43.4459 36.9961 40.91Z" fill="#56C4F9"/>
<path d="M35.1144 41.2659C34.8287 39.3645 33.7148 37.9558 32.6263 38.1194C31.5379 38.2829 30.8872 39.9568 31.1729 41.8582C31.4586 43.7595 32.5725 45.1682 33.661 45.0046C34.7494 44.8411 35.4001 43.1672 35.1144 41.2659Z" fill="#3D86E0"/>
<path d="M44.0195 49.4595C44.9112 49.4595 45.634 49.0078 45.634 48.4505C45.634 47.8932 44.9112 47.4414 44.0195 47.4414C43.1279 47.4414 42.405 47.8932 42.405 48.4505C42.405 49.0078 43.1279 49.4595 44.0195 49.4595Z" fill="#3A92C9"/>
<path d="M35.8713 45.0703C35.8713 45.0703 38.2679 48.148 42.405 48.4507" stroke="#3A92C9" stroke-width="2" stroke-miterlimit="10" stroke-linecap="round"/>
<path d="M45.8108 75.2874L45.6594 79.3237C45.6594 79.3237 31.0784 83.6879 28.6567 82.3256C27.471 81.6445 26.3863 77.9362 25.5538 74.3036C24.6961 70.4944 24.1411 66.786 24.1411 66.786L32.6929 65.1211C32.6929 65.1211 32.6929 70.343 32.9957 73.345C33.0966 74.4549 33.2479 75.2874 33.4497 75.4136C34.2065 75.8929 45.8108 75.2874 45.8108 75.2874Z" fill="#F9A07B"/>
<path d="M32.9957 73.3201C31.4316 73.8246 28.4549 74.6067 25.5538 74.3039C24.6961 70.4947 24.1411 66.7864 24.1411 66.7864L32.6929 65.1215C32.6929 65.071 32.7182 70.2929 32.9957 73.3201Z" fill="#E06A58"/>
<path d="M45.382 75.3378C47.5515 74.8837 51.2346 73.7485 52.7482 73.3701C53.833 73.0926 56.6583 74.5558 57.3899 75.918C57.7179 76.5234 58.0206 79.929 56.8854 79.5759C56.3304 79.3993 56.4061 77.9361 56.2295 77.3559C56.0781 76.8766 55.624 76.3973 54.9177 75.9937C55.397 77.1541 55.3718 78.1632 55.3213 79.4245C55.3213 79.702 55.2961 80.0047 55.17 80.2318C55.0438 80.484 54.7411 80.6354 54.4889 80.5345C54.2366 80.4336 54.1357 80.1056 54.0852 79.8281C53.8834 78.8695 53.6816 77.8857 53.6059 76.8009C53.6311 77.8857 53.6059 78.9452 53.5302 80.0299C53.4798 80.8624 53.0762 81.2913 52.5716 81.1651C52.3446 81.0895 52.2437 80.8876 52.168 80.6354C52.0166 81.1651 51.6382 81.7454 51.1589 81.5183C50.8562 81.3922 50.6796 80.3074 50.7301 79.1975C49.7967 79.7777 48.7372 80.0299 47.5011 80.0804C46.4163 80.1308 45.2811 79.929 44.6252 79.1722C44.7009 78.0118 45.1045 76.2964 45.382 75.3378Z" fill="#F9A07B"/>
<path d="M52.2185 80.4577C52.2942 79.5748 52.2185 78.6919 51.9915 77.8594" stroke="#CC454E" stroke-miterlimit="10" stroke-linecap="round"/>
<path d="M31.7344 56.6236C31.1038 54.883 28.8334 51.3008 28.8334 51.3008C28.8334 51.3008 25.3521 52.7387 24.1412 55.1857C22.0474 59.3228 23.1069 71.2298 23.1069 71.2298C25.9071 72.4155 31.5578 72.4155 33.9544 72.0875C33.9796 72.1127 32.9958 60.1301 31.7344 56.6236Z" fill="#FFC73C"/>
<path d="M32.1887 57.3555C33.1473 61.871 33.6519 66.1091 33.8032 70.2463" stroke="#F2AE30" stroke-miterlimit="10" stroke-linecap="round"/>
<path d="M106.431 82.8359H6.96216V85.3334H106.431V82.8359Z" fill="#0B2D50"/>
</svg>
